STARTFONT 2.1
FONT -unknown-Standard-Italic-R-Normal--18-180-75-75-P-0-ISO10646-1
SIZE 18 75 75
FONTBOUNDINGBOX 18 18 0 0
STARTPROPERTIES 5
FAMILY_NAME "Standard"
WEIGHT_NAME "Italic"
PIXEL_SIZE 18
FONT_ASCENT 14
FONT_DESCENT 4
ENDPROPERTIES
CHARS 662
STARTCHAR space
ENCODING 32
SWIDTH 278 0
DWIDTH 5 0
BBX 0 0 0 0
BITMAP
ENDCHAR
STARTCHAR exclam
ENCODING 33
SWIDTH 278 0
DWIDTH 5 0
BBX 4 12 1 0
BITMAP
30
30
20
20
60
60
60
40
00
00
C0
C0
ENDCHAR
STARTCHAR quotedbl
ENCODING 34
SWIDTH 333 0
DWIDTH 6 0
BBX 5 4 2 8
BITMAP
D8
D8
90
90
ENDCHAR
STARTCHAR numbersign
ENCODING 35
SWIDTH 556 0
DWIDTH 10 0
BBX 10 12 0 0
BITMAP
1100
1100
1100
FFC0
2200
2200
2200
FFC0
2200
4400
4400
4400
ENDCHAR
STARTCHAR dollar
ENCODING 36
SWIDTH 556 0
DWIDTH 10 0
BBX 11 14 0 -1
BITMAP
0100
0F80
1AE0
3260
3200
3A00
1F00
0780
04C0
04C0
C4C0
6580
3F00
0800
ENDCHAR
STARTCHAR percent
ENCODING 37
SWIDTH 889 0
DWIDTH 16 0
BBX 13 12 2 0
BITMAP
3830
4420
8440
8480
8500
8B70
7688
0508
0908
1108
2110
60E0
ENDCHAR
STARTCHAR ampersand
ENCODING 38
SWIDTH 667 0
DWIDTH 12 0
BBX 11 12 1 0
BITMAP
0780
0CC0
18C0
19C0
1B80
1C00
7820
CC40
C4C0
C780
E700
7CE0
ENDCHAR
STARTCHAR quotesingle
ENCODING 39
SWIDTH 167 0
DWIDTH 3 0
BBX 2 4 2 8
BITMAP
C0
C0
80
80
ENDCHAR
STARTCHAR parenleft
ENCODING 40
SWIDTH 333 0
DWIDTH 6 0
BBX 7 17 1 -4
BITMAP
06
0C
18
30
30
60
60
C0
C0
C0
C0
C0
C0
C0
40
60
60
ENDCHAR
STARTCHAR parenright
ENCODING 41
SWIDTH 333 0
DWIDTH 6 0
BBX 7 17 -2 -4
BITMAP
18
0C
0C
06
06
06
06
06
06
06
0C
0C
18
18
30
60
C0
ENDCHAR
STARTCHAR asterisk
ENCODING 42
SWIDTH 389 0
DWIDTH 7 0
BBX 7 6 1 6
BITMAP
10
10
D6
38
28
44
ENDCHAR
STARTCHAR plus
ENCODING 43
SWIDTH 611 0
DWIDTH 11 0
BBX 9 9 1 2
BITMAP
0800
0800
0800
0800
FF80
0800
0800
0800
0800
ENDCHAR
STARTCHAR comma
ENCODING 44
SWIDTH 278 0
DWIDTH 5 0
BBX 3 4 0 -2
BITMAP
60
60
40
40
ENDCHAR
STARTCHAR hyphen
ENCODING 45
SWIDTH 333 0
DWIDTH 6 0
BBX 5 1 1 4
BITMAP
F8
ENDCHAR
STARTCHAR period
ENCODING 46
SWIDTH 278 0
DWIDTH 5 0
BBX 2 2 1 0
BITMAP
C0
C0
ENDCHAR
STARTCHAR slash
ENCODING 47
SWIDTH 278 0
DWIDTH 5 0
BBX 8 13 -1 0
BITMAP
03
02
06
04
0C
08
18
10
30
20
60
40
C0
ENDCHAR
STARTCHAR zero
ENCODING 48
SWIDTH 556 0
DWIDTH 10 0
BBX 9 12 1 0
BITMAP
1E00
3300
6180
6180
4180
C180
C180
C100
C300
C300
6600
3C00
ENDCHAR
STARTCHAR one
ENCODING 49
SWIDTH 556 0
DWIDTH 10 0
BBX 8 12 1 0
BITMAP
0E
16
26
0C
0C
0C
0C
0C
0C
18
18
FF
ENDCHAR
STARTCHAR two
ENCODING 50
SWIDTH 556 0
DWIDTH 10 0
BBX 10 12 0 0
BITMAP
0F00
18C0
30C0
00C0
00C0
0180
0700
0E00
1800
7000
4000
FF00
ENDCHAR
STARTCHAR three
ENCODING 51
SWIDTH 556 0
DWIDTH 10 0
BBX 9 12 1 0
BITMAP
1F00
3180
6180
0180
0300
1C00
0600
0300
0300
C300
6600
3C00
ENDCHAR
STARTCHAR four
ENCODING 52
SWIDTH 556 0
DWIDTH 10 0
BBX 8 12 1 0
BITMAP
03
07
0B
0E
16
26
46
46
FF
0C
0C
0C
ENDCHAR
STARTCHAR five
ENCODING 53
SWIDTH 556 0
DWIDTH 10 0
BBX 9 12 1 0
BITMAP
1F80
3000
3000
3000
7E00
6700
0300
0300
0300
C300
E600
3C00
ENDCHAR
STARTCHAR six
ENCODING 54
SWIDTH 556 0
DWIDTH 10 0
BBX 9 12 1 0
BITMAP
0F00
3380
6180
6000
5E00
E300
C300
C300
C300
C300
6600
3C00
ENDCHAR
STARTCHAR seven
ENCODING 55
SWIDTH 556 0
DWIDTH 10 0
BBX 9 12 2 0
BITMAP
FF80
0100
0200
0600
0C00
1800
3000
3000
6000
6000
C000
C000
ENDCHAR
STARTCHAR eight
ENCODING 56
SWIDTH 556 0
DWIDTH 10 0
BBX 9 12 1 0
BITMAP
1F00
7180
6180
6180
7300
3E00
6700
C300
C300
C300
E600
7C00
ENDCHAR
STARTCHAR nine
ENCODING 57
SWIDTH 556 0
DWIDTH 10 0
BBX 9 12 1 0
BITMAP
1E00
3300
6180
6180
6180
6180
7380
3F00
0300
C300
E600
7800
ENDCHAR
STARTCHAR colon
ENCODING 58
SWIDTH 278 0
DWIDTH 5 0
BBX 3 10 1 0
BITMAP
60
60
00
00
00
00
00
00
C0
C0
ENDCHAR
STARTCHAR semicolon
ENCODING 59
SWIDTH 278 0
DWIDTH 5 0
BBX 4 12 0 -2
BITMAP
30
30
00
00
00
00
00
00
60
60
40
40
ENDCHAR
STARTCHAR less
ENCODING 60
SWIDTH 611 0
DWIDTH 11 0
BBX 9 9 1 2
BITMAP
0080
0300
1C00
6000
8000
6000
1C00
0300
0080
ENDCHAR
STARTCHAR equal
ENCODING 61
SWIDTH 611 0
DWIDTH 11 0
BBX 9 6 1 3
BITMAP
FF80
0000
0000
0000
0000
FF80
ENDCHAR
STARTCHAR greater
ENCODING 62
SWIDTH 611 0
DWIDTH 11 0
BBX 9 9 1 2
BITMAP
8000
6000
1C00
0300
0080
0300
1C00
6000
8000
ENDCHAR
STARTCHAR question
ENCODING 63
SWIDTH 556 0
DWIDTH 10 0
BBX 8 12 2 0
BITMAP
3E
47
83
03
06
0C
10
20
00
00
60
60
ENDCHAR
STARTCHAR at
ENCODING 64
SWIDTH 1000 0
DWIDTH 18 0
BBX 15 15 2 -2
BITMAP
07E0
1818
3004
63B4
4672
C462
8C62
8C62
8C62
8C64
8CE4
4778
6000
3018
0FE0
ENDCHAR
STARTCHAR A
ENCODING 65
SWIDTH 667 0
DWIDTH 12 0
BBX 11 12 0 0
BITMAP
0380
0280
0680
04C0
0CC0
08C0
18C0
3FC0
3040
6060
6060
C060
ENDCHAR
STARTCHAR B
ENCODING 66
SWIDTH 667 0
DWIDTH 12 0
BBX 10 12 1 0
BITMAP
3F80
30C0
30C0
60C0
6180
7F00
6180
60C0
60C0
C0C0
C180
FF00
ENDCHAR
STARTCHAR C
ENCODING 67
SWIDTH 722 0
DWIDTH 13 0
BBX 12 12 1 0
BITMAP
0FC0
1860
2070
6030
C000
C000
C000
C000
C040
60C0
61C0
1F00
ENDCHAR
STARTCHAR D
ENCODING 68
SWIDTH 722 0
DWIDTH 13 0
BBX 12 12 1 0
BITMAP
3F80
30C0
3060
6030
6030
6030
6030
6030
6060
C0E0
C1C0
FF00
ENDCHAR
STARTCHAR E
ENCODING 69
SWIDTH 667 0
DWIDTH 12 0
BBX 11 12 1 0
BITMAP
3FE0
3000
3000
6000
6000
7F80
6000
6000
6000
C000
C000
FF80
ENDCHAR
STARTCHAR F
ENCODING 70
SWIDTH 611 0
DWIDTH 11 0
BBX 10 12 1 0
BITMAP
3FC0
3000
3000
6000
6000
7F80
6000
6000
6000
C000
C000
C000
ENDCHAR
STARTCHAR G
ENCODING 71
SWIDTH 778 0
DWIDTH 14 0
BBX 13 12 1 0
BITMAP
07E0
1830
3018
6000
C000
C000
C1F0
C030
C030
6060
70E0
1F80
ENDCHAR
STARTCHAR H
ENCODING 72
SWIDTH 722 0
DWIDTH 13 0
BBX 12 12 1 0
BITMAP
3030
3030
3030
6060
6060
7FE0
6060
6060
6060
C0C0
C0C0
C0C0
ENDCHAR
STARTCHAR I
ENCODING 73
SWIDTH 278 0
DWIDTH 5 0
BBX 4 12 1 0
BITMAP
30
30
30
60
60
60
60
60
60
C0
C0
C0
ENDCHAR
STARTCHAR J
ENCODING 74
SWIDTH 500 0
DWIDTH 9 0
BBX 9 12 0 0
BITMAP
0780
0180
0180
0300
0300
0300
0300
0300
0300
C600
E600
7C00
ENDCHAR
STARTCHAR K
ENCODING 75
SWIDTH 667 0
DWIDTH 12 0
BBX 12 12 1 0
BITMAP
3070
30C0
3180
6700
6E00
7C00
7600
6300
6300
C180
C0C0
C060
ENDCHAR
STARTCHAR L
ENCODING 76
SWIDTH 556 0
DWIDTH 10 0
BBX 8 12 1 0
BITMAP
30
30
30
60
60
60
60
60
60
C0
C0
FF
ENDCHAR
STARTCHAR M
ENCODING 77
SWIDTH 889 0
DWIDTH 16 0
BBX 15 12 1 0
BITMAP
380E
380E
3816
683C
6C2C
646C
644C
64CC
669C
C318
C318
C218
ENDCHAR
STARTCHAR N
ENCODING 78
SWIDTH 722 0
DWIDTH 13 0
BBX 12 12 1 0
BITMAP
3030
3830
3830
6C60
6460
6460
6260
6260
6360
C1C0
C1C0
C0C0
ENDCHAR
STARTCHAR O
ENCODING 79
SWIDTH 778 0
DWIDTH 14 0
BBX 13 12 1 0
BITMAP
07C0
1870
3030
6018
C018
C018
C018
C018
C030
6060
70C0
1F00
ENDCHAR
STARTCHAR P
ENCODING 80
SWIDTH 667 0
DWIDTH 12 0
BBX 10 12 1 0
BITMAP
3F80
30C0
30C0
60C0
61C0
7F00
6000
6000
6000
C000
C000
C000
ENDCHAR
STARTCHAR Q
ENCODING 81
SWIDTH 778 0
DWIDTH 14 0
BBX 13 15 1 -3
BITMAP
07C0
1870
3030
6018
C018
C018
C018
C018
C030
6060
70C0
1F80
0600
0600
0380
ENDCHAR
STARTCHAR R
ENCODING 82
SWIDTH 722 0
DWIDTH 13 0
BBX 11 12 1 0
BITMAP
3F80
30E0
3060
6060
6060
60C0
7F80
6200
6300
C180
C180
C0C0
ENDCHAR
STARTCHAR S
ENCODING 83
SWIDTH 667 0
DWIDTH 12 0
BBX 11 12 1 0
BITMAP
0F80
18E0
3060
3000
3800
1F00
0380
00C0
00C0
C0C0
6180
3F00
ENDCHAR
STARTCHAR T
ENCODING 84
SWIDTH 611 0
DWIDTH 11 0
BBX 10 12 2 0
BITMAP
FFC0
0C00
0C00
1800
1800
1800
1800
1800
1800
3000
3000
3000
ENDCHAR
STARTCHAR U
ENCODING 85
SWIDTH 722 0
DWIDTH 13 0
BBX 11 12 2 0
BITMAP
6060
6060
6060
C0C0
C0C0
C0C0
C0C0
C0C0
C0C0
C180
E300
3E00
ENDCHAR
STARTCHAR V
ENCODING 86
SWIDTH 667 0
DWIDTH 12 0
BBX 11 12 2 0
BITMAP
C060
C0C0
C0C0
C180
6180
6300
6300
6600
6400
2C00
2800
3800
ENDCHAR
STARTCHAR W
ENCODING 87
SWIDTH 944 0
DWIDTH 17 0
BBX 16 12 2 0
BITMAP
C183
C183
C286
C2C6
44C4
64CC
64CC
68C8
68D8
7050
7050
7070
ENDCHAR
STARTCHAR X
ENCODING 88
SWIDTH 667 0
DWIDTH 12 0
BBX 13 12 0 0
BITMAP
1818
0C30
0C60
06C0
0780
0300
0700
0D80
1980
30C0
60C0
C060
ENDCHAR
STARTCHAR Y
ENCODING 89
SWIDTH 667 0
DWIDTH 12 0
BBX 11 12 2 0
BITMAP
C060
C0C0
6180
6300
3600
3600
1C00
1800
1800
3000
3000
3000
ENDCHAR
STARTCHAR Z
ENCODING 90
SWIDTH 611 0
DWIDTH 11 0
BBX 12 12 0 0
BITMAP
1FF0
0060
00C0
0180
0300
0600
0600
0C00
1800
3000
6000
FFC0
ENDCHAR
STARTCHAR bracketleft
ENCODING 91
SWIDTH 278 0
DWIDTH 5 0
BBX 7 17 0 -4
BITMAP
1E
18
18
30
30
30
30
30
70
60
60
60
60
60
C0
C0
F0
ENDCHAR
STARTCHAR backslash
ENCODING 92
SWIDTH 278 0
DWIDTH 5 0
BBX 3 13 1 0
BITMAP
80
C0
C0
C0
C0
40
40
40
60
60
60
60
20
ENDCHAR
STARTCHAR bracketright
ENCODING 93
SWIDTH 278 0
DWIDTH 5 0
BBX 7 17 -1 -4
BITMAP
1E
06
06
0E
0C
0C
0C
0C
1C
18
18
18
18
38
30
30
F0
ENDCHAR
STARTCHAR asciicircum
ENCODING 94
SWIDTH 444 0
DWIDTH 8 0
BBX 7 6 1 6
BITMAP
10
28
28
44
44
82
ENDCHAR
STARTCHAR underscore
ENCODING 95
SWIDTH 556 0
DWIDTH 10 0
BBX 10 1 -1 -3
BITMAP
FFC0
ENDCHAR
STARTCHAR grave
ENCODING 96
SWIDTH 333 0
DWIDTH 6 0
BBX 3 3 1 11
BITMAP
C0
40
20
ENDCHAR
STARTCHAR a
ENCODING 97
SWIDTH 556 0
DWIDTH 10 0
BBX 9 10 1 0
BITMAP
1F00
3180
6180
0180
3F80
6380
C300
C300
C700
7B80
ENDCHAR
STARTCHAR b
ENCODING 98
SWIDTH 556 0
DWIDTH 10 0
BBX 9 13 1 0
BITMAP
3000
3000
3000
7F00
7180
7180
6180
6180
6180
6180
E300
E300
DE00
ENDCHAR
STARTCHAR c
ENCODING 99
SWIDTH 500 0
DWIDTH 9 0
BBX 8 10 1 0
BITMAP
1E
63
63
C0
C0
C0
C0
C6
CC
78
ENDCHAR
STARTCHAR d
ENCODING 100
SWIDTH 556 0
DWIDTH 10 0
BBX 10 13 1 0
BITMAP
00C0
00C0
00C0
3D80
6380
6180
C180
C180
C180
C380
C300
C700
7B00
ENDCHAR
STARTCHAR e
ENCODING 101
SWIDTH 556 0
DWIDTH 10 0
BBX 9 10 1 0
BITMAP
1E00
3380
6180
C180
FF80
C000
C000
C300
6600
3C00
ENDCHAR
STARTCHAR f
ENCODING 102
SWIDTH 278 0
DWIDTH 5 0
BBX 6 13 1 0
BITMAP
1C
30
30
F8
60
60
60
60
60
60
C0
C0
C0
ENDCHAR
STARTCHAR g
ENCODING 103
SWIDTH 556 0
DWIDTH 10 0
BBX 10 14 0 -4
BITMAP
1CC0
3380
3180
6180
6180
6180
6380
6300
6700
3B00
0300
C300
E600
7C00
ENDCHAR
STARTCHAR h
ENCODING 104
SWIDTH 556 0
DWIDTH 10 0
BBX 9 13 1 0
BITMAP
3000
3000
3000
6F00
7180
6180
6180
6180
6180
6180
C300
C300
C300
ENDCHAR
STARTCHAR i
ENCODING 105
SWIDTH 278 0
DWIDTH 5 0
BBX 4 13 1 0
BITMAP
30
30
00
70
60
60
60
60
60
60
C0
C0
C0
ENDCHAR
STARTCHAR j
ENCODING 106
SWIDTH 222 0
DWIDTH 4 0
BBX 7 17 -2 -4
BITMAP
06
06
00
0E
0C
0C
0C
0C
0C
0C
18
18
18
18
18
30
E0
ENDCHAR
STARTCHAR k
ENCODING 107
SWIDTH 500 0
DWIDTH 9 0
BBX 9 13 1 0
BITMAP
3000
3000
3000
6180
6300
6600
6C00
7800
6800
6C00
C600
C600
C300
ENDCHAR
STARTCHAR l
ENCODING 108
SWIDTH 278 0
DWIDTH 5 0
BBX 4 13 1 0
BITMAP
30
30
30
60
60
60
60
60
60
60
C0
C0
C0
ENDCHAR
STARTCHAR m
ENCODING 109
SWIDTH 833 0
DWIDTH 15 0
BBX 13 10 1 0
BITMAP
2E70
7398
6318
6318
6318
6318
6318
C630
C630
C630
ENDCHAR
STARTCHAR n
ENCODING 110
SWIDTH 556 0
DWIDTH 10 0
BBX 9 10 1 0
BITMAP
2F00
7180
7180
6180
6180
6180
6180
C300
C300
C300
ENDCHAR
STARTCHAR o
ENCODING 111
SWIDTH 556 0
DWIDTH 10 0
BBX 9 10 1 0
BITMAP
1E00
3300
6180
C180
C180
C180
C180
C300
6200
3C00
ENDCHAR
STARTCHAR p
ENCODING 112
SWIDTH 556 0
DWIDTH 10 0
BBX 10 14 0 -4
BITMAP
3780
38C0
30C0
30C0
30C0
30C0
30C0
7180
7180
6F00
6000
6000
6000
C000
ENDCHAR
STARTCHAR q
ENCODING 113
SWIDTH 556 0
DWIDTH 10 0
BBX 10 14 1 -4
BITMAP
1CC0
6380
6180
C180
C180
C180
C380
C300
C700
7B00
0300
0300
0300
0700
ENDCHAR
STARTCHAR r
ENCODING 114
SWIDTH 333 0
DWIDTH 6 0
BBX 6 10 1 0
BITMAP
2C
70
60
60
60
60
60
C0
C0
C0
ENDCHAR
STARTCHAR s
ENCODING 115
SWIDTH 500 0
DWIDTH 9 0
BBX 8 10 1 0
BITMAP
3E
63
63
60
38
1E
06
C6
E6
7C
ENDCHAR
STARTCHAR t
ENCODING 116
SWIDTH 278 0
DWIDTH 5 0
BBX 5 12 1 0
BITMAP
30
30
F8
60
60
60
60
60
60
C0
C0
70
ENDCHAR
STARTCHAR u
ENCODING 117
SWIDTH 556 0
DWIDTH 10 0
BBX 10 10 1 0
BITMAP
6180
6180
6180
6180
6180
6180
6380
C300
6700
7B00
ENDCHAR
STARTCHAR v
ENCODING 118
SWIDTH 500 0
DWIDTH 9 0
BBX 8 10 2 0
BITMAP
C3
C3
C6
C6
CC
CC
58
58
50
70
ENDCHAR
STARTCHAR w
ENCODING 119
SWIDTH 722 0
DWIDTH 13 0
BBX 12 10 2 0
BITMAP
C630
CE30
CE60
CE60
D640
D2C0
E280
E380
E300
C300
ENDCHAR
STARTCHAR x
ENCODING 120
SWIDTH 500 0
DWIDTH 9 0
BBX 10 10 0 0
BITMAP
18C0
1980
0B00
0E00
0E00
0E00
1E00
3600
6300
C300
ENDCHAR
STARTCHAR y
ENCODING 121
SWIDTH 500 0
DWIDTH 9 0
BBX 10 14 0 -4
BITMAP
30C0
30C0
3180
3180
3300
3300
1600
1600
1C00
1C00
1800
3800
3000
E000
ENDCHAR
STARTCHAR z
ENCODING 122
SWIDTH 444 0
DWIDTH 8 0
BBX 7 10 1 0
BITMAP
7E
06
0C
18
18
30
30
60
C0
FC
ENDCHAR
STARTCHAR braceleft
ENCODING 123
SWIDTH 333 0
DWIDTH 6 0
BBX 8 17 0 -4
BITMAP
07
0C
0C
0C
18
18
30
C0
30
30
30
30
60
60
60
60
38
ENDCHAR
STARTCHAR bar
ENCODING 124
SWIDTH 278 0
DWIDTH 5 0
BBX 2 17 2 -4
BITMAP
C0
C0
C0
C0
C0
C0
C0
C0
C0
C0
C0
C0
C0
C0
C0
C0
C0
ENDCHAR
STARTCHAR braceright
ENCODING 125
SWIDTH 333 0
DWIDTH 6 0
BBX 7 17 -1 -4
BITMAP
18
0C
0C
0C
18
18
18
06
0C
18
18
18
30
30
30
30
E0
ENDCHAR
STARTCHAR asciitilde
ENCODING 126
SWIDTH 611 0
DWIDTH 11 0
BBX 9 3 1 5
BITMAP
7000
8C80
0700
ENDCHAR
STARTCHAR space
ENCODING 160
SWIDTH 278 0
DWIDTH 5 0
BBX 0 0 0 0
BITMAP
ENDCHAR
STARTCHAR exclamdown
ENCODING 161
SWIDTH 333 0
DWIDTH 6 0
BBX 4 13 2 -3
BITMAP
30
30
00
00
20
60
60
60
60
40
C0
C0
C0
ENDCHAR
STARTCHAR cent
ENCODING 162
SWIDTH 556 0
DWIDTH 10 0
BBX 14 13 -1 -1
BITMAP
0020
01E0
0618
0E08
1200
2200
3200
F200
F260
7E40
3FC0
0600
0600
ENDCHAR
STARTCHAR sterling
ENCODING 163
SWIDTH 556 0
DWIDTH 10 0
BBX 10 12 1 0
BITMAP
0F80
18C0
1800
3000
3000
7E00
3000
3000
3000
6180
4380
FF00
ENDCHAR
STARTCHAR currency
ENCODING 164
SWIDTH 556 0
DWIDTH 10 0
BBX 8 8 1 2
BITMAP
BD
42
81
81
81
81
42
BD
ENDCHAR
STARTCHAR yen
ENCODING 165
SWIDTH 556 0
DWIDTH 10 0
BBX 11 12 0 0
BITMAP
3060
30C0
18C0
1980
1B00
0A00
7F80
0C00
7F80
1800
1800
1800
ENDCHAR
STARTCHAR brokenbar
ENCODING 166
SWIDTH 278 0
DWIDTH 5 0
BBX 2 17 2 -4
BITMAP
C0
C0
C0
C0
C0
C0
C0
00
00
00
C0
C0
C0
C0
C0
C0
C0
ENDCHAR
STARTCHAR section
ENCODING 167
SWIDTH 556 0
DWIDTH 10 0
BBX 10 15 1 -2
BITMAP
1F80
30C0
3000
3800
1E00
6380
6180
6180
7180
1E00
0700
0300
0300
C300
7C00
ENDCHAR
STARTCHAR dieresis
ENCODING 168
SWIDTH 333 0
DWIDTH 6 0
BBX 6 2 1 11
BITMAP
CC
CC
ENDCHAR
STARTCHAR copyright
ENCODING 169
SWIDTH 722 0
DWIDTH 13 0
BBX 12 12 1 0
BITMAP
0F00
30C0
4020
4F20
9890
9010
9010
9890
4F20
4020
30C0
0F00
ENDCHAR
STARTCHAR ordfeminine
ENCODING 170
SWIDTH 389 0
DWIDTH 7 0
BBX 6 7 1 6
BITMAP
18
6C
04
7C
8C
88
FC
ENDCHAR
STARTCHAR guillemotleft
ENCODING 171
SWIDTH 556 0
DWIDTH 10 0
BBX 9 7 1 1
BITMAP
1980
3300
4400
8800
4400
6600
3300
ENDCHAR
STARTCHAR logicalnot
ENCODING 172
SWIDTH 611 0
DWIDTH 11 0
BBX 7 5 2 2
BITMAP
FE
02
02
02
02
ENDCHAR
STARTCHAR hyphen
ENCODING 173
SWIDTH 333 0
DWIDTH 6 0
BBX 5 1 1 4
BITMAP
F8
ENDCHAR
STARTCHAR registered
ENCODING 174
SWIDTH 722 0
DWIDTH 13 0
BBX 12 12 1 0
BITMAP
0F00
30C0
4020
4F20
8890
8890
8F10
8910
48A0
4020
30C0
0F00
ENDCHAR
STARTCHAR macron
ENCODING 175
SWIDTH 556 0
DWIDTH 10 0
BBX 10 1 0 13
BITMAP
FFC0
ENDCHAR
STARTCHAR degree
ENCODING 176
SWIDTH 389 0
DWIDTH 7 0
BBX 5 5 2 7
BITMAP
70
88
88
88
70
ENDCHAR
STARTCHAR plusminus
ENCODING 177
SWIDTH 556 0
DWIDTH 10 0
BBX 7 11 1 0
BITMAP
10
10
10
10
FE
10
10
10
10
00
FE
ENDCHAR
STARTCHAR uni00B2
ENCODING 178
SWIDTH 333 0
DWIDTH 6 0
BBX 7 8 0 4
BITMAP
3C
66
06
0E
18
30
40
FC
ENDCHAR
STARTCHAR uni00B3
ENCODING 179
SWIDTH 333 0
DWIDTH 6 0
BBX 7 8 0 4
BITMAP
3C
66
06
38
0C
0C
CC
78
ENDCHAR
STARTCHAR acute
ENCODING 180
SWIDTH 333 0
DWIDTH 6 0
BBX 4 3 2 11
BITMAP
30
60
80
ENDCHAR
STARTCHAR u00B5
ENCODING 181
SWIDTH 556 0
DWIDTH 10 0
BBX 10 14 0 -4
BITMAP
31C0
3180
3180
3180
3180
3180
3380
6300
7300
7F80
6000
6000
6000
C000
ENDCHAR
STARTCHAR paragraph
ENCODING 182
SWIDTH 556 0
DWIDTH 10 0
BBX 8 14 2 -2
BITMAP
7F
F2
F2
F2
F2
72
12
12
12
12
12
12
12
12
ENDCHAR
STARTCHAR periodcentered
ENCODING 183
SWIDTH 278 0
DWIDTH 5 0
BBX 2 2 1 5
BITMAP
C0
C0
ENDCHAR
STARTCHAR cedilla
ENCODING 184
SWIDTH 333 0
DWIDTH 6 0
BBX 4 4 1 -4
BITMAP
20
70
10
E0
ENDCHAR
STARTCHAR uni00B9
ENCODING 185
SWIDTH 333 0
DWIDTH 6 0
BBX 6 8 1 4
BITMAP
38
58
18
18
30
30
30
FC
ENDCHAR
STARTCHAR ordmasculine
ENCODING 186
SWIDTH 389 0
DWIDTH 7 0
BBX 7 7 1 5
BITMAP
3C
66
C6
C6
C6
CC
78
ENDCHAR
STARTCHAR guillemotright
ENCODING 187
SWIDTH 556 0
DWIDTH 10 0
BBX 9 7 0 1
BITMAP
6600
3300
1100
0880
1100
6600
CC00
ENDCHAR
STARTCHAR onequarter
ENCODING 188
SWIDTH 833 0
DWIDTH 15 0
BBX 14 12 1 0
BITMAP
3818
5830
1860
1840
3098
3138
3258
FC98
0898
19FC
3030
6030
ENDCHAR
STARTCHAR onehalf
ENCODING 189
SWIDTH 833 0
DWIDTH 15 0
BBX 14 12 1 0
BITMAP
3818
5830
1860
1840
30F8
31CC
320C
FC1C
0830
1860
3080
61F8
ENDCHAR
STARTCHAR threequarters
ENCODING 190
SWIDTH 833 0
DWIDTH 15 0
BBX 14 12 1 0
BITMAP
3C18
6630
0660
3840
0C98
0D38
CE58
7C98
0898
19FC
3030
6030
ENDCHAR
STARTCHAR questiondown
ENCODING 191
SWIDTH 611 0
DWIDTH 11 0
BBX 8 13 2 -3
BITMAP
06
06
00
00
04
18
30
60
C0
C0
C1
E2
7C
ENDCHAR
STARTCHAR Agrave
ENCODING 192
SWIDTH 667 0
DWIDTH 12 0
BBX 11 15 0 0
BITMAP
0300
0080
0000
0380
0280
0680
04C0
0CC0
08C0
18C0
3FC0
3040
6060
6060
C060
ENDCHAR
STARTCHAR Aacute
ENCODING 193
SWIDTH 667 0
DWIDTH 12 0
BBX 11 15 0 0
BITMAP
0060
0180
0000
0380
0280
0680
04C0
0CC0
08C0
18C0
3FC0
3040
6060
6060
C060
ENDCHAR
STARTCHAR Acircumflex
ENCODING 194
SWIDTH 667 0
DWIDTH 12 0
BBX 11 15 0 0
BITMAP
01C0
0260
0000
0380
0280
0680
04C0
0CC0
08C0
18C0
3FC0
3040
6060
6060
C060
ENDCHAR
STARTCHAR Atilde
ENCODING 195
SWIDTH 667 0
DWIDTH 12 0
BBX 11 15 0 0
BITMAP
0320
04C0
0000
0380
0280
0680
04C0
0CC0
08C0
18C0
3FC0
3040
6060
6060
C060
ENDCHAR
STARTCHAR Adieresis
ENCODING 196
SWIDTH 667 0
DWIDTH 12 0
BBX 11 15 0 0
BITMAP
0660
0660
0000
0380
0280
0680
04C0
0CC0
08C0
18C0
3FC0
3040
6060
6060
C060
ENDCHAR
STARTCHAR Aring
ENCODING 197
SWIDTH 667 0
DWIDTH 12 0
BBX 11 15 0 0
BITMAP
0180
0240
0240
0380
0280
0680
04C0
0CC0
08C0
18C0
3FC0
3040
6060
6060
C060
ENDCHAR
STARTCHAR AE
ENCODING 198
SWIDTH 1000 0
DWIDTH 18 0
BBX 18 12 0 0
BITMAP
01FFC0
033000
033000
066000
066000
0C7F80
186000
1FE000
306000
30C000
60C000
C0FF00
ENDCHAR
STARTCHAR Ccedilla
ENCODING 199
SWIDTH 722 0
DWIDTH 13 0
BBX 12 16 1 -4
BITMAP
0FC0
1860
2070
6030
C000
C000
C000
C000
C040
60C0
61C0
1F00
0400
0E00
0200
1C00
ENDCHAR
STARTCHAR Egrave
ENCODING 200
SWIDTH 667 0
DWIDTH 12 0
BBX 11 15 1 0
BITMAP
0600
0100
0000
3FE0
3000
3000
6000
6000
7F80
6000
6000
6000
C000
C000
FF80
ENDCHAR
STARTCHAR Eacute
ENCODING 201
SWIDTH 667 0
DWIDTH 12 0
BBX 11 15 1 0
BITMAP
00C0
0300
0000
3FE0
3000
3000
6000
6000
7F80
6000
6000
6000
C000
C000
FF80
ENDCHAR
STARTCHAR Ecircumflex
ENCODING 202
SWIDTH 667 0
DWIDTH 12 0
BBX 11 15 1 0
BITMAP
0380
04C0
0000
3FE0
3000
3000
6000
6000
7F80
6000
6000
6000
C000
C000
FF80
ENDCHAR
STARTCHAR Edieresis
ENCODING 203
SWIDTH 667 0
DWIDTH 12 0
BBX 11 15 1 0
BITMAP
0CC0
0CC0
0000
3FE0
3000
3000
6000
6000
7F80
6000
6000
6000
C000
C000
FF80
ENDCHAR
STARTCHAR Igrave
ENCODING 204
SWIDTH 278 0
DWIDTH 5 0
BBX 5 15 1 0
BITMAP
30
08
00
30
30
30
60
60
60
60
60
60
C0
C0
C0
ENDCHAR
STARTCHAR Iacute
ENCODING 205
SWIDTH 278 0
DWIDTH 5 0
BBX 7 15 1 0
BITMAP
06
18
00
30
30
30
60
60
60
60
60
60
C0
C0
C0
ENDCHAR
STARTCHAR Icircumflex
ENCODING 206
SWIDTH 278 0
DWIDTH 5 0
BBX 7 15 1 0
BITMAP
1C
26
00
30
30
30
60
60
60
60
60
60
C0
C0
C0
ENDCHAR
STARTCHAR Idieresis
ENCODING 207
SWIDTH 278 0
DWIDTH 5 0
BBX 7 15 1 0
BITMAP
66
66
00
30
30
30
60
60
60
60
60
60
C0
C0
C0
ENDCHAR
STARTCHAR Eth
ENCODING 208
SWIDTH 722 0
DWIDTH 13 0
BBX 12 12 1 0
BITMAP
3F80
30E0
3060
6030
6030
FE30
6030
6030
6060
C060
C1C0
FF00
ENDCHAR
STARTCHAR Ntilde
ENCODING 209
SWIDTH 722 0
DWIDTH 13 0
BBX 12 15 1 0
BITMAP
0320
04C0
0000
3030
3830
3830
6C60
6460
6460
6260
6260
6360
C1C0
C1C0
C0C0
ENDCHAR
STARTCHAR Ograve
ENCODING 210
SWIDTH 778 0
DWIDTH 14 0
BBX 13 15 1 0
BITMAP
0300
0080
0000
07C0
1870
3030
6018
C018
C018
C018
C018
C030
6060
70C0
1F00
ENDCHAR
STARTCHAR Oacute
ENCODING 211
SWIDTH 778 0
DWIDTH 14 0
BBX 13 15 1 0
BITMAP
0060
0180
0000
07C0
1870
3030
6018
C018
C018
C018
C018
C030
6060
70C0
1F00
ENDCHAR
STARTCHAR Ocircumflex
ENCODING 212
SWIDTH 778 0
DWIDTH 14 0
BBX 13 15 1 0
BITMAP
01C0
0260
0000
07C0
1870
3030
6018
C018
C018
C018
C018
C030
6060
70C0
1F00
ENDCHAR
STARTCHAR Otilde
ENCODING 213
SWIDTH 778 0
DWIDTH 14 0
BBX 13 15 1 0
BITMAP
0320
04C0
0000
07C0
1870
3030
6018
C018
C018
C018
C018
C030
6060
70C0
1F00
ENDCHAR
STARTCHAR Odieresis
ENCODING 214
SWIDTH 778 0
DWIDTH 14 0
BBX 13 15 1 0
BITMAP
0660
0660
0000
07C0
1870
3030
6018
C018
C018
C018
C018
C030
6060
70C0
1F00
ENDCHAR
STARTCHAR multiply
ENCODING 215
SWIDTH 611 0
DWIDTH 11 0
BBX 7 7 2 3
BITMAP
82
44
28
10
28
44
82
ENDCHAR
STARTCHAR Oslash
ENCODING 216
SWIDTH 778 0
DWIDTH 14 0
BBX 15 12 0 0
BITMAP
03E4
0C38
1838
306C
60CC
618C
630C
660C
6C18
3830
3060
4F80
ENDCHAR
STARTCHAR Ugrave
ENCODING 217
SWIDTH 722 0
DWIDTH 13 0
BBX 11 15 2 0
BITMAP
0600
0100
0000
6060
6060
6060
C0C0
C0C0
C0C0
C0C0
C0C0
C0C0
C180
E300
3E00
ENDCHAR
STARTCHAR Uacute
ENCODING 218
SWIDTH 722 0
DWIDTH 13 0
BBX 11 15 2 0
BITMAP
0180
0600
0000
6060
6060
6060
C0C0
C0C0
C0C0
C0C0
C0C0
C0C0
C180
E300
3E00
ENDCHAR
STARTCHAR Ucircumflex
ENCODING 219
SWIDTH 722 0
DWIDTH 13 0
BBX 11 15 2 0
BITMAP
0700
0980
0000
6060
6060
6060
C0C0
C0C0
C0C0
C0C0
C0C0
C0C0
C180
E300
3E00
ENDCHAR
STARTCHAR Udieresis
ENCODING 220
SWIDTH 722 0
DWIDTH 13 0
BBX 11 15 2 0
BITMAP
1980
1980
0000
6060
6060
6060
C0C0
C0C0
C0C0
C0C0
C0C0
C0C0
C180
E300
3E00
ENDCHAR
STARTCHAR Yacute
ENCODING 221
SWIDTH 667 0
DWIDTH 12 0
BBX 11 15 2 0
BITMAP
0180
0600
0000
C060
C0C0
6180
6300
3600
3600
1C00
1800
1800
3000
3000
3000
ENDCHAR
STARTCHAR Thorn
ENCODING 222
SWIDTH 667 0
DWIDTH 12 0
BBX 10 12 1 0
BITMAP
3000
3000
3000
7F80
61C0
60C0
60C0
6180
7F00
C000
C000
C000
ENDCHAR
STARTCHAR germandbls
ENCODING 223
SWIDTH 611 0
DWIDTH 11 0
BBX 10 13 1 0
BITMAP
0F80
38C0
30C0
60C0
6380
6600
6600
6300
6180
60C0
C0C0
D1C0
DF00
ENDCHAR
STARTCHAR agrave
ENCODING 224
SWIDTH 556 0
DWIDTH 10 0
BBX 9 14 1 0
BITMAP
0C00
0400
0200
0000
1F00
3180
6180
0180
3F80
6380
C300
C300
C700
7B80
ENDCHAR
STARTCHAR aacute
ENCODING 225
SWIDTH 556 0
DWIDTH 10 0
BBX 9 14 1 0
BITMAP
0180
0300
0400
0000
1F00
3180
6180
0180
3F80
6380
C300
C300
C700
7B80
ENDCHAR
STARTCHAR acircumflex
ENCODING 226
SWIDTH 556 0
DWIDTH 10 0
BBX 9 14 1 0
BITMAP
0700
0D00
1880
0000
1F00
3180
6180
0180
3F80
6380
C300
C300
C700
7B80
ENDCHAR
STARTCHAR atilde
ENCODING 227
SWIDTH 556 0
DWIDTH 10 0
BBX 9 14 1 0
BITMAP
1880
2480
2300
0000
1F00
3180
6180
0180
3F80
6380
C300
C300
C700
7B80
ENDCHAR
STARTCHAR adieresis
ENCODING 228
SWIDTH 556 0
DWIDTH 10 0
BBX 9 13 1 0
BITMAP
1980
1980
0000
1F00
3180
6180
0180
3F80
6380
C300
C300
C700
7B80
ENDCHAR
STARTCHAR aring
ENCODING 229
SWIDTH 556 0
DWIDTH 10 0
BBX 9 15 1 0
BITMAP
0600
0900
0900
0600
0000
1F00
3180
6180
0180
3F80
6380
C300
C300
C700
7B80
ENDCHAR
STARTCHAR ae
ENCODING 230
SWIDTH 889 0
DWIDTH 16 0
BBX 15 10 1 0
BITMAP
1F3C
31C6
6186
0186
3FFE
6300
C300
C70C
C598
78F0
ENDCHAR
STARTCHAR ccedilla
ENCODING 231
SWIDTH 500 0
DWIDTH 9 0
BBX 8 14 1 -4
BITMAP
1E
63
63
C0
C0
C0
C0
C6
CC
78
10
38
08
70
ENDCHAR
STARTCHAR egrave
ENCODING 232
SWIDTH 556 0
DWIDTH 10 0
BBX 9 14 1 0
BITMAP
0C00
0400
0200
0000
1E00
3380
6180
C180
FF80
C000
C000
C300
6600
3C00
ENDCHAR
STARTCHAR eacute
ENCODING 233
SWIDTH 556 0
DWIDTH 10 0
BBX 9 14 1 0
BITMAP
0180
0300
0400
0000
1E00
3380
6180
C180
FF80
C000
C000
C300
6600
3C00
ENDCHAR
STARTCHAR ecircumflex
ENCODING 234
SWIDTH 556 0
DWIDTH 10 0
BBX 9 14 1 0
BITMAP
0700
0D00
1880
0000
1E00
3380
6180
C180
FF80
C000
C000
C300
6600
3C00
ENDCHAR
STARTCHAR edieresis
ENCODING 235
SWIDTH 556 0
DWIDTH 10 0
BBX 9 13 1 0
BITMAP
1980
1980
0000
1E00
3380
6180
C180
FF80
C000
C000
C300
6600
3C00
ENDCHAR
STARTCHAR igrave
ENCODING 236
SWIDTH 278 0
DWIDTH 5 0
BBX 4 14 1 0
BITMAP
60
20
10
00
60
60
60
60
60
60
60
C0
C0
C0
ENDCHAR
STARTCHAR iacute
ENCODING 237
SWIDTH 278 0
DWIDTH 5 0
BBX 6 14 1 0
BITMAP
0C
18
20
00
60
60
60
60
60
60
60
C0
C0
C0
ENDCHAR
STARTCHAR icircumflex
ENCODING 238
SWIDTH 278 0
DWIDTH 5 0
BBX 6 14 1 0
BITMAP
38
68
C4
00
60
60
60
60
60
60
60
C0
C0
C0
ENDCHAR
STARTCHAR idieresis
ENCODING 239
SWIDTH 278 0
DWIDTH 5 0
BBX 6 13 1 0
BITMAP
CC
CC
00
60
60
60
60
60
60
60
C0
C0
C0
ENDCHAR
STARTCHAR eth
ENCODING 240
SWIDTH 556 0
DWIDTH 10 0
BBX 9 13 1 0
BITMAP
0D80
0E00
1300
0100
3F80
6380
6180
C180
C180
C180
C300
6300
3C00
ENDCHAR
STARTCHAR ntilde
ENCODING 241
SWIDTH 556 0
DWIDTH 10 0
BBX 9 14 1 0
BITMAP
1880
2480
2300
0000
2F00
7180
7180
6180
6180
6180
6180
C300
C300
C300
ENDCHAR
STARTCHAR ograve
ENCODING 242
SWIDTH 556 0
DWIDTH 10 0
BBX 9 14 1 0
BITMAP
0C00
0400
0200
0000
1E00
3300
6180
C180
C180
C180
C180
C300
6200
3C00
ENDCHAR
STARTCHAR oacute
ENCODING 243
SWIDTH 556 0
DWIDTH 10 0
BBX 9 14 1 0
BITMAP
0300
0600
0800
0000
1E00
3300
6180
C180
C180
C180
C180
C300
6200
3C00
ENDCHAR
STARTCHAR ocircumflex
ENCODING 244
SWIDTH 556 0
DWIDTH 10 0
BBX 9 14 1 0
BITMAP
0700
0D00
1880
0000
1E00
3300
6180
C180
C180
C180
C180
C300
6200
3C00
ENDCHAR
STARTCHAR otilde
ENCODING 245
SWIDTH 556 0
DWIDTH 10 0
BBX 9 14 1 0
BITMAP
1880
2480
2300
0000
1E00
3300
6180
C180
C180
C180
C180
C300
6200
3C00
ENDCHAR
STARTCHAR odieresis
ENCODING 246
SWIDTH 556 0
DWIDTH 10 0
BBX 9 13 1 0
BITMAP
1980
1980
0000
1E00
3300
6180
C180
C180
C180
C180
C300
6200
3C00
ENDCHAR
STARTCHAR divide
ENCODING 247
SWIDTH 556 0
DWIDTH 10 0
BBX 8 9 1 2
BITMAP
18
18
00
00
FF
00
00
18
18
ENDCHAR
STARTCHAR oslash
ENCODING 248
SWIDTH 611 0
DWIDTH 11 0
BBX 12 10 0 0
BITMAP
0FE0
18C0
31E0
6160
6260
6460
6840
78C0
3180
5F00
ENDCHAR
STARTCHAR ugrave
ENCODING 249
SWIDTH 556 0
DWIDTH 10 0
BBX 10 14 1 0
BITMAP
0C00
0400
0200
0000
6180
6180
6180
6180
6180
6180
6380
C300
6700
7B00
ENDCHAR
STARTCHAR uacute
ENCODING 250
SWIDTH 556 0
DWIDTH 10 0
BBX 10 14 1 0
BITMAP
0180
0300
0400
0000
6180
6180
6180
6180
6180
6180
6380
C300
6700
7B00
ENDCHAR
STARTCHAR ucircumflex
ENCODING 251
SWIDTH 556 0
DWIDTH 10 0
BBX 10 14 1 0
BITMAP
0700
0D00
1880
0000
6180
6180
6180
6180
6180
6180
6380
C300
6700
7B00
ENDCHAR
STARTCHAR udieresis
ENCODING 252
SWIDTH 556 0
DWIDTH 10 0
BBX 10 13 1 0
BITMAP
1980
1980
0000
6180
6180
6180
6180
6180
6180
6380
C300
6700
7B00
ENDCHAR
STARTCHAR yacute
ENCODING 253
SWIDTH 500 0
DWIDTH 9 0
BBX 10 18 0 -4
BITMAP
0180
0300
0400
0000
30C0
30C0
3180
3180
3300
3300
1600
1600
1C00
1C00
1800
3800
3000
E000
ENDCHAR
STARTCHAR thorn
ENCODING 254
SWIDTH 556 0
DWIDTH 10 0
BBX 10 17 0 -4
BITMAP
1800
1800
1800
3780
38C0
30C0
30C0
30C0
30C0
30C0
7180
7180
6F00
6000
6000
6000
C000
ENDCHAR
STARTCHAR ydieresis
ENCODING 255
SWIDTH 500 0
DWIDTH 9 0
BBX 10 17 0 -4
BITMAP
1980
1980
0000
30C0
30C0
3180
3180
3300
3300
1600
1600
1C00
1C00
1800
3800
3000
E000
ENDCHAR
STARTCHAR Amacron
ENCODING 256
SWIDTH 667 0
DWIDTH 12 0
BBX 11 14 0 0
BITMAP
03E0
0000
0380
0280
0680
04C0
0CC0
08C0
18C0
3FC0
3040
6060
6060
C060
ENDCHAR
STARTCHAR amacron
ENCODING 257
SWIDTH 556 0
DWIDTH 10 0
BBX 9 12 1 0
BITMAP
1F00
0000
1F00
3180
6180
0180
3F80
6380
C300
C300
C700
7B80
ENDCHAR
STARTCHAR Abreve
ENCODING 258
SWIDTH 667 0
DWIDTH 12 0
BBX 12 15 0 0
BITMAP
0210
01E0
0000
0380
0280
0680
04C0
0CC0
08C0
18C0
3FC0
3040
6060
6060
C060
ENDCHAR
STARTCHAR abreve
ENCODING 259
SWIDTH 556 0
DWIDTH 10 0
BBX 9 14 1 0
BITMAP
1080
1100
0E00
0000
1F00
3180
6180
0180
3F80
6380
C300
C300
C700
7B80
ENDCHAR
STARTCHAR Aogonek
ENCODING 260
SWIDTH 667 0
DWIDTH 12 0
BBX 11 16 0 -4
BITMAP
0380
0280
0680
04C0
0CC0
08C0
18C0
3FC0
3040
6060
6060
C060
0080
0100
0100
01C0
ENDCHAR
STARTCHAR aogonek
ENCODING 261
SWIDTH 556 0
DWIDTH 10 0
BBX 9 14 1 -4
BITMAP
1F00
3180
6180
0180
3F80
6380
C300
C300
C700
7B80
0100
0200
0200
0380
ENDCHAR
STARTCHAR Cacute
ENCODING 262
SWIDTH 722 0
DWIDTH 13 0
BBX 12 15 1 0
BITMAP
0060
0180
0000
0FC0
1860
2070
6030
C000
C000
C000
C000
C040
60C0
61C0
1F00
ENDCHAR
STARTCHAR cacute
ENCODING 263
SWIDTH 500 0
DWIDTH 9 0
BBX 8 14 1 0
BITMAP
03
06
08
00
1E
63
63
C0
C0
C0
C0
C6
CC
78
ENDCHAR
STARTCHAR Ccircumflex
ENCODING 264
SWIDTH 722 0
DWIDTH 13 0
BBX 12 15 1 0
BITMAP
01C0
0260
0000
0FC0
1860
2070
6030
C000
C000
C000
C000
C040
60C0
61C0
1F00
ENDCHAR
STARTCHAR ccircumflex
ENCODING 265
SWIDTH 500 0
DWIDTH 9 0
BBX 8 14 1 0
BITMAP
0E
1A
31
00
1E
63
63
C0
C0
C0
C0
C6
CC
78
ENDCHAR
STARTCHAR Cdotaccent
ENCODING 266
SWIDTH 722 0
DWIDTH 13 0
BBX 12 15 1 0
BITMAP
0180
0180
0000
0FC0
1860
2070
6030
C000
C000
C000
C000
C040
60C0
61C0
1F00
ENDCHAR
STARTCHAR cdotaccent
ENCODING 267
SWIDTH 500 0
DWIDTH 9 0
BBX 8 13 1 0
BITMAP
06
06
00
1E
63
63
C0
C0
C0
C0
C6
CC
78
ENDCHAR
STARTCHAR Ccaron
ENCODING 268
SWIDTH 722 0
DWIDTH 13 0
BBX 12 15 1 0
BITMAP
0640
0380
0000
0FC0
1860
2070
6030
C000
C000
C000
C000
C040
60C0
61C0
1F00
ENDCHAR
STARTCHAR ccaron
ENCODING 269
SWIDTH 500 0
DWIDTH 9 0
BBX 9 14 1 0
BITMAP
1180
0B00
0E00
0000
1E00
6300
6300
C000
C000
C000
C000
C600
CC00
7800
ENDCHAR
STARTCHAR Dcaron
ENCODING 270
SWIDTH 722 0
DWIDTH 13 0
BBX 12 15 1 0
BITMAP
0640
0380
0000
3F80
30C0
3060
6030
6030
6030
6030
6030
6060
C0E0
C1C0
FF00
ENDCHAR
STARTCHAR dcaron
ENCODING 271
SWIDTH 611 0
DWIDTH 11 0
BBX 13 13 1 0
BITMAP
00D8
00D8
00D0
3D90
6380
6180
C180
C180
C180
C380
C300
C700
7B00
ENDCHAR
STARTCHAR Dcroat
ENCODING 272
SWIDTH 722 0
DWIDTH 13 0
BBX 12 12 1 0
BITMAP
3F80
30E0
3060
6030
6030
FE30
6030
6030
6060
C060
C1C0
FF00
ENDCHAR
STARTCHAR dcroat
ENCODING 273
SWIDTH 556 0
DWIDTH 10 0
BBX 11 13 1 0
BITMAP
00C0
00C0
07E0
0180
3D80
6380
6180
C180
C180
C380
C300
C700
7B00
ENDCHAR
STARTCHAR Emacron
ENCODING 274
SWIDTH 667 0
DWIDTH 12 0
BBX 11 14 1 0
BITMAP
07C0
0000
3FE0
3000
3000
6000
6000
7F80
6000
6000
6000
C000
C000
FF80
ENDCHAR
STARTCHAR emacron
ENCODING 275
SWIDTH 556 0
DWIDTH 10 0
BBX 9 12 1 0
BITMAP
1F00
0000
1E00
3380
6180
C180
FF80
C000
C000
C300
6600
3C00
ENDCHAR
STARTCHAR Ebreve
ENCODING 276
SWIDTH 667 0
DWIDTH 12 0
BBX 11 15 1 0
BITMAP
0840
0780
0000
3FE0
3000
3000
6000
6000
7F80
6000
6000
6000
C000
C000
FF80
ENDCHAR
STARTCHAR ebreve
ENCODING 277
SWIDTH 556 0
DWIDTH 10 0
BBX 9 14 1 0
BITMAP
1080
1100
0E00
0000
1E00
3380
6180
C180
FF80
C000
C000
C300
6600
3C00
ENDCHAR
STARTCHAR Edotaccent
ENCODING 278
SWIDTH 667 0
DWIDTH 12 0
BBX 11 15 1 0
BITMAP
0300
0300
0000
3FE0
3000
3000
6000
6000
7F80
6000
6000
6000
C000
C000
FF80
ENDCHAR
STARTCHAR edotaccent
ENCODING 279
SWIDTH 556 0
DWIDTH 10 0
BBX 9 13 1 0
BITMAP
0600
0600
0000
1E00
3380
6180
C180
FF80
C000
C000
C300
6600
3C00
ENDCHAR
STARTCHAR Eogonek
ENCODING 280
SWIDTH 667 0
DWIDTH 12 0
BBX 11 16 1 -4
BITMAP
3FE0
3000
3000
6000
6000
7F80
6000
6000
6000
C000
C000
FF80
0200
0400
0400
0700
ENDCHAR
STARTCHAR eogonek
ENCODING 281
SWIDTH 556 0
DWIDTH 10 0
BBX 9 14 1 -4
BITMAP
1E00
3380
6180
C180
FF80
C000
C000
C300
6600
3C00
0800
1000
1000
1C00
ENDCHAR
STARTCHAR Ecaron
ENCODING 282
SWIDTH 667 0
DWIDTH 12 0
BBX 11 15 1 0
BITMAP
0640
0380
0000
3FE0
3000
3000
6000
6000
7F80
6000
6000
6000
C000
C000
FF80
ENDCHAR
STARTCHAR ecaron
ENCODING 283
SWIDTH 556 0
DWIDTH 10 0
BBX 9 14 1 0
BITMAP
1180
0B00
0E00
0000
1E00
3380
6180
C180
FF80
C000
C000
C300
6600
3C00
ENDCHAR
STARTCHAR Gcircumflex
ENCODING 284
SWIDTH 778 0
DWIDTH 14 0
BBX 13 15 1 0
BITMAP
01C0
0260
0000
07E0
1830
3018
6000
C000
C000
C1F0
C030
C030
6060
70E0
1F80
ENDCHAR
STARTCHAR gcircumflex
ENCODING 285
SWIDTH 556 0
DWIDTH 10 0
BBX 10 18 0 -4
BITMAP
0700
0D00
1880
0000
1CC0
3380
3180
6180
6180
6180
6380
6300
6700
3B00
0300
C300
E600
7C00
ENDCHAR
STARTCHAR Gbreve
ENCODING 286
SWIDTH 778 0
DWIDTH 14 0
BBX 13 15 1 0
BITMAP
0420
03C0
0000
07E0
1830
3018
6000
C000
C000
C1F0
C030
C030
6060
70E0
1F80
ENDCHAR
STARTCHAR gbreve
ENCODING 287
SWIDTH 556 0
DWIDTH 10 0
BBX 10 18 0 -4
BITMAP
1080
1100
0E00
0000
1CC0
3380
3180
6180
6180
6180
6380
6300
6700
3B00
0300
C300
E600
7C00
ENDCHAR
STARTCHAR Gdotaccent
ENCODING 288
SWIDTH 778 0
DWIDTH 14 0
BBX 13 15 1 0
BITMAP
0180
0180
0000
07E0
1830
3018
6000
C000
C000
C1F0
C030
C030
6060
70E0
1F80
ENDCHAR
STARTCHAR gdotaccent
ENCODING 289
SWIDTH 556 0
DWIDTH 10 0
BBX 10 17 0 -4
BITMAP
0600
0600
0000
1CC0
3380
3180
6180
6180
6180
6380
6300
6700
3B00
0300
C300
E600
7C00
ENDCHAR
STARTCHAR Gcommaaccent
ENCODING 290
SWIDTH 778 0
DWIDTH 14 0
BBX 13 17 1 -5
BITMAP
07E0
1830
3018
6000
C000
C000
C1F0
C030
C030
6060
70E0
1F80
0000
0600
0600
0400
0400
ENDCHAR
STARTCHAR gcommaaccent
ENCODING 291
SWIDTH 556 0
DWIDTH 10 0
BBX 10 19 0 -4
BITMAP
0200
0200
0600
0600
0000
1CC0
3380
3180
6180
6180
6180
6380
6300
6700
3B00
0300
C300
E600
7C00
ENDCHAR
STARTCHAR Hcircumflex
ENCODING 292
SWIDTH 722 0
DWIDTH 13 0
BBX 12 15 1 0
BITMAP
01C0
0260
0000
3030
3030
3030
6060
6060
7FE0
6060
6060
6060
C0C0
C0C0
C0C0
ENDCHAR
STARTCHAR hcircumflex
ENCODING 293
SWIDTH 556 0
DWIDTH 10 0
BBX 10 16 1 0
BITMAP
0380
04C0
0000
3000
3000
3000
6F00
7180
6180
6180
6180
6180
6180
C300
C300
C300
ENDCHAR
STARTCHAR Hbar
ENCODING 294
SWIDTH 722 0
DWIDTH 13 0
BBX 13 12 1 0
BITMAP
3030
3030
FFF8
6060
6060
7FE0
6060
6060
6060
C0C0
C0C0
C0C0
ENDCHAR
STARTCHAR hbar
ENCODING 295
SWIDTH 556 0
DWIDTH 10 0
BBX 9 13 1 0
BITMAP
3000
7E00
3000
7000
6F00
7180
6180
6180
6180
6180
C300
C300
C300
ENDCHAR
STARTCHAR Itilde
ENCODING 296
SWIDTH 278 0
DWIDTH 5 0
BBX 7 15 1 0
BITMAP
32
4C
00
30
30
30
60
60
60
60
60
60
C0
C0
C0
ENDCHAR
STARTCHAR itilde
ENCODING 297
SWIDTH 278 0
DWIDTH 5 0
BBX 7 14 1 0
BITMAP
62
92
8C
00
60
60
60
60
60
60
60
C0
C0
C0
ENDCHAR
STARTCHAR Imacron
ENCODING 298
SWIDTH 278 0
DWIDTH 5 0
BBX 6 14 1 0
BITMAP
7C
00
30
30
30
60
60
60
60
60
60
C0
C0
C0
ENDCHAR
STARTCHAR imacron
ENCODING 299
SWIDTH 278 0
DWIDTH 5 0
BBX 6 12 1 0
BITMAP
7C
00
60
60
60
60
60
60
60
C0
C0
C0
ENDCHAR
STARTCHAR Ibreve
ENCODING 300
SWIDTH 278 0
DWIDTH 5 0
BBX 7 15 1 0
BITMAP
42
3C
00
30
30
30
60
60
60
60
60
60
C0
C0
C0
ENDCHAR
STARTCHAR ibreve
ENCODING 301
SWIDTH 278 0
DWIDTH 5 0
BBX 6 14 1 0
BITMAP
84
88
70
00
60
60
60
60
60
60
60
C0
C0
C0
ENDCHAR
STARTCHAR Iogonek
ENCODING 302
SWIDTH 278 0
DWIDTH 5 0
BBX 5 16 0 -4
BITMAP
18
18
18
30
30
30
30
30
30
60
60
60
40
80
80
E0
ENDCHAR
STARTCHAR iogonek
ENCODING 303
SWIDTH 278 0
DWIDTH 5 0
BBX 5 17 0 -4
BITMAP
18
18
00
38
30
30
30
30
30
30
60
60
60
40
80
80
E0
ENDCHAR
STARTCHAR Idotaccent
ENCODING 304
SWIDTH 278 0
DWIDTH 5 0
BBX 5 15 1 0
BITMAP
18
18
00
30
30
30
60
60
60
60
60
60
C0
C0
C0
ENDCHAR
STARTCHAR dotlessi
ENCODING 305
SWIDTH 278 0
DWIDTH 5 0
BBX 4 10 1 0
BITMAP
60
60
60
60
60
60
60
C0
C0
C0
ENDCHAR
STARTCHAR IJ
ENCODING 306
SWIDTH 722 0
DWIDTH 13 0
BBX 12 12 1 0
BITMAP
30F0
3030
3030
6060
6060
6060
6060
6060
6060
D8C0
DCC0
CF80
ENDCHAR
STARTCHAR ij
ENCODING 307
SWIDTH 444 0
DWIDTH 8 0
BBX 8 17 1 -4
BITMAP
33
33
00
77
66
66
66
66
66
66
CC
CC
CC
0C
0C
18
70
ENDCHAR
STARTCHAR Jcircumflex
ENCODING 308
SWIDTH 500 0
DWIDTH 9 0
BBX 11 15 0 0
BITMAP
01C0
0260
0000
0780
0180
0180
0300
0300
0300
0300
0300
0300
C600
E600
7C00
ENDCHAR
STARTCHAR jcircumflex
ENCODING 309
SWIDTH 222 0
DWIDTH 4 0
BBX 9 18 -2 -4
BITMAP
0700
0D00
1880
0000
0E00
0C00
0C00
0C00
0C00
0C00
0C00
1800
1800
1800
1800
1800
3000
E000
ENDCHAR
STARTCHAR Kcommaaccent
ENCODING 310
SWIDTH 667 0
DWIDTH 12 0
BBX 12 17 1 -5
BITMAP
3070
30C0
3180
6700
6E00
7C00
7600
6300
6300
C180
C0C0
C060
0000
0C00
0C00
0800
0800
ENDCHAR
STARTCHAR kcommaaccent
ENCODING 311
SWIDTH 500 0
DWIDTH 9 0
BBX 9 18 1 -5
BITMAP
3000
3000
3000
6180
6300
6600
6C00
7800
6800
6C00
C600
C600
C300
0000
1800
1800
1000
1000
ENDCHAR
STARTCHAR kgreenlandic
ENCODING 312
SWIDTH 500 0
DWIDTH 9 0
BBX 9 10 1 0
BITMAP
7180
6300
6600
6C00
7800
6800
6C00
C600
C600
C300
ENDCHAR
STARTCHAR Lacute
ENCODING 313
SWIDTH 556 0
DWIDTH 10 0
BBX 8 15 1 0
BITMAP
03
0C
00
30
30
30
60
60
60
60
60
60
C0
C0
FF
ENDCHAR
STARTCHAR lacute
ENCODING 314
SWIDTH 278 0
DWIDTH 5 0
BBX 6 16 1 0
BITMAP
0C
30
00
30
30
30
60
60
60
60
60
60
60
C0
C0
C0
ENDCHAR
STARTCHAR Lcommaaccent
ENCODING 315
SWIDTH 556 0
DWIDTH 10 0
BBX 8 17 1 -5
BITMAP
30
30
30
60
60
60
60
60
60
C0
C0
FF
00
18
18
10
10
ENDCHAR
STARTCHAR lcommaaccent
ENCODING 316
SWIDTH 278 0
DWIDTH 5 0
BBX 5 18 0 -5
BITMAP
18
18
18
30
30
30
30
30
30
30
60
60
60
00
60
60
40
40
ENDCHAR
STARTCHAR Lcaron
ENCODING 317
SWIDTH 556 0
DWIDTH 10 0
BBX 9 12 1 0
BITMAP
3180
3180
3100
6100
6000
6000
6000
6000
6000
C000
C000
FF00
ENDCHAR
STARTCHAR lcaron
ENCODING 318
SWIDTH 278 0
DWIDTH 5 0
BBX 7 13 1 0
BITMAP
36
36
34
64
60
60
60
60
60
60
C0
C0
C0
ENDCHAR
STARTCHAR Ldot
ENCODING 319
SWIDTH 556 0
DWIDTH 10 0
BBX 8 12 1 0
BITMAP
30
30
30
60
66
66
60
60
60
C0
C0
FF
ENDCHAR
STARTCHAR ldot
ENCODING 320
SWIDTH 389 0
DWIDTH 7 0
BBX 7 13 1 0
BITMAP
30
30
30
60
60
66
66
60
60
60
C0
C0
C0
ENDCHAR
STARTCHAR Lslash
ENCODING 321
SWIDTH 556 0
DWIDTH 10 0
BBX 9 12 0 0
BITMAP
1800
1800
1800
3000
3200
3C00
7000
B000
3000
6000
6000
7F80
ENDCHAR
STARTCHAR lslash
ENCODING 322
SWIDTH 222 0
DWIDTH 4 0
BBX 6 13 0 0
BITMAP
18
18
18
38
30
3C
3C
F0
F0
30
60
60
60
ENDCHAR
STARTCHAR Nacute
ENCODING 323
SWIDTH 722 0
DWIDTH 13 0
BBX 12 15 1 0
BITMAP
0060
0180
0000
3030
3830
3830
6C60
6460
6460
6260
6260
6360
C1C0
C1C0
C0C0
ENDCHAR
STARTCHAR nacute
ENCODING 324
SWIDTH 556 0
DWIDTH 10 0
BBX 9 14 1 0
BITMAP
0180
0300
0400
0000
2F00
7180
7180
6180
6180
6180
6180
C300
C300
C300
ENDCHAR
STARTCHAR Ncommaaccent
ENCODING 325
SWIDTH 722 0
DWIDTH 13 0
BBX 12 17 1 -5
BITMAP
3030
3830
3830
6C60
6460
6460
6260
6260
6360
C1C0
C1C0
C0C0
0000
0C00
0C00
0800
0800
ENDCHAR
STARTCHAR ncommaaccent
ENCODING 326
SWIDTH 556 0
DWIDTH 10 0
BBX 9 15 1 -5
BITMAP
2F00
7180
7180
6180
6180
6180
6180
C300
C300
C300
0000
1800
1800
1000
1000
ENDCHAR
STARTCHAR Ncaron
ENCODING 327
SWIDTH 722 0
DWIDTH 13 0
BBX 12 15 1 0
BITMAP
0640
0380
0000
3030
3830
3830
6C60
6460
6460
6260
6260
6360
C1C0
C1C0
C0C0
ENDCHAR
STARTCHAR ncaron
ENCODING 328
SWIDTH 556 0
DWIDTH 10 0
BBX 9 14 1 0
BITMAP
1180
0B00
0E00
0000
2F00
7180
7180
6180
6180
6180
6180
C300
C300
C300
ENDCHAR
STARTCHAR napostrophe
ENCODING 329
SWIDTH 611 0
DWIDTH 11 0
BBX 10 12 1 0
BITMAP
6000
6000
5780
78C0
38C0
30C0
30C0
30C0
30C0
6180
6180
6180
ENDCHAR
STARTCHAR Eng
ENCODING 330
SWIDTH 722 0
DWIDTH 13 0
BBX 11 12 1 0
BITMAP
33C0
3C60
3060
7060
6060
6060
6060
6060
6060
C0C0
CCC0
C780
ENDCHAR
STARTCHAR eng
ENCODING 331
SWIDTH 556 0
DWIDTH 10 0
BBX 9 14 1 -4
BITMAP
2F00
7180
7180
6180
6180
6180
6180
C300
C300
C300
0300
0300
0600
0E00
ENDCHAR
STARTCHAR Omacron
ENCODING 332
SWIDTH 778 0
DWIDTH 14 0
BBX 13 14 1 0
BITMAP
07C0
0000
07C0
1870
3030
6018
C018
C018
C018
C018
C030
6060
70C0
1F00
ENDCHAR
STARTCHAR omacron
ENCODING 333
SWIDTH 556 0
DWIDTH 10 0
BBX 9 12 1 0
BITMAP
1F00
0000
1E00
3300
6180
C180
C180
C180
C180
C300
6200
3C00
ENDCHAR
STARTCHAR Obreve
ENCODING 334
SWIDTH 778 0
DWIDTH 14 0
BBX 13 15 1 0
BITMAP
0420
03C0
0000
07C0
1870
3030
6018
C018
C018
C018
C018
C030
6060
70C0
1F00
ENDCHAR
STARTCHAR obreve
ENCODING 335
SWIDTH 556 0
DWIDTH 10 0
BBX 9 14 1 0
BITMAP
1080
1100
0E00
0000
1E00
3300
6180
C180
C180
C180
C180
C300
6200
3C00
ENDCHAR
STARTCHAR Ohungarumlaut
ENCODING 336
SWIDTH 778 0
DWIDTH 14 0
BBX 13 15 1 0
BITMAP
0330
0440
0000
07C0
1870
3030
6018
C018
C018
C018
C018
C030
6060
70C0
1F00
ENDCHAR
STARTCHAR ohungarumlaut
ENCODING 337
SWIDTH 556 0
DWIDTH 10 0
BBX 10 14 1 0
BITMAP
06C0
0D80
1200
0000
1E00
3300
6180
C180
C180
C180
C180
C300
6200
3C00
ENDCHAR
STARTCHAR OE
ENCODING 338
SWIDTH 1000 0
DWIDTH 18 0
BBX 17 12 1 0
BITMAP
0FFF80
386000
606000
60C000
C0C000
C0FF00
C0C000
C0C000
C0C000
418000
618000
1FFF00
ENDCHAR
STARTCHAR oe
ENCODING 339
SWIDTH 944 0
DWIDTH 17 0
BBX 16 10 1 0
BITMAP
1E3C
3347
61C3
C183
C1FF
C180
C180
C386
628C
3C78
ENDCHAR
STARTCHAR Racute
ENCODING 340
SWIDTH 722 0
DWIDTH 13 0
BBX 11 15 1 0
BITMAP
00C0
0300
0000
3F80
30E0
3060
6060
6060
60C0
7F80
6200
6300
C180
C180
C0C0
ENDCHAR
STARTCHAR racute
ENCODING 341
SWIDTH 333 0
DWIDTH 6 0
BBX 7 14 1 0
BITMAP
06
0C
10
00
2C
70
60
60
60
60
60
C0
C0
C0
ENDCHAR
STARTCHAR Rcommaaccent
ENCODING 342
SWIDTH 722 0
DWIDTH 13 0
BBX 11 17 1 -5
BITMAP
3F80
30E0
3060
6060
6060
60C0
7F80
6200
6300
C180
C180
C0C0
0000
0C00
0C00
0800
0800
ENDCHAR
STARTCHAR rcommaaccent
ENCODING 343
SWIDTH 333 0
DWIDTH 6 0
BBX 7 15 0 -5
BITMAP
16
38
30
30
30
30
30
60
60
60
00
60
60
40
40
ENDCHAR
STARTCHAR Rcaron
ENCODING 344
SWIDTH 722 0
DWIDTH 13 0
BBX 11 15 1 0
BITMAP
0C80
0700
0000
3F80
30E0
3060
6060
6060
60C0
7F80
6200
6300
C180
C180
C0C0
ENDCHAR
STARTCHAR rcaron
ENCODING 345
SWIDTH 333 0
DWIDTH 6 0
BBX 8 14 1 0
BITMAP
23
16
1C
00
2C
70
60
60
60
60
60
C0
C0
C0
ENDCHAR
STARTCHAR Sacute
ENCODING 346
SWIDTH 667 0
DWIDTH 12 0
BBX 11 16 1 0
BITMAP
00C0
0180
0200
0000
0F80
18E0
3060
3000
3800
1F00
0380
00C0
00C0
C0C0
6180
3F00
ENDCHAR
STARTCHAR sacute
ENCODING 347
SWIDTH 500 0
DWIDTH 9 0
BBX 8 14 1 0
BITMAP
03
06
08
00
3E
63
63
60
38
1E
06
C6
E6
7C
ENDCHAR
STARTCHAR Scircumflex
ENCODING 348
SWIDTH 667 0
DWIDTH 12 0
BBX 11 16 1 0
BITMAP
0380
0680
0C40
0000
0F80
18E0
3060
3000
3800
1F00
0380
00C0
00C0
C0C0
6180
3F00
ENDCHAR
STARTCHAR scircumflex
ENCODING 349
SWIDTH 500 0
DWIDTH 9 0
BBX 8 14 1 0
BITMAP
0E
1A
31
00
3E
63
63
60
38
1E
06
C6
E6
7C
ENDCHAR
STARTCHAR Scedilla
ENCODING 350
SWIDTH 667 0
DWIDTH 12 0
BBX 11 16 1 -4
BITMAP
0F80
18E0
3060
3000
3800
1F00
0380
00C0
00C0
C0C0
6180
3F00
0400
0E00
0200
1C00
ENDCHAR
STARTCHAR scedilla
ENCODING 351
SWIDTH 500 0
DWIDTH 9 0
BBX 8 14 1 -4
BITMAP
3E
63
63
60
38
1E
06
C6
E6
7C
08
1C
04
38
ENDCHAR
STARTCHAR Scaron
ENCODING 352
SWIDTH 667 0
DWIDTH 12 0
BBX 11 15 1 0
BITMAP
0C80
0700
0000
0F80
18E0
3060
3000
3800
1F00
0380
00C0
00C0
C0C0
6180
3F00
ENDCHAR
STARTCHAR scaron
ENCODING 353
SWIDTH 500 0
DWIDTH 9 0
BBX 9 14 1 0
BITMAP
1180
0B00
0E00
0000
3E00
6300
6300
6000
3800
1E00
0600
C600
E600
7C00
ENDCHAR
STARTCHAR Tcommaaccent
ENCODING 354
SWIDTH 611 0
DWIDTH 11 0
BBX 10 16 3 -4
BITMAP
FFC0
0C00
0C00
1800
1800
1800
1800
1800
1800
3000
3000
3000
2000
7000
1000
E000
ENDCHAR
STARTCHAR tcommaaccent
ENCODING 355
SWIDTH 278 0
DWIDTH 5 0
BBX 5 16 0 -4
BITMAP
30
30
F8
60
60
60
60
60
60
C0
C0
70
20
70
10
E0
ENDCHAR
STARTCHAR Tcaron
ENCODING 356
SWIDTH 611 0
DWIDTH 11 0
BBX 10 15 2 0
BITMAP
1900
0E00
0000
FFC0
0C00
0C00
1800
1800
1800
1800
1800
1800
3000
3000
3000
ENDCHAR
STARTCHAR tcaron
ENCODING 357
SWIDTH 333 0
DWIDTH 6 0
BBX 8 13 1 0
BITMAP
03
33
32
FE
60
60
60
60
60
60
C0
C0
70
ENDCHAR
STARTCHAR Tbar
ENCODING 358
SWIDTH 611 0
DWIDTH 11 0
BBX 10 12 2 0
BITMAP
FFC0
0C00
0C00
1800
1800
7E00
1800
1800
1800
3000
3000
3000
ENDCHAR
STARTCHAR tbar
ENCODING 359
SWIDTH 278 0
DWIDTH 5 0
BBX 6 12 0 0
BITMAP
18
18
7C
30
30
30
F8
30
30
60
60
38
ENDCHAR
STARTCHAR Utilde
ENCODING 360
SWIDTH 722 0
DWIDTH 13 0
BBX 11 15 2 0
BITMAP
0640
0980
0000
6060
6060
6060
C0C0
C0C0
C0C0
C0C0
C0C0
C0C0
C180
E300
3E00
ENDCHAR
STARTCHAR utilde
ENCODING 361
SWIDTH 556 0
DWIDTH 10 0
BBX 10 14 1 0
BITMAP
1880
2480
2300
0000
6180
6180
6180
6180
6180
6180
6380
C300
6700
7B00
ENDCHAR
STARTCHAR Umacron
ENCODING 362
SWIDTH 722 0
DWIDTH 13 0
BBX 11 14 2 0
BITMAP
0F80
0000
6060
6060
6060
C0C0
C0C0
C0C0
C0C0
C0C0
C0C0
C180
E300
3E00
ENDCHAR
STARTCHAR umacron
ENCODING 363
SWIDTH 556 0
DWIDTH 10 0
BBX 10 12 1 0
BITMAP
1F00
0000
6180
6180
6180
6180
6180
6180
6380
C300
6700
7B00
ENDCHAR
STARTCHAR Ubreve
ENCODING 364
SWIDTH 722 0
DWIDTH 13 0
BBX 11 15 2 0
BITMAP
0840
0780
0000
6060
6060
6060
C0C0
C0C0
C0C0
C0C0
C0C0
C0C0
C180
E300
3E00
ENDCHAR
STARTCHAR ubreve
ENCODING 365
SWIDTH 556 0
DWIDTH 10 0
BBX 10 14 1 0
BITMAP
1080
1100
0E00
0000
6180
6180
6180
6180
6180
6180
6380
C300
6700
7B00
ENDCHAR
STARTCHAR Uring
ENCODING 366
SWIDTH 722 0
DWIDTH 13 0
BBX 11 17 2 0
BITMAP
0300
0480
0480
0300
0000
6060
6060
6060
C0C0
C0C0
C0C0
C0C0
C0C0
C0C0
C180
E300
3E00
ENDCHAR
STARTCHAR uring
ENCODING 367
SWIDTH 556 0
DWIDTH 10 0
BBX 10 15 1 0
BITMAP
0600
0900
0900
0600
0000
6180
6180
6180
6180
6180
6180
6380
C300
6700
7B00
ENDCHAR
STARTCHAR Uhungarumlaut
ENCODING 368
SWIDTH 722 0
DWIDTH 13 0
BBX 11 15 2 0
BITMAP
0660
0880
0000
6060
6060
6060
C0C0
C0C0
C0C0
C0C0
C0C0
C0C0
C180
E300
3E00
ENDCHAR
STARTCHAR uhungarumlaut
ENCODING 369
SWIDTH 556 0
DWIDTH 10 0
BBX 10 14 1 0
BITMAP
06C0
0D80
1200
0000
6180
6180
6180
6180
6180
6180
6380
C300
6700
7B00
ENDCHAR
STARTCHAR Uogonek
ENCODING 370
SWIDTH 722 0
DWIDTH 13 0
BBX 11 16 2 -4
BITMAP
6060
6060
6060
C0C0
C0C0
C0C0
C0C0
C0C0
C0C0
C180
E300
3E00
0800
1000
1000
1C00
ENDCHAR
STARTCHAR uogonek
ENCODING 371
SWIDTH 556 0
DWIDTH 10 0
BBX 10 14 1 -4
BITMAP
6180
6180
6180
6180
6180
6180
6380
C300
6700
7B00
0400
0800
0800
0E00
ENDCHAR
STARTCHAR Wcircumflex
ENCODING 372
SWIDTH 944 0
DWIDTH 17 0
BBX 16 15 2 0
BITMAP
01C0
0260
0000
C183
C183
C286
C2C6
44C4
64CC
64CC
68C8
68D8
7050
7050
7070
ENDCHAR
STARTCHAR wcircumflex
ENCODING 373
SWIDTH 722 0
DWIDTH 13 0
BBX 12 14 2 0
BITMAP
0700
0D00
1880
0000
C630
CE30
CE60
CE60
D640
D2C0
E280
E380
E300
C300
ENDCHAR
STARTCHAR Ycircumflex
ENCODING 374
SWIDTH 667 0
DWIDTH 12 0
BBX 11 15 2 0
BITMAP
0700
0980
0000
C060
C0C0
6180
6300
3600
3600
1C00
1800
1800
3000
3000
3000
ENDCHAR
STARTCHAR ycircumflex
ENCODING 375
SWIDTH 500 0
DWIDTH 9 0
BBX 10 18 0 -4
BITMAP
0700
0D00
1880
0000
30C0
30C0
3180
3180
3300
3300
1600
1600
1C00
1C00
1800
3800
3000
E000
ENDCHAR
STARTCHAR Ydieresis
ENCODING 376
SWIDTH 667 0
DWIDTH 12 0
BBX 11 15 2 0
BITMAP
1980
1980
0000
C060
C0C0
6180
6300
3600
3600
1C00
1800
1800
3000
3000
3000
ENDCHAR
STARTCHAR Zacute
ENCODING 377
SWIDTH 611 0
DWIDTH 11 0
BBX 12 15 0 0
BITMAP
0060
0180
0000
1FF0
0060
00C0
0180
0300
0600
0600
0C00
1800
3000
6000
FFC0
ENDCHAR
STARTCHAR zacute
ENCODING 378
SWIDTH 444 0
DWIDTH 8 0
BBX 8 14 1 0
BITMAP
03
06
08
00
7E
06
0C
18
18
30
30
60
C0
FC
ENDCHAR
STARTCHAR Zdotaccent
ENCODING 379
SWIDTH 611 0
DWIDTH 11 0
BBX 12 15 0 0
BITMAP
0180
0180
0000
1FF0
0060
00C0
0180
0300
0600
0600
0C00
1800
3000
6000
FFC0
ENDCHAR
STARTCHAR zdotaccent
ENCODING 380
SWIDTH 444 0
DWIDTH 8 0
BBX 7 13 1 0
BITMAP
0C
0C
00
7E
06
0C
18
18
30
30
60
C0
FC
ENDCHAR
STARTCHAR Zcaron
ENCODING 381
SWIDTH 611 0
DWIDTH 11 0
BBX 12 15 0 0
BITMAP
0640
0380
0000
1FF0
0060
00C0
0180
0300
0600
0600
0C00
1800
3000
6000
FFC0
ENDCHAR
STARTCHAR zcaron
ENCODING 382
SWIDTH 444 0
DWIDTH 8 0
BBX 9 14 1 0
BITMAP
1180
0B00
0E00
0000
7E00
0600
0C00
1800
1800
3000
3000
6000
C000
FC00
ENDCHAR
STARTCHAR longs
ENCODING 383
SWIDTH 222 0
DWIDTH 4 0
BBX 6 13 1 0
BITMAP
1C
30
30
70
60
60
60
60
60
60
C0
C0
C0
ENDCHAR
STARTCHAR florin
ENCODING 402
SWIDTH 556 0
DWIDTH 10 0
BBX 7 17 3 -4
BITMAP
0E
18
18
18
7C
30
30
30
30
30
60
60
60
60
60
60
C0
ENDCHAR
STARTCHAR Aringacute
ENCODING 506
SWIDTH 667 0
DWIDTH 12 0
BBX 12 18 0 0
BITMAP
0030
00C0
0000
0180
0240
0240
0380
0280
0680
04C0
0CC0
08C0
18C0
3FC0
3040
6060
6060
C060
ENDCHAR
STARTCHAR aringacute
ENCODING 507
SWIDTH 556 0
DWIDTH 10 0
BBX 10 17 1 0
BITMAP
00C0
0300
0600
0900
0900
0600
0000
1F00
3180
6180
0180
3F80
6380
C300
C300
C700
7B80
ENDCHAR
STARTCHAR AEacute
ENCODING 508
SWIDTH 1000 0
DWIDTH 18 0
BBX 18 15 0 0
BITMAP
000300
000C00
000000
01FFC0
033000
033000
066000
066000
0C7F80
186000
1FE000
306000
30C000
60C000
C0FF00
ENDCHAR
STARTCHAR aeacute
ENCODING 509
SWIDTH 889 0
DWIDTH 16 0
BBX 15 14 1 0
BITMAP
0030
0060
0080
0000
1F3C
31C6
6186
0186
3FFE
6300
C300
C70C
C598
78F0
ENDCHAR
STARTCHAR Oslashacute
ENCODING 510
SWIDTH 778 0
DWIDTH 14 0
BBX 15 15 0 0
BITMAP
0030
00C0
0000
03E4
0C38
1838
306C
60CC
618C
630C
660C
6C18
3830
3060
4F80
ENDCHAR
STARTCHAR oslashacute
ENCODING 511
SWIDTH 611 0
DWIDTH 11 0
BBX 12 14 0 0
BITMAP
00C0
0180
0200
0000
0FE0
18C0
31E0
6160
6260
6460
6840
78C0
3180
5F00
ENDCHAR
STARTCHAR Scommaaccent
ENCODING 536
SWIDTH 667 0
DWIDTH 12 0
BBX 11 17 1 -5
BITMAP
0F80
18E0
3060
3000
3800
1F00
0380
00C0
00C0
C0C0
6180
3F00
0000
3000
3000
2000
2000
ENDCHAR
STARTCHAR scommaaccent
ENCODING 537
SWIDTH 500 0
DWIDTH 9 0
BBX 8 15 1 -5
BITMAP
3E
63
63
60
38
1E
06
C6
E6
7C
00
60
60
40
40
ENDCHAR
STARTCHAR uni021A
ENCODING 538
SWIDTH 611 0
DWIDTH 11 0
BBX 10 17 2 -5
BITMAP
FFC0
0C00
0C00
1800
1800
1800
1800
1800
1800
3000
3000
3000
0000
6000
6000
4000
4000
ENDCHAR
STARTCHAR uni021B
ENCODING 539
SWIDTH 278 0
DWIDTH 5 0
BBX 6 17 0 -5
BITMAP
18
18
7C
30
30
30
30
30
30
60
60
38
00
60
60
40
40
ENDCHAR
STARTCHAR circumflex
ENCODING 710
SWIDTH 333 0
DWIDTH 6 0
BBX 6 3 1 11
BITMAP
38
68
C4
ENDCHAR
STARTCHAR caron
ENCODING 711
SWIDTH 333 0
DWIDTH 6 0
BBX 6 3 1 11
BITMAP
8C
58
70
ENDCHAR
STARTCHAR uni02C9
ENCODING 713
SWIDTH 278 0
DWIDTH 5 0
BBX 5 1 1 12
BITMAP
F8
ENDCHAR
STARTCHAR breve
ENCODING 728
SWIDTH 333 0
DWIDTH 6 0
BBX 6 3 1 11
BITMAP
84
88
70
ENDCHAR
STARTCHAR dotaccent
ENCODING 729
SWIDTH 333 0
DWIDTH 6 0
BBX 2 2 3 11
BITMAP
C0
C0
ENDCHAR
STARTCHAR ring
ENCODING 730
SWIDTH 333 0
DWIDTH 6 0
BBX 4 4 2 11
BITMAP
60
90
90
60
ENDCHAR
STARTCHAR ogonek
ENCODING 731
SWIDTH 333 0
DWIDTH 6 0
BBX 3 4 1 -4
BITMAP
40
80
80
E0
ENDCHAR
STARTCHAR tilde
ENCODING 732
SWIDTH 333 0
DWIDTH 6 0
BBX 7 3 0 11
BITMAP
62
92
8C
ENDCHAR
STARTCHAR hungarumlaut
ENCODING 733
SWIDTH 333 0
DWIDTH 6 0
BBX 7 3 1 11
BITMAP
36
6C
90
ENDCHAR
STARTCHAR semicolon
ENCODING 894
SWIDTH 278 0
DWIDTH 5 0
BBX 4 12 0 -2
BITMAP
30
30
00
00
00
00
00
00
60
60
40
40
ENDCHAR
STARTCHAR tonos
ENCODING 900
SWIDTH 333 0
DWIDTH 6 0
BBX 3 3 2 11
BITMAP
60
40
80
ENDCHAR
STARTCHAR dieresistonos
ENCODING 901
SWIDTH 333 0
DWIDTH 6 0
BBX 6 4 0 11
BITMAP
18
10
B4
A4
ENDCHAR
STARTCHAR Alphatonos
ENCODING 902
SWIDTH 667 0
DWIDTH 12 0
BBX 11 12 0 0
BITMAP
3380
2280
4680
04C0
0CC0
08C0
18C0
3FC0
3040
6060
6060
C060
ENDCHAR
STARTCHAR anoteleia
ENCODING 903
SWIDTH 278 0
DWIDTH 5 0
BBX 2 2 1 5
BITMAP
C0
C0
ENDCHAR
STARTCHAR Epsilontonos
ENCODING 904
SWIDTH 778 0
DWIDTH 14 0
BBX 13 12 1 0
BITMAP
6FF8
4C00
8C00
1800
1800
1FE0
1800
1800
1800
3000
3000
3FE0
ENDCHAR
STARTCHAR Etatonos
ENCODING 905
SWIDTH 833 0
DWIDTH 15 0
BBX 14 12 1 0
BITMAP
6C0C
4C0C
8C0C
1818
1818
1FF8
1818
1818
1818
3030
3030
3030
ENDCHAR
STARTCHAR Iotatonos
ENCODING 906
SWIDTH 389 0
DWIDTH 7 0
BBX 6 12 1 0
BITMAP
6C
4C
8C
18
18
18
18
18
18
30
30
30
ENDCHAR
STARTCHAR Omicrontonos
ENCODING 908
SWIDTH 778 0
DWIDTH 14 0
BBX 14 12 0 0
BITMAP
63E0
4C38
9818
300C
600C
600C
600C
600C
6018
3030
3860
0F80
ENDCHAR
STARTCHAR Upsilontonos
ENCODING 910
SWIDTH 889 0
DWIDTH 16 0
BBX 15 12 2 0
BITMAP
6C06
4C0C
8618
0630
0360
0360
01C0
0180
0180
0300
0300
0300
ENDCHAR
STARTCHAR Omegatonos
ENCODING 911
SWIDTH 778 0
DWIDTH 14 0
BBX 14 12 0 0
BITMAP
67E0
5C38
B018
300C
600C
600C
600C
6018
3018
3870
18E0
F8F8
ENDCHAR
STARTCHAR iotadieresistonos
ENCODING 912
SWIDTH 278 0
DWIDTH 5 0
BBX 6 15 1 0
BITMAP
18
10
B4
A4
00
60
60
60
60
60
60
60
C0
C0
C0
ENDCHAR
STARTCHAR Alpha
ENCODING 913
SWIDTH 667 0
DWIDTH 12 0
BBX 11 12 0 0
BITMAP
0380
0280
0680
04C0
0CC0
08C0
18C0
3FC0
3040
6060
6060
C060
ENDCHAR
STARTCHAR Beta
ENCODING 914
SWIDTH 667 0
DWIDTH 12 0
BBX 10 12 1 0
BITMAP
3F80
30C0
30C0
60C0
6180
7F00
6180
60C0
60C0
C0C0
C180
FF00
ENDCHAR
STARTCHAR Gamma
ENCODING 915
SWIDTH 556 0
DWIDTH 10 0
BBX 10 12 1 0
BITMAP
3FC0
3000
3000
6000
6000
6000
6000
6000
6000
C000
C000
C000
ENDCHAR
STARTCHAR Delta
ENCODING 916
SWIDTH 667 0
DWIDTH 12 0
BBX 11 12 0 0
BITMAP
0380
0280
0680
0CC0
0CC0
18C0
18C0
30C0
3060
6060
C060
FFE0
ENDCHAR
STARTCHAR Epsilon
ENCODING 917
SWIDTH 667 0
DWIDTH 12 0
BBX 11 12 1 0
BITMAP
3FE0
3000
3000
6000
6000
7F80
6000
6000
6000
C000
C000
FF80
ENDCHAR
STARTCHAR Zeta
ENCODING 918
SWIDTH 611 0
DWIDTH 11 0
BBX 12 12 0 0
BITMAP
1FF0
0060
00C0
0180
0300
0600
0600
0C00
1800
3000
6000
FFC0
ENDCHAR
STARTCHAR Eta
ENCODING 919
SWIDTH 722 0
DWIDTH 13 0
BBX 12 12 1 0
BITMAP
3030
3030
3030
6060
6060
7FE0
6060
6060
6060
C0C0
C0C0
C0C0
ENDCHAR
STARTCHAR Theta
ENCODING 920
SWIDTH 778 0
DWIDTH 14 0
BBX 13 12 1 0
BITMAP
07C0
1870
3030
6018
C018
CF98
C018
C018
C030
6060
70C0
1F00
ENDCHAR
STARTCHAR Iota
ENCODING 921
SWIDTH 278 0
DWIDTH 5 0
BBX 4 12 1 0
BITMAP
30
30
30
60
60
60
60
60
60
C0
C0
C0
ENDCHAR
STARTCHAR Kappa
ENCODING 922
SWIDTH 667 0
DWIDTH 12 0
BBX 12 12 1 0
BITMAP
3070
30C0
3180
6700
6E00
7C00
7600
6300
6300
C180
C0C0
C060
ENDCHAR
STARTCHAR Lambda
ENCODING 923
SWIDTH 667 0
DWIDTH 12 0
BBX 11 12 0 0
BITMAP
0380
0280
0680
06C0
0CC0
08C0
18C0
30C0
30C0
6060
6060
C060
ENDCHAR
STARTCHAR Mu
ENCODING 924
SWIDTH 889 0
DWIDTH 16 0
BBX 15 12 1 0
BITMAP
380E
380E
3816
683C
6C2C
646C
644C
64CC
669C
C318
C318
C218
ENDCHAR
STARTCHAR Nu
ENCODING 925
SWIDTH 722 0
DWIDTH 13 0
BBX 12 12 1 0
BITMAP
3030
3830
3830
6C60
6460
6460
6260
6260
6360
C1C0
C1C0
C0C0
ENDCHAR
STARTCHAR Xi
ENCODING 926
SWIDTH 667 0
DWIDTH 12 0
BBX 11 12 1 0
BITMAP
3FE0
0000
0000
0000
0000
3F80
0000
0000
0000
0000
0000
FF80
ENDCHAR
STARTCHAR Omicron
ENCODING 927
SWIDTH 778 0
DWIDTH 14 0
BBX 13 12 1 0
BITMAP
07C0
1870
3030
6018
C018
C018
C018
C018
C030
6060
70C0
1F00
ENDCHAR
STARTCHAR Pi
ENCODING 928
SWIDTH 722 0
DWIDTH 13 0
BBX 12 12 1 0
BITMAP
3FF0
3030
3030
6060
6060
6060
6060
6060
6060
C0C0
C0C0
C0C0
ENDCHAR
STARTCHAR Rho
ENCODING 929
SWIDTH 667 0
DWIDTH 12 0
BBX 10 12 1 0
BITMAP
3F80
30C0
30C0
60C0
61C0
7F00
6000
6000
6000
C000
C000
C000
ENDCHAR
STARTCHAR Sigma
ENCODING 931
SWIDTH 611 0
DWIDTH 11 0
BBX 12 12 0 0
BITMAP
3FF0
3000
1800
0C00
0600
0300
0600
0C00
1800
3000
E000
FFC0
ENDCHAR
STARTCHAR Tau
ENCODING 932
SWIDTH 611 0
DWIDTH 11 0
BBX 10 12 2 0
BITMAP
FFC0
0C00
0C00
1800
1800
1800
1800
1800
1800
3000
3000
3000
ENDCHAR
STARTCHAR Upsilon
ENCODING 933
SWIDTH 667 0
DWIDTH 12 0
BBX 11 12 2 0
BITMAP
C060
C0C0
6180
6300
3600
3600
1C00
1800
1800
3000
3000
3000
ENDCHAR
STARTCHAR Phi
ENCODING 934
SWIDTH 833 0
DWIDTH 15 0
BBX 14 12 1 0
BITMAP
0180
0180
1FF0
6318
C30C
C30C
C30C
C30C
6318
3FE0
0600
0600
ENDCHAR
STARTCHAR Chi
ENCODING 935
SWIDTH 667 0
DWIDTH 12 0
BBX 13 12 0 0
BITMAP
1818
0C30
0C60
06C0
0780
0300
0700
0D80
1980
30C0
60C0
C060
ENDCHAR
STARTCHAR Psi
ENCODING 936
SWIDTH 833 0
DWIDTH 15 0
BBX 13 12 2 0
BITMAP
6318
6318
6318
C630
C630
C630
6660
3FC0
0600
0C00
0C00
0C00
ENDCHAR
STARTCHAR Omega
ENCODING 937
SWIDTH 778 0
DWIDTH 14 0
BBX 14 12 0 0
BITMAP
07E0
1C38
3018
300C
600C
600C
600C
6018
3018
3870
18E0
F8F8
ENDCHAR
STARTCHAR Iotadieresis
ENCODING 938
SWIDTH 278 0
DWIDTH 5 0
BBX 7 15 1 0
BITMAP
66
66
00
30
30
30
60
60
60
60
60
60
C0
C0
C0
ENDCHAR
STARTCHAR Upsilondieresis
ENCODING 939
SWIDTH 667 0
DWIDTH 12 0
BBX 11 15 2 0
BITMAP
1980
1980
0000
C060
C0C0
6180
6300
3600
3600
1C00
1800
1800
3000
3000
3000
ENDCHAR
STARTCHAR alphatonos
ENCODING 940
SWIDTH 556 0
DWIDTH 10 0
BBX 10 14 1 0
BITMAP
0300
0200
0400
0000
3CC0
6380
6380
C300
C300
C200
C200
C600
CB00
7300
ENDCHAR
STARTCHAR epsilontonos
ENCODING 941
SWIDTH 444 0
DWIDTH 8 0
BBX 8 14 1 0
BITMAP
06
04
08
00
3E
63
60
70
3C
60
C0
C4
CE
78
ENDCHAR
STARTCHAR etatonos
ENCODING 942
SWIDTH 556 0
DWIDTH 10 0
BBX 9 18 1 -4
BITMAP
0180
0100
0200
0000
6F00
7180
7180
6180
6180
6180
6180
C300
C300
C300
0300
0300
0300
0600
ENDCHAR
STARTCHAR iotatonos
ENCODING 943
SWIDTH 278 0
DWIDTH 5 0
BBX 5 14 1 0
BITMAP
18
10
20
00
60
60
60
60
60
60
60
C0
C0
C0
ENDCHAR
STARTCHAR upsilondieresistonos
ENCODING 944
SWIDTH 556 0
DWIDTH 10 0
BBX 8 15 2 0
BITMAP
06
04
2D
29
00
E3
C3
C3
C3
C3
C3
C2
C6
CC
78
ENDCHAR
STARTCHAR alpha
ENCODING 945
SWIDTH 556 0
DWIDTH 10 0
BBX 10 10 1 0
BITMAP
3CC0
6380
6380
C300
C300
C200
C200
C600
CB00
7300
ENDCHAR
STARTCHAR beta
ENCODING 946
SWIDTH 556 0
DWIDTH 10 0
BBX 10 17 0 -4
BITMAP
0780
08C0
18C0
18C0
30C0
3180
3300
3180
30C0
30C0
60C0
7180
6F00
6000
6000
6000
C000
ENDCHAR
STARTCHAR gamma
ENCODING 947
SWIDTH 500 0
DWIDTH 9 0
BBX 8 14 2 -4
BITMAP
C3
C3
C6
C6
CC
CC
58
58
70
70
60
60
C0
C0
ENDCHAR
STARTCHAR delta
ENCODING 948
SWIDTH 556 0
DWIDTH 10 0
BBX 10 13 1 0
BITMAP
1FC0
0800
0C00
0600
1B00
7180
6180
C180
C180
C180
C300
6300
3C00
ENDCHAR
STARTCHAR epsilon
ENCODING 949
SWIDTH 444 0
DWIDTH 8 0
BBX 8 10 1 0
BITMAP
3E
63
60
70
3C
60
C0
C4
CE
78
ENDCHAR
STARTCHAR zeta
ENCODING 950
SWIDTH 444 0
DWIDTH 8 0
BBX 8 16 1 -3
BITMAP
1F
02
04
08
18
30
60
60
C0
C0
C0
F0
7C
0C
0C
08
ENDCHAR
STARTCHAR eta
ENCODING 951
SWIDTH 556 0
DWIDTH 10 0
BBX 9 14 1 -4
BITMAP
6F00
7180
7180
6180
6180
6180
6180
C300
C300
C300
0300
0300
0300
0600
ENDCHAR
STARTCHAR theta
ENCODING 952
SWIDTH 556 0
DWIDTH 10 0
BBX 9 13 1 0
BITMAP
0F00
3180
2180
6180
6180
E180
FF80
C380
C300
C300
C600
4600
7800
ENDCHAR
STARTCHAR iota
ENCODING 953
SWIDTH 278 0
DWIDTH 5 0
BBX 4 10 1 0
BITMAP
60
60
60
60
60
60
60
C0
C0
C0
ENDCHAR
STARTCHAR kappa
ENCODING 954
SWIDTH 500 0
DWIDTH 9 0
BBX 9 10 1 0
BITMAP
7180
6300
6600
6C00
7800
6800
6C00
C600
C600
C300
ENDCHAR
STARTCHAR lambda
ENCODING 955
SWIDTH 500 0
DWIDTH 9 0
BBX 8 13 0 0
BITMAP
1C
0C
0C
0E
0E
0E
1E
1E
36
33
63
63
C3
ENDCHAR
STARTCHAR mu
ENCODING 956
SWIDTH 556 0
DWIDTH 10 0
BBX 11 14 0 -4
BITMAP
38E0
30C0
30C0
30C0
30C0
30C0
30C0
7180
7380
6D80
6000
6000
6000
E000
ENDCHAR
STARTCHAR nu
ENCODING 957
SWIDTH 500 0
DWIDTH 9 0
BBX 7 10 2 0
BITMAP
C6
C6
C6
C6
CC
CC
D8
D0
F0
E0
ENDCHAR
STARTCHAR xi
ENCODING 958
SWIDTH 444 0
DWIDTH 8 0
BBX 8 16 1 -3
BITMAP
3F
18
30
30
38
0E
38
60
C0
C0
C0
F0
3C
0C
0C
08
ENDCHAR
STARTCHAR omicron
ENCODING 959
SWIDTH 556 0
DWIDTH 10 0
BBX 9 10 1 0
BITMAP
1E00
3300
6180
C180
C180
C180
C180
C300
6200
3C00
ENDCHAR
STARTCHAR pi
ENCODING 960
SWIDTH 667 0
DWIDTH 12 0
BBX 12 10 1 0
BITMAP
FFF0
18C0
18C0
30C0
30C0
30C0
60C0
6180
6180
C0E0
ENDCHAR
STARTCHAR rho
ENCODING 961
SWIDTH 556 0
DWIDTH 10 0
BBX 10 14 0 -4
BITMAP
0F00
1980
30C0
30C0
30C0
30C0
30C0
6180
7180
6E00
6000
6000
6000
E000
ENDCHAR
STARTCHAR sigma1
ENCODING 962
SWIDTH 500 0
DWIDTH 9 0
BBX 8 13 1 -3
BITMAP
1E
31
60
60
C0
C0
C0
C0
70
3E
06
06
04
ENDCHAR
STARTCHAR sigma
ENCODING 963
SWIDTH 611 0
DWIDTH 11 0
BBX 11 10 1 0
BITMAP
1FE0
3180
6180
C180
C180
C180
C180
C300
6200
3C00
ENDCHAR
STARTCHAR tau
ENCODING 964
SWIDTH 389 0
DWIDTH 7 0
BBX 7 10 1 0
BITMAP
FE
30
30
30
30
30
70
60
60
38
ENDCHAR
STARTCHAR upsilon
ENCODING 965
SWIDTH 556 0
DWIDTH 10 0
BBX 8 10 2 0
BITMAP
E3
C3
C3
C3
C3
C3
C2
C6
CC
78
ENDCHAR
STARTCHAR phi
ENCODING 966
SWIDTH 667 0
DWIDTH 12 0
BBX 11 14 1 -4
BITMAP
19C0
3360
6660
C660
C660
C660
C660
CCC0
6C80
3F00
0C00
0C00
0C00
1800
ENDCHAR
STARTCHAR chi
ENCODING 967
SWIDTH 556 0
DWIDTH 10 0
BBX 12 14 -1 -4
BITMAP
1C10
0C20
0640
0680
0680
0300
0300
0700
0B00
1180
1180
2180
40C0
80C0
ENDCHAR
STARTCHAR psi
ENCODING 968
SWIDTH 722 0
DWIDTH 13 0
BBX 11 16 2 -4
BITMAP
0600
0600
ECC0
CCC0
CCC0
CCC0
CCC0
CCC0
CCC0
D980
D980
7F00
1800
1800
1800
3800
ENDCHAR
STARTCHAR omega
ENCODING 969
SWIDTH 778 0
DWIDTH 14 0
BBX 13 10 1 0
BITMAP
1860
3030
6018
6018
C318
C318
C318
C630
C730
79C0
ENDCHAR
STARTCHAR iotadieresis
ENCODING 970
SWIDTH 278 0
DWIDTH 5 0
BBX 6 13 1 0
BITMAP
CC
CC
00
60
60
60
60
60
60
60
C0
C0
C0
ENDCHAR
STARTCHAR upsilondieresis
ENCODING 971
SWIDTH 556 0
DWIDTH 10 0
BBX 8 13 2 0
BITMAP
33
33
00
E3
C3
C3
C3
C3
C3
C2
C6
CC
78
ENDCHAR
STARTCHAR omicrontonos
ENCODING 972
SWIDTH 556 0
DWIDTH 10 0
BBX 9 14 1 0
BITMAP
0300
0200
0400
0000
1E00
3300
6180
C180
C180
C180
C180
C300
6200
3C00
ENDCHAR
STARTCHAR upsilontonos
ENCODING 973
SWIDTH 556 0
DWIDTH 10 0
BBX 8 14 2 0
BITMAP
06
04
08
00
E3
C3
C3
C3
C3
C3
C2
C6
CC
78
ENDCHAR
STARTCHAR omegatonos
ENCODING 974
SWIDTH 778 0
DWIDTH 14 0
BBX 13 14 1 0
BITMAP
00C0
0080
0100
0000
1860
3030
6018
6018
C318
C318
C318
C630
C730
79C0
ENDCHAR
STARTCHAR afii10023
ENCODING 1025
SWIDTH 667 0
DWIDTH 12 0
BBX 11 15 1 0
BITMAP
0CC0
0CC0
0000
3FE0
3000
3000
6000
6000
7F80
6000
6000
6000
C000
C000
FF80
ENDCHAR
STARTCHAR afii10051
ENCODING 1026
SWIDTH 833 0
DWIDTH 15 0
BBX 12 12 2 0
BITMAP
FF80
0C00
0C00
1800
1BE0
1C30
1830
1830
1830
3060
3260
31C0
ENDCHAR
STARTCHAR afii10052
ENCODING 1027
SWIDTH 556 0
DWIDTH 10 0
BBX 10 15 1 0
BITMAP
0180
0600
0000
3FC0
3000
3000
6000
6000
6000
6000
6000
6000
C000
C000
C000
ENDCHAR
STARTCHAR afii10053
ENCODING 1028
SWIDTH 722 0
DWIDTH 13 0
BBX 12 12 1 0
BITMAP
0FC0
1860
2070
6030
C000
FF00
C000
C000
C040
60C0
61C0
1F00
ENDCHAR
STARTCHAR afii10054
ENCODING 1029
SWIDTH 667 0
DWIDTH 12 0
BBX 11 12 1 0
BITMAP
0F80
18E0
3060
3000
3800
1F00
0380
00C0
00C0
C0C0
6180
3F00
ENDCHAR
STARTCHAR afii10055
ENCODING 1030
SWIDTH 278 0
DWIDTH 5 0
BBX 4 12 1 0
BITMAP
30
30
30
60
60
60
60
60
60
C0
C0
C0
ENDCHAR
STARTCHAR afii10056
ENCODING 1031
SWIDTH 278 0
DWIDTH 5 0
BBX 7 15 1 0
BITMAP
66
66
00
30
30
30
60
60
60
60
60
60
C0
C0
C0
ENDCHAR
STARTCHAR afii10057
ENCODING 1032
SWIDTH 500 0
DWIDTH 9 0
BBX 9 12 0 0
BITMAP
0780
0180
0180
0300
0300
0300
0300
0300
0300
C600
E600
7C00
ENDCHAR
STARTCHAR afii10058
ENCODING 1033
SWIDTH 1056 0
DWIDTH 19 0
BBX 18 12 0 0
BITMAP
07F000
043000
0C3000
0C6000
086000
187F00
1861C0
1060C0
1060C0
30C0C0
20C180
C0FF00
ENDCHAR
STARTCHAR afii10059
ENCODING 1034
SWIDTH 1000 0
DWIDTH 18 0
BBX 16 12 1 0
BITMAP
3060
3060
3060
60C0
60C0
7FFE
60C7
60C3
60C3
C183
C186
C1FC
ENDCHAR
STARTCHAR afii10060
ENCODING 1035
SWIDTH 833 0
DWIDTH 15 0
BBX 12 12 2 0
BITMAP
FFE0
0C00
0C00
1800
1BE0
1C30
1830
1830
1830
3060
3060
3060
ENDCHAR
STARTCHAR afii10061
ENCODING 1036
SWIDTH 611 0
DWIDTH 11 0
BBX 11 15 1 0
BITMAP
00C0
0300
0000
3060
30C0
3180
6300
6600
7C00
6600
6300
6300
C180
C180
C0C0
ENDCHAR
STARTCHAR afii10062
ENCODING 1038
SWIDTH 667 0
DWIDTH 12 0
BBX 13 16 0 0
BITMAP
0420
0660
03C0
0000
3018
3030
1860
1860
0CC0
0D80
0500
0700
0600
0C00
1800
F000
ENDCHAR
STARTCHAR afii10145
ENCODING 1039
SWIDTH 722 0
DWIDTH 13 0
BBX 12 16 1 -4
BITMAP
3030
3030
3030
6060
6060
6060
6060
6060
6060
C0C0
C0C0
FFC0
0C00
0C00
0C00
1800
ENDCHAR
STARTCHAR afii10017
ENCODING 1040
SWIDTH 667 0
DWIDTH 12 0
BBX 11 12 0 0
BITMAP
0380
0280
0680
04C0
0CC0
08C0
18C0
3FC0
3040
6060
6060
C060
ENDCHAR
STARTCHAR afii10018
ENCODING 1041
SWIDTH 667 0
DWIDTH 12 0
BBX 10 12 1 0
BITMAP
3FC0
3000
3000
6000
6000
7F00
61C0
60C0
60C0
C0C0
C180
FF00
ENDCHAR
STARTCHAR afii10019
ENCODING 1042
SWIDTH 667 0
DWIDTH 12 0
BBX 10 12 1 0
BITMAP
3F80
30C0
30C0
60C0
6180
7F00
6180
60C0
60C0
C0C0
C180
FF00
ENDCHAR
STARTCHAR afii10020
ENCODING 1043
SWIDTH 556 0
DWIDTH 10 0
BBX 10 12 1 0
BITMAP
3FC0
3000
3000
6000
6000
6000
6000
6000
6000
C000
C000
C000
ENDCHAR
STARTCHAR afii10021
ENCODING 1044
SWIDTH 722 0
DWIDTH 13 0
BBX 15 16 -2 -4
BITMAP
00FE
0186
0186
018C
030C
030C
030C
060C
060C
0C18
1818
7FFE
6006
6006
6006
C00C
ENDCHAR
STARTCHAR afii10022
ENCODING 1045
SWIDTH 667 0
DWIDTH 12 0
BBX 11 12 1 0
BITMAP
3FE0
3000
3000
6000
6000
7F80
6000
6000
6000
C000
C000
FF80
ENDCHAR
STARTCHAR afii10024
ENCODING 1046
SWIDTH 944 0
DWIDTH 17 0
BBX 18 12 0 0
BITMAP
1860C0
086180
0C6300
04C600
06CC00
07F800
0CCC00
08C600
18C600
318300
618300
C18180
ENDCHAR
STARTCHAR afii10025
ENCODING 1047
SWIDTH 611 0
DWIDTH 11 0
BBX 9 12 1 0
BITMAP
1F00
3180
6180
0180
0300
1C00
0300
0180
4180
C180
6300
3E00
ENDCHAR
STARTCHAR afii10026
ENCODING 1048
SWIDTH 722 0
DWIDTH 13 0
BBX 12 12 1 0
BITMAP
3070
3070
30B0
71E0
6160
6260
6460
6C60
68E0
D0C0
E0C0
E0C0
ENDCHAR
STARTCHAR afii10027
ENCODING 1049
SWIDTH 722 0
DWIDTH 13 0
BBX 12 16 1 0
BITMAP
0420
0660
03C0
0000
3070
3070
30B0
71E0
6160
6260
6460
6C60
68E0
D0C0
E0C0
E0C0
ENDCHAR
STARTCHAR afii10028
ENCODING 1050
SWIDTH 611 0
DWIDTH 11 0
BBX 11 12 1 0
BITMAP
3060
30C0
3180
6300
6600
7C00
6600
6300
6300
C180
C180
C0C0
ENDCHAR
STARTCHAR afii10029
ENCODING 1051
SWIDTH 667 0
DWIDTH 12 0
BBX 13 12 -1 0
BITMAP
03F8
0618
0618
0630
0C30
0C30
0C30
1830
1830
1060
3060
E060
ENDCHAR
STARTCHAR afii10030
ENCODING 1052
SWIDTH 889 0
DWIDTH 16 0
BBX 15 12 1 0
BITMAP
380E
380E
3816
683C
6C2C
646C
644C
64CC
669C
C318
C318
C218
ENDCHAR
STARTCHAR afii10031
ENCODING 1053
SWIDTH 722 0
DWIDTH 13 0
BBX 12 12 1 0
BITMAP
3030
3030
3030
6060
6060
7FE0
6060
6060
6060
C0C0
C0C0
C0C0
ENDCHAR
STARTCHAR afii10032
ENCODING 1054
SWIDTH 778 0
DWIDTH 14 0
BBX 13 12 1 0
BITMAP
07C0
1870
3030
6018
C018
C018
C018
C018
C030
6060
70C0
1F00
ENDCHAR
STARTCHAR afii10033
ENCODING 1055
SWIDTH 722 0
DWIDTH 13 0
BBX 12 12 1 0
BITMAP
3FF0
3030
3030
6060
6060
6060
6060
6060
6060
C0C0
C0C0
C0C0
ENDCHAR
STARTCHAR afii10034
ENCODING 1056
SWIDTH 667 0
DWIDTH 12 0
BBX 10 12 1 0
BITMAP
3F80
30C0
30C0
60C0
61C0
7F00
6000
6000
6000
C000
C000
C000
ENDCHAR
STARTCHAR afii10035
ENCODING 1057
SWIDTH 722 0
DWIDTH 13 0
BBX 12 12 1 0
BITMAP
0FC0
1860
2070
6030
C000
C000
C000
C000
C040
60C0
61C0
1F00
ENDCHAR
STARTCHAR afii10036
ENCODING 1058
SWIDTH 611 0
DWIDTH 11 0
BBX 10 12 2 0
BITMAP
FFC0
0C00
0C00
1800
1800
1800
1800
1800
1800
3000
3000
3000
ENDCHAR
STARTCHAR afii10037
ENCODING 1059
SWIDTH 667 0
DWIDTH 12 0
BBX 13 12 0 0
BITMAP
3018
3030
1860
1860
0CC0
0D80
0500
0700
0600
0C00
1800
F000
ENDCHAR
STARTCHAR afii10038
ENCODING 1060
SWIDTH 778 0
DWIDTH 14 0
BBX 13 12 1 0
BITMAP
0300
0300
3FE0
6630
C618
C618
C618
C618
6670
3FC0
0C00
0C00
ENDCHAR
STARTCHAR afii10039
ENCODING 1061
SWIDTH 667 0
DWIDTH 12 0
BBX 13 12 0 0
BITMAP
1818
0C30
0C60
06C0
0780
0300
0700
0D80
1980
30C0
60C0
C060
ENDCHAR
STARTCHAR afii10040
ENCODING 1062
SWIDTH 722 0
DWIDTH 13 0
BBX 12 16 1 -4
BITMAP
3030
3030
3030
6060
6060
6060
6060
6060
6060
C0C0
C0C0
FFF0
0030
0030
0030
0060
ENDCHAR
STARTCHAR afii10041
ENCODING 1063
SWIDTH 667 0
DWIDTH 12 0
BBX 10 12 2 0
BITMAP
60C0
60C0
60C0
C180
C180
C180
C180
7F80
0180
0300
0300
0300
ENDCHAR
STARTCHAR afii10042
ENCODING 1064
SWIDTH 944 0
DWIDTH 17 0
BBX 16 12 1 0
BITMAP
30C3
30C3
30C3
6186
6186
6186
6186
6186
6186
C30C
C30C
FFFC
ENDCHAR
STARTCHAR afii10043
ENCODING 1065
SWIDTH 944 0
DWIDTH 17 0
BBX 16 16 1 -4
BITMAP
30C3
30C3
30C3
6186
6186
6186
6186
6186
6186
C30C
C30C
FFFF
0003
0003
0003
0006
ENDCHAR
STARTCHAR afii10044
ENCODING 1066
SWIDTH 833 0
DWIDTH 15 0
BBX 12 12 2 0
BITMAP
FC00
0C00
0C00
1800
1800
1FC0
1870
1830
1830
3030
3060
3FC0
ENDCHAR
STARTCHAR afii10045
ENCODING 1067
SWIDTH 889 0
DWIDTH 16 0
BBX 15 12 1 0
BITMAP
3006
3006
3006
600C
600C
7F0C
61CC
60CC
60CC
C0D8
C198
FF18
ENDCHAR
STARTCHAR afii10046
ENCODING 1068
SWIDTH 667 0
DWIDTH 12 0
BBX 10 12 1 0
BITMAP
3000
3000
3000
6000
6000
7F00
61C0
60C0
60C0
C0C0
C180
FF00
ENDCHAR
STARTCHAR afii10047
ENCODING 1069
SWIDTH 667 0
DWIDTH 12 0
BBX 11 12 1 0
BITMAP
1F80
30C0
6060
0060
0060
0FE0
0060
0060
C0C0
E0C0
6180
3E00
ENDCHAR
STARTCHAR afii10048
ENCODING 1070
SWIDTH 1000 0
DWIDTH 18 0
BBX 17 12 1 0
BITMAP
307C00
31C300
330180
630180
660180
7E0180
660180
660180
660300
C20200
C30E00
C0F800
ENDCHAR
STARTCHAR afii10049
ENCODING 1071
SWIDTH 667 0
DWIDTH 12 0
BBX 12 12 0 0
BITMAP
0FF0
1830
3030
3060
3060
3860
0FE0
1860
1860
30C0
60C0
C0C0
ENDCHAR
STARTCHAR afii10065
ENCODING 1072
SWIDTH 556 0
DWIDTH 10 0
BBX 9 10 1 0
BITMAP
1F00
3180
6180
0180
3F80
6380
C300
C300
C700
7B80
ENDCHAR
STARTCHAR afii10066
ENCODING 1073
SWIDTH 556 0
DWIDTH 10 0
BBX 10 13 1 0
BITMAP
07C0
1E00
2000
4000
5E00
E300
C100
C180
8100
8100
C300
C600
7C00
ENDCHAR
STARTCHAR afii10067
ENCODING 1074
SWIDTH 500 0
DWIDTH 9 0
BBX 8 10 1 0
BITMAP
1E
33
63
63
7C
63
63
C3
C7
FC
ENDCHAR
STARTCHAR afii10068
ENCODING 1075
SWIDTH 500 0
DWIDTH 9 0
BBX 8 10 1 0
BITMAP
3E
73
63
07
1E
70
C0
C6
CE
7C
ENDCHAR
STARTCHAR afii10069
ENCODING 1076
SWIDTH 556 0
DWIDTH 10 0
BBX 9 13 1 0
BITMAP
1E00
0300
0180
0180
3D80
6380
6180
C180
C180
C300
C300
6600
3C00
ENDCHAR
STARTCHAR afii10070
ENCODING 1077
SWIDTH 556 0
DWIDTH 10 0
BBX 9 10 1 0
BITMAP
1E00
3380
6180
C180
FF80
C000
C000
C300
6600
3C00
ENDCHAR
STARTCHAR afii10072
ENCODING 1078
SWIDTH 667 0
DWIDTH 12 0
BBX 14 10 -1 0
BITMAP
330C
1308
1B30
0B20
0FC0
1B60
3360
2620
6630
C630
ENDCHAR
STARTCHAR afii10073
ENCODING 1079
SWIDTH 444 0
DWIDTH 8 0
BBX 7 10 1 0
BITMAP
3C
66
06
0E
38
0C
0C
CC
CC
78
ENDCHAR
STARTCHAR afii10074
ENCODING 1080
SWIDTH 556 0
DWIDTH 10 0
BBX 10 10 1 0
BITMAP
6180
6180
6180
6180
6180
6180
6380
C300
6700
7B00
ENDCHAR
STARTCHAR afii10075
ENCODING 1081
SWIDTH 556 0
DWIDTH 10 0
BBX 10 14 1 0
BITMAP
1080
1980
0F00
0000
6180
6180
6180
6180
6180
6180
6380
C300
6700
7B00
ENDCHAR
STARTCHAR afii10076
ENCODING 1082
SWIDTH 500 0
DWIDTH 9 0
BBX 9 10 1 0
BITMAP
7180
6100
6600
6400
7800
6C00
6C00
CC00
C600
C600
ENDCHAR
STARTCHAR afii10077
ENCODING 1083
SWIDTH 556 0
DWIDTH 10 0
BBX 11 10 0 0
BITMAP
0FE0
0CC0
1CC0
18C0
18C0
18C0
38C0
3180
3180
E180
ENDCHAR
STARTCHAR afii10078
ENCODING 1084
SWIDTH 667 0
DWIDTH 12 0
BBX 12 10 0 0
BITMAP
3030
3870
2870
28A0
69A0
6960
6B60
4A60
4A40
C440
ENDCHAR
STARTCHAR afii10079
ENCODING 1085
SWIDTH 556 0
DWIDTH 10 0
BBX 10 10 1 0
BITMAP
7180
6180
6180
6180
7F80
6180
6180
C300
C300
C300
ENDCHAR
STARTCHAR afii10080
ENCODING 1086
SWIDTH 556 0
DWIDTH 10 0
BBX 9 10 1 0
BITMAP
1E00
3300
6180
C180
C180
C180
C180
C300
6200
3C00
ENDCHAR
STARTCHAR afii10081
ENCODING 1087
SWIDTH 556 0
DWIDTH 10 0
BBX 10 10 1 0
BITMAP
7FC0
6180
6180
6180
6180
6180
6180
C300
C300
C300
ENDCHAR
STARTCHAR afii10082
ENCODING 1088
SWIDTH 556 0
DWIDTH 10 0
BBX 10 14 0 -4
BITMAP
3780
38C0
30C0
30C0
30C0
30C0
30C0
7180
7180
6F00
6000
6000
6000
C000
ENDCHAR
STARTCHAR afii10083
ENCODING 1089
SWIDTH 500 0
DWIDTH 9 0
BBX 8 10 1 0
BITMAP
1E
63
63
C0
C0
C0
C0
C6
CC
78
ENDCHAR
STARTCHAR afii10084
ENCODING 1090
SWIDTH 833 0
DWIDTH 15 0
BBX 13 10 1 0
BITMAP
2E70
7398
6318
6318
6318
6318
6318
C630
C630
C630
ENDCHAR
STARTCHAR afii10085
ENCODING 1091
SWIDTH 500 0
DWIDTH 9 0
BBX 10 14 0 -4
BITMAP
30C0
30C0
3180
3180
3300
3300
1600
1600
1C00
1C00
1800
3800
3000
E000
ENDCHAR
STARTCHAR afii10086
ENCODING 1092
SWIDTH 833 0
DWIDTH 15 0
BBX 14 17 1 -4
BITMAP
0180
0180
0180
3B78
678C
630C
C30C
C30C
C30C
C70C
C718
CF18
76F0
0600
0600
0600
0C00
ENDCHAR
STARTCHAR afii10087
ENCODING 1093
SWIDTH 500 0
DWIDTH 9 0
BBX 10 10 0 0
BITMAP
18C0
1980
0B00
0E00
0E00
0E00
1E00
3600
6300
C300
ENDCHAR
STARTCHAR afii10088
ENCODING 1094
SWIDTH 556 0
DWIDTH 10 0
BBX 10 14 1 -4
BITMAP
6180
6180
6180
6180
6180
6180
6380
E300
6700
7BC0
00C0
00C0
00C0
0180
ENDCHAR
STARTCHAR afii10089
ENCODING 1095
SWIDTH 500 0
DWIDTH 9 0
BBX 8 10 2 0
BITMAP
C6
C6
C6
C6
C6
CE
76
0C
0C
0C
ENDCHAR
STARTCHAR afii10090
ENCODING 1096
SWIDTH 833 0
DWIDTH 15 0
BBX 14 10 1 0
BITMAP
6318
6318
6318
6318
6318
6318
6718
C630
6B70
73B0
ENDCHAR
STARTCHAR afii10091
ENCODING 1097
SWIDTH 833 0
DWIDTH 15 0
BBX 14 14 1 -4
BITMAP
631C
6318
6318
6318
6318
6318
6718
C630
6770
79BC
000C
000C
000C
0018
ENDCHAR
STARTCHAR afii10092
ENCODING 1098
SWIDTH 611 0
DWIDTH 11 0
BBX 10 10 1 0
BITMAP
FC00
1800
1800
1800
1F80
18C0
18C0
30C0
31C0
3F00
ENDCHAR
STARTCHAR afii10093
ENCODING 1099
SWIDTH 722 0
DWIDTH 13 0
BBX 13 10 1 0
BITMAP
7038
6030
6030
6030
7E30
6330
6330
C360
C760
FC60
ENDCHAR
STARTCHAR afii10094
ENCODING 1100
SWIDTH 500 0
DWIDTH 9 0
BBX 8 10 1 0
BITMAP
70
60
60
60
7E
63
63
C3
C7
FC
ENDCHAR
STARTCHAR afii10095
ENCODING 1101
SWIDTH 500 0
DWIDTH 9 0
BBX 8 10 1 0
BITMAP
3E
63
03
03
1F
03
03
C6
E6
78
ENDCHAR
STARTCHAR afii10096
ENCODING 1102
SWIDTH 778 0
DWIDTH 14 0
BBX 13 10 1 0
BITMAP
71F0
6310
6318
6618
7E18
6618
6618
C630
C330
C1C0
ENDCHAR
STARTCHAR afii10097
ENCODING 1103
SWIDTH 556 0
DWIDTH 10 0
BBX 11 10 0 0
BITMAP
0FC0
38C0
30C0
30C0
30C0
1FC0
18C0
3180
6180
C180
ENDCHAR
STARTCHAR afii10071
ENCODING 1105
SWIDTH 556 0
DWIDTH 10 0
BBX 9 13 1 0
BITMAP
1980
1980
0000
1E00
3380
6180
C180
FF80
C000
C000
C300
6600
3C00
ENDCHAR
STARTCHAR afii10099
ENCODING 1106
SWIDTH 556 0
DWIDTH 10 0
BBX 9 17 1 -4
BITMAP
3000
7E00
3000
7000
6F00
7180
6180
6180
6180
6180
C300
C300
C300
0300
0300
0600
0E00
ENDCHAR
STARTCHAR afii10100
ENCODING 1107
SWIDTH 389 0
DWIDTH 7 0
BBX 7 14 1 0
BITMAP
06
0C
10
00
7E
60
60
60
60
60
60
C0
C0
C0
ENDCHAR
STARTCHAR afii10101
ENCODING 1108
SWIDTH 500 0
DWIDTH 9 0
BBX 8 10 1 0
BITMAP
1E
63
60
C0
F8
C0
C0
C6
CC
78
ENDCHAR
STARTCHAR afii10102
ENCODING 1109
SWIDTH 500 0
DWIDTH 9 0
BBX 8 10 1 0
BITMAP
3E
63
63
60
38
1E
06
C6
E6
7C
ENDCHAR
STARTCHAR afii10103
ENCODING 1110
SWIDTH 278 0
DWIDTH 5 0
BBX 4 13 1 0
BITMAP
30
30
00
60
60
60
60
60
60
60
C0
C0
C0
ENDCHAR
STARTCHAR afii10104
ENCODING 1111
SWIDTH 278 0
DWIDTH 5 0
BBX 6 13 1 0
BITMAP
CC
CC
00
60
60
60
60
60
60
60
C0
C0
C0
ENDCHAR
STARTCHAR afii10105
ENCODING 1112
SWIDTH 222 0
DWIDTH 4 0
BBX 7 17 -2 -4
BITMAP
06
06
00
0E
0C
0C
0C
0C
0C
0C
18
18
18
18
18
30
E0
ENDCHAR
STARTCHAR afii10106
ENCODING 1113
SWIDTH 889 0
DWIDTH 16 0
BBX 16 10 0 0
BITMAP
07F0
0E60
0C60
0C60
187E
1863
1863
30C3
30C7
E0FC
ENDCHAR
STARTCHAR afii10107
ENCODING 1114
SWIDTH 833 0
DWIDTH 15 0
BBX 14 10 1 0
BITMAP
7180
6180
6180
6180
7FF8
618C
618C
C30C
C31C
C3F0
ENDCHAR
STARTCHAR afii10108
ENCODING 1115
SWIDTH 556 0
DWIDTH 10 0
BBX 9 13 1 0
BITMAP
3000
7E00
3000
7000
6F00
7180
6180
6180
6180
6180
C300
C300
C300
ENDCHAR
STARTCHAR afii10109
ENCODING 1116
SWIDTH 500 0
DWIDTH 9 0
BBX 9 14 1 0
BITMAP
0180
0300
0400
0000
7180
6100
6600
6400
7800
6C00
6C00
CC00
C600
C600
ENDCHAR
STARTCHAR afii10110
ENCODING 1118
SWIDTH 500 0
DWIDTH 9 0
BBX 10 18 0 -4
BITMAP
0840
0CC0
0780
0000
30C0
30C0
3180
3180
3300
3300
1600
1600
1C00
1C00
1800
3800
3000
E000
ENDCHAR
STARTCHAR afii10193
ENCODING 1119
SWIDTH 556 0
DWIDTH 10 0
BBX 10 13 1 -3
BITMAP
61C0
6180
6180
6180
6180
6180
6380
E300
6700
7B00
1800
1800
1800
ENDCHAR
STARTCHAR afii10050
ENCODING 1168
SWIDTH 500 0
DWIDTH 9 0
BBX 10 16 1 0
BITMAP
00C0
0080
0180
0180
3F80
3000
3000
6000
6000
6000
6000
6000
6000
C000
C000
C000
ENDCHAR
STARTCHAR afii10098
ENCODING 1169
SWIDTH 333 0
DWIDTH 6 0
BBX 7 13 1 0
BITMAP
06
06
06
7C
60
60
60
60
60
60
C0
C0
C0
ENDCHAR
STARTCHAR Wgrave
ENCODING 7808
SWIDTH 944 0
DWIDTH 17 0
BBX 16 15 2 0
BITMAP
0300
0080
0000
C183
C183
C286
C2C6
44C4
64CC
64CC
68C8
68D8
7050
7050
7070
ENDCHAR
STARTCHAR wgrave
ENCODING 7809
SWIDTH 722 0
DWIDTH 13 0
BBX 12 14 2 0
BITMAP
0C00
0400
0200
0000
C630
CE30
CE60
CE60
D640
D2C0
E280
E380
E300
C300
ENDCHAR
STARTCHAR Wacute
ENCODING 7810
SWIDTH 944 0
DWIDTH 17 0
BBX 16 15 2 0
BITMAP
0060
0180
0000
C183
C183
C286
C2C6
44C4
64CC
64CC
68C8
68D8
7050
7050
7070
ENDCHAR
STARTCHAR wacute
ENCODING 7811
SWIDTH 722 0
DWIDTH 13 0
BBX 12 14 2 0
BITMAP
0180
0300
0400
0000
C630
CE30
CE60
CE60
D640
D2C0
E280
E380
E300
C300
ENDCHAR
STARTCHAR Wdieresis
ENCODING 7812
SWIDTH 944 0
DWIDTH 17 0
BBX 16 15 2 0
BITMAP
0660
0660
0000
C183
C183
C286
C2C6
44C4
64CC
64CC
68C8
68D8
7050
7050
7070
ENDCHAR
STARTCHAR wdieresis
ENCODING 7813
SWIDTH 722 0
DWIDTH 13 0
BBX 12 13 2 0
BITMAP
1980
1980
0000
C630
CE30
CE60
CE60
D640
D2C0
E280
E380
E300
C300
ENDCHAR
STARTCHAR Ygrave
ENCODING 7922
SWIDTH 667 0
DWIDTH 12 0
BBX 11 15 2 0
BITMAP
0C00
0200
0000
C060
C0C0
6180
6300
3600
3600
1C00
1800
1800
3000
3000
3000
ENDCHAR
STARTCHAR ygrave
ENCODING 7923
SWIDTH 500 0
DWIDTH 9 0
BBX 10 18 0 -4
BITMAP
0C00
0400
0200
0000
30C0
30C0
3180
3180
3300
3300
1600
1600
1C00
1C00
1800
3800
3000
E000
ENDCHAR
STARTCHAR uni2010
ENCODING 8208
SWIDTH 333 0
DWIDTH 6 0
BBX 5 1 1 4
BITMAP
F8
ENDCHAR
STARTCHAR uni2011
ENCODING 8209
SWIDTH 333 0
DWIDTH 6 0
BBX 5 1 1 4
BITMAP
F8
ENDCHAR
STARTCHAR figuredash
ENCODING 8210
SWIDTH 333 0
DWIDTH 6 0
BBX 5 1 1 4
BITMAP
F8
ENDCHAR
STARTCHAR endash
ENCODING 8211
SWIDTH 556 0
DWIDTH 10 0
BBX 9 1 1 4
BITMAP
FF80
ENDCHAR
STARTCHAR emdash
ENCODING 8212
SWIDTH 1000 0
DWIDTH 18 0
BBX 17 1 1 4
BITMAP
FFFF80
ENDCHAR
STARTCHAR afii00208
ENCODING 8213
SWIDTH 1000 0
DWIDTH 18 0
BBX 18 1 0 4
BITMAP
FFFFC0
ENDCHAR
STARTCHAR underscoredbl
ENCODING 8215
SWIDTH 556 0
DWIDTH 10 0
BBX 10 3 -1 -5
BITMAP
FFC0
0000
FFC0
ENDCHAR
STARTCHAR quoteleft
ENCODING 8216
SWIDTH 222 0
DWIDTH 4 0
BBX 3 4 2 8
BITMAP
40
40
C0
C0
ENDCHAR
STARTCHAR quoteright
ENCODING 8217
SWIDTH 222 0
DWIDTH 4 0
BBX 3 4 1 8
BITMAP
60
60
40
40
ENDCHAR
STARTCHAR quotesinglbase
ENCODING 8218
SWIDTH 222 0
DWIDTH 4 0
BBX 3 4 1 -2
BITMAP
60
60
40
40
ENDCHAR
STARTCHAR quotereversed
ENCODING 8219
SWIDTH 222 0
DWIDTH 4 0
BBX 2 4 2 8
BITMAP
C0
C0
80
80
ENDCHAR
STARTCHAR quotedblleft
ENCODING 8220
SWIDTH 333 0
DWIDTH 6 0
BBX 6 4 1 8
BITMAP
48
48
D8
D8
ENDCHAR
STARTCHAR quotedblright
ENCODING 8221
SWIDTH 333 0
DWIDTH 6 0
BBX 6 4 1 8
BITMAP
6C
6C
48
48
ENDCHAR
STARTCHAR quotedblbase
ENCODING 8222
SWIDTH 333 0
DWIDTH 6 0
BBX 6 4 0 -2
BITMAP
6C
6C
48
48
ENDCHAR
STARTCHAR dagger
ENCODING 8224
SWIDTH 556 0
DWIDTH 10 0
BBX 8 14 2 -1
BITMAP
0C
0C
08
FF
18
18
10
10
10
30
30
20
20
20
ENDCHAR
STARTCHAR daggerdbl
ENCODING 8225
SWIDTH 556 0
DWIDTH 10 0
BBX 9 14 1 -1
BITMAP
0600
0600
0400
7F80
0C00
0C00
0800
0800
1800
1800
FF00
1000
3000
3000
ENDCHAR
STARTCHAR bullet
ENCODING 8226
SWIDTH 389 0
DWIDTH 7 0
BBX 5 5 1 4
BITMAP
70
F8
F8
F8
70
ENDCHAR
STARTCHAR ellipsis
ENCODING 8230
SWIDTH 1000 0
DWIDTH 18 0
BBX 14 2 2 0
BITMAP
C30C
C30C
ENDCHAR
STARTCHAR perthousand
ENCODING 8240
SWIDTH 1000 0
DWIDTH 18 0
BBX 18 12 0 0
BITMAP
1C1800
223000
426000
42C000
458000
3B0000
06E380
0D1440
1A1840
321840
622880
C1C700
ENDCHAR
STARTCHAR minute
ENCODING 8242
SWIDTH 167 0
DWIDTH 3 0
BBX 2 5 2 7
BITMAP
C0
C0
80
80
80
ENDCHAR
STARTCHAR second
ENCODING 8243
SWIDTH 333 0
DWIDTH 6 0
BBX 5 5 2 7
BITMAP
D8
D8
90
90
90
ENDCHAR
STARTCHAR guilsinglleft
ENCODING 8249
SWIDTH 333 0
DWIDTH 6 0
BBX 5 7 2 1
BITMAP
18
30
40
80
40
60
30
ENDCHAR
STARTCHAR guilsinglright
ENCODING 8250
SWIDTH 333 0
DWIDTH 6 0
BBX 5 7 0 1
BITMAP
60
30
10
08
10
60
C0
ENDCHAR
STARTCHAR exclamdbl
ENCODING 8252
SWIDTH 500 0
DWIDTH 9 0
BBX 8 12 1 0
BITMAP
33
33
22
22
66
66
66
44
00
00
CC
CC
ENDCHAR
STARTCHAR uni203E
ENCODING 8254
SWIDTH 333 0
DWIDTH 6 0
BBX 6 1 0 13
BITMAP
FC
ENDCHAR
STARTCHAR fraction
ENCODING 8260
SWIDTH 167 0
DWIDTH 3 0
BBX 12 12 -5 0
BITMAP
0030
0060
00C0
0080
0100
0200
0400
0800
1000
3000
6000
C000
ENDCHAR
STARTCHAR uni207F
ENCODING 8319
SWIDTH 389 0
DWIDTH 7 0
BBX 7 6 1 4
BITMAP
7E
66
66
66
CC
CC
ENDCHAR
STARTCHAR franc
ENCODING 8355
SWIDTH 556 0
DWIDTH 10 0
BBX 10 12 1 0
BITMAP
1FC0
1800
1800
3000
3000
3F80
3000
3000
FC00
6000
6000
6000
ENDCHAR
STARTCHAR lira
ENCODING 8356
SWIDTH 556 0
DWIDTH 10 0
BBX 10 12 1 0
BITMAP
0F80
18C0
1800
3000
7E00
3000
7E00
3000
3000
6180
4380
FF00
ENDCHAR
STARTCHAR peseta
ENCODING 8359
SWIDTH 1111 0
DWIDTH 20 0
BBX 19 12 1 0
BITMAP
3E0000
330000
318000
61A000
61E000
63F3C0
7E6660
606600
6063C0
C0C0C0
C0CCC0
C07780
ENDCHAR
STARTCHAR Euro
ENCODING 8364
SWIDTH 556 0
DWIDTH 10 0
BBX 11 12 0 0
BITMAP
07C0
0CE0
1860
1800
7F00
3000
7E00
3000
3000
30C0
1980
0F00
ENDCHAR
STARTCHAR afii61248
ENCODING 8453
SWIDTH 1056 0
DWIDTH 19 0
BBX 16 12 2 0
BITMAP
3806
440C
8018
8030
8040
888E
7111
0221
0C21
1821
3022
601C
ENDCHAR
STARTCHAR afii61289
ENCODING 8467
SWIDTH 333 0
DWIDTH 6 0
BBX 7 12 0 0
BITMAP
0E
1A
1A
1A
3A
34
38
30
E0
64
68
38
ENDCHAR
STARTCHAR afii61352
ENCODING 8470
SWIDTH 1111 0
DWIDTH 20 0
BBX 19 12 1 0
BITMAP
303000
383000
383000
6C63C0
646220
646420
626420
626440
6363C0
C1C000
C1C000
C1CFC0
ENDCHAR
STARTCHAR trademark
ENCODING 8482
SWIDTH 1000 0
DWIDTH 18 0
BBX 14 7 2 5
BITMAP
F98C
218C
218C
2154
2154
2164
2124
ENDCHAR
STARTCHAR u2126
ENCODING 8486
SWIDTH 778 0
DWIDTH 14 0
BBX 13 12 1 0
BITMAP
1FC0
3060
6030
C018
C018
C018
C018
E038
7070
38E0
1DC0
FDF8
ENDCHAR
STARTCHAR estimated
ENCODING 8494
SWIDTH 611 0
DWIDTH 11 0
BBX 9 10 2 0
BITMAP
3E00
6300
4100
C180
FF80
C000
C000
4000
6100
3E00
ENDCHAR
STARTCHAR oneeighth
ENCODING 8539
SWIDTH 833 0
DWIDTH 15 0
BBX 14 12 1 0
BITMAP
3818
5830
1860
1840
30B8
316C
326C
FC38
08CC
18CC
30CC
6078
ENDCHAR
STARTCHAR threeeighths
ENCODING 8540
SWIDTH 833 0
DWIDTH 15 0
BBX 15 12 0 0
BITMAP
3C0C
6618
0630
3820
0C5C
0CB6
CD36
7A1C
0466
0C66
1866
303C
ENDCHAR
STARTCHAR fiveeighths
ENCODING 8541
SWIDTH 833 0
DWIDTH 15 0
BBX 14 12 1 0
BITMAP
3C18
2030
2060
5840
6CB8
0D6C
CE6C
7C38
08CC
18CC
30CC
6078
ENDCHAR
STARTCHAR seveneighths
ENCODING 8542
SWIDTH 833 0
DWIDTH 15 0
BBX 14 13 1 -1
BITMAP
3E30
0660
0CC0
0880
1900
1A38
346C
386C
1038
30CC
60CC
C0CC
0078
ENDCHAR
STARTCHAR arrowleft
ENCODING 8592
SWIDTH 1000 0
DWIDTH 18 0
BBX 11 5 4 0
BITMAP
2000
4000
FFE0
4000
2000
ENDCHAR
STARTCHAR arrowup
ENCODING 8593
SWIDTH 500 0
DWIDTH 9 0
BBX 5 11 2 -1
BITMAP
20
70
A8
20
20
20
20
20
20
20
20
ENDCHAR
STARTCHAR arrowright
ENCODING 8594
SWIDTH 1000 0
DWIDTH 18 0
BBX 11 5 4 0
BITMAP
0080
0040
FFE0
0040
0080
ENDCHAR
STARTCHAR arrowdown
ENCODING 8595
SWIDTH 500 0
DWIDTH 9 0
BBX 5 11 2 -1
BITMAP
20
20
20
20
20
20
20
20
A8
70
20
ENDCHAR
STARTCHAR arrowboth
ENCODING 8596
SWIDTH 1000 0
DWIDTH 18 0
BBX 11 5 4 0
BITMAP
2080
4040
FFE0
4040
2080
ENDCHAR
STARTCHAR arrowupdn
ENCODING 8597
SWIDTH 500 0
DWIDTH 9 0
BBX 5 11 2 -1
BITMAP
20
70
A8
20
20
20
20
20
A8
70
20
ENDCHAR
STARTCHAR arrowupdnbse
ENCODING 8616
SWIDTH 500 0
DWIDTH 9 0
BBX 5 13 2 -3
BITMAP
20
70
A8
20
20
20
20
20
A8
70
20
00
F8
ENDCHAR
STARTCHAR partialdiff
ENCODING 8706
SWIDTH 500 0
DWIDTH 9 0
BBX 8 13 1 0
BITMAP
3C
06
03
03
3B
67
63
C3
C6
C6
C6
CC
78
ENDCHAR
STARTCHAR u2206
ENCODING 8710
SWIDTH 611 0
DWIDTH 11 0
BBX 11 12 0 0
BITMAP
0E00
1B00
1B00
1B00
3180
3180
3180
60C0
60C0
60C0
C060
FFE0
ENDCHAR
STARTCHAR product
ENCODING 8719
SWIDTH 833 0
DWIDTH 15 0
BBX 10 16 3 -4
BITMAP
FFC0
C0C0
C0C0
C0C0
C0C0
C0C0
C0C0
C0C0
C0C0
C0C0
C0C0
C0C0
C0C0
C0C0
C0C0
C0C0
ENDCHAR
STARTCHAR summation
ENCODING 8721
SWIDTH 722 0
DWIDTH 13 0
BBX 10 16 2 -4
BITMAP
FFC0
4000
2000
3000
1800
0C00
0600
0300
0300
0600
0C00
1800
3000
2000
4000
FFC0
ENDCHAR
STARTCHAR minus
ENCODING 8722
SWIDTH 611 0
DWIDTH 11 0
BBX 9 1 1 6
BITMAP
FF80
ENDCHAR
STARTCHAR fraction
ENCODING 8725
SWIDTH 167 0
DWIDTH 3 0
BBX 12 12 -5 0
BITMAP
0030
0060
00C0
0080
0100
0200
0400
0800
1000
3000
6000
C000
ENDCHAR
STARTCHAR periodcentered
ENCODING 8729
SWIDTH 278 0
DWIDTH 5 0
BBX 2 2 1 5
BITMAP
C0
C0
ENDCHAR
STARTCHAR radical
ENCODING 8730
SWIDTH 556 0
DWIDTH 10 0
BBX 11 14 0 0
BITMAP
0020
0060
0040
0040
00C0
0080
E080
3100
1100
1300
0A00
0A00
0E00
0400
ENDCHAR
STARTCHAR infinity
ENCODING 8734
SWIDTH 722 0
DWIDTH 13 0
BBX 11 6 1 3
BITMAP
71C0
CA60
8420
8420
CA60
71C0
ENDCHAR
STARTCHAR orthogonal
ENCODING 8735
SWIDTH 1000 0
DWIDTH 18 0
BBX 11 11 4 0
BITMAP
8000
8000
8000
8000
8000
8000
8000
8000
8000
8000
FFE0
ENDCHAR
STARTCHAR intersection
ENCODING 8745
SWIDTH 778 0
DWIDTH 14 0
BBX 8 9 2 0
BITMAP
3C
42
81
81
81
81
81
81
81
ENDCHAR
STARTCHAR integral
ENCODING 8747
SWIDTH 278 0
DWIDTH 5 0
BBX 8 17 -1 -4
BITMAP
0F
18
18
18
18
18
18
18
18
18
18
18
18
18
18
18
F0
ENDCHAR
STARTCHAR approxequal
ENCODING 8776
SWIDTH 556 0
DWIDTH 10 0
BBX 8 7 1 3
BITMAP
70
99
06
00
70
99
06
ENDCHAR
STARTCHAR notequal
ENCODING 8800
SWIDTH 556 0
DWIDTH 10 0
BBX 8 12 1 0
BITMAP
02
04
04
FF
08
08
10
10
FF
20
40
40
ENDCHAR
STARTCHAR equivalence
ENCODING 8801
SWIDTH 611 0
DWIDTH 11 0
BBX 9 8 1 2
BITMAP
FF80
0000
0000
FF80
0000
0000
0000
FF80
ENDCHAR
STARTCHAR lessequal
ENCODING 8804
SWIDTH 556 0
DWIDTH 10 0
BBX 8 11 1 0
BITMAP
01
06
18
60
80
60
18
06
01
00
FF
ENDCHAR
STARTCHAR greaterequal
ENCODING 8805
SWIDTH 556 0
DWIDTH 10 0
BBX 8 11 1 0
BITMAP
80
60
18
06
01
06
18
60
80
00
FF
ENDCHAR
STARTCHAR house
ENCODING 8962
SWIDTH 611 0
DWIDTH 11 0
BBX 8 10 1 0
BITMAP
00
18
24
42
81
81
81
81
81
FF
ENDCHAR
STARTCHAR revlogicalnot
ENCODING 8976
SWIDTH 611 0
DWIDTH 11 0
BBX 9 5 1 1
BITMAP
FF80
8000
8000
8000
8000
ENDCHAR
STARTCHAR integraltp
ENCODING 8992
SWIDTH 611 0
DWIDTH 11 0
BBX 4 20 5 -5
BITMAP
70
B0
80
80
80
80
80
80
80
80
80
80
80
80
80
80
80
80
80
80
ENDCHAR
STARTCHAR integralbt
ENCODING 8993
SWIDTH 611 0
DWIDTH 11 0
BBX 4 20 2 -5
BITMAP
10
10
10
10
10
10
10
10
10
10
10
10
10
10
10
10
10
10
D0
E0
ENDCHAR
STARTCHAR SF100000
ENCODING 9472
SWIDTH 722 0
DWIDTH 13 0
BBX 13 1 0 5
BITMAP
FFF8
ENDCHAR
STARTCHAR SF110000
ENCODING 9474
SWIDTH 611 0
DWIDTH 11 0
BBX 1 21 6 -5
BITMAP
80
80
80
80
80
80
80
80
80
80
80
80
80
80
80
80
80
80
80
80
80
ENDCHAR
STARTCHAR SF010000
ENCODING 9484
SWIDTH 722 0
DWIDTH 13 0
BBX 7 11 6 -5
BITMAP
FE
80
80
80
80
80
80
80
80
80
80
ENDCHAR
STARTCHAR SF030000
ENCODING 9488
SWIDTH 722 0
DWIDTH 13 0
BBX 7 11 0 -5
BITMAP
FE
02
02
02
02
02
02
02
02
02
02
ENDCHAR
STARTCHAR SF020000
ENCODING 9492
SWIDTH 722 0
DWIDTH 13 0
BBX 7 11 6 5
BITMAP
80
80
80
80
80
80
80
80
80
80
FE
ENDCHAR
STARTCHAR SF040000
ENCODING 9496
SWIDTH 722 0
DWIDTH 13 0
BBX 7 11 0 5
BITMAP
02
02
02
02
02
02
02
02
02
02
FE
ENDCHAR
STARTCHAR SF080000
ENCODING 9500
SWIDTH 722 0
DWIDTH 13 0
BBX 7 21 6 -5
BITMAP
80
80
80
80
80
80
80
80
80
80
FE
80
80
80
80
80
80
80
80
80
80
ENDCHAR
STARTCHAR SF090000
ENCODING 9508
SWIDTH 722 0
DWIDTH 13 0
BBX 7 21 0 -5
BITMAP
02
02
02
02
02
02
02
02
02
02
FE
02
02
02
02
02
02
02
02
02
02
ENDCHAR
STARTCHAR SF060000
ENCODING 9516
SWIDTH 722 0
DWIDTH 13 0
BBX 13 11 0 -5
BITMAP
FFF8
0200
0200
0200
0200
0200
0200
0200
0200
0200
0200
ENDCHAR
STARTCHAR SF070000
ENCODING 9524
SWIDTH 722 0
DWIDTH 13 0
BBX 13 11 0 5
BITMAP
0200
0200
0200
0200
0200
0200
0200
0200
0200
0200
FFF8
ENDCHAR
STARTCHAR SF050000
ENCODING 9532
SWIDTH 722 0
DWIDTH 13 0
BBX 13 21 0 -5
BITMAP
0200
0200
0200
0200
0200
0200
0200
0200
0200
0200
FFF8
0200
0200
0200
0200
0200
0200
0200
0200
0200
0200
ENDCHAR
STARTCHAR SF430000
ENCODING 9552
SWIDTH 722 0
DWIDTH 13 0
BBX 13 4 0 4
BITMAP
FFF8
0000
0000
FFF8
ENDCHAR
STARTCHAR SF240000
ENCODING 9553
SWIDTH 722 0
DWIDTH 13 0
BBX 4 21 4 -5
BITMAP
90
90
90
90
90
90
90
90
90
90
90
90
90
90
90
90
90
90
90
90
90
ENDCHAR
STARTCHAR SF510000
ENCODING 9554
SWIDTH 722 0
DWIDTH 13 0
BBX 7 13 6 -5
BITMAP
FE
80
80
FE
80
80
80
80
80
80
80
80
80
ENDCHAR
STARTCHAR SF520000
ENCODING 9555
SWIDTH 722 0
DWIDTH 13 0
BBX 9 11 4 -5
BITMAP
FF80
9000
9000
9000
9000
9000
9000
9000
9000
9000
9000
ENDCHAR
STARTCHAR SF390000
ENCODING 9556
SWIDTH 722 0
DWIDTH 13 0
BBX 9 13 4 -5
BITMAP
FF80
8000
8000
9F80
9000
9000
9000
9000
9000
9000
9000
9000
9000
ENDCHAR
STARTCHAR SF220000
ENCODING 9557
SWIDTH 722 0
DWIDTH 13 0
BBX 7 13 0 -5
BITMAP
FE
02
02
FE
02
02
02
02
02
02
02
02
02
ENDCHAR
STARTCHAR SF210000
ENCODING 9558
SWIDTH 722 0
DWIDTH 13 0
BBX 8 11 0 -5
BITMAP
FF
09
09
09
09
09
09
09
09
09
09
ENDCHAR
STARTCHAR SF250000
ENCODING 9559
SWIDTH 722 0
DWIDTH 13 0
BBX 8 13 0 -5
BITMAP
FF
01
01
F9
09
09
09
09
09
09
09
09
09
ENDCHAR
STARTCHAR SF500000
ENCODING 9560
SWIDTH 722 0
DWIDTH 13 0
BBX 7 12 6 4
BITMAP
80
80
80
80
80
80
80
80
FE
80
80
FE
ENDCHAR
STARTCHAR SF490000
ENCODING 9561
SWIDTH 722 0
DWIDTH 13 0
BBX 9 11 4 5
BITMAP
9000
9000
9000
9000
9000
9000
9000
9000
9000
9000
FF80
ENDCHAR
STARTCHAR SF380000
ENCODING 9562
SWIDTH 722 0
DWIDTH 13 0
BBX 9 12 4 4
BITMAP
9000
9000
9000
9000
9000
9000
9000
9000
9F80
8000
8000
FF80
ENDCHAR
STARTCHAR SF280000
ENCODING 9563
SWIDTH 722 0
DWIDTH 13 0
BBX 7 12 0 4
BITMAP
02
02
02
02
02
02
02
02
FE
02
02
FE
ENDCHAR
STARTCHAR SF270000
ENCODING 9564
SWIDTH 722 0
DWIDTH 13 0
BBX 8 11 0 5
BITMAP
09
09
09
09
09
09
09
09
09
09
FF
ENDCHAR
STARTCHAR SF260000
ENCODING 9565
SWIDTH 722 0
DWIDTH 13 0
BBX 8 12 0 4
BITMAP
09
09
09
09
09
09
09
09
F9
01
01
FF
ENDCHAR
STARTCHAR SF360000
ENCODING 9566
SWIDTH 722 0
DWIDTH 13 0
BBX 7 21 6 -5
BITMAP
80
80
80
80
80
80
80
80
FE
80
80
FE
80
80
80
80
80
80
80
80
80
ENDCHAR
STARTCHAR SF370000
ENCODING 9567
SWIDTH 722 0
DWIDTH 13 0
BBX 9 21 4 -5
BITMAP
9000
9000
9000
9000
9000
9000
9000
9000
9000
9000
9F80
9000
9000
9000
9000
9000
9000
9000
9000
9000
9000
ENDCHAR
STARTCHAR SF420000
ENCODING 9568
SWIDTH 722 0
DWIDTH 13 0
BBX 9 21 4 -5
BITMAP
9000
9000
9000
9000
9000
9000
9000
9000
9F80
8000
8000
9F80
9000
9000
9000
9000
9000
9000
9000
9000
9000
ENDCHAR
STARTCHAR SF190000
ENCODING 9569
SWIDTH 722 0
DWIDTH 13 0
BBX 7 21 0 -5
BITMAP
02
02
02
02
02
02
02
02
FE
02
02
FE
02
02
02
02
02
02
02
02
02
ENDCHAR
STARTCHAR SF200000
ENCODING 9570
SWIDTH 722 0
DWIDTH 13 0
BBX 8 21 0 -5
BITMAP
09
09
09
09
09
09
09
09
09
09
F9
09
09
09
09
09
09
09
09
09
09
ENDCHAR
STARTCHAR SF230000
ENCODING 9571
SWIDTH 722 0
DWIDTH 13 0
BBX 8 21 0 -5
BITMAP
09
09
09
09
09
09
09
09
F9
01
01
F9
09
09
09
09
09
09
09
09
09
ENDCHAR
STARTCHAR SF470000
ENCODING 9572
SWIDTH 722 0
DWIDTH 13 0
BBX 13 13 0 -5
BITMAP
FFF8
0000
0000
FFF8
0200
0200
0200
0200
0200
0200
0200
0200
0200
ENDCHAR
STARTCHAR SF480000
ENCODING 9573
SWIDTH 722 0
DWIDTH 13 0
BBX 13 11 0 -5
BITMAP
FFF8
0900
0900
0900
0900
0900
0900
0900
0900
0900
0900
ENDCHAR
STARTCHAR SF410000
ENCODING 9574
SWIDTH 722 0
DWIDTH 13 0
BBX 13 13 0 -5
BITMAP
FFF8
0000
0000
F9F8
0900
0900
0900
0900
0900
0900
0900
0900
0900
ENDCHAR
STARTCHAR SF450000
ENCODING 9575
SWIDTH 722 0
DWIDTH 13 0
BBX 13 12 0 4
BITMAP
0200
0200
0200
0200
0200
0200
0200
0200
FFF8
0000
0000
FFF8
ENDCHAR
STARTCHAR SF460000
ENCODING 9576
SWIDTH 722 0
DWIDTH 13 0
BBX 13 11 0 5
BITMAP
0900
0900
0900
0900
0900
0900
0900
0900
0900
0900
FFF8
ENDCHAR
STARTCHAR SF400000
ENCODING 9577
SWIDTH 722 0
DWIDTH 13 0
BBX 13 12 0 4
BITMAP
0900
0900
0900
0900
0900
0900
0900
0900
F9F8
0000
0000
FFF8
ENDCHAR
STARTCHAR SF540000
ENCODING 9578
SWIDTH 722 0
DWIDTH 13 0
BBX 13 21 0 -5
BITMAP
0200
0200
0200
0200
0200
0200
0200
0200
FFF8
0200
0200
FFF8
0200
0200
0200
0200
0200
0200
0200
0200
0200
ENDCHAR
STARTCHAR SF530000
ENCODING 9579
SWIDTH 722 0
DWIDTH 13 0
BBX 13 21 0 -5
BITMAP
0900
0900
0900
0900
0900
0900
0900
0900
0900
0900
FFF8
0900
0900
0900
0900
0900
0900
0900
0900
0900
0900
ENDCHAR
STARTCHAR SF440000
ENCODING 9580
SWIDTH 722 0
DWIDTH 13 0
BBX 13 21 0 -5
BITMAP
0900
0900
0900
0900
0900
0900
0900
0900
F9F8
0000
0000
F9F8
0900
0900
0900
0900
0900
0900
0900
0900
0900
ENDCHAR
STARTCHAR upblock
ENCODING 9600
SWIDTH 722 0
DWIDTH 13 0
BBX 13 11 0 5
BITMAP
FFF8
FFF8
FFF8
FFF8
FFF8
FFF8
FFF8
FFF8
FFF8
FFF8
FFF8
ENDCHAR
STARTCHAR dnblock
ENCODING 9604
SWIDTH 722 0
DWIDTH 13 0
BBX 13 10 0 -5
BITMAP
FFF8
FFF8
FFF8
FFF8
FFF8
FFF8
FFF8
FFF8
FFF8
FFF8
ENDCHAR
STARTCHAR block
ENCODING 9608
SWIDTH 722 0
DWIDTH 13 0
BBX 13 21 0 -5
BITMAP
FFF8
FFF8
FFF8
FFF8
FFF8
FFF8
FFF8
FFF8
FFF8
FFF8
FFF8
FFF8
FFF8
FFF8
FFF8
FFF8
FFF8
FFF8
FFF8
FFF8
FFF8
ENDCHAR
STARTCHAR lfblock
ENCODING 9612
SWIDTH 722 0
DWIDTH 13 0
BBX 6 21 0 -5
BITMAP
FC
FC
FC
FC
FC
FC
FC
FC
FC
FC
FC
FC
FC
FC
FC
FC
FC
FC
FC
FC
FC
ENDCHAR
STARTCHAR rtblock
ENCODING 9616
SWIDTH 722 0
DWIDTH 13 0
BBX 7 21 6 -5
BITMAP
FE
FE
FE
FE
FE
FE
FE
FE
FE
FE
FE
FE
FE
FE
FE
FE
FE
FE
FE
FE
FE
ENDCHAR
STARTCHAR ltshade
ENCODING 9617
SWIDTH 722 0
DWIDTH 13 0
BBX 12 20 1 -5
BITMAP
8910
0000
2240
8910
0000
2240
0000
8910
0000
2240
8910
0000
2240
0000
8910
0000
2240
8910
0000
2240
ENDCHAR
STARTCHAR shade
ENCODING 9618
SWIDTH 722 0
DWIDTH 13 0
BBX 13 20 0 -5
BITMAP
52A8
0000
AD50
52A8
0000
AD50
0000
52A8
0000
0000
52A8
0000
AD50
0000
52A8
AD50
0000
52A8
0000
AD50
ENDCHAR
STARTCHAR dkshade
ENCODING 9619
SWIDTH 722 0
DWIDTH 13 0
BBX 13 20 0 -5
BITMAP
55A8
FFF8
AB50
55A8
FFF8
AB50
FFF8
55A8
FFF8
FFF8
55A8
FFF8
AB50
FFF8
FFF8
AB50
FFF8
55A8
FFF8
FFF0
ENDCHAR
STARTCHAR filledbox
ENCODING 9632
SWIDTH 611 0
DWIDTH 11 0
BBX 9 9 1 1
BITMAP
FF80
FF80
FF80
FF80
FF80
FF80
FF80
FF80
FF80
ENDCHAR
STARTCHAR H22073
ENCODING 9633
SWIDTH 611 0
DWIDTH 11 0
BBX 11 11 0 0
BITMAP
FFE0
8020
8020
8020
8020
8020
8020
8020
8020
8020
FFE0
ENDCHAR
STARTCHAR H18543
ENCODING 9642
SWIDTH 333 0
DWIDTH 6 0
BBX 4 4 1 4
BITMAP
F0
F0
F0
F0
ENDCHAR
STARTCHAR H18551
ENCODING 9643
SWIDTH 333 0
DWIDTH 6 0
BBX 4 4 1 4
BITMAP
F0
90
90
F0
ENDCHAR
STARTCHAR filledrect
ENCODING 9644
SWIDTH 1000 0
DWIDTH 18 0
BBX 18 5 0 0
BITMAP
FFFFC0
FFFFC0
FFFFC0
FFFFC0
FFFFC0
ENDCHAR
STARTCHAR triagup
ENCODING 9650
SWIDTH 1000 0
DWIDTH 18 0
BBX 10 11 4 0
BITMAP
0000
0800
0C00
1C00
1E00
3E00
3F00
7F00
7F80
FF80
FFC0
ENDCHAR
STARTCHAR triagrt
ENCODING 9658
SWIDTH 1000 0
DWIDTH 18 0
BBX 10 11 4 0
BITMAP
0000
C000
F000
FC00
FF00
FFC0
FF80
FE00
F800
E000
8000
ENDCHAR
STARTCHAR triagdn
ENCODING 9660
SWIDTH 1000 0
DWIDTH 18 0
BBX 10 10 4 0
BITMAP
FFC0
7F80
7F80
3F00
3F00
1E00
1E00
0C00
0C00
0000
ENDCHAR
STARTCHAR triaglf
ENCODING 9668
SWIDTH 1000 0
DWIDTH 18 0
BBX 10 11 4 0
BITMAP
0000
00C0
03C0
0FC0
3FC0
FFC0
7FC0
1FC0
07C0
01C0
0040
ENDCHAR
STARTCHAR lozenge
ENCODING 9674
SWIDTH 500 0
DWIDTH 9 0
BBX 8 13 1 0
BITMAP
18
18
24
24
42
42
81
42
42
24
24
18
18
ENDCHAR
STARTCHAR circle
ENCODING 9675
SWIDTH 611 0
DWIDTH 11 0
BBX 8 8 1 1
BITMAP
3C
42
81
81
81
81
42
3C
ENDCHAR
STARTCHAR H18533
ENCODING 9679
SWIDTH 611 0
DWIDTH 11 0
BBX 8 8 2 1
BITMAP
3C
7E
FF
FF
FF
FF
7E
3C
ENDCHAR
STARTCHAR invbullet
ENCODING 9688
SWIDTH 611 0
DWIDTH 11 0
BBX 10 10 0 0
BITMAP
FFC0
E1C0
C0C0
8040
8040
8040
8040
C0C0
E1C0
FFC0
ENDCHAR
STARTCHAR invcircle
ENCODING 9689
SWIDTH 611 0
DWIDTH 11 0
BBX 10 10 0 0
BITMAP
FFC0
E1C0
DEC0
BF40
BF40
BF40
BF40
DEC0
E1C0
FFC0
ENDCHAR
STARTCHAR openbullet
ENCODING 9702
SWIDTH 333 0
DWIDTH 6 0
BBX 4 4 1 4
BITMAP
60
90
90
60
ENDCHAR
STARTCHAR smileface
ENCODING 9786
SWIDTH 1000 0
DWIDTH 18 0
BBX 11 11 4 0
BITMAP
1F00
2080
4040
8020
9120
8020
8020
9120
4E40
2080
1F00
ENDCHAR
STARTCHAR invsmileface
ENCODING 9787
SWIDTH 1056 0
DWIDTH 19 0
BBX 11 11 4 0
BITMAP
1F00
3F80
7FC0
FFE0
EEE0
FFE0
FFE0
EEE0
71C0
3F80
1F00
ENDCHAR
STARTCHAR sun
ENCODING 9788
SWIDTH 944 0
DWIDTH 17 0
BBX 11 11 3 -1
BITMAP
0400
4440
2E80
1100
2080
E0E0
2080
1100
2E80
4440
0400
ENDCHAR
STARTCHAR female
ENCODING 9792
SWIDTH 778 0
DWIDTH 14 0
BBX 5 9 4 1
BITMAP
70
88
88
88
70
20
F8
20
20
ENDCHAR
STARTCHAR male
ENCODING 9794
SWIDTH 778 0
DWIDTH 14 0
BBX 7 8 3 2
BITMAP
06
06
0A
70
88
88
88
70
ENDCHAR
STARTCHAR spade
ENCODING 9824
SWIDTH 556 0
DWIDTH 10 0
BBX 8 11 1 0
BITMAP
00
08
18
3C
7E
FF
FF
FF
6E
08
3C
ENDCHAR
STARTCHAR club
ENCODING 9827
SWIDTH 667 0
DWIDTH 12 0
BBX 10 11 1 0
BITMAP
0C00
1E00
1E00
1E00
7F80
FFC0
FFC0
FFC0
7B80
0C00
1E00
ENDCHAR
STARTCHAR heart
ENCODING 9829
SWIDTH 611 0
DWIDTH 11 0
BBX 9 10 1 0
BITMAP
7700
F780
FF80
FF80
7F00
3E00
1C00
1C00
0800
0800
ENDCHAR
STARTCHAR diamond
ENCODING 9830
SWIDTH 500 0
DWIDTH 9 0
BBX 9 11 0 0
BITMAP
0800
0800
1C00
3E00
7F00
FF80
7F00
3E00
1C00
0800
0800
ENDCHAR
STARTCHAR musicalnote
ENCODING 9834
SWIDTH 500 0
DWIDTH 9 0
BBX 6 10 1 0
BITMAP
10
10
18
1C
14
14
14
74
F8
E0
ENDCHAR
STARTCHAR musicalnotedbl
ENCODING 9835
SWIDTH 778 0
DWIDTH 14 0
BBX 9 10 2 0
BITMAP
0180
3E80
2180
3F80
3080
2080
2080
E380
E380
C300
ENDCHAR
STARTCHAR uniF001
ENCODING 61441
SWIDTH 500 0
DWIDTH 9 0
BBX 9 13 1 0
BITMAP
1D80
3180
3000
FB80
6300
6300
6300
6300
6300
6300
C600
C600
C600
ENDCHAR
STARTCHAR uniF002
ENCODING 61442
SWIDTH 500 0
DWIDTH 9 0
BBX 9 13 1 0
BITMAP
1D80
3180
3180
FB00
6300
6300
6300
6300
6300
6300
C600
C600
C600
ENDCHAR
STARTCHAR uniF005
ENCODING 61445
SWIDTH 333 0
DWIDTH 6 0
BBX 3 3 1 -4
BITMAP
60
20
C0
ENDCHAR
STARTCHAR uniF001
ENCODING 64257
SWIDTH 500 0
DWIDTH 9 0
BBX 9 13 1 0
BITMAP
1D80
3180
3000
FB80
6300
6300
6300
6300
6300
6300
C600
C600
C600
ENDCHAR
STARTCHAR uniF002
ENCODING 64258
SWIDTH 500 0
DWIDTH 9 0
BBX 9 13 1 0
BITMAP
1D80
3180
3180
FB00
6300
6300
6300
6300
6300
6300
C600
C600
C600
ENDCHAR
ENDFONT
