STARTFONT 2.1
FONT -unknown-Standard-BoldItalic-R-Normal--12-120-75-75-P-0-ISO10646-1
SIZE 12 75 75
FONTBOUNDINGBOX 12 12 0 0
STARTPROPERTIES 5
FAMILY_NAME "Standard"
WEIGHT_NAME "BoldItalic"
PIXEL_SIZE 12
FONT_ASCENT 10
FONT_DESCENT 2
ENDPROPERTIES
CHARS 662
STARTCHAR space
ENCODING 32
SWIDTH 250 0
DWIDTH 3 0
BBX 0 0 0 0
BITMAP
ENDCHAR
STARTCHAR exclam
ENCODING 33
SWIDTH 333 0
DWIDTH 5 0
BBX 4 9 0 0
BITMAP
30
30
20
60
60
60
00
C0
C0
ENDCHAR
STARTCHAR quotedbl
ENCODING 34
SWIDTH 500 0
DWIDTH 6 0
BBX 5 3 0 6
BITMAP
D8
D8
90
ENDCHAR
STARTCHAR numbersign
ENCODING 35
SWIDTH 583 0
DWIDTH 7 0
BBX 6 9 0 0
BITMAP
24
24
FC
48
48
48
FC
90
90
ENDCHAR
STARTCHAR dollar
ENCODING 36
SWIDTH 583 0
DWIDTH 8 0
BBX 7 11 0 -1
BITMAP
08
3C
6E
68
70
38
1C
2C
EC
78
20
ENDCHAR
STARTCHAR percent
ENCODING 37
SWIDTH 917 0
DWIDTH 10 0
BBX 9 9 0 0
BITMAP
7100
9200
9200
B400
EB80
1480
1480
2580
4700
ENDCHAR
STARTCHAR ampersand
ENCODING 38
SWIDTH 750 0
DWIDTH 8 0
BBX 7 9 0 0
BITMAP
1C
34
34
38
72
D2
DC
DC
76
ENDCHAR
STARTCHAR quotesingle
ENCODING 39
SWIDTH 250 0
DWIDTH 3 0
BBX 2 3 0 6
BITMAP
C0
C0
80
ENDCHAR
STARTCHAR parenleft
ENCODING 40
SWIDTH 333 0
DWIDTH 6 0
BBX 5 12 0 -3
BITMAP
18
30
60
60
C0
C0
C0
C0
C0
C0
40
60
ENDCHAR
STARTCHAR parenright
ENCODING 41
SWIDTH 333 0
DWIDTH 6 0
BBX 5 12 0 -3
BITMAP
30
10
18
18
18
18
18
18
30
30
60
C0
ENDCHAR
STARTCHAR asterisk
ENCODING 42
SWIDTH 417 0
DWIDTH 6 0
BBX 5 4 0 5
BITMAP
20
F8
70
50
ENDCHAR
STARTCHAR plus
ENCODING 43
SWIDTH 583 0
DWIDTH 6 0
BBX 5 5 0 2
BITMAP
20
20
F8
20
20
ENDCHAR
STARTCHAR comma
ENCODING 44
SWIDTH 250 0
DWIDTH 3 0
BBX 2 4 0 -2
BITMAP
C0
C0
40
80
ENDCHAR
STARTCHAR hyphen
ENCODING 45
SWIDTH 333 0
DWIDTH 4 0
BBX 3 1 0 3
BITMAP
E0
ENDCHAR
STARTCHAR period
ENCODING 46
SWIDTH 250 0
DWIDTH 3 0
BBX 2 2 0 0
BITMAP
C0
C0
ENDCHAR
STARTCHAR slash
ENCODING 47
SWIDTH 250 0
DWIDTH 5 0
BBX 4 9 0 0
BITMAP
10
10
20
20
40
40
40
80
80
ENDCHAR
STARTCHAR zero
ENCODING 48
SWIDTH 583 0
DWIDTH 7 0
BBX 6 9 0 0
BITMAP
38
6C
4C
CC
CC
CC
C8
D8
70
ENDCHAR
STARTCHAR one
ENCODING 49
SWIDTH 583 0
DWIDTH 7 0
BBX 6 9 0 0
BITMAP
1C
3C
58
18
18
18
18
30
FC
ENDCHAR
STARTCHAR two
ENCODING 50
SWIDTH 583 0
DWIDTH 7 0
BBX 6 9 0 0
BITMAP
38
6C
0C
0C
18
30
60
C0
F8
ENDCHAR
STARTCHAR three
ENCODING 51
SWIDTH 583 0
DWIDTH 8 0
BBX 7 9 0 0
BITMAP
3C
66
06
04
38
0C
0C
CC
78
ENDCHAR
STARTCHAR four
ENCODING 52
SWIDTH 583 0
DWIDTH 8 0
BBX 7 9 0 0
BITMAP
0E
1E
1C
2C
6C
4C
FE
18
18
ENDCHAR
STARTCHAR five
ENCODING 53
SWIDTH 583 0
DWIDTH 8 0
BBX 7 9 0 0
BITMAP
3E
20
20
78
6C
0C
0C
CC
78
ENDCHAR
STARTCHAR six
ENCODING 54
SWIDTH 583 0
DWIDTH 7 0
BBX 6 9 0 0
BITMAP
38
6C
60
F8
CC
CC
CC
C8
70
ENDCHAR
STARTCHAR seven
ENCODING 55
SWIDTH 583 0
DWIDTH 7 0
BBX 6 9 0 0
BITMAP
FC
0C
18
30
30
60
60
C0
C0
ENDCHAR
STARTCHAR eight
ENCODING 56
SWIDTH 583 0
DWIDTH 7 0
BBX 6 9 0 0
BITMAP
38
6C
6C
6C
30
D8
D8
D8
70
ENDCHAR
STARTCHAR nine
ENCODING 57
SWIDTH 583 0
DWIDTH 8 0
BBX 7 9 0 0
BITMAP
1C
26
66
66
66
3E
0C
CC
78
ENDCHAR
STARTCHAR colon
ENCODING 58
SWIDTH 333 0
DWIDTH 5 0
BBX 4 7 0 0
BITMAP
60
60
00
00
00
C0
C0
ENDCHAR
STARTCHAR semicolon
ENCODING 59
SWIDTH 333 0
DWIDTH 5 0
BBX 4 9 0 -2
BITMAP
60
60
00
00
00
C0
C0
40
80
ENDCHAR
STARTCHAR less
ENCODING 60
SWIDTH 583 0
DWIDTH 7 0
BBX 6 5 0 2
BITMAP
0C
70
80
70
0C
ENDCHAR
STARTCHAR equal
ENCODING 61
SWIDTH 583 0
DWIDTH 7 0
BBX 6 3 0 3
BITMAP
FC
00
FC
ENDCHAR
STARTCHAR greater
ENCODING 62
SWIDTH 583 0
DWIDTH 7 0
BBX 6 5 0 2
BITMAP
C0
38
04
38
C0
ENDCHAR
STARTCHAR question
ENCODING 63
SWIDTH 583 0
DWIDTH 7 0
BBX 6 9 0 0
BITMAP
78
CC
0C
1C
18
30
00
60
60
ENDCHAR
STARTCHAR at
ENCODING 64
SWIDTH 917 0
DWIDTH 11 0
BBX 10 11 0 -2
BITMAP
1F00
2080
4040
DD40
B240
A240
A680
9B80
C000
6100
3E00
ENDCHAR
STARTCHAR A
ENCODING 65
SWIDTH 750 0
DWIDTH 9 0
BBX 8 9 0 0
BITMAP
0E
0A
1A
1B
33
3F
63
63
C3
ENDCHAR
STARTCHAR B
ENCODING 66
SWIDTH 667 0
DWIDTH 9 0
BBX 8 9 0 0
BITMAP
3E
33
63
63
7E
63
63
C3
FE
ENDCHAR
STARTCHAR C
ENCODING 67
SWIDTH 750 0
DWIDTH 9 0
BBX 8 9 0 0
BITMAP
1E
63
60
C0
C0
C0
C0
66
7C
ENDCHAR
STARTCHAR D
ENCODING 68
SWIDTH 750 0
DWIDTH 10 0
BBX 9 9 0 0
BITMAP
3E00
3300
6180
6180
6180
6180
6300
C700
FC00
ENDCHAR
STARTCHAR E
ENCODING 69
SWIDTH 667 0
DWIDTH 9 0
BBX 8 9 0 0
BITMAP
3F
30
60
60
7E
60
60
C0
FE
ENDCHAR
STARTCHAR F
ENCODING 70
SWIDTH 583 0
DWIDTH 8 0
BBX 7 9 0 0
BITMAP
3E
30
60
60
7C
60
60
C0
C0
ENDCHAR
STARTCHAR G
ENCODING 71
SWIDTH 750 0
DWIDTH 9 0
BBX 8 9 0 0
BITMAP
1E
63
60
C0
C0
CE
C6
CC
78
ENDCHAR
STARTCHAR H
ENCODING 72
SWIDTH 750 0
DWIDTH 11 0
BBX 10 9 0 0
BITMAP
30C0
30C0
6180
6180
7F80
6180
6180
C300
C300
ENDCHAR
STARTCHAR I
ENCODING 73
SWIDTH 250 0
DWIDTH 5 0
BBX 4 9 0 0
BITMAP
30
30
60
60
60
60
60
C0
C0
ENDCHAR
STARTCHAR J
ENCODING 74
SWIDTH 500 0
DWIDTH 8 0
BBX 7 9 0 0
BITMAP
1E
06
0C
0C
0C
0C
0C
D8
70
ENDCHAR
STARTCHAR K
ENCODING 75
SWIDTH 750 0
DWIDTH 11 0
BBX 10 9 0 0
BITMAP
3180
3300
6600
6C00
7C00
6C00
6600
C600
C300
ENDCHAR
STARTCHAR L
ENCODING 76
SWIDTH 583 0
DWIDTH 7 0
BBX 6 9 0 0
BITMAP
30
30
60
60
60
60
60
C0
FC
ENDCHAR
STARTCHAR M
ENCODING 77
SWIDTH 917 0
DWIDTH 13 0
BBX 12 9 0 0
BITMAP
3870
38F0
68E0
69E0
6960
6A60
6A60
CCC0
CCC0
ENDCHAR
STARTCHAR N
ENCODING 78
SWIDTH 750 0
DWIDTH 11 0
BBX 10 9 0 0
BITMAP
38C0
38C0
6980
6980
6D80
6580
6580
C700
C700
ENDCHAR
STARTCHAR O
ENCODING 79
SWIDTH 750 0
DWIDTH 9 0
BBX 8 9 0 0
BITMAP
3E
66
63
C3
C3
C3
C6
66
3C
ENDCHAR
STARTCHAR P
ENCODING 80
SWIDTH 667 0
DWIDTH 9 0
BBX 8 9 0 0
BITMAP
3E
33
63
63
7E
60
60
C0
C0
ENDCHAR
STARTCHAR Q
ENCODING 81
SWIDTH 750 0
DWIDTH 9 0
BBX 8 11 0 -2
BITMAP
3E
66
63
C3
C3
C3
C6
66
7C
18
0E
ENDCHAR
STARTCHAR R
ENCODING 82
SWIDTH 750 0
DWIDTH 10 0
BBX 9 9 0 0
BITMAP
3F00
3180
6180
6180
7E00
6600
6600
C300
C300
ENDCHAR
STARTCHAR S
ENCODING 83
SWIDTH 667 0
DWIDTH 8 0
BBX 7 9 0 0
BITMAP
3C
66
60
70
38
0C
0C
CC
78
ENDCHAR
STARTCHAR T
ENCODING 84
SWIDTH 583 0
DWIDTH 9 0
BBX 8 9 0 0
BITMAP
FF
18
30
30
30
30
30
60
60
ENDCHAR
STARTCHAR U
ENCODING 85
SWIDTH 750 0
DWIDTH 10 0
BBX 9 9 0 0
BITMAP
6180
6180
C300
C300
C300
C300
C300
C600
7C00
ENDCHAR
STARTCHAR V
ENCODING 86
SWIDTH 750 0
DWIDTH 9 0
BBX 8 9 0 0
BITMAP
C3
C6
C6
CC
CC
58
58
50
70
ENDCHAR
STARTCHAR W
ENCODING 87
SWIDTH 1000 0
DWIDTH 12 0
BBX 11 9 0 0
BITMAP
CC60
CC40
CCC0
D4C0
D480
D580
E500
E700
E600
ENDCHAR
STARTCHAR X
ENCODING 88
SWIDTH 667 0
DWIDTH 10 0
BBX 9 9 0 0
BITMAP
3180
1300
1E00
1C00
0800
1C00
3C00
6400
C600
ENDCHAR
STARTCHAR Y
ENCODING 89
SWIDTH 667 0
DWIDTH 9 0
BBX 8 9 0 0
BITMAP
C3
66
6C
78
30
30
30
60
60
ENDCHAR
STARTCHAR Z
ENCODING 90
SWIDTH 583 0
DWIDTH 9 0
BBX 8 9 0 0
BITMAP
3F
06
0E
0C
18
30
60
60
FC
ENDCHAR
STARTCHAR bracketleft
ENCODING 91
SWIDTH 333 0
DWIDTH 8 0
BBX 7 12 0 -3
BITMAP
1E
18
30
30
30
30
30
60
60
60
60
F0
ENDCHAR
STARTCHAR backslash
ENCODING 92
SWIDTH 250 0
DWIDTH 3 0
BBX 2 9 0 0
BITMAP
80
80
80
80
80
40
40
40
40
ENDCHAR
STARTCHAR bracketright
ENCODING 93
SWIDTH 333 0
DWIDTH 7 0
BBX 6 12 0 -3
BITMAP
3C
0C
18
18
18
18
18
30
30
30
30
E0
ENDCHAR
STARTCHAR asciicircum
ENCODING 94
SWIDTH 583 0
DWIDTH 8 0
BBX 7 5 0 4
BITMAP
38
28
6C
44
C6
ENDCHAR
STARTCHAR underscore
ENCODING 95
SWIDTH 583 0
DWIDTH 9 0
BBX 8 1 0 -2
BITMAP
FF
ENDCHAR
STARTCHAR grave
ENCODING 96
SWIDTH 333 0
DWIDTH 4 0
BBX 3 2 0 7
BITMAP
C0
60
ENDCHAR
STARTCHAR a
ENCODING 97
SWIDTH 583 0
DWIDTH 7 0
BBX 6 7 0 0
BITMAP
3C
6C
0C
7C
C8
D8
EC
ENDCHAR
STARTCHAR b
ENCODING 98
SWIDTH 583 0
DWIDTH 8 0
BBX 7 9 0 0
BITMAP
30
30
6C
76
66
66
66
EC
DC
ENDCHAR
STARTCHAR c
ENCODING 99
SWIDTH 583 0
DWIDTH 7 0
BBX 6 7 0 0
BITMAP
38
6C
C0
C0
C0
D8
70
ENDCHAR
STARTCHAR d
ENCODING 100
SWIDTH 583 0
DWIDTH 8 0
BBX 7 9 0 0
BITMAP
06
06
7C
4C
CC
CC
C8
D8
78
ENDCHAR
STARTCHAR e
ENCODING 101
SWIDTH 583 0
DWIDTH 7 0
BBX 6 7 0 0
BITMAP
38
6C
CC
FC
C0
D8
70
ENDCHAR
STARTCHAR f
ENCODING 102
SWIDTH 333 0
DWIDTH 6 0
BBX 5 9 0 0
BITMAP
38
30
78
60
60
60
60
C0
C0
ENDCHAR
STARTCHAR g
ENCODING 103
SWIDTH 583 0
DWIDTH 8 0
BBX 7 10 0 -3
BITMAP
7C
4C
CC
CC
CC
D8
78
18
D8
70
ENDCHAR
STARTCHAR h
ENCODING 104
SWIDTH 583 0
DWIDTH 8 0
BBX 7 9 0 0
BITMAP
30
30
6E
76
66
66
66
CC
CC
ENDCHAR
STARTCHAR i
ENCODING 105
SWIDTH 250 0
DWIDTH 5 0
BBX 4 9 0 0
BITMAP
30
00
60
60
60
60
60
C0
C0
ENDCHAR
STARTCHAR j
ENCODING 106
SWIDTH 250 0
DWIDTH 7 0
BBX 6 12 0 -3
BITMAP
0C
00
18
18
18
18
18
30
30
30
30
E0
ENDCHAR
STARTCHAR k
ENCODING 107
SWIDTH 583 0
DWIDTH 8 0
BBX 7 9 0 0
BITMAP
30
30
66
6C
78
78
78
C8
CC
ENDCHAR
STARTCHAR l
ENCODING 108
SWIDTH 250 0
DWIDTH 5 0
BBX 4 9 0 0
BITMAP
30
30
60
60
60
60
60
C0
C0
ENDCHAR
STARTCHAR m
ENCODING 109
SWIDTH 917 0
DWIDTH 11 0
BBX 10 6 0 0
BITMAP
7DC0
66C0
64C0
4CC0
CCC0
CC80
ENDCHAR
STARTCHAR n
ENCODING 110
SWIDTH 583 0
DWIDTH 8 0
BBX 7 7 0 0
BITMAP
6E
76
66
66
66
CC
CC
ENDCHAR
STARTCHAR o
ENCODING 111
SWIDTH 583 0
DWIDTH 7 0
BBX 6 7 0 0
BITMAP
38
4C
CC
CC
CC
C8
70
ENDCHAR
STARTCHAR p
ENCODING 112
SWIDTH 583 0
DWIDTH 9 0
BBX 8 10 0 -3
BITMAP
3E
33
33
33
33
76
6E
60
60
C0
ENDCHAR
STARTCHAR q
ENCODING 113
SWIDTH 667 0
DWIDTH 9 0
BBX 8 10 0 -3
BITMAP
3E
66
C6
C6
C6
CC
7C
0C
0C
18
ENDCHAR
STARTCHAR r
ENCODING 114
SWIDTH 417 0
DWIDTH 7 0
BBX 6 7 0 0
BITMAP
7C
70
60
60
60
C0
C0
ENDCHAR
STARTCHAR s
ENCODING 115
SWIDTH 583 0
DWIDTH 8 0
BBX 7 7 0 0
BITMAP
3C
66
60
7C
0C
CC
78
ENDCHAR
STARTCHAR t
ENCODING 116
SWIDTH 333 0
DWIDTH 6 0
BBX 5 8 0 0
BITMAP
30
78
60
60
60
60
C0
60
ENDCHAR
STARTCHAR u
ENCODING 117
SWIDTH 583 0
DWIDTH 9 0
BBX 8 7 0 0
BITMAP
66
66
66
66
66
6C
7C
ENDCHAR
STARTCHAR v
ENCODING 118
SWIDTH 583 0
DWIDTH 7 0
BBX 6 6 0 0
BITMAP
8C
D8
D8
F0
E0
60
ENDCHAR
STARTCHAR w
ENCODING 119
SWIDTH 833 0
DWIDTH 11 0
BBX 10 7 0 0
BITMAP
CCC0
CD80
D580
D500
D700
6600
6600
ENDCHAR
STARTCHAR x
ENCODING 120
SWIDTH 500 0
DWIDTH 7 0
BBX 6 7 0 0
BITMAP
64
68
30
30
30
58
98
ENDCHAR
STARTCHAR y
ENCODING 121
SWIDTH 583 0
DWIDTH 9 0
BBX 8 10 0 -3
BITMAP
63
66
66
2C
2C
38
30
30
60
C0
ENDCHAR
STARTCHAR z
ENCODING 122
SWIDTH 500 0
DWIDTH 7 0
BBX 6 7 0 0
BITMAP
7C
18
18
30
60
60
F8
ENDCHAR
STARTCHAR braceleft
ENCODING 123
SWIDTH 417 0
DWIDTH 7 0
BBX 6 12 0 -3
BITMAP
1C
18
30
30
30
C0
60
60
60
60
60
70
ENDCHAR
STARTCHAR bar
ENCODING 124
SWIDTH 250 0
DWIDTH 2 0
BBX 1 12 0 -3
BITMAP
80
80
80
80
80
80
80
80
80
80
80
80
ENDCHAR
STARTCHAR braceright
ENCODING 125
SWIDTH 417 0
DWIDTH 7 0
BBX 6 12 0 -3
BITMAP
18
0C
18
18
18
0C
18
30
30
30
30
E0
ENDCHAR
STARTCHAR asciitilde
ENCODING 126
SWIDTH 583 0
DWIDTH 7 0
BBX 6 2 0 3
BITMAP
E0
1C
ENDCHAR
STARTCHAR space
ENCODING 160
SWIDTH 250 0
DWIDTH 3 0
BBX 0 0 0 0
BITMAP
ENDCHAR
STARTCHAR exclamdown
ENCODING 161
SWIDTH 333 0
DWIDTH 5 0
BBX 4 9 0 -2
BITMAP
60
60
00
60
40
C0
C0
C0
C0
ENDCHAR
STARTCHAR cent
ENCODING 162
SWIDTH 583 0
DWIDTH 9 0
BBX 8 6 0 0
BITMAP
04
3F
7D
78
7E
18
ENDCHAR
STARTCHAR sterling
ENCODING 163
SWIDTH 583 0
DWIDTH 8 0
BBX 7 9 0 0
BITMAP
1C
1A
30
30
78
30
30
66
FC
ENDCHAR
STARTCHAR currency
ENCODING 164
SWIDTH 583 0
DWIDTH 6 0
BBX 5 5 0 2
BITMAP
F8
88
88
88
F8
ENDCHAR
STARTCHAR yen
ENCODING 165
SWIDTH 583 0
DWIDTH 9 0
BBX 8 9 0 0
BITMAP
63
66
36
3C
38
7E
18
FC
30
ENDCHAR
STARTCHAR brokenbar
ENCODING 166
SWIDTH 250 0
DWIDTH 2 0
BBX 1 12 0 -3
BITMAP
80
80
80
80
80
00
00
80
80
80
80
80
ENDCHAR
STARTCHAR section
ENCODING 167
SWIDTH 583 0
DWIDTH 8 0
BBX 7 10 0 -1
BITMAP
1C
32
30
3C
6C
6C
78
18
98
70
ENDCHAR
STARTCHAR dieresis
ENCODING 168
SWIDTH 333 0
DWIDTH 6 0
BBX 5 1 0 7
BITMAP
D8
ENDCHAR
STARTCHAR copyright
ENCODING 169
SWIDTH 833 0
DWIDTH 10 0
BBX 9 9 0 0
BITMAP
3E00
6300
DD80
A280
A080
A280
DD80
6300
3E00
ENDCHAR
STARTCHAR ordfeminine
ENCODING 170
SWIDTH 333 0
DWIDTH 6 0
BBX 5 5 0 4
BITMAP
70
10
F0
90
F8
ENDCHAR
STARTCHAR guillemotleft
ENCODING 171
SWIDTH 583 0
DWIDTH 6 0
BBX 5 5 0 1
BITMAP
28
50
A0
A0
50
ENDCHAR
STARTCHAR logicalnot
ENCODING 172
SWIDTH 583 0
DWIDTH 6 0
BBX 5 4 0 1
BITMAP
F8
08
08
08
ENDCHAR
STARTCHAR hyphen
ENCODING 173
SWIDTH 333 0
DWIDTH 4 0
BBX 3 1 0 3
BITMAP
E0
ENDCHAR
STARTCHAR registered
ENCODING 174
SWIDTH 833 0
DWIDTH 10 0
BBX 9 9 0 0
BITMAP
3E00
6300
DD80
9480
9C80
9880
D580
6300
3E00
ENDCHAR
STARTCHAR macron
ENCODING 175
SWIDTH 583 0
DWIDTH 8 0
BBX 7 1 0 8
BITMAP
FE
ENDCHAR
STARTCHAR degree
ENCODING 176
SWIDTH 417 0
DWIDTH 5 0
BBX 4 4 0 5
BITMAP
60
90
90
60
ENDCHAR
STARTCHAR plusminus
ENCODING 177
SWIDTH 583 0
DWIDTH 6 0
BBX 5 7 0 0
BITMAP
20
20
F8
20
20
00
F8
ENDCHAR
STARTCHAR uni00B2
ENCODING 178
SWIDTH 333 0
DWIDTH 5 0
BBX 4 5 0 4
BITMAP
70
50
20
40
F0
ENDCHAR
STARTCHAR uni00B3
ENCODING 179
SWIDTH 333 0
DWIDTH 4 0
BBX 3 5 0 4
BITMAP
E0
A0
40
A0
E0
ENDCHAR
STARTCHAR acute
ENCODING 180
SWIDTH 333 0
DWIDTH 4 0
BBX 3 2 0 7
BITMAP
60
80
ENDCHAR
STARTCHAR u00B5
ENCODING 181
SWIDTH 583 0
DWIDTH 10 0
BBX 9 10 0 -3
BITMAP
3300
3300
3300
3300
3300
7600
7F00
6000
6000
C000
ENDCHAR
STARTCHAR paragraph
ENCODING 182
SWIDTH 583 0
DWIDTH 7 0
BBX 6 11 0 -2
BITMAP
7C
E8
E8
E8
68
28
28
28
28
28
28
ENDCHAR
STARTCHAR periodcentered
ENCODING 183
SWIDTH 250 0
DWIDTH 3 0
BBX 2 2 0 3
BITMAP
C0
C0
ENDCHAR
STARTCHAR cedilla
ENCODING 184
SWIDTH 333 0
DWIDTH 3 0
BBX 2 2 0 -2
BITMAP
40
C0
ENDCHAR
STARTCHAR uni00B9
ENCODING 185
SWIDTH 333 0
DWIDTH 4 0
BBX 3 5 0 4
BITMAP
60
A0
40
40
E0
ENDCHAR
STARTCHAR ordmasculine
ENCODING 186
SWIDTH 333 0
DWIDTH 4 0
BBX 3 5 0 4
BITMAP
60
A0
A0
A0
C0
ENDCHAR
STARTCHAR guillemotright
ENCODING 187
SWIDTH 583 0
DWIDTH 6 0
BBX 5 5 0 1
BITMAP
50
28
28
50
A0
ENDCHAR
STARTCHAR onequarter
ENCODING 188
SWIDTH 833 0
DWIDTH 10 0
BBX 9 9 0 0
BITMAP
6080
A100
4200
4400
E980
0A80
1300
2780
4100
ENDCHAR
STARTCHAR onehalf
ENCODING 189
SWIDTH 833 0
DWIDTH 10 0
BBX 9 9 0 0
BITMAP
6080
A100
4200
4400
EB80
0A80
1100
2200
4780
ENDCHAR
STARTCHAR threequarters
ENCODING 190
SWIDTH 833 0
DWIDTH 10 0
BBX 9 9 0 0
BITMAP
E080
A100
4200
A400
E980
0A80
1300
2780
4100
ENDCHAR
STARTCHAR questiondown
ENCODING 191
SWIDTH 583 0
DWIDTH 7 0
BBX 6 9 0 -2
BITMAP
18
18
00
30
70
E0
C0
CC
78
ENDCHAR
STARTCHAR Agrave
ENCODING 192
SWIDTH 750 0
DWIDTH 9 0
BBX 8 12 0 0
BITMAP
0C
06
00
0E
0A
1A
1B
33
3F
63
63
C3
ENDCHAR
STARTCHAR Aacute
ENCODING 193
SWIDTH 750 0
DWIDTH 10 0
BBX 9 12 0 0
BITMAP
0180
0200
0000
0E00
0A00
1A00
1B00
3300
3F00
6300
6300
C300
ENDCHAR
STARTCHAR Acircumflex
ENCODING 194
SWIDTH 750 0
DWIDTH 9 0
BBX 8 12 0 0
BITMAP
06
0D
00
0E
0A
1A
1B
33
3F
63
63
C3
ENDCHAR
STARTCHAR Atilde
ENCODING 195
SWIDTH 750 0
DWIDTH 10 0
BBX 9 12 0 0
BITMAP
0680
0B00
0000
0E00
0A00
1A00
1B00
3300
3F00
6300
6300
C300
ENDCHAR
STARTCHAR Adieresis
ENCODING 196
SWIDTH 750 0
DWIDTH 10 0
BBX 9 11 0 0
BITMAP
0D80
0000
0E00
0A00
1A00
1B00
3300
3F00
6300
6300
C300
ENDCHAR
STARTCHAR Aring
ENCODING 197
SWIDTH 750 0
DWIDTH 9 0
BBX 8 11 0 0
BITMAP
07
05
0F
0A
1A
1B
33
3F
63
63
C3
ENDCHAR
STARTCHAR AE
ENCODING 198
SWIDTH 1000 0
DWIDTH 13 0
BBX 12 9 0 0
BITMAP
07F0
0D80
0F00
1B00
13E0
3F00
6300
6600
C7E0
ENDCHAR
STARTCHAR Ccedilla
ENCODING 199
SWIDTH 750 0
DWIDTH 9 0
BBX 8 11 0 -2
BITMAP
1E
63
60
C0
C0
C0
C0
66
7C
10
30
ENDCHAR
STARTCHAR Egrave
ENCODING 200
SWIDTH 667 0
DWIDTH 9 0
BBX 8 12 0 0
BITMAP
18
0C
00
3F
30
60
60
7E
60
60
C0
FE
ENDCHAR
STARTCHAR Eacute
ENCODING 201
SWIDTH 667 0
DWIDTH 9 0
BBX 8 12 0 0
BITMAP
06
08
00
3F
30
60
60
7E
60
60
C0
FE
ENDCHAR
STARTCHAR Ecircumflex
ENCODING 202
SWIDTH 667 0
DWIDTH 9 0
BBX 8 12 0 0
BITMAP
0C
1A
00
3F
30
60
60
7E
60
60
C0
FE
ENDCHAR
STARTCHAR Edieresis
ENCODING 203
SWIDTH 667 0
DWIDTH 9 0
BBX 8 11 0 0
BITMAP
1B
00
3F
30
60
60
7E
60
60
C0
FE
ENDCHAR
STARTCHAR Igrave
ENCODING 204
SWIDTH 250 0
DWIDTH 5 0
BBX 4 12 0 0
BITMAP
60
30
00
30
30
60
60
60
60
60
C0
C0
ENDCHAR
STARTCHAR Iacute
ENCODING 205
SWIDTH 250 0
DWIDTH 6 0
BBX 5 12 0 0
BITMAP
18
20
00
30
30
60
60
60
60
60
C0
C0
ENDCHAR
STARTCHAR Icircumflex
ENCODING 206
SWIDTH 250 0
DWIDTH 6 0
BBX 5 12 0 0
BITMAP
30
68
00
30
30
60
60
60
60
60
C0
C0
ENDCHAR
STARTCHAR Idieresis
ENCODING 207
SWIDTH 250 0
DWIDTH 7 0
BBX 6 11 0 0
BITMAP
6C
00
30
30
60
60
60
60
60
C0
C0
ENDCHAR
STARTCHAR Eth
ENCODING 208
SWIDTH 750 0
DWIDTH 10 0
BBX 9 9 0 0
BITMAP
3E00
3300
6180
6180
F980
6180
6300
C700
FC00
ENDCHAR
STARTCHAR Ntilde
ENCODING 209
SWIDTH 750 0
DWIDTH 11 0
BBX 10 12 0 0
BITMAP
0680
0B00
0000
38C0
38C0
6980
6980
6D80
6580
6580
C700
C700
ENDCHAR
STARTCHAR Ograve
ENCODING 210
SWIDTH 750 0
DWIDTH 9 0
BBX 8 12 0 0
BITMAP
18
0C
00
3E
66
63
C3
C3
C3
C6
66
3C
ENDCHAR
STARTCHAR Oacute
ENCODING 211
SWIDTH 750 0
DWIDTH 9 0
BBX 8 12 0 0
BITMAP
03
04
00
3E
66
63
C3
C3
C3
C6
66
3C
ENDCHAR
STARTCHAR Ocircumflex
ENCODING 212
SWIDTH 750 0
DWIDTH 9 0
BBX 8 12 0 0
BITMAP
0C
1A
00
3E
66
63
C3
C3
C3
C6
66
3C
ENDCHAR
STARTCHAR Otilde
ENCODING 213
SWIDTH 750 0
DWIDTH 9 0
BBX 8 12 0 0
BITMAP
0D
16
00
3E
66
63
C3
C3
C3
C6
66
3C
ENDCHAR
STARTCHAR Odieresis
ENCODING 214
SWIDTH 750 0
DWIDTH 9 0
BBX 8 11 0 0
BITMAP
1B
00
3E
66
63
C3
C3
C3
C6
66
3C
ENDCHAR
STARTCHAR multiply
ENCODING 215
SWIDTH 583 0
DWIDTH 7 0
BBX 6 6 0 1
BITMAP
44
28
10
28
44
00
ENDCHAR
STARTCHAR Oslash
ENCODING 216
SWIDTH 750 0
DWIDTH 9 0
BBX 8 9 0 0
BITMAP
3F
66
67
CB
CB
D3
E6
66
FC
ENDCHAR
STARTCHAR Ugrave
ENCODING 217
SWIDTH 750 0
DWIDTH 10 0
BBX 9 12 0 0
BITMAP
1800
0C00
0000
6180
6180
C300
C300
C300
C300
C300
C600
7C00
ENDCHAR
STARTCHAR Uacute
ENCODING 218
SWIDTH 750 0
DWIDTH 10 0
BBX 9 12 0 0
BITMAP
0300
0400
0000
6180
6180
C300
C300
C300
C300
C300
C600
7C00
ENDCHAR
STARTCHAR Ucircumflex
ENCODING 219
SWIDTH 750 0
DWIDTH 10 0
BBX 9 12 0 0
BITMAP
0C00
1A00
0000
6180
6180
C300
C300
C300
C300
C300
C600
7C00
ENDCHAR
STARTCHAR Udieresis
ENCODING 220
SWIDTH 750 0
DWIDTH 10 0
BBX 9 11 0 0
BITMAP
1B00
0000
6180
6180
C300
C300
C300
C300
C300
C600
7C00
ENDCHAR
STARTCHAR Yacute
ENCODING 221
SWIDTH 667 0
DWIDTH 9 0
BBX 8 12 0 0
BITMAP
06
08
00
C3
66
6C
78
30
30
30
60
60
ENDCHAR
STARTCHAR Thorn
ENCODING 222
SWIDTH 667 0
DWIDTH 9 0
BBX 8 9 0 0
BITMAP
30
3E
63
63
63
63
7E
C0
C0
ENDCHAR
STARTCHAR germandbls
ENCODING 223
SWIDTH 583 0
DWIDTH 8 0
BBX 7 9 0 0
BITMAP
1C
36
66
6C
6C
6E
66
C6
DC
ENDCHAR
STARTCHAR agrave
ENCODING 224
SWIDTH 583 0
DWIDTH 7 0
BBX 6 10 0 0
BITMAP
30
18
00
3C
6C
0C
7C
C8
D8
EC
ENDCHAR
STARTCHAR aacute
ENCODING 225
SWIDTH 583 0
DWIDTH 7 0
BBX 6 10 0 0
BITMAP
0C
10
00
3C
6C
0C
7C
C8
D8
EC
ENDCHAR
STARTCHAR acircumflex
ENCODING 226
SWIDTH 583 0
DWIDTH 7 0
BBX 6 10 0 0
BITMAP
30
68
00
3C
6C
0C
7C
C8
D8
EC
ENDCHAR
STARTCHAR atilde
ENCODING 227
SWIDTH 583 0
DWIDTH 7 0
BBX 6 10 0 0
BITMAP
34
58
00
3C
6C
0C
7C
C8
D8
EC
ENDCHAR
STARTCHAR adieresis
ENCODING 228
SWIDTH 583 0
DWIDTH 7 0
BBX 6 9 0 0
BITMAP
6C
00
3C
6C
0C
7C
C8
D8
EC
ENDCHAR
STARTCHAR aring
ENCODING 229
SWIDTH 583 0
DWIDTH 7 0
BBX 6 11 0 0
BITMAP
38
28
38
00
3C
6C
0C
7C
C8
D8
EC
ENDCHAR
STARTCHAR ae
ENCODING 230
SWIDTH 917 0
DWIDTH 11 0
BBX 10 7 0 0
BITMAP
3F80
6CC0
0CC0
7FC0
C800
DD80
E700
ENDCHAR
STARTCHAR ccedilla
ENCODING 231
SWIDTH 583 0
DWIDTH 7 0
BBX 6 9 0 -2
BITMAP
38
6C
C0
C0
C0
D8
70
20
60
ENDCHAR
STARTCHAR egrave
ENCODING 232
SWIDTH 583 0
DWIDTH 7 0
BBX 6 10 0 0
BITMAP
30
18
00
38
6C
CC
FC
C0
D8
70
ENDCHAR
STARTCHAR eacute
ENCODING 233
SWIDTH 583 0
DWIDTH 7 0
BBX 6 10 0 0
BITMAP
0C
10
00
38
6C
CC
FC
C0
D8
70
ENDCHAR
STARTCHAR ecircumflex
ENCODING 234
SWIDTH 583 0
DWIDTH 7 0
BBX 6 10 0 0
BITMAP
30
68
00
38
6C
CC
FC
C0
D8
70
ENDCHAR
STARTCHAR edieresis
ENCODING 235
SWIDTH 583 0
DWIDTH 7 0
BBX 6 9 0 0
BITMAP
6C
00
38
6C
CC
FC
C0
D8
70
ENDCHAR
STARTCHAR igrave
ENCODING 236
SWIDTH 250 0
DWIDTH 5 0
BBX 4 10 0 0
BITMAP
60
30
00
60
60
60
60
60
C0
C0
ENDCHAR
STARTCHAR iacute
ENCODING 237
SWIDTH 250 0
DWIDTH 6 0
BBX 5 10 0 0
BITMAP
18
20
00
60
60
60
60
60
C0
C0
ENDCHAR
STARTCHAR icircumflex
ENCODING 238
SWIDTH 250 0
DWIDTH 6 0
BBX 5 10 0 0
BITMAP
30
68
00
60
60
60
60
60
C0
C0
ENDCHAR
STARTCHAR idieresis
ENCODING 239
SWIDTH 250 0
DWIDTH 6 0
BBX 5 9 0 0
BITMAP
D8
00
60
60
60
60
60
C0
C0
ENDCHAR
STARTCHAR eth
ENCODING 240
SWIDTH 583 0
DWIDTH 7 0
BBX 6 9 0 0
BITMAP
3C
38
0C
7C
CC
CC
CC
D8
70
ENDCHAR
STARTCHAR ntilde
ENCODING 241
SWIDTH 583 0
DWIDTH 8 0
BBX 7 10 0 0
BITMAP
1A
2C
00
6E
76
66
66
66
CC
CC
ENDCHAR
STARTCHAR ograve
ENCODING 242
SWIDTH 583 0
DWIDTH 7 0
BBX 6 10 0 0
BITMAP
30
18
00
38
4C
CC
CC
CC
C8
70
ENDCHAR
STARTCHAR oacute
ENCODING 243
SWIDTH 583 0
DWIDTH 7 0
BBX 6 10 0 0
BITMAP
0C
10
00
38
4C
CC
CC
CC
C8
70
ENDCHAR
STARTCHAR ocircumflex
ENCODING 244
SWIDTH 583 0
DWIDTH 7 0
BBX 6 10 0 0
BITMAP
18
34
00
38
4C
CC
CC
CC
C8
70
ENDCHAR
STARTCHAR otilde
ENCODING 245
SWIDTH 583 0
DWIDTH 8 0
BBX 7 10 0 0
BITMAP
1A
2C
00
38
4C
CC
CC
CC
C8
70
ENDCHAR
STARTCHAR odieresis
ENCODING 246
SWIDTH 583 0
DWIDTH 8 0
BBX 7 9 0 0
BITMAP
36
00
38
4C
CC
CC
CC
C8
70
ENDCHAR
STARTCHAR divide
ENCODING 247
SWIDTH 583 0
DWIDTH 6 0
BBX 5 5 0 2
BITMAP
20
00
F8
00
20
ENDCHAR
STARTCHAR oslash
ENCODING 248
SWIDTH 583 0
DWIDTH 7 0
BBX 6 7 0 0
BITMAP
3C
4C
DC
DC
EC
C8
F0
ENDCHAR
STARTCHAR ugrave
ENCODING 249
SWIDTH 583 0
DWIDTH 9 0
BBX 8 10 0 0
BITMAP
18
0C
00
66
66
66
66
66
6C
7C
ENDCHAR
STARTCHAR uacute
ENCODING 250
SWIDTH 583 0
DWIDTH 9 0
BBX 8 10 0 0
BITMAP
06
08
00
66
66
66
66
66
6C
7C
ENDCHAR
STARTCHAR ucircumflex
ENCODING 251
SWIDTH 583 0
DWIDTH 9 0
BBX 8 10 0 0
BITMAP
0C
1A
00
66
66
66
66
66
6C
7C
ENDCHAR
STARTCHAR udieresis
ENCODING 252
SWIDTH 583 0
DWIDTH 9 0
BBX 8 9 0 0
BITMAP
36
00
66
66
66
66
66
6C
7C
ENDCHAR
STARTCHAR yacute
ENCODING 253
SWIDTH 583 0
DWIDTH 9 0
BBX 8 13 0 -3
BITMAP
06
08
00
63
66
66
2C
2C
38
30
30
60
C0
ENDCHAR
STARTCHAR thorn
ENCODING 254
SWIDTH 583 0
DWIDTH 9 0
BBX 8 12 0 -3
BITMAP
18
18
36
3B
33
33
33
76
6E
60
60
C0
ENDCHAR
STARTCHAR ydieresis
ENCODING 255
SWIDTH 583 0
DWIDTH 9 0
BBX 8 12 0 -3
BITMAP
36
00
63
66
66
2C
2C
38
30
30
60
C0
ENDCHAR
STARTCHAR Amacron
ENCODING 256
SWIDTH 750 0
DWIDTH 9 0
BBX 8 11 0 0
BITMAP
0F
00
0E
0A
1A
1B
33
3F
63
63
C3
ENDCHAR
STARTCHAR amacron
ENCODING 257
SWIDTH 583 0
DWIDTH 7 0
BBX 6 9 0 0
BITMAP
3C
00
3C
6C
0C
7C
C8
D8
EC
ENDCHAR
STARTCHAR Abreve
ENCODING 258
SWIDTH 750 0
DWIDTH 9 0
BBX 8 12 0 0
BITMAP
09
06
00
0E
0A
1A
1B
33
3F
63
63
C3
ENDCHAR
STARTCHAR abreve
ENCODING 259
SWIDTH 583 0
DWIDTH 7 0
BBX 6 10 0 0
BITMAP
24
38
00
3C
6C
0C
7C
C8
D8
EC
ENDCHAR
STARTCHAR Aogonek
ENCODING 260
SWIDTH 750 0
DWIDTH 9 0
BBX 8 11 0 -2
BITMAP
0E
0A
1A
1B
33
3F
63
63
C3
02
03
ENDCHAR
STARTCHAR aogonek
ENCODING 261
SWIDTH 583 0
DWIDTH 7 0
BBX 6 9 0 -2
BITMAP
3C
6C
0C
7C
C8
D8
EC
08
0C
ENDCHAR
STARTCHAR Cacute
ENCODING 262
SWIDTH 750 0
DWIDTH 9 0
BBX 8 12 0 0
BITMAP
03
04
00
1E
63
60
C0
C0
C0
C0
66
7C
ENDCHAR
STARTCHAR cacute
ENCODING 263
SWIDTH 583 0
DWIDTH 7 0
BBX 6 10 0 0
BITMAP
0C
10
00
38
6C
C0
C0
C0
D8
70
ENDCHAR
STARTCHAR Ccircumflex
ENCODING 264
SWIDTH 750 0
DWIDTH 9 0
BBX 8 12 0 0
BITMAP
0C
1A
00
1E
63
60
C0
C0
C0
C0
66
7C
ENDCHAR
STARTCHAR ccircumflex
ENCODING 265
SWIDTH 583 0
DWIDTH 7 0
BBX 6 10 0 0
BITMAP
30
68
00
38
6C
C0
C0
C0
D8
70
ENDCHAR
STARTCHAR Cdotaccent
ENCODING 266
SWIDTH 750 0
DWIDTH 9 0
BBX 8 11 0 0
BITMAP
0C
00
1E
63
60
C0
C0
C0
C0
66
7C
ENDCHAR
STARTCHAR cdotaccent
ENCODING 267
SWIDTH 583 0
DWIDTH 7 0
BBX 6 9 0 0
BITMAP
18
00
38
6C
C0
C0
C0
D8
70
ENDCHAR
STARTCHAR Ccaron
ENCODING 268
SWIDTH 750 0
DWIDTH 9 0
BBX 8 12 0 0
BITMAP
16
0C
00
1E
63
60
C0
C0
C0
C0
66
7C
ENDCHAR
STARTCHAR ccaron
ENCODING 269
SWIDTH 583 0
DWIDTH 7 0
BBX 6 10 0 0
BITMAP
24
18
00
38
6C
C0
C0
C0
D8
70
ENDCHAR
STARTCHAR Dcaron
ENCODING 270
SWIDTH 750 0
DWIDTH 10 0
BBX 9 12 0 0
BITMAP
0B00
0600
0000
3E00
3300
6180
6180
6180
6180
6300
C700
FC00
ENDCHAR
STARTCHAR dcaron
ENCODING 271
SWIDTH 750 0
DWIDTH 11 0
BBX 10 9 0 0
BITMAP
06C0
0680
7C00
4C00
CC00
CC00
C800
D800
7800
ENDCHAR
STARTCHAR Dcroat
ENCODING 272
SWIDTH 750 0
DWIDTH 10 0
BBX 9 9 0 0
BITMAP
3E00
3300
6180
6180
F980
6180
6300
C700
FC00
ENDCHAR
STARTCHAR dcroat
ENCODING 273
SWIDTH 583 0
DWIDTH 9 0
BBX 8 9 0 0
BITMAP
06
1E
0C
7C
CC
CC
CC
D8
F8
ENDCHAR
STARTCHAR Emacron
ENCODING 274
SWIDTH 667 0
DWIDTH 9 0
BBX 8 11 0 0
BITMAP
1E
00
3F
30
60
60
7E
60
60
C0
FE
ENDCHAR
STARTCHAR emacron
ENCODING 275
SWIDTH 583 0
DWIDTH 7 0
BBX 6 9 0 0
BITMAP
3C
00
38
6C
CC
FC
C0
D8
70
ENDCHAR
STARTCHAR Ebreve
ENCODING 276
SWIDTH 667 0
DWIDTH 9 0
BBX 8 12 0 0
BITMAP
12
0C
00
3F
30
60
60
7E
60
60
C0
FE
ENDCHAR
STARTCHAR ebreve
ENCODING 277
SWIDTH 583 0
DWIDTH 7 0
BBX 6 10 0 0
BITMAP
24
38
00
38
6C
CC
FC
C0
D8
70
ENDCHAR
STARTCHAR Edotaccent
ENCODING 278
SWIDTH 667 0
DWIDTH 9 0
BBX 8 11 0 0
BITMAP
0C
00
3F
30
60
60
7E
60
60
C0
FE
ENDCHAR
STARTCHAR edotaccent
ENCODING 279
SWIDTH 583 0
DWIDTH 7 0
BBX 6 9 0 0
BITMAP
18
00
38
6C
CC
FC
C0
D8
70
ENDCHAR
STARTCHAR Eogonek
ENCODING 280
SWIDTH 667 0
DWIDTH 9 0
BBX 8 11 0 -2
BITMAP
3F
30
60
60
7E
60
60
C0
FE
08
0C
ENDCHAR
STARTCHAR eogonek
ENCODING 281
SWIDTH 583 0
DWIDTH 7 0
BBX 6 9 0 -2
BITMAP
38
6C
CC
FC
C0
D8
70
40
60
ENDCHAR
STARTCHAR Ecaron
ENCODING 282
SWIDTH 667 0
DWIDTH 9 0
BBX 8 12 0 0
BITMAP
16
0C
00
3F
30
60
60
7E
60
60
C0
FE
ENDCHAR
STARTCHAR ecaron
ENCODING 283
SWIDTH 583 0
DWIDTH 7 0
BBX 6 10 0 0
BITMAP
24
18
00
38
6C
CC
FC
C0
D8
70
ENDCHAR
STARTCHAR Gcircumflex
ENCODING 284
SWIDTH 750 0
DWIDTH 9 0
BBX 8 12 0 0
BITMAP
0C
1A
00
1E
63
60
C0
C0
CE
C6
CC
78
ENDCHAR
STARTCHAR gcircumflex
ENCODING 285
SWIDTH 583 0
DWIDTH 8 0
BBX 7 13 0 -3
BITMAP
18
34
00
7C
4C
CC
CC
CC
D8
78
18
D8
70
ENDCHAR
STARTCHAR Gbreve
ENCODING 286
SWIDTH 750 0
DWIDTH 9 0
BBX 8 12 0 0
BITMAP
12
0C
00
1E
63
60
C0
C0
CE
C6
CC
78
ENDCHAR
STARTCHAR gbreve
ENCODING 287
SWIDTH 583 0
DWIDTH 8 0
BBX 7 13 0 -3
BITMAP
24
38
00
7C
4C
CC
CC
CC
D8
78
18
D8
70
ENDCHAR
STARTCHAR Gdotaccent
ENCODING 288
SWIDTH 750 0
DWIDTH 9 0
BBX 8 11 0 0
BITMAP
0C
00
1E
63
60
C0
C0
CE
C6
CC
78
ENDCHAR
STARTCHAR gdotaccent
ENCODING 289
SWIDTH 583 0
DWIDTH 8 0
BBX 7 12 0 -3
BITMAP
18
00
7C
4C
CC
CC
CC
D8
78
18
D8
70
ENDCHAR
STARTCHAR Gcommaaccent
ENCODING 290
SWIDTH 750 0
DWIDTH 9 0
BBX 8 12 0 -3
BITMAP
1E
63
60
C0
C0
CE
C6
CC
78
00
18
10
ENDCHAR
STARTCHAR gcommaaccent
ENCODING 291
SWIDTH 583 0
DWIDTH 8 0
BBX 7 13 0 -3
BITMAP
08
18
00
7C
4C
CC
CC
CC
D8
78
18
D8
70
ENDCHAR
STARTCHAR Hcircumflex
ENCODING 292
SWIDTH 750 0
DWIDTH 11 0
BBX 10 12 0 0
BITMAP
0600
0D00
0000
30C0
30C0
6180
6180
7F80
6180
6180
C300
C300
ENDCHAR
STARTCHAR hcircumflex
ENCODING 293
SWIDTH 583 0
DWIDTH 8 0
BBX 7 12 0 0
BITMAP
0C
1A
00
30
30
6E
76
66
66
66
CC
CC
ENDCHAR
STARTCHAR Hbar
ENCODING 294
SWIDTH 750 0
DWIDTH 12 0
BBX 11 9 0 0
BITMAP
30C0
7FC0
6180
6180
7F80
6180
6180
C300
C300
ENDCHAR
STARTCHAR hbar
ENCODING 295
SWIDTH 583 0
DWIDTH 8 0
BBX 7 9 0 0
BITMAP
30
7C
60
7E
66
66
66
CC
CC
ENDCHAR
STARTCHAR Itilde
ENCODING 296
SWIDTH 250 0
DWIDTH 7 0
BBX 6 12 0 0
BITMAP
34
58
00
30
30
60
60
60
60
60
C0
C0
ENDCHAR
STARTCHAR itilde
ENCODING 297
SWIDTH 250 0
DWIDTH 6 0
BBX 5 10 0 0
BITMAP
68
B0
00
60
60
60
60
60
C0
C0
ENDCHAR
STARTCHAR Imacron
ENCODING 298
SWIDTH 250 0
DWIDTH 6 0
BBX 5 11 0 0
BITMAP
78
00
30
30
60
60
60
60
60
C0
C0
ENDCHAR
STARTCHAR imacron
ENCODING 299
SWIDTH 250 0
DWIDTH 6 0
BBX 5 9 0 0
BITMAP
78
00
60
60
60
60
60
C0
C0
ENDCHAR
STARTCHAR Ibreve
ENCODING 300
SWIDTH 250 0
DWIDTH 6 0
BBX 5 12 0 0
BITMAP
48
30
00
30
30
60
60
60
60
60
C0
C0
ENDCHAR
STARTCHAR ibreve
ENCODING 301
SWIDTH 250 0
DWIDTH 6 0
BBX 5 10 0 0
BITMAP
48
70
00
60
60
60
60
60
C0
C0
ENDCHAR
STARTCHAR Iogonek
ENCODING 302
SWIDTH 250 0
DWIDTH 5 0
BBX 4 11 0 -2
BITMAP
30
30
60
60
60
60
60
C0
C0
80
C0
ENDCHAR
STARTCHAR iogonek
ENCODING 303
SWIDTH 250 0
DWIDTH 5 0
BBX 4 11 0 -2
BITMAP
30
00
60
60
60
60
60
C0
C0
80
C0
ENDCHAR
STARTCHAR Idotaccent
ENCODING 304
SWIDTH 250 0
DWIDTH 5 0
BBX 4 11 0 0
BITMAP
30
00
30
30
60
60
60
60
60
C0
C0
ENDCHAR
STARTCHAR dotlessi
ENCODING 305
SWIDTH 250 0
DWIDTH 5 0
BBX 4 7 0 0
BITMAP
60
60
60
60
60
C0
C0
ENDCHAR
STARTCHAR IJ
ENCODING 306
SWIDTH 750 0
DWIDTH 11 0
BBX 10 9 0 0
BITMAP
33C0
30C0
6180
6180
6180
6180
6180
DB00
CE00
ENDCHAR
STARTCHAR ij
ENCODING 307
SWIDTH 583 0
DWIDTH 9 0
BBX 8 12 0 -3
BITMAP
33
00
66
66
66
66
66
CC
CC
0C
0C
38
ENDCHAR
STARTCHAR Jcircumflex
ENCODING 308
SWIDTH 500 0
DWIDTH 9 0
BBX 8 12 0 0
BITMAP
06
0D
00
1E
06
0C
0C
0C
0C
0C
D8
70
ENDCHAR
STARTCHAR jcircumflex
ENCODING 309
SWIDTH 250 0
DWIDTH 8 0
BBX 7 13 0 -3
BITMAP
0C
1A
00
18
18
18
18
18
30
30
30
30
E0
ENDCHAR
STARTCHAR Kcommaaccent
ENCODING 310
SWIDTH 750 0
DWIDTH 11 0
BBX 10 12 0 -3
BITMAP
3180
3300
6600
6C00
7C00
6C00
6600
C600
C300
0000
1800
1000
ENDCHAR
STARTCHAR kcommaaccent
ENCODING 311
SWIDTH 583 0
DWIDTH 8 0
BBX 7 12 0 -3
BITMAP
30
30
66
6C
78
78
78
C8
CC
00
30
20
ENDCHAR
STARTCHAR kgreenlandic
ENCODING 312
SWIDTH 583 0
DWIDTH 8 0
BBX 7 7 0 0
BITMAP
66
6C
78
78
78
DC
CC
ENDCHAR
STARTCHAR Lacute
ENCODING 313
SWIDTH 583 0
DWIDTH 7 0
BBX 6 12 0 0
BITMAP
0C
10
00
30
30
60
60
60
60
60
C0
FC
ENDCHAR
STARTCHAR lacute
ENCODING 314
SWIDTH 250 0
DWIDTH 6 0
BBX 5 12 0 0
BITMAP
18
20
00
30
30
60
60
60
60
60
C0
C0
ENDCHAR
STARTCHAR Lcommaaccent
ENCODING 315
SWIDTH 583 0
DWIDTH 7 0
BBX 6 12 0 -3
BITMAP
30
30
60
60
60
60
60
C0
FC
00
30
20
ENDCHAR
STARTCHAR lcommaaccent
ENCODING 316
SWIDTH 250 0
DWIDTH 5 0
BBX 4 12 0 -3
BITMAP
30
30
60
60
60
60
60
C0
C0
00
C0
80
ENDCHAR
STARTCHAR Lcaron
ENCODING 317
SWIDTH 583 0
DWIDTH 8 0
BBX 7 9 0 0
BITMAP
36
34
60
60
60
60
60
C0
FC
ENDCHAR
STARTCHAR lcaron
ENCODING 318
SWIDTH 417 0
DWIDTH 8 0
BBX 7 9 0 0
BITMAP
36
34
60
60
60
60
60
C0
C0
ENDCHAR
STARTCHAR Ldot
ENCODING 319
SWIDTH 583 0
DWIDTH 7 0
BBX 6 9 0 0
BITMAP
30
30
60
60
6C
60
60
C0
FC
ENDCHAR
STARTCHAR ldot
ENCODING 320
SWIDTH 500 0
DWIDTH 7 0
BBX 6 9 0 0
BITMAP
30
30
60
60
6C
60
60
C0
C0
ENDCHAR
STARTCHAR Lslash
ENCODING 321
SWIDTH 583 0
DWIDTH 7 0
BBX 6 9 0 0
BITMAP
30
30
60
68
70
E0
60
C0
FC
ENDCHAR
STARTCHAR lslash
ENCODING 322
SWIDTH 250 0
DWIDTH 5 0
BBX 4 9 0 0
BITMAP
30
30
60
70
60
E0
60
C0
C0
ENDCHAR
STARTCHAR Nacute
ENCODING 323
SWIDTH 750 0
DWIDTH 11 0
BBX 10 12 0 0
BITMAP
0300
0400
0000
38C0
38C0
6980
6980
6D80
6580
6580
C700
C700
ENDCHAR
STARTCHAR nacute
ENCODING 324
SWIDTH 583 0
DWIDTH 8 0
BBX 7 10 0 0
BITMAP
06
08
00
6E
76
66
66
66
CC
CC
ENDCHAR
STARTCHAR Ncommaaccent
ENCODING 325
SWIDTH 750 0
DWIDTH 11 0
BBX 10 12 0 -3
BITMAP
38C0
38C0
6980
6980
6D80
6580
6580
C700
C700
0000
1800
1000
ENDCHAR
STARTCHAR ncommaaccent
ENCODING 326
SWIDTH 583 0
DWIDTH 8 0
BBX 7 10 0 -3
BITMAP
6E
76
66
66
66
CC
CC
00
30
20
ENDCHAR
STARTCHAR Ncaron
ENCODING 327
SWIDTH 750 0
DWIDTH 11 0
BBX 10 12 0 0
BITMAP
0B00
0600
0000
38C0
38C0
6980
6980
6D80
6580
6580
C700
C700
ENDCHAR
STARTCHAR ncaron
ENCODING 328
SWIDTH 583 0
DWIDTH 8 0
BBX 7 10 0 0
BITMAP
12
0C
00
6E
76
66
66
66
CC
CC
ENDCHAR
STARTCHAR napostrophe
ENCODING 329
SWIDTH 667 0
DWIDTH 8 0
BBX 7 9 0 0
BITMAP
C0
C0
EE
F6
66
66
66
CC
CC
ENDCHAR
STARTCHAR Eng
ENCODING 330
SWIDTH 750 0
DWIDTH 10 0
BBX 9 8 0 0
BITMAP
2F00
7180
6100
6100
6300
4300
5300
DE00
ENDCHAR
STARTCHAR eng
ENCODING 331
SWIDTH 583 0
DWIDTH 8 0
BBX 7 10 0 -3
BITMAP
6E
76
66
66
66
CC
CC
0C
0C
38
ENDCHAR
STARTCHAR Omacron
ENCODING 332
SWIDTH 750 0
DWIDTH 9 0
BBX 8 11 0 0
BITMAP
1E
00
3E
66
63
C3
C3
C3
C6
66
3C
ENDCHAR
STARTCHAR omacron
ENCODING 333
SWIDTH 583 0
DWIDTH 7 0
BBX 6 9 0 0
BITMAP
3C
00
38
4C
CC
CC
CC
C8
70
ENDCHAR
STARTCHAR Obreve
ENCODING 334
SWIDTH 750 0
DWIDTH 9 0
BBX 8 12 0 0
BITMAP
12
0C
00
3E
66
63
C3
C3
C3
C6
66
3C
ENDCHAR
STARTCHAR obreve
ENCODING 335
SWIDTH 583 0
DWIDTH 7 0
BBX 6 10 0 0
BITMAP
24
38
00
38
4C
CC
CC
CC
C8
70
ENDCHAR
STARTCHAR Ohungarumlaut
ENCODING 336
SWIDTH 750 0
DWIDTH 10 0
BBX 9 12 0 0
BITMAP
0D80
1200
0000
3E00
6600
6300
C300
C300
C300
C600
6600
3C00
ENDCHAR
STARTCHAR ohungarumlaut
ENCODING 337
SWIDTH 583 0
DWIDTH 9 0
BBX 8 10 0 0
BITMAP
1B
24
00
38
4C
CC
CC
CC
C8
70
ENDCHAR
STARTCHAR OE
ENCODING 338
SWIDTH 917 0
DWIDTH 11 0
BBX 10 9 0 0
BITMAP
3FC0
6300
6600
C600
C780
C600
C600
CC00
7F80
ENDCHAR
STARTCHAR oe
ENCODING 339
SWIDTH 917 0
DWIDTH 12 0
BBX 11 6 0 0
BITMAP
3FE0
6620
C7E0
C600
CE60
7BC0
ENDCHAR
STARTCHAR Racute
ENCODING 340
SWIDTH 750 0
DWIDTH 10 0
BBX 9 12 0 0
BITMAP
0300
0400
0000
3F00
3180
6180
6180
7E00
6600
6600
C300
C300
ENDCHAR
STARTCHAR racute
ENCODING 341
SWIDTH 417 0
DWIDTH 7 0
BBX 6 10 0 0
BITMAP
0C
10
00
7C
70
60
60
60
C0
C0
ENDCHAR
STARTCHAR Rcommaaccent
ENCODING 342
SWIDTH 750 0
DWIDTH 10 0
BBX 9 12 0 -3
BITMAP
3F00
3180
6180
6180
7E00
6600
6600
C300
C300
0000
1800
1000
ENDCHAR
STARTCHAR rcommaaccent
ENCODING 343
SWIDTH 417 0
DWIDTH 7 0
BBX 6 10 0 -3
BITMAP
7C
70
60
60
60
C0
C0
00
C0
80
ENDCHAR
STARTCHAR Rcaron
ENCODING 344
SWIDTH 750 0
DWIDTH 10 0
BBX 9 12 0 0
BITMAP
1600
0C00
0000
3F00
3180
6180
6180
7E00
6600
6600
C300
C300
ENDCHAR
STARTCHAR rcaron
ENCODING 345
SWIDTH 417 0
DWIDTH 7 0
BBX 6 10 0 0
BITMAP
24
18
00
7C
70
60
60
60
C0
C0
ENDCHAR
STARTCHAR Sacute
ENCODING 346
SWIDTH 667 0
DWIDTH 8 0
BBX 7 12 0 0
BITMAP
06
08
00
3C
66
60
70
38
0C
0C
CC
78
ENDCHAR
STARTCHAR sacute
ENCODING 347
SWIDTH 583 0
DWIDTH 8 0
BBX 7 10 0 0
BITMAP
06
08
00
3C
66
60
7C
0C
CC
78
ENDCHAR
STARTCHAR Scircumflex
ENCODING 348
SWIDTH 667 0
DWIDTH 8 0
BBX 7 12 0 0
BITMAP
0C
1A
00
3C
66
60
70
38
0C
0C
CC
78
ENDCHAR
STARTCHAR scircumflex
ENCODING 349
SWIDTH 583 0
DWIDTH 8 0
BBX 7 10 0 0
BITMAP
18
34
00
3C
66
60
7C
0C
CC
78
ENDCHAR
STARTCHAR Scedilla
ENCODING 350
SWIDTH 667 0
DWIDTH 8 0
BBX 7 11 0 -2
BITMAP
3C
66
60
70
38
0C
0C
CC
78
10
30
ENDCHAR
STARTCHAR scedilla
ENCODING 351
SWIDTH 583 0
DWIDTH 8 0
BBX 7 9 0 -2
BITMAP
3C
66
60
7C
0C
CC
78
10
30
ENDCHAR
STARTCHAR Scaron
ENCODING 352
SWIDTH 667 0
DWIDTH 8 0
BBX 7 12 0 0
BITMAP
16
0C
00
3C
66
60
70
38
0C
0C
CC
78
ENDCHAR
STARTCHAR scaron
ENCODING 353
SWIDTH 583 0
DWIDTH 8 0
BBX 7 10 0 0
BITMAP
12
0C
00
3C
66
60
7C
0C
CC
78
ENDCHAR
STARTCHAR Tcommaaccent
ENCODING 354
SWIDTH 583 0
DWIDTH 9 0
BBX 8 10 0 -2
BITMAP
FF
18
30
30
30
30
30
60
70
30
ENDCHAR
STARTCHAR tcommaaccent
ENCODING 355
SWIDTH 333 0
DWIDTH 6 0
BBX 5 10 0 -2
BITMAP
30
78
60
60
60
60
C0
60
10
30
ENDCHAR
STARTCHAR Tcaron
ENCODING 356
SWIDTH 583 0
DWIDTH 9 0
BBX 8 12 0 0
BITMAP
16
0C
00
FF
18
30
30
30
30
30
60
60
ENDCHAR
STARTCHAR tcaron
ENCODING 357
SWIDTH 500 0
DWIDTH 8 0
BBX 7 9 0 0
BITMAP
06
34
78
60
60
60
60
C0
60
ENDCHAR
STARTCHAR Tbar
ENCODING 358
SWIDTH 583 0
DWIDTH 9 0
BBX 8 9 0 0
BITMAP
FF
18
30
30
78
30
30
60
60
ENDCHAR
STARTCHAR tbar
ENCODING 359
SWIDTH 333 0
DWIDTH 6 0
BBX 5 8 0 0
BITMAP
30
78
60
60
F0
60
C0
60
ENDCHAR
STARTCHAR Utilde
ENCODING 360
SWIDTH 750 0
DWIDTH 10 0
BBX 9 12 0 0
BITMAP
0D00
1600
0000
6180
6180
C300
C300
C300
C300
C300
C600
7C00
ENDCHAR
STARTCHAR utilde
ENCODING 361
SWIDTH 583 0
DWIDTH 9 0
BBX 8 10 0 0
BITMAP
1A
2C
00
66
66
66
66
66
6C
7C
ENDCHAR
STARTCHAR Umacron
ENCODING 362
SWIDTH 750 0
DWIDTH 10 0
BBX 9 11 0 0
BITMAP
1E00
0000
6180
6180
C300
C300
C300
C300
C300
C600
7C00
ENDCHAR
STARTCHAR umacron
ENCODING 363
SWIDTH 583 0
DWIDTH 9 0
BBX 8 9 0 0
BITMAP
1E
00
66
66
66
66
66
6C
7C
ENDCHAR
STARTCHAR Ubreve
ENCODING 364
SWIDTH 750 0
DWIDTH 10 0
BBX 9 12 0 0
BITMAP
1200
0C00
0000
6180
6180
C300
C300
C300
C300
C300
C600
7C00
ENDCHAR
STARTCHAR ubreve
ENCODING 365
SWIDTH 583 0
DWIDTH 9 0
BBX 8 10 0 0
BITMAP
12
1C
00
66
66
66
66
66
6C
7C
ENDCHAR
STARTCHAR Uring
ENCODING 366
SWIDTH 750 0
DWIDTH 10 0
BBX 9 13 0 0
BITMAP
0E00
0A00
0E00
0000
6180
6180
C300
C300
C300
C300
C300
C600
7C00
ENDCHAR
STARTCHAR uring
ENCODING 367
SWIDTH 583 0
DWIDTH 9 0
BBX 8 11 0 0
BITMAP
1C
14
1C
00
66
66
66
66
66
6C
7C
ENDCHAR
STARTCHAR Uhungarumlaut
ENCODING 368
SWIDTH 750 0
DWIDTH 10 0
BBX 9 12 0 0
BITMAP
0D80
1200
0000
6180
6180
C300
C300
C300
C300
C300
C600
7C00
ENDCHAR
STARTCHAR uhungarumlaut
ENCODING 369
SWIDTH 583 0
DWIDTH 10 0
BBX 9 10 0 0
BITMAP
0D80
1200
0000
6600
6600
6600
6600
6600
6C00
7C00
ENDCHAR
STARTCHAR Uogonek
ENCODING 370
SWIDTH 750 0
DWIDTH 10 0
BBX 9 11 0 -2
BITMAP
6180
6180
C300
C300
C300
C300
C300
C600
7C00
1000
1800
ENDCHAR
STARTCHAR uogonek
ENCODING 371
SWIDTH 583 0
DWIDTH 9 0
BBX 8 9 0 -2
BITMAP
66
66
66
66
66
6C
7C
08
0C
ENDCHAR
STARTCHAR Wcircumflex
ENCODING 372
SWIDTH 1000 0
DWIDTH 12 0
BBX 11 12 0 0
BITMAP
0C00
1A00
0000
CC60
CC40
CCC0
D4C0
D480
D580
E500
E700
E600
ENDCHAR
STARTCHAR wcircumflex
ENCODING 373
SWIDTH 833 0
DWIDTH 11 0
BBX 10 10 0 0
BITMAP
0C00
1A00
0000
CCC0
CD80
D580
D500
D700
6600
6600
ENDCHAR
STARTCHAR Ycircumflex
ENCODING 374
SWIDTH 667 0
DWIDTH 9 0
BBX 8 12 0 0
BITMAP
18
34
00
C3
66
6C
78
30
30
30
60
60
ENDCHAR
STARTCHAR ycircumflex
ENCODING 375
SWIDTH 583 0
DWIDTH 9 0
BBX 8 13 0 -3
BITMAP
18
34
00
63
66
66
2C
2C
38
30
30
60
C0
ENDCHAR
STARTCHAR Ydieresis
ENCODING 376
SWIDTH 667 0
DWIDTH 9 0
BBX 8 11 0 0
BITMAP
36
00
C3
66
6C
78
30
30
30
60
60
ENDCHAR
STARTCHAR Zacute
ENCODING 377
SWIDTH 583 0
DWIDTH 9 0
BBX 8 12 0 0
BITMAP
03
04
00
3F
06
0E
0C
18
30
60
60
FC
ENDCHAR
STARTCHAR zacute
ENCODING 378
SWIDTH 500 0
DWIDTH 7 0
BBX 6 10 0 0
BITMAP
0C
10
00
7C
18
18
30
60
60
F8
ENDCHAR
STARTCHAR Zdotaccent
ENCODING 379
SWIDTH 583 0
DWIDTH 9 0
BBX 8 11 0 0
BITMAP
0C
00
3F
06
0E
0C
18
30
60
60
FC
ENDCHAR
STARTCHAR zdotaccent
ENCODING 380
SWIDTH 500 0
DWIDTH 7 0
BBX 6 9 0 0
BITMAP
18
00
7C
18
18
30
60
60
F8
ENDCHAR
STARTCHAR Zcaron
ENCODING 381
SWIDTH 583 0
DWIDTH 9 0
BBX 8 12 0 0
BITMAP
0B
06
00
3F
06
0E
0C
18
30
60
60
FC
ENDCHAR
STARTCHAR zcaron
ENCODING 382
SWIDTH 500 0
DWIDTH 7 0
BBX 6 10 0 0
BITMAP
24
18
00
7C
18
18
30
60
60
F8
ENDCHAR
STARTCHAR longs
ENCODING 383
SWIDTH 250 0
DWIDTH 6 0
BBX 5 9 0 0
BITMAP
38
30
60
60
60
60
60
C0
C0
ENDCHAR
STARTCHAR florin
ENCODING 402
SWIDTH 583 0
DWIDTH 7 0
BBX 6 12 0 -3
BITMAP
1C
18
3C
30
30
30
30
60
60
60
60
C0
ENDCHAR
STARTCHAR Aringacute
ENCODING 506
SWIDTH 750 0
DWIDTH 10 0
BBX 9 13 0 0
BITMAP
0180
0200
0700
0500
0F00
0A00
1A00
1B00
3300
3F00
6300
6300
C300
ENDCHAR
STARTCHAR aringacute
ENCODING 507
SWIDTH 583 0
DWIDTH 7 0
BBX 6 12 0 0
BITMAP
0C
38
28
38
00
3C
6C
0C
7C
C8
D8
EC
ENDCHAR
STARTCHAR AEacute
ENCODING 508
SWIDTH 1000 0
DWIDTH 13 0
BBX 12 12 0 0
BITMAP
0060
0080
0000
07F0
0D80
0F00
1B00
13E0
3F00
6300
6600
C7E0
ENDCHAR
STARTCHAR aeacute
ENCODING 509
SWIDTH 917 0
DWIDTH 11 0
BBX 10 10 0 0
BITMAP
0300
0400
0000
3F80
6CC0
0CC0
7FC0
C800
DD80
E700
ENDCHAR
STARTCHAR Oslashacute
ENCODING 510
SWIDTH 750 0
DWIDTH 9 0
BBX 8 12 0 0
BITMAP
06
08
00
3F
66
67
CB
CB
D3
E6
66
FC
ENDCHAR
STARTCHAR oslashacute
ENCODING 511
SWIDTH 583 0
DWIDTH 7 0
BBX 6 10 0 0
BITMAP
0C
10
00
3C
4C
DC
DC
EC
C8
F0
ENDCHAR
STARTCHAR Scommaaccent
ENCODING 536
SWIDTH 667 0
DWIDTH 8 0
BBX 7 12 0 -3
BITMAP
3C
66
60
70
38
0C
0C
CC
78
00
60
40
ENDCHAR
STARTCHAR scommaaccent
ENCODING 537
SWIDTH 583 0
DWIDTH 8 0
BBX 7 10 0 -3
BITMAP
3C
66
60
7C
0C
CC
78
00
30
20
ENDCHAR
STARTCHAR uni021A
ENCODING 538
SWIDTH 583 0
DWIDTH 9 0
BBX 8 12 0 -3
BITMAP
FF
18
30
30
30
30
30
60
60
00
60
40
ENDCHAR
STARTCHAR uni021B
ENCODING 539
SWIDTH 333 0
DWIDTH 6 0
BBX 5 11 0 -3
BITMAP
30
78
60
60
60
60
C0
60
00
60
40
ENDCHAR
STARTCHAR circumflex
ENCODING 710
SWIDTH 333 0
DWIDTH 5 0
BBX 4 2 0 7
BITMAP
60
D0
ENDCHAR
STARTCHAR caron
ENCODING 711
SWIDTH 333 0
DWIDTH 5 0
BBX 4 2 0 7
BITMAP
90
60
ENDCHAR
STARTCHAR uni02C9
ENCODING 713
SWIDTH 333 0
DWIDTH 5 0
BBX 4 1 0 7
BITMAP
F0
ENDCHAR
STARTCHAR breve
ENCODING 728
SWIDTH 333 0
DWIDTH 5 0
BBX 4 2 0 7
BITMAP
90
E0
ENDCHAR
STARTCHAR dotaccent
ENCODING 729
SWIDTH 333 0
DWIDTH 3 0
BBX 2 1 0 8
BITMAP
C0
ENDCHAR
STARTCHAR ring
ENCODING 730
SWIDTH 333 0
DWIDTH 4 0
BBX 3 3 0 7
BITMAP
E0
A0
E0
ENDCHAR
STARTCHAR ogonek
ENCODING 731
SWIDTH 333 0
DWIDTH 3 0
BBX 2 2 0 -2
BITMAP
80
C0
ENDCHAR
STARTCHAR tilde
ENCODING 732
SWIDTH 333 0
DWIDTH 6 0
BBX 5 2 0 7
BITMAP
68
B0
ENDCHAR
STARTCHAR hungarumlaut
ENCODING 733
SWIDTH 333 0
DWIDTH 7 0
BBX 6 2 0 7
BITMAP
6C
90
ENDCHAR
STARTCHAR semicolon
ENCODING 894
SWIDTH 333 0
DWIDTH 5 0
BBX 4 9 0 -2
BITMAP
60
60
00
00
00
C0
C0
40
80
ENDCHAR
STARTCHAR tonos
ENCODING 900
SWIDTH 333 0
DWIDTH 3 0
BBX 2 2 0 7
BITMAP
C0
80
ENDCHAR
STARTCHAR dieresistonos
ENCODING 901
SWIDTH 333 0
DWIDTH 6 0
BBX 5 3 0 7
BITMAP
10
20
A8
ENDCHAR
STARTCHAR Alphatonos
ENCODING 902
SWIDTH 750 0
DWIDTH 9 0
BBX 8 9 0 0
BITMAP
6E
4A
1A
1B
33
3F
63
63
C3
ENDCHAR
STARTCHAR anoteleia
ENCODING 903
SWIDTH 333 0
DWIDTH 3 0
BBX 2 2 0 3
BITMAP
C0
C0
ENDCHAR
STARTCHAR Epsilontonos
ENCODING 904
SWIDTH 833 0
DWIDTH 10 0
BBX 9 9 0 0
BITMAP
DF80
9800
3000
3000
3F00
3000
3000
6000
7F00
ENDCHAR
STARTCHAR Etatonos
ENCODING 905
SWIDTH 917 0
DWIDTH 12 0
BBX 11 9 0 0
BITMAP
D860
9860
30C0
30C0
3FC0
30C0
30C0
6180
6180
ENDCHAR
STARTCHAR Iotatonos
ENCODING 906
SWIDTH 500 0
DWIDTH 6 0
BBX 5 9 0 0
BITMAP
D8
98
30
30
30
30
30
60
60
ENDCHAR
STARTCHAR Omicrontonos
ENCODING 908
SWIDTH 833 0
DWIDTH 10 0
BBX 9 9 0 0
BITMAP
DF00
B300
3180
6180
6180
6180
6300
3300
1E00
ENDCHAR
STARTCHAR Upsilontonos
ENCODING 910
SWIDTH 917 0
DWIDTH 12 0
BBX 11 9 0 0
BITMAP
D860
8CC0
0D80
0F00
0600
0600
0600
0C00
0C00
ENDCHAR
STARTCHAR Omegatonos
ENCODING 911
SWIDTH 833 0
DWIDTH 10 0
BBX 9 9 0 0
BITMAP
DE00
B300
6180
6180
6180
6180
6300
3600
F700
ENDCHAR
STARTCHAR iotadieresistonos
ENCODING 912
SWIDTH 250 0
DWIDTH 6 0
BBX 5 11 0 0
BITMAP
10
20
A8
00
60
60
60
60
60
C0
C0
ENDCHAR
STARTCHAR Alpha
ENCODING 913
SWIDTH 750 0
DWIDTH 9 0
BBX 8 9 0 0
BITMAP
0E
0A
1A
1B
33
3F
63
63
C3
ENDCHAR
STARTCHAR Beta
ENCODING 914
SWIDTH 667 0
DWIDTH 9 0
BBX 8 9 0 0
BITMAP
3E
33
63
63
7E
63
63
C3
FE
ENDCHAR
STARTCHAR Gamma
ENCODING 915
SWIDTH 583 0
DWIDTH 9 0
BBX 8 9 0 0
BITMAP
3F
30
60
60
60
60
60
C0
C0
ENDCHAR
STARTCHAR Delta
ENCODING 916
SWIDTH 750 0
DWIDTH 9 0
BBX 8 9 0 0
BITMAP
06
0E
1E
16
32
23
63
63
FF
ENDCHAR
STARTCHAR Epsilon
ENCODING 917
SWIDTH 667 0
DWIDTH 9 0
BBX 8 9 0 0
BITMAP
3F
30
60
60
7E
60
60
C0
FE
ENDCHAR
STARTCHAR Zeta
ENCODING 918
SWIDTH 583 0
DWIDTH 9 0
BBX 8 9 0 0
BITMAP
3F
06
0E
0C
18
30
60
60
FC
ENDCHAR
STARTCHAR Eta
ENCODING 919
SWIDTH 750 0
DWIDTH 11 0
BBX 10 9 0 0
BITMAP
30C0
30C0
6180
6180
7F80
6180
6180
C300
C300
ENDCHAR
STARTCHAR Theta
ENCODING 920
SWIDTH 750 0
DWIDTH 9 0
BBX 8 9 0 0
BITMAP
3E
66
63
C3
DB
C3
C6
66
3C
ENDCHAR
STARTCHAR Iota
ENCODING 921
SWIDTH 250 0
DWIDTH 5 0
BBX 4 9 0 0
BITMAP
30
30
60
60
60
60
60
C0
C0
ENDCHAR
STARTCHAR Kappa
ENCODING 922
SWIDTH 750 0
DWIDTH 11 0
BBX 10 9 0 0
BITMAP
3180
3300
6600
6C00
7C00
6C00
6600
C600
C300
ENDCHAR
STARTCHAR Lambda
ENCODING 923
SWIDTH 667 0
DWIDTH 8 0
BBX 7 9 0 0
BITMAP
0E
1E
1E
36
36
26
66
66
C6
ENDCHAR
STARTCHAR Mu
ENCODING 924
SWIDTH 917 0
DWIDTH 13 0
BBX 12 9 0 0
BITMAP
3870
38F0
68E0
69E0
6960
6A60
6A60
CCC0
CCC0
ENDCHAR
STARTCHAR Nu
ENCODING 925
SWIDTH 750 0
DWIDTH 11 0
BBX 10 9 0 0
BITMAP
38C0
38C0
6980
6980
6D80
6580
6580
C700
C700
ENDCHAR
STARTCHAR Xi
ENCODING 926
SWIDTH 667 0
DWIDTH 9 0
BBX 8 9 0 0
BITMAP
3F
00
00
00
3E
00
00
00
FE
ENDCHAR
STARTCHAR Omicron
ENCODING 927
SWIDTH 750 0
DWIDTH 9 0
BBX 8 9 0 0
BITMAP
3E
66
63
C3
C3
C3
C6
66
3C
ENDCHAR
STARTCHAR Pi
ENCODING 928
SWIDTH 750 0
DWIDTH 11 0
BBX 10 9 0 0
BITMAP
3FC0
30C0
6180
6180
6180
6180
6180
C300
C300
ENDCHAR
STARTCHAR Rho
ENCODING 929
SWIDTH 667 0
DWIDTH 9 0
BBX 8 9 0 0
BITMAP
3E
33
63
63
7E
60
60
C0
C0
ENDCHAR
STARTCHAR Sigma
ENCODING 931
SWIDTH 583 0
DWIDTH 9 0
BBX 8 9 0 0
BITMAP
3F
30
18
18
18
30
60
60
FC
ENDCHAR
STARTCHAR Tau
ENCODING 932
SWIDTH 583 0
DWIDTH 9 0
BBX 8 9 0 0
BITMAP
FF
18
30
30
30
30
30
60
60
ENDCHAR
STARTCHAR Upsilon
ENCODING 933
SWIDTH 667 0
DWIDTH 9 0
BBX 8 9 0 0
BITMAP
C3
66
6C
78
30
30
30
60
60
ENDCHAR
STARTCHAR Phi
ENCODING 934
SWIDTH 833 0
DWIDTH 9 0
BBX 8 9 0 0
BITMAP
0C
3E
7B
DB
DB
DB
DE
7C
30
ENDCHAR
STARTCHAR Chi
ENCODING 935
SWIDTH 667 0
DWIDTH 10 0
BBX 9 9 0 0
BITMAP
3180
1300
1E00
1C00
0800
1C00
3C00
6400
C600
ENDCHAR
STARTCHAR Psi
ENCODING 936
SWIDTH 833 0
DWIDTH 10 0
BBX 9 9 0 0
BITMAP
6D80
6D80
DB00
DB00
DB00
7E00
1800
3000
3000
ENDCHAR
STARTCHAR Omega
ENCODING 937
SWIDTH 750 0
DWIDTH 10 0
BBX 9 9 0 0
BITMAP
1E00
3300
6180
6180
6180
6180
6300
3600
F700
ENDCHAR
STARTCHAR Iotadieresis
ENCODING 938
SWIDTH 250 0
DWIDTH 7 0
BBX 6 11 0 0
BITMAP
6C
00
30
30
60
60
60
60
60
C0
C0
ENDCHAR
STARTCHAR Upsilondieresis
ENCODING 939
SWIDTH 667 0
DWIDTH 9 0
BBX 8 11 0 0
BITMAP
36
00
C3
66
6C
78
30
30
30
60
60
ENDCHAR
STARTCHAR alphatonos
ENCODING 940
SWIDTH 667 0
DWIDTH 9 0
BBX 8 10 0 0
BITMAP
0C
08
00
3A
6E
CC
CC
CC
DC
6C
ENDCHAR
STARTCHAR epsilontonos
ENCODING 941
SWIDTH 500 0
DWIDTH 6 0
BBX 5 10 0 0
BITMAP
18
10
00
30
68
60
70
C0
D0
60
ENDCHAR
STARTCHAR etatonos
ENCODING 942
SWIDTH 583 0
DWIDTH 8 0
BBX 7 13 0 -3
BITMAP
0C
08
00
6E
76
66
66
66
CC
CC
0C
0C
18
ENDCHAR
STARTCHAR iotatonos
ENCODING 943
SWIDTH 250 0
DWIDTH 5 0
BBX 4 10 0 0
BITMAP
30
20
00
60
60
60
60
60
C0
C0
ENDCHAR
STARTCHAR upsilondieresistonos
ENCODING 944
SWIDTH 667 0
DWIDTH 8 0
BBX 7 11 0 0
BITMAP
08
10
54
00
C6
C6
C6
C6
C4
CC
78
ENDCHAR
STARTCHAR alpha
ENCODING 945
SWIDTH 667 0
DWIDTH 9 0
BBX 8 7 0 0
BITMAP
3A
6E
CC
CC
CC
DC
6C
ENDCHAR
STARTCHAR beta
ENCODING 946
SWIDTH 583 0
DWIDTH 9 0
BBX 8 12 0 -3
BITMAP
0E
1B
33
33
36
33
33
63
7E
60
60
C0
ENDCHAR
STARTCHAR gamma
ENCODING 947
SWIDTH 583 0
DWIDTH 8 0
BBX 7 10 0 -3
BITMAP
C6
CC
CC
58
58
70
60
60
40
40
ENDCHAR
STARTCHAR delta
ENCODING 948
SWIDTH 583 0
DWIDTH 8 0
BBX 7 9 0 0
BITMAP
3E
30
18
38
4C
CC
CC
CC
78
ENDCHAR
STARTCHAR epsilon
ENCODING 949
SWIDTH 500 0
DWIDTH 6 0
BBX 5 7 0 0
BITMAP
30
68
60
70
C0
D0
60
ENDCHAR
STARTCHAR zeta
ENCODING 950
SWIDTH 500 0
DWIDTH 7 0
BBX 6 11 0 -2
BITMAP
3C
08
10
20
60
C0
C0
E0
70
30
20
ENDCHAR
STARTCHAR eta
ENCODING 951
SWIDTH 583 0
DWIDTH 8 0
BBX 7 10 0 -3
BITMAP
6E
76
66
66
66
CC
CC
0C
0C
18
ENDCHAR
STARTCHAR theta
ENCODING 952
SWIDTH 583 0
DWIDTH 7 0
BBX 6 9 0 0
BITMAP
38
6C
6C
CC
FC
CC
D8
D8
70
ENDCHAR
STARTCHAR iota
ENCODING 953
SWIDTH 250 0
DWIDTH 5 0
BBX 4 7 0 0
BITMAP
60
60
60
60
60
C0
C0
ENDCHAR
STARTCHAR kappa
ENCODING 954
SWIDTH 583 0
DWIDTH 8 0
BBX 7 7 0 0
BITMAP
66
6C
68
78
78
D8
CC
ENDCHAR
STARTCHAR lambda
ENCODING 955
SWIDTH 583 0
DWIDTH 7 0
BBX 6 9 0 0
BITMAP
38
0C
0C
1C
1C
3C
2C
6C
CC
ENDCHAR
STARTCHAR mu
ENCODING 956
SWIDTH 583 0
DWIDTH 10 0
BBX 9 10 0 -3
BITMAP
3300
3300
3300
3300
3300
7600
7E00
6000
6000
C000
ENDCHAR
STARTCHAR nu
ENCODING 957
SWIDTH 583 0
DWIDTH 7 0
BBX 6 7 0 0
BITMAP
CC
CC
CC
D8
D8
F0
E0
ENDCHAR
STARTCHAR xi
ENCODING 958
SWIDTH 417 0
DWIDTH 6 0
BBX 5 11 0 -2
BITMAP
78
60
60
10
60
C0
C0
E0
70
30
20
ENDCHAR
STARTCHAR omicron
ENCODING 959
SWIDTH 583 0
DWIDTH 7 0
BBX 6 7 0 0
BITMAP
38
4C
CC
CC
CC
C8
70
ENDCHAR
STARTCHAR pi
ENCODING 960
SWIDTH 750 0
DWIDTH 10 0
BBX 9 7 0 0
BITMAP
FF80
6600
6600
6600
6600
CC00
C600
ENDCHAR
STARTCHAR rho
ENCODING 961
SWIDTH 583 0
DWIDTH 9 0
BBX 8 10 0 -3
BITMAP
1E
33
33
33
33
76
7C
60
60
C0
ENDCHAR
STARTCHAR sigma1
ENCODING 962
SWIDTH 500 0
DWIDTH 6 0
BBX 5 9 0 -2
BITMAP
38
60
C0
C0
C0
E0
70
30
20
ENDCHAR
STARTCHAR sigma
ENCODING 963
SWIDTH 583 0
DWIDTH 9 0
BBX 8 7 0 0
BITMAP
3F
6C
CC
CC
CC
C8
70
ENDCHAR
STARTCHAR tau
ENCODING 964
SWIDTH 417 0
DWIDTH 6 0
BBX 5 7 0 0
BITMAP
F8
60
60
60
60
C0
60
ENDCHAR
STARTCHAR upsilon
ENCODING 965
SWIDTH 667 0
DWIDTH 8 0
BBX 7 7 0 0
BITMAP
C6
C6
C6
C6
C4
CC
78
ENDCHAR
STARTCHAR phi
ENCODING 966
SWIDTH 750 0
DWIDTH 9 0
BBX 8 10 0 -3
BITMAP
36
6B
CB
D3
D3
D6
7C
10
20
20
ENDCHAR
STARTCHAR chi
ENCODING 967
SWIDTH 583 0
DWIDTH 9 0
BBX 8 10 0 -3
BITMAP
31
1A
1C
0C
0C
1C
2C
24
46
86
ENDCHAR
STARTCHAR psi
ENCODING 968
SWIDTH 750 0
DWIDTH 10 0
BBX 9 12 0 -3
BITMAP
0C00
0C00
FB00
DB00
DB00
DB00
DB00
F600
FC00
3000
3000
6000
ENDCHAR
STARTCHAR omega
ENCODING 969
SWIDTH 833 0
DWIDTH 10 0
BBX 9 7 0 0
BITMAP
3300
6180
C180
CD80
CD80
DD00
7700
ENDCHAR
STARTCHAR iotadieresis
ENCODING 970
SWIDTH 250 0
DWIDTH 6 0
BBX 5 9 0 0
BITMAP
D8
00
60
60
60
60
60
C0
C0
ENDCHAR
STARTCHAR upsilondieresis
ENCODING 971
SWIDTH 667 0
DWIDTH 8 0
BBX 7 9 0 0
BITMAP
6C
00
C6
C6
C6
C6
C4
CC
78
ENDCHAR
STARTCHAR omicrontonos
ENCODING 972
SWIDTH 583 0
DWIDTH 7 0
BBX 6 10 0 0
BITMAP
0C
08
00
38
4C
CC
CC
CC
C8
70
ENDCHAR
STARTCHAR upsilontonos
ENCODING 973
SWIDTH 667 0
DWIDTH 8 0
BBX 7 10 0 0
BITMAP
0C
08
00
C6
C6
C6
C6
C4
CC
78
ENDCHAR
STARTCHAR omegatonos
ENCODING 974
SWIDTH 833 0
DWIDTH 10 0
BBX 9 10 0 0
BITMAP
0600
0400
0000
3300
6180
C180
CD80
CD80
DD00
7700
ENDCHAR
STARTCHAR afii10023
ENCODING 1025
SWIDTH 667 0
DWIDTH 9 0
BBX 8 11 0 0
BITMAP
1B
00
3F
30
60
60
7E
60
60
C0
FE
ENDCHAR
STARTCHAR afii10051
ENCODING 1026
SWIDTH 917 0
DWIDTH 11 0
BBX 10 9 0 0
BITMAP
FF00
1800
3000
3F80
30C0
30C0
30C0
6580
6F80
ENDCHAR
STARTCHAR afii10052
ENCODING 1027
SWIDTH 583 0
DWIDTH 9 0
BBX 8 12 0 0
BITMAP
06
08
00
3F
30
60
60
60
60
60
C0
C0
ENDCHAR
STARTCHAR afii10053
ENCODING 1028
SWIDTH 750 0
DWIDTH 9 0
BBX 8 9 0 0
BITMAP
1E
63
60
C0
F8
C0
C0
66
7C
ENDCHAR
STARTCHAR afii10054
ENCODING 1029
SWIDTH 667 0
DWIDTH 8 0
BBX 7 9 0 0
BITMAP
3C
66
60
70
38
0C
0C
CC
78
ENDCHAR
STARTCHAR afii10055
ENCODING 1030
SWIDTH 250 0
DWIDTH 5 0
BBX 4 9 0 0
BITMAP
30
30
60
60
60
60
60
C0
C0
ENDCHAR
STARTCHAR afii10056
ENCODING 1031
SWIDTH 250 0
DWIDTH 7 0
BBX 6 11 0 0
BITMAP
6C
00
30
30
60
60
60
60
60
C0
C0
ENDCHAR
STARTCHAR afii10057
ENCODING 1032
SWIDTH 500 0
DWIDTH 8 0
BBX 7 9 0 0
BITMAP
1E
06
0C
0C
0C
0C
0C
D8
70
ENDCHAR
STARTCHAR afii10058
ENCODING 1033
SWIDTH 1083 0
DWIDTH 14 0
BBX 13 9 0 0
BITMAP
1F80
1980
1B00
1B00
33F0
3318
3318
6618
C7F0
ENDCHAR
STARTCHAR afii10059
ENCODING 1034
SWIDTH 1083 0
DWIDTH 14 0
BBX 13 9 0 0
BITMAP
3180
3180
6300
6300
7FF0
6318
6318
C618
C7F0
ENDCHAR
STARTCHAR afii10060
ENCODING 1035
SWIDTH 833 0
DWIDTH 10 0
BBX 9 9 0 0
BITMAP
FF00
1800
3000
3F00
3180
3180
3180
6180
6100
ENDCHAR
STARTCHAR afii10061
ENCODING 1036
SWIDTH 667 0
DWIDTH 10 0
BBX 9 12 0 0
BITMAP
0300
0400
0000
3180
3300
6600
6C00
7C00
6C00
6C00
CE00
C600
ENDCHAR
STARTCHAR afii10062
ENCODING 1038
SWIDTH 667 0
DWIDTH 9 0
BBX 8 12 0 0
BITMAP
32
1C
00
63
66
26
3C
38
38
30
30
E0
ENDCHAR
STARTCHAR afii10145
ENCODING 1039
SWIDTH 750 0
DWIDTH 11 0
BBX 10 11 0 -2
BITMAP
30C0
30C0
6180
6180
6180
6180
6180
C300
FF00
1800
1800
ENDCHAR
STARTCHAR afii10017
ENCODING 1040
SWIDTH 750 0
DWIDTH 9 0
BBX 8 9 0 0
BITMAP
0E
0A
1A
1B
33
3F
63
63
C3
ENDCHAR
STARTCHAR afii10018
ENCODING 1041
SWIDTH 667 0
DWIDTH 9 0
BBX 8 9 0 0
BITMAP
3F
30
60
60
7E
63
63
C3
FE
ENDCHAR
STARTCHAR afii10019
ENCODING 1042
SWIDTH 667 0
DWIDTH 9 0
BBX 8 9 0 0
BITMAP
3E
33
63
63
7E
63
63
C3
FE
ENDCHAR
STARTCHAR afii10020
ENCODING 1043
SWIDTH 583 0
DWIDTH 9 0
BBX 8 9 0 0
BITMAP
3F
30
60
60
60
60
60
C0
C0
ENDCHAR
STARTCHAR afii10021
ENCODING 1044
SWIDTH 750 0
DWIDTH 11 0
BBX 10 11 0 -2
BITMAP
0FC0
0CC0
0D80
0D80
1980
1980
3180
3300
7F80
C180
C180
ENDCHAR
STARTCHAR afii10022
ENCODING 1045
SWIDTH 667 0
DWIDTH 9 0
BBX 8 9 0 0
BITMAP
3F
30
60
60
7E
60
60
C0
FE
ENDCHAR
STARTCHAR afii10024
ENCODING 1046
SWIDTH 917 0
DWIDTH 13 0
BBX 12 9 0 0
BITMAP
3330
1360
16C0
1E80
1F80
36C0
36C0
6CC0
CC60
ENDCHAR
STARTCHAR afii10025
ENCODING 1047
SWIDTH 667 0
DWIDTH 9 0
BBX 8 9 0 0
BITMAP
1E
63
23
07
18
06
C6
C6
7C
ENDCHAR
STARTCHAR afii10026
ENCODING 1048
SWIDTH 750 0
DWIDTH 11 0
BBX 10 9 0 0
BITMAP
30C0
31C0
6380
6580
6D80
6980
7180
E300
C300
ENDCHAR
STARTCHAR afii10027
ENCODING 1049
SWIDTH 750 0
DWIDTH 11 0
BBX 10 12 0 0
BITMAP
0C80
0700
0000
30C0
31C0
6380
6580
6D80
6980
7180
E300
C300
ENDCHAR
STARTCHAR afii10028
ENCODING 1050
SWIDTH 667 0
DWIDTH 10 0
BBX 9 9 0 0
BITMAP
3180
3300
6600
6C00
7C00
6C00
6C00
CE00
C600
ENDCHAR
STARTCHAR afii10029
ENCODING 1051
SWIDTH 667 0
DWIDTH 10 0
BBX 9 9 0 0
BITMAP
1F80
1980
3300
3300
3300
3300
6300
6600
C600
ENDCHAR
STARTCHAR afii10030
ENCODING 1052
SWIDTH 917 0
DWIDTH 13 0
BBX 12 9 0 0
BITMAP
3870
38F0
68E0
69E0
6960
6A60
6A60
CCC0
CCC0
ENDCHAR
STARTCHAR afii10031
ENCODING 1053
SWIDTH 750 0
DWIDTH 11 0
BBX 10 9 0 0
BITMAP
30C0
30C0
6180
6180
7F80
6180
6180
C300
C300
ENDCHAR
STARTCHAR afii10032
ENCODING 1054
SWIDTH 750 0
DWIDTH 9 0
BBX 8 9 0 0
BITMAP
3E
66
63
C3
C3
C3
C6
66
3C
ENDCHAR
STARTCHAR afii10033
ENCODING 1055
SWIDTH 750 0
DWIDTH 11 0
BBX 10 9 0 0
BITMAP
3FC0
30C0
6180
6180
6180
6180
6180
C300
C300
ENDCHAR
STARTCHAR afii10034
ENCODING 1056
SWIDTH 667 0
DWIDTH 9 0
BBX 8 9 0 0
BITMAP
3E
33
63
63
7E
60
60
C0
C0
ENDCHAR
STARTCHAR afii10035
ENCODING 1057
SWIDTH 750 0
DWIDTH 9 0
BBX 8 9 0 0
BITMAP
1E
63
60
C0
C0
C0
C0
66
7C
ENDCHAR
STARTCHAR afii10036
ENCODING 1058
SWIDTH 583 0
DWIDTH 9 0
BBX 8 9 0 0
BITMAP
FF
18
30
30
30
30
30
60
60
ENDCHAR
STARTCHAR afii10037
ENCODING 1059
SWIDTH 667 0
DWIDTH 9 0
BBX 8 9 0 0
BITMAP
63
66
26
3C
38
38
30
30
E0
ENDCHAR
STARTCHAR afii10038
ENCODING 1060
SWIDTH 750 0
DWIDTH 9 0
BBX 8 9 0 0
BITMAP
0C
3E
7B
DB
DB
DB
DE
7C
30
ENDCHAR
STARTCHAR afii10039
ENCODING 1061
SWIDTH 667 0
DWIDTH 10 0
BBX 9 9 0 0
BITMAP
3180
1300
1E00
1C00
0800
1C00
3C00
6400
C600
ENDCHAR
STARTCHAR afii10040
ENCODING 1062
SWIDTH 750 0
DWIDTH 10 0
BBX 9 11 0 -2
BITMAP
3180
3180
6300
6300
6300
6300
6300
C600
FF00
0100
0300
ENDCHAR
STARTCHAR afii10041
ENCODING 1063
SWIDTH 750 0
DWIDTH 10 0
BBX 9 9 0 0
BITMAP
6180
6180
C300
C300
E300
7F00
0300
0600
0600
ENDCHAR
STARTCHAR afii10042
ENCODING 1064
SWIDTH 917 0
DWIDTH 13 0
BBX 12 9 0 0
BITMAP
3330
3330
6660
6660
6660
6660
6660
CCC0
FFC0
ENDCHAR
STARTCHAR afii10043
ENCODING 1065
SWIDTH 917 0
DWIDTH 13 0
BBX 12 11 0 -2
BITMAP
3330
3330
6660
6660
6660
6660
6660
CCC0
FFE0
0020
0060
ENDCHAR
STARTCHAR afii10044
ENCODING 1066
SWIDTH 833 0
DWIDTH 10 0
BBX 9 9 0 0
BITMAP
F800
1800
3000
3000
3F00
3180
3180
6180
7F00
ENDCHAR
STARTCHAR afii10045
ENCODING 1067
SWIDTH 1000 0
DWIDTH 14 0
BBX 13 9 0 0
BITMAP
3018
3018
6030
6030
7E30
6330
6330
C360
FE60
ENDCHAR
STARTCHAR afii10046
ENCODING 1068
SWIDTH 667 0
DWIDTH 9 0
BBX 8 9 0 0
BITMAP
30
30
60
60
7E
63
63
C3
FE
ENDCHAR
STARTCHAR afii10047
ENCODING 1069
SWIDTH 750 0
DWIDTH 9 0
BBX 8 9 0 0
BITMAP
1E
27
63
03
1F
03
C6
C6
78
ENDCHAR
STARTCHAR afii10048
ENCODING 1070
SWIDTH 1083 0
DWIDTH 14 0
BBX 13 9 0 0
BITMAP
31F0
3330
6318
6618
7E18
6618
6630
C330
C1E0
ENDCHAR
STARTCHAR afii10049
ENCODING 1071
SWIDTH 750 0
DWIDTH 11 0
BBX 10 9 0 0
BITMAP
1FC0
30C0
3180
3180
1F80
1980
3180
6300
C300
ENDCHAR
STARTCHAR afii10065
ENCODING 1072
SWIDTH 583 0
DWIDTH 7 0
BBX 6 7 0 0
BITMAP
3C
6C
0C
7C
C8
D8
EC
ENDCHAR
STARTCHAR afii10066
ENCODING 1073
SWIDTH 583 0
DWIDTH 8 0
BBX 7 9 0 0
BITMAP
0E
70
40
F8
CC
CC
CC
CC
78
ENDCHAR
STARTCHAR afii10067
ENCODING 1074
SWIDTH 583 0
DWIDTH 8 0
BBX 7 7 0 0
BITMAP
3C
66
66
7C
66
C6
FC
ENDCHAR
STARTCHAR afii10068
ENCODING 1075
SWIDTH 583 0
DWIDTH 7 0
BBX 6 7 0 0
BITMAP
38
4C
1C
78
E0
C8
70
ENDCHAR
STARTCHAR afii10069
ENCODING 1076
SWIDTH 583 0
DWIDTH 7 0
BBX 6 9 0 0
BITMAP
38
0C
0C
7C
CC
CC
CC
D8
70
ENDCHAR
STARTCHAR afii10070
ENCODING 1077
SWIDTH 583 0
DWIDTH 7 0
BBX 6 7 0 0
BITMAP
38
6C
CC
FC
C0
D8
70
ENDCHAR
STARTCHAR afii10072
ENCODING 1078
SWIDTH 750 0
DWIDTH 12 0
BBX 11 7 0 0
BITMAP
6620
3640
3680
3F80
3780
6D80
CCC0
ENDCHAR
STARTCHAR afii10073
ENCODING 1079
SWIDTH 500 0
DWIDTH 7 0
BBX 6 7 0 0
BITMAP
38
4C
0C
30
18
98
70
ENDCHAR
STARTCHAR afii10074
ENCODING 1080
SWIDTH 583 0
DWIDTH 9 0
BBX 8 7 0 0
BITMAP
66
66
66
66
66
6C
7C
ENDCHAR
STARTCHAR afii10075
ENCODING 1081
SWIDTH 583 0
DWIDTH 9 0
BBX 8 10 0 0
BITMAP
19
0E
00
66
66
66
66
66
6C
7C
ENDCHAR
STARTCHAR afii10076
ENCODING 1082
SWIDTH 583 0
DWIDTH 8 0
BBX 7 7 0 0
BITMAP
62
64
68
78
78
C8
CC
ENDCHAR
STARTCHAR afii10077
ENCODING 1083
SWIDTH 667 0
DWIDTH 10 0
BBX 9 7 0 0
BITMAP
1F00
1B00
1B00
3300
3300
6600
E600
ENDCHAR
STARTCHAR afii10078
ENCODING 1084
SWIDTH 750 0
DWIDTH 11 0
BBX 10 7 0 0
BITMAP
7180
7280
7380
7580
5580
D900
DB00
ENDCHAR
STARTCHAR afii10079
ENCODING 1085
SWIDTH 583 0
DWIDTH 9 0
BBX 8 7 0 0
BITMAP
66
66
66
7E
66
CC
CC
ENDCHAR
STARTCHAR afii10080
ENCODING 1086
SWIDTH 583 0
DWIDTH 7 0
BBX 6 7 0 0
BITMAP
38
4C
CC
CC
CC
C8
70
ENDCHAR
STARTCHAR afii10081
ENCODING 1087
SWIDTH 583 0
DWIDTH 9 0
BBX 8 7 0 0
BITMAP
7E
66
66
66
66
CC
CC
ENDCHAR
STARTCHAR afii10082
ENCODING 1088
SWIDTH 583 0
DWIDTH 9 0
BBX 8 10 0 -3
BITMAP
3E
33
33
33
33
76
6E
60
60
C0
ENDCHAR
STARTCHAR afii10083
ENCODING 1089
SWIDTH 583 0
DWIDTH 7 0
BBX 6 7 0 0
BITMAP
38
6C
C0
C0
C0
D8
70
ENDCHAR
STARTCHAR afii10084
ENCODING 1090
SWIDTH 917 0
DWIDTH 11 0
BBX 10 6 0 0
BITMAP
7DC0
66C0
64C0
4CC0
CCC0
CC80
ENDCHAR
STARTCHAR afii10085
ENCODING 1091
SWIDTH 583 0
DWIDTH 9 0
BBX 8 10 0 -3
BITMAP
63
66
66
2C
2C
38
30
30
60
C0
ENDCHAR
STARTCHAR afii10086
ENCODING 1092
SWIDTH 917 0
DWIDTH 11 0
BBX 10 12 0 -3
BITMAP
0600
0600
7D80
4EC0
CCC0
CCC0
CCC0
DD80
7B80
1800
1800
3000
ENDCHAR
STARTCHAR afii10087
ENCODING 1093
SWIDTH 500 0
DWIDTH 7 0
BBX 6 7 0 0
BITMAP
64
68
30
30
30
58
98
ENDCHAR
STARTCHAR afii10088
ENCODING 1094
SWIDTH 583 0
DWIDTH 9 0
BBX 8 9 0 -2
BITMAP
66
66
66
66
66
6C
7E
06
06
ENDCHAR
STARTCHAR afii10089
ENCODING 1095
SWIDTH 583 0
DWIDTH 8 0
BBX 7 7 0 0
BITMAP
CC
CC
CC
CC
FC
18
18
ENDCHAR
STARTCHAR afii10090
ENCODING 1096
SWIDTH 917 0
DWIDTH 13 0
BBX 12 7 0 0
BITMAP
6660
6660
6660
6660
6660
6EC0
77C0
ENDCHAR
STARTCHAR afii10091
ENCODING 1097
SWIDTH 917 0
DWIDTH 13 0
BBX 12 9 0 -2
BITMAP
6660
6660
6660
6660
6660
6EC0
77E0
0020
0060
ENDCHAR
STARTCHAR afii10092
ENCODING 1098
SWIDTH 667 0
DWIDTH 8 0
BBX 7 7 0 0
BITMAP
F0
30
30
3E
36
66
7C
ENDCHAR
STARTCHAR afii10093
ENCODING 1099
SWIDTH 833 0
DWIDTH 12 0
BBX 11 7 0 0
BITMAP
60C0
60C0
60C0
7CC0
6CC0
CD80
F980
ENDCHAR
STARTCHAR afii10094
ENCODING 1100
SWIDTH 583 0
DWIDTH 8 0
BBX 7 7 0 0
BITMAP
60
60
60
7C
66
C6
FC
ENDCHAR
STARTCHAR afii10095
ENCODING 1101
SWIDTH 500 0
DWIDTH 7 0
BBX 6 7 0 0
BITMAP
38
6C
0C
3C
0C
D8
70
ENDCHAR
STARTCHAR afii10096
ENCODING 1102
SWIDTH 833 0
DWIDTH 11 0
BBX 10 6 0 0
BITMAP
67C0
6CC0
78C0
48C0
CC80
CF00
ENDCHAR
STARTCHAR afii10097
ENCODING 1103
SWIDTH 583 0
DWIDTH 9 0
BBX 8 7 0 0
BITMAP
3E
66
66
3E
26
4C
CC
ENDCHAR
STARTCHAR afii10071
ENCODING 1105
SWIDTH 583 0
DWIDTH 7 0
BBX 6 9 0 0
BITMAP
6C
00
38
6C
CC
FC
C0
D8
70
ENDCHAR
STARTCHAR afii10099
ENCODING 1106
SWIDTH 583 0
DWIDTH 8 0
BBX 7 12 0 -3
BITMAP
30
7C
60
7C
66
66
66
CC
CC
0C
0C
38
ENDCHAR
STARTCHAR afii10100
ENCODING 1107
SWIDTH 500 0
DWIDTH 7 0
BBX 6 10 0 0
BITMAP
0C
10
00
7C
60
60
60
60
C0
C0
ENDCHAR
STARTCHAR afii10101
ENCODING 1108
SWIDTH 583 0
DWIDTH 7 0
BBX 6 7 0 0
BITMAP
38
6C
C0
F0
C0
D8
70
ENDCHAR
STARTCHAR afii10102
ENCODING 1109
SWIDTH 583 0
DWIDTH 8 0
BBX 7 7 0 0
BITMAP
3C
66
60
7C
0C
CC
78
ENDCHAR
STARTCHAR afii10103
ENCODING 1110
SWIDTH 250 0
DWIDTH 5 0
BBX 4 9 0 0
BITMAP
30
00
60
60
60
60
60
C0
C0
ENDCHAR
STARTCHAR afii10104
ENCODING 1111
SWIDTH 250 0
DWIDTH 6 0
BBX 5 9 0 0
BITMAP
D8
00
60
60
60
60
60
C0
C0
ENDCHAR
STARTCHAR afii10105
ENCODING 1112
SWIDTH 250 0
DWIDTH 7 0
BBX 6 12 0 -3
BITMAP
0C
00
18
18
18
18
18
30
30
30
30
E0
ENDCHAR
STARTCHAR afii10106
ENCODING 1113
SWIDTH 1000 0
DWIDTH 13 0
BBX 12 7 0 0
BITMAP
1F00
1B00
3B00
33E0
3330
6630
E7E0
ENDCHAR
STARTCHAR afii10107
ENCODING 1114
SWIDTH 917 0
DWIDTH 12 0
BBX 11 7 0 0
BITMAP
6600
6600
6600
7FC0
6660
CC60
CFC0
ENDCHAR
STARTCHAR afii10108
ENCODING 1115
SWIDTH 583 0
DWIDTH 8 0
BBX 7 9 0 0
BITMAP
30
7C
60
7E
66
66
66
CC
CC
ENDCHAR
STARTCHAR afii10109
ENCODING 1116
SWIDTH 583 0
DWIDTH 8 0
BBX 7 10 0 0
BITMAP
06
08
00
62
64
68
78
78
C8
CC
ENDCHAR
STARTCHAR afii10110
ENCODING 1118
SWIDTH 583 0
DWIDTH 9 0
BBX 8 13 0 -3
BITMAP
32
1C
00
63
66
66
2C
2C
38
30
30
60
C0
ENDCHAR
STARTCHAR afii10193
ENCODING 1119
SWIDTH 583 0
DWIDTH 9 0
BBX 8 9 0 -2
BITMAP
66
66
66
66
66
6C
7C
30
30
ENDCHAR
STARTCHAR afii10050
ENCODING 1168
SWIDTH 583 0
DWIDTH 9 0
BBX 8 11 0 0
BITMAP
03
03
3E
30
60
60
60
60
60
C0
C0
ENDCHAR
STARTCHAR afii10098
ENCODING 1169
SWIDTH 500 0
DWIDTH 8 0
BBX 7 9 0 0
BITMAP
06
06
7C
60
60
60
60
C0
C0
ENDCHAR
STARTCHAR Wgrave
ENCODING 7808
SWIDTH 1000 0
DWIDTH 12 0
BBX 11 12 0 0
BITMAP
1800
0C00
0000
CC60
CC40
CCC0
D4C0
D480
D580
E500
E700
E600
ENDCHAR
STARTCHAR wgrave
ENCODING 7809
SWIDTH 833 0
DWIDTH 11 0
BBX 10 10 0 0
BITMAP
1800
0C00
0000
CCC0
CD80
D580
D500
D700
6600
6600
ENDCHAR
STARTCHAR Wacute
ENCODING 7810
SWIDTH 1000 0
DWIDTH 12 0
BBX 11 12 0 0
BITMAP
0300
0400
0000
CC60
CC40
CCC0
D4C0
D480
D580
E500
E700
E600
ENDCHAR
STARTCHAR wacute
ENCODING 7811
SWIDTH 833 0
DWIDTH 11 0
BBX 10 10 0 0
BITMAP
0300
0400
0000
CCC0
CD80
D580
D500
D700
6600
6600
ENDCHAR
STARTCHAR Wdieresis
ENCODING 7812
SWIDTH 1000 0
DWIDTH 12 0
BBX 11 11 0 0
BITMAP
1B00
0000
CC60
CC40
CCC0
D4C0
D480
D580
E500
E700
E600
ENDCHAR
STARTCHAR wdieresis
ENCODING 7813
SWIDTH 833 0
DWIDTH 11 0
BBX 10 9 0 0
BITMAP
1B00
0000
CCC0
CD80
D580
D500
D700
6600
6600
ENDCHAR
STARTCHAR Ygrave
ENCODING 7922
SWIDTH 667 0
DWIDTH 9 0
BBX 8 12 0 0
BITMAP
18
0C
00
C3
66
6C
78
30
30
30
60
60
ENDCHAR
STARTCHAR ygrave
ENCODING 7923
SWIDTH 583 0
DWIDTH 9 0
BBX 8 13 0 -3
BITMAP
30
18
00
63
66
66
2C
2C
38
30
30
60
C0
ENDCHAR
STARTCHAR uni2010
ENCODING 8208
SWIDTH 333 0
DWIDTH 4 0
BBX 3 1 0 3
BITMAP
E0
ENDCHAR
STARTCHAR uni2011
ENCODING 8209
SWIDTH 333 0
DWIDTH 4 0
BBX 3 1 0 3
BITMAP
E0
ENDCHAR
STARTCHAR figuredash
ENCODING 8210
SWIDTH 333 0
DWIDTH 4 0
BBX 3 1 0 3
BITMAP
E0
ENDCHAR
STARTCHAR endash
ENCODING 8211
SWIDTH 583 0
DWIDTH 7 0
BBX 6 1 0 3
BITMAP
FC
ENDCHAR
STARTCHAR emdash
ENCODING 8212
SWIDTH 1000 0
DWIDTH 12 0
BBX 11 1 0 3
BITMAP
FFE0
ENDCHAR
STARTCHAR afii00208
ENCODING 8213
SWIDTH 1000 0
DWIDTH 13 0
BBX 12 1 0 3
BITMAP
FFF0
ENDCHAR
STARTCHAR underscoredbl
ENCODING 8215
SWIDTH 583 0
DWIDTH 9 0
BBX 8 3 0 -4
BITMAP
FF
00
FF
ENDCHAR
STARTCHAR quoteleft
ENCODING 8216
SWIDTH 250 0
DWIDTH 4 0
BBX 3 4 0 5
BITMAP
40
40
C0
C0
ENDCHAR
STARTCHAR quoteright
ENCODING 8217
SWIDTH 250 0
DWIDTH 3 0
BBX 2 4 0 5
BITMAP
C0
C0
80
80
ENDCHAR
STARTCHAR quotesinglbase
ENCODING 8218
SWIDTH 250 0
DWIDTH 3 0
BBX 2 4 0 -2
BITMAP
C0
C0
40
80
ENDCHAR
STARTCHAR quotereversed
ENCODING 8219
SWIDTH 250 0
DWIDTH 3 0
BBX 2 4 0 5
BITMAP
C0
C0
80
80
ENDCHAR
STARTCHAR quotedblleft
ENCODING 8220
SWIDTH 500 0
DWIDTH 7 0
BBX 6 4 0 5
BITMAP
48
48
F8
D8
ENDCHAR
STARTCHAR quotedblright
ENCODING 8221
SWIDTH 500 0
DWIDTH 6 0
BBX 5 4 0 5
BITMAP
D8
D8
90
90
ENDCHAR
STARTCHAR quotedblbase
ENCODING 8222
SWIDTH 500 0
DWIDTH 6 0
BBX 5 4 0 -2
BITMAP
D8
D8
48
90
ENDCHAR
STARTCHAR dagger
ENCODING 8224
SWIDTH 583 0
DWIDTH 7 0
BBX 6 10 0 -1
BITMAP
30
30
FC
30
30
20
20
60
60
60
ENDCHAR
STARTCHAR daggerdbl
ENCODING 8225
SWIDTH 583 0
DWIDTH 9 0
BBX 8 10 0 -1
BITMAP
0C
0C
3F
18
18
18
10
FC
30
30
ENDCHAR
STARTCHAR bullet
ENCODING 8226
SWIDTH 333 0
DWIDTH 4 0
BBX 3 3 0 3
BITMAP
E0
E0
E0
ENDCHAR
STARTCHAR ellipsis
ENCODING 8230
SWIDTH 1000 0
DWIDTH 11 0
BBX 10 2 0 0
BITMAP
CCC0
CCC0
ENDCHAR
STARTCHAR perthousand
ENCODING 8240
SWIDTH 833 0
DWIDTH 10 0
BBX 9 9 0 0
BITMAP
6400
A800
A800
D000
1000
2D80
5680
5680
9B00
ENDCHAR
STARTCHAR minute
ENCODING 8242
SWIDTH 250 0
DWIDTH 3 0
BBX 2 3 0 6
BITMAP
C0
80
80
ENDCHAR
STARTCHAR second
ENCODING 8243
SWIDTH 500 0
DWIDTH 6 0
BBX 5 3 0 6
BITMAP
D8
90
90
ENDCHAR
STARTCHAR guilsinglleft
ENCODING 8249
SWIDTH 333 0
DWIDTH 4 0
BBX 3 5 0 1
BITMAP
20
40
80
80
40
ENDCHAR
STARTCHAR guilsinglright
ENCODING 8250
SWIDTH 333 0
DWIDTH 4 0
BBX 3 5 0 1
BITMAP
40
20
20
40
80
ENDCHAR
STARTCHAR exclamdbl
ENCODING 8252
SWIDTH 667 0
DWIDTH 8 0
BBX 7 9 0 0
BITMAP
36
36
24
6C
6C
6C
00
D8
D8
ENDCHAR
STARTCHAR uni203E
ENCODING 8254
SWIDTH 333 0
DWIDTH 5 0
BBX 4 1 0 9
BITMAP
F0
ENDCHAR
STARTCHAR fraction
ENCODING 8260
SWIDTH 167 0
DWIDTH 9 0
BBX 8 9 0 0
BITMAP
01
02
04
08
10
10
20
40
80
ENDCHAR
STARTCHAR uni207F
ENCODING 8319
SWIDTH 417 0
DWIDTH 5 0
BBX 4 4 0 3
BITMAP
70
D0
90
90
ENDCHAR
STARTCHAR franc
ENCODING 8355
SWIDTH 583 0
DWIDTH 9 0
BBX 8 9 0 0
BITMAP
3F
30
60
60
7E
60
F0
C0
C0
ENDCHAR
STARTCHAR lira
ENCODING 8356
SWIDTH 583 0
DWIDTH 8 0
BBX 7 9 0 0
BITMAP
1C
1A
30
7C
30
7C
30
66
FC
ENDCHAR
STARTCHAR peseta
ENCODING 8359
SWIDTH 1083 0
DWIDTH 14 0
BBX 13 9 0 0
BITMAP
3800
3C00
7C00
6D00
7FF8
6368
6378
C698
C3F0
ENDCHAR
STARTCHAR Euro
ENCODING 8364
SWIDTH 583 0
DWIDTH 8 0
BBX 7 9 0 0
BITMAP
1E
32
30
78
60
F8
60
64
38
ENDCHAR
STARTCHAR afii61248
ENCODING 8453
SWIDTH 917 0
DWIDTH 10 0
BBX 9 9 0 0
BITMAP
7100
9200
8400
A400
EB80
1480
1480
2580
4700
ENDCHAR
STARTCHAR afii61289
ENCODING 8467
SWIDTH 500 0
DWIDTH 8 0
BBX 7 9 0 0
BITMAP
1C
36
66
6C
70
E0
60
68
70
ENDCHAR
STARTCHAR afii61352
ENCODING 8470
SWIDTH 1167 0
DWIDTH 15 0
BBX 14 9 0 0
BITMAP
30C0
38C0
7980
7DBC
6DEC
6FEC
67F8
C700
C3F8
ENDCHAR
STARTCHAR trademark
ENCODING 8482
SWIDTH 917 0
DWIDTH 9 0
BBX 8 4 0 5
BITMAP
FB
5B
5B
55
ENDCHAR
STARTCHAR u2126
ENCODING 8486
SWIDTH 750 0
DWIDTH 9 0
BBX 8 9 0 0
BITMAP
3C
66
C3
C3
C3
C3
42
66
E7
ENDCHAR
STARTCHAR estimated
ENCODING 8494
SWIDTH 583 0
DWIDTH 6 0
BBX 5 7 0 0
BITMAP
70
88
88
F8
80
88
70
ENDCHAR
STARTCHAR oneeighth
ENCODING 8539
SWIDTH 833 0
DWIDTH 9 0
BBX 8 9 0 0
BITMAP
61
A2
44
48
F7
15
23
45
87
ENDCHAR
STARTCHAR threeeighths
ENCODING 8540
SWIDTH 833 0
DWIDTH 9 0
BBX 8 9 0 0
BITMAP
E1
A2
44
A8
F7
15
23
45
87
ENDCHAR
STARTCHAR fiveeighths
ENCODING 8541
SWIDTH 833 0
DWIDTH 10 0
BBX 9 9 0 0
BITMAP
3080
4100
7200
1400
EB80
0A80
1180
2280
4380
ENDCHAR
STARTCHAR seveneighths
ENCODING 8542
SWIDTH 833 0
DWIDTH 9 0
BBX 8 9 0 0
BITMAP
79
12
24
28
57
15
23
45
87
ENDCHAR
STARTCHAR arrowleft
ENCODING 8592
SWIDTH 1000 0
DWIDTH 8 0
BBX 7 3 0 0
BITMAP
40
FE
40
ENDCHAR
STARTCHAR arrowup
ENCODING 8593
SWIDTH 500 0
DWIDTH 4 0
BBX 3 7 0 0
BITMAP
40
E0
40
40
40
40
40
ENDCHAR
STARTCHAR arrowright
ENCODING 8594
SWIDTH 1000 0
DWIDTH 8 0
BBX 7 3 0 0
BITMAP
04
FE
04
ENDCHAR
STARTCHAR arrowdown
ENCODING 8595
SWIDTH 500 0
DWIDTH 4 0
BBX 3 7 0 0
BITMAP
40
40
40
40
40
E0
40
ENDCHAR
STARTCHAR arrowboth
ENCODING 8596
SWIDTH 1000 0
DWIDTH 8 0
BBX 7 3 0 0
BITMAP
44
FE
44
ENDCHAR
STARTCHAR arrowupdn
ENCODING 8597
SWIDTH 500 0
DWIDTH 4 0
BBX 3 7 0 0
BITMAP
40
E0
40
40
40
E0
40
ENDCHAR
STARTCHAR arrowupdnbse
ENCODING 8616
SWIDTH 500 0
DWIDTH 4 0
BBX 3 9 0 -2
BITMAP
40
E0
40
40
40
E0
40
00
E0
ENDCHAR
STARTCHAR partialdiff
ENCODING 8706
SWIDTH 500 0
DWIDTH 6 0
BBX 5 9 0 0
BITMAP
70
08
08
78
C8
88
98
90
60
ENDCHAR
STARTCHAR u2206
ENCODING 8710
SWIDTH 583 0
DWIDTH 8 0
BBX 7 9 0 0
BITMAP
38
28
28
6C
6C
44
C6
C6
FE
ENDCHAR
STARTCHAR product
ENCODING 8719
SWIDTH 833 0
DWIDTH 8 0
BBX 7 11 0 -2
BITMAP
FE
C6
C6
C6
C6
C6
C6
C6
C6
C6
C6
ENDCHAR
STARTCHAR summation
ENCODING 8721
SWIDTH 750 0
DWIDTH 9 0
BBX 8 11 0 -2
BITMAP
FF
60
30
38
18
0C
18
30
60
60
FF
ENDCHAR
STARTCHAR minus
ENCODING 8722
SWIDTH 583 0
DWIDTH 7 0
BBX 6 1 0 4
BITMAP
FC
ENDCHAR
STARTCHAR fraction
ENCODING 8725
SWIDTH 167 0
DWIDTH 9 0
BBX 8 9 0 0
BITMAP
01
02
04
08
10
10
20
40
80
ENDCHAR
STARTCHAR periodcentered
ENCODING 8729
SWIDTH 250 0
DWIDTH 3 0
BBX 2 2 0 3
BITMAP
C0
C0
ENDCHAR
STARTCHAR radical
ENCODING 8730
SWIDTH 583 0
DWIDTH 8 0
BBX 7 10 0 0
BITMAP
02
06
04
04
CC
48
28
38
30
10
ENDCHAR
STARTCHAR infinity
ENCODING 8734
SWIDTH 667 0
DWIDTH 8 0
BBX 7 4 0 2
BITMAP
6C
92
92
6E
ENDCHAR
STARTCHAR orthogonal
ENCODING 8735
SWIDTH 1000 0
DWIDTH 9 0
BBX 8 8 0 0
BITMAP
80
80
80
80
80
80
80
FF
ENDCHAR
STARTCHAR intersection
ENCODING 8745
SWIDTH 667 0
DWIDTH 6 0
BBX 5 6 0 0
BITMAP
70
88
88
88
88
88
ENDCHAR
STARTCHAR integral
ENCODING 8747
SWIDTH 250 0
DWIDTH 7 0
BBX 6 12 0 -3
BITMAP
1C
30
30
30
30
30
30
30
30
30
30
E0
ENDCHAR
STARTCHAR approxequal
ENCODING 8776
SWIDTH 583 0
DWIDTH 7 0
BBX 6 5 0 1
BITMAP
E0
1C
00
E0
1C
ENDCHAR
STARTCHAR notequal
ENCODING 8800
SWIDTH 583 0
DWIDTH 7 0
BBX 6 5 0 2
BITMAP
08
FC
10
FC
40
ENDCHAR
STARTCHAR equivalence
ENCODING 8801
SWIDTH 583 0
DWIDTH 6 0
BBX 5 5 0 1
BITMAP
F8
00
F8
00
F8
ENDCHAR
STARTCHAR lessequal
ENCODING 8804
SWIDTH 583 0
DWIDTH 7 0
BBX 6 7 0 0
BITMAP
0C
70
80
70
0C
00
FC
ENDCHAR
STARTCHAR greaterequal
ENCODING 8805
SWIDTH 583 0
DWIDTH 7 0
BBX 6 7 0 0
BITMAP
C0
38
04
38
C0
00
FC
ENDCHAR
STARTCHAR house
ENCODING 8962
SWIDTH 583 0
DWIDTH 6 0
BBX 5 7 0 0
BITMAP
20
50
50
88
88
88
F8
ENDCHAR
STARTCHAR revlogicalnot
ENCODING 8976
SWIDTH 583 0
DWIDTH 6 0
BBX 5 3 0 1
BITMAP
F8
80
80
ENDCHAR
STARTCHAR integraltp
ENCODING 8992
SWIDTH 583 0
DWIDTH 4 0
BBX 3 14 0 -4
BITMAP
60
80
80
80
80
80
80
80
80
80
80
80
80
80
ENDCHAR
STARTCHAR integralbt
ENCODING 8993
SWIDTH 583 0
DWIDTH 4 0
BBX 3 14 0 -4
BITMAP
20
20
20
20
20
20
20
20
20
20
20
20
20
C0
ENDCHAR
STARTCHAR SF100000
ENCODING 9472
SWIDTH 750 0
DWIDTH 10 0
BBX 9 1 0 3
BITMAP
FF80
ENDCHAR
STARTCHAR SF110000
ENCODING 9474
SWIDTH 667 0
DWIDTH 2 0
BBX 1 15 0 -4
BITMAP
80
80
80
80
80
80
80
80
80
80
80
80
80
80
80
ENDCHAR
STARTCHAR SF010000
ENCODING 9484
SWIDTH 750 0
DWIDTH 6 0
BBX 5 8 0 -4
BITMAP
F8
80
80
80
80
80
80
80
ENDCHAR
STARTCHAR SF030000
ENCODING 9488
SWIDTH 750 0
DWIDTH 6 0
BBX 5 8 0 -4
BITMAP
F8
08
08
08
08
08
08
08
ENDCHAR
STARTCHAR SF020000
ENCODING 9492
SWIDTH 750 0
DWIDTH 6 0
BBX 5 8 0 3
BITMAP
80
80
80
80
80
80
80
F8
ENDCHAR
STARTCHAR SF040000
ENCODING 9496
SWIDTH 750 0
DWIDTH 6 0
BBX 5 8 0 3
BITMAP
08
08
08
08
08
08
08
F8
ENDCHAR
STARTCHAR SF080000
ENCODING 9500
SWIDTH 750 0
DWIDTH 6 0
BBX 5 15 0 -4
BITMAP
80
80
80
80
80
80
80
F8
80
80
80
80
80
80
80
ENDCHAR
STARTCHAR SF090000
ENCODING 9508
SWIDTH 750 0
DWIDTH 6 0
BBX 5 15 0 -4
BITMAP
08
08
08
08
08
08
08
F8
08
08
08
08
08
08
08
ENDCHAR
STARTCHAR SF060000
ENCODING 9516
SWIDTH 750 0
DWIDTH 10 0
BBX 9 8 0 -4
BITMAP
FF80
0800
0800
0800
0800
0800
0800
0800
ENDCHAR
STARTCHAR SF070000
ENCODING 9524
SWIDTH 750 0
DWIDTH 10 0
BBX 9 8 0 3
BITMAP
0800
0800
0800
0800
0800
0800
0800
FF80
ENDCHAR
STARTCHAR SF050000
ENCODING 9532
SWIDTH 750 0
DWIDTH 10 0
BBX 9 15 0 -4
BITMAP
0800
0800
0800
0800
0800
0800
0800
FF80
0800
0800
0800
0800
0800
0800
0800
ENDCHAR
STARTCHAR SF430000
ENCODING 9552
SWIDTH 750 0
DWIDTH 10 0
BBX 9 3 0 2
BITMAP
FF80
0000
FF80
ENDCHAR
STARTCHAR SF240000
ENCODING 9553
SWIDTH 750 0
DWIDTH 4 0
BBX 3 15 0 -4
BITMAP
A0
A0
A0
A0
A0
A0
A0
A0
A0
A0
A0
A0
A0
A0
A0
ENDCHAR
STARTCHAR SF510000
ENCODING 9554
SWIDTH 750 0
DWIDTH 6 0
BBX 5 9 0 -4
BITMAP
F8
80
F8
80
80
80
80
80
80
ENDCHAR
STARTCHAR SF520000
ENCODING 9555
SWIDTH 750 0
DWIDTH 7 0
BBX 6 8 0 -4
BITMAP
FC
A0
A0
A0
A0
A0
A0
A0
ENDCHAR
STARTCHAR SF390000
ENCODING 9556
SWIDTH 750 0
DWIDTH 7 0
BBX 6 9 0 -4
BITMAP
FC
80
BC
A0
A0
A0
A0
A0
A0
ENDCHAR
STARTCHAR SF220000
ENCODING 9557
SWIDTH 750 0
DWIDTH 6 0
BBX 5 9 0 -4
BITMAP
F8
08
F8
08
08
08
08
08
08
ENDCHAR
STARTCHAR SF210000
ENCODING 9558
SWIDTH 750 0
DWIDTH 7 0
BBX 6 8 0 -4
BITMAP
FC
14
14
14
14
14
14
14
ENDCHAR
STARTCHAR SF250000
ENCODING 9559
SWIDTH 750 0
DWIDTH 7 0
BBX 6 9 0 -4
BITMAP
FC
04
F4
14
14
14
14
14
14
ENDCHAR
STARTCHAR SF500000
ENCODING 9560
SWIDTH 750 0
DWIDTH 6 0
BBX 5 9 0 2
BITMAP
80
80
80
80
80
80
F8
80
F8
ENDCHAR
STARTCHAR SF490000
ENCODING 9561
SWIDTH 750 0
DWIDTH 7 0
BBX 6 8 0 3
BITMAP
A0
A0
A0
A0
A0
A0
A0
FC
ENDCHAR
STARTCHAR SF380000
ENCODING 9562
SWIDTH 750 0
DWIDTH 7 0
BBX 6 9 0 2
BITMAP
A0
A0
A0
A0
A0
A0
BC
80
FC
ENDCHAR
STARTCHAR SF280000
ENCODING 9563
SWIDTH 750 0
DWIDTH 6 0
BBX 5 9 0 2
BITMAP
08
08
08
08
08
08
F8
08
F8
ENDCHAR
STARTCHAR SF270000
ENCODING 9564
SWIDTH 750 0
DWIDTH 7 0
BBX 6 8 0 3
BITMAP
14
14
14
14
14
14
14
FC
ENDCHAR
STARTCHAR SF260000
ENCODING 9565
SWIDTH 750 0
DWIDTH 7 0
BBX 6 9 0 2
BITMAP
14
14
14
14
14
14
F4
04
FC
ENDCHAR
STARTCHAR SF360000
ENCODING 9566
SWIDTH 750 0
DWIDTH 6 0
BBX 5 15 0 -4
BITMAP
80
80
80
80
80
80
F8
80
F8
80
80
80
80
80
80
ENDCHAR
STARTCHAR SF370000
ENCODING 9567
SWIDTH 750 0
DWIDTH 7 0
BBX 6 15 0 -4
BITMAP
A0
A0
A0
A0
A0
A0
A0
BC
A0
A0
A0
A0
A0
A0
A0
ENDCHAR
STARTCHAR SF420000
ENCODING 9568
SWIDTH 750 0
DWIDTH 7 0
BBX 6 15 0 -4
BITMAP
A0
A0
A0
A0
A0
A0
BC
80
BC
A0
A0
A0
A0
A0
A0
ENDCHAR
STARTCHAR SF190000
ENCODING 9569
SWIDTH 750 0
DWIDTH 6 0
BBX 5 15 0 -4
BITMAP
08
08
08
08
08
08
F8
08
F8
08
08
08
08
08
08
ENDCHAR
STARTCHAR SF200000
ENCODING 9570
SWIDTH 750 0
DWIDTH 7 0
BBX 6 15 0 -4
BITMAP
14
14
14
14
14
14
14
F4
14
14
14
14
14
14
14
ENDCHAR
STARTCHAR SF230000
ENCODING 9571
SWIDTH 750 0
DWIDTH 7 0
BBX 6 15 0 -4
BITMAP
14
14
14
14
14
14
F4
04
F4
14
14
14
14
14
14
ENDCHAR
STARTCHAR SF470000
ENCODING 9572
SWIDTH 750 0
DWIDTH 10 0
BBX 9 9 0 -4
BITMAP
FF80
0000
FF80
0800
0800
0800
0800
0800
0800
ENDCHAR
STARTCHAR SF480000
ENCODING 9573
SWIDTH 750 0
DWIDTH 10 0
BBX 9 8 0 -4
BITMAP
FF80
1400
1400
1400
1400
1400
1400
1400
ENDCHAR
STARTCHAR SF410000
ENCODING 9574
SWIDTH 750 0
DWIDTH 10 0
BBX 9 9 0 -4
BITMAP
FF80
0000
F780
1400
1400
1400
1400
1400
1400
ENDCHAR
STARTCHAR SF450000
ENCODING 9575
SWIDTH 750 0
DWIDTH 10 0
BBX 9 9 0 2
BITMAP
0800
0800
0800
0800
0800
0800
FF80
0000
FF80
ENDCHAR
STARTCHAR SF460000
ENCODING 9576
SWIDTH 750 0
DWIDTH 10 0
BBX 9 8 0 3
BITMAP
1400
1400
1400
1400
1400
1400
1400
FF80
ENDCHAR
STARTCHAR SF400000
ENCODING 9577
SWIDTH 750 0
DWIDTH 10 0
BBX 9 9 0 2
BITMAP
1400
1400
1400
1400
1400
1400
F780
0000
FF80
ENDCHAR
STARTCHAR SF540000
ENCODING 9578
SWIDTH 750 0
DWIDTH 10 0
BBX 9 15 0 -4
BITMAP
0800
0800
0800
0800
0800
0800
FF80
0800
FF80
0800
0800
0800
0800
0800
0800
ENDCHAR
STARTCHAR SF530000
ENCODING 9579
SWIDTH 750 0
DWIDTH 10 0
BBX 9 15 0 -4
BITMAP
1400
1400
1400
1400
1400
1400
1400
FF80
1400
1400
1400
1400
1400
1400
1400
ENDCHAR
STARTCHAR SF440000
ENCODING 9580
SWIDTH 750 0
DWIDTH 10 0
BBX 9 15 0 -4
BITMAP
1400
1400
1400
1400
1400
1400
F780
0000
F780
1400
1400
1400
1400
1400
1400
ENDCHAR
STARTCHAR upblock
ENCODING 9600
SWIDTH 750 0
DWIDTH 10 0
BBX 9 7 0 4
BITMAP
FF80
FF80
FF80
FF80
FF80
FF80
FF80
ENDCHAR
STARTCHAR dnblock
ENCODING 9604
SWIDTH 750 0
DWIDTH 10 0
BBX 9 8 0 -4
BITMAP
FF80
FF80
FF80
FF80
FF80
FF80
FF80
FF80
ENDCHAR
STARTCHAR block
ENCODING 9608
SWIDTH 750 0
DWIDTH 10 0
BBX 9 15 0 -4
BITMAP
FF80
FF80
FF80
FF80
FF80
FF80
FF80
FF80
FF80
FF80
FF80
FF80
FF80
FF80
FF80
ENDCHAR
STARTCHAR lfblock
ENCODING 9612
SWIDTH 750 0
DWIDTH 5 0
BBX 4 15 0 -4
BITMAP
F0
F0
F0
F0
F0
F0
F0
F0
F0
F0
F0
F0
F0
F0
F0
ENDCHAR
STARTCHAR rtblock
ENCODING 9616
SWIDTH 750 0
DWIDTH 6 0
BBX 5 15 0 -4
BITMAP
F8
F8
F8
F8
F8
F8
F8
F8
F8
F8
F8
F8
F8
F8
F8
ENDCHAR
STARTCHAR ltshade
ENCODING 9617
SWIDTH 750 0
DWIDTH 9 0
BBX 8 15 0 -4
BITMAP
A5
4A
00
A5
4A
A5
4A
00
A5
4A
A5
4A
00
A5
4A
ENDCHAR
STARTCHAR shade
ENCODING 9618
SWIDTH 750 0
DWIDTH 10 0
BBX 9 13 0 -3
BITMAP
1C80
F700
BE80
E300
0800
4000
0000
0800
E300
BE80
F700
BE80
E300
ENDCHAR
STARTCHAR dkshade
ENCODING 9619
SWIDTH 750 0
DWIDTH 10 0
BBX 9 14 0 -4
BITMAP
3980
EF00
BD80
EF00
FF80
FF80
FF80
FF80
EF00
BD80
EF00
BD80
FF80
FF80
ENDCHAR
STARTCHAR filledbox
ENCODING 9632
SWIDTH 583 0
DWIDTH 7 0
BBX 6 6 0 1
BITMAP
FC
FC
FC
FC
FC
FC
ENDCHAR
STARTCHAR H22073
ENCODING 9633
SWIDTH 583 0
DWIDTH 8 0
BBX 7 7 0 0
BITMAP
FE
82
82
82
82
82
FE
ENDCHAR
STARTCHAR H18543
ENCODING 9642
SWIDTH 333 0
DWIDTH 4 0
BBX 3 3 0 2
BITMAP
E0
E0
E0
ENDCHAR
STARTCHAR H18551
ENCODING 9643
SWIDTH 333 0
DWIDTH 4 0
BBX 3 3 0 2
BITMAP
E0
A0
E0
ENDCHAR
STARTCHAR filledrect
ENCODING 9644
SWIDTH 1000 0
DWIDTH 13 0
BBX 12 4 0 0
BITMAP
FFF0
FFF0
FFF0
FFF0
ENDCHAR
STARTCHAR triagup
ENCODING 9650
SWIDTH 1000 0
DWIDTH 8 0
BBX 7 7 0 0
BITMAP
00
18
18
3C
3C
7E
7E
ENDCHAR
STARTCHAR triagrt
ENCODING 9658
SWIDTH 1000 0
DWIDTH 9 0
BBX 8 7 0 0
BITMAP
80
E0
F8
FE
FC
F0
C0
ENDCHAR
STARTCHAR triagdn
ENCODING 9660
SWIDTH 1000 0
DWIDTH 8 0
BBX 7 7 0 0
BITMAP
7E
7E
3C
3C
18
18
00
ENDCHAR
STARTCHAR triaglf
ENCODING 9668
SWIDTH 1000 0
DWIDTH 9 0
BBX 8 7 0 0
BITMAP
03
0F
3F
FF
3F
0F
03
ENDCHAR
STARTCHAR lozenge
ENCODING 9674
SWIDTH 583 0
DWIDTH 7 0
BBX 6 9 0 0
BITMAP
30
30
68
4C
84
4C
48
30
30
ENDCHAR
STARTCHAR circle
ENCODING 9675
SWIDTH 583 0
DWIDTH 6 0
BBX 5 5 0 1
BITMAP
70
88
88
88
70
ENDCHAR
STARTCHAR H18533
ENCODING 9679
SWIDTH 583 0
DWIDTH 6 0
BBX 5 5 0 1
BITMAP
70
F8
F8
F8
70
ENDCHAR
STARTCHAR invbullet
ENCODING 9688
SWIDTH 583 0
DWIDTH 8 0
BBX 7 7 0 0
BITMAP
FE
C6
82
82
82
C6
FE
ENDCHAR
STARTCHAR invcircle
ENCODING 9689
SWIDTH 583 0
DWIDTH 8 0
BBX 7 7 0 0
BITMAP
FE
C6
BA
BA
BA
C6
FE
ENDCHAR
STARTCHAR openbullet
ENCODING 9702
SWIDTH 333 0
DWIDTH 4 0
BBX 3 3 0 2
BITMAP
E0
A0
E0
ENDCHAR
STARTCHAR smileface
ENCODING 9786
SWIDTH 1000 0
DWIDTH 8 0
BBX 7 7 0 0
BITMAP
38
44
AA
82
BA
44
38
ENDCHAR
STARTCHAR invsmileface
ENCODING 9787
SWIDTH 1083 0
DWIDTH 8 0
BBX 7 7 0 0
BITMAP
38
7C
D6
FE
D6
6C
38
ENDCHAR
STARTCHAR sun
ENCODING 9788
SWIDTH 917 0
DWIDTH 8 0
BBX 7 7 0 0
BITMAP
92
7C
44
C6
44
7C
92
ENDCHAR
STARTCHAR female
ENCODING 9792
SWIDTH 750 0
DWIDTH 6 0
BBX 5 8 0 -1
BITMAP
70
50
70
20
20
F8
20
20
ENDCHAR
STARTCHAR male
ENCODING 9794
SWIDTH 750 0
DWIDTH 6 0
BBX 5 5 0 2
BITMAP
18
18
E0
A0
E0
ENDCHAR
STARTCHAR spade
ENCODING 9824
SWIDTH 500 0
DWIDTH 6 0
BBX 5 7 0 0
BITMAP
20
20
70
F8
F8
20
70
ENDCHAR
STARTCHAR club
ENCODING 9827
SWIDTH 667 0
DWIDTH 7 0
BBX 6 7 0 0
BITMAP
30
30
FC
FC
DC
20
30
ENDCHAR
STARTCHAR heart
ENCODING 9829
SWIDTH 583 0
DWIDTH 6 0
BBX 5 7 0 0
BITMAP
D8
F8
F8
70
70
20
20
ENDCHAR
STARTCHAR diamond
ENCODING 9830
SWIDTH 500 0
DWIDTH 6 0
BBX 5 7 0 0
BITMAP
20
70
70
F8
70
70
20
ENDCHAR
STARTCHAR musicalnote
ENCODING 9834
SWIDTH 500 0
DWIDTH 5 0
BBX 4 7 0 0
BITMAP
20
20
30
30
30
E0
C0
ENDCHAR
STARTCHAR musicalnotedbl
ENCODING 9835
SWIDTH 750 0
DWIDTH 7 0
BBX 6 7 0 0
BITMAP
1C
64
5C
64
44
CC
CC
ENDCHAR
STARTCHAR uniF001
ENCODING 61441
SWIDTH 583 0
DWIDTH 9 0
BBX 8 9 0 0
BITMAP
3B
30
7E
66
66
66
66
CC
CC
ENDCHAR
STARTCHAR uniF002
ENCODING 61442
SWIDTH 583 0
DWIDTH 9 0
BBX 8 9 0 0
BITMAP
3B
33
7E
66
66
66
66
CC
CC
ENDCHAR
STARTCHAR uniF005
ENCODING 61445
SWIDTH 333 0
DWIDTH 3 0
BBX 2 2 0 -2
BITMAP
40
C0
ENDCHAR
STARTCHAR uniF001
ENCODING 64257
SWIDTH 583 0
DWIDTH 9 0
BBX 8 9 0 0
BITMAP
3B
30
7E
66
66
66
66
CC
CC
ENDCHAR
STARTCHAR uniF002
ENCODING 64258
SWIDTH 583 0
DWIDTH 9 0
BBX 8 9 0 0
BITMAP
3B
33
7E
66
66
66
66
CC
CC
ENDCHAR
ENDFONT
