STARTFONT 2.1
FONT -unknown-Standard-BoldItalic-R-Normal--18-180-75-75-P-0-ISO10646-1
SIZE 18 75 75
FONTBOUNDINGBOX 18 18 0 0
STARTPROPERTIES 5
FAMILY_NAME "Standard"
WEIGHT_NAME "BoldItalic"
PIXEL_SIZE 18
FONT_ASCENT 14
FONT_DESCENT 4
ENDPROPERTIES
CHARS 662
STARTCHAR space
ENCODING 32
SWIDTH 278 0
DWIDTH 5 0
BBX 0 0 0 0
BITMAP
ENDCHAR
STARTCHAR exclam
ENCODING 33
SWIDTH 333 0
DWIDTH 6 0
BBX 5 12 0 0
BITMAP
38
38
38
30
70
70
70
70
00
E0
E0
E0
ENDCHAR
STARTCHAR quotedbl
ENCODING 34
SWIDTH 500 0
DWIDTH 9 0
BBX 8 4 1 8
BITMAP
77
66
66
EE
ENDCHAR
STARTCHAR numbersign
ENCODING 35
SWIDTH 556 0
DWIDTH 10 0
BBX 11 12 0 0
BITMAP
0840
0840
1080
7FE0
1080
1080
2100
FFC0
2100
2100
4200
4200
ENDCHAR
STARTCHAR dollar
ENCODING 36
SWIDTH 556 0
DWIDTH 10 0
BBX 10 15 0 -2
BITMAP
0200
1F00
3FC0
75C0
7400
7C00
3F00
0F80
0B80
0B80
EB80
7F00
3E00
1000
1000
ENDCHAR
STARTCHAR percent
ENCODING 37
SWIDTH 889 0
DWIDTH 16 0
BBX 15 12 1 0
BITMAP
3C38
6630
4660
C6C0
C7FC
CDE6
CF46
7EC6
06C6
0CCC
18CC
3078
ENDCHAR
STARTCHAR ampersand
ENCODING 38
SWIDTH 722 0
DWIDTH 13 0
BBX 12 12 0 0
BITMAP
03C0
0FE0
0C60
0CE0
0F80
1E20
7630
E760
E3C0
E380
FFF0
7E70
ENDCHAR
STARTCHAR quotesingle
ENCODING 39
SWIDTH 222 0
DWIDTH 4 0
BBX 4 4 1 8
BITMAP
70
60
60
E0
ENDCHAR
STARTCHAR parenleft
ENCODING 40
SWIDTH 333 0
DWIDTH 6 0
BBX 8 17 0 -4
BITMAP
06
0C
1C
38
70
70
70
E0
E0
E0
E0
E0
E0
E0
60
70
70
ENDCHAR
STARTCHAR parenright
ENCODING 41
SWIDTH 389 0
DWIDTH 7 0
BBX 8 17 -2 -4
BITMAP
0E
0E
06
07
07
07
07
07
07
07
0E
0E
0C
1C
38
70
60
ENDCHAR
STARTCHAR asterisk
ENCODING 42
SWIDTH 389 0
DWIDTH 7 0
BBX 7 7 0 5
BITMAP
10
10
FE
FE
38
6C
44
ENDCHAR
STARTCHAR plus
ENCODING 43
SWIDTH 611 0
DWIDTH 11 0
BBX 8 8 2 2
BITMAP
18
18
18
FF
FF
18
18
18
ENDCHAR
STARTCHAR comma
ENCODING 44
SWIDTH 278 0
DWIDTH 5 0
BBX 4 6 -1 -3
BITMAP
70
70
70
30
20
40
ENDCHAR
STARTCHAR hyphen
ENCODING 45
SWIDTH 333 0
DWIDTH 6 0
BBX 4 2 1 4
BITMAP
F0
F0
ENDCHAR
STARTCHAR period
ENCODING 46
SWIDTH 278 0
DWIDTH 5 0
BBX 3 3 0 0
BITMAP
E0
E0
E0
ENDCHAR
STARTCHAR slash
ENCODING 47
SWIDTH 278 0
DWIDTH 5 0
BBX 8 13 -1 0
BITMAP
03
06
06
0C
0C
18
18
18
30
30
60
60
C0
ENDCHAR
STARTCHAR zero
ENCODING 48
SWIDTH 556 0
DWIDTH 10 0
BBX 9 12 1 0
BITMAP
1F00
3F80
7380
7380
6380
E380
E380
E300
E700
E700
FE00
7C00
ENDCHAR
STARTCHAR one
ENCODING 49
SWIDTH 556 0
DWIDTH 10 0
BBX 9 12 1 0
BITMAP
0F00
1F00
3700
4E00
0E00
0E00
0E00
0E00
0E00
1C00
FF80
FF80
ENDCHAR
STARTCHAR two
ENCODING 50
SWIDTH 556 0
DWIDTH 10 0
BBX 9 12 1 0
BITMAP
1F00
3F80
7380
0380
0380
0700
0E00
3C00
7800
7000
FF00
FF00
ENDCHAR
STARTCHAR three
ENCODING 51
SWIDTH 556 0
DWIDTH 10 0
BBX 10 12 0 0
BITMAP
1F00
3FC0
71C0
01C0
0380
1F00
1F00
0380
0380
E380
7F00
3E00
ENDCHAR
STARTCHAR four
ENCODING 52
SWIDTH 556 0
DWIDTH 10 0
BBX 10 12 0 0
BITMAP
03C0
07C0
0D80
0F80
1B80
3380
7380
6380
FFC0
FFC0
0700
0700
ENDCHAR
STARTCHAR five
ENCODING 53
SWIDTH 556 0
DWIDTH 10 0
BBX 10 12 0 0
BITMAP
1FC0
3FC0
3000
3000
3F00
7F80
7380
0380
0380
E780
7F00
3E00
ENDCHAR
STARTCHAR six
ENCODING 54
SWIDTH 556 0
DWIDTH 10 0
BBX 9 12 1 0
BITMAP
1F00
3F80
7380
7000
EE00
FF00
E700
E700
E700
E600
7E00
3C00
ENDCHAR
STARTCHAR seven
ENCODING 55
SWIDTH 556 0
DWIDTH 10 0
BBX 9 12 2 0
BITMAP
FF80
FF80
0300
0600
0E00
1C00
3800
3800
7000
7000
E000
E000
ENDCHAR
STARTCHAR eight
ENCODING 56
SWIDTH 556 0
DWIDTH 10 0
BBX 9 12 1 0
BITMAP
0F00
3F80
3B80
3B80
3B80
3F00
7E00
E700
E700
E700
FE00
7C00
ENDCHAR
STARTCHAR nine
ENCODING 57
SWIDTH 556 0
DWIDTH 10 0
BBX 10 12 0 0
BITMAP
0F00
3F80
39C0
71C0
71C0
73C0
7FC0
3F80
0380
E700
7F00
3C00
ENDCHAR
STARTCHAR colon
ENCODING 58
SWIDTH 333 0
DWIDTH 6 0
BBX 5 10 0 0
BITMAP
70
70
70
00
00
00
00
E0
E0
E0
ENDCHAR
STARTCHAR semicolon
ENCODING 59
SWIDTH 333 0
DWIDTH 6 0
BBX 6 13 -1 -3
BITMAP
38
38
38
00
00
00
00
70
70
70
30
20
40
ENDCHAR
STARTCHAR less
ENCODING 60
SWIDTH 611 0
DWIDTH 11 0
BBX 10 10 1 1
BITMAP
0040
03C0
1F80
FC00
E000
E000
FC00
1F80
03C0
0040
ENDCHAR
STARTCHAR equal
ENCODING 61
SWIDTH 611 0
DWIDTH 11 0
BBX 10 6 1 3
BITMAP
FFC0
FFC0
0000
0000
FFC0
FFC0
ENDCHAR
STARTCHAR greater
ENCODING 62
SWIDTH 611 0
DWIDTH 11 0
BBX 10 10 1 1
BITMAP
8000
F000
7E00
0FC0
01C0
01C0
0FC0
7E00
F000
8000
ENDCHAR
STARTCHAR question
ENCODING 63
SWIDTH 611 0
DWIDTH 11 0
BBX 9 12 2 0
BITMAP
3E00
7F80
E380
4380
0700
0F00
1C00
3800
0000
7000
7000
7000
ENDCHAR
STARTCHAR at
ENCODING 64
SWIDTH 1000 0
DWIDTH 18 0
BBX 16 16 1 -3
BITMAP
03F0
0C0C
1006
2002
43D1
4631
8431
8831
8821
8821
8862
8CE6
47B8
6000
3038
0FE0
ENDCHAR
STARTCHAR A
ENCODING 65
SWIDTH 722 0
DWIDTH 13 0
BBX 12 12 0 0
BITMAP
03E0
03E0
07E0
06E0
0EE0
0CE0
1CE0
1FE0
3FF0
7070
7070
E070
ENDCHAR
STARTCHAR B
ENCODING 66
SWIDTH 722 0
DWIDTH 13 0
BBX 12 12 0 0
BITMAP
3FC0
3FF0
3870
7070
7070
7FE0
7FE0
7070
7070
E070
FFE0
FFC0
ENDCHAR
STARTCHAR C
ENCODING 67
SWIDTH 722 0
DWIDTH 13 0
BBX 12 12 1 0
BITMAP
0FC0
3FE0
7870
7070
E000
E000
E000
E000
E040
71E0
7FC0
1F00
ENDCHAR
STARTCHAR D
ENCODING 68
SWIDTH 722 0
DWIDTH 13 0
BBX 12 12 0 0
BITMAP
3F80
3FE0
38E0
7070
7070
7070
7070
7070
70E0
E1E0
FFC0
FF00
ENDCHAR
STARTCHAR E
ENCODING 69
SWIDTH 667 0
DWIDTH 12 0
BBX 12 12 0 0
BITMAP
3FF0
3FF0
3800
7000
7000
7FC0
7FC0
7000
7000
E000
FFC0
FFC0
ENDCHAR
STARTCHAR F
ENCODING 70
SWIDTH 611 0
DWIDTH 11 0
BBX 11 12 0 0
BITMAP
3FE0
3FE0
3800
7000
7000
7FC0
7FC0
7000
7000
E000
E000
E000
ENDCHAR
STARTCHAR G
ENCODING 71
SWIDTH 778 0
DWIDTH 14 0
BBX 13 12 1 0
BITMAP
0FC0
1FF0
3878
7038
E000
E000
E1F0
E1F0
E070
70E0
7FE0
1F80
ENDCHAR
STARTCHAR H
ENCODING 72
SWIDTH 722 0
DWIDTH 13 0
BBX 13 12 0 0
BITMAP
3838
3838
3838
7070
7070
7FF0
7FF0
7070
7070
E0E0
E0E0
E0E0
ENDCHAR
STARTCHAR I
ENCODING 73
SWIDTH 278 0
DWIDTH 5 0
BBX 5 12 0 0
BITMAP
38
38
38
70
70
70
70
70
70
E0
E0
E0
ENDCHAR
STARTCHAR J
ENCODING 74
SWIDTH 556 0
DWIDTH 10 0
BBX 10 12 0 0
BITMAP
0FC0
0FC0
01C0
0380
0380
0380
0380
0380
C380
E700
7F00
3E00
ENDCHAR
STARTCHAR K
ENCODING 75
SWIDTH 722 0
DWIDTH 13 0
BBX 14 12 0 0
BITMAP
3838
3870
38E0
73C0
7700
7F00
7F00
7380
71C0
E1C0
E0E0
E070
ENDCHAR
STARTCHAR L
ENCODING 76
SWIDTH 611 0
DWIDTH 11 0
BBX 10 12 0 0
BITMAP
3800
3800
3800
7000
7000
7000
7000
7000
7000
E000
FFC0
FFC0
ENDCHAR
STARTCHAR M
ENCODING 77
SWIDTH 833 0
DWIDTH 15 0
BBX 15 12 0 0
BITMAP
3C1E
3C3E
342E
767C
767C
76DC
76DC
769C
779C
E738
E738
E738
ENDCHAR
STARTCHAR N
ENCODING 78
SWIDTH 722 0
DWIDTH 13 0
BBX 13 12 0 0
BITMAP
3C38
3C38
3C38
7670
7670
7670
7370
7370
7370
E1E0
E1E0
E1E0
ENDCHAR
STARTCHAR O
ENCODING 79
SWIDTH 778 0
DWIDTH 14 0
BBX 12 12 1 0
BITMAP
0F80
3FE0
78F0
7070
E070
E070
E070
E070
E0E0
71E0
7FC0
1F00
ENDCHAR
STARTCHAR P
ENCODING 80
SWIDTH 667 0
DWIDTH 12 0
BBX 12 12 0 0
BITMAP
3FC0
3FE0
3870
7070
7070
70F0
7FE0
7FC0
7000
E000
E000
E000
ENDCHAR
STARTCHAR Q
ENCODING 81
SWIDTH 778 0
DWIDTH 14 0
BBX 12 16 1 -4
BITMAP
0F80
3FE0
78F0
7070
E070
E070
E070
E070
E0E0
F1E0
7FC0
3F00
0E00
0F00
07C0
03C0
ENDCHAR
STARTCHAR R
ENCODING 82
SWIDTH 722 0
DWIDTH 13 0
BBX 12 12 0 0
BITMAP
3FC0
3FE0
3870
7070
7070
7FE0
7F80
7380
71C0
E1C0
E1C0
E0E0
ENDCHAR
STARTCHAR S
ENCODING 83
SWIDTH 667 0
DWIDTH 12 0
BBX 12 12 0 0
BITMAP
0FC0
1FE0
3870
3840
3C00
1F80
07C0
00E0
E0E0
E0E0
7FC0
3F80
ENDCHAR
STARTCHAR T
ENCODING 84
SWIDTH 611 0
DWIDTH 11 0
BBX 11 12 1 0
BITMAP
FFE0
FFE0
0E00
1C00
1C00
1C00
1C00
1C00
1C00
3800
3800
3800
ENDCHAR
STARTCHAR U
ENCODING 85
SWIDTH 722 0
DWIDTH 13 0
BBX 12 12 1 0
BITMAP
7070
7070
7070
E0E0
E0E0
E0E0
E0E0
E0E0
E1C0
E1C0
FF80
3F00
ENDCHAR
STARTCHAR V
ENCODING 86
SWIDTH 667 0
DWIDTH 12 0
BBX 11 12 2 0
BITMAP
E0E0
E1C0
E1C0
E380
E380
6700
6600
6600
6C00
6C00
7800
7800
ENDCHAR
STARTCHAR W
ENCODING 87
SWIDTH 944 0
DWIDTH 17 0
BBX 17 12 1 0
BITMAP
E1C380
E1C700
E3C700
E3CE00
E2CE00
E6CE00
66DC00
7CDC00
7CD800
7CF800
78F000
78F000
ENDCHAR
STARTCHAR X
ENCODING 88
SWIDTH 722 0
DWIDTH 13 0
BBX 15 12 -1 0
BITMAP
1C0E
0E1C
0E38
0770
03E0
03C0
03C0
07C0
0CE0
1870
3070
6038
ENDCHAR
STARTCHAR Y
ENCODING 89
SWIDTH 667 0
DWIDTH 12 0
BBX 12 12 1 0
BITMAP
E070
70E0
71C0
7380
3F00
3E00
1C00
1C00
1C00
3800
3800
3800
ENDCHAR
STARTCHAR Z
ENCODING 90
SWIDTH 611 0
DWIDTH 11 0
BBX 11 12 0 0
BITMAP
3FE0
3FE0
01C0
0380
0700
0F00
1E00
1C00
3800
7000
FF80
FF80
ENDCHAR
STARTCHAR bracketleft
ENCODING 91
SWIDTH 333 0
DWIDTH 6 0
BBX 9 17 -1 -4
BITMAP
1F80
1F00
1C00
1C00
3800
3800
3800
3800
3800
3800
7000
7000
7000
7000
7000
7C00
FC00
ENDCHAR
STARTCHAR backslash
ENCODING 92
SWIDTH 278 0
DWIDTH 5 0
BBX 4 13 1 0
BITMAP
C0
C0
C0
60
60
60
60
60
60
60
30
30
30
ENDCHAR
STARTCHAR bracketright
ENCODING 93
SWIDTH 389 0
DWIDTH 7 0
BBX 8 17 -2 -4
BITMAP
1F
3F
07
07
0E
0E
0E
0E
0E
0E
1C
1C
1C
1C
1C
FC
F8
ENDCHAR
STARTCHAR asciicircum
ENCODING 94
SWIDTH 611 0
DWIDTH 11 0
BBX 9 8 1 4
BITMAP
1C00
1400
3600
3600
6300
6300
6300
C180
ENDCHAR
STARTCHAR underscore
ENCODING 95
SWIDTH 556 0
DWIDTH 10 0
BBX 10 1 -1 -3
BITMAP
FFC0
ENDCHAR
STARTCHAR grave
ENCODING 96
SWIDTH 333 0
DWIDTH 6 0
BBX 4 3 3 10
BITMAP
E0
60
30
ENDCHAR
STARTCHAR a
ENCODING 97
SWIDTH 556 0
DWIDTH 10 0
BBX 10 10 0 0
BITMAP
1F00
3F80
7380
0380
3F80
FF80
E380
E700
FBC0
73C0
ENDCHAR
STARTCHAR b
ENCODING 98
SWIDTH 611 0
DWIDTH 11 0
BBX 10 13 0 0
BITMAP
3800
3800
3800
7780
7FC0
79C0
71C0
71C0
71C0
71C0
F380
FF80
EF00
ENDCHAR
STARTCHAR c
ENCODING 99
SWIDTH 556 0
DWIDTH 10 0
BBX 10 10 0 0
BITMAP
1F00
3F80
71C0
7180
E000
E000
E100
E380
7F00
3E00
ENDCHAR
STARTCHAR d
ENCODING 100
SWIDTH 611 0
DWIDTH 11 0
BBX 11 13 0 0
BITMAP
00E0
00E0
00E0
1DC0
7FC0
73C0
E1C0
E1C0
E1C0
E380
E380
FF80
7B80
ENDCHAR
STARTCHAR e
ENCODING 101
SWIDTH 556 0
DWIDTH 10 0
BBX 9 10 0 0
BITMAP
1E00
3F00
7380
E380
FF80
FF80
E000
E700
7E00
3C00
ENDCHAR
STARTCHAR f
ENCODING 102
SWIDTH 333 0
DWIDTH 6 0
BBX 7 13 0 0
BITMAP
1E
3E
38
FC
FC
70
70
70
70
70
E0
E0
E0
ENDCHAR
STARTCHAR g
ENCODING 103
SWIDTH 611 0
DWIDTH 11 0
BBX 12 14 -1 -4
BITMAP
1EE0
3FE0
39E0
70E0
70E0
70E0
71E0
71C0
7FC0
3DC0
01C0
E3C0
FF80
3E00
ENDCHAR
STARTCHAR h
ENCODING 104
SWIDTH 611 0
DWIDTH 11 0
BBX 10 13 0 0
BITMAP
3800
3800
3800
7380
77C0
79C0
71C0
71C0
71C0
71C0
E380
E380
E380
ENDCHAR
STARTCHAR i
ENCODING 105
SWIDTH 278 0
DWIDTH 5 0
BBX 5 13 0 0
BITMAP
38
38
00
70
70
70
70
70
70
70
E0
E0
E0
ENDCHAR
STARTCHAR j
ENCODING 106
SWIDTH 278 0
DWIDTH 5 0
BBX 7 17 -2 -4
BITMAP
0E
0E
00
1C
1C
1C
1C
1C
1C
1C
38
38
38
38
38
F0
E0
ENDCHAR
STARTCHAR k
ENCODING 107
SWIDTH 556 0
DWIDTH 10 0
BBX 10 13 0 0
BITMAP
3800
3800
3800
71C0
7380
7700
7E00
7E00
7E00
7700
E700
E700
E380
ENDCHAR
STARTCHAR l
ENCODING 108
SWIDTH 278 0
DWIDTH 5 0
BBX 5 13 0 0
BITMAP
38
38
38
70
70
70
70
70
70
70
E0
E0
E0
ENDCHAR
STARTCHAR m
ENCODING 109
SWIDTH 889 0
DWIDTH 16 0
BBX 15 10 0 0
BITMAP
330C
37BE
39E6
31C6
7186
718E
618E
638C
638C
E30C
ENDCHAR
STARTCHAR n
ENCODING 110
SWIDTH 611 0
DWIDTH 11 0
BBX 10 10 0 0
BITMAP
3780
7FC0
79C0
71C0
71C0
71C0
71C0
E380
E380
E380
ENDCHAR
STARTCHAR o
ENCODING 111
SWIDTH 611 0
DWIDTH 11 0
BBX 10 10 0 0
BITMAP
1F00
3F80
71C0
E1C0
E1C0
E1C0
E1C0
E380
7F00
3E00
ENDCHAR
STARTCHAR p
ENCODING 112
SWIDTH 611 0
DWIDTH 11 0
BBX 11 14 -1 -4
BITMAP
3BC0
3FE0
3CE0
38E0
38E0
38E0
38E0
79C0
7FC0
7780
7000
7000
7000
E000
ENDCHAR
STARTCHAR q
ENCODING 113
SWIDTH 611 0
DWIDTH 11 0
BBX 10 14 0 -4
BITMAP
1DC0
7FC0
71C0
E1C0
E1C0
E1C0
E380
E380
FF80
7B80
0380
0380
0380
0300
ENDCHAR
STARTCHAR r
ENCODING 114
SWIDTH 389 0
DWIDTH 7 0
BBX 7 10 0 0
BITMAP
76
76
78
70
70
70
70
E0
E0
E0
ENDCHAR
STARTCHAR s
ENCODING 115
SWIDTH 556 0
DWIDTH 10 0
BBX 9 10 0 0
BITMAP
1F00
7F80
7180
7800
3E00
1F00
0700
C700
FF00
7C00
ENDCHAR
STARTCHAR t
ENCODING 116
SWIDTH 333 0
DWIDTH 6 0
BBX 6 12 0 0
BITMAP
18
38
FC
FC
70
70
70
70
70
E0
F8
78
ENDCHAR
STARTCHAR u
ENCODING 117
SWIDTH 611 0
DWIDTH 11 0
BBX 11 10 0 0
BITMAP
71C0
71C0
71C0
71C0
71C0
71C0
73C0
F380
7F80
7B80
ENDCHAR
STARTCHAR v
ENCODING 118
SWIDTH 556 0
DWIDTH 10 0
BBX 10 10 1 0
BITMAP
E1C0
E180
E380
E300
6700
6600
6C00
6C00
7800
7800
ENDCHAR
STARTCHAR w
ENCODING 119
SWIDTH 778 0
DWIDTH 14 0
BBX 14 10 1 0
BITMAP
E79C
E798
EDB8
EDB0
EDB0
D9F0
D9E0
F1E0
71C0
71C0
ENDCHAR
STARTCHAR x
ENCODING 120
SWIDTH 500 0
DWIDTH 9 0
BBX 11 10 -1 0
BITMAP
38E0
1DC0
1D80
1F00
0E00
0E00
1F00
3700
7700
E380
ENDCHAR
STARTCHAR y
ENCODING 121
SWIDTH 556 0
DWIDTH 10 0
BBX 12 14 -1 -4
BITMAP
3870
38E0
38E0
39C0
1980
1980
1B00
1B00
1E00
1C00
1C00
3800
F000
E000
ENDCHAR
STARTCHAR z
ENCODING 122
SWIDTH 500 0
DWIDTH 9 0
BBX 9 10 0 0
BITMAP
3F80
3F80
0700
0E00
1C00
1C00
3800
7000
FF00
FF00
ENDCHAR
STARTCHAR braceleft
ENCODING 123
SWIDTH 389 0
DWIDTH 7 0
BBX 9 17 0 -4
BITMAP
0F00
1F00
1C00
1C00
3800
3800
3800
F000
F000
7000
7000
7000
7000
7000
7000
7C00
3800
ENDCHAR
STARTCHAR bar
ENCODING 124
SWIDTH 333 0
DWIDTH 6 0
BBX 2 17 2 -4
BITMAP
C0
C0
C0
C0
C0
C0
C0
C0
C0
C0
C0
C0
C0
C0
C0
C0
C0
ENDCHAR
STARTCHAR braceright
ENCODING 125
SWIDTH 389 0
DWIDTH 7 0
BBX 9 17 -2 -4
BITMAP
1E00
1F00
0700
0700
0E00
0E00
0F00
0780
0F80
0E00
1C00
1C00
1C00
1C00
3C00
7800
F000
ENDCHAR
STARTCHAR asciitilde
ENCODING 126
SWIDTH 556 0
DWIDTH 10 0
BBX 9 3 1 4
BITMAP
7880
FF80
8F00
ENDCHAR
STARTCHAR space
ENCODING 160
SWIDTH 278 0
DWIDTH 5 0
BBX 0 0 0 0
BITMAP
ENDCHAR
STARTCHAR exclamdown
ENCODING 161
SWIDTH 333 0
DWIDTH 6 0
BBX 6 13 -1 -3
BITMAP
1C
38
38
00
38
38
30
30
70
70
70
70
70
ENDCHAR
STARTCHAR cent
ENCODING 162
SWIDTH 556 0
DWIDTH 10 0
BBX 10 12 0 0
BITMAP
0200
0F00
3FC0
7DC0
7400
7400
E400
7B00
7B00
3F00
1C00
1800
ENDCHAR
STARTCHAR sterling
ENCODING 163
SWIDTH 556 0
DWIDTH 10 0
BBX 10 12 0 0
BITMAP
0F80
1FC0
1CC0
3800
3800
FE00
FE00
3800
7100
7180
FF00
FE00
ENDCHAR
STARTCHAR currency
ENCODING 164
SWIDTH 556 0
DWIDTH 10 0
BBX 10 10 0 1
BITMAP
0000
7F80
7F80
7380
6180
6180
7380
7F80
7F80
0000
ENDCHAR
STARTCHAR yen
ENCODING 165
SWIDTH 556 0
DWIDTH 10 0
BBX 12 12 0 0
BITMAP
3870
38E0
1DC0
1D80
1F80
0F00
7FC0
0E00
0E00
FF80
1C00
1C00
ENDCHAR
STARTCHAR brokenbar
ENCODING 166
SWIDTH 222 0
DWIDTH 4 0
BBX 2 17 1 -4
BITMAP
C0
C0
C0
C0
C0
C0
C0
00
00
00
C0
C0
C0
C0
C0
C0
C0
ENDCHAR
STARTCHAR section
ENCODING 167
SWIDTH 556 0
DWIDTH 10 0
BBX 10 14 0 -2
BITMAP
1F80
3FC0
38C0
3800
1F00
3F80
7380
7380
7F00
1F00
0700
C700
7F00
7C00
ENDCHAR
STARTCHAR dieresis
ENCODING 168
SWIDTH 333 0
DWIDTH 6 0
BBX 6 2 1 11
BITMAP
CC
CC
ENDCHAR
STARTCHAR copyright
ENCODING 169
SWIDTH 722 0
DWIDTH 13 0
BBX 12 12 0 0
BITMAP
0F00
30C0
4020
4F20
9890
9810
9810
9890
4F20
4020
30C0
0F00
ENDCHAR
STARTCHAR ordfeminine
ENCODING 170
SWIDTH 389 0
DWIDTH 7 0
BBX 6 6 1 6
BITMAP
7C
0C
7C
D8
D8
FC
ENDCHAR
STARTCHAR guillemotleft
ENCODING 171
SWIDTH 556 0
DWIDTH 10 0
BBX 9 7 0 1
BITMAP
1980
3300
6600
CC00
EE00
6600
3300
ENDCHAR
STARTCHAR logicalnot
ENCODING 172
SWIDTH 611 0
DWIDTH 11 0
BBX 9 6 1 1
BITMAP
FF80
FF80
0180
0180
0180
0180
ENDCHAR
STARTCHAR hyphen
ENCODING 173
SWIDTH 333 0
DWIDTH 6 0
BBX 4 2 1 4
BITMAP
F0
F0
ENDCHAR
STARTCHAR registered
ENCODING 174
SWIDTH 722 0
DWIDTH 13 0
BBX 12 12 0 0
BITMAP
0F00
30C0
4020
5F20
9990
9990
9F10
9B10
59A0
4020
30C0
0F00
ENDCHAR
STARTCHAR macron
ENCODING 175
SWIDTH 556 0
DWIDTH 10 0
BBX 10 1 0 13
BITMAP
FFC0
ENDCHAR
STARTCHAR degree
ENCODING 176
SWIDTH 389 0
DWIDTH 7 0
BBX 6 6 1 6
BITMAP
78
CC
84
84
CC
78
ENDCHAR
STARTCHAR plusminus
ENCODING 177
SWIDTH 556 0
DWIDTH 10 0
BBX 8 11 1 0
BITMAP
18
18
18
FF
FF
18
18
18
00
FF
FF
ENDCHAR
STARTCHAR uni00B2
ENCODING 178
SWIDTH 333 0
DWIDTH 6 0
BBX 6 6 1 6
BITMAP
38
6C
1C
38
60
F8
ENDCHAR
STARTCHAR uni00B3
ENCODING 179
SWIDTH 333 0
DWIDTH 6 0
BBX 6 6 1 6
BITMAP
3C
2C
30
18
D8
70
ENDCHAR
STARTCHAR acute
ENCODING 180
SWIDTH 333 0
DWIDTH 6 0
BBX 5 3 2 10
BITMAP
38
60
C0
ENDCHAR
STARTCHAR u00B5
ENCODING 181
SWIDTH 556 0
DWIDTH 10 0
BBX 11 14 -1 -4
BITMAP
39C0
39C0
39C0
39C0
39C0
39C0
39C0
7B80
7DC0
7DC0
7000
7000
7000
E000
ENDCHAR
STARTCHAR paragraph
ENCODING 182
SWIDTH 556 0
DWIDTH 10 0
BBX 9 14 1 -2
BITMAP
7F80
FB00
FB00
FB00
FB00
7B00
1B00
1B00
1B00
1B00
1B00
1B00
1B00
1B00
ENDCHAR
STARTCHAR periodcentered
ENCODING 183
SWIDTH 278 0
DWIDTH 5 0
BBX 3 3 1 5
BITMAP
E0
E0
E0
ENDCHAR
STARTCHAR cedilla
ENCODING 184
SWIDTH 333 0
DWIDTH 6 0
BBX 4 4 1 -4
BITMAP
20
70
30
E0
ENDCHAR
STARTCHAR uni00B9
ENCODING 185
SWIDTH 333 0
DWIDTH 6 0
BBX 6 6 1 6
BITMAP
38
58
30
30
30
FC
ENDCHAR
STARTCHAR ordmasculine
ENCODING 186
SWIDTH 389 0
DWIDTH 7 0
BBX 6 6 1 6
BITMAP
38
4C
CC
CC
C8
70
ENDCHAR
STARTCHAR guillemotright
ENCODING 187
SWIDTH 556 0
DWIDTH 10 0
BBX 9 7 0 1
BITMAP
6600
3300
3B80
1980
3300
6600
CC00
ENDCHAR
STARTCHAR onequarter
ENCODING 188
SWIDTH 833 0
DWIDTH 15 0
BBX 14 12 1 0
BITMAP
380C
5818
3030
3060
30C0
FD80
01B8
0378
0658
0CB0
19F8
3030
ENDCHAR
STARTCHAR onehalf
ENCODING 189
SWIDTH 833 0
DWIDTH 15 0
BBX 14 12 1 0
BITMAP
380C
5818
3030
3060
30C0
FD80
01B8
036C
061C
0C38
1860
30F8
ENDCHAR
STARTCHAR threequarters
ENCODING 190
SWIDTH 833 0
DWIDTH 15 0
BBX 13 12 1 0
BITMAP
3C18
2C30
3060
18C0
D980
7300
0338
0678
0C58
18B0
31F8
6030
ENDCHAR
STARTCHAR questiondown
ENCODING 191
SWIDTH 611 0
DWIDTH 11 0
BBX 9 13 0 -3
BITMAP
0700
0700
0700
0000
0E00
0E00
3C00
7800
E000
E100
E380
FF00
3E00
ENDCHAR
STARTCHAR Agrave
ENCODING 192
SWIDTH 722 0
DWIDTH 13 0
BBX 12 15 0 0
BITMAP
0380
00C0
0000
03E0
03E0
07E0
06E0
0EE0
0CE0
1CE0
1FE0
3FF0
7070
7070
E070
ENDCHAR
STARTCHAR Aacute
ENCODING 193
SWIDTH 722 0
DWIDTH 13 0
BBX 12 15 0 0
BITMAP
0070
0180
0000
03E0
03E0
07E0
06E0
0EE0
0CE0
1CE0
1FE0
3FF0
7070
7070
E070
ENDCHAR
STARTCHAR Acircumflex
ENCODING 194
SWIDTH 722 0
DWIDTH 13 0
BBX 12 16 0 0
BITMAP
01C0
03E0
0630
0000
03E0
03E0
07E0
06E0
0EE0
0CE0
1CE0
1FE0
3FF0
7070
7070
E070
ENDCHAR
STARTCHAR Atilde
ENCODING 195
SWIDTH 722 0
DWIDTH 13 0
BBX 13 16 0 0
BITMAP
01C8
03F8
0270
0000
03E0
03E0
07E0
06E0
0EE0
0CE0
1CE0
1FE0
3FF0
7070
7070
E070
ENDCHAR
STARTCHAR Adieresis
ENCODING 196
SWIDTH 722 0
DWIDTH 13 0
BBX 12 15 0 0
BITMAP
0330
0330
0000
03E0
03E0
07E0
06E0
0EE0
0CE0
1CE0
1FE0
3FF0
7070
7070
E070
ENDCHAR
STARTCHAR Aring
ENCODING 197
SWIDTH 722 0
DWIDTH 13 0
BBX 12 15 0 0
BITMAP
00C0
0120
0120
03E0
03E0
07E0
06E0
0EE0
0CE0
1CE0
1FE0
3FF0
7070
7070
E070
ENDCHAR
STARTCHAR AE
ENCODING 198
SWIDTH 1000 0
DWIDTH 18 0
BBX 19 12 -1 0
BITMAP
01FFE0
01FFE0
03B800
077000
077000
0E7F80
1C7F80
1FF000
3FF000
38E000
70FF80
E0FF80
ENDCHAR
STARTCHAR Ccedilla
ENCODING 199
SWIDTH 722 0
DWIDTH 13 0
BBX 12 16 1 -4
BITMAP
0FC0
3FE0
7870
7070
E000
E000
E000
E000
E040
71E0
7FC0
1F00
0400
0E00
0600
1C00
ENDCHAR
STARTCHAR Egrave
ENCODING 200
SWIDTH 667 0
DWIDTH 12 0
BBX 12 15 0 0
BITMAP
0700
0180
0000
3FF0
3FF0
3800
7000
7000
7FC0
7FC0
7000
7000
E000
FFC0
FFC0
ENDCHAR
STARTCHAR Eacute
ENCODING 201
SWIDTH 667 0
DWIDTH 12 0
BBX 12 15 0 0
BITMAP
00E0
0300
0000
3FF0
3FF0
3800
7000
7000
7FC0
7FC0
7000
7000
E000
FFC0
FFC0
ENDCHAR
STARTCHAR Ecircumflex
ENCODING 202
SWIDTH 667 0
DWIDTH 12 0
BBX 12 16 0 0
BITMAP
0380
07C0
0C60
0000
3FF0
3FF0
3800
7000
7000
7FC0
7FC0
7000
7000
E000
FFC0
FFC0
ENDCHAR
STARTCHAR Edieresis
ENCODING 203
SWIDTH 667 0
DWIDTH 12 0
BBX 12 15 0 0
BITMAP
0660
0660
0000
3FF0
3FF0
3800
7000
7000
7FC0
7FC0
7000
7000
E000
FFC0
FFC0
ENDCHAR
STARTCHAR Igrave
ENCODING 204
SWIDTH 278 0
DWIDTH 5 0
BBX 5 15 0 0
BITMAP
70
18
00
38
38
38
70
70
70
70
70
70
E0
E0
E0
ENDCHAR
STARTCHAR Iacute
ENCODING 205
SWIDTH 278 0
DWIDTH 5 0
BBX 8 15 0 0
BITMAP
07
18
00
38
38
38
70
70
70
70
70
70
E0
E0
E0
ENDCHAR
STARTCHAR Icircumflex
ENCODING 206
SWIDTH 278 0
DWIDTH 5 0
BBX 8 16 0 0
BITMAP
1C
3E
63
00
38
38
38
70
70
70
70
70
70
E0
E0
E0
ENDCHAR
STARTCHAR Idieresis
ENCODING 207
SWIDTH 278 0
DWIDTH 5 0
BBX 7 15 0 0
BITMAP
66
66
00
38
38
38
70
70
70
70
70
70
E0
E0
E0
ENDCHAR
STARTCHAR Eth
ENCODING 208
SWIDTH 722 0
DWIDTH 13 0
BBX 12 12 0 0
BITMAP
3F80
3FE0
38E0
7070
7070
FE70
FE70
7070
70E0
E1E0
FFC0
FF00
ENDCHAR
STARTCHAR Ntilde
ENCODING 209
SWIDTH 722 0
DWIDTH 13 0
BBX 13 16 0 0
BITMAP
0390
07F0
04E0
0000
3C38
3C38
3C38
7670
7670
7670
7370
7370
7370
E1E0
E1E0
E1E0
ENDCHAR
STARTCHAR Ograve
ENCODING 210
SWIDTH 778 0
DWIDTH 14 0
BBX 12 15 1 0
BITMAP
0700
0180
0000
0F80
3FE0
78F0
7070
E070
E070
E070
E070
E0E0
71E0
7FC0
1F00
ENDCHAR
STARTCHAR Oacute
ENCODING 211
SWIDTH 778 0
DWIDTH 14 0
BBX 12 15 1 0
BITMAP
00E0
0300
0000
0F80
3FE0
78F0
7070
E070
E070
E070
E070
E0E0
71E0
7FC0
1F00
ENDCHAR
STARTCHAR Ocircumflex
ENCODING 212
SWIDTH 778 0
DWIDTH 14 0
BBX 12 16 1 0
BITMAP
0380
07C0
0C60
0000
0F80
3FE0
78F0
7070
E070
E070
E070
E070
E0E0
71E0
7FC0
1F00
ENDCHAR
STARTCHAR Otilde
ENCODING 213
SWIDTH 778 0
DWIDTH 14 0
BBX 12 16 1 0
BITMAP
0720
0FE0
09C0
0000
0F80
3FE0
78F0
7070
E070
E070
E070
E070
E0E0
71E0
7FC0
1F00
ENDCHAR
STARTCHAR Odieresis
ENCODING 214
SWIDTH 778 0
DWIDTH 14 0
BBX 12 15 1 0
BITMAP
0660
0660
0000
0F80
3FE0
78F0
7070
E070
E070
E070
E070
E0E0
71E0
7FC0
1F00
ENDCHAR
STARTCHAR multiply
ENCODING 215
SWIDTH 611 0
DWIDTH 11 0
BBX 9 9 1 2
BITMAP
4100
E380
7700
3E00
1C00
3E00
7700
E380
4100
ENDCHAR
STARTCHAR Oslash
ENCODING 216
SWIDTH 778 0
DWIDTH 14 0
BBX 14 12 0 0
BITMAP
07C8
1FF0
3C70
38F8
70B8
7138
7238
7638
7C70
38E0
3FE0
5F80
ENDCHAR
STARTCHAR Ugrave
ENCODING 217
SWIDTH 722 0
DWIDTH 13 0
BBX 12 15 1 0
BITMAP
0E00
0300
0000
7070
7070
7070
E0E0
E0E0
E0E0
E0E0
E0E0
E1C0
E1C0
FF80
3F00
ENDCHAR
STARTCHAR Uacute
ENCODING 218
SWIDTH 722 0
DWIDTH 13 0
BBX 12 15 1 0
BITMAP
00E0
0300
0000
7070
7070
7070
E0E0
E0E0
E0E0
E0E0
E0E0
E1C0
E1C0
FF80
3F00
ENDCHAR
STARTCHAR Ucircumflex
ENCODING 219
SWIDTH 722 0
DWIDTH 13 0
BBX 12 16 1 0
BITMAP
0380
07C0
0C60
0000
7070
7070
7070
E0E0
E0E0
E0E0
E0E0
E0E0
E1C0
E1C0
FF80
3F00
ENDCHAR
STARTCHAR Udieresis
ENCODING 220
SWIDTH 722 0
DWIDTH 13 0
BBX 12 15 1 0
BITMAP
0CC0
0CC0
0000
7070
7070
7070
E0E0
E0E0
E0E0
E0E0
E0E0
E1C0
E1C0
FF80
3F00
ENDCHAR
STARTCHAR Yacute
ENCODING 221
SWIDTH 667 0
DWIDTH 12 0
BBX 12 15 1 0
BITMAP
01C0
0600
0000
E070
70E0
71C0
7380
3F00
3E00
1C00
1C00
1C00
3800
3800
3800
ENDCHAR
STARTCHAR Thorn
ENCODING 222
SWIDTH 667 0
DWIDTH 12 0
BBX 12 12 0 0
BITMAP
3800
3800
3FC0
7FE0
70F0
7070
7070
70F0
7FE0
FFC0
E000
E000
ENDCHAR
STARTCHAR germandbls
ENCODING 223
SWIDTH 611 0
DWIDTH 11 0
BBX 10 13 0 0
BITMAP
0F80
1FC0
39C0
39C0
7380
7700
7700
7780
73C0
71C0
E9C0
EFC0
EF80
ENDCHAR
STARTCHAR agrave
ENCODING 224
SWIDTH 556 0
DWIDTH 10 0
BBX 10 14 0 0
BITMAP
0E00
0600
0300
0000
1F00
3F80
7380
0380
3F80
FF80
E380
E700
FBC0
73C0
ENDCHAR
STARTCHAR aacute
ENCODING 225
SWIDTH 556 0
DWIDTH 10 0
BBX 10 14 0 0
BITMAP
01C0
0300
0600
0000
1F00
3F80
7380
0380
3F80
FF80
E380
E700
FBC0
73C0
ENDCHAR
STARTCHAR acircumflex
ENCODING 226
SWIDTH 556 0
DWIDTH 10 0
BBX 10 14 0 0
BITMAP
0380
0F80
18C0
0000
1F00
3F80
7380
0380
3F80
FF80
E380
E700
FBC0
73C0
ENDCHAR
STARTCHAR atilde
ENCODING 227
SWIDTH 556 0
DWIDTH 10 0
BBX 10 14 0 0
BITMAP
0E40
1FC0
1380
0000
1F00
3F80
7380
0380
3F80
FF80
E380
E700
FBC0
73C0
ENDCHAR
STARTCHAR adieresis
ENCODING 228
SWIDTH 556 0
DWIDTH 10 0
BBX 10 13 0 0
BITMAP
1980
1980
0000
1F00
3F80
7380
0380
3F80
FF80
E380
E700
FBC0
73C0
ENDCHAR
STARTCHAR aring
ENCODING 229
SWIDTH 556 0
DWIDTH 10 0
BBX 10 15 0 0
BITMAP
0600
0900
0900
0600
0000
1F00
3F80
7380
0380
3F80
FF80
E380
E700
FBC0
73C0
ENDCHAR
STARTCHAR ae
ENCODING 230
SWIDTH 889 0
DWIDTH 16 0
BBX 15 10 0 0
BITMAP
1EF8
3FFC
738E
038E
3FFE
FFFE
E700
E71C
FFF8
79F0
ENDCHAR
STARTCHAR ccedilla
ENCODING 231
SWIDTH 556 0
DWIDTH 10 0
BBX 10 14 0 -4
BITMAP
1F00
3F80
71C0
7180
E000
E000
E100
E380
7F00
3E00
0800
1C00
0C00
3800
ENDCHAR
STARTCHAR egrave
ENCODING 232
SWIDTH 556 0
DWIDTH 10 0
BBX 9 14 0 0
BITMAP
1C00
0C00
0600
0000
1E00
3F00
7380
E380
FF80
FF80
E000
E700
7E00
3C00
ENDCHAR
STARTCHAR eacute
ENCODING 233
SWIDTH 556 0
DWIDTH 10 0
BBX 9 14 0 0
BITMAP
0380
0600
0C00
0000
1E00
3F00
7380
E380
FF80
FF80
E000
E700
7E00
3C00
ENDCHAR
STARTCHAR ecircumflex
ENCODING 234
SWIDTH 556 0
DWIDTH 10 0
BBX 9 14 0 0
BITMAP
0700
1F00
3180
0000
1E00
3F00
7380
E380
FF80
FF80
E000
E700
7E00
3C00
ENDCHAR
STARTCHAR edieresis
ENCODING 235
SWIDTH 556 0
DWIDTH 10 0
BBX 9 13 0 0
BITMAP
1980
1980
0000
1E00
3F00
7380
E380
FF80
FF80
E000
E700
7E00
3C00
ENDCHAR
STARTCHAR igrave
ENCODING 236
SWIDTH 278 0
DWIDTH 5 0
BBX 5 14 0 0
BITMAP
70
30
18
00
70
70
70
70
70
70
70
E0
E0
E0
ENDCHAR
STARTCHAR iacute
ENCODING 237
SWIDTH 278 0
DWIDTH 5 0
BBX 7 14 0 0
BITMAP
0E
18
30
00
70
70
70
70
70
70
70
E0
E0
E0
ENDCHAR
STARTCHAR icircumflex
ENCODING 238
SWIDTH 278 0
DWIDTH 5 0
BBX 7 14 0 0
BITMAP
1C
7C
C6
00
70
70
70
70
70
70
70
E0
E0
E0
ENDCHAR
STARTCHAR idieresis
ENCODING 239
SWIDTH 278 0
DWIDTH 5 0
BBX 7 13 0 0
BITMAP
66
66
00
70
70
70
70
70
70
70
E0
E0
E0
ENDCHAR
STARTCHAR eth
ENCODING 240
SWIDTH 611 0
DWIDTH 11 0
BBX 10 13 0 0
BITMAP
0EC0
0780
0B80
0180
1FC0
7FC0
71C0
E1C0
E1C0
E1C0
E380
7F00
3E00
ENDCHAR
STARTCHAR ntilde
ENCODING 241
SWIDTH 611 0
DWIDTH 11 0
BBX 10 14 0 0
BITMAP
0E40
1FC0
1380
0000
3780
7FC0
79C0
71C0
71C0
71C0
71C0
E380
E380
E380
ENDCHAR
STARTCHAR ograve
ENCODING 242
SWIDTH 611 0
DWIDTH 11 0
BBX 10 14 0 0
BITMAP
0E00
0600
0300
0000
1F00
3F80
71C0
E1C0
E1C0
E1C0
E1C0
E380
7F00
3E00
ENDCHAR
STARTCHAR oacute
ENCODING 243
SWIDTH 611 0
DWIDTH 11 0
BBX 10 14 0 0
BITMAP
01C0
0300
0600
0000
1F00
3F80
71C0
E1C0
E1C0
E1C0
E1C0
E380
7F00
3E00
ENDCHAR
STARTCHAR ocircumflex
ENCODING 244
SWIDTH 611 0
DWIDTH 11 0
BBX 10 14 0 0
BITMAP
0380
0F80
18C0
0000
1F00
3F80
71C0
E1C0
E1C0
E1C0
E1C0
E380
7F00
3E00
ENDCHAR
STARTCHAR otilde
ENCODING 245
SWIDTH 611 0
DWIDTH 11 0
BBX 10 14 0 0
BITMAP
0E40
1FC0
1380
0000
1F00
3F80
71C0
E1C0
E1C0
E1C0
E1C0
E380
7F00
3E00
ENDCHAR
STARTCHAR odieresis
ENCODING 246
SWIDTH 611 0
DWIDTH 11 0
BBX 10 13 0 0
BITMAP
0CC0
0CC0
0000
1F00
3F80
71C0
E1C0
E1C0
E1C0
E1C0
E380
7F00
3E00
ENDCHAR
STARTCHAR divide
ENCODING 247
SWIDTH 556 0
DWIDTH 10 0
BBX 8 8 1 2
BITMAP
18
18
00
FF
FF
00
18
18
ENDCHAR
STARTCHAR oslash
ENCODING 248
SWIDTH 611 0
DWIDTH 11 0
BBX 10 10 0 0
BITMAP
1FC0
3F80
73C0
E3C0
E5C0
E9C0
F9C0
F380
7F00
FE00
ENDCHAR
STARTCHAR ugrave
ENCODING 249
SWIDTH 611 0
DWIDTH 11 0
BBX 11 14 0 0
BITMAP
0E00
0600
0300
0000
71C0
71C0
71C0
71C0
71C0
71C0
73C0
F380
7F80
7B80
ENDCHAR
STARTCHAR uacute
ENCODING 250
SWIDTH 611 0
DWIDTH 11 0
BBX 11 14 0 0
BITMAP
01C0
0300
0600
0000
71C0
71C0
71C0
71C0
71C0
71C0
73C0
F380
7F80
7B80
ENDCHAR
STARTCHAR ucircumflex
ENCODING 251
SWIDTH 611 0
DWIDTH 11 0
BBX 11 14 0 0
BITMAP
0380
0F80
18C0
0000
71C0
71C0
71C0
71C0
71C0
71C0
73C0
F380
7F80
7B80
ENDCHAR
STARTCHAR udieresis
ENCODING 252
SWIDTH 611 0
DWIDTH 11 0
BBX 11 13 0 0
BITMAP
0CC0
0CC0
0000
71C0
71C0
71C0
71C0
71C0
71C0
73C0
F380
7F80
7B80
ENDCHAR
STARTCHAR yacute
ENCODING 253
SWIDTH 556 0
DWIDTH 10 0
BBX 12 18 -1 -4
BITMAP
00E0
0180
0300
0000
3870
38E0
38E0
39C0
1980
1980
1B00
1B00
1E00
1C00
1C00
3800
F000
E000
ENDCHAR
STARTCHAR thorn
ENCODING 254
SWIDTH 611 0
DWIDTH 11 0
BBX 11 17 -1 -4
BITMAP
1C00
1C00
1C00
3BC0
3FE0
3CE0
38E0
38E0
38E0
38E0
79C0
7FC0
7780
7000
7000
7000
E000
ENDCHAR
STARTCHAR ydieresis
ENCODING 255
SWIDTH 556 0
DWIDTH 10 0
BBX 12 17 -1 -4
BITMAP
0CC0
0CC0
0000
3870
38E0
38E0
39C0
1980
1980
1B00
1B00
1E00
1C00
1C00
3800
F000
E000
ENDCHAR
STARTCHAR Amacron
ENCODING 256
SWIDTH 722 0
DWIDTH 13 0
BBX 12 15 0 0
BITMAP
03E0
03E0
0000
03E0
03E0
07E0
06E0
0EE0
0CE0
1CE0
1FE0
3FF0
7070
7070
E070
ENDCHAR
STARTCHAR amacron
ENCODING 257
SWIDTH 556 0
DWIDTH 10 0
BBX 10 13 0 0
BITMAP
0F80
0F80
0000
1F00
3F80
7380
0380
3F80
FF80
E380
E700
FBC0
73C0
ENDCHAR
STARTCHAR Abreve
ENCODING 258
SWIDTH 722 0
DWIDTH 13 0
BBX 12 16 0 0
BITMAP
0330
03E0
01E0
0000
03E0
03E0
07E0
06E0
0EE0
0CE0
1CE0
1FE0
3FF0
7070
7070
E070
ENDCHAR
STARTCHAR abreve
ENCODING 259
SWIDTH 556 0
DWIDTH 10 0
BBX 10 14 0 0
BITMAP
0CC0
0F80
0780
0000
1F00
3F80
7380
0380
3F80
FF80
E380
E700
FBC0
73C0
ENDCHAR
STARTCHAR Aogonek
ENCODING 260
SWIDTH 722 0
DWIDTH 13 0
BBX 12 16 0 -4
BITMAP
03E0
03E0
07E0
06E0
0EE0
0CE0
1CE0
1FE0
3FF0
7070
7070
E070
0030
0060
0070
0070
ENDCHAR
STARTCHAR aogonek
ENCODING 261
SWIDTH 556 0
DWIDTH 10 0
BBX 10 14 0 -4
BITMAP
1F00
3F80
7380
0380
3F80
FF80
E380
E700
FBC0
73C0
0180
0300
0380
0380
ENDCHAR
STARTCHAR Cacute
ENCODING 262
SWIDTH 722 0
DWIDTH 13 0
BBX 12 15 1 0
BITMAP
0070
0180
0000
0FC0
3FE0
7870
7070
E000
E000
E000
E000
E040
71E0
7FC0
1F00
ENDCHAR
STARTCHAR cacute
ENCODING 263
SWIDTH 556 0
DWIDTH 10 0
BBX 10 14 0 0
BITMAP
01C0
0300
0600
0000
1F00
3F80
71C0
7180
E000
E000
E100
E380
7F00
3E00
ENDCHAR
STARTCHAR Ccircumflex
ENCODING 264
SWIDTH 722 0
DWIDTH 13 0
BBX 12 16 1 0
BITMAP
0380
07C0
0C60
0000
0FC0
3FE0
7870
7070
E000
E000
E000
E000
E040
71E0
7FC0
1F00
ENDCHAR
STARTCHAR ccircumflex
ENCODING 265
SWIDTH 556 0
DWIDTH 10 0
BBX 10 14 0 0
BITMAP
0380
0F80
18C0
0000
1F00
3F80
71C0
7180
E000
E000
E100
E380
7F00
3E00
ENDCHAR
STARTCHAR Cdotaccent
ENCODING 266
SWIDTH 722 0
DWIDTH 13 0
BBX 12 15 1 0
BITMAP
0380
0380
0000
0FC0
3FE0
7870
7070
E000
E000
E000
E000
E040
71E0
7FC0
1F00
ENDCHAR
STARTCHAR cdotaccent
ENCODING 267
SWIDTH 556 0
DWIDTH 10 0
BBX 10 13 0 0
BITMAP
0700
0700
0000
1F00
3F80
71C0
7180
E000
E000
E100
E380
7F00
3E00
ENDCHAR
STARTCHAR Ccaron
ENCODING 268
SWIDTH 722 0
DWIDTH 13 0
BBX 12 16 1 0
BITMAP
0C60
07C0
0380
0000
0FC0
3FE0
7870
7070
E000
E000
E000
E000
E040
71E0
7FC0
1F00
ENDCHAR
STARTCHAR ccaron
ENCODING 269
SWIDTH 556 0
DWIDTH 10 0
BBX 10 14 0 0
BITMAP
0CC0
0780
0700
0000
1F00
3F80
71C0
7180
E000
E000
E100
E380
7F00
3E00
ENDCHAR
STARTCHAR Dcaron
ENCODING 270
SWIDTH 722 0
DWIDTH 13 0
BBX 12 16 0 0
BITMAP
0C60
07C0
0380
0000
3F80
3FE0
38E0
7070
7070
7070
7070
7070
70E0
E1E0
FFC0
FF00
ENDCHAR
STARTCHAR dcaron
ENCODING 271
SWIDTH 722 0
DWIDTH 13 0
BBX 15 13 0 0
BITMAP
00EE
00EE
00E4
1DCC
7FC0
73C0
E1C0
E1C0
E1C0
E380
E380
FF80
7B80
ENDCHAR
STARTCHAR Dcroat
ENCODING 272
SWIDTH 722 0
DWIDTH 13 0
BBX 12 12 0 0
BITMAP
3F80
3FE0
38E0
7070
7070
FE70
FE70
7070
70E0
E1E0
FFC0
FF00
ENDCHAR
STARTCHAR dcroat
ENCODING 273
SWIDTH 611 0
DWIDTH 11 0
BBX 12 13 0 0
BITMAP
00E0
07F0
00E0
1DC0
7FC0
73C0
E1C0
E1C0
E1C0
E380
E380
FF80
7B80
ENDCHAR
STARTCHAR Emacron
ENCODING 274
SWIDTH 667 0
DWIDTH 12 0
BBX 12 15 0 0
BITMAP
07C0
07C0
0000
3FF0
3FF0
3800
7000
7000
7FC0
7FC0
7000
7000
E000
FFC0
FFC0
ENDCHAR
STARTCHAR emacron
ENCODING 275
SWIDTH 556 0
DWIDTH 10 0
BBX 9 13 0 0
BITMAP
1F00
1F00
0000
1E00
3F00
7380
E380
FF80
FF80
E000
E700
7E00
3C00
ENDCHAR
STARTCHAR Ebreve
ENCODING 276
SWIDTH 667 0
DWIDTH 12 0
BBX 12 16 0 0
BITMAP
0660
07C0
03C0
0000
3FF0
3FF0
3800
7000
7000
7FC0
7FC0
7000
7000
E000
FFC0
FFC0
ENDCHAR
STARTCHAR ebreve
ENCODING 277
SWIDTH 556 0
DWIDTH 10 0
BBX 9 14 0 0
BITMAP
1980
1F00
0F00
0000
1E00
3F00
7380
E380
FF80
FF80
E000
E700
7E00
3C00
ENDCHAR
STARTCHAR Edotaccent
ENCODING 278
SWIDTH 667 0
DWIDTH 12 0
BBX 12 15 0 0
BITMAP
0380
0380
0000
3FF0
3FF0
3800
7000
7000
7FC0
7FC0
7000
7000
E000
FFC0
FFC0
ENDCHAR
STARTCHAR edotaccent
ENCODING 279
SWIDTH 556 0
DWIDTH 10 0
BBX 9 13 0 0
BITMAP
0E00
0E00
0000
1E00
3F00
7380
E380
FF80
FF80
E000
E700
7E00
3C00
ENDCHAR
STARTCHAR Eogonek
ENCODING 280
SWIDTH 667 0
DWIDTH 12 0
BBX 12 16 0 -4
BITMAP
3FF0
3FF0
3800
7000
7000
7FC0
7FC0
7000
7000
E000
FFC0
FFC0
0180
0300
0380
0380
ENDCHAR
STARTCHAR eogonek
ENCODING 281
SWIDTH 556 0
DWIDTH 10 0
BBX 9 14 0 -4
BITMAP
1E00
3F00
7380
E380
FF80
FF80
E000
E700
7E00
3C00
0C00
1800
1C00
1C00
ENDCHAR
STARTCHAR Ecaron
ENCODING 282
SWIDTH 667 0
DWIDTH 12 0
BBX 12 16 0 0
BITMAP
0C60
07C0
0380
0000
3FF0
3FF0
3800
7000
7000
7FC0
7FC0
7000
7000
E000
FFC0
FFC0
ENDCHAR
STARTCHAR ecaron
ENCODING 283
SWIDTH 556 0
DWIDTH 10 0
BBX 9 14 0 0
BITMAP
1980
0F00
0E00
0000
1E00
3F00
7380
E380
FF80
FF80
E000
E700
7E00
3C00
ENDCHAR
STARTCHAR Gcircumflex
ENCODING 284
SWIDTH 778 0
DWIDTH 14 0
BBX 13 16 1 0
BITMAP
01C0
03E0
0630
0000
0FC0
1FF0
3878
7038
E000
E000
E1F0
E1F0
E070
70E0
7FE0
1F80
ENDCHAR
STARTCHAR gcircumflex
ENCODING 285
SWIDTH 611 0
DWIDTH 11 0
BBX 12 18 -1 -4
BITMAP
0380
0F80
18C0
0000
1EE0
3FE0
39E0
70E0
70E0
70E0
71E0
71C0
7FC0
3DC0
01C0
E3C0
FF80
3E00
ENDCHAR
STARTCHAR Gbreve
ENCODING 286
SWIDTH 778 0
DWIDTH 14 0
BBX 13 16 1 0
BITMAP
0660
07C0
03C0
0000
0FC0
1FF0
3878
7038
E000
E000
E1F0
E1F0
E070
70E0
7FE0
1F80
ENDCHAR
STARTCHAR gbreve
ENCODING 287
SWIDTH 611 0
DWIDTH 11 0
BBX 12 18 -1 -4
BITMAP
0CC0
0F80
0780
0000
1EE0
3FE0
39E0
70E0
70E0
70E0
71E0
71C0
7FC0
3DC0
01C0
E3C0
FF80
3E00
ENDCHAR
STARTCHAR Gdotaccent
ENCODING 288
SWIDTH 778 0
DWIDTH 14 0
BBX 13 15 1 0
BITMAP
01C0
01C0
0000
0FC0
1FF0
3878
7038
E000
E000
E1F0
E1F0
E070
70E0
7FE0
1F80
ENDCHAR
STARTCHAR gdotaccent
ENCODING 289
SWIDTH 611 0
DWIDTH 11 0
BBX 12 17 -1 -4
BITMAP
0380
0380
0000
1EE0
3FE0
39E0
70E0
70E0
70E0
71E0
71C0
7FC0
3DC0
01C0
E3C0
FF80
3E00
ENDCHAR
STARTCHAR Gcommaaccent
ENCODING 290
SWIDTH 778 0
DWIDTH 14 0
BBX 13 17 1 -5
BITMAP
0FC0
1FF0
3878
7038
E000
E000
E1F0
E1F0
E070
70E0
7FE0
1F80
0000
0700
0700
0200
0600
ENDCHAR
STARTCHAR gcommaaccent
ENCODING 291
SWIDTH 611 0
DWIDTH 11 0
BBX 12 19 -1 -4
BITMAP
0180
0100
0380
0380
0000
1EE0
3FE0
39E0
70E0
70E0
70E0
71E0
71C0
7FC0
3DC0
01C0
E3C0
FF80
3E00
ENDCHAR
STARTCHAR Hcircumflex
ENCODING 292
SWIDTH 722 0
DWIDTH 13 0
BBX 13 16 0 0
BITMAP
01C0
03E0
0630
0000
3838
3838
3838
7070
7070
7FF0
7FF0
7070
7070
E0E0
E0E0
E0E0
ENDCHAR
STARTCHAR hcircumflex
ENCODING 293
SWIDTH 611 0
DWIDTH 11 0
BBX 11 17 0 0
BITMAP
0380
07C0
0C60
0000
3800
3800
3800
7380
77C0
79C0
71C0
71C0
71C0
71C0
E380
E380
E380
ENDCHAR
STARTCHAR Hbar
ENCODING 294
SWIDTH 722 0
DWIDTH 13 0
BBX 14 12 0 0
BITMAP
3838
3838
FFFC
FFFC
7070
7FF0
7FF0
7070
7070
E0E0
E0E0
E0E0
ENDCHAR
STARTCHAR hbar
ENCODING 295
SWIDTH 611 0
DWIDTH 11 0
BBX 10 13 0 0
BITMAP
3800
7E00
3800
7380
77C0
79C0
71C0
71C0
71C0
71C0
E380
E380
E380
ENDCHAR
STARTCHAR Itilde
ENCODING 296
SWIDTH 278 0
DWIDTH 5 0
BBX 8 16 0 0
BITMAP
39
7F
4E
00
38
38
38
70
70
70
70
70
70
E0
E0
E0
ENDCHAR
STARTCHAR itilde
ENCODING 297
SWIDTH 278 0
DWIDTH 5 0
BBX 7 14 0 0
BITMAP
72
FE
9C
00
70
70
70
70
70
70
70
E0
E0
E0
ENDCHAR
STARTCHAR Imacron
ENCODING 298
SWIDTH 278 0
DWIDTH 5 0
BBX 7 15 0 0
BITMAP
3E
3E
00
38
38
38
70
70
70
70
70
70
E0
E0
E0
ENDCHAR
STARTCHAR imacron
ENCODING 299
SWIDTH 278 0
DWIDTH 5 0
BBX 6 13 0 0
BITMAP
7C
7C
00
70
70
70
70
70
70
70
E0
E0
E0
ENDCHAR
STARTCHAR Ibreve
ENCODING 300
SWIDTH 278 0
DWIDTH 5 0
BBX 7 16 0 0
BITMAP
66
7C
3C
00
38
38
38
70
70
70
70
70
70
E0
E0
E0
ENDCHAR
STARTCHAR ibreve
ENCODING 301
SWIDTH 278 0
DWIDTH 5 0
BBX 7 14 0 0
BITMAP
66
7C
3C
00
70
70
70
70
70
70
70
E0
E0
E0
ENDCHAR
STARTCHAR Iogonek
ENCODING 302
SWIDTH 278 0
DWIDTH 5 0
BBX 5 16 0 -4
BITMAP
38
38
38
70
70
70
70
70
70
E0
E0
E0
60
C0
E0
E0
ENDCHAR
STARTCHAR iogonek
ENCODING 303
SWIDTH 278 0
DWIDTH 5 0
BBX 5 17 0 -4
BITMAP
38
38
00
70
70
70
70
70
70
70
E0
E0
E0
60
C0
E0
E0
ENDCHAR
STARTCHAR Idotaccent
ENCODING 304
SWIDTH 278 0
DWIDTH 5 0
BBX 6 15 0 0
BITMAP
1C
1C
00
38
38
38
70
70
70
70
70
70
E0
E0
E0
ENDCHAR
STARTCHAR dotlessi
ENCODING 305
SWIDTH 278 0
DWIDTH 5 0
BBX 5 10 0 0
BITMAP
70
70
70
70
70
70
70
E0
E0
E0
ENDCHAR
STARTCHAR IJ
ENCODING 306
SWIDTH 778 0
DWIDTH 14 0
BBX 14 12 0 0
BITMAP
38FC
38FC
381C
7038
7038
7038
7038
7038
7C38
EE70
E7F0
E3E0
ENDCHAR
STARTCHAR ij
ENCODING 307
SWIDTH 556 0
DWIDTH 10 0
BBX 10 17 0 -4
BITMAP
39C0
39C0
0000
7380
7380
7380
7380
7380
7380
7380
E700
E700
E700
0700
0700
1E00
1C00
ENDCHAR
STARTCHAR Jcircumflex
ENCODING 308
SWIDTH 556 0
DWIDTH 10 0
BBX 12 16 0 0
BITMAP
01C0
03E0
0630
0000
0FC0
0FC0
01C0
0380
0380
0380
0380
0380
C380
E700
7F00
3E00
ENDCHAR
STARTCHAR jcircumflex
ENCODING 309
SWIDTH 278 0
DWIDTH 5 0
BBX 9 18 -2 -4
BITMAP
0700
1F00
3180
0000
1C00
1C00
1C00
1C00
1C00
1C00
1C00
3800
3800
3800
3800
3800
F000
E000
ENDCHAR
STARTCHAR Kcommaaccent
ENCODING 310
SWIDTH 722 0
DWIDTH 13 0
BBX 14 17 0 -5
BITMAP
3838
3870
38E0
73C0
7700
7F00
7F00
7380
71C0
E1C0
E0E0
E070
0000
0E00
0E00
0400
0C00
ENDCHAR
STARTCHAR kcommaaccent
ENCODING 311
SWIDTH 556 0
DWIDTH 10 0
BBX 10 18 0 -5
BITMAP
3800
3800
3800
71C0
7380
7700
7E00
7E00
7E00
7700
E700
E700
E380
0000
1C00
1C00
0800
1800
ENDCHAR
STARTCHAR kgreenlandic
ENCODING 312
SWIDTH 556 0
DWIDTH 10 0
BBX 10 10 0 0
BITMAP
71C0
7380
7700
7E00
7E00
7E00
7700
E700
E700
E380
ENDCHAR
STARTCHAR Lacute
ENCODING 313
SWIDTH 611 0
DWIDTH 11 0
BBX 10 15 0 0
BITMAP
0380
0C00
0000
3800
3800
3800
7000
7000
7000
7000
7000
7000
E000
FFC0
FFC0
ENDCHAR
STARTCHAR lacute
ENCODING 314
SWIDTH 278 0
DWIDTH 5 0
BBX 8 16 0 0
BITMAP
07
18
00
38
38
38
70
70
70
70
70
70
70
E0
E0
E0
ENDCHAR
STARTCHAR Lcommaaccent
ENCODING 315
SWIDTH 611 0
DWIDTH 11 0
BBX 10 17 0 -5
BITMAP
3800
3800
3800
7000
7000
7000
7000
7000
7000
E000
FFC0
FFC0
0000
0E00
0E00
0400
0C00
ENDCHAR
STARTCHAR lcommaaccent
ENCODING 316
SWIDTH 278 0
DWIDTH 5 0
BBX 5 18 0 -5
BITMAP
38
38
38
70
70
70
70
70
70
70
E0
E0
E0
00
E0
E0
40
C0
ENDCHAR
STARTCHAR Lcaron
ENCODING 317
SWIDTH 611 0
DWIDTH 11 0
BBX 10 12 0 0
BITMAP
39C0
39C0
3880
7180
7000
7000
7000
7000
7000
E000
FFC0
FFC0
ENDCHAR
STARTCHAR lcaron
ENCODING 318
SWIDTH 389 0
DWIDTH 7 0
BBX 9 13 0 0
BITMAP
3B80
3B80
3900
7300
7000
7000
7000
7000
7000
7000
E000
E000
E000
ENDCHAR
STARTCHAR Ldot
ENCODING 319
SWIDTH 611 0
DWIDTH 11 0
BBX 10 12 0 0
BITMAP
3800
3800
3800
7000
7380
7380
7000
7000
7000
E000
FFC0
FFC0
ENDCHAR
STARTCHAR ldot
ENCODING 320
SWIDTH 500 0
DWIDTH 9 0
BBX 8 13 0 0
BITMAP
38
38
38
70
70
77
77
70
70
70
E0
E0
E0
ENDCHAR
STARTCHAR Lslash
ENCODING 321
SWIDTH 611 0
DWIDTH 11 0
BBX 11 12 -1 0
BITMAP
1C00
1C00
1C00
3800
3900
3F00
7800
7800
3800
7000
7FE0
7FE0
ENDCHAR
STARTCHAR lslash
ENCODING 322
SWIDTH 278 0
DWIDTH 5 0
BBX 7 13 -1 0
BITMAP
1C
1C
1C
38
3A
3C
38
78
B8
38
70
70
70
ENDCHAR
STARTCHAR Nacute
ENCODING 323
SWIDTH 722 0
DWIDTH 13 0
BBX 13 15 0 0
BITMAP
0070
0180
0000
3C38
3C38
3C38
7670
7670
7670
7370
7370
7370
E1E0
E1E0
E1E0
ENDCHAR
STARTCHAR nacute
ENCODING 324
SWIDTH 611 0
DWIDTH 11 0
BBX 10 14 0 0
BITMAP
01C0
0300
0600
0000
3780
7FC0
79C0
71C0
71C0
71C0
71C0
E380
E380
E380
ENDCHAR
STARTCHAR Ncommaaccent
ENCODING 325
SWIDTH 722 0
DWIDTH 13 0
BBX 13 17 0 -5
BITMAP
3C38
3C38
3C38
7670
7670
7670
7370
7370
7370
E1E0
E1E0
E1E0
0000
0E00
0E00
0400
0C00
ENDCHAR
STARTCHAR ncommaaccent
ENCODING 326
SWIDTH 611 0
DWIDTH 11 0
BBX 10 15 0 -5
BITMAP
3780
7FC0
79C0
71C0
71C0
71C0
71C0
E380
E380
E380
0000
1C00
1C00
0800
1800
ENDCHAR
STARTCHAR Ncaron
ENCODING 327
SWIDTH 722 0
DWIDTH 13 0
BBX 13 16 0 0
BITMAP
0630
03E0
01C0
0000
3C38
3C38
3C38
7670
7670
7670
7370
7370
7370
E1E0
E1E0
E1E0
ENDCHAR
STARTCHAR ncaron
ENCODING 328
SWIDTH 611 0
DWIDTH 11 0
BBX 10 14 0 0
BITMAP
0CC0
0780
0700
0000
3780
7FC0
79C0
71C0
71C0
71C0
71C0
E380
E380
E380
ENDCHAR
STARTCHAR napostrophe
ENCODING 329
SWIDTH 722 0
DWIDTH 13 0
BBX 13 12 -1 0
BITMAP
3800
3800
76F0
1FF8
2F38
6E38
0E38
0E38
0E38
1C70
1C70
1C70
ENDCHAR
STARTCHAR Eng
ENCODING 330
SWIDTH 722 0
DWIDTH 13 0
BBX 13 13 0 0
BITMAP
00C0
1BF0
3F78
3838
3838
3038
3030
7030
7070
7070
6660
6FE0
E7C0
ENDCHAR
STARTCHAR eng
ENCODING 331
SWIDTH 611 0
DWIDTH 11 0
BBX 10 14 0 -4
BITMAP
7380
7FC0
79C0
71C0
71C0
71C0
71C0
E380
E380
E380
0380
0380
0F00
0E00
ENDCHAR
STARTCHAR Omacron
ENCODING 332
SWIDTH 778 0
DWIDTH 14 0
BBX 12 15 1 0
BITMAP
07C0
07C0
0000
0F80
3FE0
78F0
7070
E070
E070
E070
E070
E0E0
71E0
7FC0
1F00
ENDCHAR
STARTCHAR omacron
ENCODING 333
SWIDTH 611 0
DWIDTH 11 0
BBX 10 13 0 0
BITMAP
0F80
0F80
0000
1F00
3F80
71C0
E1C0
E1C0
E1C0
E1C0
E380
7F00
3E00
ENDCHAR
STARTCHAR Obreve
ENCODING 334
SWIDTH 778 0
DWIDTH 14 0
BBX 12 16 1 0
BITMAP
0660
07C0
03C0
0000
0F80
3FE0
78F0
7070
E070
E070
E070
E070
E0E0
71E0
7FC0
1F00
ENDCHAR
STARTCHAR obreve
ENCODING 335
SWIDTH 611 0
DWIDTH 11 0
BBX 10 14 0 0
BITMAP
0CC0
0F80
0780
0000
1F00
3F80
71C0
E1C0
E1C0
E1C0
E1C0
E380
7F00
3E00
ENDCHAR
STARTCHAR Ohungarumlaut
ENCODING 336
SWIDTH 778 0
DWIDTH 14 0
BBX 13 15 1 0
BITMAP
03B8
0660
0000
0F80
3FE0
78F0
7070
E070
E070
E070
E070
E0E0
71E0
7FC0
1F00
ENDCHAR
STARTCHAR ohungarumlaut
ENCODING 337
SWIDTH 611 0
DWIDTH 11 0
BBX 12 14 0 0
BITMAP
0770
0CC0
1980
0000
1F00
3F80
71C0
E1C0
E1C0
E1C0
E1C0
E380
7F00
3E00
ENDCHAR
STARTCHAR OE
ENCODING 338
SWIDTH 1000 0
DWIDTH 18 0
BBX 17 12 1 0
BITMAP
0FFF80
1FFF80
387000
70E000
F0E000
E0FE00
E0FE00
E0E000
E0E000
F1C000
7FFE00
3FFE00
ENDCHAR
STARTCHAR oe
ENCODING 339
SWIDTH 944 0
DWIDTH 17 0
BBX 16 10 1 0
BITMAP
0E38
3FFE
63C6
E1C7
C1FF
C1FE
C380
C38C
FFFC
7EF8
ENDCHAR
STARTCHAR Racute
ENCODING 340
SWIDTH 722 0
DWIDTH 13 0
BBX 12 15 0 0
BITMAP
00E0
0300
0000
3FC0
3FE0
3870
7070
7070
7FE0
7F80
7380
71C0
E1C0
E1C0
E0E0
ENDCHAR
STARTCHAR racute
ENCODING 341
SWIDTH 389 0
DWIDTH 7 0
BBX 8 14 0 0
BITMAP
07
0C
18
00
76
76
78
70
70
70
70
E0
E0
E0
ENDCHAR
STARTCHAR Rcommaaccent
ENCODING 342
SWIDTH 722 0
DWIDTH 13 0
BBX 12 17 0 -5
BITMAP
3FC0
3FE0
3870
7070
7070
7FE0
7F80
7380
71C0
E1C0
E1C0
E0E0
0000
0E00
0E00
0400
0C00
ENDCHAR
STARTCHAR rcommaaccent
ENCODING 343
SWIDTH 389 0
DWIDTH 7 0
BBX 8 15 -1 -5
BITMAP
3B
3B
3C
38
38
38
38
70
70
70
00
E0
E0
40
C0
ENDCHAR
STARTCHAR Rcaron
ENCODING 344
SWIDTH 722 0
DWIDTH 13 0
BBX 12 16 0 0
BITMAP
0C60
07C0
0380
0000
3FC0
3FE0
3870
7070
7070
7FE0
7F80
7380
71C0
E1C0
E1C0
E0E0
ENDCHAR
STARTCHAR rcaron
ENCODING 345
SWIDTH 389 0
DWIDTH 7 0
BBX 8 14 0 0
BITMAP
33
1E
1C
00
76
76
78
70
70
70
70
E0
E0
E0
ENDCHAR
STARTCHAR Sacute
ENCODING 346
SWIDTH 667 0
DWIDTH 12 0
BBX 12 15 0 0
BITMAP
00E0
0300
0000
0FC0
1FE0
3870
3840
3C00
1F80
07C0
00E0
E0E0
E0E0
7FC0
3F80
ENDCHAR
STARTCHAR sacute
ENCODING 347
SWIDTH 556 0
DWIDTH 10 0
BBX 10 14 0 0
BITMAP
01C0
0300
0600
0000
1F00
7F80
7180
7800
3E00
1F00
0700
C700
FF00
7C00
ENDCHAR
STARTCHAR Scircumflex
ENCODING 348
SWIDTH 667 0
DWIDTH 12 0
BBX 12 16 0 0
BITMAP
0380
07C0
0C60
0000
0FC0
1FE0
3870
3840
3C00
1F80
07C0
00E0
E0E0
E0E0
7FC0
3F80
ENDCHAR
STARTCHAR scircumflex
ENCODING 349
SWIDTH 556 0
DWIDTH 10 0
BBX 9 14 0 0
BITMAP
0700
1F00
3180
0000
1F00
7F80
7180
7800
3E00
1F00
0700
C700
FF00
7C00
ENDCHAR
STARTCHAR Scedilla
ENCODING 350
SWIDTH 667 0
DWIDTH 12 0
BBX 12 16 0 -4
BITMAP
0FC0
1FE0
3870
3840
3C00
1F80
07C0
00E0
E0E0
E0E0
7FC0
3F80
0400
0E00
0600
1C00
ENDCHAR
STARTCHAR scedilla
ENCODING 351
SWIDTH 556 0
DWIDTH 10 0
BBX 9 14 0 -4
BITMAP
1F00
7F80
7180
7800
3E00
1F00
0700
C700
FF00
7C00
0800
1C00
0C00
3800
ENDCHAR
STARTCHAR Scaron
ENCODING 352
SWIDTH 667 0
DWIDTH 12 0
BBX 12 16 0 0
BITMAP
0C60
07C0
0380
0000
0FC0
1FE0
3870
3840
3C00
1F80
07C0
00E0
E0E0
E0E0
7FC0
3F80
ENDCHAR
STARTCHAR scaron
ENCODING 353
SWIDTH 556 0
DWIDTH 10 0
BBX 9 14 0 0
BITMAP
1980
0F00
0E00
0000
1F00
7F80
7180
7800
3E00
1F00
0700
C700
FF00
7C00
ENDCHAR
STARTCHAR Tcommaaccent
ENCODING 354
SWIDTH 611 0
DWIDTH 11 0
BBX 11 16 0 -4
BITMAP
FFE0
FFE0
0E00
1C00
1C00
1C00
1C00
1C00
1C00
3800
3800
3800
0800
1C00
0C00
3800
ENDCHAR
STARTCHAR tcommaaccent
ENCODING 355
SWIDTH 333 0
DWIDTH 6 0
BBX 6 16 -1 -4
BITMAP
18
38
FC
FC
70
70
70
70
70
E0
F8
78
08
1C
0C
38
ENDCHAR
STARTCHAR Tcaron
ENCODING 356
SWIDTH 611 0
DWIDTH 11 0
BBX 11 16 1 0
BITMAP
18C0
0F80
0700
0000
FFE0
FFE0
0E00
1C00
1C00
1C00
1C00
1C00
1C00
3800
3800
3800
ENDCHAR
STARTCHAR tcaron
ENCODING 357
SWIDTH 500 0
DWIDTH 9 0
BBX 10 13 0 0
BITMAP
01C0
19C0
3880
FD80
FC00
7000
7000
7000
7000
7000
E000
F800
7800
ENDCHAR
STARTCHAR Tbar
ENCODING 358
SWIDTH 611 0
DWIDTH 11 0
BBX 11 12 1 0
BITMAP
FFE0
FFE0
0E00
1C00
1C00
7F00
7F00
1C00
1C00
3800
3800
3800
ENDCHAR
STARTCHAR tbar
ENCODING 359
SWIDTH 333 0
DWIDTH 6 0
BBX 6 12 0 0
BITMAP
18
38
FC
FC
70
70
F8
F8
70
E0
F8
78
ENDCHAR
STARTCHAR Utilde
ENCODING 360
SWIDTH 722 0
DWIDTH 13 0
BBX 12 16 1 0
BITMAP
0720
0FE0
09C0
0000
7070
7070
7070
E0E0
E0E0
E0E0
E0E0
E0E0
E1C0
E1C0
FF80
3F00
ENDCHAR
STARTCHAR utilde
ENCODING 361
SWIDTH 611 0
DWIDTH 11 0
BBX 11 14 0 0
BITMAP
0E40
1FC0
1380
0000
71C0
71C0
71C0
71C0
71C0
71C0
73C0
F380
7F80
7B80
ENDCHAR
STARTCHAR Umacron
ENCODING 362
SWIDTH 722 0
DWIDTH 13 0
BBX 12 15 1 0
BITMAP
07C0
07C0
0000
7070
7070
7070
E0E0
E0E0
E0E0
E0E0
E0E0
E1C0
E1C0
FF80
3F00
ENDCHAR
STARTCHAR umacron
ENCODING 363
SWIDTH 611 0
DWIDTH 11 0
BBX 11 13 0 0
BITMAP
0F80
0F80
0000
71C0
71C0
71C0
71C0
71C0
71C0
73C0
F380
7F80
7B80
ENDCHAR
STARTCHAR Ubreve
ENCODING 364
SWIDTH 722 0
DWIDTH 13 0
BBX 12 16 1 0
BITMAP
0CC0
0F80
0780
0000
7070
7070
7070
E0E0
E0E0
E0E0
E0E0
E0E0
E1C0
E1C0
FF80
3F00
ENDCHAR
STARTCHAR ubreve
ENCODING 365
SWIDTH 611 0
DWIDTH 11 0
BBX 11 14 0 0
BITMAP
0CC0
0F80
0780
0000
71C0
71C0
71C0
71C0
71C0
71C0
73C0
F380
7F80
7B80
ENDCHAR
STARTCHAR Uring
ENCODING 366
SWIDTH 722 0
DWIDTH 13 0
BBX 12 17 1 0
BITMAP
0300
0480
0480
0300
0000
7070
7070
7070
E0E0
E0E0
E0E0
E0E0
E0E0
E1C0
E1C0
FF80
3F00
ENDCHAR
STARTCHAR uring
ENCODING 367
SWIDTH 611 0
DWIDTH 11 0
BBX 11 15 0 0
BITMAP
0600
0900
0900
0600
0000
71C0
71C0
71C0
71C0
71C0
71C0
73C0
F380
7F80
7B80
ENDCHAR
STARTCHAR Uhungarumlaut
ENCODING 368
SWIDTH 722 0
DWIDTH 13 0
BBX 12 15 1 0
BITMAP
0770
0CC0
0000
7070
7070
7070
E0E0
E0E0
E0E0
E0E0
E0E0
E1C0
E1C0
FF80
3F00
ENDCHAR
STARTCHAR uhungarumlaut
ENCODING 369
SWIDTH 611 0
DWIDTH 11 0
BBX 12 14 0 0
BITMAP
0770
0CC0
1980
0000
71C0
71C0
71C0
71C0
71C0
71C0
73C0
F380
7F80
7B80
ENDCHAR
STARTCHAR Uogonek
ENCODING 370
SWIDTH 722 0
DWIDTH 13 0
BBX 12 16 1 -4
BITMAP
7070
7070
7070
E0E0
E0E0
E0E0
E0E0
E0E0
E1C0
E1C0
FF80
3F00
0600
0C00
0E00
0E00
ENDCHAR
STARTCHAR uogonek
ENCODING 371
SWIDTH 611 0
DWIDTH 11 0
BBX 11 14 0 -4
BITMAP
71C0
71C0
71C0
71C0
71C0
71C0
73C0
F380
7F80
7B80
0300
0600
0700
0700
ENDCHAR
STARTCHAR Wcircumflex
ENCODING 372
SWIDTH 944 0
DWIDTH 17 0
BBX 17 16 1 0
BITMAP
01C000
03E000
063000
000000
E1C380
E1C700
E3C700
E3CE00
E2CE00
E6CE00
66DC00
7CDC00
7CD800
7CF800
78F000
78F000
ENDCHAR
STARTCHAR wcircumflex
ENCODING 373
SWIDTH 778 0
DWIDTH 14 0
BBX 14 14 1 0
BITMAP
01C0
07C0
0C60
0000
E79C
E798
EDB8
EDB0
EDB0
D9F0
D9E0
F1E0
71C0
71C0
ENDCHAR
STARTCHAR Ycircumflex
ENCODING 374
SWIDTH 667 0
DWIDTH 12 0
BBX 12 16 1 0
BITMAP
0700
0F80
18C0
0000
E070
70E0
71C0
7380
3F00
3E00
1C00
1C00
1C00
3800
3800
3800
ENDCHAR
STARTCHAR ycircumflex
ENCODING 375
SWIDTH 556 0
DWIDTH 10 0
BBX 12 18 -1 -4
BITMAP
0380
0F80
18C0
0000
3870
38E0
38E0
39C0
1980
1980
1B00
1B00
1E00
1C00
1C00
3800
F000
E000
ENDCHAR
STARTCHAR Ydieresis
ENCODING 376
SWIDTH 667 0
DWIDTH 12 0
BBX 12 15 1 0
BITMAP
1980
1980
0000
E070
70E0
71C0
7380
3F00
3E00
1C00
1C00
1C00
3800
3800
3800
ENDCHAR
STARTCHAR Zacute
ENCODING 377
SWIDTH 611 0
DWIDTH 11 0
BBX 11 15 0 0
BITMAP
00E0
0300
0000
3FE0
3FE0
01C0
0380
0700
0F00
1E00
1C00
3800
7000
FF80
FF80
ENDCHAR
STARTCHAR zacute
ENCODING 378
SWIDTH 500 0
DWIDTH 9 0
BBX 10 14 0 0
BITMAP
01C0
0300
0600
0000
3F80
3F80
0700
0E00
1C00
1C00
3800
7000
FF00
FF00
ENDCHAR
STARTCHAR Zdotaccent
ENCODING 379
SWIDTH 611 0
DWIDTH 11 0
BBX 11 15 0 0
BITMAP
0380
0380
0000
3FE0
3FE0
01C0
0380
0700
0F00
1E00
1C00
3800
7000
FF80
FF80
ENDCHAR
STARTCHAR zdotaccent
ENCODING 380
SWIDTH 500 0
DWIDTH 9 0
BBX 9 13 0 0
BITMAP
0700
0700
0000
3F80
3F80
0700
0E00
1C00
1C00
3800
7000
FF00
FF00
ENDCHAR
STARTCHAR Zcaron
ENCODING 381
SWIDTH 611 0
DWIDTH 11 0
BBX 11 16 0 0
BITMAP
0C60
07C0
0380
0000
3FE0
3FE0
01C0
0380
0700
0F00
1E00
1C00
3800
7000
FF80
FF80
ENDCHAR
STARTCHAR zcaron
ENCODING 382
SWIDTH 500 0
DWIDTH 9 0
BBX 9 14 0 0
BITMAP
1980
0F00
0E00
0000
3F80
3F80
0700
0E00
1C00
1C00
3800
7000
FF00
FF00
ENDCHAR
STARTCHAR longs
ENCODING 383
SWIDTH 278 0
DWIDTH 5 0
BBX 7 13 0 0
BITMAP
1E
3E
38
70
70
70
70
70
70
70
E0
E0
E0
ENDCHAR
STARTCHAR florin
ENCODING 402
SWIDTH 556 0
DWIDTH 10 0
BBX 8 17 2 -4
BITMAP
0F
1F
1C
7E
7E
38
38
38
38
38
70
70
70
70
70
70
E0
ENDCHAR
STARTCHAR Aringacute
ENCODING 506
SWIDTH 722 0
DWIDTH 13 0
BBX 13 18 0 0
BITMAP
0038
00C0
0000
00C0
0120
0120
03E0
03E0
07E0
06E0
0EE0
0CE0
1CE0
1FE0
3FF0
7070
7070
E070
ENDCHAR
STARTCHAR aringacute
ENCODING 507
SWIDTH 556 0
DWIDTH 10 0
BBX 11 17 0 0
BITMAP
00E0
0300
0600
0900
0900
0600
0000
1F00
3F80
7380
0380
3F80
FF80
E380
E700
FBC0
73C0
ENDCHAR
STARTCHAR AEacute
ENCODING 508
SWIDTH 1000 0
DWIDTH 18 0
BBX 19 15 -1 0
BITMAP
000380
000C00
000000
01FFE0
01FFE0
03B800
077000
077000
0E7F80
1C7F80
1FF000
3FF000
38E000
70FF80
E0FF80
ENDCHAR
STARTCHAR aeacute
ENCODING 509
SWIDTH 889 0
DWIDTH 16 0
BBX 15 14 0 0
BITMAP
0038
0060
00C0
0000
1EF8
3FFC
738E
038E
3FFE
FFFE
E700
E71C
FFF8
79F0
ENDCHAR
STARTCHAR Oslashacute
ENCODING 510
SWIDTH 778 0
DWIDTH 14 0
BBX 14 15 0 0
BITMAP
0070
0180
0000
07C8
1FF0
3C70
38F8
70B8
7138
7238
7638
7C70
38E0
3FE0
5F80
ENDCHAR
STARTCHAR oslashacute
ENCODING 511
SWIDTH 611 0
DWIDTH 11 0
BBX 10 14 0 0
BITMAP
01C0
0300
0600
0000
1FC0
3F80
73C0
E3C0
E5C0
E9C0
F9C0
F380
7F00
FE00
ENDCHAR
STARTCHAR Scommaaccent
ENCODING 536
SWIDTH 667 0
DWIDTH 12 0
BBX 12 17 0 -5
BITMAP
0FC0
1FE0
3870
3840
3C00
1F80
07C0
00E0
E0E0
E0E0
7FC0
3F80
0000
1C00
1C00
0800
1800
ENDCHAR
STARTCHAR scommaaccent
ENCODING 537
SWIDTH 556 0
DWIDTH 10 0
BBX 9 15 0 -5
BITMAP
1F00
7F80
7180
7800
3E00
1F00
0700
C700
FF00
7C00
0000
3800
3800
1000
3000
ENDCHAR
STARTCHAR uni021A
ENCODING 538
SWIDTH 611 0
DWIDTH 11 0
BBX 11 17 1 -5
BITMAP
FFE0
FFE0
0E00
1C00
1C00
1C00
1C00
1C00
1C00
3800
3800
3800
0000
3800
3800
1000
3000
ENDCHAR
STARTCHAR uni021B
ENCODING 539
SWIDTH 333 0
DWIDTH 6 0
BBX 6 17 0 -5
BITMAP
18
38
FC
FC
70
70
70
70
70
E0
F8
78
00
70
70
20
60
ENDCHAR
STARTCHAR circumflex
ENCODING 710
SWIDTH 333 0
DWIDTH 6 0
BBX 7 3 1 10
BITMAP
1C
7C
C6
ENDCHAR
STARTCHAR caron
ENCODING 711
SWIDTH 333 0
DWIDTH 6 0
BBX 6 3 1 10
BITMAP
CC
78
70
ENDCHAR
STARTCHAR uni02C9
ENCODING 713
SWIDTH 333 0
DWIDTH 6 0
BBX 5 2 1 11
BITMAP
F8
F8
ENDCHAR
STARTCHAR breve
ENCODING 728
SWIDTH 333 0
DWIDTH 6 0
BBX 6 3 1 10
BITMAP
CC
F8
78
ENDCHAR
STARTCHAR dotaccent
ENCODING 729
SWIDTH 333 0
DWIDTH 6 0
BBX 3 2 3 11
BITMAP
E0
E0
ENDCHAR
STARTCHAR ring
ENCODING 730
SWIDTH 333 0
DWIDTH 6 0
BBX 4 4 2 10
BITMAP
60
90
90
60
ENDCHAR
STARTCHAR ogonek
ENCODING 731
SWIDTH 333 0
DWIDTH 6 0
BBX 3 4 1 -4
BITMAP
60
C0
E0
E0
ENDCHAR
STARTCHAR tilde
ENCODING 732
SWIDTH 333 0
DWIDTH 6 0
BBX 7 3 1 10
BITMAP
72
FE
9C
ENDCHAR
STARTCHAR hungarumlaut
ENCODING 733
SWIDTH 333 0
DWIDTH 6 0
BBX 9 3 1 10
BITMAP
3B80
6600
CC00
ENDCHAR
STARTCHAR semicolon
ENCODING 894
SWIDTH 333 0
DWIDTH 6 0
BBX 6 13 -1 -3
BITMAP
38
38
38
00
00
00
00
70
70
70
30
20
40
ENDCHAR
STARTCHAR tonos
ENCODING 900
SWIDTH 333 0
DWIDTH 6 0
BBX 3 3 1 10
BITMAP
60
C0
80
ENDCHAR
STARTCHAR dieresistonos
ENCODING 901
SWIDTH 333 0
DWIDTH 6 0
BBX 6 4 0 10
BITMAP
18
10
FC
EC
ENDCHAR
STARTCHAR Alphatonos
ENCODING 902
SWIDTH 722 0
DWIDTH 13 0
BBX 12 12 0 0
BITMAP
1BE0
33E0
27E0
06E0
0EE0
0CE0
1CE0
1FE0
3FF0
7070
7070
E070
ENDCHAR
STARTCHAR anoteleia
ENCODING 903
SWIDTH 333 0
DWIDTH 6 0
BBX 3 3 2 5
BITMAP
E0
E0
E0
ENDCHAR
STARTCHAR Epsilontonos
ENCODING 904
SWIDTH 833 0
DWIDTH 15 0
BBX 14 12 1 0
BITMAP
6FFC
CFFC
8E00
1C00
1C00
1FF0
1FF0
1C00
1C00
3800
3FF0
3FF0
ENDCHAR
STARTCHAR Etatonos
ENCODING 905
SWIDTH 889 0
DWIDTH 16 0
BBX 15 12 1 0
BITMAP
6E0E
CE0E
8E0E
1C1C
1C1C
1FFC
1FFC
1C1C
1C1C
3838
3838
3838
ENDCHAR
STARTCHAR Iotatonos
ENCODING 906
SWIDTH 500 0
DWIDTH 9 0
BBX 7 12 2 0
BITMAP
6E
CE
8E
1C
1C
1C
1C
1C
1C
38
38
38
ENDCHAR
STARTCHAR Omicrontonos
ENCODING 908
SWIDTH 833 0
DWIDTH 15 0
BBX 13 12 1 0
BITMAP
67C0
DFF0
BC78
3838
7038
7038
7038
7038
7070
38F0
3FE0
0F80
ENDCHAR
STARTCHAR Upsilontonos
ENCODING 910
SWIDTH 944 0
DWIDTH 17 0
BBX 16 12 2 0
BITMAP
6E07
C70E
871C
0738
03F0
03E0
01C0
01C0
01C0
0380
0380
0380
ENDCHAR
STARTCHAR Omegatonos
ENCODING 911
SWIDTH 833 0
DWIDTH 15 0
BBX 14 12 0 0
BITMAP
63E0
CFF8
9E3C
3C1C
381C
381C
381C
3838
1C70
0EE0
FCF8
FCF8
ENDCHAR
STARTCHAR iotadieresistonos
ENCODING 912
SWIDTH 278 0
DWIDTH 5 0
BBX 7 15 0 0
BITMAP
0C
08
7E
76
00
70
70
70
70
70
70
70
E0
E0
E0
ENDCHAR
STARTCHAR Alpha
ENCODING 913
SWIDTH 722 0
DWIDTH 13 0
BBX 12 12 0 0
BITMAP
03E0
03E0
07E0
06E0
0EE0
0CE0
1CE0
1FE0
3FF0
7070
7070
E070
ENDCHAR
STARTCHAR Beta
ENCODING 914
SWIDTH 722 0
DWIDTH 13 0
BBX 12 12 0 0
BITMAP
3FC0
3FF0
3870
7070
7070
7FE0
7FE0
7070
7070
E070
FFE0
FFC0
ENDCHAR
STARTCHAR Gamma
ENCODING 915
SWIDTH 611 0
DWIDTH 11 0
BBX 12 12 0 0
BITMAP
3FF0
3FF0
3800
7000
7000
7000
7000
7000
7000
E000
E000
E000
ENDCHAR
STARTCHAR Delta
ENCODING 916
SWIDTH 667 0
DWIDTH 12 0
BBX 12 12 -1 0
BITMAP
03C0
07E0
07E0
0EE0
0EE0
1CE0
18E0
3870
7070
7070
FFF0
FFF0
ENDCHAR
STARTCHAR Epsilon
ENCODING 917
SWIDTH 667 0
DWIDTH 12 0
BBX 12 12 0 0
BITMAP
3FF0
3FF0
3800
7000
7000
7FC0
7FC0
7000
7000
E000
FFC0
FFC0
ENDCHAR
STARTCHAR Zeta
ENCODING 918
SWIDTH 611 0
DWIDTH 11 0
BBX 11 12 0 0
BITMAP
3FE0
3FE0
01C0
0380
0700
0F00
1E00
1C00
3800
7000
FF80
FF80
ENDCHAR
STARTCHAR Eta
ENCODING 919
SWIDTH 722 0
DWIDTH 13 0
BBX 13 12 0 0
BITMAP
3838
3838
3838
7070
7070
7FF0
7FF0
7070
7070
E0E0
E0E0
E0E0
ENDCHAR
STARTCHAR Theta
ENCODING 920
SWIDTH 778 0
DWIDTH 14 0
BBX 12 12 1 0
BITMAP
0F80
3FE0
78F0
7070
E070
EF70
EF70
E070
E0E0
71E0
7FC0
1F00
ENDCHAR
STARTCHAR Iota
ENCODING 921
SWIDTH 278 0
DWIDTH 5 0
BBX 5 12 0 0
BITMAP
38
38
38
70
70
70
70
70
70
E0
E0
E0
ENDCHAR
STARTCHAR Kappa
ENCODING 922
SWIDTH 722 0
DWIDTH 13 0
BBX 14 12 0 0
BITMAP
3838
3870
38E0
73C0
7700
7F00
7F00
7380
71C0
E1C0
E0E0
E070
ENDCHAR
STARTCHAR Lambda
ENCODING 923
SWIDTH 667 0
DWIDTH 12 0
BBX 12 12 -1 0
BITMAP
00E0
01E0
0360
0360
0660
0E60
0C60
1C70
3870
3070
7070
E070
ENDCHAR
STARTCHAR Mu
ENCODING 924
SWIDTH 833 0
DWIDTH 15 0
BBX 15 12 0 0
BITMAP
3C1E
3C3E
342E
767C
767C
76DC
76DC
769C
779C
E738
E738
E738
ENDCHAR
STARTCHAR Nu
ENCODING 925
SWIDTH 722 0
DWIDTH 13 0
BBX 13 12 0 0
BITMAP
3C38
3C38
3C38
7670
7670
7670
7370
7370
7370
E1E0
E1E0
E1E0
ENDCHAR
STARTCHAR Xi
ENCODING 926
SWIDTH 667 0
DWIDTH 12 0
BBX 12 12 0 0
BITMAP
3FF0
3FF0
0000
0000
0000
3FC0
3FC0
0000
0000
0000
FFC0
FFC0
ENDCHAR
STARTCHAR Omicron
ENCODING 927
SWIDTH 778 0
DWIDTH 14 0
BBX 12 12 1 0
BITMAP
0F80
3FE0
78F0
7070
E070
E070
E070
E070
E0E0
71E0
7FC0
1F00
ENDCHAR
STARTCHAR Pi
ENCODING 928
SWIDTH 722 0
DWIDTH 13 0
BBX 13 12 0 0
BITMAP
3FF8
3FF8
3838
7070
7070
7070
7070
7070
7070
E0E0
E0E0
E0E0
ENDCHAR
STARTCHAR Rho
ENCODING 929
SWIDTH 667 0
DWIDTH 12 0
BBX 12 12 0 0
BITMAP
3FC0
3FE0
3870
7070
7070
70F0
7FE0
7FC0
7000
E000
E000
E000
ENDCHAR
STARTCHAR Sigma
ENCODING 931
SWIDTH 611 0
DWIDTH 11 0
BBX 11 12 0 0
BITMAP
3FE0
3FE0
3800
1C00
0E00
0E00
1E00
1C00
3800
7000
FF80
FF80
ENDCHAR
STARTCHAR Tau
ENCODING 932
SWIDTH 611 0
DWIDTH 11 0
BBX 11 12 1 0
BITMAP
FFE0
FFE0
0E00
1C00
1C00
1C00
1C00
1C00
1C00
3800
3800
3800
ENDCHAR
STARTCHAR Upsilon
ENCODING 933
SWIDTH 667 0
DWIDTH 12 0
BBX 12 12 1 0
BITMAP
E070
70E0
71C0
7380
3F00
3E00
1C00
1C00
1C00
3800
3800
3800
ENDCHAR
STARTCHAR Phi
ENCODING 934
SWIDTH 833 0
DWIDTH 15 0
BBX 13 12 1 0
BITMAP
0380
1FE0
7FF0
7738
E738
E738
E738
E770
7FF0
3FC0
0E00
0E00
ENDCHAR
STARTCHAR Chi
ENCODING 935
SWIDTH 722 0
DWIDTH 13 0
BBX 15 12 -1 0
BITMAP
1C0E
0E1C
0E38
0770
03E0
03C0
03C0
07C0
0CE0
1870
3070
6038
ENDCHAR
STARTCHAR Psi
ENCODING 936
SWIDTH 833 0
DWIDTH 15 0
BBX 14 12 1 0
BITMAP
739C
739C
739C
E738
E738
F738
7FF0
3FE0
0700
0E00
0E00
0E00
ENDCHAR
STARTCHAR Omega
ENCODING 937
SWIDTH 778 0
DWIDTH 14 0
BBX 14 12 -1 0
BITMAP
03E0
0FF8
1E3C
3C1C
381C
381C
381C
3838
1C70
0EE0
FCF8
FCF8
ENDCHAR
STARTCHAR Iotadieresis
ENCODING 938
SWIDTH 278 0
DWIDTH 5 0
BBX 7 15 0 0
BITMAP
66
66
00
38
38
38
70
70
70
70
70
70
E0
E0
E0
ENDCHAR
STARTCHAR Upsilondieresis
ENCODING 939
SWIDTH 667 0
DWIDTH 12 0
BBX 12 15 1 0
BITMAP
1980
1980
0000
E070
70E0
71C0
7380
3F00
3E00
1C00
1C00
1C00
3800
3800
3800
ENDCHAR
STARTCHAR alphatonos
ENCODING 940
SWIDTH 611 0
DWIDTH 11 0
BBX 11 14 0 0
BITMAP
0300
0600
0400
0000
1E60
7FE0
73C0
E3C0
E380
E380
E780
E780
FF80
7B80
ENDCHAR
STARTCHAR epsilontonos
ENCODING 941
SWIDTH 500 0
DWIDTH 9 0
BBX 9 14 0 0
BITMAP
0300
0600
0400
0000
3F00
7F80
7100
7000
3E00
7E00
E000
E200
FF00
7C00
ENDCHAR
STARTCHAR etatonos
ENCODING 942
SWIDTH 611 0
DWIDTH 11 0
BBX 10 18 0 -4
BITMAP
0180
0300
0200
0000
7380
7FC0
79C0
71C0
71C0
71C0
71C0
E380
E380
E380
0380
0380
0380
0700
ENDCHAR
STARTCHAR iotatonos
ENCODING 943
SWIDTH 278 0
DWIDTH 5 0
BBX 6 14 0 0
BITMAP
0C
18
10
00
70
70
70
70
70
70
70
E0
E0
E0
ENDCHAR
STARTCHAR upsilondieresistonos
ENCODING 944
SWIDTH 611 0
DWIDTH 11 0
BBX 9 15 1 0
BITMAP
0600
0400
3F00
3B00
0000
E380
E380
E380
E380
E380
E380
E300
E700
FE00
7C00
ENDCHAR
STARTCHAR alpha
ENCODING 945
SWIDTH 611 0
DWIDTH 11 0
BBX 11 10 0 0
BITMAP
1E60
7FE0
73C0
E3C0
E380
E380
E780
E780
FF80
7B80
ENDCHAR
STARTCHAR beta
ENCODING 946
SWIDTH 611 0
DWIDTH 11 0
BBX 11 17 -1 -4
BITMAP
07C0
0FE0
1CE0
1CE0
39E0
3BC0
3BC0
38E0
38E0
38E0
79E0
7FC0
7780
7000
7000
7000
E000
ENDCHAR
STARTCHAR gamma
ENCODING 947
SWIDTH 556 0
DWIDTH 10 0
BBX 9 14 1 -4
BITMAP
E380
E300
E700
E700
6600
6E00
6E00
6C00
7C00
7800
7800
7800
7800
7000
ENDCHAR
STARTCHAR delta
ENCODING 948
SWIDTH 611 0
DWIDTH 11 0
BBX 11 13 0 0
BITMAP
1FE0
1FE0
0C00
0600
1F00
3B80
71C0
E1C0
E1C0
E1C0
F380
7F80
3E00
ENDCHAR
STARTCHAR epsilon
ENCODING 949
SWIDTH 500 0
DWIDTH 9 0
BBX 9 10 0 0
BITMAP
3F00
7F80
7100
7000
3E00
7E00
E000
E200
FF00
7C00
ENDCHAR
STARTCHAR zeta
ENCODING 950
SWIDTH 500 0
DWIDTH 9 0
BBX 10 17 0 -4
BITMAP
1FC0
1FC0
0180
0700
0E00
1C00
3800
7000
6000
E000
E000
F800
7E00
1F00
0700
0600
0600
ENDCHAR
STARTCHAR eta
ENCODING 951
SWIDTH 611 0
DWIDTH 11 0
BBX 10 14 0 -4
BITMAP
7380
7FC0
79C0
71C0
71C0
71C0
71C0
E380
E380
E380
0380
0380
0380
0700
ENDCHAR
STARTCHAR theta
ENCODING 952
SWIDTH 556 0
DWIDTH 10 0
BBX 9 13 0 0
BITMAP
0F00
3F80
3380
7380
7380
FF80
FF80
E780
E700
E700
E600
7E00
7800
ENDCHAR
STARTCHAR iota
ENCODING 953
SWIDTH 278 0
DWIDTH 5 0
BBX 5 10 0 0
BITMAP
70
70
70
70
70
70
70
E0
E0
E0
ENDCHAR
STARTCHAR kappa
ENCODING 954
SWIDTH 556 0
DWIDTH 10 0
BBX 11 10 0 0
BITMAP
70E0
71C0
7380
7700
7E00
7E00
7E00
E700
E700
E380
ENDCHAR
STARTCHAR lambda
ENCODING 955
SWIDTH 556 0
DWIDTH 10 0
BBX 10 13 -1 0
BITMAP
1E00
0F00
0700
0380
0380
0780
0780
0F80
1980
3980
31C0
71C0
E1C0
ENDCHAR
STARTCHAR mu
ENCODING 956
SWIDTH 611 0
DWIDTH 11 0
BBX 12 14 -1 -4
BITMAP
38E0
38E0
38E0
38E0
38E0
38E0
39E0
79C0
7FC0
7DC0
7000
7000
7000
E000
ENDCHAR
STARTCHAR nu
ENCODING 957
SWIDTH 500 0
DWIDTH 9 0
BBX 8 10 0 0
BITMAP
E7
E7
E7
E7
E6
EE
7C
7C
78
78
ENDCHAR
STARTCHAR xi
ENCODING 958
SWIDTH 444 0
DWIDTH 8 0
BBX 9 17 0 -4
BITMAP
3F80
3F80
1C00
3800
3800
1E00
1E00
7800
6000
E000
E000
F000
7C00
1E00
0E00
0C00
0C00
ENDCHAR
STARTCHAR omicron
ENCODING 959
SWIDTH 611 0
DWIDTH 11 0
BBX 10 10 0 0
BITMAP
1F00
3F80
71C0
E1C0
E1C0
E1C0
E1C0
E380
7F00
3E00
ENDCHAR
STARTCHAR pi
ENCODING 960
SWIDTH 722 0
DWIDTH 13 0
BBX 13 10 0 0
BITMAP
FFF8
FFF0
39C0
39C0
39C0
39C0
71C0
7380
F3E0
E1E0
ENDCHAR
STARTCHAR rho
ENCODING 961
SWIDTH 611 0
DWIDTH 11 0
BBX 11 14 -1 -4
BITMAP
0F80
1FC0
1CE0
38E0
38E0
38E0
38E0
79C0
7FC0
7780
7000
7000
7000
E000
ENDCHAR
STARTCHAR sigma1
ENCODING 962
SWIDTH 556 0
DWIDTH 10 0
BBX 9 14 0 -4
BITMAP
0F00
3F80
3900
7000
6000
E000
E000
E000
FC00
7E00
0F00
0700
0600
0600
ENDCHAR
STARTCHAR sigma
ENCODING 963
SWIDTH 667 0
DWIDTH 12 0
BBX 12 10 0 0
BITMAP
0FF0
3FF0
71C0
71C0
E1C0
E1C0
E1C0
E380
7F00
3E00
ENDCHAR
STARTCHAR tau
ENCODING 964
SWIDTH 389 0
DWIDTH 7 0
BBX 7 10 0 0
BITMAP
FE
FE
38
38
38
38
38
70
7C
3C
ENDCHAR
STARTCHAR upsilon
ENCODING 965
SWIDTH 611 0
DWIDTH 11 0
BBX 9 10 1 0
BITMAP
E380
E380
E380
E380
E380
E380
E300
E700
FE00
7C00
ENDCHAR
STARTCHAR phi
ENCODING 966
SWIDTH 722 0
DWIDTH 13 0
BBX 12 14 0 -4
BITMAP
19E0
3BF0
7670
E670
E670
E670
E660
ECE0
7FC0
3F80
0C00
0C00
0C00
1C00
ENDCHAR
STARTCHAR chi
ENCODING 967
SWIDTH 611 0
DWIDTH 11 0
BBX 13 14 -2 -4
BITMAP
1E38
1E30
0760
07C0
07C0
0380
0380
0780
0D80
19C0
19C0
31C0
60E0
E0E0
ENDCHAR
STARTCHAR psi
ENCODING 968
SWIDTH 778 0
DWIDTH 14 0
BBX 14 16 0 -4
BITMAP
0380
0380
E738
E738
E738
E738
E738
E738
E770
EE70
FFE0
7FC0
0E00
0E00
0E00
1C00
ENDCHAR
STARTCHAR omega
ENCODING 969
SWIDTH 833 0
DWIDTH 15 0
BBX 14 10 0 0
BITMAP
0C30
3C38
783C
739C
E31C
E31C
E71C
E738
7DF8
78E0
ENDCHAR
STARTCHAR iotadieresis
ENCODING 970
SWIDTH 278 0
DWIDTH 5 0
BBX 7 13 0 0
BITMAP
66
66
00
70
70
70
70
70
70
70
E0
E0
E0
ENDCHAR
STARTCHAR upsilondieresis
ENCODING 971
SWIDTH 611 0
DWIDTH 11 0
BBX 9 13 1 0
BITMAP
1980
1980
0000
E380
E380
E380
E380
E380
E380
E300
E700
FE00
7C00
ENDCHAR
STARTCHAR omicrontonos
ENCODING 972
SWIDTH 611 0
DWIDTH 11 0
BBX 10 14 0 0
BITMAP
0180
0300
0200
0000
1F00
3F80
71C0
E1C0
E1C0
E1C0
E1C0
E380
7F00
3E00
ENDCHAR
STARTCHAR upsilontonos
ENCODING 973
SWIDTH 611 0
DWIDTH 11 0
BBX 9 14 1 0
BITMAP
0300
0600
0400
0000
E380
E380
E380
E380
E380
E380
E300
E700
FE00
7C00
ENDCHAR
STARTCHAR omegatonos
ENCODING 974
SWIDTH 833 0
DWIDTH 15 0
BBX 14 14 0 0
BITMAP
0060
00C0
0080
0000
0C30
3C38
783C
739C
E31C
E31C
E71C
E738
7DF8
78E0
ENDCHAR
STARTCHAR afii10023
ENCODING 1025
SWIDTH 667 0
DWIDTH 12 0
BBX 12 15 0 0
BITMAP
0660
0660
0000
3FF0
3FF0
3800
7000
7000
7FC0
7FC0
7000
7000
E000
FFC0
FFC0
ENDCHAR
STARTCHAR afii10051
ENCODING 1026
SWIDTH 889 0
DWIDTH 16 0
BBX 14 12 1 0
BITMAP
FFE0
FFE0
0E00
1C00
1DF8
1FFC
1C1C
1C1C
1C1C
3938
3BF8
39F0
ENDCHAR
STARTCHAR afii10052
ENCODING 1027
SWIDTH 611 0
DWIDTH 11 0
BBX 12 15 0 0
BITMAP
01C0
0600
0000
3FF0
3FF0
3800
7000
7000
7000
7000
7000
7000
E000
E000
E000
ENDCHAR
STARTCHAR afii10053
ENCODING 1028
SWIDTH 722 0
DWIDTH 13 0
BBX 12 12 1 0
BITMAP
0FC0
3FE0
7870
7070
E000
FF00
FF00
E000
E040
71E0
7FC0
1F00
ENDCHAR
STARTCHAR afii10054
ENCODING 1029
SWIDTH 667 0
DWIDTH 12 0
BBX 12 12 0 0
BITMAP
0FC0
1FE0
3870
3840
3C00
1F80
07C0
00E0
E0E0
E0E0
7FC0
3F80
ENDCHAR
STARTCHAR afii10055
ENCODING 1030
SWIDTH 278 0
DWIDTH 5 0
BBX 5 12 0 0
BITMAP
38
38
38
70
70
70
70
70
70
E0
E0
E0
ENDCHAR
STARTCHAR afii10056
ENCODING 1031
SWIDTH 278 0
DWIDTH 5 0
BBX 7 15 0 0
BITMAP
66
66
00
38
38
38
70
70
70
70
70
70
E0
E0
E0
ENDCHAR
STARTCHAR afii10057
ENCODING 1032
SWIDTH 556 0
DWIDTH 10 0
BBX 10 12 0 0
BITMAP
0FC0
0FC0
01C0
0380
0380
0380
0380
0380
C380
E700
7F00
3E00
ENDCHAR
STARTCHAR afii10058
ENCODING 1033
SWIDTH 1111 0
DWIDTH 20 0
BBX 20 12 -1 0
BITMAP
07F800
07F800
0E3800
0E7000
0E7000
1C7FC0
1C7FE0
1C7070
387070
38E0F0
F0FFE0
E0FFC0
ENDCHAR
STARTCHAR afii10059
ENCODING 1034
SWIDTH 1056 0
DWIDTH 19 0
BBX 18 12 0 0
BITMAP
383800
383800
383800
707000
707000
7FFF80
7FFFC0
7071C0
7071C0
E0E1C0
E0FF80
E0FF00
ENDCHAR
STARTCHAR afii10060
ENCODING 1035
SWIDTH 833 0
DWIDTH 15 0
BBX 13 12 1 0
BITMAP
FFE0
FFE0
0E00
1C00
1DF0
1FF8
1C38
1C38
1C38
3838
3870
3870
ENDCHAR
STARTCHAR afii10061
ENCODING 1036
SWIDTH 611 0
DWIDTH 11 0
BBX 12 15 0 0
BITMAP
00E0
0300
0000
3870
38E0
39C0
7380
7700
7E00
7F00
7700
7300
E380
E380
E1C0
ENDCHAR
STARTCHAR afii10062
ENCODING 1038
SWIDTH 667 0
DWIDTH 12 0
BBX 13 16 0 0
BITMAP
0C60
0FC0
0780
0000
3838
3870
1C60
1CC0
1DC0
0D80
0F00
0F00
0E00
1C00
F800
F000
ENDCHAR
STARTCHAR afii10145
ENCODING 1039
SWIDTH 722 0
DWIDTH 13 0
BBX 13 16 0 -4
BITMAP
3838
3838
3838
7070
7070
7070
7070
7070
7070
E0E0
FFE0
FFE0
0E00
0E00
0E00
1C00
ENDCHAR
STARTCHAR afii10017
ENCODING 1040
SWIDTH 722 0
DWIDTH 13 0
BBX 12 12 0 0
BITMAP
03E0
03E0
07E0
06E0
0EE0
0CE0
1CE0
1FE0
3FF0
7070
7070
E070
ENDCHAR
STARTCHAR afii10018
ENCODING 1041
SWIDTH 722 0
DWIDTH 13 0
BBX 12 12 0 0
BITMAP
3FF0
3FF0
3800
7000
7000
7FC0
7FE0
7070
7070
E0F0
FFE0
FFC0
ENDCHAR
STARTCHAR afii10019
ENCODING 1042
SWIDTH 722 0
DWIDTH 13 0
BBX 12 12 0 0
BITMAP
3FC0
3FF0
3870
7070
7070
7FE0
7FE0
7070
7070
E070
FFE0
FFC0
ENDCHAR
STARTCHAR afii10020
ENCODING 1043
SWIDTH 611 0
DWIDTH 11 0
BBX 12 12 0 0
BITMAP
3FF0
3FF0
3800
7000
7000
7000
7000
7000
7000
E000
E000
E000
ENDCHAR
STARTCHAR afii10021
ENCODING 1044
SWIDTH 722 0
DWIDTH 13 0
BBX 13 16 -1 -4
BITMAP
03F8
03F8
07B8
0770
0770
0670
0E70
0E70
1C70
1CE0
7FF8
7FF8
6038
E030
C030
C030
ENDCHAR
STARTCHAR afii10022
ENCODING 1045
SWIDTH 667 0
DWIDTH 12 0
BBX 12 12 0 0
BITMAP
3FF0
3FF0
3800
7000
7000
7FC0
7FC0
7000
7000
E000
FFC0
FFC0
ENDCHAR
STARTCHAR afii10024
ENCODING 1046
SWIDTH 889 0
DWIDTH 16 0
BBX 19 12 -1 0
BITMAP
1C70E0
0C71C0
0E7380
0EE700
06EE00
07FC00
07FE00
0EEE00
1CEF00
39C700
71C700
E1C380
ENDCHAR
STARTCHAR afii10025
ENCODING 1047
SWIDTH 667 0
DWIDTH 12 0
BBX 12 12 0 0
BITMAP
07C0
1FF0
3870
1070
00F0
07C0
07C0
00E0
60E0
E1E0
7FC0
3F80
ENDCHAR
STARTCHAR afii10026
ENCODING 1048
SWIDTH 722 0
DWIDTH 13 0
BBX 13 12 0 0
BITMAP
3878
38F8
38F8
71F0
7370
7370
7670
7670
7C70
F8E0
F8E0
F0E0
ENDCHAR
STARTCHAR afii10027
ENCODING 1049
SWIDTH 722 0
DWIDTH 13 0
BBX 13 16 0 0
BITMAP
0630
07E0
03C0
0000
3878
38F8
38F8
71F0
7370
7370
7670
7670
7C70
F8E0
F8E0
F0E0
ENDCHAR
STARTCHAR afii10028
ENCODING 1050
SWIDTH 611 0
DWIDTH 11 0
BBX 12 12 0 0
BITMAP
3870
38E0
39C0
7380
7700
7E00
7F00
7700
7300
E380
E380
E1C0
ENDCHAR
STARTCHAR afii10029
ENCODING 1051
SWIDTH 667 0
DWIDTH 12 0
BBX 13 12 -1 0
BITMAP
07F8
0FF8
0E38
0E70
1C70
1C70
1C70
3870
3870
38E0
F0E0
E0E0
ENDCHAR
STARTCHAR afii10030
ENCODING 1052
SWIDTH 833 0
DWIDTH 15 0
BBX 15 12 0 0
BITMAP
3C1E
3C3E
342E
767C
767C
76DC
76DC
769C
779C
E738
E738
E738
ENDCHAR
STARTCHAR afii10031
ENCODING 1053
SWIDTH 722 0
DWIDTH 13 0
BBX 13 12 0 0
BITMAP
3838
3838
3838
7070
7070
7FF0
7FF0
7070
7070
E0E0
E0E0
E0E0
ENDCHAR
STARTCHAR afii10032
ENCODING 1054
SWIDTH 778 0
DWIDTH 14 0
BBX 12 12 1 0
BITMAP
0F80
3FE0
78F0
7070
E070
E070
E070
E070
E0E0
71E0
7FC0
1F00
ENDCHAR
STARTCHAR afii10033
ENCODING 1055
SWIDTH 722 0
DWIDTH 13 0
BBX 13 12 0 0
BITMAP
3FF8
3FF8
3838
7070
7070
7070
7070
7070
7070
E0E0
E0E0
E0E0
ENDCHAR
STARTCHAR afii10034
ENCODING 1056
SWIDTH 667 0
DWIDTH 12 0
BBX 12 12 0 0
BITMAP
3FC0
3FE0
3870
7070
7070
70F0
7FE0
7FC0
7000
E000
E000
E000
ENDCHAR
STARTCHAR afii10035
ENCODING 1057
SWIDTH 722 0
DWIDTH 13 0
BBX 12 12 1 0
BITMAP
0FC0
3FE0
7870
7070
E000
E000
E000
E000
E040
71E0
7FC0
1F00
ENDCHAR
STARTCHAR afii10036
ENCODING 1058
SWIDTH 611 0
DWIDTH 11 0
BBX 11 12 1 0
BITMAP
FFE0
FFE0
0E00
1C00
1C00
1C00
1C00
1C00
1C00
3800
3800
3800
ENDCHAR
STARTCHAR afii10037
ENCODING 1059
SWIDTH 667 0
DWIDTH 12 0
BBX 13 12 0 0
BITMAP
3838
3870
1C60
1CC0
1DC0
0D80
0F00
0F00
0E00
1C00
F800
F000
ENDCHAR
STARTCHAR afii10038
ENCODING 1060
SWIDTH 778 0
DWIDTH 14 0
BBX 13 12 0 0
BITMAP
0380
1FE0
7FF0
7738
E738
E738
E738
E770
7FF0
3FC0
0E00
0E00
ENDCHAR
STARTCHAR afii10039
ENCODING 1061
SWIDTH 722 0
DWIDTH 13 0
BBX 15 12 -1 0
BITMAP
1C0E
0E1C
0E38
0770
03E0
03C0
03C0
07C0
0CE0
1870
3070
6038
ENDCHAR
STARTCHAR afii10040
ENCODING 1062
SWIDTH 722 0
DWIDTH 13 0
BBX 12 16 0 -4
BITMAP
3870
3870
3870
70E0
70E0
70E0
70E0
70E0
70E0
E1C0
FFF0
FFF0
0070
0060
0060
0060
ENDCHAR
STARTCHAR afii10041
ENCODING 1063
SWIDTH 722 0
DWIDTH 13 0
BBX 12 12 1 0
BITMAP
7070
7070
7070
E0E0
E0E0
F0E0
7FE0
3EE0
00E0
01C0
01C0
01C0
ENDCHAR
STARTCHAR afii10042
ENCODING 1064
SWIDTH 1000 0
DWIDTH 18 0
BBX 17 12 0 0
BITMAP
38E380
38E380
38E380
71C700
71C700
71C700
71C700
71C700
71C700
E38E00
FFFE00
FFFE00
ENDCHAR
STARTCHAR afii10043
ENCODING 1065
SWIDTH 1000 0
DWIDTH 18 0
BBX 17 16 0 -4
BITMAP
38E380
38E380
38E380
71C700
71C700
71C700
71C700
71C700
71C700
E38E00
FFFF80
FFFF80
000380
000300
000300
000300
ENDCHAR
STARTCHAR afii10044
ENCODING 1066
SWIDTH 833 0
DWIDTH 15 0
BBX 13 12 1 0
BITMAP
FE00
FE00
0E00
1C00
1C00
1FE0
1FF8
1C38
1C38
3838
3FF0
3FE0
ENDCHAR
STARTCHAR afii10045
ENCODING 1067
SWIDTH 1000 0
DWIDTH 18 0
BBX 18 12 0 0
BITMAP
3801C0
3801C0
3801C0
700380
700380
7FC380
7FE380
707380
707380
E0F700
FFE700
FFC700
ENDCHAR
STARTCHAR afii10046
ENCODING 1068
SWIDTH 722 0
DWIDTH 13 0
BBX 12 12 0 0
BITMAP
3800
3800
3800
7000
7000
7FC0
7FE0
7070
7070
E0F0
FFE0
FFC0
ENDCHAR
STARTCHAR afii10047
ENCODING 1069
SWIDTH 722 0
DWIDTH 13 0
BBX 12 12 0 0
BITMAP
0FC0
3FE0
70F0
2070
0070
0FF0
0FF0
0070
60E0
E1C0
7FC0
3F00
ENDCHAR
STARTCHAR afii10048
ENCODING 1070
SWIDTH 1056 0
DWIDTH 19 0
BBX 18 12 0 0
BITMAP
383E00
38FF80
39E3C0
71C1C0
7381C0
7F81C0
7F81C0
7381C0
738380
E1C780
E1FF00
E07C00
ENDCHAR
STARTCHAR afii10049
ENCODING 1071
SWIDTH 722 0
DWIDTH 13 0
BBX 13 12 0 0
BITMAP
0FF8
1FF8
3838
3870
3870
1FF0
0FF0
1C70
1C70
38E0
70E0
E0E0
ENDCHAR
STARTCHAR afii10065
ENCODING 1072
SWIDTH 556 0
DWIDTH 10 0
BBX 10 10 0 0
BITMAP
1F00
3F80
7380
0380
3F80
FF80
E380
E700
FBC0
73C0
ENDCHAR
STARTCHAR afii10066
ENCODING 1073
SWIDTH 611 0
DWIDTH 11 0
BBX 11 13 0 0
BITMAP
01E0
1FE0
3E00
7000
6F00
DF80
F1C0
E1C0
E1C0
E1C0
E380
7F80
3E00
ENDCHAR
STARTCHAR afii10067
ENCODING 1074
SWIDTH 611 0
DWIDTH 11 0
BBX 10 10 0 0
BITMAP
1F80
3FC0
79C0
71C0
7F80
7F80
71C0
E1C0
FF80
FF00
ENDCHAR
STARTCHAR afii10068
ENCODING 1075
SWIDTH 556 0
DWIDTH 10 0
BBX 9 10 0 0
BITMAP
1F00
3F80
6380
0780
3F00
F800
E000
E300
FE00
7C00
ENDCHAR
STARTCHAR afii10069
ENCODING 1076
SWIDTH 611 0
DWIDTH 11 0
BBX 10 13 0 0
BITMAP
1E00
1F80
0380
01C0
3DC0
7FC0
73C0
E1C0
E3C0
E380
E380
7F00
3E00
ENDCHAR
STARTCHAR afii10070
ENCODING 1077
SWIDTH 556 0
DWIDTH 10 0
BBX 9 10 0 0
BITMAP
1E00
3F00
7380
E380
FF80
FF80
E000
E700
7E00
3C00
ENDCHAR
STARTCHAR afii10072
ENCODING 1078
SWIDTH 722 0
DWIDTH 13 0
BBX 15 10 -1 0
BITMAP
398E
398C
1D98
1DB8
1FF0
1FF0
39B0
3B30
7338
E338
ENDCHAR
STARTCHAR afii10073
ENCODING 1079
SWIDTH 500 0
DWIDTH 9 0
BBX 8 10 0 0
BITMAP
1E
3F
67
07
3E
3C
0E
CE
FE
7C
ENDCHAR
STARTCHAR afii10074
ENCODING 1080
SWIDTH 611 0
DWIDTH 11 0
BBX 11 10 0 0
BITMAP
71C0
71C0
71C0
71C0
71C0
71C0
73C0
F380
7F80
7B80
ENDCHAR
STARTCHAR afii10075
ENCODING 1081
SWIDTH 611 0
DWIDTH 11 0
BBX 11 14 0 0
BITMAP
18C0
1F80
0F00
0000
71C0
71C0
71C0
71C0
71C0
71C0
73C0
F380
7F80
7B80
ENDCHAR
STARTCHAR afii10076
ENCODING 1082
SWIDTH 500 0
DWIDTH 9 0
BBX 10 10 0 0
BITMAP
71C0
7180
7300
7700
7E00
7E00
7E00
EE00
E700
E700
ENDCHAR
STARTCHAR afii10077
ENCODING 1083
SWIDTH 611 0
DWIDTH 11 0
BBX 12 10 -1 0
BITMAP
0FE0
0FE0
0EE0
1CE0
1CE0
1CE0
38E0
39C0
F1C0
E1C0
ENDCHAR
STARTCHAR afii10078
ENCODING 1084
SWIDTH 722 0
DWIDTH 13 0
BBX 13 10 0 0
BITMAP
7870
78F0
7CB0
7DF0
7DF0
6D70
6F70
EE60
EE60
E6E0
ENDCHAR
STARTCHAR afii10079
ENCODING 1085
SWIDTH 611 0
DWIDTH 11 0
BBX 11 10 0 0
BITMAP
71C0
71C0
71C0
71C0
7FC0
7FC0
71C0
E380
E380
E380
ENDCHAR
STARTCHAR afii10080
ENCODING 1086
SWIDTH 611 0
DWIDTH 11 0
BBX 10 10 0 0
BITMAP
1F00
3F80
71C0
E1C0
E1C0
E1C0
E1C0
E380
7F00
3E00
ENDCHAR
STARTCHAR afii10081
ENCODING 1087
SWIDTH 611 0
DWIDTH 11 0
BBX 11 10 0 0
BITMAP
7FC0
7FC0
71C0
71C0
71C0
71C0
71C0
E380
E380
E380
ENDCHAR
STARTCHAR afii10082
ENCODING 1088
SWIDTH 611 0
DWIDTH 11 0
BBX 11 14 -1 -4
BITMAP
3BC0
3FE0
3CE0
38E0
38E0
38E0
38E0
79C0
7FC0
7780
7000
7000
7000
E000
ENDCHAR
STARTCHAR afii10083
ENCODING 1089
SWIDTH 556 0
DWIDTH 10 0
BBX 10 10 0 0
BITMAP
1F00
3F80
71C0
7180
E000
E000
E100
E380
7F00
3E00
ENDCHAR
STARTCHAR afii10084
ENCODING 1090
SWIDTH 889 0
DWIDTH 16 0
BBX 15 10 0 0
BITMAP
330C
37BE
39E6
31C6
7186
718E
618E
638C
638C
E30C
ENDCHAR
STARTCHAR afii10085
ENCODING 1091
SWIDTH 556 0
DWIDTH 10 0
BBX 12 14 -1 -4
BITMAP
3870
38E0
38E0
39C0
1980
1980
1B00
1B00
1E00
1C00
1C00
3800
F000
E000
ENDCHAR
STARTCHAR afii10086
ENCODING 1092
SWIDTH 889 0
DWIDTH 16 0
BBX 15 17 0 -4
BITMAP
01C0
01C0
01C0
3FBC
7FFE
73CE
E38E
E38E
E38E
E78E
E79C
FFFC
7778
0700
0700
0700
0E00
ENDCHAR
STARTCHAR afii10087
ENCODING 1093
SWIDTH 500 0
DWIDTH 9 0
BBX 11 10 -1 0
BITMAP
38E0
1DC0
1D80
1F00
0E00
0E00
1F00
3700
7700
E380
ENDCHAR
STARTCHAR afii10088
ENCODING 1094
SWIDTH 667 0
DWIDTH 12 0
BBX 11 14 0 -4
BITMAP
71C0
71C0
71C0
71C0
71C0
71C0
73C0
F380
7FE0
7BC0
00C0
00C0
00C0
00C0
ENDCHAR
STARTCHAR afii10089
ENCODING 1095
SWIDTH 611 0
DWIDTH 11 0
BBX 10 10 1 0
BITMAP
E380
E380
E380
E380
E380
FF80
7B80
0700
0700
0700
ENDCHAR
STARTCHAR afii10090
ENCODING 1096
SWIDTH 889 0
DWIDTH 16 0
BBX 17 10 0 0
BITMAP
71C700
71C700
71C700
71C700
71C700
71C700
73CF00
F3CE00
7DFE00
79EE00
ENDCHAR
STARTCHAR afii10091
ENCODING 1097
SWIDTH 944 0
DWIDTH 17 0
BBX 17 14 0 -4
BITMAP
71C700
71C700
71C700
71C700
71C700
71C700
73CF00
F3CE00
7DFF80
79EF80
000380
000300
000300
000300
ENDCHAR
STARTCHAR afii10092
ENCODING 1098
SWIDTH 722 0
DWIDTH 13 0
BBX 12 10 0 0
BITMAP
FC00
FC00
1C00
1C00
1FE0
1FF0
1C70
3870
3FE0
3FC0
ENDCHAR
STARTCHAR afii10093
ENCODING 1099
SWIDTH 833 0
DWIDTH 15 0
BBX 15 10 0 0
BITMAP
701C
701C
701C
701C
7F1C
7F9C
739C
E3B8
FF38
FE38
ENDCHAR
STARTCHAR afii10094
ENCODING 1100
SWIDTH 611 0
DWIDTH 11 0
BBX 10 10 0 0
BITMAP
7000
7000
7000
7000
7F80
7FC0
71C0
E1C0
FF80
FF00
ENDCHAR
STARTCHAR afii10095
ENCODING 1101
SWIDTH 556 0
DWIDTH 10 0
BBX 9 10 0 0
BITMAP
1E00
3F00
7380
0380
1F80
1F80
0380
E700
7E00
3C00
ENDCHAR
STARTCHAR afii10096
ENCODING 1102
SWIDTH 889 0
DWIDTH 16 0
BBX 15 10 0 0
BITMAP
3878
31FC
318E
338E
7F0E
7F0E
670E
630C
63F8
E1F0
ENDCHAR
STARTCHAR afii10097
ENCODING 1103
SWIDTH 611 0
DWIDTH 11 0
BBX 12 10 -1 0
BITMAP
0FE0
3FE0
38E0
38E0
3FE0
1FE0
1CE0
39C0
71C0
E1C0
ENDCHAR
STARTCHAR afii10071
ENCODING 1105
SWIDTH 556 0
DWIDTH 10 0
BBX 9 13 0 0
BITMAP
1980
1980
0000
1E00
3F00
7380
E380
FF80
FF80
E000
E700
7E00
3C00
ENDCHAR
STARTCHAR afii10099
ENCODING 1106
SWIDTH 611 0
DWIDTH 11 0
BBX 10 17 0 -4
BITMAP
3800
7E00
3800
7380
77C0
79C0
71C0
71C0
71C0
71C0
E380
E380
E380
0380
0380
0F00
0E00
ENDCHAR
STARTCHAR afii10100
ENCODING 1107
SWIDTH 444 0
DWIDTH 8 0
BBX 9 14 0 0
BITMAP
0380
0600
0C00
0000
7F00
7F00
7000
7000
7000
7000
7000
E000
E000
E000
ENDCHAR
STARTCHAR afii10101
ENCODING 1108
SWIDTH 556 0
DWIDTH 10 0
BBX 10 10 0 0
BITMAP
1F00
3F80
71C0
7000
FC00
FC00
E000
E380
7F00
3E00
ENDCHAR
STARTCHAR afii10102
ENCODING 1109
SWIDTH 556 0
DWIDTH 10 0
BBX 9 10 0 0
BITMAP
1F00
7F80
7180
7800
3E00
1F00
0700
C700
FF00
7C00
ENDCHAR
STARTCHAR afii10103
ENCODING 1110
SWIDTH 278 0
DWIDTH 5 0
BBX 5 13 0 0
BITMAP
38
38
00
70
70
70
70
70
70
70
E0
E0
E0
ENDCHAR
STARTCHAR afii10104
ENCODING 1111
SWIDTH 278 0
DWIDTH 5 0
BBX 7 13 0 0
BITMAP
66
66
00
70
70
70
70
70
70
70
E0
E0
E0
ENDCHAR
STARTCHAR afii10105
ENCODING 1112
SWIDTH 278 0
DWIDTH 5 0
BBX 7 17 -2 -4
BITMAP
0E
0E
00
1C
1C
1C
1C
1C
1C
1C
38
38
38
38
38
F0
E0
ENDCHAR
STARTCHAR afii10106
ENCODING 1113
SWIDTH 944 0
DWIDTH 17 0
BBX 17 10 -1 0
BITMAP
07F000
0FF000
0E7000
0E7000
1C7F00
1C7F80
387380
38E380
F0FF00
E0FE00
ENDCHAR
STARTCHAR afii10107
ENCODING 1114
SWIDTH 889 0
DWIDTH 16 0
BBX 15 10 0 0
BITMAP
71C0
71C0
71C0
71C0
7FFC
7FFE
71CE
E38E
E3FC
E3F8
ENDCHAR
STARTCHAR afii10108
ENCODING 1115
SWIDTH 611 0
DWIDTH 11 0
BBX 10 13 0 0
BITMAP
3800
7E00
3800
7380
77C0
79C0
71C0
71C0
71C0
71C0
E380
E380
E380
ENDCHAR
STARTCHAR afii10109
ENCODING 1116
SWIDTH 500 0
DWIDTH 9 0
BBX 10 14 0 0
BITMAP
01C0
0300
0600
0000
71C0
7180
7300
7700
7E00
7E00
7E00
EE00
E700
E700
ENDCHAR
STARTCHAR afii10110
ENCODING 1118
SWIDTH 556 0
DWIDTH 10 0
BBX 12 18 -1 -4
BITMAP
0C60
0FC0
0780
0000
3870
38E0
38E0
39C0
1980
1980
1B00
1B00
1E00
1C00
1C00
3800
F000
E000
ENDCHAR
STARTCHAR afii10193
ENCODING 1119
SWIDTH 611 0
DWIDTH 11 0
BBX 11 14 0 -4
BITMAP
71C0
71C0
71C0
71C0
71C0
71C0
73C0
F380
7F80
7B80
0000
0C00
1C00
1800
ENDCHAR
STARTCHAR afii10050
ENCODING 1168
SWIDTH 556 0
DWIDTH 10 0
BBX 11 16 0 0
BITMAP
0060
0060
00E0
00C0
3FC0
3FC0
3800
7000
7000
7000
7000
7000
7000
E000
E000
E000
ENDCHAR
STARTCHAR afii10098
ENCODING 1169
SWIDTH 444 0
DWIDTH 8 0
BBX 9 14 0 0
BITMAP
0180
0180
0380
0300
7F00
7F00
7000
7000
7000
7000
7000
E000
E000
E000
ENDCHAR
STARTCHAR Wgrave
ENCODING 7808
SWIDTH 944 0
DWIDTH 17 0
BBX 17 15 1 0
BITMAP
01C000
006000
000000
E1C380
E1C700
E3C700
E3CE00
E2CE00
E6CE00
66DC00
7CDC00
7CD800
7CF800
78F000
78F000
ENDCHAR
STARTCHAR wgrave
ENCODING 7809
SWIDTH 778 0
DWIDTH 14 0
BBX 14 14 1 0
BITMAP
0700
0300
0180
0000
E79C
E798
EDB8
EDB0
EDB0
D9F0
D9E0
F1E0
71C0
71C0
ENDCHAR
STARTCHAR Wacute
ENCODING 7810
SWIDTH 944 0
DWIDTH 17 0
BBX 17 15 1 0
BITMAP
003800
00C000
000000
E1C380
E1C700
E3C700
E3CE00
E2CE00
E6CE00
66DC00
7CDC00
7CD800
7CF800
78F000
78F000
ENDCHAR
STARTCHAR wacute
ENCODING 7811
SWIDTH 778 0
DWIDTH 14 0
BBX 14 14 1 0
BITMAP
00E0
0180
0300
0000
E79C
E798
EDB8
EDB0
EDB0
D9F0
D9E0
F1E0
71C0
71C0
ENDCHAR
STARTCHAR Wdieresis
ENCODING 7812
SWIDTH 944 0
DWIDTH 17 0
BBX 17 15 1 0
BITMAP
033000
033000
000000
E1C380
E1C700
E3C700
E3CE00
E2CE00
E6CE00
66DC00
7CDC00
7CD800
7CF800
78F000
78F000
ENDCHAR
STARTCHAR wdieresis
ENCODING 7813
SWIDTH 778 0
DWIDTH 14 0
BBX 14 13 1 0
BITMAP
0660
0660
0000
E79C
E798
EDB8
EDB0
EDB0
D9F0
D9E0
F1E0
71C0
71C0
ENDCHAR
STARTCHAR Ygrave
ENCODING 7922
SWIDTH 667 0
DWIDTH 12 0
BBX 12 15 1 0
BITMAP
0E00
0300
0000
E070
70E0
71C0
7380
3F00
3E00
1C00
1C00
1C00
3800
3800
3800
ENDCHAR
STARTCHAR ygrave
ENCODING 7923
SWIDTH 556 0
DWIDTH 10 0
BBX 12 18 -1 -4
BITMAP
0E00
0600
0300
0000
3870
38E0
38E0
39C0
1980
1980
1B00
1B00
1E00
1C00
1C00
3800
F000
E000
ENDCHAR
STARTCHAR uni2010
ENCODING 8208
SWIDTH 333 0
DWIDTH 6 0
BBX 4 2 1 4
BITMAP
F0
F0
ENDCHAR
STARTCHAR uni2011
ENCODING 8209
SWIDTH 333 0
DWIDTH 6 0
BBX 4 2 1 4
BITMAP
F0
F0
ENDCHAR
STARTCHAR figuredash
ENCODING 8210
SWIDTH 333 0
DWIDTH 6 0
BBX 4 2 1 4
BITMAP
F0
F0
ENDCHAR
STARTCHAR endash
ENCODING 8211
SWIDTH 556 0
DWIDTH 10 0
BBX 10 2 0 4
BITMAP
FFC0
FFC0
ENDCHAR
STARTCHAR emdash
ENCODING 8212
SWIDTH 1000 0
DWIDTH 18 0
BBX 18 2 0 4
BITMAP
FFFFC0
FFFFC0
ENDCHAR
STARTCHAR afii00208
ENCODING 8213
SWIDTH 1000 0
DWIDTH 18 0
BBX 18 1 0 5
BITMAP
FFFFC0
ENDCHAR
STARTCHAR underscoredbl
ENCODING 8215
SWIDTH 556 0
DWIDTH 10 0
BBX 10 3 -1 -5
BITMAP
FFC0
0000
FFC0
ENDCHAR
STARTCHAR quoteleft
ENCODING 8216
SWIDTH 278 0
DWIDTH 5 0
BBX 4 6 2 6
BITMAP
30
60
40
E0
E0
E0
ENDCHAR
STARTCHAR quoteright
ENCODING 8217
SWIDTH 278 0
DWIDTH 5 0
BBX 5 6 0 6
BITMAP
38
38
70
10
20
60
ENDCHAR
STARTCHAR quotesinglbase
ENCODING 8218
SWIDTH 278 0
DWIDTH 5 0
BBX 4 6 -1 -3
BITMAP
70
70
70
30
20
40
ENDCHAR
STARTCHAR quotereversed
ENCODING 8219
SWIDTH 278 0
DWIDTH 5 0
BBX 4 6 1 6
BITMAP
70
70
E0
C0
C0
60
ENDCHAR
STARTCHAR quotedblleft
ENCODING 8220
SWIDTH 500 0
DWIDTH 9 0
BBX 8 6 1 6
BITMAP
33
66
44
EE
EE
EE
ENDCHAR
STARTCHAR quotedblright
ENCODING 8221
SWIDTH 500 0
DWIDTH 9 0
BBX 9 6 0 6
BITMAP
3B80
3B80
7700
1100
2200
6600
ENDCHAR
STARTCHAR quotedblbase
ENCODING 8222
SWIDTH 500 0
DWIDTH 9 0
BBX 8 6 -1 -3
BITMAP
77
77
77
33
22
44
ENDCHAR
STARTCHAR dagger
ENCODING 8224
SWIDTH 556 0
DWIDTH 10 0
BBX 8 14 1 -1
BITMAP
1C
1C
1C
FF
FF
18
38
38
30
30
30
70
60
60
ENDCHAR
STARTCHAR daggerdbl
ENCODING 8225
SWIDTH 556 0
DWIDTH 10 0
BBX 10 14 0 -1
BITMAP
0600
0600
0400
3F80
7F80
0C00
0C00
0C00
0800
7F80
7F00
1800
1800
1800
ENDCHAR
STARTCHAR bullet
ENCODING 8226
SWIDTH 333 0
DWIDTH 6 0
BBX 5 5 0 4
BITMAP
70
F8
F8
F8
70
ENDCHAR
STARTCHAR ellipsis
ENCODING 8230
SWIDTH 1000 0
DWIDTH 18 0
BBX 16 3 0 0
BITMAP
E38E
E38E
E38E
ENDCHAR
STARTCHAR perthousand
ENCODING 8240
SWIDTH 944 0
DWIDTH 17 0
BBX 16 12 1 0
BITMAP
70C0
5980
DB00
DB00
D600
7C00
0F8E
1ACB
36DB
36DB
669A
C38E
ENDCHAR
STARTCHAR minute
ENCODING 8242
SWIDTH 222 0
DWIDTH 4 0
BBX 4 5 1 7
BITMAP
70
70
60
60
E0
ENDCHAR
STARTCHAR second
ENCODING 8243
SWIDTH 500 0
DWIDTH 9 0
BBX 8 5 1 7
BITMAP
77
77
66
66
EE
ENDCHAR
STARTCHAR guilsinglleft
ENCODING 8249
SWIDTH 333 0
DWIDTH 6 0
BBX 5 7 0 1
BITMAP
18
30
60
C0
E0
60
30
ENDCHAR
STARTCHAR guilsinglright
ENCODING 8250
SWIDTH 333 0
DWIDTH 6 0
BBX 5 7 0 1
BITMAP
60
30
38
18
30
60
C0
ENDCHAR
STARTCHAR exclamdbl
ENCODING 8252
SWIDTH 611 0
DWIDTH 11 0
BBX 10 12 0 0
BITMAP
39C0
39C0
39C0
3180
7380
7380
7380
7380
0000
E700
E700
E700
ENDCHAR
STARTCHAR uni203E
ENCODING 8254
SWIDTH 333 0
DWIDTH 6 0
BBX 6 2 0 13
BITMAP
FC
FC
ENDCHAR
STARTCHAR fraction
ENCODING 8260
SWIDTH 167 0
DWIDTH 3 0
BBX 12 12 -4 0
BITMAP
0030
0060
00C0
0180
0300
0600
0600
0C00
1800
3000
6000
C000
ENDCHAR
STARTCHAR uni207F
ENCODING 8319
SWIDTH 389 0
DWIDTH 7 0
BBX 6 6 1 5
BITMAP
7C
6C
6C
EC
CC
D8
ENDCHAR
STARTCHAR franc
ENCODING 8355
SWIDTH 556 0
DWIDTH 10 0
BBX 12 12 -1 0
BITMAP
1FF0
1FF0
1C00
3800
3800
3FE0
3FE0
3800
3800
FE00
7000
7000
ENDCHAR
STARTCHAR lira
ENCODING 8356
SWIDTH 556 0
DWIDTH 10 0
BBX 10 12 0 0
BITMAP
0F80
1FC0
1CC0
3800
7E00
3800
FE00
3800
7100
7180
FF00
FE00
ENDCHAR
STARTCHAR peseta
ENCODING 8359
SWIDTH 1056 0
DWIDTH 19 0
BBX 17 12 1 0
BITMAP
3E0000
3F8000
318000
61A000
63A000
7FFF80
7C6D80
606F00
606F80
C0C380
C0D980
C07F00
ENDCHAR
STARTCHAR Euro
ENCODING 8364
SWIDTH 556 0
DWIDTH 10 0
BBX 11 12 0 0
BITMAP
07C0
1FE0
3CE0
3800
FE00
7000
FE00
7000
7000
71C0
3F80
1F00
ENDCHAR
STARTCHAR afii61248
ENCODING 8453
SWIDTH 889 0
DWIDTH 16 0
BBX 15 12 1 0
BITMAP
3C18
6630
6460
C0C0
C1BC
CF66
CF46
7EC6
0CC6
18CC
30CC
6078
ENDCHAR
STARTCHAR afii61289
ENCODING 8467
SWIDTH 500 0
DWIDTH 9 0
BBX 11 12 -1 0
BITMAP
0FC0
1FE0
1CE0
38E0
39C0
3F00
7C00
7800
3980
7900
3E00
1C00
ENDCHAR
STARTCHAR afii61352
ENCODING 8470
SWIDTH 1167 0
DWIDTH 21 0
BBX 20 12 0 0
BITMAP
383000
383000
3C3000
6C6000
6C61E0
666330
666630
636630
636660
C3C3C0
C1C000
C1CFE0
ENDCHAR
STARTCHAR trademark
ENCODING 8482
SWIDTH 1000 0
DWIDTH 18 0
BBX 14 6 2 6
BITMAP
FF9C
339C
339C
336C
336C
336C
ENDCHAR
STARTCHAR u2126
ENCODING 8486
SWIDTH 778 0
DWIDTH 14 0
BBX 12 12 1 0
BITMAP
1F80
7FE0
70E0
E070
E070
E070
E070
6060
70E0
39C0
F9F0
F9F0
ENDCHAR
STARTCHAR estimated
ENCODING 8494
SWIDTH 611 0
DWIDTH 11 0
BBX 9 10 1 0
BITMAP
3E00
6300
4100
C180
FF80
C000
C000
4000
6100
3E00
ENDCHAR
STARTCHAR oneeighth
ENCODING 8539
SWIDTH 833 0
DWIDTH 15 0
BBX 14 12 1 0
BITMAP
3818
5830
3060
30C0
3180
FF00
037C
066C
0C38
18CC
30CC
6078
ENDCHAR
STARTCHAR threeeighths
ENCODING 8540
SWIDTH 833 0
DWIDTH 15 0
BBX 14 12 1 0
BITMAP
3C18
2C30
3060
18C0
D980
7300
037C
066C
0C38
18CC
30CC
6078
ENDCHAR
STARTCHAR fiveeighths
ENCODING 8541
SWIDTH 833 0
DWIDTH 15 0
BBX 13 12 2 0
BITMAP
3830
2060
78C0
1980
1B00
7600
06F8
0CD8
1870
3198
6198
C0F0
ENDCHAR
STARTCHAR seveneighths
ENCODING 8542
SWIDTH 833 0
DWIDTH 15 0
BBX 13 12 2 0
BITMAP
7C30
0860
10C0
3180
6300
6600
06F8
0CD8
1870
3198
6198
C0F0
ENDCHAR
STARTCHAR arrowleft
ENCODING 8592
SWIDTH 1000 0
DWIDTH 18 0
BBX 11 5 4 0
BITMAP
2000
4000
FFE0
4000
2000
ENDCHAR
STARTCHAR arrowup
ENCODING 8593
SWIDTH 500 0
DWIDTH 9 0
BBX 5 11 2 -1
BITMAP
20
70
A8
20
20
20
20
20
20
20
20
ENDCHAR
STARTCHAR arrowright
ENCODING 8594
SWIDTH 1000 0
DWIDTH 18 0
BBX 11 5 4 0
BITMAP
0080
0040
FFE0
0040
0080
ENDCHAR
STARTCHAR arrowdown
ENCODING 8595
SWIDTH 500 0
DWIDTH 9 0
BBX 5 11 2 -1
BITMAP
20
20
20
20
20
20
20
20
A8
70
20
ENDCHAR
STARTCHAR arrowboth
ENCODING 8596
SWIDTH 1000 0
DWIDTH 18 0
BBX 11 5 4 0
BITMAP
2080
4040
FFE0
4040
2080
ENDCHAR
STARTCHAR arrowupdn
ENCODING 8597
SWIDTH 500 0
DWIDTH 9 0
BBX 5 11 2 -1
BITMAP
20
70
A8
20
20
20
20
20
A8
70
20
ENDCHAR
STARTCHAR arrowupdnbse
ENCODING 8616
SWIDTH 500 0
DWIDTH 9 0
BBX 5 13 2 -3
BITMAP
20
70
A8
20
20
20
20
20
A8
70
20
00
F8
ENDCHAR
STARTCHAR partialdiff
ENCODING 8706
SWIDTH 500 0
DWIDTH 9 0
BBX 7 13 1 0
BITMAP
3C
3C
0E
06
36
7E
6E
C6
C6
CC
CC
F8
70
ENDCHAR
STARTCHAR u2206
ENCODING 8710
SWIDTH 611 0
DWIDTH 11 0
BBX 11 12 0 0
BITMAP
0E00
1F00
1B00
1B00
3B80
3180
71C0
60C0
60C0
E0E0
FFE0
FFE0
ENDCHAR
STARTCHAR product
ENCODING 8719
SWIDTH 833 0
DWIDTH 15 0
BBX 12 16 2 -4
BITMAP
FFF0
FFF0
E070
E070
E070
E070
E070
E070
E070
E070
E070
E070
E070
E070
E070
E070
ENDCHAR
STARTCHAR summation
ENCODING 8721
SWIDTH 722 0
DWIDTH 13 0
BBX 11 16 1 -4
BITMAP
FFC0
FFC0
7000
3800
1C00
1C00
0E00
0700
0E00
0E00
1C00
3800
7800
7000
FFE0
FFE0
ENDCHAR
STARTCHAR minus
ENCODING 8722
SWIDTH 611 0
DWIDTH 11 0
BBX 10 2 1 5
BITMAP
FFC0
FFC0
ENDCHAR
STARTCHAR fraction
ENCODING 8725
SWIDTH 167 0
DWIDTH 3 0
BBX 12 12 -4 0
BITMAP
0030
0060
00C0
0180
0300
0600
0600
0C00
1800
3000
6000
C000
ENDCHAR
STARTCHAR periodcentered
ENCODING 8729
SWIDTH 278 0
DWIDTH 5 0
BBX 3 3 1 5
BITMAP
E0
E0
E0
ENDCHAR
STARTCHAR radical
ENCODING 8730
SWIDTH 556 0
DWIDTH 10 0
BBX 10 14 1 0
BITMAP
00C0
00C0
0080
0180
0180
0100
E300
2300
3200
3600
1600
1C00
0C00
0C00
ENDCHAR
STARTCHAR infinity
ENCODING 8734
SWIDTH 667 0
DWIDTH 12 0
BBX 10 6 1 2
BITMAP
7380
FFC0
CCC0
CCC0
FFC0
7380
ENDCHAR
STARTCHAR orthogonal
ENCODING 8735
SWIDTH 1000 0
DWIDTH 18 0
BBX 11 11 4 0
BITMAP
8000
8000
8000
8000
8000
8000
8000
8000
8000
8000
FFE0
ENDCHAR
STARTCHAR intersection
ENCODING 8745
SWIDTH 722 0
DWIDTH 13 0
BBX 9 9 2 0
BITMAP
3E00
6300
C180
8080
8080
8080
8080
8080
8080
ENDCHAR
STARTCHAR integral
ENCODING 8747
SWIDTH 278 0
DWIDTH 5 0
BBX 7 17 -1 -4
BITMAP
0E
1E
38
38
38
38
38
38
38
38
38
38
38
38
38
F0
E0
ENDCHAR
STARTCHAR approxequal
ENCODING 8776
SWIDTH 556 0
DWIDTH 10 0
BBX 9 7 1 2
BITMAP
7880
FF80
8F00
0000
7880
FF80
8F00
ENDCHAR
STARTCHAR notequal
ENCODING 8800
SWIDTH 556 0
DWIDTH 10 0
BBX 9 10 1 1
BITMAP
0300
0600
FF80
FF80
0C00
1800
FF80
FF80
3000
6000
ENDCHAR
STARTCHAR equivalence
ENCODING 8801
SWIDTH 611 0
DWIDTH 11 0
BBX 9 8 1 2
BITMAP
FF80
0000
0000
FF80
0000
0000
0000
FF80
ENDCHAR
STARTCHAR lessequal
ENCODING 8804
SWIDTH 556 0
DWIDTH 10 0
BBX 9 11 1 0
BITMAP
0180
1F80
FE00
F000
F000
FE00
1F80
0180
0000
FF80
FF80
ENDCHAR
STARTCHAR greaterequal
ENCODING 8805
SWIDTH 556 0
DWIDTH 10 0
BBX 9 11 1 0
BITMAP
C000
F800
3F80
0780
0780
3F80
F800
C000
0000
FF80
FF80
ENDCHAR
STARTCHAR house
ENCODING 8962
SWIDTH 611 0
DWIDTH 11 0
BBX 8 10 1 0
BITMAP
00
18
24
42
81
81
81
81
81
FF
ENDCHAR
STARTCHAR revlogicalnot
ENCODING 8976
SWIDTH 611 0
DWIDTH 11 0
BBX 9 5 1 2
BITMAP
FF80
8000
8000
8000
8000
ENDCHAR
STARTCHAR integraltp
ENCODING 8992
SWIDTH 611 0
DWIDTH 11 0
BBX 4 20 5 -5
BITMAP
70
B0
80
80
80
80
80
80
80
80
80
80
80
80
80
80
80
80
80
80
ENDCHAR
STARTCHAR integralbt
ENCODING 8993
SWIDTH 611 0
DWIDTH 11 0
BBX 4 20 2 -5
BITMAP
10
10
10
10
10
10
10
10
10
10
10
10
10
10
10
10
10
10
D0
E0
ENDCHAR
STARTCHAR SF100000
ENCODING 9472
SWIDTH 722 0
DWIDTH 13 0
BBX 13 1 0 5
BITMAP
FFF8
ENDCHAR
STARTCHAR SF110000
ENCODING 9474
SWIDTH 611 0
DWIDTH 11 0
BBX 1 21 6 -5
BITMAP
80
80
80
80
80
80
80
80
80
80
80
80
80
80
80
80
80
80
80
80
80
ENDCHAR
STARTCHAR SF010000
ENCODING 9484
SWIDTH 722 0
DWIDTH 13 0
BBX 7 11 6 -5
BITMAP
FE
80
80
80
80
80
80
80
80
80
80
ENDCHAR
STARTCHAR SF030000
ENCODING 9488
SWIDTH 722 0
DWIDTH 13 0
BBX 7 11 0 -5
BITMAP
FE
02
02
02
02
02
02
02
02
02
02
ENDCHAR
STARTCHAR SF020000
ENCODING 9492
SWIDTH 722 0
DWIDTH 13 0
BBX 7 11 6 5
BITMAP
80
80
80
80
80
80
80
80
80
80
FE
ENDCHAR
STARTCHAR SF040000
ENCODING 9496
SWIDTH 722 0
DWIDTH 13 0
BBX 7 11 0 5
BITMAP
02
02
02
02
02
02
02
02
02
02
FE
ENDCHAR
STARTCHAR SF080000
ENCODING 9500
SWIDTH 722 0
DWIDTH 13 0
BBX 7 21 6 -5
BITMAP
80
80
80
80
80
80
80
80
80
80
FE
80
80
80
80
80
80
80
80
80
80
ENDCHAR
STARTCHAR SF090000
ENCODING 9508
SWIDTH 722 0
DWIDTH 13 0
BBX 7 21 0 -5
BITMAP
02
02
02
02
02
02
02
02
02
02
FE
02
02
02
02
02
02
02
02
02
02
ENDCHAR
STARTCHAR SF060000
ENCODING 9516
SWIDTH 722 0
DWIDTH 13 0
BBX 13 11 0 -5
BITMAP
FFF8
0200
0200
0200
0200
0200
0200
0200
0200
0200
0200
ENDCHAR
STARTCHAR SF070000
ENCODING 9524
SWIDTH 722 0
DWIDTH 13 0
BBX 13 11 0 5
BITMAP
0200
0200
0200
0200
0200
0200
0200
0200
0200
0200
FFF8
ENDCHAR
STARTCHAR SF050000
ENCODING 9532
SWIDTH 722 0
DWIDTH 13 0
BBX 13 21 0 -5
BITMAP
0200
0200
0200
0200
0200
0200
0200
0200
0200
0200
FFF8
0200
0200
0200
0200
0200
0200
0200
0200
0200
0200
ENDCHAR
STARTCHAR SF430000
ENCODING 9552
SWIDTH 722 0
DWIDTH 13 0
BBX 13 4 0 4
BITMAP
FFF8
0000
0000
FFF8
ENDCHAR
STARTCHAR SF240000
ENCODING 9553
SWIDTH 722 0
DWIDTH 13 0
BBX 4 21 4 -5
BITMAP
90
90
90
90
90
90
90
90
90
90
90
90
90
90
90
90
90
90
90
90
90
ENDCHAR
STARTCHAR SF510000
ENCODING 9554
SWIDTH 722 0
DWIDTH 13 0
BBX 7 13 6 -5
BITMAP
FE
80
80
FE
80
80
80
80
80
80
80
80
80
ENDCHAR
STARTCHAR SF520000
ENCODING 9555
SWIDTH 722 0
DWIDTH 13 0
BBX 9 11 4 -5
BITMAP
FF80
9000
9000
9000
9000
9000
9000
9000
9000
9000
9000
ENDCHAR
STARTCHAR SF390000
ENCODING 9556
SWIDTH 722 0
DWIDTH 13 0
BBX 9 13 4 -5
BITMAP
FF80
8000
8000
9F80
9000
9000
9000
9000
9000
9000
9000
9000
9000
ENDCHAR
STARTCHAR SF220000
ENCODING 9557
SWIDTH 722 0
DWIDTH 13 0
BBX 7 13 0 -5
BITMAP
FE
02
02
FE
02
02
02
02
02
02
02
02
02
ENDCHAR
STARTCHAR SF210000
ENCODING 9558
SWIDTH 722 0
DWIDTH 13 0
BBX 8 11 0 -5
BITMAP
FF
09
09
09
09
09
09
09
09
09
09
ENDCHAR
STARTCHAR SF250000
ENCODING 9559
SWIDTH 722 0
DWIDTH 13 0
BBX 8 13 0 -5
BITMAP
FF
01
01
F9
09
09
09
09
09
09
09
09
09
ENDCHAR
STARTCHAR SF500000
ENCODING 9560
SWIDTH 722 0
DWIDTH 13 0
BBX 7 12 6 4
BITMAP
80
80
80
80
80
80
80
80
FE
80
80
FE
ENDCHAR
STARTCHAR SF490000
ENCODING 9561
SWIDTH 722 0
DWIDTH 13 0
BBX 9 11 4 5
BITMAP
9000
9000
9000
9000
9000
9000
9000
9000
9000
9000
FF80
ENDCHAR
STARTCHAR SF380000
ENCODING 9562
SWIDTH 722 0
DWIDTH 13 0
BBX 9 12 4 4
BITMAP
9000
9000
9000
9000
9000
9000
9000
9000
9F80
8000
8000
FF80
ENDCHAR
STARTCHAR SF280000
ENCODING 9563
SWIDTH 722 0
DWIDTH 13 0
BBX 7 12 0 4
BITMAP
02
02
02
02
02
02
02
02
FE
02
02
FE
ENDCHAR
STARTCHAR SF270000
ENCODING 9564
SWIDTH 722 0
DWIDTH 13 0
BBX 8 11 0 5
BITMAP
09
09
09
09
09
09
09
09
09
09
FF
ENDCHAR
STARTCHAR SF260000
ENCODING 9565
SWIDTH 722 0
DWIDTH 13 0
BBX 8 12 0 4
BITMAP
09
09
09
09
09
09
09
09
F9
01
01
FF
ENDCHAR
STARTCHAR SF360000
ENCODING 9566
SWIDTH 722 0
DWIDTH 13 0
BBX 7 21 6 -5
BITMAP
80
80
80
80
80
80
80
80
FE
80
80
FE
80
80
80
80
80
80
80
80
80
ENDCHAR
STARTCHAR SF370000
ENCODING 9567
SWIDTH 722 0
DWIDTH 13 0
BBX 9 21 4 -5
BITMAP
9000
9000
9000
9000
9000
9000
9000
9000
9000
9000
9F80
9000
9000
9000
9000
9000
9000
9000
9000
9000
9000
ENDCHAR
STARTCHAR SF420000
ENCODING 9568
SWIDTH 722 0
DWIDTH 13 0
BBX 9 21 4 -5
BITMAP
9000
9000
9000
9000
9000
9000
9000
9000
9F80
8000
8000
9F80
9000
9000
9000
9000
9000
9000
9000
9000
9000
ENDCHAR
STARTCHAR SF190000
ENCODING 9569
SWIDTH 722 0
DWIDTH 13 0
BBX 7 21 0 -5
BITMAP
02
02
02
02
02
02
02
02
FE
02
02
FE
02
02
02
02
02
02
02
02
02
ENDCHAR
STARTCHAR SF200000
ENCODING 9570
SWIDTH 722 0
DWIDTH 13 0
BBX 8 21 0 -5
BITMAP
09
09
09
09
09
09
09
09
09
09
F9
09
09
09
09
09
09
09
09
09
09
ENDCHAR
STARTCHAR SF230000
ENCODING 9571
SWIDTH 722 0
DWIDTH 13 0
BBX 8 21 0 -5
BITMAP
09
09
09
09
09
09
09
09
F9
01
01
F9
09
09
09
09
09
09
09
09
09
ENDCHAR
STARTCHAR SF470000
ENCODING 9572
SWIDTH 722 0
DWIDTH 13 0
BBX 13 13 0 -5
BITMAP
FFF8
0000
0000
FFF8
0200
0200
0200
0200
0200
0200
0200
0200
0200
ENDCHAR
STARTCHAR SF480000
ENCODING 9573
SWIDTH 722 0
DWIDTH 13 0
BBX 13 11 0 -5
BITMAP
FFF8
0900
0900
0900
0900
0900
0900
0900
0900
0900
0900
ENDCHAR
STARTCHAR SF410000
ENCODING 9574
SWIDTH 722 0
DWIDTH 13 0
BBX 13 13 0 -5
BITMAP
FFF8
0000
0000
F9F8
0900
0900
0900
0900
0900
0900
0900
0900
0900
ENDCHAR
STARTCHAR SF450000
ENCODING 9575
SWIDTH 722 0
DWIDTH 13 0
BBX 13 12 0 4
BITMAP
0200
0200
0200
0200
0200
0200
0200
0200
FFF8
0000
0000
FFF8
ENDCHAR
STARTCHAR SF460000
ENCODING 9576
SWIDTH 722 0
DWIDTH 13 0
BBX 13 11 0 5
BITMAP
0900
0900
0900
0900
0900
0900
0900
0900
0900
0900
FFF8
ENDCHAR
STARTCHAR SF400000
ENCODING 9577
SWIDTH 722 0
DWIDTH 13 0
BBX 13 12 0 4
BITMAP
0900
0900
0900
0900
0900
0900
0900
0900
F9F8
0000
0000
FFF8
ENDCHAR
STARTCHAR SF540000
ENCODING 9578
SWIDTH 722 0
DWIDTH 13 0
BBX 13 21 0 -5
BITMAP
0200
0200
0200
0200
0200
0200
0200
0200
FFF8
0200
0200
FFF8
0200
0200
0200
0200
0200
0200
0200
0200
0200
ENDCHAR
STARTCHAR SF530000
ENCODING 9579
SWIDTH 722 0
DWIDTH 13 0
BBX 13 21 0 -5
BITMAP
0900
0900
0900
0900
0900
0900
0900
0900
0900
0900
FFF8
0900
0900
0900
0900
0900
0900
0900
0900
0900
0900
ENDCHAR
STARTCHAR SF440000
ENCODING 9580
SWIDTH 722 0
DWIDTH 13 0
BBX 13 21 0 -5
BITMAP
0900
0900
0900
0900
0900
0900
0900
0900
F9F8
0000
0000
F9F8
0900
0900
0900
0900
0900
0900
0900
0900
0900
ENDCHAR
STARTCHAR upblock
ENCODING 9600
SWIDTH 722 0
DWIDTH 13 0
BBX 13 11 0 5
BITMAP
FFF8
FFF8
FFF8
FFF8
FFF8
FFF8
FFF8
FFF8
FFF8
FFF8
FFF8
ENDCHAR
STARTCHAR dnblock
ENCODING 9604
SWIDTH 722 0
DWIDTH 13 0
BBX 13 10 0 -5
BITMAP
FFF8
FFF8
FFF8
FFF8
FFF8
FFF8
FFF8
FFF8
FFF8
FFF8
ENDCHAR
STARTCHAR block
ENCODING 9608
SWIDTH 722 0
DWIDTH 13 0
BBX 13 21 0 -5
BITMAP
FFF8
FFF8
FFF8
FFF8
FFF8
FFF8
FFF8
FFF8
FFF8
FFF8
FFF8
FFF8
FFF8
FFF8
FFF8
FFF8
FFF8
FFF8
FFF8
FFF8
FFF8
ENDCHAR
STARTCHAR lfblock
ENCODING 9612
SWIDTH 722 0
DWIDTH 13 0
BBX 6 21 0 -5
BITMAP
FC
FC
FC
FC
FC
FC
FC
FC
FC
FC
FC
FC
FC
FC
FC
FC
FC
FC
FC
FC
FC
ENDCHAR
STARTCHAR rtblock
ENCODING 9616
SWIDTH 722 0
DWIDTH 13 0
BBX 7 21 6 -5
BITMAP
FE
FE
FE
FE
FE
FE
FE
FE
FE
FE
FE
FE
FE
FE
FE
FE
FE
FE
FE
FE
FE
ENDCHAR
STARTCHAR ltshade
ENCODING 9617
SWIDTH 722 0
DWIDTH 13 0
BBX 12 20 1 -5
BITMAP
8910
0000
2240
8910
0000
2240
0000
8910
0000
2240
8910
0000
2240
0000
8910
0000
2240
8910
0000
2240
ENDCHAR
STARTCHAR shade
ENCODING 9618
SWIDTH 722 0
DWIDTH 13 0
BBX 13 20 0 -5
BITMAP
52A8
0000
AD50
52A8
0000
AD50
0000
52A8
0000
0000
52A8
0000
AD50
0000
52A8
AD50
0000
52A8
0000
AD50
ENDCHAR
STARTCHAR dkshade
ENCODING 9619
SWIDTH 722 0
DWIDTH 13 0
BBX 13 20 0 -5
BITMAP
55A8
FFF8
AB50
55A8
FFF8
AB50
FFF8
55A8
FFF8
FFF8
55A8
FFF8
AB50
FFF8
FFF8
AB50
FFF8
55A8
FFF8
FFF0
ENDCHAR
STARTCHAR filledbox
ENCODING 9632
SWIDTH 611 0
DWIDTH 11 0
BBX 9 9 1 1
BITMAP
FF80
FF80
FF80
FF80
FF80
FF80
FF80
FF80
FF80
ENDCHAR
STARTCHAR H22073
ENCODING 9633
SWIDTH 611 0
DWIDTH 11 0
BBX 11 11 0 0
BITMAP
FFE0
8020
8020
8020
8020
8020
8020
8020
8020
8020
FFE0
ENDCHAR
STARTCHAR H18543
ENCODING 9642
SWIDTH 333 0
DWIDTH 6 0
BBX 4 4 1 4
BITMAP
F0
F0
F0
F0
ENDCHAR
STARTCHAR H18551
ENCODING 9643
SWIDTH 333 0
DWIDTH 6 0
BBX 4 4 1 4
BITMAP
F0
90
90
F0
ENDCHAR
STARTCHAR filledrect
ENCODING 9644
SWIDTH 1000 0
DWIDTH 18 0
BBX 18 5 0 0
BITMAP
FFFFC0
FFFFC0
FFFFC0
FFFFC0
FFFFC0
ENDCHAR
STARTCHAR triagup
ENCODING 9650
SWIDTH 1000 0
DWIDTH 18 0
BBX 10 11 4 0
BITMAP
0000
0800
0C00
1C00
1E00
3E00
3F00
7F00
7F80
FF80
FFC0
ENDCHAR
STARTCHAR triagrt
ENCODING 9658
SWIDTH 1000 0
DWIDTH 18 0
BBX 10 11 4 0
BITMAP
0000
C000
F000
FC00
FF00
FFC0
FF80
FE00
F800
E000
8000
ENDCHAR
STARTCHAR triagdn
ENCODING 9660
SWIDTH 1000 0
DWIDTH 18 0
BBX 10 10 4 0
BITMAP
FFC0
7F80
7F80
3F00
3F00
1E00
1E00
0C00
0C00
0000
ENDCHAR
STARTCHAR triaglf
ENCODING 9668
SWIDTH 1000 0
DWIDTH 18 0
BBX 10 11 4 0
BITMAP
0000
00C0
03C0
0FC0
3FC0
FFC0
7FC0
1FC0
07C0
01C0
0040
ENDCHAR
STARTCHAR lozenge
ENCODING 9674
SWIDTH 444 0
DWIDTH 8 0
BBX 8 12 0 0
BITMAP
18
18
3C
64
66
C3
C3
66
64
3C
18
18
ENDCHAR
STARTCHAR circle
ENCODING 9675
SWIDTH 611 0
DWIDTH 11 0
BBX 8 8 1 1
BITMAP
3C
42
81
81
81
81
42
3C
ENDCHAR
STARTCHAR H18533
ENCODING 9679
SWIDTH 611 0
DWIDTH 11 0
BBX 8 8 2 1
BITMAP
3C
7E
FF
FF
FF
FF
7E
3C
ENDCHAR
STARTCHAR invbullet
ENCODING 9688
SWIDTH 611 0
DWIDTH 11 0
BBX 10 10 0 0
BITMAP
FFC0
E1C0
C0C0
8040
8040
8040
8040
C0C0
E1C0
FFC0
ENDCHAR
STARTCHAR invcircle
ENCODING 9689
SWIDTH 611 0
DWIDTH 11 0
BBX 10 10 0 0
BITMAP
FFC0
E1C0
DEC0
BF40
BF40
BF40
BF40
DEC0
E1C0
FFC0
ENDCHAR
STARTCHAR openbullet
ENCODING 9702
SWIDTH 333 0
DWIDTH 6 0
BBX 4 4 1 4
BITMAP
60
90
90
60
ENDCHAR
STARTCHAR smileface
ENCODING 9786
SWIDTH 1000 0
DWIDTH 18 0
BBX 11 11 4 0
BITMAP
1F00
2080
4040
8020
9120
8020
8020
9120
4E40
2080
1F00
ENDCHAR
STARTCHAR invsmileface
ENCODING 9787
SWIDTH 1056 0
DWIDTH 19 0
BBX 11 11 4 0
BITMAP
1F00
3F80
7FC0
FFE0
EEE0
FFE0
FFE0
EEE0
71C0
3F80
1F00
ENDCHAR
STARTCHAR sun
ENCODING 9788
SWIDTH 944 0
DWIDTH 17 0
BBX 11 11 3 -1
BITMAP
0400
4440
2E80
1100
2080
E0E0
2080
1100
2E80
4440
0400
ENDCHAR
STARTCHAR female
ENCODING 9792
SWIDTH 778 0
DWIDTH 14 0
BBX 5 9 4 1
BITMAP
70
88
88
88
70
20
F8
20
20
ENDCHAR
STARTCHAR male
ENCODING 9794
SWIDTH 778 0
DWIDTH 14 0
BBX 7 8 3 2
BITMAP
06
06
0A
70
88
88
88
70
ENDCHAR
STARTCHAR spade
ENCODING 9824
SWIDTH 556 0
DWIDTH 10 0
BBX 8 11 1 0
BITMAP
00
08
18
3C
7E
FF
FF
FF
6E
08
3C
ENDCHAR
STARTCHAR club
ENCODING 9827
SWIDTH 667 0
DWIDTH 12 0
BBX 10 11 1 0
BITMAP
0C00
1E00
1E00
1E00
7F80
FFC0
FFC0
FFC0
7B80
0C00
1E00
ENDCHAR
STARTCHAR heart
ENCODING 9829
SWIDTH 611 0
DWIDTH 11 0
BBX 9 10 1 0
BITMAP
7700
F780
FF80
FF80
7F00
3E00
1C00
1C00
0800
0800
ENDCHAR
STARTCHAR diamond
ENCODING 9830
SWIDTH 500 0
DWIDTH 9 0
BBX 9 11 0 0
BITMAP
0800
0800
1C00
3E00
7F00
FF80
7F00
3E00
1C00
0800
0800
ENDCHAR
STARTCHAR musicalnote
ENCODING 9834
SWIDTH 500 0
DWIDTH 9 0
BBX 6 10 1 0
BITMAP
10
10
18
1C
14
14
14
74
F8
E0
ENDCHAR
STARTCHAR musicalnotedbl
ENCODING 9835
SWIDTH 778 0
DWIDTH 14 0
BBX 9 10 2 0
BITMAP
0180
3E80
2180
3F80
3080
2080
2080
E380
E380
C300
ENDCHAR
STARTCHAR uniF001
ENCODING 61441
SWIDTH 611 0
DWIDTH 11 0
BBX 11 13 0 0
BITMAP
1EE0
3EE0
3800
FDC0
FDC0
71C0
71C0
71C0
71C0
71C0
E380
E380
E380
ENDCHAR
STARTCHAR uniF002
ENCODING 61442
SWIDTH 611 0
DWIDTH 11 0
BBX 11 13 0 0
BITMAP
1EE0
3EE0
38E0
FDC0
FDC0
71C0
71C0
71C0
71C0
71C0
E380
E380
E380
ENDCHAR
STARTCHAR uniF005
ENCODING 61445
SWIDTH 333 0
DWIDTH 6 0
BBX 4 3 1 -4
BITMAP
70
30
E0
ENDCHAR
STARTCHAR uniF001
ENCODING 64257
SWIDTH 611 0
DWIDTH 11 0
BBX 11 13 0 0
BITMAP
1EE0
3EE0
3800
FDC0
FDC0
71C0
71C0
71C0
71C0
71C0
E380
E380
E380
ENDCHAR
STARTCHAR uniF002
ENCODING 64258
SWIDTH 611 0
DWIDTH 11 0
BBX 11 13 0 0
BITMAP
1EE0
3EE0
38E0
FDC0
FDC0
71C0
71C0
71C0
71C0
71C0
E380
E380
E380
ENDCHAR
ENDFONT
