STARTFONT 2.1
FONT -unknown-Standard-BoldItalic-R-Normal--8-80-75-75-P-0-ISO10646-1
SIZE 8 75 75
FONTBOUNDINGBOX 8 8 0 0
STARTPROPERTIES 5
FAMILY_NAME "Standard"
WEIGHT_NAME "BoldItalic"
PIXEL_SIZE 8
FONT_ASCENT 6
FONT_DESCENT 2
ENDPROPERTIES
CHARS 662
STARTCHAR space
ENCODING 32
SWIDTH 250 0
DWIDTH 3 0
BBX 0 0 0 0
BITMAP
ENDCHAR
STARTCHAR exclam
ENCODING 33
SWIDTH 375 0
DWIDTH 3 0
BBX 2 6 0 0
BITMAP
40
40
40
80
00
80
ENDCHAR
STARTCHAR quotedbl
ENCODING 34
SWIDTH 500 0
DWIDTH 4 0
BBX 3 2 0 4
BITMAP
A0
A0
ENDCHAR
STARTCHAR numbersign
ENCODING 35
SWIDTH 500 0
DWIDTH 4 0
BBX 3 6 0 0
BITMAP
A0
A0
E0
A0
E0
A0
ENDCHAR
STARTCHAR dollar
ENCODING 36
SWIDTH 500 0
DWIDTH 5 0
BBX 4 7 0 -1
BITMAP
70
70
60
20
E0
E0
40
ENDCHAR
STARTCHAR percent
ENCODING 37
SWIDTH 1000 0
DWIDTH 9 0
BBX 8 6 0 0
BITMAP
62
A4
AB
D5
25
46
ENDCHAR
STARTCHAR ampersand
ENCODING 38
SWIDTH 750 0
DWIDTH 6 0
BBX 5 6 0 0
BITMAP
38
28
30
E8
90
F8
ENDCHAR
STARTCHAR quotesingle
ENCODING 39
SWIDTH 250 0
DWIDTH 2 0
BBX 1 2 0 4
BITMAP
80
80
ENDCHAR
STARTCHAR parenleft
ENCODING 40
SWIDTH 375 0
DWIDTH 4 0
BBX 3 8 0 -2
BITMAP
60
40
80
80
80
80
80
40
ENDCHAR
STARTCHAR parenright
ENCODING 41
SWIDTH 375 0
DWIDTH 4 0
BBX 3 8 0 -2
BITMAP
40
20
20
20
20
20
40
C0
ENDCHAR
STARTCHAR asterisk
ENCODING 42
SWIDTH 375 0
DWIDTH 4 0
BBX 3 3 0 3
BITMAP
40
E0
A0
ENDCHAR
STARTCHAR plus
ENCODING 43
SWIDTH 625 0
DWIDTH 6 0
BBX 5 5 0 0
BITMAP
20
20
F8
20
20
ENDCHAR
STARTCHAR comma
ENCODING 44
SWIDTH 250 0
DWIDTH 2 0
BBX 1 2 0 -1
BITMAP
80
80
ENDCHAR
STARTCHAR hyphen
ENCODING 45
SWIDTH 375 0
DWIDTH 4 0
BBX 3 1 0 2
BITMAP
E0
ENDCHAR
STARTCHAR period
ENCODING 46
SWIDTH 250 0
DWIDTH 2 0
BBX 1 1 0 0
BITMAP
80
ENDCHAR
STARTCHAR slash
ENCODING 47
SWIDTH 250 0
DWIDTH 4 0
BBX 3 6 0 0
BITMAP
20
20
40
40
80
80
ENDCHAR
STARTCHAR zero
ENCODING 48
SWIDTH 500 0
DWIDTH 5 0
BBX 4 6 0 0
BITMAP
70
50
90
90
A0
E0
ENDCHAR
STARTCHAR one
ENCODING 49
SWIDTH 500 0
DWIDTH 4 0
BBX 3 6 0 0
BITMAP
60
A0
20
40
40
E0
ENDCHAR
STARTCHAR two
ENCODING 50
SWIDTH 500 0
DWIDTH 5 0
BBX 4 6 0 0
BITMAP
70
50
10
60
40
F0
ENDCHAR
STARTCHAR three
ENCODING 51
SWIDTH 500 0
DWIDTH 5 0
BBX 4 6 0 0
BITMAP
70
50
60
20
A0
E0
ENDCHAR
STARTCHAR four
ENCODING 52
SWIDTH 500 0
DWIDTH 5 0
BBX 4 6 0 0
BITMAP
30
30
50
A0
F0
20
ENDCHAR
STARTCHAR five
ENCODING 53
SWIDTH 500 0
DWIDTH 5 0
BBX 4 6 0 0
BITMAP
70
40
70
10
90
E0
ENDCHAR
STARTCHAR six
ENCODING 54
SWIDTH 500 0
DWIDTH 5 0
BBX 4 6 0 0
BITMAP
70
D0
F0
90
90
60
ENDCHAR
STARTCHAR seven
ENCODING 55
SWIDTH 500 0
DWIDTH 4 0
BBX 3 6 0 0
BITMAP
E0
60
40
40
80
80
ENDCHAR
STARTCHAR eight
ENCODING 56
SWIDTH 500 0
DWIDTH 5 0
BBX 4 6 0 0
BITMAP
70
50
60
90
90
E0
ENDCHAR
STARTCHAR nine
ENCODING 57
SWIDTH 500 0
DWIDTH 5 0
BBX 4 6 0 0
BITMAP
70
90
90
F0
A0
E0
ENDCHAR
STARTCHAR colon
ENCODING 58
SWIDTH 375 0
DWIDTH 3 0
BBX 2 4 0 0
BITMAP
40
00
00
80
ENDCHAR
STARTCHAR semicolon
ENCODING 59
SWIDTH 375 0
DWIDTH 3 0
BBX 2 5 0 -1
BITMAP
40
00
00
80
80
ENDCHAR
STARTCHAR less
ENCODING 60
SWIDTH 625 0
DWIDTH 6 0
BBX 5 5 0 0
BITMAP
08
70
80
70
08
ENDCHAR
STARTCHAR equal
ENCODING 61
SWIDTH 625 0
DWIDTH 6 0
BBX 5 3 0 1
BITMAP
F8
00
F8
ENDCHAR
STARTCHAR greater
ENCODING 62
SWIDTH 625 0
DWIDTH 6 0
BBX 5 5 0 0
BITMAP
80
70
08
70
80
ENDCHAR
STARTCHAR question
ENCODING 63
SWIDTH 625 0
DWIDTH 5 0
BBX 4 6 0 0
BITMAP
70
90
30
40
00
40
ENDCHAR
STARTCHAR at
ENCODING 64
SWIDTH 1000 0
DWIDTH 8 0
BBX 7 7 0 -1
BITMAP
3C
5E
AA
AA
BC
C4
78
ENDCHAR
STARTCHAR A
ENCODING 65
SWIDTH 750 0
DWIDTH 6 0
BBX 5 6 0 0
BITMAP
10
30
28
48
78
88
ENDCHAR
STARTCHAR B
ENCODING 66
SWIDTH 750 0
DWIDTH 7 0
BBX 6 6 0 0
BITMAP
7C
44
78
84
84
F8
ENDCHAR
STARTCHAR C
ENCODING 67
SWIDTH 750 0
DWIDTH 7 0
BBX 6 6 0 0
BITMAP
38
44
80
80
88
70
ENDCHAR
STARTCHAR D
ENCODING 68
SWIDTH 750 0
DWIDTH 7 0
BBX 6 6 0 0
BITMAP
78
44
44
84
88
F0
ENDCHAR
STARTCHAR E
ENCODING 69
SWIDTH 625 0
DWIDTH 6 0
BBX 5 6 0 0
BITMAP
78
40
70
80
80
F0
ENDCHAR
STARTCHAR F
ENCODING 70
SWIDTH 625 0
DWIDTH 6 0
BBX 5 6 0 0
BITMAP
78
40
40
F0
80
80
ENDCHAR
STARTCHAR G
ENCODING 71
SWIDTH 750 0
DWIDTH 7 0
BBX 6 6 0 0
BITMAP
38
44
80
98
88
78
ENDCHAR
STARTCHAR H
ENCODING 72
SWIDTH 750 0
DWIDTH 7 0
BBX 6 6 0 0
BITMAP
44
44
7C
88
88
88
ENDCHAR
STARTCHAR I
ENCODING 73
SWIDTH 250 0
DWIDTH 3 0
BBX 2 6 0 0
BITMAP
40
40
40
80
80
80
ENDCHAR
STARTCHAR J
ENCODING 74
SWIDTH 500 0
DWIDTH 5 0
BBX 4 6 0 0
BITMAP
30
10
10
20
A0
E0
ENDCHAR
STARTCHAR K
ENCODING 75
SWIDTH 750 0
DWIDTH 7 0
BBX 6 6 0 0
BITMAP
48
50
60
D0
90
88
ENDCHAR
STARTCHAR L
ENCODING 76
SWIDTH 625 0
DWIDTH 6 0
BBX 5 6 0 0
BITMAP
40
40
40
80
80
F8
ENDCHAR
STARTCHAR M
ENCODING 77
SWIDTH 750 0
DWIDTH 7 0
BBX 6 6 0 0
BITMAP
6C
6C
74
B8
A8
A8
ENDCHAR
STARTCHAR N
ENCODING 78
SWIDTH 750 0
DWIDTH 7 0
BBX 6 6 0 0
BITMAP
44
64
64
98
98
88
ENDCHAR
STARTCHAR O
ENCODING 79
SWIDTH 750 0
DWIDTH 7 0
BBX 6 6 0 0
BITMAP
38
44
84
84
88
70
ENDCHAR
STARTCHAR P
ENCODING 80
SWIDTH 625 0
DWIDTH 6 0
BBX 5 6 0 0
BITMAP
70
48
48
F0
80
80
ENDCHAR
STARTCHAR Q
ENCODING 81
SWIDTH 750 0
DWIDTH 7 0
BBX 6 8 0 -2
BITMAP
38
44
84
84
88
78
20
30
ENDCHAR
STARTCHAR R
ENCODING 82
SWIDTH 750 0
DWIDTH 7 0
BBX 6 6 0 0
BITMAP
78
44
44
F8
90
88
ENDCHAR
STARTCHAR S
ENCODING 83
SWIDTH 625 0
DWIDTH 6 0
BBX 5 6 0 0
BITMAP
70
48
60
10
90
F0
ENDCHAR
STARTCHAR T
ENCODING 84
SWIDTH 625 0
DWIDTH 6 0
BBX 5 6 0 0
BITMAP
F8
20
20
40
40
40
ENDCHAR
STARTCHAR U
ENCODING 85
SWIDTH 750 0
DWIDTH 7 0
BBX 6 6 0 0
BITMAP
44
44
44
88
88
70
ENDCHAR
STARTCHAR V
ENCODING 86
SWIDTH 625 0
DWIDTH 6 0
BBX 5 6 0 0
BITMAP
88
90
90
A0
60
40
ENDCHAR
STARTCHAR W
ENCODING 87
SWIDTH 1000 0
DWIDTH 9 0
BBX 8 6 0 0
BITMAP
89
9A
AA
AC
CC
88
ENDCHAR
STARTCHAR X
ENCODING 88
SWIDTH 625 0
DWIDTH 6 0
BBX 5 6 0 0
BITMAP
48
50
20
20
50
90
ENDCHAR
STARTCHAR Y
ENCODING 89
SWIDTH 625 0
DWIDTH 6 0
BBX 5 6 0 0
BITMAP
88
50
60
40
40
40
ENDCHAR
STARTCHAR Z
ENCODING 90
SWIDTH 625 0
DWIDTH 6 0
BBX 5 6 0 0
BITMAP
78
10
20
20
40
F0
ENDCHAR
STARTCHAR bracketleft
ENCODING 91
SWIDTH 375 0
DWIDTH 4 0
BBX 3 8 0 -2
BITMAP
60
40
40
80
80
80
80
C0
ENDCHAR
STARTCHAR backslash
ENCODING 92
SWIDTH 250 0
DWIDTH 3 0
BBX 2 6 0 0
BITMAP
80
80
80
40
40
40
ENDCHAR
STARTCHAR bracketright
ENCODING 93
SWIDTH 375 0
DWIDTH 4 0
BBX 3 8 0 -2
BITMAP
60
20
20
40
40
40
40
C0
ENDCHAR
STARTCHAR asciicircum
ENCODING 94
SWIDTH 625 0
DWIDTH 6 0
BBX 5 4 0 2
BITMAP
20
50
50
88
ENDCHAR
STARTCHAR underscore
ENCODING 95
SWIDTH 500 0
DWIDTH 5 0
BBX 4 1 0 -2
BITMAP
F0
ENDCHAR
STARTCHAR grave
ENCODING 96
SWIDTH 375 0
DWIDTH 3 0
BBX 2 1 0 5
BITMAP
40
ENDCHAR
STARTCHAR a
ENCODING 97
SWIDTH 500 0
DWIDTH 5 0
BBX 4 4 0 0
BITMAP
60
60
E0
F0
ENDCHAR
STARTCHAR b
ENCODING 98
SWIDTH 625 0
DWIDTH 6 0
BBX 5 6 0 0
BITMAP
40
40
78
C8
88
F0
ENDCHAR
STARTCHAR c
ENCODING 99
SWIDTH 500 0
DWIDTH 5 0
BBX 4 4 0 0
BITMAP
70
90
A0
E0
ENDCHAR
STARTCHAR d
ENCODING 100
SWIDTH 625 0
DWIDTH 6 0
BBX 5 6 0 0
BITMAP
08
08
68
90
90
F0
ENDCHAR
STARTCHAR e
ENCODING 101
SWIDTH 500 0
DWIDTH 5 0
BBX 4 4 0 0
BITMAP
70
F0
80
E0
ENDCHAR
STARTCHAR f
ENCODING 102
SWIDTH 375 0
DWIDTH 4 0
BBX 3 6 0 0
BITMAP
60
40
C0
80
80
80
ENDCHAR
STARTCHAR g
ENCODING 103
SWIDTH 625 0
DWIDTH 6 0
BBX 5 6 0 -2
BITMAP
68
90
90
F0
10
E0
ENDCHAR
STARTCHAR h
ENCODING 104
SWIDTH 625 0
DWIDTH 5 0
BBX 4 6 0 0
BITMAP
40
40
70
D0
90
90
ENDCHAR
STARTCHAR i
ENCODING 105
SWIDTH 250 0
DWIDTH 3 0
BBX 2 6 0 0
BITMAP
40
00
40
80
80
80
ENDCHAR
STARTCHAR j
ENCODING 106
SWIDTH 250 0
DWIDTH 4 0
BBX 3 8 0 -2
BITMAP
20
00
20
40
40
40
40
C0
ENDCHAR
STARTCHAR k
ENCODING 107
SWIDTH 500 0
DWIDTH 5 0
BBX 4 6 0 0
BITMAP
40
40
70
C0
A0
A0
ENDCHAR
STARTCHAR l
ENCODING 108
SWIDTH 250 0
DWIDTH 3 0
BBX 2 6 0 0
BITMAP
40
40
40
80
80
80
ENDCHAR
STARTCHAR m
ENCODING 109
SWIDTH 875 0
DWIDTH 8 0
BBX 7 4 0 0
BITMAP
7E
52
D4
94
ENDCHAR
STARTCHAR n
ENCODING 110
SWIDTH 625 0
DWIDTH 5 0
BBX 4 4 0 0
BITMAP
70
D0
90
90
ENDCHAR
STARTCHAR o
ENCODING 111
SWIDTH 625 0
DWIDTH 6 0
BBX 5 4 0 0
BITMAP
78
88
88
F0
ENDCHAR
STARTCHAR p
ENCODING 112
SWIDTH 625 0
DWIDTH 6 0
BBX 5 6 0 -2
BITMAP
78
C8
88
F0
80
80
ENDCHAR
STARTCHAR q
ENCODING 113
SWIDTH 625 0
DWIDTH 6 0
BBX 5 6 0 -2
BITMAP
68
90
90
F0
10
10
ENDCHAR
STARTCHAR r
ENCODING 114
SWIDTH 375 0
DWIDTH 4 0
BBX 3 4 0 0
BITMAP
60
C0
80
80
ENDCHAR
STARTCHAR s
ENCODING 115
SWIDTH 500 0
DWIDTH 5 0
BBX 4 4 0 0
BITMAP
70
40
20
E0
ENDCHAR
STARTCHAR t
ENCODING 116
SWIDTH 375 0
DWIDTH 3 0
BBX 2 5 0 0
BITMAP
40
C0
80
80
C0
ENDCHAR
STARTCHAR u
ENCODING 117
SWIDTH 625 0
DWIDTH 6 0
BBX 5 4 0 0
BITMAP
48
90
90
F0
ENDCHAR
STARTCHAR v
ENCODING 118
SWIDTH 500 0
DWIDTH 6 0
BBX 5 4 0 0
BITMAP
50
50
60
60
ENDCHAR
STARTCHAR w
ENCODING 119
SWIDTH 750 0
DWIDTH 7 0
BBX 6 4 0 0
BITMAP
B4
B8
D8
D8
ENDCHAR
STARTCHAR x
ENCODING 120
SWIDTH 500 0
DWIDTH 5 0
BBX 4 4 0 0
BITMAP
50
60
60
A0
ENDCHAR
STARTCHAR y
ENCODING 121
SWIDTH 500 0
DWIDTH 6 0
BBX 5 6 0 -2
BITMAP
48
50
50
20
60
C0
ENDCHAR
STARTCHAR z
ENCODING 122
SWIDTH 500 0
DWIDTH 5 0
BBX 4 4 0 0
BITMAP
70
20
40
F0
ENDCHAR
STARTCHAR braceleft
ENCODING 123
SWIDTH 375 0
DWIDTH 5 0
BBX 4 8 0 -2
BITMAP
30
20
20
40
40
40
40
60
ENDCHAR
STARTCHAR bar
ENCODING 124
SWIDTH 375 0
DWIDTH 2 0
BBX 1 8 0 -2
BITMAP
80
80
80
80
80
80
80
80
ENDCHAR
STARTCHAR braceright
ENCODING 125
SWIDTH 375 0
DWIDTH 4 0
BBX 3 8 0 -2
BITMAP
60
20
20
20
40
40
40
C0
ENDCHAR
STARTCHAR asciitilde
ENCODING 126
SWIDTH 625 0
DWIDTH 6 0
BBX 5 1 0 2
BITMAP
F8
ENDCHAR
STARTCHAR space
ENCODING 160
SWIDTH 250 0
DWIDTH 3 0
BBX 0 0 0 0
BITMAP
ENDCHAR
STARTCHAR exclamdown
ENCODING 161
SWIDTH 375 0
DWIDTH 3 0
BBX 2 5 0 -1
BITMAP
40
00
80
80
80
ENDCHAR
STARTCHAR cent
ENCODING 162
SWIDTH 500 0
DWIDTH 5 0
BBX 4 5 0 0
BITMAP
20
70
C0
F0
40
ENDCHAR
STARTCHAR sterling
ENCODING 163
SWIDTH 500 0
DWIDTH 5 0
BBX 4 6 0 0
BITMAP
30
30
20
60
50
F0
ENDCHAR
STARTCHAR currency
ENCODING 164
SWIDTH 500 0
DWIDTH 4 0
BBX 3 3 0 1
BITMAP
E0
A0
E0
ENDCHAR
STARTCHAR yen
ENCODING 165
SWIDTH 500 0
DWIDTH 6 0
BBX 5 6 0 0
BITMAP
88
90
60
F0
F0
40
ENDCHAR
STARTCHAR brokenbar
ENCODING 166
SWIDTH 250 0
DWIDTH 2 0
BBX 1 8 0 -2
BITMAP
80
80
80
00
00
80
80
80
ENDCHAR
STARTCHAR section
ENCODING 167
SWIDTH 500 0
DWIDTH 5 0
BBX 4 7 0 -1
BITMAP
30
20
20
60
60
A0
E0
ENDCHAR
STARTCHAR dieresis
ENCODING 168
SWIDTH 375 0
DWIDTH 4 0
BBX 3 1 0 5
BITMAP
A0
ENDCHAR
STARTCHAR copyright
ENCODING 169
SWIDTH 750 0
DWIDTH 7 0
BBX 6 6 0 0
BITMAP
78
FC
C4
C4
FC
78
ENDCHAR
STARTCHAR ordfeminine
ENCODING 170
SWIDTH 375 0
DWIDTH 4 0
BBX 3 3 0 3
BITMAP
60
E0
E0
ENDCHAR
STARTCHAR guillemotleft
ENCODING 171
SWIDTH 500 0
DWIDTH 5 0
BBX 4 3 0 1
BITMAP
50
A0
50
ENDCHAR
STARTCHAR logicalnot
ENCODING 172
SWIDTH 625 0
DWIDTH 6 0
BBX 5 3 0 0
BITMAP
F8
08
08
ENDCHAR
STARTCHAR hyphen
ENCODING 173
SWIDTH 375 0
DWIDTH 4 0
BBX 3 1 0 2
BITMAP
E0
ENDCHAR
STARTCHAR registered
ENCODING 174
SWIDTH 750 0
DWIDTH 7 0
BBX 6 6 0 0
BITMAP
78
FC
AC
BC
EC
78
ENDCHAR
STARTCHAR macron
ENCODING 175
SWIDTH 500 0
DWIDTH 5 0
BBX 4 1 0 5
BITMAP
F0
ENDCHAR
STARTCHAR degree
ENCODING 176
SWIDTH 375 0
DWIDTH 4 0
BBX 3 3 0 3
BITMAP
E0
A0
E0
ENDCHAR
STARTCHAR plusminus
ENCODING 177
SWIDTH 500 0
DWIDTH 6 0
BBX 5 5 0 0
BITMAP
20
F8
20
00
F8
ENDCHAR
STARTCHAR uni00B2
ENCODING 178
SWIDTH 375 0
DWIDTH 4 0
BBX 3 3 0 3
BITMAP
E0
40
E0
ENDCHAR
STARTCHAR uni00B3
ENCODING 179
SWIDTH 375 0
DWIDTH 4 0
BBX 3 3 0 3
BITMAP
E0
40
E0
ENDCHAR
STARTCHAR acute
ENCODING 180
SWIDTH 375 0
DWIDTH 3 0
BBX 2 1 0 5
BITMAP
80
ENDCHAR
STARTCHAR u00B5
ENCODING 181
SWIDTH 625 0
DWIDTH 6 0
BBX 5 6 0 -2
BITMAP
48
90
90
F8
80
80
ENDCHAR
STARTCHAR paragraph
ENCODING 182
SWIDTH 500 0
DWIDTH 6 0
BBX 5 7 0 -1
BITMAP
F8
F0
F0
30
30
30
30
ENDCHAR
STARTCHAR periodcentered
ENCODING 183
SWIDTH 250 0
DWIDTH 3 0
BBX 2 1 0 2
BITMAP
80
ENDCHAR
STARTCHAR cedilla
ENCODING 184
SWIDTH 375 0
DWIDTH 3 0
BBX 2 2 0 -2
BITMAP
C0
C0
ENDCHAR
STARTCHAR uni00B9
ENCODING 185
SWIDTH 375 0
DWIDTH 3 0
BBX 2 3 0 3
BITMAP
40
40
C0
ENDCHAR
STARTCHAR ordmasculine
ENCODING 186
SWIDTH 375 0
DWIDTH 5 0
BBX 4 3 0 3
BITMAP
70
90
E0
ENDCHAR
STARTCHAR guillemotright
ENCODING 187
SWIDTH 500 0
DWIDTH 5 0
BBX 4 3 0 1
BITMAP
A0
50
A0
ENDCHAR
STARTCHAR onequarter
ENCODING 188
SWIDTH 875 0
DWIDTH 7 0
BBX 6 6 0 0
BITMAP
44
48
D0
1C
34
5C
ENDCHAR
STARTCHAR onehalf
ENCODING 189
SWIDTH 875 0
DWIDTH 7 0
BBX 6 6 0 0
BITMAP
44
48
D0
1C
28
5C
ENDCHAR
STARTCHAR threequarters
ENCODING 190
SWIDTH 875 0
DWIDTH 7 0
BBX 6 6 0 0
BITMAP
E4
48
F0
1C
34
5C
ENDCHAR
STARTCHAR questiondown
ENCODING 191
SWIDTH 625 0
DWIDTH 5 0
BBX 4 5 0 -1
BITMAP
20
00
40
90
E0
ENDCHAR
STARTCHAR Agrave
ENCODING 192
SWIDTH 750 0
DWIDTH 6 0
BBX 5 9 0 0
BITMAP
10
08
00
10
30
28
48
78
88
ENDCHAR
STARTCHAR Aacute
ENCODING 193
SWIDTH 750 0
DWIDTH 7 0
BBX 6 9 0 0
BITMAP
04
08
00
10
30
28
48
78
88
ENDCHAR
STARTCHAR Acircumflex
ENCODING 194
SWIDTH 750 0
DWIDTH 6 0
BBX 5 9 0 0
BITMAP
10
28
00
10
30
28
48
78
88
ENDCHAR
STARTCHAR Atilde
ENCODING 195
SWIDTH 750 0
DWIDTH 7 0
BBX 6 8 0 0
BITMAP
3C
00
10
30
28
48
78
88
ENDCHAR
STARTCHAR Adieresis
ENCODING 196
SWIDTH 750 0
DWIDTH 6 0
BBX 5 8 0 0
BITMAP
28
00
10
30
28
48
78
88
ENDCHAR
STARTCHAR Aring
ENCODING 197
SWIDTH 750 0
DWIDTH 6 0
BBX 5 7 0 0
BITMAP
18
18
30
28
48
78
88
ENDCHAR
STARTCHAR AE
ENCODING 198
SWIDTH 1000 0
DWIDTH 9 0
BBX 8 6 0 0
BITMAP
1F
28
2E
50
70
9E
ENDCHAR
STARTCHAR Ccedilla
ENCODING 199
SWIDTH 750 0
DWIDTH 7 0
BBX 6 8 0 -2
BITMAP
38
44
80
80
88
70
30
30
ENDCHAR
STARTCHAR Egrave
ENCODING 200
SWIDTH 625 0
DWIDTH 6 0
BBX 5 9 0 0
BITMAP
20
10
00
78
40
70
80
80
F0
ENDCHAR
STARTCHAR Eacute
ENCODING 201
SWIDTH 625 0
DWIDTH 6 0
BBX 5 9 0 0
BITMAP
08
10
00
78
40
70
80
80
F0
ENDCHAR
STARTCHAR Ecircumflex
ENCODING 202
SWIDTH 625 0
DWIDTH 6 0
BBX 5 9 0 0
BITMAP
10
28
00
78
40
70
80
80
F0
ENDCHAR
STARTCHAR Edieresis
ENCODING 203
SWIDTH 625 0
DWIDTH 6 0
BBX 5 8 0 0
BITMAP
28
00
78
40
70
80
80
F0
ENDCHAR
STARTCHAR Igrave
ENCODING 204
SWIDTH 250 0
DWIDTH 4 0
BBX 3 9 0 0
BITMAP
40
20
00
40
40
40
80
80
80
ENDCHAR
STARTCHAR Iacute
ENCODING 205
SWIDTH 250 0
DWIDTH 4 0
BBX 3 9 0 0
BITMAP
20
40
00
40
40
40
80
80
80
ENDCHAR
STARTCHAR Icircumflex
ENCODING 206
SWIDTH 250 0
DWIDTH 4 0
BBX 3 9 0 0
BITMAP
40
A0
00
40
40
40
80
80
80
ENDCHAR
STARTCHAR Idieresis
ENCODING 207
SWIDTH 250 0
DWIDTH 4 0
BBX 3 8 0 0
BITMAP
A0
00
40
40
40
80
80
80
ENDCHAR
STARTCHAR Eth
ENCODING 208
SWIDTH 750 0
DWIDTH 7 0
BBX 6 6 0 0
BITMAP
78
44
44
E4
88
F0
ENDCHAR
STARTCHAR Ntilde
ENCODING 209
SWIDTH 750 0
DWIDTH 7 0
BBX 6 8 0 0
BITMAP
3C
00
44
64
64
98
98
88
ENDCHAR
STARTCHAR Ograve
ENCODING 210
SWIDTH 750 0
DWIDTH 7 0
BBX 6 9 0 0
BITMAP
10
08
00
38
44
84
84
88
70
ENDCHAR
STARTCHAR Oacute
ENCODING 211
SWIDTH 750 0
DWIDTH 7 0
BBX 6 9 0 0
BITMAP
08
10
00
38
44
84
84
88
70
ENDCHAR
STARTCHAR Ocircumflex
ENCODING 212
SWIDTH 750 0
DWIDTH 7 0
BBX 6 9 0 0
BITMAP
10
28
00
38
44
84
84
88
70
ENDCHAR
STARTCHAR Otilde
ENCODING 213
SWIDTH 750 0
DWIDTH 7 0
BBX 6 8 0 0
BITMAP
3C
00
38
44
84
84
88
70
ENDCHAR
STARTCHAR Odieresis
ENCODING 214
SWIDTH 750 0
DWIDTH 7 0
BBX 6 8 0 0
BITMAP
28
00
38
44
84
84
88
70
ENDCHAR
STARTCHAR multiply
ENCODING 215
SWIDTH 625 0
DWIDTH 6 0
BBX 5 5 0 1
BITMAP
00
50
20
50
00
ENDCHAR
STARTCHAR Oslash
ENCODING 216
SWIDTH 750 0
DWIDTH 7 0
BBX 6 6 0 0
BITMAP
7C
4C
94
A4
C8
F8
ENDCHAR
STARTCHAR Ugrave
ENCODING 217
SWIDTH 750 0
DWIDTH 7 0
BBX 6 9 0 0
BITMAP
10
08
00
44
44
44
88
88
70
ENDCHAR
STARTCHAR Uacute
ENCODING 218
SWIDTH 750 0
DWIDTH 7 0
BBX 6 9 0 0
BITMAP
08
10
00
44
44
44
88
88
70
ENDCHAR
STARTCHAR Ucircumflex
ENCODING 219
SWIDTH 750 0
DWIDTH 7 0
BBX 6 9 0 0
BITMAP
10
28
00
44
44
44
88
88
70
ENDCHAR
STARTCHAR Udieresis
ENCODING 220
SWIDTH 750 0
DWIDTH 7 0
BBX 6 8 0 0
BITMAP
28
00
44
44
44
88
88
70
ENDCHAR
STARTCHAR Yacute
ENCODING 221
SWIDTH 625 0
DWIDTH 6 0
BBX 5 9 0 0
BITMAP
10
20
00
88
50
60
40
40
40
ENDCHAR
STARTCHAR Thorn
ENCODING 222
SWIDTH 625 0
DWIDTH 6 0
BBX 5 6 0 0
BITMAP
40
70
48
88
F0
80
ENDCHAR
STARTCHAR germandbls
ENCODING 223
SWIDTH 625 0
DWIDTH 6 0
BBX 5 6 0 0
BITMAP
78
48
50
90
88
B8
ENDCHAR
STARTCHAR agrave
ENCODING 224
SWIDTH 500 0
DWIDTH 5 0
BBX 4 6 0 0
BITMAP
20
00
60
60
E0
F0
ENDCHAR
STARTCHAR aacute
ENCODING 225
SWIDTH 500 0
DWIDTH 5 0
BBX 4 6 0 0
BITMAP
20
00
60
60
E0
F0
ENDCHAR
STARTCHAR acircumflex
ENCODING 226
SWIDTH 500 0
DWIDTH 5 0
BBX 4 6 0 0
BITMAP
30
00
60
60
E0
F0
ENDCHAR
STARTCHAR atilde
ENCODING 227
SWIDTH 500 0
DWIDTH 6 0
BBX 5 6 0 0
BITMAP
78
00
60
60
E0
F0
ENDCHAR
STARTCHAR adieresis
ENCODING 228
SWIDTH 500 0
DWIDTH 5 0
BBX 4 6 0 0
BITMAP
50
00
60
60
E0
F0
ENDCHAR
STARTCHAR aring
ENCODING 229
SWIDTH 500 0
DWIDTH 5 0
BBX 4 7 0 0
BITMAP
30
30
00
60
60
E0
F0
ENDCHAR
STARTCHAR ae
ENCODING 230
SWIDTH 875 0
DWIDTH 8 0
BBX 7 4 0 0
BITMAP
7E
FE
90
FC
ENDCHAR
STARTCHAR ccedilla
ENCODING 231
SWIDTH 500 0
DWIDTH 5 0
BBX 4 6 0 -2
BITMAP
70
90
A0
E0
C0
C0
ENDCHAR
STARTCHAR egrave
ENCODING 232
SWIDTH 500 0
DWIDTH 5 0
BBX 4 6 0 0
BITMAP
10
00
70
F0
80
E0
ENDCHAR
STARTCHAR eacute
ENCODING 233
SWIDTH 500 0
DWIDTH 5 0
BBX 4 6 0 0
BITMAP
20
00
70
F0
80
E0
ENDCHAR
STARTCHAR ecircumflex
ENCODING 234
SWIDTH 500 0
DWIDTH 5 0
BBX 4 6 0 0
BITMAP
30
00
70
F0
80
E0
ENDCHAR
STARTCHAR edieresis
ENCODING 235
SWIDTH 500 0
DWIDTH 5 0
BBX 4 6 0 0
BITMAP
50
00
70
F0
80
E0
ENDCHAR
STARTCHAR igrave
ENCODING 236
SWIDTH 250 0
DWIDTH 3 0
BBX 2 6 0 0
BITMAP
40
00
40
80
80
80
ENDCHAR
STARTCHAR iacute
ENCODING 237
SWIDTH 250 0
DWIDTH 4 0
BBX 3 6 0 0
BITMAP
40
00
40
80
80
80
ENDCHAR
STARTCHAR icircumflex
ENCODING 238
SWIDTH 250 0
DWIDTH 4 0
BBX 3 6 0 0
BITMAP
60
00
40
80
80
80
ENDCHAR
STARTCHAR idieresis
ENCODING 239
SWIDTH 250 0
DWIDTH 4 0
BBX 3 6 0 0
BITMAP
A0
00
40
80
80
80
ENDCHAR
STARTCHAR eth
ENCODING 240
SWIDTH 625 0
DWIDTH 5 0
BBX 4 6 0 0
BITMAP
30
30
70
90
90
E0
ENDCHAR
STARTCHAR ntilde
ENCODING 241
SWIDTH 625 0
DWIDTH 6 0
BBX 5 6 0 0
BITMAP
78
00
70
D0
90
90
ENDCHAR
STARTCHAR ograve
ENCODING 242
SWIDTH 625 0
DWIDTH 6 0
BBX 5 6 0 0
BITMAP
10
00
78
88
88
F0
ENDCHAR
STARTCHAR oacute
ENCODING 243
SWIDTH 625 0
DWIDTH 6 0
BBX 5 6 0 0
BITMAP
10
00
78
88
88
F0
ENDCHAR
STARTCHAR ocircumflex
ENCODING 244
SWIDTH 625 0
DWIDTH 6 0
BBX 5 6 0 0
BITMAP
18
00
78
88
88
F0
ENDCHAR
STARTCHAR otilde
ENCODING 245
SWIDTH 625 0
DWIDTH 6 0
BBX 5 6 0 0
BITMAP
78
00
78
88
88
F0
ENDCHAR
STARTCHAR odieresis
ENCODING 246
SWIDTH 625 0
DWIDTH 6 0
BBX 5 6 0 0
BITMAP
28
00
78
88
88
F0
ENDCHAR
STARTCHAR divide
ENCODING 247
SWIDTH 500 0
DWIDTH 4 0
BBX 3 5 0 0
BITMAP
40
00
E0
00
40
ENDCHAR
STARTCHAR oslash
ENCODING 248
SWIDTH 625 0
DWIDTH 6 0
BBX 5 4 0 0
BITMAP
78
98
E8
F0
ENDCHAR
STARTCHAR ugrave
ENCODING 249
SWIDTH 625 0
DWIDTH 6 0
BBX 5 6 0 0
BITMAP
10
00
48
90
90
F0
ENDCHAR
STARTCHAR uacute
ENCODING 250
SWIDTH 625 0
DWIDTH 6 0
BBX 5 6 0 0
BITMAP
10
00
48
90
90
F0
ENDCHAR
STARTCHAR ucircumflex
ENCODING 251
SWIDTH 625 0
DWIDTH 6 0
BBX 5 6 0 0
BITMAP
18
00
48
90
90
F0
ENDCHAR
STARTCHAR udieresis
ENCODING 252
SWIDTH 625 0
DWIDTH 6 0
BBX 5 6 0 0
BITMAP
28
00
48
90
90
F0
ENDCHAR
STARTCHAR yacute
ENCODING 253
SWIDTH 500 0
DWIDTH 6 0
BBX 5 8 0 -2
BITMAP
10
00
48
50
50
20
60
C0
ENDCHAR
STARTCHAR thorn
ENCODING 254
SWIDTH 625 0
DWIDTH 6 0
BBX 5 8 0 -2
BITMAP
40
40
78
C8
88
F0
80
80
ENDCHAR
STARTCHAR ydieresis
ENCODING 255
SWIDTH 500 0
DWIDTH 6 0
BBX 5 8 0 -2
BITMAP
28
00
48
50
50
20
60
C0
ENDCHAR
STARTCHAR Amacron
ENCODING 256
SWIDTH 750 0
DWIDTH 6 0
BBX 5 8 0 0
BITMAP
18
00
10
30
28
48
78
88
ENDCHAR
STARTCHAR amacron
ENCODING 257
SWIDTH 500 0
DWIDTH 5 0
BBX 4 6 0 0
BITMAP
30
00
60
60
E0
F0
ENDCHAR
STARTCHAR Abreve
ENCODING 258
SWIDTH 750 0
DWIDTH 7 0
BBX 6 9 0 0
BITMAP
14
18
00
10
30
28
48
78
88
ENDCHAR
STARTCHAR abreve
ENCODING 259
SWIDTH 500 0
DWIDTH 5 0
BBX 4 7 0 0
BITMAP
50
60
00
60
60
E0
F0
ENDCHAR
STARTCHAR Aogonek
ENCODING 260
SWIDTH 750 0
DWIDTH 7 0
BBX 6 8 0 -2
BITMAP
10
30
28
48
78
88
08
08
ENDCHAR
STARTCHAR aogonek
ENCODING 261
SWIDTH 500 0
DWIDTH 6 0
BBX 5 6 0 -2
BITMAP
60
60
E0
F0
10
10
ENDCHAR
STARTCHAR Cacute
ENCODING 262
SWIDTH 750 0
DWIDTH 7 0
BBX 6 9 0 0
BITMAP
08
10
00
38
44
80
80
88
70
ENDCHAR
STARTCHAR cacute
ENCODING 263
SWIDTH 500 0
DWIDTH 5 0
BBX 4 6 0 0
BITMAP
20
00
70
90
A0
E0
ENDCHAR
STARTCHAR Ccircumflex
ENCODING 264
SWIDTH 750 0
DWIDTH 7 0
BBX 6 9 0 0
BITMAP
10
28
00
38
44
80
80
88
70
ENDCHAR
STARTCHAR ccircumflex
ENCODING 265
SWIDTH 500 0
DWIDTH 5 0
BBX 4 6 0 0
BITMAP
30
00
70
90
A0
E0
ENDCHAR
STARTCHAR Cdotaccent
ENCODING 266
SWIDTH 750 0
DWIDTH 7 0
BBX 6 8 0 0
BITMAP
10
00
38
44
80
80
88
70
ENDCHAR
STARTCHAR cdotaccent
ENCODING 267
SWIDTH 500 0
DWIDTH 5 0
BBX 4 6 0 0
BITMAP
20
00
70
90
A0
E0
ENDCHAR
STARTCHAR Ccaron
ENCODING 268
SWIDTH 750 0
DWIDTH 7 0
BBX 6 9 0 0
BITMAP
28
10
00
38
44
80
80
88
70
ENDCHAR
STARTCHAR ccaron
ENCODING 269
SWIDTH 500 0
DWIDTH 5 0
BBX 4 6 0 0
BITMAP
60
00
70
90
A0
E0
ENDCHAR
STARTCHAR Dcaron
ENCODING 270
SWIDTH 750 0
DWIDTH 7 0
BBX 6 9 0 0
BITMAP
28
10
00
78
44
44
84
88
F0
ENDCHAR
STARTCHAR dcaron
ENCODING 271
SWIDTH 750 0
DWIDTH 8 0
BBX 7 6 0 0
BITMAP
0A
0A
68
90
90
F0
ENDCHAR
STARTCHAR Dcroat
ENCODING 272
SWIDTH 750 0
DWIDTH 7 0
BBX 6 6 0 0
BITMAP
78
44
44
E4
88
F0
ENDCHAR
STARTCHAR dcroat
ENCODING 273
SWIDTH 625 0
DWIDTH 6 0
BBX 5 6 0 0
BITMAP
08
18
68
90
90
F0
ENDCHAR
STARTCHAR Emacron
ENCODING 274
SWIDTH 625 0
DWIDTH 6 0
BBX 5 8 0 0
BITMAP
30
00
78
40
70
80
80
F0
ENDCHAR
STARTCHAR emacron
ENCODING 275
SWIDTH 500 0
DWIDTH 5 0
BBX 4 6 0 0
BITMAP
30
00
70
F0
80
E0
ENDCHAR
STARTCHAR Ebreve
ENCODING 276
SWIDTH 625 0
DWIDTH 6 0
BBX 5 9 0 0
BITMAP
28
30
00
78
40
70
80
80
F0
ENDCHAR
STARTCHAR ebreve
ENCODING 277
SWIDTH 500 0
DWIDTH 5 0
BBX 4 7 0 0
BITMAP
50
60
00
70
F0
80
E0
ENDCHAR
STARTCHAR Edotaccent
ENCODING 278
SWIDTH 625 0
DWIDTH 6 0
BBX 5 8 0 0
BITMAP
10
00
78
40
70
80
80
F0
ENDCHAR
STARTCHAR edotaccent
ENCODING 279
SWIDTH 500 0
DWIDTH 5 0
BBX 4 6 0 0
BITMAP
20
00
70
F0
80
E0
ENDCHAR
STARTCHAR Eogonek
ENCODING 280
SWIDTH 625 0
DWIDTH 6 0
BBX 5 8 0 -2
BITMAP
78
40
70
80
80
F0
10
10
ENDCHAR
STARTCHAR eogonek
ENCODING 281
SWIDTH 500 0
DWIDTH 5 0
BBX 4 6 0 -2
BITMAP
70
F0
80
E0
40
40
ENDCHAR
STARTCHAR Ecaron
ENCODING 282
SWIDTH 625 0
DWIDTH 6 0
BBX 5 9 0 0
BITMAP
28
10
00
78
40
70
80
80
F0
ENDCHAR
STARTCHAR ecaron
ENCODING 283
SWIDTH 500 0
DWIDTH 5 0
BBX 4 6 0 0
BITMAP
60
00
70
F0
80
E0
ENDCHAR
STARTCHAR Gcircumflex
ENCODING 284
SWIDTH 750 0
DWIDTH 7 0
BBX 6 9 0 0
BITMAP
10
28
00
38
44
80
98
88
78
ENDCHAR
STARTCHAR gcircumflex
ENCODING 285
SWIDTH 625 0
DWIDTH 6 0
BBX 5 8 0 -2
BITMAP
18
00
68
90
90
F0
10
E0
ENDCHAR
STARTCHAR Gbreve
ENCODING 286
SWIDTH 750 0
DWIDTH 7 0
BBX 6 9 0 0
BITMAP
14
18
00
38
44
80
98
88
78
ENDCHAR
STARTCHAR gbreve
ENCODING 287
SWIDTH 625 0
DWIDTH 6 0
BBX 5 9 0 -2
BITMAP
28
30
00
68
90
90
F0
10
E0
ENDCHAR
STARTCHAR Gdotaccent
ENCODING 288
SWIDTH 750 0
DWIDTH 7 0
BBX 6 8 0 0
BITMAP
10
00
38
44
80
98
88
78
ENDCHAR
STARTCHAR gdotaccent
ENCODING 289
SWIDTH 625 0
DWIDTH 6 0
BBX 5 8 0 -2
BITMAP
10
00
68
90
90
F0
10
E0
ENDCHAR
STARTCHAR Gcommaaccent
ENCODING 290
SWIDTH 750 0
DWIDTH 7 0
BBX 6 9 0 -3
BITMAP
38
44
80
98
88
78
00
10
10
ENDCHAR
STARTCHAR gcommaaccent
ENCODING 291
SWIDTH 625 0
DWIDTH 6 0
BBX 5 9 0 -2
BITMAP
10
10
00
68
90
90
F0
10
E0
ENDCHAR
STARTCHAR Hcircumflex
ENCODING 292
SWIDTH 750 0
DWIDTH 7 0
BBX 6 9 0 0
BITMAP
10
28
00
44
44
7C
88
88
88
ENDCHAR
STARTCHAR hcircumflex
ENCODING 293
SWIDTH 625 0
DWIDTH 6 0
BBX 5 9 0 0
BITMAP
10
28
00
40
40
70
D0
90
90
ENDCHAR
STARTCHAR Hbar
ENCODING 294
SWIDTH 750 0
DWIDTH 7 0
BBX 6 6 0 0
BITMAP
44
FC
7C
88
88
88
ENDCHAR
STARTCHAR hbar
ENCODING 295
SWIDTH 625 0
DWIDTH 5 0
BBX 4 6 0 0
BITMAP
40
E0
70
D0
90
90
ENDCHAR
STARTCHAR Itilde
ENCODING 296
SWIDTH 250 0
DWIDTH 5 0
BBX 4 8 0 0
BITMAP
F0
00
40
40
40
80
80
80
ENDCHAR
STARTCHAR itilde
ENCODING 297
SWIDTH 250 0
DWIDTH 5 0
BBX 4 6 0 0
BITMAP
F0
00
40
80
80
80
ENDCHAR
STARTCHAR Imacron
ENCODING 298
SWIDTH 250 0
DWIDTH 4 0
BBX 3 8 0 0
BITMAP
60
00
40
40
40
80
80
80
ENDCHAR
STARTCHAR imacron
ENCODING 299
SWIDTH 250 0
DWIDTH 4 0
BBX 3 6 0 0
BITMAP
60
00
40
80
80
80
ENDCHAR
STARTCHAR Ibreve
ENCODING 300
SWIDTH 250 0
DWIDTH 4 0
BBX 3 9 0 0
BITMAP
A0
C0
00
40
40
40
80
80
80
ENDCHAR
STARTCHAR ibreve
ENCODING 301
SWIDTH 250 0
DWIDTH 4 0
BBX 3 7 0 0
BITMAP
A0
C0
00
40
80
80
80
ENDCHAR
STARTCHAR Iogonek
ENCODING 302
SWIDTH 250 0
DWIDTH 3 0
BBX 2 8 0 -2
BITMAP
40
40
40
80
80
80
80
80
ENDCHAR
STARTCHAR iogonek
ENCODING 303
SWIDTH 250 0
DWIDTH 3 0
BBX 2 8 0 -2
BITMAP
40
00
40
80
80
80
80
80
ENDCHAR
STARTCHAR Idotaccent
ENCODING 304
SWIDTH 250 0
DWIDTH 3 0
BBX 2 8 0 0
BITMAP
40
00
40
40
40
80
80
80
ENDCHAR
STARTCHAR dotlessi
ENCODING 305
SWIDTH 250 0
DWIDTH 3 0
BBX 2 4 0 0
BITMAP
40
80
80
80
ENDCHAR
STARTCHAR IJ
ENCODING 306
SWIDTH 750 0
DWIDTH 7 0
BBX 6 6 0 0
BITMAP
4C
44
44
88
A8
B8
ENDCHAR
STARTCHAR ij
ENCODING 307
SWIDTH 500 0
DWIDTH 5 0
BBX 4 8 0 -2
BITMAP
50
00
50
A0
A0
A0
20
60
ENDCHAR
STARTCHAR Jcircumflex
ENCODING 308
SWIDTH 500 0
DWIDTH 6 0
BBX 5 9 0 0
BITMAP
10
28
00
30
10
10
20
A0
E0
ENDCHAR
STARTCHAR jcircumflex
ENCODING 309
SWIDTH 250 0
DWIDTH 5 0
BBX 4 8 0 -2
BITMAP
30
00
20
40
40
40
40
C0
ENDCHAR
STARTCHAR Kcommaaccent
ENCODING 310
SWIDTH 750 0
DWIDTH 7 0
BBX 6 9 0 -3
BITMAP
48
50
60
D0
90
88
00
20
20
ENDCHAR
STARTCHAR kcommaaccent
ENCODING 311
SWIDTH 500 0
DWIDTH 5 0
BBX 4 9 0 -3
BITMAP
40
40
70
C0
A0
A0
00
40
40
ENDCHAR
STARTCHAR kgreenlandic
ENCODING 312
SWIDTH 500 0
DWIDTH 5 0
BBX 4 4 0 0
BITMAP
70
C0
A0
A0
ENDCHAR
STARTCHAR Lacute
ENCODING 313
SWIDTH 625 0
DWIDTH 6 0
BBX 5 9 0 0
BITMAP
10
20
00
40
40
40
80
80
F8
ENDCHAR
STARTCHAR lacute
ENCODING 314
SWIDTH 250 0
DWIDTH 4 0
BBX 3 9 0 0
BITMAP
20
40
00
40
40
40
80
80
80
ENDCHAR
STARTCHAR Lcommaaccent
ENCODING 315
SWIDTH 625 0
DWIDTH 6 0
BBX 5 9 0 -3
BITMAP
40
40
40
80
80
F8
00
20
20
ENDCHAR
STARTCHAR lcommaaccent
ENCODING 316
SWIDTH 250 0
DWIDTH 3 0
BBX 2 9 0 -3
BITMAP
40
40
40
80
80
80
00
80
80
ENDCHAR
STARTCHAR Lcaron
ENCODING 317
SWIDTH 625 0
DWIDTH 6 0
BBX 5 6 0 0
BITMAP
48
48
40
80
80
F8
ENDCHAR
STARTCHAR lcaron
ENCODING 318
SWIDTH 375 0
DWIDTH 5 0
BBX 4 6 0 0
BITMAP
50
50
40
80
80
80
ENDCHAR
STARTCHAR Ldot
ENCODING 319
SWIDTH 625 0
DWIDTH 6 0
BBX 5 6 0 0
BITMAP
40
40
50
80
80
F8
ENDCHAR
STARTCHAR ldot
ENCODING 320
SWIDTH 500 0
DWIDTH 5 0
BBX 4 6 0 0
BITMAP
40
40
50
80
80
80
ENDCHAR
STARTCHAR Lslash
ENCODING 321
SWIDTH 625 0
DWIDTH 6 0
BBX 5 6 0 0
BITMAP
40
40
60
80
80
F8
ENDCHAR
STARTCHAR lslash
ENCODING 322
SWIDTH 250 0
DWIDTH 3 0
BBX 2 6 0 0
BITMAP
40
40
40
80
80
80
ENDCHAR
STARTCHAR Nacute
ENCODING 323
SWIDTH 750 0
DWIDTH 7 0
BBX 6 9 0 0
BITMAP
08
10
00
44
64
64
98
98
88
ENDCHAR
STARTCHAR nacute
ENCODING 324
SWIDTH 625 0
DWIDTH 6 0
BBX 5 6 0 0
BITMAP
10
00
70
D0
90
90
ENDCHAR
STARTCHAR Ncommaaccent
ENCODING 325
SWIDTH 750 0
DWIDTH 7 0
BBX 6 9 0 -3
BITMAP
44
64
64
98
98
88
00
20
20
ENDCHAR
STARTCHAR ncommaaccent
ENCODING 326
SWIDTH 625 0
DWIDTH 5 0
BBX 4 7 0 -3
BITMAP
70
D0
90
90
00
20
20
ENDCHAR
STARTCHAR Ncaron
ENCODING 327
SWIDTH 750 0
DWIDTH 7 0
BBX 6 9 0 0
BITMAP
14
08
00
44
64
64
98
98
88
ENDCHAR
STARTCHAR ncaron
ENCODING 328
SWIDTH 625 0
DWIDTH 6 0
BBX 5 6 0 0
BITMAP
30
00
70
D0
90
90
ENDCHAR
STARTCHAR napostrophe
ENCODING 329
SWIDTH 750 0
DWIDTH 5 0
BBX 4 6 0 0
BITMAP
80
80
70
D0
90
90
ENDCHAR
STARTCHAR Eng
ENCODING 330
SWIDTH 750 0
DWIDTH 7 0
BBX 6 6 0 0
BITMAP
58
6C
44
48
C8
B8
ENDCHAR
STARTCHAR eng
ENCODING 331
SWIDTH 625 0
DWIDTH 5 0
BBX 4 6 0 -2
BITMAP
70
D0
90
90
10
30
ENDCHAR
STARTCHAR Omacron
ENCODING 332
SWIDTH 750 0
DWIDTH 7 0
BBX 6 8 0 0
BITMAP
18
00
38
44
84
84
88
70
ENDCHAR
STARTCHAR omacron
ENCODING 333
SWIDTH 625 0
DWIDTH 6 0
BBX 5 6 0 0
BITMAP
30
00
78
88
88
F0
ENDCHAR
STARTCHAR Obreve
ENCODING 334
SWIDTH 750 0
DWIDTH 7 0
BBX 6 9 0 0
BITMAP
28
30
00
38
44
84
84
88
70
ENDCHAR
STARTCHAR obreve
ENCODING 335
SWIDTH 625 0
DWIDTH 6 0
BBX 5 7 0 0
BITMAP
28
30
00
78
88
88
F0
ENDCHAR
STARTCHAR Ohungarumlaut
ENCODING 336
SWIDTH 750 0
DWIDTH 7 0
BBX 6 9 0 0
BITMAP
14
28
00
38
44
84
84
88
70
ENDCHAR
STARTCHAR ohungarumlaut
ENCODING 337
SWIDTH 625 0
DWIDTH 7 0
BBX 6 6 0 0
BITMAP
38
00
78
88
88
F0
ENDCHAR
STARTCHAR OE
ENCODING 338
SWIDTH 1000 0
DWIDTH 9 0
BBX 8 6 0 0
BITMAP
3F
48
8E
90
90
7E
ENDCHAR
STARTCHAR oe
ENCODING 339
SWIDTH 1000 0
DWIDTH 8 0
BBX 7 4 0 0
BITMAP
7E
9E
98
7E
ENDCHAR
STARTCHAR Racute
ENCODING 340
SWIDTH 750 0
DWIDTH 7 0
BBX 6 9 0 0
BITMAP
08
10
00
78
44
44
F8
90
88
ENDCHAR
STARTCHAR racute
ENCODING 341
SWIDTH 375 0
DWIDTH 5 0
BBX 4 6 0 0
BITMAP
20
00
60
C0
80
80
ENDCHAR
STARTCHAR Rcommaaccent
ENCODING 342
SWIDTH 750 0
DWIDTH 7 0
BBX 6 9 0 -3
BITMAP
78
44
44
F8
90
88
00
20
20
ENDCHAR
STARTCHAR rcommaaccent
ENCODING 343
SWIDTH 375 0
DWIDTH 4 0
BBX 3 7 0 -3
BITMAP
60
C0
80
80
00
80
80
ENDCHAR
STARTCHAR Rcaron
ENCODING 344
SWIDTH 750 0
DWIDTH 7 0
BBX 6 9 0 0
BITMAP
28
10
00
78
44
44
F8
90
88
ENDCHAR
STARTCHAR rcaron
ENCODING 345
SWIDTH 375 0
DWIDTH 5 0
BBX 4 6 0 0
BITMAP
60
00
60
C0
80
80
ENDCHAR
STARTCHAR Sacute
ENCODING 346
SWIDTH 625 0
DWIDTH 6 0
BBX 5 9 0 0
BITMAP
08
10
00
70
48
60
10
90
F0
ENDCHAR
STARTCHAR sacute
ENCODING 347
SWIDTH 500 0
DWIDTH 5 0
BBX 4 6 0 0
BITMAP
20
00
70
40
20
E0
ENDCHAR
STARTCHAR Scircumflex
ENCODING 348
SWIDTH 625 0
DWIDTH 6 0
BBX 5 9 0 0
BITMAP
10
28
00
70
48
60
10
90
F0
ENDCHAR
STARTCHAR scircumflex
ENCODING 349
SWIDTH 500 0
DWIDTH 5 0
BBX 4 6 0 0
BITMAP
30
00
70
40
20
E0
ENDCHAR
STARTCHAR Scedilla
ENCODING 350
SWIDTH 625 0
DWIDTH 6 0
BBX 5 8 0 -2
BITMAP
70
48
60
10
90
F0
60
60
ENDCHAR
STARTCHAR scedilla
ENCODING 351
SWIDTH 500 0
DWIDTH 5 0
BBX 4 6 0 -2
BITMAP
70
40
20
E0
C0
C0
ENDCHAR
STARTCHAR Scaron
ENCODING 352
SWIDTH 625 0
DWIDTH 6 0
BBX 5 9 0 0
BITMAP
28
10
00
70
48
60
10
90
F0
ENDCHAR
STARTCHAR scaron
ENCODING 353
SWIDTH 500 0
DWIDTH 5 0
BBX 4 6 0 0
BITMAP
60
00
70
40
20
E0
ENDCHAR
STARTCHAR Tcommaaccent
ENCODING 354
SWIDTH 625 0
DWIDTH 6 0
BBX 5 7 0 -2
BITMAP
F8
20
20
40
40
70
30
ENDCHAR
STARTCHAR tcommaaccent
ENCODING 355
SWIDTH 375 0
DWIDTH 3 0
BBX 2 7 0 -2
BITMAP
40
C0
80
80
C0
C0
C0
ENDCHAR
STARTCHAR Tcaron
ENCODING 356
SWIDTH 625 0
DWIDTH 6 0
BBX 5 9 0 0
BITMAP
50
20
00
F8
20
20
40
40
40
ENDCHAR
STARTCHAR tcaron
ENCODING 357
SWIDTH 500 0
DWIDTH 5 0
BBX 4 6 0 0
BITMAP
10
50
C0
80
80
C0
ENDCHAR
STARTCHAR Tbar
ENCODING 358
SWIDTH 625 0
DWIDTH 6 0
BBX 5 6 0 0
BITMAP
F8
20
20
60
40
40
ENDCHAR
STARTCHAR tbar
ENCODING 359
SWIDTH 375 0
DWIDTH 3 0
BBX 2 5 0 0
BITMAP
40
C0
C0
80
C0
ENDCHAR
STARTCHAR Utilde
ENCODING 360
SWIDTH 750 0
DWIDTH 7 0
BBX 6 8 0 0
BITMAP
3C
00
44
44
44
88
88
70
ENDCHAR
STARTCHAR utilde
ENCODING 361
SWIDTH 625 0
DWIDTH 6 0
BBX 5 6 0 0
BITMAP
78
00
48
90
90
F0
ENDCHAR
STARTCHAR Umacron
ENCODING 362
SWIDTH 750 0
DWIDTH 7 0
BBX 6 8 0 0
BITMAP
18
00
44
44
44
88
88
70
ENDCHAR
STARTCHAR umacron
ENCODING 363
SWIDTH 625 0
DWIDTH 6 0
BBX 5 6 0 0
BITMAP
30
00
48
90
90
F0
ENDCHAR
STARTCHAR Ubreve
ENCODING 364
SWIDTH 750 0
DWIDTH 7 0
BBX 6 9 0 0
BITMAP
28
30
00
44
44
44
88
88
70
ENDCHAR
STARTCHAR ubreve
ENCODING 365
SWIDTH 625 0
DWIDTH 6 0
BBX 5 7 0 0
BITMAP
28
30
00
48
90
90
F0
ENDCHAR
STARTCHAR Uring
ENCODING 366
SWIDTH 750 0
DWIDTH 7 0
BBX 6 9 0 0
BITMAP
18
18
00
44
44
44
88
88
70
ENDCHAR
STARTCHAR uring
ENCODING 367
SWIDTH 625 0
DWIDTH 6 0
BBX 5 7 0 0
BITMAP
30
30
00
48
90
90
F0
ENDCHAR
STARTCHAR Uhungarumlaut
ENCODING 368
SWIDTH 750 0
DWIDTH 7 0
BBX 6 9 0 0
BITMAP
14
28
00
44
44
44
88
88
70
ENDCHAR
STARTCHAR uhungarumlaut
ENCODING 369
SWIDTH 625 0
DWIDTH 7 0
BBX 6 6 0 0
BITMAP
38
00
48
90
90
F0
ENDCHAR
STARTCHAR Uogonek
ENCODING 370
SWIDTH 750 0
DWIDTH 7 0
BBX 6 8 0 -2
BITMAP
44
44
44
88
88
70
20
20
ENDCHAR
STARTCHAR uogonek
ENCODING 371
SWIDTH 625 0
DWIDTH 6 0
BBX 5 6 0 -2
BITMAP
48
90
90
F0
10
10
ENDCHAR
STARTCHAR Wcircumflex
ENCODING 372
SWIDTH 1000 0
DWIDTH 9 0
BBX 8 9 0 0
BITMAP
08
14
00
89
9A
AA
AC
CC
88
ENDCHAR
STARTCHAR wcircumflex
ENCODING 373
SWIDTH 750 0
DWIDTH 7 0
BBX 6 6 0 0
BITMAP
18
00
B4
B8
D8
D8
ENDCHAR
STARTCHAR Ycircumflex
ENCODING 374
SWIDTH 625 0
DWIDTH 6 0
BBX 5 9 0 0
BITMAP
20
50
00
88
50
60
40
40
40
ENDCHAR
STARTCHAR ycircumflex
ENCODING 375
SWIDTH 500 0
DWIDTH 6 0
BBX 5 8 0 -2
BITMAP
18
00
48
50
50
20
60
C0
ENDCHAR
STARTCHAR Ydieresis
ENCODING 376
SWIDTH 625 0
DWIDTH 6 0
BBX 5 8 0 0
BITMAP
50
00
88
50
60
40
40
40
ENDCHAR
STARTCHAR Zacute
ENCODING 377
SWIDTH 625 0
DWIDTH 6 0
BBX 5 9 0 0
BITMAP
08
10
00
78
10
20
20
40
F0
ENDCHAR
STARTCHAR zacute
ENCODING 378
SWIDTH 500 0
DWIDTH 5 0
BBX 4 6 0 0
BITMAP
20
00
70
20
40
F0
ENDCHAR
STARTCHAR Zdotaccent
ENCODING 379
SWIDTH 625 0
DWIDTH 6 0
BBX 5 8 0 0
BITMAP
10
00
78
10
20
20
40
F0
ENDCHAR
STARTCHAR zdotaccent
ENCODING 380
SWIDTH 500 0
DWIDTH 5 0
BBX 4 6 0 0
BITMAP
20
00
70
20
40
F0
ENDCHAR
STARTCHAR Zcaron
ENCODING 381
SWIDTH 625 0
DWIDTH 6 0
BBX 5 9 0 0
BITMAP
28
10
00
78
10
20
20
40
F0
ENDCHAR
STARTCHAR zcaron
ENCODING 382
SWIDTH 500 0
DWIDTH 5 0
BBX 4 6 0 0
BITMAP
60
00
70
20
40
F0
ENDCHAR
STARTCHAR longs
ENCODING 383
SWIDTH 250 0
DWIDTH 4 0
BBX 3 6 0 0
BITMAP
60
40
40
80
80
80
ENDCHAR
STARTCHAR florin
ENCODING 402
SWIDTH 500 0
DWIDTH 4 0
BBX 3 8 0 -2
BITMAP
60
40
C0
80
80
80
80
80
ENDCHAR
STARTCHAR Aringacute
ENCODING 506
SWIDTH 750 0
DWIDTH 7 0
BBX 6 9 0 0
BITMAP
04
08
18
18
30
28
48
78
88
ENDCHAR
STARTCHAR aringacute
ENCODING 507
SWIDTH 500 0
DWIDTH 6 0
BBX 5 9 0 0
BITMAP
08
10
30
30
00
60
60
E0
F0
ENDCHAR
STARTCHAR AEacute
ENCODING 508
SWIDTH 1000 0
DWIDTH 9 0
BBX 8 9 0 0
BITMAP
02
04
00
1F
28
2E
50
70
9E
ENDCHAR
STARTCHAR aeacute
ENCODING 509
SWIDTH 875 0
DWIDTH 8 0
BBX 7 6 0 0
BITMAP
08
00
7E
FE
90
FC
ENDCHAR
STARTCHAR Oslashacute
ENCODING 510
SWIDTH 750 0
DWIDTH 7 0
BBX 6 9 0 0
BITMAP
08
10
00
7C
4C
94
A4
C8
F8
ENDCHAR
STARTCHAR oslashacute
ENCODING 511
SWIDTH 625 0
DWIDTH 6 0
BBX 5 6 0 0
BITMAP
10
00
78
98
E8
F0
ENDCHAR
STARTCHAR Scommaaccent
ENCODING 536
SWIDTH 625 0
DWIDTH 6 0
BBX 5 9 0 -3
BITMAP
70
48
60
10
90
F0
00
40
40
ENDCHAR
STARTCHAR scommaaccent
ENCODING 537
SWIDTH 500 0
DWIDTH 5 0
BBX 4 7 0 -3
BITMAP
70
40
20
E0
00
40
40
ENDCHAR
STARTCHAR uni021A
ENCODING 538
SWIDTH 625 0
DWIDTH 6 0
BBX 5 9 0 -3
BITMAP
F8
20
20
40
40
40
00
40
40
ENDCHAR
STARTCHAR uni021B
ENCODING 539
SWIDTH 375 0
DWIDTH 4 0
BBX 3 8 0 -3
BITMAP
20
60
40
40
60
00
80
80
ENDCHAR
STARTCHAR circumflex
ENCODING 710
SWIDTH 375 0
DWIDTH 4 0
BBX 3 1 0 5
BITMAP
60
ENDCHAR
STARTCHAR caron
ENCODING 711
SWIDTH 375 0
DWIDTH 4 0
BBX 3 1 0 5
BITMAP
C0
ENDCHAR
STARTCHAR uni02C9
ENCODING 713
SWIDTH 375 0
DWIDTH 3 0
BBX 2 1 0 5
BITMAP
C0
ENDCHAR
STARTCHAR breve
ENCODING 728
SWIDTH 375 0
DWIDTH 4 0
BBX 3 2 0 5
BITMAP
A0
C0
ENDCHAR
STARTCHAR dotaccent
ENCODING 729
SWIDTH 375 0
DWIDTH 2 0
BBX 1 1 0 5
BITMAP
80
ENDCHAR
STARTCHAR ring
ENCODING 730
SWIDTH 375 0
DWIDTH 3 0
BBX 2 2 0 4
BITMAP
C0
C0
ENDCHAR
STARTCHAR ogonek
ENCODING 731
SWIDTH 375 0
DWIDTH 3 0
BBX 2 2 0 -2
BITMAP
80
80
ENDCHAR
STARTCHAR tilde
ENCODING 732
SWIDTH 375 0
DWIDTH 5 0
BBX 4 1 0 5
BITMAP
F0
ENDCHAR
STARTCHAR hungarumlaut
ENCODING 733
SWIDTH 375 0
DWIDTH 5 0
BBX 4 1 0 5
BITMAP
E0
ENDCHAR
STARTCHAR semicolon
ENCODING 894
SWIDTH 375 0
DWIDTH 3 0
BBX 2 5 0 -1
BITMAP
40
00
00
80
80
ENDCHAR
STARTCHAR tonos
ENCODING 900
SWIDTH 375 0
DWIDTH 3 0
BBX 2 2 0 4
BITMAP
C0
80
ENDCHAR
STARTCHAR dieresistonos
ENCODING 901
SWIDTH 375 0
DWIDTH 4 0
BBX 3 2 0 5
BITMAP
40
A0
ENDCHAR
STARTCHAR Alphatonos
ENCODING 902
SWIDTH 750 0
DWIDTH 6 0
BBX 5 6 0 0
BITMAP
70
70
28
48
78
88
ENDCHAR
STARTCHAR anoteleia
ENCODING 903
SWIDTH 375 0
DWIDTH 2 0
BBX 1 1 0 2
BITMAP
80
ENDCHAR
STARTCHAR Epsilontonos
ENCODING 904
SWIDTH 875 0
DWIDTH 7 0
BBX 6 6 0 0
BITMAP
FC
A0
38
40
40
78
ENDCHAR
STARTCHAR Etatonos
ENCODING 905
SWIDTH 875 0
DWIDTH 8 0
BBX 7 6 0 0
BITMAP
E2
A2
3E
44
44
44
ENDCHAR
STARTCHAR Iotatonos
ENCODING 906
SWIDTH 500 0
DWIDTH 4 0
BBX 3 6 0 0
BITMAP
E0
A0
20
40
40
40
ENDCHAR
STARTCHAR Omicrontonos
ENCODING 908
SWIDTH 875 0
DWIDTH 7 0
BBX 6 6 0 0
BITMAP
F8
C4
84
84
88
70
ENDCHAR
STARTCHAR Upsilontonos
ENCODING 910
SWIDTH 875 0
DWIDTH 8 0
BBX 7 6 0 0
BITMAP
E2
94
18
10
10
10
ENDCHAR
STARTCHAR Omegatonos
ENCODING 911
SWIDTH 875 0
DWIDTH 7 0
BBX 6 6 0 0
BITMAP
F8
C4
44
44
28
FC
ENDCHAR
STARTCHAR iotadieresistonos
ENCODING 912
SWIDTH 250 0
DWIDTH 4 0
BBX 3 7 0 0
BITMAP
40
A0
00
40
80
80
80
ENDCHAR
STARTCHAR Alpha
ENCODING 913
SWIDTH 750 0
DWIDTH 6 0
BBX 5 6 0 0
BITMAP
10
30
28
48
78
88
ENDCHAR
STARTCHAR Beta
ENCODING 914
SWIDTH 750 0
DWIDTH 7 0
BBX 6 6 0 0
BITMAP
7C
44
78
84
84
F8
ENDCHAR
STARTCHAR Gamma
ENCODING 915
SWIDTH 625 0
DWIDTH 6 0
BBX 5 6 0 0
BITMAP
78
40
40
80
80
80
ENDCHAR
STARTCHAR Delta
ENCODING 916
SWIDTH 625 0
DWIDTH 6 0
BBX 5 6 0 0
BITMAP
10
30
28
48
88
F8
ENDCHAR
STARTCHAR Epsilon
ENCODING 917
SWIDTH 625 0
DWIDTH 6 0
BBX 5 6 0 0
BITMAP
78
40
70
80
80
F0
ENDCHAR
STARTCHAR Zeta
ENCODING 918
SWIDTH 625 0
DWIDTH 6 0
BBX 5 6 0 0
BITMAP
78
10
20
20
40
F0
ENDCHAR
STARTCHAR Eta
ENCODING 919
SWIDTH 750 0
DWIDTH 7 0
BBX 6 6 0 0
BITMAP
44
44
7C
88
88
88
ENDCHAR
STARTCHAR Theta
ENCODING 920
SWIDTH 750 0
DWIDTH 7 0
BBX 6 6 0 0
BITMAP
38
44
B4
84
88
70
ENDCHAR
STARTCHAR Iota
ENCODING 921
SWIDTH 250 0
DWIDTH 3 0
BBX 2 6 0 0
BITMAP
40
40
40
80
80
80
ENDCHAR
STARTCHAR Kappa
ENCODING 922
SWIDTH 750 0
DWIDTH 7 0
BBX 6 6 0 0
BITMAP
48
50
60
D0
90
88
ENDCHAR
STARTCHAR Lambda
ENCODING 923
SWIDTH 625 0
DWIDTH 6 0
BBX 5 6 0 0
BITMAP
10
30
28
48
48
88
ENDCHAR
STARTCHAR Mu
ENCODING 924
SWIDTH 750 0
DWIDTH 7 0
BBX 6 6 0 0
BITMAP
6C
6C
74
B8
A8
A8
ENDCHAR
STARTCHAR Nu
ENCODING 925
SWIDTH 750 0
DWIDTH 7 0
BBX 6 6 0 0
BITMAP
44
64
64
98
98
88
ENDCHAR
STARTCHAR Xi
ENCODING 926
SWIDTH 625 0
DWIDTH 6 0
BBX 5 6 0 0
BITMAP
78
00
70
00
00
F0
ENDCHAR
STARTCHAR Omicron
ENCODING 927
SWIDTH 750 0
DWIDTH 7 0
BBX 6 6 0 0
BITMAP
38
44
84
84
88
70
ENDCHAR
STARTCHAR Pi
ENCODING 928
SWIDTH 750 0
DWIDTH 7 0
BBX 6 6 0 0
BITMAP
7C
44
44
88
88
88
ENDCHAR
STARTCHAR Rho
ENCODING 929
SWIDTH 625 0
DWIDTH 6 0
BBX 5 6 0 0
BITMAP
70
48
48
F0
80
80
ENDCHAR
STARTCHAR Sigma
ENCODING 931
SWIDTH 625 0
DWIDTH 6 0
BBX 5 6 0 0
BITMAP
78
40
20
20
40
F0
ENDCHAR
STARTCHAR Tau
ENCODING 932
SWIDTH 625 0
DWIDTH 6 0
BBX 5 6 0 0
BITMAP
F8
20
20
40
40
40
ENDCHAR
STARTCHAR Upsilon
ENCODING 933
SWIDTH 625 0
DWIDTH 6 0
BBX 5 6 0 0
BITMAP
88
50
60
40
40
40
ENDCHAR
STARTCHAR Phi
ENCODING 934
SWIDTH 875 0
DWIDTH 7 0
BBX 6 6 0 0
BITMAP
10
7C
94
A4
F8
20
ENDCHAR
STARTCHAR Chi
ENCODING 935
SWIDTH 625 0
DWIDTH 6 0
BBX 5 6 0 0
BITMAP
48
50
20
20
50
90
ENDCHAR
STARTCHAR Psi
ENCODING 936
SWIDTH 875 0
DWIDTH 7 0
BBX 6 6 0 0
BITMAP
94
94
9C
F8
20
20
ENDCHAR
STARTCHAR Omega
ENCODING 937
SWIDTH 750 0
DWIDTH 7 0
BBX 6 6 0 0
BITMAP
38
44
44
44
28
FC
ENDCHAR
STARTCHAR Iotadieresis
ENCODING 938
SWIDTH 250 0
DWIDTH 4 0
BBX 3 8 0 0
BITMAP
A0
00
40
40
40
80
80
80
ENDCHAR
STARTCHAR Upsilondieresis
ENCODING 939
SWIDTH 625 0
DWIDTH 6 0
BBX 5 8 0 0
BITMAP
50
00
88
50
60
40
40
40
ENDCHAR
STARTCHAR alphatonos
ENCODING 940
SWIDTH 625 0
DWIDTH 6 0
BBX 5 7 0 0
BITMAP
30
20
00
68
90
90
F0
ENDCHAR
STARTCHAR epsilontonos
ENCODING 941
SWIDTH 500 0
DWIDTH 5 0
BBX 4 7 0 0
BITMAP
30
20
00
70
40
80
E0
ENDCHAR
STARTCHAR etatonos
ENCODING 942
SWIDTH 625 0
DWIDTH 6 0
BBX 5 9 0 -2
BITMAP
18
10
00
70
D0
90
90
10
10
ENDCHAR
STARTCHAR iotatonos
ENCODING 943
SWIDTH 250 0
DWIDTH 4 0
BBX 3 7 0 0
BITMAP
60
40
00
40
80
80
80
ENDCHAR
STARTCHAR upsilondieresistonos
ENCODING 944
SWIDTH 625 0
DWIDTH 6 0
BBX 5 7 0 0
BITMAP
10
28
00
48
88
88
70
ENDCHAR
STARTCHAR alpha
ENCODING 945
SWIDTH 625 0
DWIDTH 6 0
BBX 5 4 0 0
BITMAP
68
90
90
F0
ENDCHAR
STARTCHAR beta
ENCODING 946
SWIDTH 625 0
DWIDTH 6 0
BBX 5 8 0 -2
BITMAP
78
48
70
88
88
F0
80
80
ENDCHAR
STARTCHAR gamma
ENCODING 947
SWIDTH 500 0
DWIDTH 5 0
BBX 4 6 0 -2
BITMAP
90
A0
A0
40
40
80
ENDCHAR
STARTCHAR delta
ENCODING 948
SWIDTH 625 0
DWIDTH 5 0
BBX 4 6 0 0
BITMAP
70
20
50
90
90
E0
ENDCHAR
STARTCHAR epsilon
ENCODING 949
SWIDTH 500 0
DWIDTH 5 0
BBX 4 4 0 0
BITMAP
70
40
80
E0
ENDCHAR
STARTCHAR zeta
ENCODING 950
SWIDTH 500 0
DWIDTH 5 0
BBX 4 8 0 -2
BITMAP
70
20
40
80
80
C0
20
20
ENDCHAR
STARTCHAR eta
ENCODING 951
SWIDTH 625 0
DWIDTH 5 0
BBX 4 6 0 -2
BITMAP
70
D0
90
90
10
10
ENDCHAR
STARTCHAR theta
ENCODING 952
SWIDTH 500 0
DWIDTH 5 0
BBX 4 6 0 0
BITMAP
70
50
F0
90
A0
E0
ENDCHAR
STARTCHAR iota
ENCODING 953
SWIDTH 250 0
DWIDTH 3 0
BBX 2 4 0 0
BITMAP
40
80
80
80
ENDCHAR
STARTCHAR kappa
ENCODING 954
SWIDTH 625 0
DWIDTH 6 0
BBX 5 4 0 0
BITMAP
50
A0
E0
90
ENDCHAR
STARTCHAR lambda
ENCODING 955
SWIDTH 500 0
DWIDTH 4 0
BBX 3 6 0 0
BITMAP
60
20
20
60
60
A0
ENDCHAR
STARTCHAR mu
ENCODING 956
SWIDTH 625 0
DWIDTH 6 0
BBX 5 6 0 -2
BITMAP
48
90
90
F0
80
80
ENDCHAR
STARTCHAR nu
ENCODING 957
SWIDTH 500 0
DWIDTH 5 0
BBX 4 4 0 0
BITMAP
90
90
A0
40
ENDCHAR
STARTCHAR xi
ENCODING 958
SWIDTH 500 0
DWIDTH 5 0
BBX 4 8 0 -2
BITMAP
70
40
20
C0
80
C0
20
20
ENDCHAR
STARTCHAR omicron
ENCODING 959
SWIDTH 625 0
DWIDTH 6 0
BBX 5 4 0 0
BITMAP
78
88
88
F0
ENDCHAR
STARTCHAR pi
ENCODING 960
SWIDTH 750 0
DWIDTH 8 0
BBX 7 4 0 0
BITMAP
7E
48
48
4C
ENDCHAR
STARTCHAR rho
ENCODING 961
SWIDTH 625 0
DWIDTH 6 0
BBX 5 6 0 -2
BITMAP
78
C8
88
F0
80
80
ENDCHAR
STARTCHAR sigma1
ENCODING 962
SWIDTH 500 0
DWIDTH 5 0
BBX 4 6 0 -2
BITMAP
70
C0
80
C0
60
20
ENDCHAR
STARTCHAR sigma
ENCODING 963
SWIDTH 625 0
DWIDTH 6 0
BBX 5 4 0 0
BITMAP
78
90
90
E0
ENDCHAR
STARTCHAR tau
ENCODING 964
SWIDTH 375 0
DWIDTH 5 0
BBX 4 4 0 0
BITMAP
70
40
40
60
ENDCHAR
STARTCHAR upsilon
ENCODING 965
SWIDTH 625 0
DWIDTH 6 0
BBX 5 4 0 0
BITMAP
48
88
88
70
ENDCHAR
STARTCHAR phi
ENCODING 966
SWIDTH 750 0
DWIDTH 7 0
BBX 6 6 0 -2
BITMAP
7C
A4
A4
78
20
20
ENDCHAR
STARTCHAR chi
ENCODING 967
SWIDTH 625 0
DWIDTH 7 0
BBX 6 6 0 -2
BITMAP
64
28
30
30
50
88
ENDCHAR
STARTCHAR psi
ENCODING 968
SWIDTH 750 0
DWIDTH 7 0
BBX 6 7 0 -2
BITMAP
10
54
A8
A8
78
20
20
ENDCHAR
STARTCHAR omega
ENCODING 969
SWIDTH 875 0
DWIDTH 8 0
BBX 7 4 0 0
BITMAP
46
A2
A2
DC
ENDCHAR
STARTCHAR iotadieresis
ENCODING 970
SWIDTH 250 0
DWIDTH 4 0
BBX 3 6 0 0
BITMAP
A0
00
40
80
80
80
ENDCHAR
STARTCHAR upsilondieresis
ENCODING 971
SWIDTH 625 0
DWIDTH 6 0
BBX 5 6 0 0
BITMAP
28
00
48
88
88
70
ENDCHAR
STARTCHAR omicrontonos
ENCODING 972
SWIDTH 625 0
DWIDTH 6 0
BBX 5 7 0 0
BITMAP
18
10
00
78
88
88
F0
ENDCHAR
STARTCHAR upsilontonos
ENCODING 973
SWIDTH 625 0
DWIDTH 6 0
BBX 5 7 0 0
BITMAP
18
10
00
48
88
88
70
ENDCHAR
STARTCHAR omegatonos
ENCODING 974
SWIDTH 875 0
DWIDTH 8 0
BBX 7 7 0 0
BITMAP
0C
08
00
46
A2
A2
DC
ENDCHAR
STARTCHAR afii10023
ENCODING 1025
SWIDTH 625 0
DWIDTH 6 0
BBX 5 8 0 0
BITMAP
28
00
78
40
70
80
80
F0
ENDCHAR
STARTCHAR afii10051
ENCODING 1026
SWIDTH 875 0
DWIDTH 7 0
BBX 6 6 0 0
BITMAP
F8
20
3C
44
44
58
ENDCHAR
STARTCHAR afii10052
ENCODING 1027
SWIDTH 625 0
DWIDTH 6 0
BBX 5 9 0 0
BITMAP
10
20
00
78
40
40
80
80
80
ENDCHAR
STARTCHAR afii10053
ENCODING 1028
SWIDTH 750 0
DWIDTH 7 0
BBX 6 6 0 0
BITMAP
38
44
F0
80
88
70
ENDCHAR
STARTCHAR afii10054
ENCODING 1029
SWIDTH 625 0
DWIDTH 6 0
BBX 5 6 0 0
BITMAP
70
48
60
10
90
F0
ENDCHAR
STARTCHAR afii10055
ENCODING 1030
SWIDTH 250 0
DWIDTH 3 0
BBX 2 6 0 0
BITMAP
40
40
40
80
80
80
ENDCHAR
STARTCHAR afii10056
ENCODING 1031
SWIDTH 250 0
DWIDTH 4 0
BBX 3 8 0 0
BITMAP
A0
00
40
40
40
80
80
80
ENDCHAR
STARTCHAR afii10057
ENCODING 1032
SWIDTH 500 0
DWIDTH 5 0
BBX 4 6 0 0
BITMAP
30
10
10
20
A0
E0
ENDCHAR
STARTCHAR afii10058
ENCODING 1033
SWIDTH 1125 0
DWIDTH 9 0
BBX 8 6 0 0
BITMAP
38
28
4F
51
51
9E
ENDCHAR
STARTCHAR afii10059
ENCODING 1034
SWIDTH 1000 0
DWIDTH 8 0
BBX 7 6 0 0
BITMAP
48
48
7E
92
92
9C
ENDCHAR
STARTCHAR afii10060
ENCODING 1035
SWIDTH 875 0
DWIDTH 7 0
BBX 6 6 0 0
BITMAP
F8
20
3C
44
44
44
ENDCHAR
STARTCHAR afii10061
ENCODING 1036
SWIDTH 625 0
DWIDTH 6 0
BBX 5 9 0 0
BITMAP
08
10
00
48
50
60
E0
A0
90
ENDCHAR
STARTCHAR afii10062
ENCODING 1038
SWIDTH 625 0
DWIDTH 7 0
BBX 6 8 0 0
BITMAP
38
00
44
28
30
30
20
C0
ENDCHAR
STARTCHAR afii10145
ENCODING 1039
SWIDTH 750 0
DWIDTH 7 0
BBX 6 8 0 -2
BITMAP
44
44
44
88
88
F8
20
20
ENDCHAR
STARTCHAR afii10017
ENCODING 1040
SWIDTH 750 0
DWIDTH 6 0
BBX 5 6 0 0
BITMAP
10
30
28
48
78
88
ENDCHAR
STARTCHAR afii10018
ENCODING 1041
SWIDTH 750 0
DWIDTH 6 0
BBX 5 6 0 0
BITMAP
78
40
78
88
88
F0
ENDCHAR
STARTCHAR afii10019
ENCODING 1042
SWIDTH 750 0
DWIDTH 7 0
BBX 6 6 0 0
BITMAP
7C
44
78
84
84
F8
ENDCHAR
STARTCHAR afii10020
ENCODING 1043
SWIDTH 625 0
DWIDTH 6 0
BBX 5 6 0 0
BITMAP
78
40
40
80
80
80
ENDCHAR
STARTCHAR afii10021
ENCODING 1044
SWIDTH 750 0
DWIDTH 8 0
BBX 7 8 0 -2
BITMAP
1E
12
12
24
24
FE
82
84
ENDCHAR
STARTCHAR afii10022
ENCODING 1045
SWIDTH 625 0
DWIDTH 6 0
BBX 5 6 0 0
BITMAP
78
40
70
80
80
F0
ENDCHAR
STARTCHAR afii10024
ENCODING 1046
SWIDTH 875 0
DWIDTH 9 0
BBX 8 6 0 0
BITMAP
49
4A
2C
3C
54
92
ENDCHAR
STARTCHAR afii10025
ENCODING 1047
SWIDTH 625 0
DWIDTH 6 0
BBX 5 6 0 0
BITMAP
38
48
30
10
90
60
ENDCHAR
STARTCHAR afii10026
ENCODING 1048
SWIDTH 750 0
DWIDTH 7 0
BBX 6 6 0 0
BITMAP
44
4C
54
A8
C8
88
ENDCHAR
STARTCHAR afii10027
ENCODING 1049
SWIDTH 750 0
DWIDTH 7 0
BBX 6 8 0 0
BITMAP
38
00
44
4C
54
A8
C8
88
ENDCHAR
STARTCHAR afii10028
ENCODING 1050
SWIDTH 625 0
DWIDTH 6 0
BBX 5 6 0 0
BITMAP
48
50
60
E0
A0
90
ENDCHAR
STARTCHAR afii10029
ENCODING 1051
SWIDTH 750 0
DWIDTH 7 0
BBX 6 6 0 0
BITMAP
3C
24
24
48
48
88
ENDCHAR
STARTCHAR afii10030
ENCODING 1052
SWIDTH 750 0
DWIDTH 7 0
BBX 6 6 0 0
BITMAP
6C
6C
74
B8
A8
A8
ENDCHAR
STARTCHAR afii10031
ENCODING 1053
SWIDTH 750 0
DWIDTH 7 0
BBX 6 6 0 0
BITMAP
44
44
7C
88
88
88
ENDCHAR
STARTCHAR afii10032
ENCODING 1054
SWIDTH 750 0
DWIDTH 7 0
BBX 6 6 0 0
BITMAP
38
44
84
84
88
70
ENDCHAR
STARTCHAR afii10033
ENCODING 1055
SWIDTH 750 0
DWIDTH 7 0
BBX 6 6 0 0
BITMAP
7C
44
44
88
88
88
ENDCHAR
STARTCHAR afii10034
ENCODING 1056
SWIDTH 625 0
DWIDTH 6 0
BBX 5 6 0 0
BITMAP
70
48
48
F0
80
80
ENDCHAR
STARTCHAR afii10035
ENCODING 1057
SWIDTH 750 0
DWIDTH 7 0
BBX 6 6 0 0
BITMAP
38
44
80
80
88
70
ENDCHAR
STARTCHAR afii10036
ENCODING 1058
SWIDTH 625 0
DWIDTH 6 0
BBX 5 6 0 0
BITMAP
F8
20
20
40
40
40
ENDCHAR
STARTCHAR afii10037
ENCODING 1059
SWIDTH 625 0
DWIDTH 7 0
BBX 6 6 0 0
BITMAP
44
28
30
30
20
C0
ENDCHAR
STARTCHAR afii10038
ENCODING 1060
SWIDTH 750 0
DWIDTH 7 0
BBX 6 6 0 0
BITMAP
10
7C
94
A4
78
20
ENDCHAR
STARTCHAR afii10039
ENCODING 1061
SWIDTH 625 0
DWIDTH 6 0
BBX 5 6 0 0
BITMAP
48
50
20
20
50
90
ENDCHAR
STARTCHAR afii10040
ENCODING 1062
SWIDTH 750 0
DWIDTH 7 0
BBX 6 8 0 -2
BITMAP
44
44
44
88
88
FC
04
04
ENDCHAR
STARTCHAR afii10041
ENCODING 1063
SWIDTH 750 0
DWIDTH 6 0
BBX 5 6 0 0
BITMAP
88
88
88
F0
10
10
ENDCHAR
STARTCHAR afii10042
ENCODING 1064
SWIDTH 1000 0
DWIDTH 9 0
BBX 8 6 0 0
BITMAP
49
49
49
92
92
FE
ENDCHAR
STARTCHAR afii10043
ENCODING 1065
SWIDTH 1000 0
DWIDTH 9 0
BBX 8 8 0 -2
BITMAP
49
49
49
92
92
FF
01
01
ENDCHAR
STARTCHAR afii10044
ENCODING 1066
SWIDTH 875 0
DWIDTH 7 0
BBX 6 6 0 0
BITMAP
E0
20
38
44
44
78
ENDCHAR
STARTCHAR afii10045
ENCODING 1067
SWIDTH 1000 0
DWIDTH 9 0
BBX 8 6 0 0
BITMAP
41
41
79
8A
8A
F2
ENDCHAR
STARTCHAR afii10046
ENCODING 1068
SWIDTH 750 0
DWIDTH 6 0
BBX 5 6 0 0
BITMAP
40
40
78
88
88
F0
ENDCHAR
STARTCHAR afii10047
ENCODING 1069
SWIDTH 750 0
DWIDTH 7 0
BBX 6 6 0 0
BITMAP
38
44
3C
04
88
70
ENDCHAR
STARTCHAR afii10048
ENCODING 1070
SWIDTH 1000 0
DWIDTH 8 0
BBX 7 6 0 0
BITMAP
5C
72
62
A2
A6
9C
ENDCHAR
STARTCHAR afii10049
ENCODING 1071
SWIDTH 750 0
DWIDTH 7 0
BBX 6 6 0 0
BITMAP
3C
44
44
38
48
88
ENDCHAR
STARTCHAR afii10065
ENCODING 1072
SWIDTH 500 0
DWIDTH 5 0
BBX 4 4 0 0
BITMAP
60
60
E0
F0
ENDCHAR
STARTCHAR afii10066
ENCODING 1073
SWIDTH 625 0
DWIDTH 6 0
BBX 5 6 0 0
BITMAP
38
40
F8
88
88
70
ENDCHAR
STARTCHAR afii10067
ENCODING 1074
SWIDTH 625 0
DWIDTH 6 0
BBX 5 4 0 0
BITMAP
78
F0
88
F0
ENDCHAR
STARTCHAR afii10068
ENCODING 1075
SWIDTH 500 0
DWIDTH 5 0
BBX 4 4 0 0
BITMAP
70
70
A0
E0
ENDCHAR
STARTCHAR afii10069
ENCODING 1076
SWIDTH 625 0
DWIDTH 6 0
BBX 5 6 0 0
BITMAP
70
08
78
88
98
70
ENDCHAR
STARTCHAR afii10070
ENCODING 1077
SWIDTH 500 0
DWIDTH 5 0
BBX 4 4 0 0
BITMAP
70
F0
80
E0
ENDCHAR
STARTCHAR afii10072
ENCODING 1078
SWIDTH 750 0
DWIDTH 7 0
BBX 6 4 0 0
BITMAP
54
68
70
A8
ENDCHAR
STARTCHAR afii10073
ENCODING 1079
SWIDTH 500 0
DWIDTH 5 0
BBX 4 4 0 0
BITMAP
70
20
10
F0
ENDCHAR
STARTCHAR afii10074
ENCODING 1080
SWIDTH 625 0
DWIDTH 6 0
BBX 5 4 0 0
BITMAP
48
90
90
F0
ENDCHAR
STARTCHAR afii10075
ENCODING 1081
SWIDTH 625 0
DWIDTH 6 0
BBX 5 6 0 0
BITMAP
38
00
48
90
90
F0
ENDCHAR
STARTCHAR afii10076
ENCODING 1082
SWIDTH 500 0
DWIDTH 5 0
BBX 4 4 0 0
BITMAP
50
A0
C0
A0
ENDCHAR
STARTCHAR afii10077
ENCODING 1083
SWIDTH 625 0
DWIDTH 6 0
BBX 5 4 0 0
BITMAP
38
50
50
90
ENDCHAR
STARTCHAR afii10078
ENCODING 1084
SWIDTH 750 0
DWIDTH 7 0
BBX 6 4 0 0
BITMAP
4C
C8
B8
A8
ENDCHAR
STARTCHAR afii10079
ENCODING 1085
SWIDTH 625 0
DWIDTH 6 0
BBX 5 4 0 0
BITMAP
48
90
F0
90
ENDCHAR
STARTCHAR afii10080
ENCODING 1086
SWIDTH 625 0
DWIDTH 6 0
BBX 5 4 0 0
BITMAP
78
88
88
F0
ENDCHAR
STARTCHAR afii10081
ENCODING 1087
SWIDTH 625 0
DWIDTH 6 0
BBX 5 4 0 0
BITMAP
78
90
90
90
ENDCHAR
STARTCHAR afii10082
ENCODING 1088
SWIDTH 625 0
DWIDTH 6 0
BBX 5 6 0 -2
BITMAP
78
C8
88
F0
80
80
ENDCHAR
STARTCHAR afii10083
ENCODING 1089
SWIDTH 500 0
DWIDTH 5 0
BBX 4 4 0 0
BITMAP
70
90
A0
E0
ENDCHAR
STARTCHAR afii10084
ENCODING 1090
SWIDTH 875 0
DWIDTH 8 0
BBX 7 4 0 0
BITMAP
7E
52
D4
94
ENDCHAR
STARTCHAR afii10085
ENCODING 1091
SWIDTH 500 0
DWIDTH 6 0
BBX 5 6 0 -2
BITMAP
48
50
50
20
60
C0
ENDCHAR
STARTCHAR afii10086
ENCODING 1092
SWIDTH 875 0
DWIDTH 8 0
BBX 7 8 0 -2
BITMAP
10
10
5E
B2
A2
FC
20
20
ENDCHAR
STARTCHAR afii10087
ENCODING 1093
SWIDTH 500 0
DWIDTH 5 0
BBX 4 4 0 0
BITMAP
50
60
60
A0
ENDCHAR
STARTCHAR afii10088
ENCODING 1094
SWIDTH 625 0
DWIDTH 6 0
BBX 5 6 0 -2
BITMAP
48
90
90
F8
08
10
ENDCHAR
STARTCHAR afii10089
ENCODING 1095
SWIDTH 625 0
DWIDTH 6 0
BBX 5 4 0 0
BITMAP
48
90
70
10
ENDCHAR
STARTCHAR afii10090
ENCODING 1096
SWIDTH 875 0
DWIDTH 8 0
BBX 7 4 0 0
BITMAP
4A
94
94
FC
ENDCHAR
STARTCHAR afii10091
ENCODING 1097
SWIDTH 875 0
DWIDTH 8 0
BBX 7 6 0 -2
BITMAP
4A
94
94
FE
02
02
ENDCHAR
STARTCHAR afii10092
ENCODING 1098
SWIDTH 750 0
DWIDTH 6 0
BBX 5 4 0 0
BITMAP
E0
78
48
78
ENDCHAR
STARTCHAR afii10093
ENCODING 1099
SWIDTH 875 0
DWIDTH 8 0
BBX 7 4 0 0
BITMAP
42
F4
94
F4
ENDCHAR
STARTCHAR afii10094
ENCODING 1100
SWIDTH 625 0
DWIDTH 5 0
BBX 4 4 0 0
BITMAP
40
F0
90
F0
ENDCHAR
STARTCHAR afii10095
ENCODING 1101
SWIDTH 500 0
DWIDTH 5 0
BBX 4 4 0 0
BITMAP
70
30
90
E0
ENDCHAR
STARTCHAR afii10096
ENCODING 1102
SWIDTH 875 0
DWIDTH 8 0
BBX 7 4 0 0
BITMAP
5C
72
F4
9C
ENDCHAR
STARTCHAR afii10097
ENCODING 1103
SWIDTH 625 0
DWIDTH 6 0
BBX 5 4 0 0
BITMAP
78
50
70
50
ENDCHAR
STARTCHAR afii10071
ENCODING 1105
SWIDTH 500 0
DWIDTH 5 0
BBX 4 6 0 0
BITMAP
50
00
70
F0
80
E0
ENDCHAR
STARTCHAR afii10099
ENCODING 1106
SWIDTH 625 0
DWIDTH 5 0
BBX 4 8 0 -2
BITMAP
40
E0
70
D0
90
90
10
30
ENDCHAR
STARTCHAR afii10100
ENCODING 1107
SWIDTH 500 0
DWIDTH 5 0
BBX 4 6 0 0
BITMAP
20
00
70
80
80
80
ENDCHAR
STARTCHAR afii10101
ENCODING 1108
SWIDTH 625 0
DWIDTH 6 0
BBX 5 4 0 0
BITMAP
78
E0
90
E0
ENDCHAR
STARTCHAR afii10102
ENCODING 1109
SWIDTH 500 0
DWIDTH 5 0
BBX 4 4 0 0
BITMAP
70
40
20
E0
ENDCHAR
STARTCHAR afii10103
ENCODING 1110
SWIDTH 250 0
DWIDTH 3 0
BBX 2 6 0 0
BITMAP
40
00
40
80
80
80
ENDCHAR
STARTCHAR afii10104
ENCODING 1111
SWIDTH 250 0
DWIDTH 4 0
BBX 3 6 0 0
BITMAP
A0
00
40
80
80
80
ENDCHAR
STARTCHAR afii10105
ENCODING 1112
SWIDTH 250 0
DWIDTH 4 0
BBX 3 8 0 -2
BITMAP
20
00
20
40
40
40
40
C0
ENDCHAR
STARTCHAR afii10106
ENCODING 1113
SWIDTH 1000 0
DWIDTH 8 0
BBX 7 4 0 0
BITMAP
38
5E
52
9E
ENDCHAR
STARTCHAR afii10107
ENCODING 1114
SWIDTH 875 0
DWIDTH 7 0
BBX 6 4 0 0
BITMAP
50
FC
A4
BC
ENDCHAR
STARTCHAR afii10108
ENCODING 1115
SWIDTH 625 0
DWIDTH 5 0
BBX 4 6 0 0
BITMAP
40
E0
70
D0
90
90
ENDCHAR
STARTCHAR afii10109
ENCODING 1116
SWIDTH 500 0
DWIDTH 5 0
BBX 4 6 0 0
BITMAP
20
00
50
A0
C0
A0
ENDCHAR
STARTCHAR afii10110
ENCODING 1118
SWIDTH 500 0
DWIDTH 6 0
BBX 5 8 0 -2
BITMAP
38
00
48
50
50
20
60
C0
ENDCHAR
STARTCHAR afii10193
ENCODING 1119
SWIDTH 625 0
DWIDTH 6 0
BBX 5 5 0 -1
BITMAP
48
90
90
F0
40
ENDCHAR
STARTCHAR afii10050
ENCODING 1168
SWIDTH 625 0
DWIDTH 7 0
BBX 6 8 0 0
BITMAP
04
04
7C
40
40
80
80
80
ENDCHAR
STARTCHAR afii10098
ENCODING 1169
SWIDTH 500 0
DWIDTH 5 0
BBX 4 6 0 0
BITMAP
10
10
70
80
80
80
ENDCHAR
STARTCHAR Wgrave
ENCODING 7808
SWIDTH 1000 0
DWIDTH 9 0
BBX 8 9 0 0
BITMAP
10
08
00
89
9A
AA
AC
CC
88
ENDCHAR
STARTCHAR wgrave
ENCODING 7809
SWIDTH 750 0
DWIDTH 7 0
BBX 6 6 0 0
BITMAP
10
00
B4
B8
D8
D8
ENDCHAR
STARTCHAR Wacute
ENCODING 7810
SWIDTH 1000 0
DWIDTH 9 0
BBX 8 9 0 0
BITMAP
04
08
00
89
9A
AA
AC
CC
88
ENDCHAR
STARTCHAR wacute
ENCODING 7811
SWIDTH 750 0
DWIDTH 7 0
BBX 6 6 0 0
BITMAP
10
00
B4
B8
D8
D8
ENDCHAR
STARTCHAR Wdieresis
ENCODING 7812
SWIDTH 1000 0
DWIDTH 9 0
BBX 8 8 0 0
BITMAP
14
00
89
9A
AA
AC
CC
88
ENDCHAR
STARTCHAR wdieresis
ENCODING 7813
SWIDTH 750 0
DWIDTH 7 0
BBX 6 6 0 0
BITMAP
28
00
B4
B8
D8
D8
ENDCHAR
STARTCHAR Ygrave
ENCODING 7922
SWIDTH 625 0
DWIDTH 6 0
BBX 5 9 0 0
BITMAP
20
10
00
88
50
60
40
40
40
ENDCHAR
STARTCHAR ygrave
ENCODING 7923
SWIDTH 500 0
DWIDTH 6 0
BBX 5 8 0 -2
BITMAP
10
00
48
50
50
20
60
C0
ENDCHAR
STARTCHAR uni2010
ENCODING 8208
SWIDTH 375 0
DWIDTH 4 0
BBX 3 1 0 2
BITMAP
E0
ENDCHAR
STARTCHAR uni2011
ENCODING 8209
SWIDTH 375 0
DWIDTH 4 0
BBX 3 1 0 2
BITMAP
E0
ENDCHAR
STARTCHAR figuredash
ENCODING 8210
SWIDTH 375 0
DWIDTH 4 0
BBX 3 1 0 2
BITMAP
E0
ENDCHAR
STARTCHAR endash
ENCODING 8211
SWIDTH 500 0
DWIDTH 5 0
BBX 4 1 0 2
BITMAP
F0
ENDCHAR
STARTCHAR emdash
ENCODING 8212
SWIDTH 1000 0
DWIDTH 9 0
BBX 8 1 0 2
BITMAP
FF
ENDCHAR
STARTCHAR afii00208
ENCODING 8213
SWIDTH 1000 0
DWIDTH 9 0
BBX 8 1 0 2
BITMAP
FF
ENDCHAR
STARTCHAR underscoredbl
ENCODING 8215
SWIDTH 500 0
DWIDTH 5 0
BBX 4 2 0 -3
BITMAP
F0
F0
ENDCHAR
STARTCHAR quoteleft
ENCODING 8216
SWIDTH 250 0
DWIDTH 2 0
BBX 1 2 0 4
BITMAP
80
80
ENDCHAR
STARTCHAR quoteright
ENCODING 8217
SWIDTH 250 0
DWIDTH 2 0
BBX 1 2 0 4
BITMAP
80
80
ENDCHAR
STARTCHAR quotesinglbase
ENCODING 8218
SWIDTH 250 0
DWIDTH 2 0
BBX 1 2 0 -1
BITMAP
80
80
ENDCHAR
STARTCHAR quotereversed
ENCODING 8219
SWIDTH 250 0
DWIDTH 2 0
BBX 1 2 0 4
BITMAP
80
80
ENDCHAR
STARTCHAR quotedblleft
ENCODING 8220
SWIDTH 500 0
DWIDTH 4 0
BBX 3 2 0 4
BITMAP
A0
A0
ENDCHAR
STARTCHAR quotedblright
ENCODING 8221
SWIDTH 500 0
DWIDTH 4 0
BBX 3 2 0 4
BITMAP
A0
A0
ENDCHAR
STARTCHAR quotedblbase
ENCODING 8222
SWIDTH 500 0
DWIDTH 4 0
BBX 3 2 0 -1
BITMAP
A0
A0
ENDCHAR
STARTCHAR dagger
ENCODING 8224
SWIDTH 500 0
DWIDTH 5 0
BBX 4 7 0 -1
BITMAP
20
70
20
40
40
40
40
ENDCHAR
STARTCHAR daggerdbl
ENCODING 8225
SWIDTH 500 0
DWIDTH 5 0
BBX 4 7 0 -1
BITMAP
20
F0
20
40
40
E0
40
ENDCHAR
STARTCHAR bullet
ENCODING 8226
SWIDTH 375 0
DWIDTH 3 0
BBX 2 2 0 2
BITMAP
C0
C0
ENDCHAR
STARTCHAR ellipsis
ENCODING 8230
SWIDTH 1000 0
DWIDTH 8 0
BBX 7 1 0 0
BITMAP
92
ENDCHAR
STARTCHAR perthousand
ENCODING 8240
SWIDTH 1125 0
DWIDTH 10 0
BBX 9 6 0 0
BITMAP
C200
C400
C800
3780
4780
8780
ENDCHAR
STARTCHAR minute
ENCODING 8242
SWIDTH 250 0
DWIDTH 2 0
BBX 1 2 0 4
BITMAP
80
80
ENDCHAR
STARTCHAR second
ENCODING 8243
SWIDTH 500 0
DWIDTH 4 0
BBX 3 2 0 4
BITMAP
A0
A0
ENDCHAR
STARTCHAR guilsinglleft
ENCODING 8249
SWIDTH 375 0
DWIDTH 3 0
BBX 2 3 0 1
BITMAP
40
80
40
ENDCHAR
STARTCHAR guilsinglright
ENCODING 8250
SWIDTH 375 0
DWIDTH 3 0
BBX 2 3 0 1
BITMAP
80
40
80
ENDCHAR
STARTCHAR exclamdbl
ENCODING 8252
SWIDTH 625 0
DWIDTH 5 0
BBX 4 6 0 0
BITMAP
50
50
50
A0
00
A0
ENDCHAR
STARTCHAR uni203E
ENCODING 8254
SWIDTH 375 0
DWIDTH 4 0
BBX 3 1 0 6
BITMAP
E0
ENDCHAR
STARTCHAR fraction
ENCODING 8260
SWIDTH 125 0
DWIDTH 6 0
BBX 5 6 0 0
BITMAP
08
10
20
20
40
80
ENDCHAR
STARTCHAR uni207F
ENCODING 8319
SWIDTH 375 0
DWIDTH 4 0
BBX 3 3 0 2
BITMAP
E0
A0
A0
ENDCHAR
STARTCHAR franc
ENCODING 8355
SWIDTH 500 0
DWIDTH 6 0
BBX 5 6 0 0
BITMAP
78
40
40
F0
E0
80
ENDCHAR
STARTCHAR lira
ENCODING 8356
SWIDTH 500 0
DWIDTH 5 0
BBX 4 6 0 0
BITMAP
30
30
60
60
50
F0
ENDCHAR
STARTCHAR peseta
ENCODING 8359
SWIDTH 1125 0
DWIDTH 10 0
BBX 9 6 0 0
BITMAP
7800
4C00
4F80
FB00
8880
8F80
ENDCHAR
STARTCHAR Euro
ENCODING 8364
SWIDTH 500 0
DWIDTH 5 0
BBX 4 6 0 0
BITMAP
30
50
60
60
60
60
ENDCHAR
STARTCHAR afii61248
ENCODING 8453
SWIDTH 875 0
DWIDTH 7 0
BBX 6 6 0 0
BITMAP
68
90
9C
F4
34
58
ENDCHAR
STARTCHAR afii61289
ENCODING 8467
SWIDTH 500 0
DWIDTH 4 0
BBX 3 6 0 0
BITMAP
60
60
60
80
A0
C0
ENDCHAR
STARTCHAR afii61352
ENCODING 8470
SWIDTH 1125 0
DWIDTH 10 0
BBX 9 6 0 0
BITMAP
4400
6400
6780
9A80
9B80
8F00
ENDCHAR
STARTCHAR trademark
ENCODING 8482
SWIDTH 1000 0
DWIDTH 7 0
BBX 6 2 0 4
BITMAP
F4
5C
ENDCHAR
STARTCHAR u2126
ENCODING 8486
SWIDTH 750 0
DWIDTH 7 0
BBX 6 6 0 0
BITMAP
78
CC
84
84
48
FC
ENDCHAR
STARTCHAR estimated
ENCODING 8494
SWIDTH 625 0
DWIDTH 5 0
BBX 4 4 0 0
BITMAP
60
F0
80
60
ENDCHAR
STARTCHAR oneeighth
ENCODING 8539
SWIDTH 875 0
DWIDTH 7 0
BBX 6 6 0 0
BITMAP
44
48
D0
1C
2C
5C
ENDCHAR
STARTCHAR threeeighths
ENCODING 8540
SWIDTH 875 0
DWIDTH 7 0
BBX 6 6 0 0
BITMAP
E4
48
F0
1C
2C
5C
ENDCHAR
STARTCHAR fiveeighths
ENCODING 8541
SWIDTH 875 0
DWIDTH 7 0
BBX 6 6 0 0
BITMAP
E4
E8
F0
1C
2C
5C
ENDCHAR
STARTCHAR seveneighths
ENCODING 8542
SWIDTH 875 0
DWIDTH 7 0
BBX 6 6 0 0
BITMAP
E8
50
A0
3C
4C
9C
ENDCHAR
STARTCHAR arrowleft
ENCODING 8592
SWIDTH 1000 0
DWIDTH 6 0
BBX 5 3 0 0
BITMAP
40
F8
40
ENDCHAR
STARTCHAR arrowup
ENCODING 8593
SWIDTH 500 0
DWIDTH 4 0
BBX 3 5 0 0
BITMAP
40
E0
40
40
40
ENDCHAR
STARTCHAR arrowright
ENCODING 8594
SWIDTH 1000 0
DWIDTH 6 0
BBX 5 3 0 0
BITMAP
10
F8
10
ENDCHAR
STARTCHAR arrowdown
ENCODING 8595
SWIDTH 500 0
DWIDTH 4 0
BBX 3 5 0 0
BITMAP
40
40
40
E0
40
ENDCHAR
STARTCHAR arrowboth
ENCODING 8596
SWIDTH 1000 0
DWIDTH 6 0
BBX 5 3 0 0
BITMAP
50
F8
50
ENDCHAR
STARTCHAR arrowupdn
ENCODING 8597
SWIDTH 500 0
DWIDTH 4 0
BBX 3 5 0 0
BITMAP
40
E0
40
E0
40
ENDCHAR
STARTCHAR arrowupdnbse
ENCODING 8616
SWIDTH 500 0
DWIDTH 4 0
BBX 3 7 0 -2
BITMAP
40
40
40
40
40
00
E0
ENDCHAR
STARTCHAR partialdiff
ENCODING 8706
SWIDTH 500 0
DWIDTH 5 0
BBX 4 6 0 0
BITMAP
60
10
70
90
B0
E0
ENDCHAR
STARTCHAR u2206
ENCODING 8710
SWIDTH 625 0
DWIDTH 6 0
BBX 5 6 0 0
BITMAP
20
50
50
50
88
F8
ENDCHAR
STARTCHAR product
ENCODING 8719
SWIDTH 875 0
DWIDTH 6 0
BBX 5 8 0 -2
BITMAP
F8
88
88
88
88
88
88
88
ENDCHAR
STARTCHAR summation
ENCODING 8721
SWIDTH 750 0
DWIDTH 6 0
BBX 5 8 0 -2
BITMAP
F8
40
20
10
20
20
40
F8
ENDCHAR
STARTCHAR minus
ENCODING 8722
SWIDTH 625 0
DWIDTH 6 0
BBX 5 1 0 2
BITMAP
F8
ENDCHAR
STARTCHAR fraction
ENCODING 8725
SWIDTH 125 0
DWIDTH 6 0
BBX 5 6 0 0
BITMAP
08
10
20
20
40
80
ENDCHAR
STARTCHAR periodcentered
ENCODING 8729
SWIDTH 250 0
DWIDTH 3 0
BBX 2 1 0 2
BITMAP
80
ENDCHAR
STARTCHAR radical
ENCODING 8730
SWIDTH 500 0
DWIDTH 6 0
BBX 5 6 0 0
BITMAP
08
08
10
D0
60
20
ENDCHAR
STARTCHAR infinity
ENCODING 8734
SWIDTH 750 0
DWIDTH 7 0
BBX 6 3 0 1
BITMAP
FC
94
FC
ENDCHAR
STARTCHAR orthogonal
ENCODING 8735
SWIDTH 1000 0
DWIDTH 6 0
BBX 5 5 0 0
BITMAP
80
80
80
80
F8
ENDCHAR
STARTCHAR intersection
ENCODING 8745
SWIDTH 750 0
DWIDTH 5 0
BBX 4 4 0 0
BITMAP
60
90
90
90
ENDCHAR
STARTCHAR integral
ENCODING 8747
SWIDTH 250 0
DWIDTH 4 0
BBX 3 8 0 -2
BITMAP
60
40
40
40
40
40
40
C0
ENDCHAR
STARTCHAR approxequal
ENCODING 8776
SWIDTH 500 0
DWIDTH 5 0
BBX 4 3 0 1
BITMAP
F0
00
F0
ENDCHAR
STARTCHAR notequal
ENCODING 8800
SWIDTH 625 0
DWIDTH 6 0
BBX 5 5 0 0
BITMAP
10
F8
20
F8
80
ENDCHAR
STARTCHAR equivalence
ENCODING 8801
SWIDTH 625 0
DWIDTH 5 0
BBX 4 3 0 1
BITMAP
F0
F0
F0
ENDCHAR
STARTCHAR lessequal
ENCODING 8804
SWIDTH 500 0
DWIDTH 5 0
BBX 4 5 0 0
BITMAP
30
C0
C0
30
F0
ENDCHAR
STARTCHAR greaterequal
ENCODING 8805
SWIDTH 500 0
DWIDTH 5 0
BBX 4 5 0 0
BITMAP
C0
30
30
C0
F0
ENDCHAR
STARTCHAR house
ENCODING 8962
SWIDTH 625 0
DWIDTH 5 0
BBX 4 5 0 0
BITMAP
00
60
90
90
F0
ENDCHAR
STARTCHAR revlogicalnot
ENCODING 8976
SWIDTH 625 0
DWIDTH 5 0
BBX 4 2 0 1
BITMAP
F0
80
ENDCHAR
STARTCHAR integraltp
ENCODING 8992
SWIDTH 625 0
DWIDTH 3 0
BBX 2 9 0 -2
BITMAP
40
80
80
80
80
80
80
80
80
ENDCHAR
STARTCHAR integralbt
ENCODING 8993
SWIDTH 625 0
DWIDTH 3 0
BBX 2 9 0 -2
BITMAP
40
40
40
40
40
40
40
40
80
ENDCHAR
STARTCHAR SF100000
ENCODING 9472
SWIDTH 750 0
DWIDTH 7 0
BBX 6 1 0 2
BITMAP
FC
ENDCHAR
STARTCHAR SF110000
ENCODING 9474
SWIDTH 625 0
DWIDTH 2 0
BBX 1 9 0 -2
BITMAP
80
80
80
80
80
80
80
80
80
ENDCHAR
STARTCHAR SF010000
ENCODING 9484
SWIDTH 750 0
DWIDTH 4 0
BBX 3 5 0 -2
BITMAP
E0
80
80
80
80
ENDCHAR
STARTCHAR SF030000
ENCODING 9488
SWIDTH 750 0
DWIDTH 5 0
BBX 4 5 0 -2
BITMAP
F0
10
10
10
10
ENDCHAR
STARTCHAR SF020000
ENCODING 9492
SWIDTH 750 0
DWIDTH 4 0
BBX 3 5 0 2
BITMAP
80
80
80
80
E0
ENDCHAR
STARTCHAR SF040000
ENCODING 9496
SWIDTH 750 0
DWIDTH 5 0
BBX 4 5 0 2
BITMAP
10
10
10
10
F0
ENDCHAR
STARTCHAR SF080000
ENCODING 9500
SWIDTH 750 0
DWIDTH 4 0
BBX 3 9 0 -2
BITMAP
80
80
80
80
E0
80
80
80
80
ENDCHAR
STARTCHAR SF090000
ENCODING 9508
SWIDTH 750 0
DWIDTH 5 0
BBX 4 9 0 -2
BITMAP
10
10
10
10
F0
10
10
10
10
ENDCHAR
STARTCHAR SF060000
ENCODING 9516
SWIDTH 750 0
DWIDTH 7 0
BBX 6 5 0 -2
BITMAP
FC
10
10
10
10
ENDCHAR
STARTCHAR SF070000
ENCODING 9524
SWIDTH 750 0
DWIDTH 7 0
BBX 6 5 0 2
BITMAP
10
10
10
10
FC
ENDCHAR
STARTCHAR SF050000
ENCODING 9532
SWIDTH 750 0
DWIDTH 7 0
BBX 6 9 0 -2
BITMAP
10
10
10
10
FC
10
10
10
10
ENDCHAR
STARTCHAR SF430000
ENCODING 9552
SWIDTH 750 0
DWIDTH 7 0
BBX 6 2 0 1
BITMAP
FC
FC
ENDCHAR
STARTCHAR SF240000
ENCODING 9553
SWIDTH 750 0
DWIDTH 3 0
BBX 2 9 0 -2
BITMAP
C0
C0
C0
C0
C0
C0
C0
C0
C0
ENDCHAR
STARTCHAR SF510000
ENCODING 9554
SWIDTH 750 0
DWIDTH 4 0
BBX 3 5 0 -2
BITMAP
E0
E0
80
80
80
ENDCHAR
STARTCHAR SF520000
ENCODING 9555
SWIDTH 750 0
DWIDTH 5 0
BBX 4 5 0 -2
BITMAP
F0
C0
C0
C0
C0
ENDCHAR
STARTCHAR SF390000
ENCODING 9556
SWIDTH 750 0
DWIDTH 5 0
BBX 4 5 0 -2
BITMAP
F0
F0
C0
C0
C0
ENDCHAR
STARTCHAR SF220000
ENCODING 9557
SWIDTH 750 0
DWIDTH 5 0
BBX 4 5 0 -2
BITMAP
F0
F0
10
10
10
ENDCHAR
STARTCHAR SF210000
ENCODING 9558
SWIDTH 750 0
DWIDTH 5 0
BBX 4 5 0 -2
BITMAP
F0
30
30
30
30
ENDCHAR
STARTCHAR SF250000
ENCODING 9559
SWIDTH 750 0
DWIDTH 5 0
BBX 4 5 0 -2
BITMAP
F0
F0
30
30
30
ENDCHAR
STARTCHAR SF500000
ENCODING 9560
SWIDTH 750 0
DWIDTH 4 0
BBX 3 6 0 1
BITMAP
80
80
80
80
E0
E0
ENDCHAR
STARTCHAR SF490000
ENCODING 9561
SWIDTH 750 0
DWIDTH 5 0
BBX 4 5 0 2
BITMAP
C0
C0
C0
C0
F0
ENDCHAR
STARTCHAR SF380000
ENCODING 9562
SWIDTH 750 0
DWIDTH 5 0
BBX 4 6 0 1
BITMAP
C0
C0
C0
C0
F0
F0
ENDCHAR
STARTCHAR SF280000
ENCODING 9563
SWIDTH 750 0
DWIDTH 5 0
BBX 4 6 0 1
BITMAP
10
10
10
10
F0
F0
ENDCHAR
STARTCHAR SF270000
ENCODING 9564
SWIDTH 750 0
DWIDTH 5 0
BBX 4 5 0 2
BITMAP
30
30
30
30
F0
ENDCHAR
STARTCHAR SF260000
ENCODING 9565
SWIDTH 750 0
DWIDTH 5 0
BBX 4 6 0 1
BITMAP
30
30
30
30
F0
F0
ENDCHAR
STARTCHAR SF360000
ENCODING 9566
SWIDTH 750 0
DWIDTH 4 0
BBX 3 9 0 -2
BITMAP
80
80
80
80
E0
E0
80
80
80
ENDCHAR
STARTCHAR SF370000
ENCODING 9567
SWIDTH 750 0
DWIDTH 5 0
BBX 4 9 0 -2
BITMAP
C0
C0
C0
C0
F0
C0
C0
C0
C0
ENDCHAR
STARTCHAR SF420000
ENCODING 9568
SWIDTH 750 0
DWIDTH 5 0
BBX 4 9 0 -2
BITMAP
C0
C0
C0
C0
F0
F0
C0
C0
C0
ENDCHAR
STARTCHAR SF190000
ENCODING 9569
SWIDTH 750 0
DWIDTH 5 0
BBX 4 9 0 -2
BITMAP
10
10
10
10
F0
F0
10
10
10
ENDCHAR
STARTCHAR SF200000
ENCODING 9570
SWIDTH 750 0
DWIDTH 5 0
BBX 4 9 0 -2
BITMAP
30
30
30
30
F0
30
30
30
30
ENDCHAR
STARTCHAR SF230000
ENCODING 9571
SWIDTH 750 0
DWIDTH 5 0
BBX 4 9 0 -2
BITMAP
30
30
30
30
F0
F0
30
30
30
ENDCHAR
STARTCHAR SF470000
ENCODING 9572
SWIDTH 750 0
DWIDTH 7 0
BBX 6 5 0 -2
BITMAP
FC
FC
10
10
10
ENDCHAR
STARTCHAR SF480000
ENCODING 9573
SWIDTH 750 0
DWIDTH 7 0
BBX 6 5 0 -2
BITMAP
FC
30
30
30
30
ENDCHAR
STARTCHAR SF410000
ENCODING 9574
SWIDTH 750 0
DWIDTH 7 0
BBX 6 5 0 -2
BITMAP
FC
FC
30
30
30
ENDCHAR
STARTCHAR SF450000
ENCODING 9575
SWIDTH 750 0
DWIDTH 7 0
BBX 6 6 0 1
BITMAP
10
10
10
10
FC
FC
ENDCHAR
STARTCHAR SF460000
ENCODING 9576
SWIDTH 750 0
DWIDTH 7 0
BBX 6 5 0 2
BITMAP
30
30
30
30
FC
ENDCHAR
STARTCHAR SF400000
ENCODING 9577
SWIDTH 750 0
DWIDTH 7 0
BBX 6 6 0 1
BITMAP
30
30
30
30
FC
FC
ENDCHAR
STARTCHAR SF540000
ENCODING 9578
SWIDTH 750 0
DWIDTH 7 0
BBX 6 9 0 -2
BITMAP
10
10
10
10
FC
FC
10
10
10
ENDCHAR
STARTCHAR SF530000
ENCODING 9579
SWIDTH 750 0
DWIDTH 7 0
BBX 6 9 0 -2
BITMAP
30
30
30
30
FC
30
30
30
30
ENDCHAR
STARTCHAR SF440000
ENCODING 9580
SWIDTH 750 0
DWIDTH 7 0
BBX 6 9 0 -2
BITMAP
30
30
30
30
FC
FC
30
30
30
ENDCHAR
STARTCHAR upblock
ENCODING 9600
SWIDTH 750 0
DWIDTH 7 0
BBX 6 5 0 2
BITMAP
FC
FC
FC
FC
FC
ENDCHAR
STARTCHAR dnblock
ENCODING 9604
SWIDTH 750 0
DWIDTH 7 0
BBX 6 4 0 -2
BITMAP
FC
FC
FC
FC
ENDCHAR
STARTCHAR block
ENCODING 9608
SWIDTH 750 0
DWIDTH 7 0
BBX 6 9 0 -2
BITMAP
FC
FC
FC
FC
FC
FC
FC
FC
FC
ENDCHAR
STARTCHAR lfblock
ENCODING 9612
SWIDTH 750 0
DWIDTH 4 0
BBX 3 9 0 -2
BITMAP
E0
E0
E0
E0
E0
E0
E0
E0
E0
ENDCHAR
STARTCHAR rtblock
ENCODING 9616
SWIDTH 750 0
DWIDTH 4 0
BBX 3 9 0 -2
BITMAP
E0
E0
E0
E0
E0
E0
E0
E0
E0
ENDCHAR
STARTCHAR ltshade
ENCODING 9617
SWIDTH 750 0
DWIDTH 8 0
BBX 7 10 0 -3
BITMAP
AA
54
FE
AA
54
AA
54
FE
AA
54
ENDCHAR
STARTCHAR shade
ENCODING 9618
SWIDTH 750 0
DWIDTH 7 0
BBX 6 9 0 -2
BITMAP
CC
B4
68
DC
B4
68
DC
B4
48
ENDCHAR
STARTCHAR dkshade
ENCODING 9619
SWIDTH 750 0
DWIDTH 7 0
BBX 6 9 0 -2
BITMAP
E4
FC
FC
F4
B8
FC
F4
B8
FC
ENDCHAR
STARTCHAR filledbox
ENCODING 9632
SWIDTH 625 0
DWIDTH 5 0
BBX 4 4 0 0
BITMAP
F0
F0
F0
F0
ENDCHAR
STARTCHAR H22073
ENCODING 9633
SWIDTH 625 0
DWIDTH 6 0
BBX 5 5 0 0
BITMAP
F8
88
88
88
F8
ENDCHAR
STARTCHAR H18543
ENCODING 9642
SWIDTH 375 0
DWIDTH 3 0
BBX 2 2 0 1
BITMAP
C0
C0
ENDCHAR
STARTCHAR H18551
ENCODING 9643
SWIDTH 375 0
DWIDTH 3 0
BBX 2 2 0 1
BITMAP
C0
C0
ENDCHAR
STARTCHAR filledrect
ENCODING 9644
SWIDTH 1000 0
DWIDTH 9 0
BBX 8 2 0 0
BITMAP
FF
FF
ENDCHAR
STARTCHAR triagup
ENCODING 9650
SWIDTH 1000 0
DWIDTH 5 0
BBX 4 5 0 0
BITMAP
00
60
60
F0
F0
ENDCHAR
STARTCHAR triagrt
ENCODING 9658
SWIDTH 1000 0
DWIDTH 5 0
BBX 4 5 0 0
BITMAP
00
C0
F0
E0
80
ENDCHAR
STARTCHAR triagdn
ENCODING 9660
SWIDTH 1000 0
DWIDTH 5 0
BBX 4 5 0 0
BITMAP
F0
F0
60
60
00
ENDCHAR
STARTCHAR triaglf
ENCODING 9668
SWIDTH 1000 0
DWIDTH 5 0
BBX 4 5 0 0
BITMAP
00
30
F0
70
10
ENDCHAR
STARTCHAR lozenge
ENCODING 9674
SWIDTH 500 0
DWIDTH 5 0
BBX 4 6 0 0
BITMAP
40
60
90
90
60
40
ENDCHAR
STARTCHAR circle
ENCODING 9675
SWIDTH 625 0
DWIDTH 5 0
BBX 4 4 0 0
BITMAP
60
90
90
60
ENDCHAR
STARTCHAR H18533
ENCODING 9679
SWIDTH 625 0
DWIDTH 4 0
BBX 3 3 0 1
BITMAP
E0
E0
E0
ENDCHAR
STARTCHAR invbullet
ENCODING 9688
SWIDTH 625 0
DWIDTH 6 0
BBX 5 5 0 0
BITMAP
F8
88
88
88
F8
ENDCHAR
STARTCHAR invcircle
ENCODING 9689
SWIDTH 625 0
DWIDTH 6 0
BBX 5 5 0 0
BITMAP
F8
88
A8
88
F8
ENDCHAR
STARTCHAR openbullet
ENCODING 9702
SWIDTH 375 0
DWIDTH 4 0
BBX 3 3 0 0
BITMAP
E0
A0
E0
ENDCHAR
STARTCHAR smileface
ENCODING 9786
SWIDTH 1000 0
DWIDTH 6 0
BBX 5 5 0 0
BITMAP
70
D8
88
F8
70
ENDCHAR
STARTCHAR invsmileface
ENCODING 9787
SWIDTH 1000 0
DWIDTH 6 0
BBX 5 5 0 0
BITMAP
70
A8
F8
88
70
ENDCHAR
STARTCHAR sun
ENCODING 9788
SWIDTH 875 0
DWIDTH 6 0
BBX 5 5 0 0
BITMAP
20
70
D8
70
20
ENDCHAR
STARTCHAR female
ENCODING 9792
SWIDTH 750 0
DWIDTH 4 0
BBX 3 6 0 -1
BITMAP
E0
A0
E0
40
E0
40
ENDCHAR
STARTCHAR male
ENCODING 9794
SWIDTH 750 0
DWIDTH 5 0
BBX 4 4 0 1
BITMAP
10
E0
A0
E0
ENDCHAR
STARTCHAR spade
ENCODING 9824
SWIDTH 500 0
DWIDTH 5 0
BBX 4 5 0 0
BITMAP
00
60
F0
40
60
ENDCHAR
STARTCHAR club
ENCODING 9827
SWIDTH 625 0
DWIDTH 5 0
BBX 4 5 0 0
BITMAP
60
60
F0
F0
20
ENDCHAR
STARTCHAR heart
ENCODING 9829
SWIDTH 625 0
DWIDTH 5 0
BBX 4 4 0 0
BITMAP
F0
F0
60
40
ENDCHAR
STARTCHAR diamond
ENCODING 9830
SWIDTH 500 0
DWIDTH 4 0
BBX 3 5 0 0
BITMAP
40
40
E0
40
40
ENDCHAR
STARTCHAR musicalnote
ENCODING 9834
SWIDTH 500 0
DWIDTH 4 0
BBX 3 4 0 0
BITMAP
40
60
60
C0
ENDCHAR
STARTCHAR musicalnotedbl
ENCODING 9835
SWIDTH 750 0
DWIDTH 6 0
BBX 5 5 0 0
BITMAP
38
48
78
48
D8
ENDCHAR
STARTCHAR uniF001
ENCODING 61441
SWIDTH 625 0
DWIDTH 6 0
BBX 5 6 0 0
BITMAP
68
40
C8
90
90
90
ENDCHAR
STARTCHAR uniF002
ENCODING 61442
SWIDTH 625 0
DWIDTH 6 0
BBX 5 6 0 0
BITMAP
68
48
C8
90
90
90
ENDCHAR
STARTCHAR uniF005
ENCODING 61445
SWIDTH 375 0
DWIDTH 3 0
BBX 2 2 0 -2
BITMAP
40
C0
ENDCHAR
STARTCHAR uniF001
ENCODING 64257
SWIDTH 625 0
DWIDTH 6 0
BBX 5 6 0 0
BITMAP
68
40
C8
90
90
90
ENDCHAR
STARTCHAR uniF002
ENCODING 64258
SWIDTH 625 0
DWIDTH 6 0
BBX 5 6 0 0
BITMAP
68
48
C8
90
90
90
ENDCHAR
ENDFONT
