STARTFONT 2.1
FONT -unknown-Standard-Bold-R-Normal--12-120-75-75-P-0-ISO10646-1
SIZE 12 75 75
FONTBOUNDINGBOX 12 12 0 0
STARTPROPERTIES 5
FAMILY_NAME "Standard"
WEIGHT_NAME "Bold"
PIXEL_SIZE 12
FONT_ASCENT 10
FONT_DESCENT 2
ENDPROPERTIES
CHARS 662
STARTCHAR space
ENCODING 32
SWIDTH 278 0
DWIDTH 3 0
BBX 1 1 0 0
BITMAP
00
ENDCHAR
STARTCHAR exclam
ENCODING 33
SWIDTH 333 0
DWIDTH 3 0
BBX 2 9 0 0
BITMAP
C0
C0
C0
C0
C0
C0
00
C0
C0
ENDCHAR
STARTCHAR quotedbl
ENCODING 34
SWIDTH 474 0
DWIDTH 6 0
BBX 5 3 0 6
BITMAP
D8
D8
D8
ENDCHAR
STARTCHAR numbersign
ENCODING 35
SWIDTH 556 0
DWIDTH 7 0
BBX 6 9 0 0
BITMAP
24
24
FC
48
48
48
FC
90
90
ENDCHAR
STARTCHAR dollar
ENCODING 36
SWIDTH 556 0
DWIDTH 7 0
BBX 6 10 0 -1
BITMAP
10
78
EC
E0
78
0C
0C
CC
78
10
ENDCHAR
STARTCHAR percent
ENCODING 37
SWIDTH 889 0
DWIDTH 9 0
BBX 8 9 0 0
BITMAP
E2
A4
A4
A8
FF
15
25
25
47
ENDCHAR
STARTCHAR ampersand
ENCODING 38
SWIDTH 722 0
DWIDTH 9 0
BBX 8 9 0 0
BITMAP
38
6C
6C
78
63
F6
DE
CE
7B
ENDCHAR
STARTCHAR quotesingle
ENCODING 39
SWIDTH 238 0
DWIDTH 3 0
BBX 2 3 0 6
BITMAP
C0
C0
C0
ENDCHAR
STARTCHAR parenleft
ENCODING 40
SWIDTH 333 0
DWIDTH 4 0
BBX 3 12 0 -3
BITMAP
60
60
C0
C0
C0
C0
C0
C0
C0
C0
60
60
ENDCHAR
STARTCHAR parenright
ENCODING 41
SWIDTH 333 0
DWIDTH 4 0
BBX 3 12 0 -3
BITMAP
C0
C0
60
60
60
60
60
60
60
60
C0
C0
ENDCHAR
STARTCHAR asterisk
ENCODING 42
SWIDTH 389 0
DWIDTH 5 0
BBX 5 4 0 5
BITMAP
20
F8
70
50
ENDCHAR
STARTCHAR plus
ENCODING 43
SWIDTH 584 0
DWIDTH 7 0
BBX 5 5 1 2
BITMAP
20
20
F8
20
20
ENDCHAR
STARTCHAR comma
ENCODING 44
SWIDTH 278 0
DWIDTH 3 0
BBX 2 4 0 -2
BITMAP
C0
C0
40
80
ENDCHAR
STARTCHAR hyphen
ENCODING 45
SWIDTH 333 0
DWIDTH 4 0
BBX 4 1 0 3
BITMAP
F0
ENDCHAR
STARTCHAR period
ENCODING 46
SWIDTH 278 0
DWIDTH 3 0
BBX 2 2 0 0
BITMAP
C0
C0
ENDCHAR
STARTCHAR slash
ENCODING 47
SWIDTH 278 0
DWIDTH 3 0
BBX 3 9 0 0
BITMAP
20
20
60
40
40
40
C0
C0
80
ENDCHAR
STARTCHAR zero
ENCODING 48
SWIDTH 556 0
DWIDTH 7 0
BBX 6 9 0 0
BITMAP
78
C8
CC
CC
CC
CC
CC
48
78
ENDCHAR
STARTCHAR one
ENCODING 49
SWIDTH 556 0
DWIDTH 7 0
BBX 6 9 0 0
BITMAP
30
70
B0
30
30
30
30
30
FC
ENDCHAR
STARTCHAR two
ENCODING 50
SWIDTH 556 0
DWIDTH 7 0
BBX 6 9 0 0
BITMAP
78
CC
0C
0C
18
30
60
C0
FC
ENDCHAR
STARTCHAR three
ENCODING 51
SWIDTH 556 0
DWIDTH 7 0
BBX 6 9 0 0
BITMAP
78
CC
0C
0C
30
0C
0C
CC
78
ENDCHAR
STARTCHAR four
ENCODING 52
SWIDTH 556 0
DWIDTH 7 0
BBX 6 9 0 0
BITMAP
18
38
38
58
58
D8
FC
18
18
ENDCHAR
STARTCHAR five
ENCODING 53
SWIDTH 556 0
DWIDTH 7 0
BBX 6 9 0 0
BITMAP
FC
C0
C0
F8
CC
0C
0C
CC
78
ENDCHAR
STARTCHAR six
ENCODING 54
SWIDTH 556 0
DWIDTH 7 0
BBX 6 9 0 0
BITMAP
38
4C
C0
F8
CC
CC
CC
4C
78
ENDCHAR
STARTCHAR seven
ENCODING 55
SWIDTH 556 0
DWIDTH 7 0
BBX 6 9 0 0
BITMAP
FC
0C
18
18
30
30
60
60
60
ENDCHAR
STARTCHAR eight
ENCODING 56
SWIDTH 556 0
DWIDTH 7 0
BBX 6 9 0 0
BITMAP
78
CC
CC
CC
78
CC
CC
CC
78
ENDCHAR
STARTCHAR nine
ENCODING 57
SWIDTH 556 0
DWIDTH 7 0
BBX 6 9 0 0
BITMAP
78
C8
CC
CC
CC
7C
0C
C8
70
ENDCHAR
STARTCHAR colon
ENCODING 58
SWIDTH 333 0
DWIDTH 3 0
BBX 2 7 0 0
BITMAP
C0
C0
00
00
00
C0
C0
ENDCHAR
STARTCHAR semicolon
ENCODING 59
SWIDTH 333 0
DWIDTH 3 0
BBX 2 9 0 -2
BITMAP
C0
C0
00
00
00
C0
C0
40
80
ENDCHAR
STARTCHAR less
ENCODING 60
SWIDTH 584 0
DWIDTH 7 0
BBX 5 5 1 2
BITMAP
08
70
80
70
08
ENDCHAR
STARTCHAR equal
ENCODING 61
SWIDTH 584 0
DWIDTH 7 0
BBX 5 3 1 3
BITMAP
F8
00
F8
ENDCHAR
STARTCHAR greater
ENCODING 62
SWIDTH 584 0
DWIDTH 7 0
BBX 5 5 1 2
BITMAP
80
70
08
70
80
ENDCHAR
STARTCHAR question
ENCODING 63
SWIDTH 611 0
DWIDTH 7 0
BBX 6 9 0 0
BITMAP
78
CC
CC
0C
18
30
00
30
30
ENDCHAR
STARTCHAR at
ENCODING 64
SWIDTH 975 0
DWIDTH 12 0
BBX 11 11 0 -2
BITMAP
0F80
30C0
4060
4EA0
9920
9120
9340
8DC0
4000
6080
1F00
ENDCHAR
STARTCHAR A
ENCODING 65
SWIDTH 722 0
DWIDTH 8 0
BBX 7 9 0 0
BITMAP
38
28
6C
6C
6C
7C
6C
C6
C6
ENDCHAR
STARTCHAR B
ENCODING 66
SWIDTH 722 0
DWIDTH 8 0
BBX 7 9 0 0
BITMAP
FC
C6
C6
C6
FC
C6
C6
C6
FC
ENDCHAR
STARTCHAR C
ENCODING 67
SWIDTH 722 0
DWIDTH 8 0
BBX 7 9 0 0
BITMAP
3C
6E
C6
C0
C0
C0
C6
6E
3C
ENDCHAR
STARTCHAR D
ENCODING 68
SWIDTH 722 0
DWIDTH 8 0
BBX 7 9 0 0
BITMAP
F8
CC
C6
C6
C6
C6
C6
CC
F8
ENDCHAR
STARTCHAR E
ENCODING 69
SWIDTH 667 0
DWIDTH 7 0
BBX 6 9 0 0
BITMAP
FC
C0
C0
C0
FC
C0
C0
C0
FC
ENDCHAR
STARTCHAR F
ENCODING 70
SWIDTH 611 0
DWIDTH 6 0
BBX 5 9 0 0
BITMAP
F8
C0
C0
C0
F8
C0
C0
C0
C0
ENDCHAR
STARTCHAR G
ENCODING 71
SWIDTH 778 0
DWIDTH 8 0
BBX 7 9 0 0
BITMAP
3C
6E
C6
C0
C0
CE
C6
66
3C
ENDCHAR
STARTCHAR H
ENCODING 72
SWIDTH 722 0
DWIDTH 8 0
BBX 7 9 0 0
BITMAP
C6
C6
C6
C6
FE
C6
C6
C6
C6
ENDCHAR
STARTCHAR I
ENCODING 73
SWIDTH 278 0
DWIDTH 3 0
BBX 2 9 0 0
BITMAP
C0
C0
C0
C0
C0
C0
C0
C0
C0
ENDCHAR
STARTCHAR J
ENCODING 74
SWIDTH 556 0
DWIDTH 7 0
BBX 6 9 0 0
BITMAP
3C
0C
0C
0C
0C
0C
CC
CC
78
ENDCHAR
STARTCHAR K
ENCODING 75
SWIDTH 722 0
DWIDTH 8 0
BBX 7 9 0 0
BITMAP
C6
CC
D8
F0
F0
D8
CC
CC
C6
ENDCHAR
STARTCHAR L
ENCODING 76
SWIDTH 611 0
DWIDTH 7 0
BBX 6 9 0 0
BITMAP
C0
C0
C0
C0
C0
C0
C0
C0
FC
ENDCHAR
STARTCHAR M
ENCODING 77
SWIDTH 833 0
DWIDTH 10 0
BBX 9 9 0 0
BITMAP
E380
E380
E380
F780
D580
D580
D580
DD80
C980
ENDCHAR
STARTCHAR N
ENCODING 78
SWIDTH 722 0
DWIDTH 8 0
BBX 7 9 0 0
BITMAP
C6
E6
E6
D6
D6
D6
CE
CE
C6
ENDCHAR
STARTCHAR O
ENCODING 79
SWIDTH 778 0
DWIDTH 9 0
BBX 8 9 0 0
BITMAP
3C
66
C3
C3
C3
C3
C3
66
3C
ENDCHAR
STARTCHAR P
ENCODING 80
SWIDTH 667 0
DWIDTH 8 0
BBX 7 9 0 0
BITMAP
FC
C6
C6
C6
FC
C0
C0
C0
C0
ENDCHAR
STARTCHAR Q
ENCODING 81
SWIDTH 778 0
DWIDTH 9 0
BBX 8 11 0 -2
BITMAP
3C
66
C3
C3
C3
C3
C3
66
3C
18
0E
ENDCHAR
STARTCHAR R
ENCODING 82
SWIDTH 722 0
DWIDTH 8 0
BBX 7 9 0 0
BITMAP
FC
C6
C6
C6
FC
CC
CC
C6
C6
ENDCHAR
STARTCHAR S
ENCODING 83
SWIDTH 667 0
DWIDTH 8 0
BBX 7 9 0 0
BITMAP
7C
C6
C0
E0
7C
0E
06
C6
7C
ENDCHAR
STARTCHAR T
ENCODING 84
SWIDTH 611 0
DWIDTH 7 0
BBX 6 9 0 0
BITMAP
FC
30
30
30
30
30
30
30
30
ENDCHAR
STARTCHAR U
ENCODING 85
SWIDTH 722 0
DWIDTH 8 0
BBX 7 9 0 0
BITMAP
C6
C6
C6
C6
C6
C6
C6
C6
7C
ENDCHAR
STARTCHAR V
ENCODING 86
SWIDTH 667 0
DWIDTH 8 0
BBX 7 9 0 0
BITMAP
C6
C6
44
6C
6C
2C
28
38
38
ENDCHAR
STARTCHAR W
ENCODING 87
SWIDTH 944 0
DWIDTH 10 0
BBX 12 9 -1 0
BITMAP
C630
C630
CF20
4F60
6960
6960
39C0
39C0
30C0
ENDCHAR
STARTCHAR X
ENCODING 88
SWIDTH 667 0
DWIDTH 8 0
BBX 7 9 0 0
BITMAP
C6
44
6C
38
38
38
6C
44
C6
ENDCHAR
STARTCHAR Y
ENCODING 89
SWIDTH 667 0
DWIDTH 7 0
BBX 6 9 0 0
BITMAP
CC
CC
48
78
30
30
30
30
30
ENDCHAR
STARTCHAR Z
ENCODING 90
SWIDTH 611 0
DWIDTH 7 0
BBX 6 9 0 0
BITMAP
FC
0C
18
10
30
20
60
C0
FC
ENDCHAR
STARTCHAR bracketleft
ENCODING 91
SWIDTH 333 0
DWIDTH 4 0
BBX 3 12 0 -3
BITMAP
E0
C0
C0
C0
C0
C0
C0
C0
C0
C0
C0
E0
ENDCHAR
STARTCHAR backslash
ENCODING 92
SWIDTH 278 0
DWIDTH 3 0
BBX 3 9 0 0
BITMAP
80
80
C0
40
40
40
60
60
20
ENDCHAR
STARTCHAR bracketright
ENCODING 93
SWIDTH 333 0
DWIDTH 4 0
BBX 3 12 0 -3
BITMAP
E0
60
60
60
60
60
60
60
60
60
60
E0
ENDCHAR
STARTCHAR asciicircum
ENCODING 94
SWIDTH 584 0
DWIDTH 7 0
BBX 6 5 0 4
BITMAP
30
78
48
CC
84
ENDCHAR
STARTCHAR underscore
ENCODING 95
SWIDTH 556 0
DWIDTH 7 0
BBX 7 1 0 -2
BITMAP
FE
ENDCHAR
STARTCHAR grave
ENCODING 96
SWIDTH 333 0
DWIDTH 4 0
BBX 3 3 0 8
BITMAP
80
40
20
ENDCHAR
STARTCHAR a
ENCODING 97
SWIDTH 556 0
DWIDTH 7 0
BBX 7 7 0 0
BITMAP
78
CC
0C
7C
CC
CC
76
ENDCHAR
STARTCHAR b
ENCODING 98
SWIDTH 611 0
DWIDTH 7 0
BBX 6 9 0 0
BITMAP
C0
C0
F8
CC
CC
CC
CC
CC
F8
ENDCHAR
STARTCHAR c
ENCODING 99
SWIDTH 556 0
DWIDTH 7 0
BBX 6 7 0 0
BITMAP
78
CC
C0
C0
C0
CC
78
ENDCHAR
STARTCHAR d
ENCODING 100
SWIDTH 611 0
DWIDTH 7 0
BBX 6 9 0 0
BITMAP
0C
0C
7C
CC
CC
CC
CC
CC
7C
ENDCHAR
STARTCHAR e
ENCODING 101
SWIDTH 556 0
DWIDTH 7 0
BBX 6 7 0 0
BITMAP
78
CC
CC
FC
C0
CC
78
ENDCHAR
STARTCHAR f
ENCODING 102
SWIDTH 333 0
DWIDTH 4 0
BBX 4 9 0 0
BITMAP
70
60
F0
60
60
60
60
60
60
ENDCHAR
STARTCHAR g
ENCODING 103
SWIDTH 611 0
DWIDTH 7 0
BBX 6 10 0 -3
BITMAP
7C
CC
CC
CC
CC
CC
7C
0C
CC
78
ENDCHAR
STARTCHAR h
ENCODING 104
SWIDTH 611 0
DWIDTH 7 0
BBX 6 9 0 0
BITMAP
C0
C0
F8
CC
CC
CC
CC
CC
CC
ENDCHAR
STARTCHAR i
ENCODING 105
SWIDTH 278 0
DWIDTH 3 0
BBX 2 9 0 0
BITMAP
C0
00
C0
C0
C0
C0
C0
C0
C0
ENDCHAR
STARTCHAR j
ENCODING 106
SWIDTH 278 0
DWIDTH 3 0
BBX 3 12 -1 -3
BITMAP
60
00
60
60
60
60
60
60
60
60
60
E0
ENDCHAR
STARTCHAR k
ENCODING 107
SWIDTH 556 0
DWIDTH 7 0
BBX 6 9 0 0
BITMAP
C0
C0
CC
D8
F0
F0
D8
D8
CC
ENDCHAR
STARTCHAR l
ENCODING 108
SWIDTH 278 0
DWIDTH 3 0
BBX 2 9 0 0
BITMAP
C0
C0
C0
C0
C0
C0
C0
C0
C0
ENDCHAR
STARTCHAR m
ENCODING 109
SWIDTH 889 0
DWIDTH 11 0
BBX 10 7 0 0
BITMAP
FB80
CCC0
CCC0
CCC0
CCC0
CCC0
CCC0
ENDCHAR
STARTCHAR n
ENCODING 110
SWIDTH 611 0
DWIDTH 7 0
BBX 6 7 0 0
BITMAP
F8
CC
CC
CC
CC
CC
CC
ENDCHAR
STARTCHAR o
ENCODING 111
SWIDTH 611 0
DWIDTH 7 0
BBX 6 7 0 0
BITMAP
78
CC
CC
CC
CC
CC
78
ENDCHAR
STARTCHAR p
ENCODING 112
SWIDTH 611 0
DWIDTH 7 0
BBX 6 10 0 -3
BITMAP
F8
CC
CC
CC
CC
CC
F8
C0
C0
C0
ENDCHAR
STARTCHAR q
ENCODING 113
SWIDTH 611 0
DWIDTH 7 0
BBX 6 10 0 -3
BITMAP
7C
CC
CC
CC
CC
CC
7C
0C
0C
0C
ENDCHAR
STARTCHAR r
ENCODING 114
SWIDTH 389 0
DWIDTH 5 0
BBX 4 7 0 0
BITMAP
F0
C0
C0
C0
C0
C0
C0
ENDCHAR
STARTCHAR s
ENCODING 115
SWIDTH 556 0
DWIDTH 7 0
BBX 6 7 0 0
BITMAP
78
CC
E0
78
0C
CC
78
ENDCHAR
STARTCHAR t
ENCODING 116
SWIDTH 333 0
DWIDTH 4 0
BBX 4 8 0 0
BITMAP
60
F0
60
60
60
60
60
70
ENDCHAR
STARTCHAR u
ENCODING 117
SWIDTH 611 0
DWIDTH 7 0
BBX 7 7 0 0
BITMAP
C6
C6
C6
C6
C6
CE
76
ENDCHAR
STARTCHAR v
ENCODING 118
SWIDTH 556 0
DWIDTH 6 0
BBX 5 7 0 0
BITMAP
D8
D8
D8
50
50
50
70
ENDCHAR
STARTCHAR w
ENCODING 119
SWIDTH 778 0
DWIDTH 10 0
BBX 9 7 0 0
BITMAP
8880
D580
D580
5500
5500
7700
6300
ENDCHAR
STARTCHAR x
ENCODING 120
SWIDTH 556 0
DWIDTH 7 0
BBX 6 7 0 0
BITMAP
CC
58
78
30
70
58
CC
ENDCHAR
STARTCHAR y
ENCODING 121
SWIDTH 556 0
DWIDTH 6 0
BBX 5 10 0 -3
BITMAP
D8
D8
D8
50
50
70
20
20
60
C0
ENDCHAR
STARTCHAR z
ENCODING 122
SWIDTH 500 0
DWIDTH 6 0
BBX 5 7 0 0
BITMAP
F8
18
30
30
60
C0
F8
ENDCHAR
STARTCHAR braceleft
ENCODING 123
SWIDTH 389 0
DWIDTH 5 0
BBX 4 12 0 -3
BITMAP
70
60
60
60
60
C0
60
60
60
60
60
30
ENDCHAR
STARTCHAR bar
ENCODING 124
SWIDTH 280 0
DWIDTH 3 0
BBX 1 12 0 -3
BITMAP
80
80
80
80
80
80
80
80
80
80
80
80
ENDCHAR
STARTCHAR braceright
ENCODING 125
SWIDTH 389 0
DWIDTH 5 0
BBX 4 12 0 -3
BITMAP
E0
60
60
60
60
30
60
60
60
60
60
C0
ENDCHAR
STARTCHAR asciitilde
ENCODING 126
SWIDTH 584 0
DWIDTH 7 0
BBX 6 2 0 3
BITMAP
E0
1C
ENDCHAR
STARTCHAR space
ENCODING 160
SWIDTH 278 0
DWIDTH 3 0
BBX 1 1 0 0
BITMAP
00
ENDCHAR
STARTCHAR exclamdown
ENCODING 161
SWIDTH 333 0
DWIDTH 3 0
BBX 2 9 0 -2
BITMAP
C0
C0
00
C0
C0
C0
C0
C0
C0
ENDCHAR
STARTCHAR cent
ENCODING 162
SWIDTH 556 0
DWIDTH 7 0
BBX 6 8 0 0
BITMAP
00
70
F0
D0
D0
D4
7C
10
ENDCHAR
STARTCHAR sterling
ENCODING 163
SWIDTH 556 0
DWIDTH 7 0
BBX 6 9 0 0
BITMAP
38
6C
60
60
F0
60
60
4C
F8
ENDCHAR
STARTCHAR currency
ENCODING 164
SWIDTH 556 0
DWIDTH 7 0
BBX 5 5 1 2
BITMAP
F8
88
88
88
F8
ENDCHAR
STARTCHAR yen
ENCODING 165
SWIDTH 556 0
DWIDTH 7 0
BBX 6 9 0 0
BITMAP
CC
CC
48
78
78
FC
30
FC
30
ENDCHAR
STARTCHAR brokenbar
ENCODING 166
SWIDTH 280 0
DWIDTH 3 0
BBX 1 12 0 -3
BITMAP
80
80
80
80
80
00
00
80
80
80
80
80
ENDCHAR
STARTCHAR section
ENCODING 167
SWIDTH 556 0
DWIDTH 7 0
BBX 6 11 0 -2
BITMAP
78
CC
C0
78
DC
CC
FC
3C
0C
CC
78
ENDCHAR
STARTCHAR dieresis
ENCODING 168
SWIDTH 333 0
DWIDTH 4 0
BBX 4 1 0 8
BITMAP
90
ENDCHAR
STARTCHAR copyright
ENCODING 169
SWIDTH 737 0
DWIDTH 9 0
BBX 8 9 0 0
BITMAP
3C
42
DB
A5
A1
A5
DB
42
3C
ENDCHAR
STARTCHAR ordfeminine
ENCODING 170
SWIDTH 370 0
DWIDTH 4 0
BBX 4 5 0 4
BITMAP
E0
20
E0
A0
F0
ENDCHAR
STARTCHAR guillemotleft
ENCODING 171
SWIDTH 556 0
DWIDTH 7 0
BBX 6 5 0 1
BITMAP
24
48
90
48
24
ENDCHAR
STARTCHAR logicalnot
ENCODING 172
SWIDTH 584 0
DWIDTH 7 0
BBX 5 3 1 2
BITMAP
F8
08
08
ENDCHAR
STARTCHAR hyphen
ENCODING 173
SWIDTH 333 0
DWIDTH 4 0
BBX 4 1 0 3
BITMAP
F0
ENDCHAR
STARTCHAR registered
ENCODING 174
SWIDTH 737 0
DWIDTH 9 0
BBX 8 9 0 0
BITMAP
3C
42
FF
A5
BD
A9
E7
42
3C
ENDCHAR
STARTCHAR macron
ENCODING 175
SWIDTH 552 0
DWIDTH 7 0
BBX 7 1 0 9
BITMAP
FE
ENDCHAR
STARTCHAR degree
ENCODING 176
SWIDTH 400 0
DWIDTH 5 0
BBX 4 4 0 5
BITMAP
60
90
90
60
ENDCHAR
STARTCHAR plusminus
ENCODING 177
SWIDTH 549 0
DWIDTH 7 0
BBX 5 7 1 0
BITMAP
20
20
F8
20
20
00
F8
ENDCHAR
STARTCHAR uni00B2
ENCODING 178
SWIDTH 333 0
DWIDTH 4 0
BBX 3 5 0 4
BITMAP
E0
20
60
80
E0
ENDCHAR
STARTCHAR uni00B3
ENCODING 179
SWIDTH 333 0
DWIDTH 4 0
BBX 3 5 0 4
BITMAP
E0
20
40
20
E0
ENDCHAR
STARTCHAR acute
ENCODING 180
SWIDTH 333 0
DWIDTH 4 0
BBX 3 3 1 8
BITMAP
20
40
80
ENDCHAR
STARTCHAR u00B5
ENCODING 181
SWIDTH 576 0
DWIDTH 7 0
BBX 6 10 0 -3
BITMAP
CC
CC
CC
CC
CC
CC
FC
C0
C0
C0
ENDCHAR
STARTCHAR paragraph
ENCODING 182
SWIDTH 556 0
DWIDTH 7 0
BBX 6 11 0 -2
BITMAP
7C
E8
E8
E8
68
28
28
28
28
28
28
ENDCHAR
STARTCHAR periodcentered
ENCODING 183
SWIDTH 278 0
DWIDTH 3 0
BBX 2 2 0 3
BITMAP
C0
C0
ENDCHAR
STARTCHAR cedilla
ENCODING 184
SWIDTH 333 0
DWIDTH 4 0
BBX 2 3 1 -3
BITMAP
C0
40
C0
ENDCHAR
STARTCHAR uni00B9
ENCODING 185
SWIDTH 333 0
DWIDTH 4 0
BBX 3 5 1 4
BITMAP
40
C0
40
40
E0
ENDCHAR
STARTCHAR ordmasculine
ENCODING 186
SWIDTH 365 0
DWIDTH 4 0
BBX 3 5 0 4
BITMAP
60
A0
A0
A0
40
ENDCHAR
STARTCHAR guillemotright
ENCODING 187
SWIDTH 556 0
DWIDTH 7 0
BBX 6 5 0 1
BITMAP
90
48
24
48
90
ENDCHAR
STARTCHAR onequarter
ENCODING 188
SWIDTH 834 0
DWIDTH 10 0
BBX 8 9 1 0
BITMAP
42
C6
44
48
EB
15
35
27
41
ENDCHAR
STARTCHAR onehalf
ENCODING 189
SWIDTH 834 0
DWIDTH 10 0
BBX 8 9 1 0
BITMAP
42
C4
44
48
EE
11
32
24
47
ENDCHAR
STARTCHAR threequarters
ENCODING 190
SWIDTH 834 0
DWIDTH 10 0
BBX 9 9 0 0
BITMAP
6100
2300
6200
2400
6580
0A80
1A80
1380
2080
ENDCHAR
STARTCHAR questiondown
ENCODING 191
SWIDTH 611 0
DWIDTH 7 0
BBX 6 9 0 -2
BITMAP
30
30
00
30
60
C0
CC
CC
78
ENDCHAR
STARTCHAR Agrave
ENCODING 192
SWIDTH 722 0
DWIDTH 8 0
BBX 7 12 0 0
BITMAP
30
18
00
38
28
6C
6C
6C
7C
6C
C6
C6
ENDCHAR
STARTCHAR Aacute
ENCODING 193
SWIDTH 722 0
DWIDTH 8 0
BBX 7 12 0 0
BITMAP
0C
10
00
38
28
6C
6C
6C
7C
6C
C6
C6
ENDCHAR
STARTCHAR Acircumflex
ENCODING 194
SWIDTH 722 0
DWIDTH 8 0
BBX 7 12 0 0
BITMAP
30
28
00
38
28
6C
6C
6C
7C
6C
C6
C6
ENDCHAR
STARTCHAR Atilde
ENCODING 195
SWIDTH 722 0
DWIDTH 8 0
BBX 7 12 0 0
BITMAP
28
58
00
38
28
6C
6C
6C
7C
6C
C6
C6
ENDCHAR
STARTCHAR Adieresis
ENCODING 196
SWIDTH 722 0
DWIDTH 8 0
BBX 7 11 0 0
BITMAP
48
00
38
28
6C
6C
6C
7C
6C
C6
C6
ENDCHAR
STARTCHAR Aring
ENCODING 197
SWIDTH 722 0
DWIDTH 8 0
BBX 7 11 0 0
BITMAP
18
14
38
28
6C
6C
6C
7C
6C
C6
C6
ENDCHAR
STARTCHAR AE
ENCODING 198
SWIDTH 1000 0
DWIDTH 13 0
BBX 12 9 0 0
BITMAP
0FF0
0B00
1B00
1B00
33F0
3300
7F00
6300
C3F0
ENDCHAR
STARTCHAR Ccedilla
ENCODING 199
SWIDTH 722 0
DWIDTH 8 0
BBX 7 12 0 -3
BITMAP
3C
6E
C6
C0
C0
C0
C6
6E
3C
18
08
18
ENDCHAR
STARTCHAR Egrave
ENCODING 200
SWIDTH 667 0
DWIDTH 7 0
BBX 6 12 0 0
BITMAP
20
10
00
FC
C0
C0
C0
FC
C0
C0
C0
FC
ENDCHAR
STARTCHAR Eacute
ENCODING 201
SWIDTH 667 0
DWIDTH 7 0
BBX 6 12 0 0
BITMAP
08
10
00
FC
C0
C0
C0
FC
C0
C0
C0
FC
ENDCHAR
STARTCHAR Ecircumflex
ENCODING 202
SWIDTH 667 0
DWIDTH 7 0
BBX 6 12 0 0
BITMAP
30
48
00
FC
C0
C0
C0
FC
C0
C0
C0
FC
ENDCHAR
STARTCHAR Edieresis
ENCODING 203
SWIDTH 667 0
DWIDTH 7 0
BBX 6 11 0 0
BITMAP
48
00
FC
C0
C0
C0
FC
C0
C0
C0
FC
ENDCHAR
STARTCHAR Igrave
ENCODING 204
SWIDTH 278 0
DWIDTH 3 0
BBX 3 12 -1 0
BITMAP
C0
20
00
60
60
60
60
60
60
60
60
60
ENDCHAR
STARTCHAR Iacute
ENCODING 205
SWIDTH 278 0
DWIDTH 3 0
BBX 3 12 0 0
BITMAP
20
C0
00
C0
C0
C0
C0
C0
C0
C0
C0
C0
ENDCHAR
STARTCHAR Icircumflex
ENCODING 206
SWIDTH 278 0
DWIDTH 3 0
BBX 4 12 0 0
BITMAP
60
A0
00
C0
C0
C0
C0
C0
C0
C0
C0
C0
ENDCHAR
STARTCHAR Idieresis
ENCODING 207
SWIDTH 278 0
DWIDTH 3 0
BBX 4 11 0 0
BITMAP
90
00
C0
C0
C0
C0
C0
C0
C0
C0
C0
ENDCHAR
STARTCHAR Eth
ENCODING 208
SWIDTH 722 0
DWIDTH 9 0
BBX 8 9 0 0
BITMAP
7C
66
63
63
FB
63
63
66
7C
ENDCHAR
STARTCHAR Ntilde
ENCODING 209
SWIDTH 722 0
DWIDTH 8 0
BBX 7 12 0 0
BITMAP
28
58
00
C6
E6
E6
D6
D6
D6
CE
CE
C6
ENDCHAR
STARTCHAR Ograve
ENCODING 210
SWIDTH 778 0
DWIDTH 9 0
BBX 8 12 0 0
BITMAP
10
08
00
3C
66
C3
C3
C3
C3
C3
66
3C
ENDCHAR
STARTCHAR Oacute
ENCODING 211
SWIDTH 778 0
DWIDTH 9 0
BBX 8 12 0 0
BITMAP
04
18
00
3C
66
C3
C3
C3
C3
C3
66
3C
ENDCHAR
STARTCHAR Ocircumflex
ENCODING 212
SWIDTH 778 0
DWIDTH 9 0
BBX 8 12 0 0
BITMAP
0C
14
00
3C
66
C3
C3
C3
C3
C3
66
3C
ENDCHAR
STARTCHAR Otilde
ENCODING 213
SWIDTH 778 0
DWIDTH 9 0
BBX 8 12 0 0
BITMAP
1A
14
00
3C
66
C3
C3
C3
C3
C3
66
3C
ENDCHAR
STARTCHAR Odieresis
ENCODING 214
SWIDTH 778 0
DWIDTH 9 0
BBX 8 11 0 0
BITMAP
12
00
3C
66
C3
C3
C3
C3
C3
66
3C
ENDCHAR
STARTCHAR multiply
ENCODING 215
SWIDTH 584 0
DWIDTH 7 0
BBX 6 6 -1 1
BITMAP
44
28
10
28
44
00
ENDCHAR
STARTCHAR Oslash
ENCODING 216
SWIDTH 778 0
DWIDTH 9 0
BBX 8 9 0 0
BITMAP
3E
66
CB
CB
D3
D3
D3
66
7C
ENDCHAR
STARTCHAR Ugrave
ENCODING 217
SWIDTH 722 0
DWIDTH 8 0
BBX 7 12 0 0
BITMAP
20
18
00
C6
C6
C6
C6
C6
C6
C6
C6
7C
ENDCHAR
STARTCHAR Uacute
ENCODING 218
SWIDTH 722 0
DWIDTH 8 0
BBX 7 12 0 0
BITMAP
0C
18
00
C6
C6
C6
C6
C6
C6
C6
C6
7C
ENDCHAR
STARTCHAR Ucircumflex
ENCODING 219
SWIDTH 722 0
DWIDTH 8 0
BBX 7 12 0 0
BITMAP
30
28
00
C6
C6
C6
C6
C6
C6
C6
C6
7C
ENDCHAR
STARTCHAR Udieresis
ENCODING 220
SWIDTH 722 0
DWIDTH 8 0
BBX 7 11 0 0
BITMAP
48
00
C6
C6
C6
C6
C6
C6
C6
C6
7C
ENDCHAR
STARTCHAR Yacute
ENCODING 221
SWIDTH 667 0
DWIDTH 7 0
BBX 6 12 0 0
BITMAP
08
10
00
CC
CC
48
78
30
30
30
30
30
ENDCHAR
STARTCHAR Thorn
ENCODING 222
SWIDTH 667 0
DWIDTH 8 0
BBX 7 9 0 0
BITMAP
C0
FC
C6
C6
C6
C6
FC
C0
C0
ENDCHAR
STARTCHAR germandbls
ENCODING 223
SWIDTH 611 0
DWIDTH 7 0
BBX 6 9 0 0
BITMAP
78
CC
CC
D8
D8
DC
CC
CC
DC
ENDCHAR
STARTCHAR agrave
ENCODING 224
SWIDTH 556 0
DWIDTH 7 0
BBX 7 11 0 0
BITMAP
20
10
08
00
78
CC
0C
7C
CC
CC
F6
ENDCHAR
STARTCHAR aacute
ENCODING 225
SWIDTH 556 0
DWIDTH 7 0
BBX 7 11 0 0
BITMAP
0C
08
10
00
78
CC
0C
7C
CC
CC
F6
ENDCHAR
STARTCHAR acircumflex
ENCODING 226
SWIDTH 556 0
DWIDTH 7 0
BBX 7 11 0 0
BITMAP
30
28
48
00
78
CC
0C
7C
CC
CC
F6
ENDCHAR
STARTCHAR atilde
ENCODING 227
SWIDTH 556 0
DWIDTH 7 0
BBX 7 10 0 0
BITMAP
68
58
00
78
CC
0C
7C
CC
CC
F6
ENDCHAR
STARTCHAR adieresis
ENCODING 228
SWIDTH 556 0
DWIDTH 7 0
BBX 7 9 0 0
BITMAP
48
00
78
CC
0C
7C
CC
CC
F6
ENDCHAR
STARTCHAR aring
ENCODING 229
SWIDTH 556 0
DWIDTH 7 0
BBX 7 11 0 0
BITMAP
30
28
30
00
78
CC
0C
7C
CC
CC
F6
ENDCHAR
STARTCHAR ae
ENCODING 230
SWIDTH 889 0
DWIDTH 11 0
BBX 10 7 0 0
BITMAP
7F80
CCC0
0CC0
7FC0
CC00
CCC0
7780
ENDCHAR
STARTCHAR ccedilla
ENCODING 231
SWIDTH 556 0
DWIDTH 7 0
BBX 6 10 0 -3
BITMAP
78
CC
C0
C0
C0
CC
78
18
08
10
ENDCHAR
STARTCHAR egrave
ENCODING 232
SWIDTH 556 0
DWIDTH 7 0
BBX 6 11 0 0
BITMAP
60
20
10
00
78
CC
CC
FC
C0
CC
78
ENDCHAR
STARTCHAR eacute
ENCODING 233
SWIDTH 556 0
DWIDTH 7 0
BBX 6 11 0 0
BITMAP
08
10
20
00
78
CC
CC
FC
C0
CC
78
ENDCHAR
STARTCHAR ecircumflex
ENCODING 234
SWIDTH 556 0
DWIDTH 7 0
BBX 6 11 0 0
BITMAP
10
28
48
00
78
CC
CC
FC
C0
CC
78
ENDCHAR
STARTCHAR edieresis
ENCODING 235
SWIDTH 556 0
DWIDTH 7 0
BBX 6 9 0 0
BITMAP
48
00
78
CC
CC
FC
C0
CC
78
ENDCHAR
STARTCHAR igrave
ENCODING 236
SWIDTH 278 0
DWIDTH 3 0
BBX 3 11 -1 0
BITMAP
C0
40
20
00
60
60
60
60
60
60
60
ENDCHAR
STARTCHAR iacute
ENCODING 237
SWIDTH 278 0
DWIDTH 3 0
BBX 3 11 0 0
BITMAP
20
40
C0
00
C0
C0
C0
C0
C0
C0
C0
ENDCHAR
STARTCHAR icircumflex
ENCODING 238
SWIDTH 278 0
DWIDTH 3 0
BBX 4 11 0 0
BITMAP
40
A0
A0
00
C0
C0
C0
C0
C0
C0
C0
ENDCHAR
STARTCHAR idieresis
ENCODING 239
SWIDTH 278 0
DWIDTH 3 0
BBX 4 9 0 0
BITMAP
90
00
C0
C0
C0
C0
C0
C0
C0
ENDCHAR
STARTCHAR eth
ENCODING 240
SWIDTH 611 0
DWIDTH 7 0
BBX 6 9 0 0
BITMAP
68
30
58
7C
CC
CC
CC
CC
78
ENDCHAR
STARTCHAR ntilde
ENCODING 241
SWIDTH 611 0
DWIDTH 7 0
BBX 6 10 0 0
BITMAP
34
48
00
F8
CC
CC
CC
CC
CC
CC
ENDCHAR
STARTCHAR ograve
ENCODING 242
SWIDTH 611 0
DWIDTH 7 0
BBX 6 11 0 0
BITMAP
20
30
10
00
78
CC
CC
CC
CC
CC
78
ENDCHAR
STARTCHAR oacute
ENCODING 243
SWIDTH 611 0
DWIDTH 7 0
BBX 6 11 0 0
BITMAP
08
10
30
00
78
CC
CC
CC
CC
CC
78
ENDCHAR
STARTCHAR ocircumflex
ENCODING 244
SWIDTH 611 0
DWIDTH 7 0
BBX 6 11 0 0
BITMAP
10
28
28
00
78
CC
CC
CC
CC
CC
78
ENDCHAR
STARTCHAR otilde
ENCODING 245
SWIDTH 611 0
DWIDTH 7 0
BBX 6 10 0 0
BITMAP
34
58
00
78
CC
CC
CC
CC
CC
78
ENDCHAR
STARTCHAR odieresis
ENCODING 246
SWIDTH 611 0
DWIDTH 7 0
BBX 6 9 0 0
BITMAP
24
00
78
CC
CC
CC
CC
CC
78
ENDCHAR
STARTCHAR divide
ENCODING 247
SWIDTH 549 0
DWIDTH 7 0
BBX 5 5 1 2
BITMAP
20
00
F8
00
20
ENDCHAR
STARTCHAR oslash
ENCODING 248
SWIDTH 611 0
DWIDTH 7 0
BBX 6 7 0 0
BITMAP
7C
CC
DC
EC
EC
CC
F8
ENDCHAR
STARTCHAR ugrave
ENCODING 249
SWIDTH 611 0
DWIDTH 7 0
BBX 7 11 0 0
BITMAP
60
20
10
00
C6
C6
C6
C6
C6
CE
76
ENDCHAR
STARTCHAR uacute
ENCODING 250
SWIDTH 611 0
DWIDTH 7 0
BBX 7 11 0 0
BITMAP
04
08
18
00
C6
C6
C6
C6
C6
CE
76
ENDCHAR
STARTCHAR ucircumflex
ENCODING 251
SWIDTH 611 0
DWIDTH 7 0
BBX 7 11 0 0
BITMAP
10
28
28
00
C6
C6
C6
C6
C6
CE
76
ENDCHAR
STARTCHAR udieresis
ENCODING 252
SWIDTH 611 0
DWIDTH 7 0
BBX 7 9 0 0
BITMAP
24
00
C6
C6
C6
C6
C6
CE
76
ENDCHAR
STARTCHAR yacute
ENCODING 253
SWIDTH 556 0
DWIDTH 6 0
BBX 5 14 0 -3
BITMAP
08
10
20
00
D8
D8
D8
50
50
70
20
20
60
C0
ENDCHAR
STARTCHAR thorn
ENCODING 254
SWIDTH 611 0
DWIDTH 7 0
BBX 6 12 0 -3
BITMAP
C0
C0
F8
CC
CC
CC
CC
CC
F8
C0
C0
C0
ENDCHAR
STARTCHAR ydieresis
ENCODING 255
SWIDTH 556 0
DWIDTH 6 0
BBX 5 12 0 -3
BITMAP
90
00
D8
D8
D8
50
50
70
20
20
60
C0
ENDCHAR
STARTCHAR Amacron
ENCODING 256
SWIDTH 722 0
DWIDTH 8 0
BBX 7 11 0 0
BITMAP
78
00
38
28
6C
6C
6C
7C
6C
C6
C6
ENDCHAR
STARTCHAR amacron
ENCODING 257
SWIDTH 556 0
DWIDTH 7 0
BBX 7 9 0 0
BITMAP
78
00
78
CC
0C
7C
CC
CC
76
ENDCHAR
STARTCHAR Abreve
ENCODING 258
SWIDTH 722 0
DWIDTH 8 0
BBX 7 12 0 0
BITMAP
48
38
00
38
28
6C
6C
6C
7C
6C
C6
C6
ENDCHAR
STARTCHAR abreve
ENCODING 259
SWIDTH 556 0
DWIDTH 7 0
BBX 7 11 0 0
BITMAP
24
28
18
00
78
CC
0C
7C
CC
CC
76
ENDCHAR
STARTCHAR Aogonek
ENCODING 260
SWIDTH 722 0
DWIDTH 8 0
BBX 8 12 0 -3
BITMAP
38
28
6C
6C
6C
7C
6C
C6
C6
04
04
07
ENDCHAR
STARTCHAR aogonek
ENCODING 261
SWIDTH 556 0
DWIDTH 7 0
BBX 8 10 0 -3
BITMAP
78
CC
0C
7C
CC
CC
76
04
04
07
ENDCHAR
STARTCHAR Cacute
ENCODING 262
SWIDTH 722 0
DWIDTH 8 0
BBX 7 12 0 0
BITMAP
04
08
00
3C
6E
C6
C0
C0
C0
C6
6E
3C
ENDCHAR
STARTCHAR cacute
ENCODING 263
SWIDTH 556 0
DWIDTH 7 0
BBX 6 11 0 0
BITMAP
08
10
20
00
78
CC
C0
C0
C0
CC
78
ENDCHAR
STARTCHAR Ccircumflex
ENCODING 264
SWIDTH 722 0
DWIDTH 8 0
BBX 7 12 0 0
BITMAP
18
28
00
3C
6E
C6
C0
C0
C0
C6
6E
3C
ENDCHAR
STARTCHAR ccircumflex
ENCODING 265
SWIDTH 556 0
DWIDTH 7 0
BBX 6 11 0 0
BITMAP
10
28
48
00
78
CC
C0
C0
C0
CC
78
ENDCHAR
STARTCHAR Cdotaccent
ENCODING 266
SWIDTH 722 0
DWIDTH 8 0
BBX 7 11 0 0
BITMAP
18
00
3C
6E
C6
C0
C0
C0
C6
6E
3C
ENDCHAR
STARTCHAR cdotaccent
ENCODING 267
SWIDTH 556 0
DWIDTH 7 0
BBX 6 9 0 0
BITMAP
18
00
78
CC
C0
C0
C0
CC
78
ENDCHAR
STARTCHAR Ccaron
ENCODING 268
SWIDTH 722 0
DWIDTH 8 0
BBX 7 12 0 0
BITMAP
28
18
00
3C
6E
C6
C0
C0
C0
C6
6E
3C
ENDCHAR
STARTCHAR ccaron
ENCODING 269
SWIDTH 556 0
DWIDTH 7 0
BBX 6 11 0 0
BITMAP
48
28
10
00
78
CC
C0
C0
C0
CC
78
ENDCHAR
STARTCHAR Dcaron
ENCODING 270
SWIDTH 722 0
DWIDTH 8 0
BBX 7 12 0 0
BITMAP
68
30
00
F8
CC
C6
C6
C6
C6
C6
CC
F8
ENDCHAR
STARTCHAR dcaron
ENCODING 271
SWIDTH 719 0
DWIDTH 9 0
BBX 8 9 0 0
BITMAP
0D
0E
7C
CC
CC
CC
CC
CC
7C
ENDCHAR
STARTCHAR Dcroat
ENCODING 272
SWIDTH 722 0
DWIDTH 9 0
BBX 8 9 0 0
BITMAP
7C
66
63
63
FB
63
63
66
7C
ENDCHAR
STARTCHAR dcroat
ENCODING 273
SWIDTH 611 0
DWIDTH 7 0
BBX 7 9 0 0
BITMAP
0C
3E
0C
7C
CC
CC
CC
CC
7C
ENDCHAR
STARTCHAR Emacron
ENCODING 274
SWIDTH 667 0
DWIDTH 7 0
BBX 6 11 0 0
BITMAP
78
00
FC
C0
C0
C0
FC
C0
C0
C0
FC
ENDCHAR
STARTCHAR emacron
ENCODING 275
SWIDTH 556 0
DWIDTH 7 0
BBX 6 9 0 0
BITMAP
78
00
78
CC
CC
FC
C0
CC
78
ENDCHAR
STARTCHAR Ebreve
ENCODING 276
SWIDTH 667 0
DWIDTH 7 0
BBX 6 12 0 0
BITMAP
48
30
00
FC
C0
C0
C0
FC
C0
C0
C0
FC
ENDCHAR
STARTCHAR ebreve
ENCODING 277
SWIDTH 556 0
DWIDTH 7 0
BBX 6 11 0 0
BITMAP
24
28
38
00
78
CC
CC
FC
C0
CC
78
ENDCHAR
STARTCHAR Edotaccent
ENCODING 278
SWIDTH 667 0
DWIDTH 7 0
BBX 6 11 0 0
BITMAP
30
00
FC
C0
C0
C0
FC
C0
C0
C0
FC
ENDCHAR
STARTCHAR edotaccent
ENCODING 279
SWIDTH 556 0
DWIDTH 7 0
BBX 6 9 0 0
BITMAP
30
00
78
CC
CC
FC
C0
CC
78
ENDCHAR
STARTCHAR Eogonek
ENCODING 280
SWIDTH 667 0
DWIDTH 7 0
BBX 6 12 0 -3
BITMAP
FC
C0
C0
C0
FC
C0
C0
C0
FC
08
10
0C
ENDCHAR
STARTCHAR eogonek
ENCODING 281
SWIDTH 556 0
DWIDTH 7 0
BBX 6 10 0 -3
BITMAP
78
CC
CC
FC
C0
CC
78
10
10
1C
ENDCHAR
STARTCHAR Ecaron
ENCODING 282
SWIDTH 667 0
DWIDTH 7 0
BBX 6 12 0 0
BITMAP
68
30
00
FC
C0
C0
C0
FC
C0
C0
C0
FC
ENDCHAR
STARTCHAR ecaron
ENCODING 283
SWIDTH 556 0
DWIDTH 7 0
BBX 6 11 0 0
BITMAP
48
28
10
00
78
CC
CC
FC
C0
CC
78
ENDCHAR
STARTCHAR Gcircumflex
ENCODING 284
SWIDTH 778 0
DWIDTH 8 0
BBX 7 12 0 0
BITMAP
18
28
00
3C
6E
C6
C0
C0
CE
C6
66
3C
ENDCHAR
STARTCHAR gcircumflex
ENCODING 285
SWIDTH 611 0
DWIDTH 7 0
BBX 6 14 0 -3
BITMAP
10
28
48
00
7C
CC
CC
CC
CC
CC
7C
0C
CC
78
ENDCHAR
STARTCHAR Gbreve
ENCODING 286
SWIDTH 778 0
DWIDTH 8 0
BBX 7 12 0 0
BITMAP
24
38
00
3C
6E
C6
C0
C0
CE
C6
66
3C
ENDCHAR
STARTCHAR gbreve
ENCODING 287
SWIDTH 611 0
DWIDTH 7 0
BBX 6 14 0 -3
BITMAP
48
58
30
00
7C
CC
CC
CC
CC
CC
7C
0C
CC
78
ENDCHAR
STARTCHAR Gdotaccent
ENCODING 288
SWIDTH 778 0
DWIDTH 8 0
BBX 7 11 0 0
BITMAP
18
00
3C
6E
C6
C0
C0
CE
C6
66
3C
ENDCHAR
STARTCHAR gdotaccent
ENCODING 289
SWIDTH 611 0
DWIDTH 7 0
BBX 6 12 0 -3
BITMAP
18
00
7C
CC
CC
CC
CC
CC
7C
0C
CC
78
ENDCHAR
STARTCHAR Gcommaaccent
ENCODING 290
SWIDTH 778 0
DWIDTH 8 0
BBX 7 12 0 -3
BITMAP
3C
6E
C6
C0
C0
CE
C6
66
3C
00
18
08
ENDCHAR
STARTCHAR gcommaaccent
ENCODING 291
SWIDTH 611 0
DWIDTH 7 0
BBX 6 13 0 -3
BITMAP
10
10
00
7C
CC
CC
CC
CC
CC
7C
0C
CC
78
ENDCHAR
STARTCHAR Hcircumflex
ENCODING 292
SWIDTH 722 0
DWIDTH 8 0
BBX 7 12 0 0
BITMAP
10
28
00
C6
C6
C6
C6
FE
C6
C6
C6
C6
ENDCHAR
STARTCHAR hcircumflex
ENCODING 293
SWIDTH 611 0
DWIDTH 7 0
BBX 6 12 0 0
BITMAP
18
28
00
C0
C0
F8
CC
CC
CC
CC
CC
CC
ENDCHAR
STARTCHAR Hbar
ENCODING 294
SWIDTH 722 0
DWIDTH 8 0
BBX 9 9 -1 0
BITMAP
6300
FF80
6300
6300
7F00
6300
6300
6300
6300
ENDCHAR
STARTCHAR hbar
ENCODING 295
SWIDTH 611 0
DWIDTH 7 0
BBX 7 9 -1 0
BITMAP
60
F0
7C
66
66
66
66
66
66
ENDCHAR
STARTCHAR Itilde
ENCODING 296
SWIDTH 278 0
DWIDTH 3 0
BBX 4 12 0 0
BITMAP
D0
A0
00
C0
C0
C0
C0
C0
C0
C0
C0
C0
ENDCHAR
STARTCHAR itilde
ENCODING 297
SWIDTH 278 0
DWIDTH 3 0
BBX 4 10 -1 0
BITMAP
70
B0
00
60
60
60
60
60
60
60
ENDCHAR
STARTCHAR Imacron
ENCODING 298
SWIDTH 278 0
DWIDTH 3 0
BBX 4 11 0 0
BITMAP
F0
00
C0
C0
C0
C0
C0
C0
C0
C0
C0
ENDCHAR
STARTCHAR imacron
ENCODING 299
SWIDTH 278 0
DWIDTH 3 0
BBX 4 9 0 0
BITMAP
F0
00
C0
C0
C0
C0
C0
C0
C0
ENDCHAR
STARTCHAR Ibreve
ENCODING 300
SWIDTH 278 0
DWIDTH 3 0
BBX 4 12 0 0
BITMAP
B0
E0
00
C0
C0
C0
C0
C0
C0
C0
C0
C0
ENDCHAR
STARTCHAR ibreve
ENCODING 301
SWIDTH 278 0
DWIDTH 3 0
BBX 4 11 -1 0
BITMAP
90
90
60
00
60
60
60
60
60
60
60
ENDCHAR
STARTCHAR Iogonek
ENCODING 302
SWIDTH 278 0
DWIDTH 3 0
BBX 3 12 0 -3
BITMAP
C0
C0
C0
C0
C0
C0
C0
C0
C0
40
80
E0
ENDCHAR
STARTCHAR iogonek
ENCODING 303
SWIDTH 278 0
DWIDTH 3 0
BBX 3 12 0 -3
BITMAP
C0
00
C0
C0
C0
C0
C0
C0
C0
80
80
E0
ENDCHAR
STARTCHAR Idotaccent
ENCODING 304
SWIDTH 278 0
DWIDTH 3 0
BBX 3 11 0 0
BITMAP
60
00
C0
C0
C0
C0
C0
C0
C0
C0
C0
ENDCHAR
STARTCHAR dotlessi
ENCODING 305
SWIDTH 278 0
DWIDTH 3 0
BBX 2 7 0 0
BITMAP
C0
C0
C0
C0
C0
C0
C0
ENDCHAR
STARTCHAR IJ
ENCODING 306
SWIDTH 785 0
DWIDTH 9 0
BBX 8 9 0 0
BITMAP
CF
C3
C3
C3
C3
C3
F3
F2
DE
ENDCHAR
STARTCHAR ij
ENCODING 307
SWIDTH 556 0
DWIDTH 6 0
BBX 5 12 0 -3
BITMAP
D8
00
D8
D8
D8
D8
D8
D8
D8
18
18
38
ENDCHAR
STARTCHAR Jcircumflex
ENCODING 308
SWIDTH 556 0
DWIDTH 7 0
BBX 6 12 0 0
BITMAP
18
24
00
3C
0C
0C
0C
0C
0C
CC
CC
78
ENDCHAR
STARTCHAR jcircumflex
ENCODING 309
SWIDTH 278 0
DWIDTH 3 0
BBX 4 14 -1 -3
BITMAP
60
60
90
00
60
60
60
60
60
60
60
60
60
E0
ENDCHAR
STARTCHAR Kcommaaccent
ENCODING 310
SWIDTH 722 0
DWIDTH 8 0
BBX 7 12 0 -3
BITMAP
C6
CC
D8
F0
F0
D8
CC
CC
C6
00
18
08
ENDCHAR
STARTCHAR kcommaaccent
ENCODING 311
SWIDTH 556 0
DWIDTH 7 0
BBX 6 12 0 -3
BITMAP
C0
C0
CC
D8
F0
F0
D8
D8
CC
00
30
10
ENDCHAR
STARTCHAR kgreenlandic
ENCODING 312
SWIDTH 556 0
DWIDTH 7 0
BBX 6 7 0 0
BITMAP
CC
D8
F0
F0
D8
C8
CC
ENDCHAR
STARTCHAR Lacute
ENCODING 313
SWIDTH 611 0
DWIDTH 7 0
BBX 6 12 0 0
BITMAP
30
60
00
C0
C0
C0
C0
C0
C0
C0
C0
FC
ENDCHAR
STARTCHAR lacute
ENCODING 314
SWIDTH 278 0
DWIDTH 3 0
BBX 3 12 0 0
BITMAP
20
C0
00
C0
C0
C0
C0
C0
C0
C0
C0
C0
ENDCHAR
STARTCHAR Lcommaaccent
ENCODING 315
SWIDTH 611 0
DWIDTH 7 0
BBX 6 12 0 -3
BITMAP
C0
C0
C0
C0
C0
C0
C0
C0
FC
00
30
10
ENDCHAR
STARTCHAR lcommaaccent
ENCODING 316
SWIDTH 278 0
DWIDTH 3 0
BBX 2 12 0 -3
BITMAP
C0
C0
C0
C0
C0
C0
C0
C0
C0
00
C0
40
ENDCHAR
STARTCHAR Lcaron
ENCODING 317
SWIDTH 611 0
DWIDTH 7 0
BBX 6 9 0 0
BITMAP
C8
C8
C0
C0
C0
C0
C0
C0
FC
ENDCHAR
STARTCHAR lcaron
ENCODING 318
SWIDTH 385 0
DWIDTH 5 0
BBX 4 9 0 0
BITMAP
D0
E0
C0
C0
C0
C0
C0
C0
C0
ENDCHAR
STARTCHAR Ldot
ENCODING 319
SWIDTH 611 0
DWIDTH 7 0
BBX 6 9 0 0
BITMAP
C0
C0
C0
C0
D8
C0
C0
C0
FC
ENDCHAR
STARTCHAR ldot
ENCODING 320
SWIDTH 479 0
DWIDTH 6 0
BBX 5 9 0 0
BITMAP
C0
C0
C0
C0
D8
C0
C0
C0
C0
ENDCHAR
STARTCHAR Lslash
ENCODING 321
SWIDTH 611 0
DWIDTH 7 0
BBX 6 9 0 0
BITMAP
60
60
60
68
78
E0
E0
60
7C
ENDCHAR
STARTCHAR lslash
ENCODING 322
SWIDTH 278 0
DWIDTH 3 0
BBX 4 9 -1 0
BITMAP
60
60
60
70
60
E0
60
60
60
ENDCHAR
STARTCHAR Nacute
ENCODING 323
SWIDTH 722 0
DWIDTH 8 0
BBX 7 12 0 0
BITMAP
0C
10
00
C6
E6
E6
D6
D6
D6
CE
CE
C6
ENDCHAR
STARTCHAR nacute
ENCODING 324
SWIDTH 611 0
DWIDTH 7 0
BBX 6 11 0 0
BITMAP
08
10
30
00
F8
CC
CC
CC
CC
CC
CC
ENDCHAR
STARTCHAR Ncommaaccent
ENCODING 325
SWIDTH 722 0
DWIDTH 8 0
BBX 7 12 0 -3
BITMAP
C6
E6
E6
D6
D6
D6
CE
CE
C6
00
18
08
ENDCHAR
STARTCHAR ncommaaccent
ENCODING 326
SWIDTH 611 0
DWIDTH 7 0
BBX 6 10 0 -3
BITMAP
F8
CC
CC
CC
CC
CC
CC
00
30
10
ENDCHAR
STARTCHAR Ncaron
ENCODING 327
SWIDTH 722 0
DWIDTH 8 0
BBX 7 12 0 0
BITMAP
28
30
00
C6
E6
E6
D6
D6
D6
CE
CE
C6
ENDCHAR
STARTCHAR ncaron
ENCODING 328
SWIDTH 611 0
DWIDTH 7 0
BBX 6 11 0 0
BITMAP
28
28
10
00
F8
CC
CC
CC
CC
CC
CC
ENDCHAR
STARTCHAR napostrophe
ENCODING 329
SWIDTH 708 0
DWIDTH 9 0
BBX 8 9 0 0
BITMAP
C0
C0
76
FB
33
33
33
33
33
ENDCHAR
STARTCHAR Eng
ENCODING 330
SWIDTH 723 0
DWIDTH 9 0
BBX 8 9 0 0
BITMAP
DE
E3
C3
C3
C3
C3
C3
D3
CE
ENDCHAR
STARTCHAR eng
ENCODING 331
SWIDTH 611 0
DWIDTH 7 0
BBX 6 10 0 -3
BITMAP
F8
CC
CC
CC
CC
CC
CC
0C
0C
1C
ENDCHAR
STARTCHAR Omacron
ENCODING 332
SWIDTH 778 0
DWIDTH 9 0
BBX 8 11 0 0
BITMAP
1E
00
3C
66
C3
C3
C3
C3
C3
66
3C
ENDCHAR
STARTCHAR omacron
ENCODING 333
SWIDTH 611 0
DWIDTH 7 0
BBX 6 9 0 0
BITMAP
3C
00
78
CC
CC
CC
CC
CC
78
ENDCHAR
STARTCHAR Obreve
ENCODING 334
SWIDTH 778 0
DWIDTH 9 0
BBX 8 12 0 0
BITMAP
14
1C
00
3C
66
C3
C3
C3
C3
C3
66
3C
ENDCHAR
STARTCHAR obreve
ENCODING 335
SWIDTH 611 0
DWIDTH 7 0
BBX 6 11 0 0
BITMAP
48
48
30
00
78
CC
CC
CC
CC
CC
78
ENDCHAR
STARTCHAR Ohungarumlaut
ENCODING 336
SWIDTH 778 0
DWIDTH 9 0
BBX 8 12 0 0
BITMAP
1B
36
00
3C
66
C3
C3
C3
C3
C3
66
3C
ENDCHAR
STARTCHAR ohungarumlaut
ENCODING 337
SWIDTH 611 0
DWIDTH 7 0
BBX 7 11 0 0
BITMAP
12
24
6C
00
78
CC
CC
CC
CC
CC
78
ENDCHAR
STARTCHAR OE
ENCODING 338
SWIDTH 1000 0
DWIDTH 13 0
BBX 12 9 0 0
BITMAP
3FF0
6300
C300
C300
C3F0
C300
C300
6300
3FF0
ENDCHAR
STARTCHAR oe
ENCODING 339
SWIDTH 944 0
DWIDTH 11 0
BBX 10 7 0 0
BITMAP
7F80
CCC0
CCC0
CFC0
CC00
CCC0
7780
ENDCHAR
STARTCHAR Racute
ENCODING 340
SWIDTH 722 0
DWIDTH 8 0
BBX 7 12 0 0
BITMAP
08
10
00
FC
C6
C6
C6
FC
CC
CC
C6
C6
ENDCHAR
STARTCHAR racute
ENCODING 341
SWIDTH 389 0
DWIDTH 5 0
BBX 4 11 0 0
BITMAP
10
20
40
00
F0
C0
C0
C0
C0
C0
C0
ENDCHAR
STARTCHAR Rcommaaccent
ENCODING 342
SWIDTH 722 0
DWIDTH 8 0
BBX 7 12 0 -3
BITMAP
FC
C6
C6
C6
FC
CC
CC
C6
C6
00
18
08
ENDCHAR
STARTCHAR rcommaaccent
ENCODING 343
SWIDTH 389 0
DWIDTH 5 0
BBX 4 10 0 -3
BITMAP
F0
C0
C0
C0
C0
C0
C0
00
C0
40
ENDCHAR
STARTCHAR Rcaron
ENCODING 344
SWIDTH 722 0
DWIDTH 8 0
BBX 7 12 0 0
BITMAP
68
30
00
FC
C6
C6
C6
FC
CC
CC
C6
C6
ENDCHAR
STARTCHAR rcaron
ENCODING 345
SWIDTH 389 0
DWIDTH 5 0
BBX 4 11 0 0
BITMAP
90
50
20
00
F0
C0
C0
C0
C0
C0
C0
ENDCHAR
STARTCHAR Sacute
ENCODING 346
SWIDTH 667 0
DWIDTH 8 0
BBX 7 12 0 0
BITMAP
0C
10
00
7C
C6
C0
E0
7C
0E
06
C6
7C
ENDCHAR
STARTCHAR sacute
ENCODING 347
SWIDTH 556 0
DWIDTH 7 0
BBX 6 11 0 0
BITMAP
18
10
20
00
78
CC
E0
78
0C
CC
78
ENDCHAR
STARTCHAR Scircumflex
ENCODING 348
SWIDTH 667 0
DWIDTH 8 0
BBX 7 12 0 0
BITMAP
18
24
00
7C
C6
C0
E0
7C
0E
06
C6
7C
ENDCHAR
STARTCHAR scircumflex
ENCODING 349
SWIDTH 556 0
DWIDTH 7 0
BBX 6 11 0 0
BITMAP
30
30
48
00
78
CC
E0
78
0C
CC
78
ENDCHAR
STARTCHAR Scedilla
ENCODING 350
SWIDTH 667 0
DWIDTH 8 0
BBX 7 12 0 -3
BITMAP
7C
C6
C0
E0
7C
0E
06
C6
7C
08
08
18
ENDCHAR
STARTCHAR scedilla
ENCODING 351
SWIDTH 556 0
DWIDTH 7 0
BBX 6 10 0 -3
BITMAP
78
CC
E0
78
0C
CC
78
10
08
10
ENDCHAR
STARTCHAR Scaron
ENCODING 352
SWIDTH 667 0
DWIDTH 8 0
BBX 7 12 0 0
BITMAP
24
18
00
7C
C6
C0
E0
7C
0E
06
C6
7C
ENDCHAR
STARTCHAR scaron
ENCODING 353
SWIDTH 556 0
DWIDTH 7 0
BBX 6 11 0 0
BITMAP
48
28
10
00
78
CC
E0
78
0C
CC
78
ENDCHAR
STARTCHAR Tcommaaccent
ENCODING 354
SWIDTH 611 0
DWIDTH 7 0
BBX 6 12 1 -3
BITMAP
FC
30
30
30
30
30
30
30
30
30
10
30
ENDCHAR
STARTCHAR tcommaaccent
ENCODING 355
SWIDTH 333 0
DWIDTH 4 0
BBX 4 11 0 -3
BITMAP
60
F0
60
60
60
60
60
70
20
20
60
ENDCHAR
STARTCHAR Tcaron
ENCODING 356
SWIDTH 611 0
DWIDTH 7 0
BBX 6 12 0 0
BITMAP
28
18
00
FC
30
30
30
30
30
30
30
30
ENDCHAR
STARTCHAR tcaron
ENCODING 357
SWIDTH 479 0
DWIDTH 6 0
BBX 6 9 0 0
BITMAP
04
64
F0
60
60
60
60
60
70
ENDCHAR
STARTCHAR Tbar
ENCODING 358
SWIDTH 611 0
DWIDTH 7 0
BBX 6 9 0 0
BITMAP
FC
30
30
30
78
30
30
30
30
ENDCHAR
STARTCHAR tbar
ENCODING 359
SWIDTH 333 0
DWIDTH 4 0
BBX 4 8 0 0
BITMAP
60
F0
60
60
F0
60
60
70
ENDCHAR
STARTCHAR Utilde
ENCODING 360
SWIDTH 722 0
DWIDTH 8 0
BBX 7 12 0 0
BITMAP
28
58
00
C6
C6
C6
C6
C6
C6
C6
C6
7C
ENDCHAR
STARTCHAR utilde
ENCODING 361
SWIDTH 611 0
DWIDTH 7 0
BBX 7 10 0 0
BITMAP
24
58
00
C6
C6
C6
C6
C6
CE
76
ENDCHAR
STARTCHAR Umacron
ENCODING 362
SWIDTH 722 0
DWIDTH 8 0
BBX 7 11 0 0
BITMAP
78
00
C6
C6
C6
C6
C6
C6
C6
C6
7C
ENDCHAR
STARTCHAR umacron
ENCODING 363
SWIDTH 611 0
DWIDTH 7 0
BBX 7 9 0 0
BITMAP
3C
00
C6
C6
C6
C6
C6
CE
76
ENDCHAR
STARTCHAR Ubreve
ENCODING 364
SWIDTH 722 0
DWIDTH 8 0
BBX 7 12 0 0
BITMAP
48
38
00
C6
C6
C6
C6
C6
C6
C6
C6
7C
ENDCHAR
STARTCHAR ubreve
ENCODING 365
SWIDTH 611 0
DWIDTH 7 0
BBX 7 11 0 0
BITMAP
24
24
18
00
C6
C6
C6
C6
C6
CE
76
ENDCHAR
STARTCHAR Uring
ENCODING 366
SWIDTH 722 0
DWIDTH 8 0
BBX 7 13 0 0
BITMAP
18
14
18
00
C6
C6
C6
C6
C6
C6
C6
C6
7C
ENDCHAR
STARTCHAR uring
ENCODING 367
SWIDTH 611 0
DWIDTH 7 0
BBX 7 10 0 0
BITMAP
38
28
38
C6
C6
C6
C6
C6
CE
76
ENDCHAR
STARTCHAR Uhungarumlaut
ENCODING 368
SWIDTH 722 0
DWIDTH 8 0
BBX 8 12 0 0
BITMAP
1B
24
00
C6
C6
C6
C6
C6
C6
C6
C6
7C
ENDCHAR
STARTCHAR uhungarumlaut
ENCODING 369
SWIDTH 611 0
DWIDTH 7 0
BBX 7 11 0 0
BITMAP
12
24
48
00
C6
C6
C6
C6
C6
CE
76
ENDCHAR
STARTCHAR Uogonek
ENCODING 370
SWIDTH 722 0
DWIDTH 8 0
BBX 7 12 0 -3
BITMAP
C6
C6
C6
C6
C6
C6
C6
C6
7C
10
20
18
ENDCHAR
STARTCHAR uogonek
ENCODING 371
SWIDTH 611 0
DWIDTH 7 0
BBX 7 10 0 -3
BITMAP
C6
C6
C6
C6
C6
CE
76
08
08
0E
ENDCHAR
STARTCHAR Wcircumflex
ENCODING 372
SWIDTH 944 0
DWIDTH 10 0
BBX 12 12 -1 0
BITMAP
0600
0A00
0000
C630
C630
CF20
4F60
6960
6960
39C0
39C0
30C0
ENDCHAR
STARTCHAR wcircumflex
ENCODING 373
SWIDTH 778 0
DWIDTH 10 0
BBX 9 11 0 0
BITMAP
0800
1400
1400
0000
8880
D580
D580
5500
5500
7700
6300
ENDCHAR
STARTCHAR Ycircumflex
ENCODING 374
SWIDTH 667 0
DWIDTH 7 0
BBX 6 12 0 0
BITMAP
30
48
00
CC
CC
48
78
30
30
30
30
30
ENDCHAR
STARTCHAR ycircumflex
ENCODING 375
SWIDTH 556 0
DWIDTH 6 0
BBX 5 14 0 -3
BITMAP
10
28
48
00
D8
D8
D8
50
50
70
20
20
60
C0
ENDCHAR
STARTCHAR Ydieresis
ENCODING 376
SWIDTH 667 0
DWIDTH 7 0
BBX 6 11 0 0
BITMAP
48
00
CC
CC
48
78
30
30
30
30
30
ENDCHAR
STARTCHAR Zacute
ENCODING 377
SWIDTH 611 0
DWIDTH 7 0
BBX 6 12 0 0
BITMAP
08
10
00
FC
0C
18
10
30
20
60
C0
FC
ENDCHAR
STARTCHAR zacute
ENCODING 378
SWIDTH 500 0
DWIDTH 6 0
BBX 5 11 0 0
BITMAP
10
30
20
00
F8
18
30
30
60
C0
F8
ENDCHAR
STARTCHAR Zdotaccent
ENCODING 379
SWIDTH 611 0
DWIDTH 7 0
BBX 6 11 0 0
BITMAP
18
00
FC
0C
18
10
30
20
60
C0
FC
ENDCHAR
STARTCHAR zdotaccent
ENCODING 380
SWIDTH 500 0
DWIDTH 6 0
BBX 5 9 0 0
BITMAP
30
00
F8
18
30
30
60
C0
F8
ENDCHAR
STARTCHAR Zcaron
ENCODING 381
SWIDTH 611 0
DWIDTH 7 0
BBX 6 12 0 0
BITMAP
2C
18
00
FC
0C
18
10
30
20
60
C0
FC
ENDCHAR
STARTCHAR zcaron
ENCODING 382
SWIDTH 500 0
DWIDTH 6 0
BBX 5 11 0 0
BITMAP
48
30
30
00
F8
18
30
30
60
C0
F8
ENDCHAR
STARTCHAR longs
ENCODING 383
SWIDTH 278 0
DWIDTH 3 0
BBX 3 9 0 0
BITMAP
E0
C0
C0
C0
C0
C0
C0
C0
C0
ENDCHAR
STARTCHAR florin
ENCODING 402
SWIDTH 556 0
DWIDTH 7 0
BBX 5 12 1 -3
BITMAP
38
20
60
F0
60
60
60
40
C0
C0
C0
C0
ENDCHAR
STARTCHAR Aringacute
ENCODING 506
SWIDTH 722 0
DWIDTH 8 0
BBX 7 13 0 0
BITMAP
0C
18
18
14
38
28
6C
6C
6C
7C
6C
C6
C6
ENDCHAR
STARTCHAR aringacute
ENCODING 507
SWIDTH 556 0
DWIDTH 7 0
BBX 7 13 0 0
BITMAP
04
08
30
28
30
00
78
CC
0C
7C
CC
CC
76
ENDCHAR
STARTCHAR AEacute
ENCODING 508
SWIDTH 1000 0
DWIDTH 13 0
BBX 12 12 0 0
BITMAP
00C0
0100
0000
0FF0
0B00
1B00
1B00
33F0
3300
7F00
6300
C3F0
ENDCHAR
STARTCHAR aeacute
ENCODING 509
SWIDTH 889 0
DWIDTH 11 0
BBX 10 11 0 0
BITMAP
0200
0400
0800
0000
7F80
CCC0
0CC0
7FC0
CC00
CCC0
7780
ENDCHAR
STARTCHAR Oslashacute
ENCODING 510
SWIDTH 778 0
DWIDTH 9 0
BBX 8 12 0 0
BITMAP
04
18
00
3E
66
CB
CB
D3
D3
D3
66
7C
ENDCHAR
STARTCHAR oslashacute
ENCODING 511
SWIDTH 611 0
DWIDTH 7 0
BBX 6 11 0 0
BITMAP
08
10
30
00
7C
CC
DC
EC
EC
CC
F8
ENDCHAR
STARTCHAR Scommaaccent
ENCODING 536
SWIDTH 667 0
DWIDTH 8 0
BBX 7 12 0 -3
BITMAP
7C
C6
C0
E0
7C
0E
06
C6
7C
00
18
08
ENDCHAR
STARTCHAR scommaaccent
ENCODING 537
SWIDTH 556 0
DWIDTH 7 0
BBX 6 10 0 -3
BITMAP
78
CC
E0
78
0C
CC
78
00
18
08
ENDCHAR
STARTCHAR uni021A
ENCODING 538
SWIDTH 611 0
DWIDTH 7 0
BBX 6 12 0 -3
BITMAP
FC
30
30
30
30
30
30
30
30
00
18
08
ENDCHAR
STARTCHAR uni021B
ENCODING 539
SWIDTH 333 0
DWIDTH 4 0
BBX 4 11 0 -3
BITMAP
60
F0
60
60
60
60
60
70
00
30
10
ENDCHAR
STARTCHAR circumflex
ENCODING 710
SWIDTH 333 0
DWIDTH 4 0
BBX 4 3 0 8
BITMAP
60
60
90
ENDCHAR
STARTCHAR caron
ENCODING 711
SWIDTH 333 0
DWIDTH 4 0
BBX 4 3 0 8
BITMAP
90
60
60
ENDCHAR
STARTCHAR uni02C9
ENCODING 713
SWIDTH 333 0
DWIDTH 4 0
BBX 4 1 0 8
BITMAP
F0
ENDCHAR
STARTCHAR breve
ENCODING 728
SWIDTH 333 0
DWIDTH 4 0
BBX 4 3 0 8
BITMAP
90
90
60
ENDCHAR
STARTCHAR dotaccent
ENCODING 729
SWIDTH 333 0
DWIDTH 4 0
BBX 2 1 1 8
BITMAP
C0
ENDCHAR
STARTCHAR ring
ENCODING 730
SWIDTH 333 0
DWIDTH 4 0
BBX 3 3 0 7
BITMAP
E0
A0
E0
ENDCHAR
STARTCHAR ogonek
ENCODING 731
SWIDTH 333 0
DWIDTH 4 0
BBX 3 3 0 -3
BITMAP
80
80
E0
ENDCHAR
STARTCHAR tilde
ENCODING 732
SWIDTH 333 0
DWIDTH 4 0
BBX 4 2 0 8
BITMAP
D0
B0
ENDCHAR
STARTCHAR hungarumlaut
ENCODING 733
SWIDTH 333 0
DWIDTH 4 0
BBX 6 3 -1 8
BITMAP
24
48
90
ENDCHAR
STARTCHAR semicolon
ENCODING 894
SWIDTH 333 0
DWIDTH 3 0
BBX 2 9 0 -2
BITMAP
C0
C0
00
00
00
C0
C0
40
80
ENDCHAR
STARTCHAR tonos
ENCODING 900
SWIDTH 333 0
DWIDTH 4 0
BBX 2 3 1 8
BITMAP
40
C0
80
ENDCHAR
STARTCHAR dieresistonos
ENCODING 901
SWIDTH 465 0
DWIDTH 6 0
BBX 5 3 0 8
BITMAP
10
30
A8
ENDCHAR
STARTCHAR Alphatonos
ENCODING 902
SWIDTH 722 0
DWIDTH 8 0
BBX 8 9 -1 0
BITMAP
5C
54
B6
36
36
3E
36
63
63
ENDCHAR
STARTCHAR anoteleia
ENCODING 903
SWIDTH 333 0
DWIDTH 4 0
BBX 2 2 1 3
BITMAP
C0
C0
ENDCHAR
STARTCHAR Epsilontonos
ENCODING 904
SWIDTH 853 0
DWIDTH 10 0
BBX 9 9 0 0
BITMAP
5F80
5800
9800
1800
1F80
1800
1800
1800
1F80
ENDCHAR
STARTCHAR Etatonos
ENCODING 905
SWIDTH 906 0
DWIDTH 11 0
BBX 10 9 0 0
BITMAP
58C0
58C0
98C0
18C0
1FC0
18C0
18C0
18C0
18C0
ENDCHAR
STARTCHAR Iotatonos
ENCODING 906
SWIDTH 474 0
DWIDTH 6 0
BBX 5 9 0 0
BITMAP
58
58
98
18
18
18
18
18
18
ENDCHAR
STARTCHAR Omicrontonos
ENCODING 908
SWIDTH 825 0
DWIDTH 10 0
BBX 10 9 -1 0
BITMAP
5F00
B180
B180
3080
30C0
3080
3180
3180
1F00
ENDCHAR
STARTCHAR Upsilontonos
ENCODING 910
SWIDTH 927 0
DWIDTH 11 0
BBX 8 9 2 0
BITMAP
F3
93
9A
1E
0C
0C
0C
0C
0C
ENDCHAR
STARTCHAR Omegatonos
ENCODING 911
SWIDTH 838 0
DWIDTH 10 0
BBX 10 9 -1 0
BITMAP
DF00
B1C0
B0C0
60C0
60C0
30C0
30C0
1980
7BC0
ENDCHAR
STARTCHAR iotadieresistonos
ENCODING 912
SWIDTH 278 0
DWIDTH 3 0
BBX 5 11 -1 0
BITMAP
10
20
A8
00
60
60
60
60
60
60
60
ENDCHAR
STARTCHAR Alpha
ENCODING 913
SWIDTH 722 0
DWIDTH 8 0
BBX 7 9 0 0
BITMAP
38
28
6C
6C
6C
7C
6C
C6
C6
ENDCHAR
STARTCHAR Beta
ENCODING 914
SWIDTH 722 0
DWIDTH 8 0
BBX 7 9 0 0
BITMAP
FC
C6
C6
C6
FC
C6
C6
C6
FC
ENDCHAR
STARTCHAR Gamma
ENCODING 915
SWIDTH 601 0
DWIDTH 7 0
BBX 6 9 0 0
BITMAP
FC
C0
C0
C0
C0
C0
C0
C0
C0
ENDCHAR
STARTCHAR Delta
ENCODING 916
SWIDTH 719 0
DWIDTH 9 0
BBX 7 9 1 0
BITMAP
38
38
6C
6C
6C
6C
C6
C6
FE
ENDCHAR
STARTCHAR Epsilon
ENCODING 917
SWIDTH 667 0
DWIDTH 7 0
BBX 6 9 0 0
BITMAP
FC
C0
C0
C0
FC
C0
C0
C0
FC
ENDCHAR
STARTCHAR Zeta
ENCODING 918
SWIDTH 611 0
DWIDTH 7 0
BBX 6 9 0 0
BITMAP
FC
0C
18
10
30
20
60
C0
FC
ENDCHAR
STARTCHAR Eta
ENCODING 919
SWIDTH 722 0
DWIDTH 8 0
BBX 7 9 0 0
BITMAP
C6
C6
C6
C6
FE
C6
C6
C6
C6
ENDCHAR
STARTCHAR Theta
ENCODING 920
SWIDTH 778 0
DWIDTH 9 0
BBX 8 9 0 0
BITMAP
3C
66
C3
C3
DB
C3
C3
66
3C
ENDCHAR
STARTCHAR Iota
ENCODING 921
SWIDTH 278 0
DWIDTH 3 0
BBX 2 9 0 0
BITMAP
C0
C0
C0
C0
C0
C0
C0
C0
C0
ENDCHAR
STARTCHAR Kappa
ENCODING 922
SWIDTH 722 0
DWIDTH 8 0
BBX 7 9 0 0
BITMAP
C6
CC
D8
F0
F0
D8
CC
CC
C6
ENDCHAR
STARTCHAR Lambda
ENCODING 923
SWIDTH 667 0
DWIDTH 8 0
BBX 7 9 0 0
BITMAP
38
38
28
6C
6C
6C
C6
C6
C6
ENDCHAR
STARTCHAR Mu
ENCODING 924
SWIDTH 833 0
DWIDTH 10 0
BBX 9 9 0 0
BITMAP
E380
E380
E380
F780
D580
D580
D580
DD80
C980
ENDCHAR
STARTCHAR Nu
ENCODING 925
SWIDTH 722 0
DWIDTH 8 0
BBX 7 9 0 0
BITMAP
C6
E6
E6
D6
D6
D6
CE
CE
C6
ENDCHAR
STARTCHAR Xi
ENCODING 926
SWIDTH 644 0
DWIDTH 8 0
BBX 7 9 0 0
BITMAP
FE
00
00
00
7C
00
00
00
FE
ENDCHAR
STARTCHAR Omicron
ENCODING 927
SWIDTH 778 0
DWIDTH 9 0
BBX 8 9 0 0
BITMAP
3C
66
C3
C3
C3
C3
C3
66
3C
ENDCHAR
STARTCHAR Pi
ENCODING 928
SWIDTH 722 0
DWIDTH 9 0
BBX 8 9 0 0
BITMAP
FF
C3
C3
C3
C3
C3
C3
C3
C3
ENDCHAR
STARTCHAR Rho
ENCODING 929
SWIDTH 667 0
DWIDTH 8 0
BBX 7 9 0 0
BITMAP
FC
C6
C6
C6
FC
C0
C0
C0
C0
ENDCHAR
STARTCHAR Sigma
ENCODING 931
SWIDTH 600 0
DWIDTH 7 0
BBX 6 9 0 0
BITMAP
FC
C0
60
70
30
70
60
C0
FC
ENDCHAR
STARTCHAR Tau
ENCODING 932
SWIDTH 611 0
DWIDTH 7 0
BBX 6 9 0 0
BITMAP
FC
30
30
30
30
30
30
30
30
ENDCHAR
STARTCHAR Upsilon
ENCODING 933
SWIDTH 667 0
DWIDTH 7 0
BBX 6 9 0 0
BITMAP
CC
CC
48
78
30
30
30
30
30
ENDCHAR
STARTCHAR Phi
ENCODING 934
SWIDTH 821 0
DWIDTH 11 0
BBX 10 9 0 0
BITMAP
0C00
3F00
EDC0
CCC0
CCC0
CCC0
6D80
3F00
0C00
ENDCHAR
STARTCHAR Chi
ENCODING 935
SWIDTH 667 0
DWIDTH 8 0
BBX 7 9 0 0
BITMAP
C6
44
6C
38
38
38
6C
44
C6
ENDCHAR
STARTCHAR Psi
ENCODING 936
SWIDTH 809 0
DWIDTH 9 0
BBX 8 9 0 0
BITMAP
DB
DB
DB
DB
DB
7E
18
18
18
ENDCHAR
STARTCHAR Omega
ENCODING 937
SWIDTH 802 0
DWIDTH 10 0
BBX 9 9 0 0
BITMAP
3E00
6300
C180
C180
C180
C180
6300
2200
F780
ENDCHAR
STARTCHAR Iotadieresis
ENCODING 938
SWIDTH 278 0
DWIDTH 3 0
BBX 4 11 0 0
BITMAP
90
00
C0
C0
C0
C0
C0
C0
C0
C0
C0
ENDCHAR
STARTCHAR Upsilondieresis
ENCODING 939
SWIDTH 667 0
DWIDTH 7 0
BBX 6 11 0 0
BITMAP
48
00
CC
CC
48
78
30
30
30
30
30
ENDCHAR
STARTCHAR alphatonos
ENCODING 940
SWIDTH 615 0
DWIDTH 7 0
BBX 6 11 0 0
BITMAP
10
30
20
00
6C
D8
D8
D8
D8
D8
6C
ENDCHAR
STARTCHAR epsilontonos
ENCODING 941
SWIDTH 451 0
DWIDTH 6 0
BBX 6 11 0 0
BITMAP
10
10
30
00
78
CC
C0
30
C0
CC
78
ENDCHAR
STARTCHAR etatonos
ENCODING 942
SWIDTH 611 0
DWIDTH 7 0
BBX 6 14 0 -3
BITMAP
08
08
10
00
F8
CC
CC
CC
CC
CC
CC
0C
0C
0C
ENDCHAR
STARTCHAR iotatonos
ENCODING 943
SWIDTH 278 0
DWIDTH 3 0
BBX 3 11 0 0
BITMAP
20
60
40
00
C0
C0
C0
C0
C0
C0
C0
ENDCHAR
STARTCHAR upsilondieresistonos
ENCODING 944
SWIDTH 582 0
DWIDTH 7 0
BBX 6 11 0 0
BITMAP
08
10
54
00
D8
CC
CC
CC
CC
CC
78
ENDCHAR
STARTCHAR alpha
ENCODING 945
SWIDTH 615 0
DWIDTH 7 0
BBX 6 7 0 0
BITMAP
6C
D8
D8
D8
D8
D8
6C
ENDCHAR
STARTCHAR beta
ENCODING 946
SWIDTH 610 0
DWIDTH 7 0
BBX 6 12 0 -3
BITMAP
78
CC
CC
CC
D8
CC
CC
CC
F8
C0
C0
C0
ENDCHAR
STARTCHAR gamma
ENCODING 947
SWIDTH 556 0
DWIDTH 7 0
BBX 6 10 0 -3
BITMAP
CC
CC
4C
68
68
38
30
30
30
30
ENDCHAR
STARTCHAR delta
ENCODING 948
SWIDTH 606 0
DWIDTH 7 0
BBX 6 9 0 0
BITMAP
7C
70
30
38
5C
CC
CC
CC
78
ENDCHAR
STARTCHAR epsilon
ENCODING 949
SWIDTH 475 0
DWIDTH 6 0
BBX 6 7 0 0
BITMAP
78
CC
C0
30
C0
CC
78
ENDCHAR
STARTCHAR zeta
ENCODING 950
SWIDTH 460 0
DWIDTH 6 0
BBX 5 11 0 -2
BITMAP
F8
18
30
60
40
C0
C0
F0
78
18
18
ENDCHAR
STARTCHAR eta
ENCODING 951
SWIDTH 611 0
DWIDTH 7 0
BBX 6 10 0 -3
BITMAP
F8
CC
CC
CC
CC
CC
CC
0C
0C
0C
ENDCHAR
STARTCHAR theta
ENCODING 952
SWIDTH 541 0
DWIDTH 6 0
BBX 5 9 0 0
BITMAP
70
D8
D8
D8
F8
D8
D8
D8
70
ENDCHAR
STARTCHAR iota
ENCODING 953
SWIDTH 278 0
DWIDTH 3 0
BBX 3 7 0 0
BITMAP
C0
C0
C0
C0
C0
C0
C0
ENDCHAR
STARTCHAR kappa
ENCODING 954
SWIDTH 558 0
DWIDTH 7 0
BBX 6 7 0 0
BITMAP
CC
D8
D0
F0
D8
C8
CC
ENDCHAR
STARTCHAR lambda
ENCODING 955
SWIDTH 556 0
DWIDTH 7 0
BBX 6 9 0 0
BITMAP
E0
30
30
30
38
68
68
CC
CC
ENDCHAR
STARTCHAR mu
ENCODING 956
SWIDTH 612 0
DWIDTH 7 0
BBX 6 10 0 -3
BITMAP
CC
CC
CC
CC
CC
CC
FC
C0
C0
C0
ENDCHAR
STARTCHAR nu
ENCODING 957
SWIDTH 556 0
DWIDTH 6 0
BBX 5 7 0 0
BITMAP
D8
D8
D8
58
50
70
60
ENDCHAR
STARTCHAR xi
ENCODING 958
SWIDTH 445 0
DWIDTH 5 0
BBX 5 11 0 -2
BITMAP
F8
40
C0
30
60
C0
C0
F0
38
18
18
ENDCHAR
STARTCHAR omicron
ENCODING 959
SWIDTH 611 0
DWIDTH 7 0
BBX 6 7 0 0
BITMAP
78
CC
CC
CC
CC
CC
78
ENDCHAR
STARTCHAR pi
ENCODING 960
SWIDTH 766 0
DWIDTH 9 0
BBX 8 7 0 0
BITMAP
FF
66
66
66
66
66
C7
ENDCHAR
STARTCHAR rho
ENCODING 961
SWIDTH 619 0
DWIDTH 7 0
BBX 6 10 0 -3
BITMAP
78
C8
CC
CC
CC
CC
F8
C0
C0
C0
ENDCHAR
STARTCHAR sigma1
ENCODING 962
SWIDTH 520 0
DWIDTH 6 0
BBX 5 9 0 -2
BITMAP
78
68
C0
C0
C0
F0
78
18
18
ENDCHAR
STARTCHAR sigma
ENCODING 963
SWIDTH 684 0
DWIDTH 8 0
BBX 7 7 0 0
BITMAP
7E
E8
CC
CC
CC
CC
78
ENDCHAR
STARTCHAR tau
ENCODING 964
SWIDTH 446 0
DWIDTH 5 0
BBX 4 7 0 0
BITMAP
F0
60
60
60
60
60
70
ENDCHAR
STARTCHAR upsilon
ENCODING 965
SWIDTH 582 0
DWIDTH 7 0
BBX 6 7 0 0
BITMAP
D8
CC
CC
CC
CC
CC
78
ENDCHAR
STARTCHAR phi
ENCODING 966
SWIDTH 715 0
DWIDTH 9 0
BBX 8 10 0 -3
BITMAP
6E
DB
DB
DB
DB
DB
7E
18
18
18
ENDCHAR
STARTCHAR chi
ENCODING 967
SWIDTH 576 0
DWIDTH 7 0
BBX 6 10 0 -3
BITMAP
CC
6C
38
38
30
30
78
48
CC
CC
ENDCHAR
STARTCHAR psi
ENCODING 968
SWIDTH 753 0
DWIDTH 9 0
BBX 8 12 0 -3
BITMAP
18
18
DB
DB
DB
DB
DB
DB
7E
18
18
18
ENDCHAR
STARTCHAR omega
ENCODING 969
SWIDTH 845 0
DWIDTH 11 0
BBX 10 7 0 0
BITMAP
6180
4080
C0C0
CCC0
CCC0
CCC0
7380
ENDCHAR
STARTCHAR iotadieresis
ENCODING 970
SWIDTH 278 0
DWIDTH 3 0
BBX 4 9 0 0
BITMAP
90
00
C0
C0
C0
C0
C0
C0
C0
ENDCHAR
STARTCHAR upsilondieresis
ENCODING 971
SWIDTH 582 0
DWIDTH 7 0
BBX 6 9 0 0
BITMAP
48
00
D8
CC
CC
CC
CC
CC
78
ENDCHAR
STARTCHAR omicrontonos
ENCODING 972
SWIDTH 611 0
DWIDTH 7 0
BBX 6 11 0 0
BITMAP
08
18
10
00
78
CC
CC
CC
CC
CC
78
ENDCHAR
STARTCHAR upsilontonos
ENCODING 973
SWIDTH 582 0
DWIDTH 7 0
BBX 6 11 0 0
BITMAP
18
10
10
00
D8
CC
CC
CC
CC
CC
78
ENDCHAR
STARTCHAR omegatonos
ENCODING 974
SWIDTH 845 0
DWIDTH 11 0
BBX 10 11 0 0
BITMAP
0400
0400
0400
0000
6180
4080
C0C0
CCC0
CCC0
CCC0
7380
ENDCHAR
STARTCHAR afii10023
ENCODING 1025
SWIDTH 669 0
DWIDTH 7 0
BBX 6 11 0 0
BITMAP
48
00
FC
C0
C0
C0
FC
C0
C0
C0
FC
ENDCHAR
STARTCHAR afii10051
ENCODING 1026
SWIDTH 885 0
DWIDTH 11 0
BBX 10 9 0 0
BITMAP
FC00
3000
3000
3F80
30C0
30C0
30C0
34C0
3780
ENDCHAR
STARTCHAR afii10052
ENCODING 1027
SWIDTH 567 0
DWIDTH 7 0
BBX 6 12 1 0
BITMAP
08
30
00
FC
C0
C0
C0
C0
C0
C0
C0
C0
ENDCHAR
STARTCHAR afii10053
ENCODING 1028
SWIDTH 711 0
DWIDTH 9 0
BBX 8 9 0 0
BITMAP
3C
67
C3
C0
F8
C0
C3
66
3C
ENDCHAR
STARTCHAR afii10054
ENCODING 1029
SWIDTH 667 0
DWIDTH 8 0
BBX 7 9 0 0
BITMAP
7C
C6
C0
E0
7C
0E
06
C6
7C
ENDCHAR
STARTCHAR afii10055
ENCODING 1030
SWIDTH 278 0
DWIDTH 3 0
BBX 2 9 0 0
BITMAP
C0
C0
C0
C0
C0
C0
C0
C0
C0
ENDCHAR
STARTCHAR afii10056
ENCODING 1031
SWIDTH 276 0
DWIDTH 3 0
BBX 4 11 0 0
BITMAP
90
00
C0
C0
C0
C0
C0
C0
C0
C0
C0
ENDCHAR
STARTCHAR afii10057
ENCODING 1032
SWIDTH 556 0
DWIDTH 7 0
BBX 6 9 0 0
BITMAP
3C
0C
0C
0C
0C
0C
CC
CC
78
ENDCHAR
STARTCHAR afii10058
ENCODING 1033
SWIDTH 1094 0
DWIDTH 13 0
BBX 12 9 0 0
BITMAP
3E00
3600
3600
2600
67E0
6630
6630
6630
C7E0
ENDCHAR
STARTCHAR afii10059
ENCODING 1034
SWIDTH 1063 0
DWIDTH 13 0
BBX 11 9 1 0
BITMAP
C600
C600
C600
C600
FFC0
C660
C660
C660
C7C0
ENDCHAR
STARTCHAR afii10060
ENCODING 1035
SWIDTH 875 0
DWIDTH 11 0
BBX 10 9 0 0
BITMAP
FC00
3000
3000
3F80
30C0
30C0
30C0
30C0
30C0
ENDCHAR
STARTCHAR afii10061
ENCODING 1036
SWIDTH 610 0
DWIDTH 7 0
BBX 7 12 0 0
BITMAP
08
10
00
C6
CC
C8
D8
F0
D8
CC
CC
C6
ENDCHAR
STARTCHAR afii10062
ENCODING 1038
SWIDTH 622 0
DWIDTH 7 0
BBX 6 12 0 0
BITMAP
48
70
00
CC
CC
48
78
38
30
30
20
E0
ENDCHAR
STARTCHAR afii10145
ENCODING 1039
SWIDTH 719 0
DWIDTH 8 0
BBX 7 11 0 -2
BITMAP
C6
C6
C6
C6
C6
C6
C6
C6
FE
18
18
ENDCHAR
STARTCHAR afii10017
ENCODING 1040
SWIDTH 722 0
DWIDTH 8 0
BBX 7 9 0 0
BITMAP
38
28
6C
6C
6C
7C
6C
C6
C6
ENDCHAR
STARTCHAR afii10018
ENCODING 1041
SWIDTH 719 0
DWIDTH 8 0
BBX 6 9 1 0
BITMAP
FC
C0
C0
C0
F8
CC
CC
CC
F8
ENDCHAR
STARTCHAR afii10019
ENCODING 1042
SWIDTH 722 0
DWIDTH 8 0
BBX 7 9 0 0
BITMAP
FC
C6
C6
C6
FC
C6
C6
C6
FC
ENDCHAR
STARTCHAR afii10020
ENCODING 1043
SWIDTH 567 0
DWIDTH 7 0
BBX 6 9 0 0
BITMAP
FC
C0
C0
C0
C0
C0
C0
C0
C0
ENDCHAR
STARTCHAR afii10021
ENCODING 1044
SWIDTH 712 0
DWIDTH 9 0
BBX 9 11 0 -2
BITMAP
1F00
1B00
1B00
1B00
3300
3300
3300
6300
FF80
C180
C180
ENDCHAR
STARTCHAR afii10022
ENCODING 1045
SWIDTH 667 0
DWIDTH 7 0
BBX 6 9 0 0
BITMAP
FC
C0
C0
C0
FC
C0
C0
C0
FC
ENDCHAR
STARTCHAR afii10024
ENCODING 1046
SWIDTH 904 0
DWIDTH 11 0
BBX 10 9 0 0
BITMAP
CCC0
4C80
6D80
2D00
3F00
2D00
6D80
4C80
CCC0
ENDCHAR
STARTCHAR afii10025
ENCODING 1047
SWIDTH 626 0
DWIDTH 8 0
BBX 7 9 0 0
BITMAP
3C
66
C6
06
18
06
C6
E6
7C
ENDCHAR
STARTCHAR afii10026
ENCODING 1048
SWIDTH 719 0
DWIDTH 8 0
BBX 7 9 0 0
BITMAP
CE
CE
CE
D6
D6
D6
E6
E6
E6
ENDCHAR
STARTCHAR afii10027
ENCODING 1049
SWIDTH 719 0
DWIDTH 8 0
BBX 7 12 0 0
BITMAP
48
38
00
CE
CE
CE
D6
D6
D6
E6
E6
E6
ENDCHAR
STARTCHAR afii10028
ENCODING 1050
SWIDTH 610 0
DWIDTH 7 0
BBX 7 9 0 0
BITMAP
C6
CC
C8
D8
F0
D8
CC
CC
C6
ENDCHAR
STARTCHAR afii10029
ENCODING 1051
SWIDTH 702 0
DWIDTH 8 0
BBX 7 9 0 0
BITMAP
3E
36
36
26
66
66
66
66
C6
ENDCHAR
STARTCHAR afii10030
ENCODING 1052
SWIDTH 833 0
DWIDTH 10 0
BBX 9 9 0 0
BITMAP
E380
E380
E380
F780
D580
D580
D580
DD80
C980
ENDCHAR
STARTCHAR afii10031
ENCODING 1053
SWIDTH 722 0
DWIDTH 8 0
BBX 7 9 0 0
BITMAP
C6
C6
C6
C6
FE
C6
C6
C6
C6
ENDCHAR
STARTCHAR afii10032
ENCODING 1054
SWIDTH 778 0
DWIDTH 9 0
BBX 8 9 0 0
BITMAP
3C
66
C3
C3
C3
C3
C3
66
3C
ENDCHAR
STARTCHAR afii10033
ENCODING 1055
SWIDTH 719 0
DWIDTH 9 0
BBX 8 9 0 0
BITMAP
FF
C3
C3
C3
C3
C3
C3
C3
C3
ENDCHAR
STARTCHAR afii10034
ENCODING 1056
SWIDTH 667 0
DWIDTH 8 0
BBX 7 9 0 0
BITMAP
FC
C6
C6
C6
FC
C0
C0
C0
C0
ENDCHAR
STARTCHAR afii10035
ENCODING 1057
SWIDTH 722 0
DWIDTH 8 0
BBX 7 9 0 0
BITMAP
3C
6E
C6
C0
C0
C0
C6
6E
3C
ENDCHAR
STARTCHAR afii10036
ENCODING 1058
SWIDTH 611 0
DWIDTH 7 0
BBX 6 9 0 0
BITMAP
FC
30
30
30
30
30
30
30
30
ENDCHAR
STARTCHAR afii10037
ENCODING 1059
SWIDTH 622 0
DWIDTH 7 0
BBX 6 9 0 0
BITMAP
CC
CC
48
68
38
30
30
20
E0
ENDCHAR
STARTCHAR afii10038
ENCODING 1060
SWIDTH 854 0
DWIDTH 11 0
BBX 10 9 0 0
BITMAP
0C00
7F80
EDC0
CCC0
CCC0
CCC0
6D80
3F00
0C00
ENDCHAR
STARTCHAR afii10039
ENCODING 1061
SWIDTH 667 0
DWIDTH 8 0
BBX 7 9 0 0
BITMAP
C6
44
6C
38
38
38
6C
44
C6
ENDCHAR
STARTCHAR afii10040
ENCODING 1062
SWIDTH 730 0
DWIDTH 9 0
BBX 9 11 0 -2
BITMAP
C300
C300
C300
C300
C300
C300
C300
C300
FF80
0180
0180
ENDCHAR
STARTCHAR afii10041
ENCODING 1063
SWIDTH 703 0
DWIDTH 8 0
BBX 7 9 0 0
BITMAP
C6
C6
C6
C6
C6
7E
06
06
06
ENDCHAR
STARTCHAR afii10042
ENCODING 1064
SWIDTH 1005 0
DWIDTH 11 0
BBX 10 9 0 0
BITMAP
CCC0
CCC0
CCC0
CCC0
CCC0
CCC0
CCC0
CCC0
FFC0
ENDCHAR
STARTCHAR afii10043
ENCODING 1065
SWIDTH 1019 0
DWIDTH 11 0
BBX 11 11 0 -2
BITMAP
CCC0
CCC0
CCC0
CCC0
CCC0
CCC0
CCC0
CCC0
FFE0
0060
0060
ENDCHAR
STARTCHAR afii10044
ENCODING 1066
SWIDTH 870 0
DWIDTH 10 0
BBX 9 9 0 0
BITMAP
F800
1800
1800
1800
1F00
1980
1980
1980
1F00
ENDCHAR
STARTCHAR afii10045
ENCODING 1067
SWIDTH 979 0
DWIDTH 12 0
BBX 10 9 1 0
BITMAP
C0C0
C0C0
C0C0
C0C0
FCC0
C6C0
C6C0
C6C0
FCC0
ENDCHAR
STARTCHAR afii10046
ENCODING 1068
SWIDTH 719 0
DWIDTH 8 0
BBX 6 9 1 0
BITMAP
C0
C0
C0
C0
F8
CC
CC
CC
F8
ENDCHAR
STARTCHAR afii10047
ENCODING 1069
SWIDTH 711 0
DWIDTH 9 0
BBX 8 9 0 0
BITMAP
3C
E6
C3
03
1F
03
C3
66
3C
ENDCHAR
STARTCHAR afii10048
ENCODING 1070
SWIDTH 1031 0
DWIDTH 12 0
BBX 11 9 0 0
BITMAP
C380
C6C0
CC60
CC60
FC60
CC60
CC60
C6C0
C380
ENDCHAR
STARTCHAR afii10049
ENCODING 1071
SWIDTH 719 0
DWIDTH 8 0
BBX 7 9 0 0
BITMAP
7E
C6
C6
C6
7E
66
66
C6
C6
ENDCHAR
STARTCHAR afii10065
ENCODING 1072
SWIDTH 556 0
DWIDTH 7 0
BBX 7 7 0 0
BITMAP
78
CC
0C
7C
CC
CC
76
ENDCHAR
STARTCHAR afii10066
ENCODING 1073
SWIDTH 618 0
DWIDTH 7 0
BBX 6 9 0 0
BITMAP
1C
78
C0
B8
CC
CC
CC
CC
78
ENDCHAR
STARTCHAR afii10067
ENCODING 1074
SWIDTH 615 0
DWIDTH 7 0
BBX 6 7 0 0
BITMAP
F8
CC
CC
F8
CC
CC
F8
ENDCHAR
STARTCHAR afii10068
ENCODING 1075
SWIDTH 417 0
DWIDTH 5 0
BBX 4 7 0 0
BITMAP
F0
C0
C0
C0
C0
C0
C0
ENDCHAR
STARTCHAR afii10069
ENCODING 1076
SWIDTH 635 0
DWIDTH 8 0
BBX 8 9 0 -2
BITMAP
3E
36
26
26
66
66
FF
C3
C3
ENDCHAR
STARTCHAR afii10070
ENCODING 1077
SWIDTH 556 0
DWIDTH 7 0
BBX 6 7 0 0
BITMAP
78
CC
CC
FC
C0
CC
78
ENDCHAR
STARTCHAR afii10072
ENCODING 1078
SWIDTH 709 0
DWIDTH 9 0
BBX 8 7 0 0
BITMAP
DB
DA
5A
7E
5A
DB
DB
ENDCHAR
STARTCHAR afii10073
ENCODING 1079
SWIDTH 497 0
DWIDTH 6 0
BBX 5 7 0 0
BITMAP
70
D8
18
30
18
D8
70
ENDCHAR
STARTCHAR afii10074
ENCODING 1080
SWIDTH 615 0
DWIDTH 7 0
BBX 6 7 0 0
BITMAP
CC
DC
DC
FC
EC
EC
CC
ENDCHAR
STARTCHAR afii10075
ENCODING 1081
SWIDTH 615 0
DWIDTH 7 0
BBX 6 10 0 0
BITMAP
24
38
00
CC
DC
DC
FC
EC
EC
CC
ENDCHAR
STARTCHAR afii10076
ENCODING 1082
SWIDTH 500 0
DWIDTH 6 0
BBX 6 7 0 0
BITMAP
C8
D8
D0
F0
D0
D8
C8
ENDCHAR
STARTCHAR afii10077
ENCODING 1083
SWIDTH 635 0
DWIDTH 8 0
BBX 7 7 0 0
BITMAP
3E
36
36
26
66
66
C6
ENDCHAR
STARTCHAR afii10078
ENCODING 1084
SWIDTH 740 0
DWIDTH 8 0
BBX 7 7 0 0
BITMAP
EE
EE
EE
EE
EE
D6
D6
ENDCHAR
STARTCHAR afii10079
ENCODING 1085
SWIDTH 604 0
DWIDTH 7 0
BBX 6 7 0 0
BITMAP
CC
CC
CC
FC
CC
CC
CC
ENDCHAR
STARTCHAR afii10080
ENCODING 1086
SWIDTH 611 0
DWIDTH 7 0
BBX 6 7 0 0
BITMAP
78
CC
CC
CC
CC
CC
78
ENDCHAR
STARTCHAR afii10081
ENCODING 1087
SWIDTH 604 0
DWIDTH 7 0
BBX 6 7 0 0
BITMAP
FC
CC
CC
CC
CC
CC
CC
ENDCHAR
STARTCHAR afii10082
ENCODING 1088
SWIDTH 611 0
DWIDTH 7 0
BBX 6 10 0 -3
BITMAP
F8
CC
CC
CC
CC
CC
F8
C0
C0
C0
ENDCHAR
STARTCHAR afii10083
ENCODING 1089
SWIDTH 556 0
DWIDTH 7 0
BBX 6 7 0 0
BITMAP
78
CC
C0
C0
C0
CC
78
ENDCHAR
STARTCHAR afii10084
ENCODING 1090
SWIDTH 490 0
DWIDTH 5 0
BBX 4 7 0 0
BITMAP
F0
60
60
60
60
60
60
ENDCHAR
STARTCHAR afii10085
ENCODING 1091
SWIDTH 556 0
DWIDTH 6 0
BBX 5 10 0 -3
BITMAP
D8
D8
D8
50
50
70
20
20
60
C0
ENDCHAR
STARTCHAR afii10086
ENCODING 1092
SWIDTH 875 0
DWIDTH 11 0
BBX 10 12 0 -3
BITMAP
0C00
0C00
7F80
CCC0
CCC0
CCC0
CCC0
CCC0
7F80
0C00
0C00
0C00
ENDCHAR
STARTCHAR afii10087
ENCODING 1093
SWIDTH 556 0
DWIDTH 7 0
BBX 6 7 0 0
BITMAP
CC
58
78
30
70
58
CC
ENDCHAR
STARTCHAR afii10088
ENCODING 1094
SWIDTH 615 0
DWIDTH 7 0
BBX 7 9 0 -2
BITMAP
CC
CC
CC
CC
CC
CC
FE
06
06
ENDCHAR
STARTCHAR afii10089
ENCODING 1095
SWIDTH 581 0
DWIDTH 7 0
BBX 6 7 0 0
BITMAP
CC
CC
CC
CC
7C
0C
0C
ENDCHAR
STARTCHAR afii10090
ENCODING 1096
SWIDTH 833 0
DWIDTH 9 0
BBX 8 7 0 0
BITMAP
DB
DB
DB
DB
DB
DB
FF
ENDCHAR
STARTCHAR afii10091
ENCODING 1097
SWIDTH 844 0
DWIDTH 9 0
BBX 9 9 0 -2
BITMAP
DB00
DB00
DB00
DB00
DB00
DB00
FF80
0180
0180
ENDCHAR
STARTCHAR afii10092
ENCODING 1098
SWIDTH 729 0
DWIDTH 9 0
BBX 8 7 0 0
BITMAP
F0
30
30
3E
33
33
3E
ENDCHAR
STARTCHAR afii10093
ENCODING 1099
SWIDTH 854 0
DWIDTH 10 0
BBX 9 7 0 0
BITMAP
C180
C180
C180
F980
CD80
CD80
F980
ENDCHAR
STARTCHAR afii10094
ENCODING 1100
SWIDTH 615 0
DWIDTH 7 0
BBX 6 7 0 0
BITMAP
C0
C0
C0
F8
CC
CC
F8
ENDCHAR
STARTCHAR afii10095
ENCODING 1101
SWIDTH 552 0
DWIDTH 7 0
BBX 6 7 0 0
BITMAP
78
CC
0C
3C
0C
CC
78
ENDCHAR
STARTCHAR afii10096
ENCODING 1102
SWIDTH 854 0
DWIDTH 10 0
BBX 9 7 0 0
BITMAP
CF00
D980
D980
F980
D980
D980
CF00
ENDCHAR
STARTCHAR afii10097
ENCODING 1103
SWIDTH 583 0
DWIDTH 7 0
BBX 6 7 0 0
BITMAP
7C
CC
CC
7C
6C
4C
CC
ENDCHAR
STARTCHAR afii10071
ENCODING 1105
SWIDTH 556 0
DWIDTH 7 0
BBX 6 9 0 0
BITMAP
48
00
78
CC
CC
FC
C0
CC
78
ENDCHAR
STARTCHAR afii10099
ENCODING 1106
SWIDTH 611 0
DWIDTH 7 0
BBX 7 12 -1 -3
BITMAP
60
F8
60
7C
66
66
66
66
66
06
06
0E
ENDCHAR
STARTCHAR afii10100
ENCODING 1107
SWIDTH 417 0
DWIDTH 5 0
BBX 4 11 0 0
BITMAP
10
20
60
00
F0
C0
C0
C0
C0
C0
C0
ENDCHAR
STARTCHAR afii10101
ENCODING 1108
SWIDTH 552 0
DWIDTH 7 0
BBX 6 7 0 0
BITMAP
78
CC
C0
F0
C0
CC
78
ENDCHAR
STARTCHAR afii10102
ENCODING 1109
SWIDTH 556 0
DWIDTH 7 0
BBX 6 7 0 0
BITMAP
78
CC
E0
78
0C
CC
78
ENDCHAR
STARTCHAR afii10103
ENCODING 1110
SWIDTH 278 0
DWIDTH 3 0
BBX 3 9 0 0
BITMAP
60
00
C0
C0
C0
C0
C0
C0
C0
ENDCHAR
STARTCHAR afii10104
ENCODING 1111
SWIDTH 281 0
DWIDTH 3 0
BBX 4 9 0 0
BITMAP
90
00
C0
C0
C0
C0
C0
C0
C0
ENDCHAR
STARTCHAR afii10105
ENCODING 1112
SWIDTH 278 0
DWIDTH 3 0
BBX 3 12 -1 -3
BITMAP
60
00
60
60
60
60
60
60
60
60
60
E0
ENDCHAR
STARTCHAR afii10106
ENCODING 1113
SWIDTH 969 0
DWIDTH 12 0
BBX 11 7 0 0
BITMAP
3E00
3600
3600
27C0
6660
6660
C7C0
ENDCHAR
STARTCHAR afii10107
ENCODING 1114
SWIDTH 906 0
DWIDTH 11 0
BBX 10 7 0 0
BITMAP
CC00
CC00
CC00
FF80
CCC0
CCC0
CF80
ENDCHAR
STARTCHAR afii10108
ENCODING 1115
SWIDTH 611 0
DWIDTH 7 0
BBX 7 9 -1 0
BITMAP
60
F8
60
7C
66
66
66
66
66
ENDCHAR
STARTCHAR afii10109
ENCODING 1116
SWIDTH 500 0
DWIDTH 6 0
BBX 6 11 0 0
BITMAP
08
10
20
00
C8
D8
D0
F0
D0
D8
C8
ENDCHAR
STARTCHAR afii10110
ENCODING 1118
SWIDTH 556 0
DWIDTH 6 0
BBX 5 13 0 -3
BITMAP
90
70
00
D8
D8
D8
50
50
70
20
20
60
C0
ENDCHAR
STARTCHAR afii10193
ENCODING 1119
SWIDTH 604 0
DWIDTH 8 0
BBX 7 9 0 -2
BITMAP
C6
C6
C6
C6
C6
C6
FE
18
18
ENDCHAR
STARTCHAR afii10050
ENCODING 1168
SWIDTH 487 0
DWIDTH 6 0
BBX 5 11 0 0
BITMAP
18
18
F8
C0
C0
C0
C0
C0
C0
C0
C0
ENDCHAR
STARTCHAR afii10098
ENCODING 1169
SWIDTH 447 0
DWIDTH 5 0
BBX 4 9 0 0
BITMAP
30
30
F0
C0
C0
C0
C0
C0
C0
ENDCHAR
STARTCHAR Wgrave
ENCODING 7808
SWIDTH 944 0
DWIDTH 10 0
BBX 12 12 -1 0
BITMAP
0400
0200
0000
C630
C630
CF20
4F60
6960
6960
39C0
39C0
30C0
ENDCHAR
STARTCHAR wgrave
ENCODING 7809
SWIDTH 778 0
DWIDTH 10 0
BBX 9 11 0 0
BITMAP
3000
1000
0800
0000
8880
D580
D580
5500
5500
7700
6300
ENDCHAR
STARTCHAR Wacute
ENCODING 7810
SWIDTH 944 0
DWIDTH 10 0
BBX 12 12 -1 0
BITMAP
0100
0200
0000
C630
C630
CF20
4F60
6960
6960
39C0
39C0
30C0
ENDCHAR
STARTCHAR wacute
ENCODING 7811
SWIDTH 778 0
DWIDTH 10 0
BBX 9 11 0 0
BITMAP
0200
0400
0C00
0000
8880
D580
D580
5500
5500
7700
6300
ENDCHAR
STARTCHAR Wdieresis
ENCODING 7812
SWIDTH 944 0
DWIDTH 10 0
BBX 12 11 -1 0
BITMAP
0900
0000
C630
C630
CF20
4F60
6960
6960
39C0
39C0
30C0
ENDCHAR
STARTCHAR wdieresis
ENCODING 7813
SWIDTH 778 0
DWIDTH 10 0
BBX 9 9 0 0
BITMAP
1200
0000
8880
D580
D580
5500
5500
7700
6300
ENDCHAR
STARTCHAR Ygrave
ENCODING 7922
SWIDTH 667 0
DWIDTH 7 0
BBX 6 12 0 0
BITMAP
20
10
00
CC
CC
48
78
30
30
30
30
30
ENDCHAR
STARTCHAR ygrave
ENCODING 7923
SWIDTH 556 0
DWIDTH 6 0
BBX 5 14 0 -3
BITMAP
40
20
30
00
D8
D8
D8
50
50
70
20
20
60
C0
ENDCHAR
STARTCHAR uni2010
ENCODING 8208
SWIDTH 333 0
DWIDTH 4 0
BBX 4 1 0 3
BITMAP
F0
ENDCHAR
STARTCHAR uni2011
ENCODING 8209
SWIDTH 333 0
DWIDTH 4 0
BBX 4 1 0 3
BITMAP
F0
ENDCHAR
STARTCHAR figuredash
ENCODING 8210
SWIDTH 333 0
DWIDTH 4 0
BBX 4 1 0 3
BITMAP
F0
ENDCHAR
STARTCHAR endash
ENCODING 8211
SWIDTH 556 0
DWIDTH 7 0
BBX 6 1 0 3
BITMAP
FC
ENDCHAR
STARTCHAR emdash
ENCODING 8212
SWIDTH 1000 0
DWIDTH 12 0
BBX 12 1 0 3
BITMAP
FFF0
ENDCHAR
STARTCHAR afii00208
ENCODING 8213
SWIDTH 1000 0
DWIDTH 12 0
BBX 12 1 0 3
BITMAP
FFF0
ENDCHAR
STARTCHAR underscoredbl
ENCODING 8215
SWIDTH 552 0
DWIDTH 7 0
BBX 7 3 0 -4
BITMAP
FE
00
FE
ENDCHAR
STARTCHAR quoteleft
ENCODING 8216
SWIDTH 278 0
DWIDTH 3 0
BBX 2 4 0 5
BITMAP
40
80
C0
C0
ENDCHAR
STARTCHAR quoteright
ENCODING 8217
SWIDTH 278 0
DWIDTH 3 0
BBX 2 4 0 5
BITMAP
C0
C0
40
80
ENDCHAR
STARTCHAR quotesinglbase
ENCODING 8218
SWIDTH 278 0
DWIDTH 3 0
BBX 2 4 0 -2
BITMAP
C0
C0
40
80
ENDCHAR
STARTCHAR quotereversed
ENCODING 8219
SWIDTH 278 0
DWIDTH 3 0
BBX 2 4 0 5
BITMAP
C0
C0
80
40
ENDCHAR
STARTCHAR quotedblleft
ENCODING 8220
SWIDTH 500 0
DWIDTH 6 0
BBX 5 4 0 5
BITMAP
48
90
D8
D8
ENDCHAR
STARTCHAR quotedblright
ENCODING 8221
SWIDTH 500 0
DWIDTH 6 0
BBX 5 4 0 5
BITMAP
D8
D8
48
90
ENDCHAR
STARTCHAR quotedblbase
ENCODING 8222
SWIDTH 500 0
DWIDTH 6 0
BBX 5 4 0 -2
BITMAP
D8
D8
48
90
ENDCHAR
STARTCHAR dagger
ENCODING 8224
SWIDTH 556 0
DWIDTH 7 0
BBX 6 10 0 -1
BITMAP
30
30
FC
30
30
30
30
30
30
30
ENDCHAR
STARTCHAR daggerdbl
ENCODING 8225
SWIDTH 556 0
DWIDTH 7 0
BBX 6 10 0 -1
BITMAP
30
30
FC
30
30
30
30
FC
30
30
ENDCHAR
STARTCHAR bullet
ENCODING 8226
SWIDTH 350 0
DWIDTH 4 0
BBX 3 3 0 2
BITMAP
E0
E0
E0
ENDCHAR
STARTCHAR ellipsis
ENCODING 8230
SWIDTH 1000 0
DWIDTH 12 0
BBX 10 2 0 0
BITMAP
CCC0
CCC0
ENDCHAR
STARTCHAR perthousand
ENCODING 8240
SWIDTH 1000 0
DWIDTH 11 0
BBX 10 9 0 0
BITMAP
E400
AC00
A800
F800
1000
3FC0
2B40
6B40
4FC0
ENDCHAR
STARTCHAR minute
ENCODING 8242
SWIDTH 240 0
DWIDTH 3 0
BBX 2 3 1 6
BITMAP
C0
80
80
ENDCHAR
STARTCHAR second
ENCODING 8243
SWIDTH 479 0
DWIDTH 6 0
BBX 5 3 1 6
BITMAP
D8
90
90
ENDCHAR
STARTCHAR guilsinglleft
ENCODING 8249
SWIDTH 333 0
DWIDTH 4 0
BBX 3 5 0 1
BITMAP
20
40
80
40
20
ENDCHAR
STARTCHAR guilsinglright
ENCODING 8250
SWIDTH 333 0
DWIDTH 4 0
BBX 3 5 0 1
BITMAP
80
40
20
40
80
ENDCHAR
STARTCHAR exclamdbl
ENCODING 8252
SWIDTH 604 0
DWIDTH 7 0
BBX 5 9 0 0
BITMAP
D8
D8
D8
D8
D8
D8
00
D8
D8
ENDCHAR
STARTCHAR uni203E
ENCODING 8254
SWIDTH 333 0
DWIDTH 4 0
BBX 6 1 -1 9
BITMAP
FC
ENDCHAR
STARTCHAR fraction
ENCODING 8260
SWIDTH 167 0
DWIDTH 2 0
BBX 6 9 -2 0
BITMAP
04
08
08
10
30
20
40
40
80
ENDCHAR
STARTCHAR uni207F
ENCODING 8319
SWIDTH 396 0
DWIDTH 5 0
BBX 4 4 0 3
BITMAP
F0
90
90
90
ENDCHAR
STARTCHAR franc
ENCODING 8355
SWIDTH 556 0
DWIDTH 7 0
BBX 6 9 0 0
BITMAP
7C
60
60
60
7C
60
F0
60
60
ENDCHAR
STARTCHAR lira
ENCODING 8356
SWIDTH 556 0
DWIDTH 7 0
BBX 6 9 0 0
BITMAP
38
6C
60
F8
60
F8
60
6C
F8
ENDCHAR
STARTCHAR peseta
ENCODING 8359
SWIDTH 1094 0
DWIDTH 13 0
BBX 12 9 0 0
BITMAP
F000
D800
D800
DB00
FFE0
C3D0
C3F0
C3B0
C3F0
ENDCHAR
STARTCHAR Euro
ENCODING 8364
SWIDTH 556 0
DWIDTH 7 0
BBX 6 9 0 0
BITMAP
38
6C
60
F0
60
F0
60
6C
38
ENDCHAR
STARTCHAR afii61248
ENCODING 8453
SWIDTH 885 0
DWIDTH 11 0
BBX 10 9 0 0
BITMAP
6100
8200
8200
8400
6DC0
0940
1140
1140
21C0
ENDCHAR
STARTCHAR afii61289
ENCODING 8467
SWIDTH 489 0
DWIDTH 6 0
BBX 6 9 -1 0
BITMAP
38
6C
6C
68
70
E0
6C
6C
38
ENDCHAR
STARTCHAR afii61352
ENCODING 8470
SWIDTH 1115 0
DWIDTH 13 0
BBX 12 9 0 0
BITMAP
C600
E600
E600
D660
D690
D690
CE60
CE00
C6F0
ENDCHAR
STARTCHAR trademark
ENCODING 8482
SWIDTH 1000 0
DWIDTH 12 0
BBX 10 5 1 4
BITMAP
ECC0
4CC0
4D40
4B40
4B40
ENDCHAR
STARTCHAR u2126
ENCODING 8486
SWIDTH 768 0
DWIDTH 9 0
BBX 8 9 0 0
BITMAP
3C
66
C3
C3
C3
C3
42
66
E7
ENDCHAR
STARTCHAR estimated
ENCODING 8494
SWIDTH 600 0
DWIDTH 7 0
BBX 6 7 0 0
BITMAP
78
C8
CC
FC
C0
44
78
ENDCHAR
STARTCHAR oneeighth
ENCODING 8539
SWIDTH 834 0
DWIDTH 10 0
BBX 8 9 1 0
BITMAP
42
C4
44
48
EE
15
36
25
46
ENDCHAR
STARTCHAR threeeighths
ENCODING 8540
SWIDTH 834 0
DWIDTH 10 0
BBX 9 9 0 0
BITMAP
E100
2200
4200
2400
EF00
0A80
1300
1280
2300
ENDCHAR
STARTCHAR fiveeighths
ENCODING 8541
SWIDTH 834 0
DWIDTH 10 0
BBX 9 9 0 0
BITMAP
E100
8200
E200
2400
EF00
0A80
1300
1280
2300
ENDCHAR
STARTCHAR seveneighths
ENCODING 8542
SWIDTH 834 0
DWIDTH 10 0
BBX 8 9 1 0
BITMAP
E2
44
4C
48
56
15
26
25
46
ENDCHAR
STARTCHAR arrowleft
ENCODING 8592
SWIDTH 1000 0
DWIDTH 12 0
BBX 7 3 2 0
BITMAP
40
FE
40
ENDCHAR
STARTCHAR arrowup
ENCODING 8593
SWIDTH 500 0
DWIDTH 6 0
BBX 3 7 2 0
BITMAP
40
E0
40
40
40
40
40
ENDCHAR
STARTCHAR arrowright
ENCODING 8594
SWIDTH 1000 0
DWIDTH 12 0
BBX 7 3 2 0
BITMAP
04
FE
04
ENDCHAR
STARTCHAR arrowdown
ENCODING 8595
SWIDTH 500 0
DWIDTH 6 0
BBX 3 7 2 0
BITMAP
40
40
40
40
40
E0
40
ENDCHAR
STARTCHAR arrowboth
ENCODING 8596
SWIDTH 1000 0
DWIDTH 12 0
BBX 7 3 2 0
BITMAP
44
FE
44
ENDCHAR
STARTCHAR arrowupdn
ENCODING 8597
SWIDTH 500 0
DWIDTH 6 0
BBX 3 7 2 0
BITMAP
40
E0
40
40
40
E0
40
ENDCHAR
STARTCHAR arrowupdnbse
ENCODING 8616
SWIDTH 500 0
DWIDTH 6 0
BBX 3 9 2 -2
BITMAP
40
E0
40
40
40
E0
40
00
E0
ENDCHAR
STARTCHAR partialdiff
ENCODING 8706
SWIDTH 494 0
DWIDTH 6 0
BBX 6 9 0 0
BITMAP
78
0C
0C
7C
CC
CC
C8
D8
70
ENDCHAR
STARTCHAR u2206
ENCODING 8710
SWIDTH 612 0
DWIDTH 7 0
BBX 6 9 0 0
BITMAP
30
30
78
78
48
48
CC
CC
FC
ENDCHAR
STARTCHAR product
ENCODING 8719
SWIDTH 823 0
DWIDTH 10 0
BBX 9 12 0 -3
BITMAP
FF80
C180
C180
C180
C180
C180
C180
C180
C180
C180
C180
C180
ENDCHAR
STARTCHAR summation
ENCODING 8721
SWIDTH 713 0
DWIDTH 9 0
BBX 8 12 0 -3
BITMAP
FF
C0
60
30
18
0C
18
18
30
60
C0
FF
ENDCHAR
STARTCHAR minus
ENCODING 8722
SWIDTH 584 0
DWIDTH 7 0
BBX 5 1 1 4
BITMAP
F8
ENDCHAR
STARTCHAR fraction
ENCODING 8725
SWIDTH 167 0
DWIDTH 2 0
BBX 6 9 -2 0
BITMAP
04
08
08
10
30
20
40
40
80
ENDCHAR
STARTCHAR periodcentered
ENCODING 8729
SWIDTH 278 0
DWIDTH 3 0
BBX 2 2 0 3
BITMAP
C0
C0
ENDCHAR
STARTCHAR radical
ENCODING 8730
SWIDTH 549 0
DWIDTH 7 0
BBX 7 10 0 0
BITMAP
02
02
04
04
C4
48
28
38
30
10
ENDCHAR
STARTCHAR infinity
ENCODING 8734
SWIDTH 713 0
DWIDTH 9 0
BBX 8 4 0 2
BITMAP
66
99
99
66
ENDCHAR
STARTCHAR orthogonal
ENCODING 8735
SWIDTH 979 0
DWIDTH 12 0
BBX 8 8 2 0
BITMAP
80
80
80
80
80
80
80
FF
ENDCHAR
STARTCHAR intersection
ENCODING 8745
SWIDTH 722 0
DWIDTH 9 0
BBX 5 6 2 0
BITMAP
70
88
88
88
88
88
ENDCHAR
STARTCHAR integral
ENCODING 8747
SWIDTH 274 0
DWIDTH 3 0
BBX 6 12 -2 -3
BITMAP
1C
30
30
30
30
30
30
30
30
30
30
E0
ENDCHAR
STARTCHAR approxequal
ENCODING 8776
SWIDTH 549 0
DWIDTH 7 0
BBX 6 5 0 2
BITMAP
E0
1C
00
E0
1C
ENDCHAR
STARTCHAR notequal
ENCODING 8800
SWIDTH 549 0
DWIDTH 7 0
BBX 5 5 1 2
BITMAP
10
F8
20
F8
40
ENDCHAR
STARTCHAR equivalence
ENCODING 8801
SWIDTH 583 0
DWIDTH 7 0
BBX 5 5 1 2
BITMAP
F8
00
F8
00
F8
ENDCHAR
STARTCHAR lessequal
ENCODING 8804
SWIDTH 549 0
DWIDTH 7 0
BBX 5 7 1 0
BITMAP
08
70
80
70
08
00
F8
ENDCHAR
STARTCHAR greaterequal
ENCODING 8805
SWIDTH 549 0
DWIDTH 7 0
BBX 5 7 1 0
BITMAP
80
70
08
70
80
00
F8
ENDCHAR
STARTCHAR house
ENCODING 8962
SWIDTH 604 0
DWIDTH 7 0
BBX 5 7 1 0
BITMAP
20
50
50
88
88
88
F8
ENDCHAR
STARTCHAR revlogicalnot
ENCODING 8976
SWIDTH 584 0
DWIDTH 7 0
BBX 5 3 1 2
BITMAP
F8
80
80
ENDCHAR
STARTCHAR integraltp
ENCODING 8992
SWIDTH 604 0
DWIDTH 7 0
BBX 3 14 3 -4
BITMAP
60
80
80
80
80
80
80
80
80
80
80
80
80
80
ENDCHAR
STARTCHAR integralbt
ENCODING 8993
SWIDTH 604 0
DWIDTH 7 0
BBX 3 14 1 -4
BITMAP
20
20
20
20
20
20
20
20
20
20
20
20
20
C0
ENDCHAR
STARTCHAR SF100000
ENCODING 9472
SWIDTH 708 0
DWIDTH 9 0
BBX 9 1 0 3
BITMAP
FF80
ENDCHAR
STARTCHAR SF110000
ENCODING 9474
SWIDTH 625 0
DWIDTH 8 0
BBX 1 15 4 -4
BITMAP
80
80
80
80
80
80
80
80
80
80
80
80
80
80
80
ENDCHAR
STARTCHAR SF010000
ENCODING 9484
SWIDTH 708 0
DWIDTH 9 0
BBX 5 8 4 -4
BITMAP
F8
80
80
80
80
80
80
80
ENDCHAR
STARTCHAR SF030000
ENCODING 9488
SWIDTH 708 0
DWIDTH 9 0
BBX 5 8 0 -4
BITMAP
F8
08
08
08
08
08
08
08
ENDCHAR
STARTCHAR SF020000
ENCODING 9492
SWIDTH 708 0
DWIDTH 9 0
BBX 5 8 4 3
BITMAP
80
80
80
80
80
80
80
F8
ENDCHAR
STARTCHAR SF040000
ENCODING 9496
SWIDTH 708 0
DWIDTH 9 0
BBX 5 8 0 3
BITMAP
08
08
08
08
08
08
08
F8
ENDCHAR
STARTCHAR SF080000
ENCODING 9500
SWIDTH 708 0
DWIDTH 9 0
BBX 5 15 4 -4
BITMAP
80
80
80
80
80
80
80
F8
80
80
80
80
80
80
80
ENDCHAR
STARTCHAR SF090000
ENCODING 9508
SWIDTH 708 0
DWIDTH 9 0
BBX 5 15 0 -4
BITMAP
08
08
08
08
08
08
08
F8
08
08
08
08
08
08
08
ENDCHAR
STARTCHAR SF060000
ENCODING 9516
SWIDTH 708 0
DWIDTH 9 0
BBX 9 8 0 -4
BITMAP
FF80
0800
0800
0800
0800
0800
0800
0800
ENDCHAR
STARTCHAR SF070000
ENCODING 9524
SWIDTH 708 0
DWIDTH 9 0
BBX 9 8 0 3
BITMAP
0800
0800
0800
0800
0800
0800
0800
FF80
ENDCHAR
STARTCHAR SF050000
ENCODING 9532
SWIDTH 708 0
DWIDTH 9 0
BBX 9 15 0 -4
BITMAP
0800
0800
0800
0800
0800
0800
0800
FF80
0800
0800
0800
0800
0800
0800
0800
ENDCHAR
STARTCHAR SF430000
ENCODING 9552
SWIDTH 708 0
DWIDTH 9 0
BBX 9 3 0 2
BITMAP
FF80
0000
FF80
ENDCHAR
STARTCHAR SF240000
ENCODING 9553
SWIDTH 708 0
DWIDTH 9 0
BBX 3 15 3 -4
BITMAP
A0
A0
A0
A0
A0
A0
A0
A0
A0
A0
A0
A0
A0
A0
A0
ENDCHAR
STARTCHAR SF510000
ENCODING 9554
SWIDTH 708 0
DWIDTH 9 0
BBX 5 9 4 -4
BITMAP
F8
80
F8
80
80
80
80
80
80
ENDCHAR
STARTCHAR SF520000
ENCODING 9555
SWIDTH 708 0
DWIDTH 9 0
BBX 6 8 3 -4
BITMAP
FC
A0
A0
A0
A0
A0
A0
A0
ENDCHAR
STARTCHAR SF390000
ENCODING 9556
SWIDTH 708 0
DWIDTH 9 0
BBX 6 9 3 -4
BITMAP
FC
80
BC
A0
A0
A0
A0
A0
A0
ENDCHAR
STARTCHAR SF220000
ENCODING 9557
SWIDTH 708 0
DWIDTH 9 0
BBX 5 9 0 -4
BITMAP
F8
08
F8
08
08
08
08
08
08
ENDCHAR
STARTCHAR SF210000
ENCODING 9558
SWIDTH 708 0
DWIDTH 9 0
BBX 6 8 0 -4
BITMAP
FC
14
14
14
14
14
14
14
ENDCHAR
STARTCHAR SF250000
ENCODING 9559
SWIDTH 708 0
DWIDTH 9 0
BBX 6 9 0 -4
BITMAP
FC
04
F4
14
14
14
14
14
14
ENDCHAR
STARTCHAR SF500000
ENCODING 9560
SWIDTH 708 0
DWIDTH 9 0
BBX 5 9 4 2
BITMAP
80
80
80
80
80
80
F8
80
F8
ENDCHAR
STARTCHAR SF490000
ENCODING 9561
SWIDTH 708 0
DWIDTH 9 0
BBX 6 8 3 3
BITMAP
A0
A0
A0
A0
A0
A0
A0
FC
ENDCHAR
STARTCHAR SF380000
ENCODING 9562
SWIDTH 708 0
DWIDTH 9 0
BBX 6 9 3 2
BITMAP
A0
A0
A0
A0
A0
A0
BC
80
FC
ENDCHAR
STARTCHAR SF280000
ENCODING 9563
SWIDTH 708 0
DWIDTH 9 0
BBX 5 9 0 2
BITMAP
08
08
08
08
08
08
F8
08
F8
ENDCHAR
STARTCHAR SF270000
ENCODING 9564
SWIDTH 708 0
DWIDTH 9 0
BBX 6 8 0 3
BITMAP
14
14
14
14
14
14
14
FC
ENDCHAR
STARTCHAR SF260000
ENCODING 9565
SWIDTH 708 0
DWIDTH 9 0
BBX 6 9 0 2
BITMAP
14
14
14
14
14
14
F4
04
FC
ENDCHAR
STARTCHAR SF360000
ENCODING 9566
SWIDTH 708 0
DWIDTH 9 0
BBX 5 15 4 -4
BITMAP
80
80
80
80
80
80
F8
80
F8
80
80
80
80
80
80
ENDCHAR
STARTCHAR SF370000
ENCODING 9567
SWIDTH 708 0
DWIDTH 9 0
BBX 6 15 3 -4
BITMAP
A0
A0
A0
A0
A0
A0
A0
BC
A0
A0
A0
A0
A0
A0
A0
ENDCHAR
STARTCHAR SF420000
ENCODING 9568
SWIDTH 708 0
DWIDTH 9 0
BBX 6 15 3 -4
BITMAP
A0
A0
A0
A0
A0
A0
BC
80
BC
A0
A0
A0
A0
A0
A0
ENDCHAR
STARTCHAR SF190000
ENCODING 9569
SWIDTH 708 0
DWIDTH 9 0
BBX 5 15 0 -4
BITMAP
08
08
08
08
08
08
F8
08
F8
08
08
08
08
08
08
ENDCHAR
STARTCHAR SF200000
ENCODING 9570
SWIDTH 708 0
DWIDTH 9 0
BBX 6 15 0 -4
BITMAP
14
14
14
14
14
14
14
F4
14
14
14
14
14
14
14
ENDCHAR
STARTCHAR SF230000
ENCODING 9571
SWIDTH 708 0
DWIDTH 9 0
BBX 6 15 0 -4
BITMAP
14
14
14
14
14
14
F4
04
F4
14
14
14
14
14
14
ENDCHAR
STARTCHAR SF470000
ENCODING 9572
SWIDTH 708 0
DWIDTH 9 0
BBX 9 9 0 -4
BITMAP
FF80
0000
FF80
0800
0800
0800
0800
0800
0800
ENDCHAR
STARTCHAR SF480000
ENCODING 9573
SWIDTH 708 0
DWIDTH 9 0
BBX 9 8 0 -4
BITMAP
FF80
1400
1400
1400
1400
1400
1400
1400
ENDCHAR
STARTCHAR SF410000
ENCODING 9574
SWIDTH 708 0
DWIDTH 9 0
BBX 9 9 0 -4
BITMAP
FF80
0000
F780
1400
1400
1400
1400
1400
1400
ENDCHAR
STARTCHAR SF450000
ENCODING 9575
SWIDTH 708 0
DWIDTH 9 0
BBX 9 9 0 2
BITMAP
0800
0800
0800
0800
0800
0800
FF80
0000
FF80
ENDCHAR
STARTCHAR SF460000
ENCODING 9576
SWIDTH 708 0
DWIDTH 9 0
BBX 9 8 0 3
BITMAP
1400
1400
1400
1400
1400
1400
1400
FF80
ENDCHAR
STARTCHAR SF400000
ENCODING 9577
SWIDTH 708 0
DWIDTH 9 0
BBX 9 9 0 2
BITMAP
1400
1400
1400
1400
1400
1400
F780
0000
FF80
ENDCHAR
STARTCHAR SF540000
ENCODING 9578
SWIDTH 708 0
DWIDTH 9 0
BBX 9 15 0 -4
BITMAP
0800
0800
0800
0800
0800
0800
FF80
0800
FF80
0800
0800
0800
0800
0800
0800
ENDCHAR
STARTCHAR SF530000
ENCODING 9579
SWIDTH 708 0
DWIDTH 9 0
BBX 9 15 0 -4
BITMAP
1400
1400
1400
1400
1400
1400
1400
FF80
1400
1400
1400
1400
1400
1400
1400
ENDCHAR
STARTCHAR SF440000
ENCODING 9580
SWIDTH 708 0
DWIDTH 9 0
BBX 9 15 0 -4
BITMAP
1400
1400
1400
1400
1400
1400
F780
0000
F780
1400
1400
1400
1400
1400
1400
ENDCHAR
STARTCHAR upblock
ENCODING 9600
SWIDTH 708 0
DWIDTH 9 0
BBX 9 7 0 4
BITMAP
FF80
FF80
FF80
FF80
FF80
FF80
FF80
ENDCHAR
STARTCHAR dnblock
ENCODING 9604
SWIDTH 708 0
DWIDTH 9 0
BBX 9 8 0 -4
BITMAP
FF80
FF80
FF80
FF80
FF80
FF80
FF80
FF80
ENDCHAR
STARTCHAR block
ENCODING 9608
SWIDTH 708 0
DWIDTH 9 0
BBX 9 15 0 -4
BITMAP
FF80
FF80
FF80
FF80
FF80
FF80
FF80
FF80
FF80
FF80
FF80
FF80
FF80
FF80
FF80
ENDCHAR
STARTCHAR lfblock
ENCODING 9612
SWIDTH 708 0
DWIDTH 9 0
BBX 4 15 0 -4
BITMAP
F0
F0
F0
F0
F0
F0
F0
F0
F0
F0
F0
F0
F0
F0
F0
ENDCHAR
STARTCHAR rtblock
ENCODING 9616
SWIDTH 708 0
DWIDTH 9 0
BBX 5 15 4 -4
BITMAP
F8
F8
F8
F8
F8
F8
F8
F8
F8
F8
F8
F8
F8
F8
F8
ENDCHAR
STARTCHAR ltshade
ENCODING 9617
SWIDTH 708 0
DWIDTH 9 0
BBX 8 15 1 -4
BITMAP
A5
4A
00
A5
4A
A5
4A
00
A5
4A
A5
4A
00
A5
4A
ENDCHAR
STARTCHAR shade
ENCODING 9618
SWIDTH 708 0
DWIDTH 9 0
BBX 9 13 0 -3
BITMAP
1C80
E300
1C80
E300
0000
0000
0000
0000
E300
1C80
E300
1C80
E300
ENDCHAR
STARTCHAR dkshade
ENCODING 9619
SWIDTH 729 0
DWIDTH 9 0
BBX 9 14 0 -4
BITMAP
3980
EF00
BD80
EF00
FF80
FF80
FF80
FF80
EF00
BD80
EF00
BD80
FF80
FF80
ENDCHAR
STARTCHAR filledbox
ENCODING 9632
SWIDTH 604 0
DWIDTH 7 0
BBX 6 6 1 1
BITMAP
FC
FC
FC
FC
FC
FC
ENDCHAR
STARTCHAR H22073
ENCODING 9633
SWIDTH 604 0
DWIDTH 7 0
BBX 7 7 0 0
BITMAP
FE
82
82
82
82
82
FE
ENDCHAR
STARTCHAR H18543
ENCODING 9642
SWIDTH 354 0
DWIDTH 4 0
BBX 3 3 1 2
BITMAP
E0
E0
E0
ENDCHAR
STARTCHAR H18551
ENCODING 9643
SWIDTH 354 0
DWIDTH 4 0
BBX 3 3 1 2
BITMAP
E0
A0
E0
ENDCHAR
STARTCHAR filledrect
ENCODING 9644
SWIDTH 1000 0
DWIDTH 12 0
BBX 12 4 0 0
BITMAP
FFF0
FFF0
FFF0
FFF0
ENDCHAR
STARTCHAR triagup
ENCODING 9650
SWIDTH 990 0
DWIDTH 12 0
BBX 7 7 2 0
BITMAP
10
18
18
3C
3C
7E
7E
ENDCHAR
STARTCHAR triagrt
ENCODING 9658
SWIDTH 990 0
DWIDTH 12 0
BBX 8 7 2 0
BITMAP
80
E0
F8
FE
FC
F0
C0
ENDCHAR
STARTCHAR triagdn
ENCODING 9660
SWIDTH 990 0
DWIDTH 12 0
BBX 7 7 2 0
BITMAP
7E
7E
3C
3C
18
18
10
ENDCHAR
STARTCHAR triaglf
ENCODING 9668
SWIDTH 990 0
DWIDTH 12 0
BBX 8 7 2 0
BITMAP
03
0F
3F
FF
3F
0F
03
ENDCHAR
STARTCHAR lozenge
ENCODING 9674
SWIDTH 494 0
DWIDTH 6 0
BBX 5 9 0 0
BITMAP
20
50
50
D8
88
D8
50
50
20
ENDCHAR
STARTCHAR circle
ENCODING 9675
SWIDTH 604 0
DWIDTH 7 0
BBX 5 5 1 1
BITMAP
70
88
88
88
70
ENDCHAR
STARTCHAR H18533
ENCODING 9679
SWIDTH 604 0
DWIDTH 7 0
BBX 5 5 1 1
BITMAP
70
F8
F8
F8
70
ENDCHAR
STARTCHAR invbullet
ENCODING 9688
SWIDTH 604 0
DWIDTH 7 0
BBX 7 7 0 0
BITMAP
FE
C6
82
82
82
C6
FE
ENDCHAR
STARTCHAR invcircle
ENCODING 9689
SWIDTH 604 0
DWIDTH 7 0
BBX 7 7 0 0
BITMAP
FE
C6
BA
BA
BA
C6
FE
ENDCHAR
STARTCHAR openbullet
ENCODING 9702
SWIDTH 354 0
DWIDTH 4 0
BBX 3 3 1 2
BITMAP
E0
A0
E0
ENDCHAR
STARTCHAR smileface
ENCODING 9786
SWIDTH 1021 0
DWIDTH 12 0
BBX 7 7 3 0
BITMAP
38
44
AA
82
BA
44
38
ENDCHAR
STARTCHAR invsmileface
ENCODING 9787
SWIDTH 1052 0
DWIDTH 13 0
BBX 7 7 3 0
BITMAP
38
7C
D6
FE
D6
6C
38
ENDCHAR
STARTCHAR sun
ENCODING 9788
SWIDTH 917 0
DWIDTH 11 0
BBX 7 7 2 0
BITMAP
92
7C
44
C6
44
7C
92
ENDCHAR
STARTCHAR female
ENCODING 9792
SWIDTH 750 0
DWIDTH 9 0
BBX 5 8 2 -1
BITMAP
70
50
70
20
20
F8
20
20
ENDCHAR
STARTCHAR male
ENCODING 9794
SWIDTH 750 0
DWIDTH 9 0
BBX 5 5 2 2
BITMAP
18
18
E0
A0
E0
ENDCHAR
STARTCHAR spade
ENCODING 9824
SWIDTH 531 0
DWIDTH 6 0
BBX 5 7 0 0
BITMAP
20
20
70
F8
F8
20
70
ENDCHAR
STARTCHAR club
ENCODING 9827
SWIDTH 656 0
DWIDTH 8 0
BBX 6 7 1 0
BITMAP
30
30
FC
FC
DC
20
30
ENDCHAR
STARTCHAR heart
ENCODING 9829
SWIDTH 594 0
DWIDTH 7 0
BBX 5 7 1 0
BITMAP
D8
F8
F8
70
70
20
20
ENDCHAR
STARTCHAR diamond
ENCODING 9830
SWIDTH 510 0
DWIDTH 6 0
BBX 5 7 0 0
BITMAP
20
70
70
F8
70
70
20
ENDCHAR
STARTCHAR musicalnote
ENCODING 9834
SWIDTH 500 0
DWIDTH 6 0
BBX 4 7 1 0
BITMAP
20
20
30
30
30
E0
C0
ENDCHAR
STARTCHAR musicalnotedbl
ENCODING 9835
SWIDTH 750 0
DWIDTH 9 0
BBX 6 7 2 0
BITMAP
1C
64
5C
64
44
CC
CC
ENDCHAR
STARTCHAR uniF001
ENCODING 61441
SWIDTH 611 0
DWIDTH 8 0
BBX 7 9 0 0
BITMAP
76
60
F6
66
66
66
66
66
66
ENDCHAR
STARTCHAR uniF002
ENCODING 61442
SWIDTH 611 0
DWIDTH 8 0
BBX 7 9 0 0
BITMAP
76
66
F6
66
66
66
66
66
66
ENDCHAR
STARTCHAR uniF005
ENCODING 61445
SWIDTH 333 0
DWIDTH 4 0
BBX 2 3 1 -3
BITMAP
C0
40
C0
ENDCHAR
STARTCHAR uniF001
ENCODING 64257
SWIDTH 611 0
DWIDTH 8 0
BBX 7 9 0 0
BITMAP
76
60
F6
66
66
66
66
66
66
ENDCHAR
STARTCHAR uniF002
ENCODING 64258
SWIDTH 611 0
DWIDTH 8 0
BBX 7 9 0 0
BITMAP
76
66
F6
66
66
66
66
66
66
ENDCHAR
ENDFONT
