STARTFONT 2.1
FONT -unknown-Standard-BoldItalic-R-Normal--16-160-75-75-P-0-ISO10646-1
SIZE 16 75 75
FONTBOUNDINGBOX 16 16 0 0
STARTPROPERTIES 5
FAMILY_NAME "Standard"
WEIGHT_NAME "BoldItalic"
PIXEL_SIZE 16
FONT_ASCENT 13
FONT_DESCENT 3
ENDPROPERTIES
CHARS 662
STARTCHAR space
ENCODING 32
SWIDTH 250 0
DWIDTH 4 0
BBX 0 0 0 0
BITMAP
ENDCHAR
STARTCHAR exclam
ENCODING 33
SWIDTH 313 0
DWIDTH 5 0
BBX 4 11 1 0
BITMAP
30
30
30
60
60
60
60
40
00
C0
C0
ENDCHAR
STARTCHAR quotedbl
ENCODING 34
SWIDTH 438 0
DWIDTH 7 0
BBX 6 4 1 7
BITMAP
6C
6C
48
48
ENDCHAR
STARTCHAR numbersign
ENCODING 35
SWIDTH 563 0
DWIDTH 9 0
BBX 10 11 0 0
BITMAP
0880
0880
1100
7FC0
1100
1200
2200
FF80
2200
4400
4400
ENDCHAR
STARTCHAR dollar
ENCODING 36
SWIDTH 563 0
DWIDTH 9 0
BBX 9 13 0 -1
BITMAP
0400
1F00
3F80
6580
6400
7C00
1E00
0B00
0B00
CB00
FE00
7C00
1000
ENDCHAR
STARTCHAR percent
ENCODING 37
SWIDTH 875 0
DWIDTH 14 0
BBX 12 11 1 0
BITMAP
3820
4440
C480
8500
8EE0
8F10
7710
0A10
1230
2220
41C0
ENDCHAR
STARTCHAR ampersand
ENCODING 38
SWIDTH 750 0
DWIDTH 12 0
BBX 11 11 0 0
BITMAP
0780
1FC0
18C0
1B80
1F00
3C60
4C60
C6C0
C380
FFE0
7CE0
ENDCHAR
STARTCHAR quotesingle
ENCODING 39
SWIDTH 188 0
DWIDTH 3 0
BBX 3 4 1 7
BITMAP
60
60
40
C0
ENDCHAR
STARTCHAR parenleft
ENCODING 40
SWIDTH 313 0
DWIDTH 5 0
BBX 6 16 1 -4
BITMAP
1C
18
30
70
60
60
C0
C0
C0
C0
C0
C0
C0
C0
E0
60
ENDCHAR
STARTCHAR parenright
ENCODING 41
SWIDTH 375 0
DWIDTH 6 0
BBX 6 16 -1 -4
BITMAP
18
1C
0C
0C
0C
0C
0C
0C
0C
0C
18
18
38
30
60
E0
ENDCHAR
STARTCHAR asterisk
ENCODING 42
SWIDTH 375 0
DWIDTH 6 0
BBX 6 6 1 5
BITMAP
30
B4
FC
30
78
48
ENDCHAR
STARTCHAR plus
ENCODING 43
SWIDTH 563 0
DWIDTH 9 0
BBX 8 8 1 1
BITMAP
18
18
18
FF
FF
18
18
18
ENDCHAR
STARTCHAR comma
ENCODING 44
SWIDTH 250 0
DWIDTH 4 0
BBX 3 4 -1 -2
BITMAP
60
60
20
40
ENDCHAR
STARTCHAR hyphen
ENCODING 45
SWIDTH 313 0
DWIDTH 5 0
BBX 5 2 0 3
BITMAP
F8
F8
ENDCHAR
STARTCHAR period
ENCODING 46
SWIDTH 250 0
DWIDTH 4 0
BBX 2 2 0 0
BITMAP
C0
C0
ENDCHAR
STARTCHAR slash
ENCODING 47
SWIDTH 250 0
DWIDTH 4 0
BBX 6 12 -1 0
BITMAP
0C
1C
18
18
38
30
30
70
60
60
E0
C0
ENDCHAR
STARTCHAR zero
ENCODING 48
SWIDTH 563 0
DWIDTH 9 0
BBX 8 11 1 0
BITMAP
1E
3F
63
63
E3
C3
C7
C6
CE
FC
78
ENDCHAR
STARTCHAR one
ENCODING 49
SWIDTH 563 0
DWIDTH 9 0
BBX 8 11 1 0
BITMAP
0E
3E
36
0C
0C
0C
0C
0C
18
7F
FF
ENDCHAR
STARTCHAR two
ENCODING 50
SWIDTH 563 0
DWIDTH 9 0
BBX 8 11 1 0
BITMAP
1E
3F
73
03
06
0E
1C
30
60
FE
FE
ENDCHAR
STARTCHAR three
ENCODING 51
SWIDTH 563 0
DWIDTH 9 0
BBX 9 11 0 0
BITMAP
1F00
3F80
7180
0180
1F00
1C00
0300
0300
E300
7E00
3C00
ENDCHAR
STARTCHAR four
ENCODING 52
SWIDTH 563 0
DWIDTH 9 0
BBX 8 11 1 0
BITMAP
07
0F
1E
1E
36
66
66
FF
FF
0C
0C
ENDCHAR
STARTCHAR five
ENCODING 53
SWIDTH 563 0
DWIDTH 9 0
BBX 9 11 0 0
BITMAP
3F80
3F80
3000
3000
2E00
7F00
6300
0300
E700
7E00
3C00
ENDCHAR
STARTCHAR six
ENCODING 54
SWIDTH 563 0
DWIDTH 9 0
BBX 8 11 1 0
BITMAP
1E
3F
63
60
DC
FE
C6
C6
C6
FC
78
ENDCHAR
STARTCHAR seven
ENCODING 55
SWIDTH 563 0
DWIDTH 9 0
BBX 8 11 2 0
BITMAP
FF
FF
06
0C
18
38
30
60
60
C0
C0
ENDCHAR
STARTCHAR eight
ENCODING 56
SWIDTH 563 0
DWIDTH 9 0
BBX 8 11 1 0
BITMAP
3E
7F
63
63
3E
7C
C6
C6
C6
FC
78
ENDCHAR
STARTCHAR nine
ENCODING 57
SWIDTH 563 0
DWIDTH 9 0
BBX 9 11 0 0
BITMAP
1E00
3F00
7180
6180
6380
7F80
3D80
0300
C700
7E00
3C00
ENDCHAR
STARTCHAR colon
ENCODING 58
SWIDTH 313 0
DWIDTH 5 0
BBX 4 9 1 0
BITMAP
60
60
00
00
00
00
00
C0
C0
ENDCHAR
STARTCHAR semicolon
ENCODING 59
SWIDTH 313 0
DWIDTH 5 0
BBX 5 11 0 -2
BITMAP
30
30
00
00
00
00
00
60
60
20
40
ENDCHAR
STARTCHAR less
ENCODING 60
SWIDTH 563 0
DWIDTH 9 0
BBX 8 9 1 1
BITMAP
01
0F
7E
F0
C0
F0
7E
0F
01
ENDCHAR
STARTCHAR equal
ENCODING 61
SWIDTH 563 0
DWIDTH 9 0
BBX 8 5 1 2
BITMAP
FF
FF
00
FF
FF
ENDCHAR
STARTCHAR greater
ENCODING 62
SWIDTH 563 0
DWIDTH 9 0
BBX 8 9 1 1
BITMAP
80
F0
7E
0F
03
0F
7E
F0
80
ENDCHAR
STARTCHAR question
ENCODING 63
SWIDTH 625 0
DWIDTH 10 0
BBX 8 11 1 0
BITMAP
3E
7F
E3
03
06
0E
18
30
00
60
60
ENDCHAR
STARTCHAR at
ENCODING 64
SWIDTH 1000 0
DWIDTH 16 0
BBX 14 14 1 -2
BITMAP
07E0
1830
2008
47AC
4C64
8864
9044
9044
90CC
99C8
4F70
4000
3030
0FC0
ENDCHAR
STARTCHAR A
ENCODING 65
SWIDTH 750 0
DWIDTH 12 0
BBX 11 11 0 0
BITMAP
0380
0380
0680
06C0
0CC0
18C0
1FC0
3FC0
3060
6060
C060
ENDCHAR
STARTCHAR B
ENCODING 66
SWIDTH 688 0
DWIDTH 11 0
BBX 9 11 1 0
BITMAP
3F00
3F80
3180
6180
7F00
7F00
6180
6180
C180
FF00
FE00
ENDCHAR
STARTCHAR C
ENCODING 67
SWIDTH 750 0
DWIDTH 12 0
BBX 11 11 1 0
BITMAP
0F80
3FC0
70E0
6040
C000
C000
C000
C080
E1C0
7F80
3E00
ENDCHAR
STARTCHAR D
ENCODING 68
SWIDTH 750 0
DWIDTH 12 0
BBX 11 11 1 0
BITMAP
3F00
3FC0
30E0
6060
6060
6060
6060
60C0
C1C0
FF80
FE00
ENDCHAR
STARTCHAR E
ENCODING 69
SWIDTH 688 0
DWIDTH 11 0
BBX 10 11 1 0
BITMAP
3FC0
3FC0
3000
6000
7F80
7F80
6000
6000
C000
FF80
FF80
ENDCHAR
STARTCHAR F
ENCODING 70
SWIDTH 625 0
DWIDTH 10 0
BBX 9 11 1 0
BITMAP
3F80
3F80
3000
6000
7F00
7F00
6000
6000
C000
C000
C000
ENDCHAR
STARTCHAR G
ENCODING 71
SWIDTH 750 0
DWIDTH 12 0
BBX 11 11 1 0
BITMAP
0F80
3FC0
70E0
6040
C000
C7C0
C7C0
C0C0
E180
7F80
3F00
ENDCHAR
STARTCHAR H
ENCODING 72
SWIDTH 750 0
DWIDTH 12 0
BBX 11 11 1 0
BITMAP
3060
3060
3060
60C0
7FC0
7FC0
60C0
60C0
C180
C180
C180
ENDCHAR
STARTCHAR I
ENCODING 73
SWIDTH 313 0
DWIDTH 5 0
BBX 4 11 1 0
BITMAP
30
30
30
60
60
60
60
60
C0
C0
C0
ENDCHAR
STARTCHAR J
ENCODING 74
SWIDTH 563 0
DWIDTH 9 0
BBX 9 11 0 0
BITMAP
0780
0780
0180
0300
0300
0300
0300
4300
E600
7E00
3C00
ENDCHAR
STARTCHAR K
ENCODING 75
SWIDTH 750 0
DWIDTH 12 0
BBX 12 11 1 0
BITMAP
3060
31C0
3380
6700
6C00
7E00
7600
6300
C300
C180
C0C0
ENDCHAR
STARTCHAR L
ENCODING 76
SWIDTH 625 0
DWIDTH 10 0
BBX 8 11 1 0
BITMAP
30
30
30
60
60
60
60
60
C0
FF
FF
ENDCHAR
STARTCHAR M
ENCODING 77
SWIDTH 875 0
DWIDTH 14 0
BBX 13 11 1 0
BITMAP
3838
3878
3858
6CF0
6CB0
6DB0
6DB0
6F30
CF60
C660
C660
ENDCHAR
STARTCHAR N
ENCODING 78
SWIDTH 750 0
DWIDTH 12 0
BBX 11 11 1 0
BITMAP
3860
3860
3860
6CC0
6CC0
64C0
66C0
66C0
C380
C380
C380
ENDCHAR
STARTCHAR O
ENCODING 79
SWIDTH 750 0
DWIDTH 12 0
BBX 11 11 1 0
BITMAP
0F80
3FC0
70E0
6060
C060
C060
C060
C0C0
E1C0
7F80
3E00
ENDCHAR
STARTCHAR P
ENCODING 80
SWIDTH 688 0
DWIDTH 11 0
BBX 10 11 1 0
BITMAP
3F00
3FC0
30C0
60C0
60C0
7F80
7F00
6000
C000
C000
C000
ENDCHAR
STARTCHAR Q
ENCODING 81
SWIDTH 750 0
DWIDTH 12 0
BBX 11 14 1 -3
BITMAP
0F80
3FC0
70E0
6060
C060
C060
C060
C0C0
E1C0
7F80
3F00
0C00
0F80
0780
ENDCHAR
STARTCHAR R
ENCODING 82
SWIDTH 750 0
DWIDTH 12 0
BBX 11 11 1 0
BITMAP
3F80
3FE0
3060
6060
60E0
7FC0
7F00
6300
C180
C180
C0C0
ENDCHAR
STARTCHAR S
ENCODING 83
SWIDTH 688 0
DWIDTH 11 0
BBX 10 11 1 0
BITMAP
1F00
3F80
61C0
6000
7C00
1F00
0380
4180
E180
7F00
3E00
ENDCHAR
STARTCHAR T
ENCODING 84
SWIDTH 625 0
DWIDTH 10 0
BBX 10 11 1 0
BITMAP
FF80
FF80
0C00
1800
1800
1800
1800
1800
3000
3000
3000
ENDCHAR
STARTCHAR U
ENCODING 85
SWIDTH 750 0
DWIDTH 12 0
BBX 10 11 2 0
BITMAP
60C0
60C0
60C0
C180
C180
C180
C180
C180
C300
FF00
7C00
ENDCHAR
STARTCHAR V
ENCODING 86
SWIDTH 688 0
DWIDTH 11 0
BBX 10 11 2 0
BITMAP
C0C0
C180
4180
6300
6300
6600
6600
2C00
2C00
3800
3800
ENDCHAR
STARTCHAR W
ENCODING 87
SWIDTH 938 0
DWIDTH 15 0
BBX 15 11 1 0
BITMAP
C386
C38C
C78C
C798
CD98
CDB0
69B0
79E0
79E0
71C0
71C0
ENDCHAR
STARTCHAR X
ENCODING 88
SWIDTH 688 0
DWIDTH 11 0
BBX 12 11 0 0
BITMAP
3030
1860
18C0
0D80
0F00
0600
0F00
1B00
3180
6180
C0C0
ENDCHAR
STARTCHAR Y
ENCODING 89
SWIDTH 625 0
DWIDTH 10 0
BBX 10 11 1 0
BITMAP
C0C0
6180
6300
3600
3400
3C00
1800
1800
3000
3000
3000
ENDCHAR
STARTCHAR Z
ENCODING 90
SWIDTH 625 0
DWIDTH 10 0
BBX 11 11 0 0
BITMAP
3FE0
3FE0
00C0
0180
0700
0E00
1C00
3000
6000
FF80
FF80
ENDCHAR
STARTCHAR bracketleft
ENCODING 91
SWIDTH 313 0
DWIDTH 5 0
BBX 7 16 -1 -4
BITMAP
1E
18
18
18
30
30
30
30
30
60
60
60
60
60
60
F8
ENDCHAR
STARTCHAR backslash
ENCODING 92
SWIDTH 250 0
DWIDTH 4 0
BBX 3 12 1 0
BITMAP
C0
C0
C0
C0
C0
C0
60
60
60
60
60
60
ENDCHAR
STARTCHAR bracketright
ENCODING 93
SWIDTH 250 0
DWIDTH 4 0
BBX 7 16 -1 -4
BITMAP
1E
06
06
06
0C
0C
0C
0C
0C
18
18
18
18
18
18
F0
ENDCHAR
STARTCHAR asciicircum
ENCODING 94
SWIDTH 563 0
DWIDTH 9 0
BBX 9 7 0 4
BITMAP
1C00
1400
3600
2200
6300
4100
C180
ENDCHAR
STARTCHAR underscore
ENCODING 95
SWIDTH 563 0
DWIDTH 9 0
BBX 9 1 -1 -2
BITMAP
FF80
ENDCHAR
STARTCHAR grave
ENCODING 96
SWIDTH 313 0
DWIDTH 5 0
BBX 4 3 2 9
BITMAP
E0
60
30
ENDCHAR
STARTCHAR a
ENCODING 97
SWIDTH 563 0
DWIDTH 9 0
BBX 7 9 1 0
BITMAP
3C
7E
66
06
7E
C6
CC
F6
76
ENDCHAR
STARTCHAR b
ENCODING 98
SWIDTH 625 0
DWIDTH 10 0
BBX 8 12 1 0
BITMAP
30
30
30
6E
7F
73
63
63
63
E6
FE
DC
ENDCHAR
STARTCHAR c
ENCODING 99
SWIDTH 500 0
DWIDTH 8 0
BBX 7 9 1 0
BITMAP
3C
7E
66
C0
C0
C0
CC
F8
78
ENDCHAR
STARTCHAR d
ENCODING 100
SWIDTH 563 0
DWIDTH 9 0
BBX 8 12 1 0
BITMAP
03
03
03
3E
7E
66
C6
C6
CE
CC
FC
6C
ENDCHAR
STARTCHAR e
ENCODING 101
SWIDTH 563 0
DWIDTH 9 0
BBX 8 9 1 0
BITMAP
3E
7F
63
FF
FF
C0
C4
FE
7C
ENDCHAR
STARTCHAR f
ENCODING 102
SWIDTH 313 0
DWIDTH 5 0
BBX 6 12 1 0
BITMAP
1C
3C
30
F8
F8
60
60
60
60
C0
C0
C0
ENDCHAR
STARTCHAR g
ENCODING 103
SWIDTH 563 0
DWIDTH 9 0
BBX 9 13 0 -4
BITMAP
1F00
3F00
3700
6300
6300
6700
6600
7E00
3600
0600
0E00
FC00
7800
ENDCHAR
STARTCHAR h
ENCODING 104
SWIDTH 625 0
DWIDTH 10 0
BBX 8 12 1 0
BITMAP
30
30
30
6E
7F
73
63
63
63
C6
C6
C6
ENDCHAR
STARTCHAR i
ENCODING 105
SWIDTH 250 0
DWIDTH 4 0
BBX 4 12 0 0
BITMAP
30
30
00
60
60
60
60
60
60
C0
C0
C0
ENDCHAR
STARTCHAR j
ENCODING 106
SWIDTH 250 0
DWIDTH 4 0
BBX 6 16 -2 -4
BITMAP
0C
0C
00
18
18
18
18
18
18
30
30
30
30
30
F0
E0
ENDCHAR
STARTCHAR k
ENCODING 107
SWIDTH 563 0
DWIDTH 9 0
BBX 8 12 1 0
BITMAP
30
30
30
67
66
6C
78
78
6C
CC
CC
C6
ENDCHAR
STARTCHAR l
ENCODING 108
SWIDTH 250 0
DWIDTH 4 0
BBX 4 12 0 0
BITMAP
30
30
30
60
60
60
60
60
60
C0
C0
C0
ENDCHAR
STARTCHAR m
ENCODING 109
SWIDTH 875 0
DWIDTH 14 0
BBX 14 9 0 0
BITMAP
0210
3F78
339C
7398
6318
6318
6318
6318
E738
ENDCHAR
STARTCHAR n
ENCODING 110
SWIDTH 625 0
DWIDTH 10 0
BBX 8 9 1 0
BITMAP
6E
7F
73
63
63
63
C6
C6
C6
ENDCHAR
STARTCHAR o
ENCODING 111
SWIDTH 625 0
DWIDTH 10 0
BBX 8 9 1 0
BITMAP
3E
7F
63
C3
C3
C3
C6
FE
78
ENDCHAR
STARTCHAR p
ENCODING 112
SWIDTH 563 0
DWIDTH 9 0
BBX 9 13 -1 -4
BITMAP
3700
3F80
3980
3180
3180
3180
7300
7F00
6E00
6000
6000
6000
C000
ENDCHAR
STARTCHAR q
ENCODING 113
SWIDTH 563 0
DWIDTH 9 0
BBX 7 13 1 -4
BITMAP
3E
7E
66
C6
C6
C6
CC
FC
6C
0C
0C
0C
18
ENDCHAR
STARTCHAR r
ENCODING 114
SWIDTH 375 0
DWIDTH 6 0
BBX 6 9 1 0
BITMAP
6C
7C
70
60
60
60
C0
C0
C0
ENDCHAR
STARTCHAR s
ENCODING 115
SWIDTH 563 0
DWIDTH 9 0
BBX 7 9 1 0
BITMAP
3C
7E
60
70
3C
0C
0C
FC
78
ENDCHAR
STARTCHAR t
ENCODING 116
SWIDTH 313 0
DWIDTH 5 0
BBX 5 11 1 0
BITMAP
30
30
F8
F8
60
60
60
60
E0
F0
70
ENDCHAR
STARTCHAR u
ENCODING 117
SWIDTH 625 0
DWIDTH 10 0
BBX 9 9 1 0
BITMAP
6300
6300
6300
6300
6300
6300
E600
7E00
7600
ENDCHAR
STARTCHAR v
ENCODING 118
SWIDTH 563 0
DWIDTH 9 0
BBX 9 8 1 0
BITMAP
C300
C700
C600
6C00
6C00
7800
7800
7000
ENDCHAR
STARTCHAR w
ENCODING 119
SWIDTH 813 0
DWIDTH 13 0
BBX 12 9 1 0
BITMAP
C630
C620
CA60
CA40
D240
D2C0
E280
E380
C100
ENDCHAR
STARTCHAR x
ENCODING 120
SWIDTH 563 0
DWIDTH 9 0
BBX 11 9 -1 0
BITMAP
30E0
18C0
1980
0F00
0E00
1E00
3300
6300
E180
ENDCHAR
STARTCHAR y
ENCODING 121
SWIDTH 563 0
DWIDTH 9 0
BBX 10 13 0 -4
BITMAP
60C0
6180
3180
3300
3300
3600
1600
1C00
1C00
1800
3800
F000
E000
ENDCHAR
STARTCHAR z
ENCODING 122
SWIDTH 438 0
DWIDTH 7 0
BBX 7 9 0 0
BITMAP
7E
7E
0C
18
38
30
60
FC
FC
ENDCHAR
STARTCHAR braceleft
ENCODING 123
SWIDTH 375 0
DWIDTH 6 0
BBX 7 16 0 -4
BITMAP
0E
18
18
10
30
30
30
C0
60
60
60
60
60
60
60
70
ENDCHAR
STARTCHAR bar
ENCODING 124
SWIDTH 250 0
DWIDTH 4 0
BBX 2 16 1 -4
BITMAP
C0
C0
C0
C0
C0
C0
C0
C0
C0
C0
C0
C0
C0
C0
C0
C0
ENDCHAR
STARTCHAR braceright
ENCODING 125
SWIDTH 375 0
DWIDTH 6 0
BBX 8 16 -1 -4
BITMAP
1C
06
06
06
0C
0C
0C
07
0C
1C
18
18
18
18
30
70
ENDCHAR
STARTCHAR asciitilde
ENCODING 126
SWIDTH 563 0
DWIDTH 9 0
BBX 8 3 1 4
BITMAP
71
FF
8E
ENDCHAR
STARTCHAR space
ENCODING 160
SWIDTH 250 0
DWIDTH 4 0
BBX 0 0 0 0
BITMAP
ENDCHAR
STARTCHAR exclamdown
ENCODING 161
SWIDTH 313 0
DWIDTH 5 0
BBX 5 12 0 -3
BITMAP
18
30
00
30
30
20
20
60
60
60
60
60
ENDCHAR
STARTCHAR cent
ENCODING 162
SWIDTH 563 0
DWIDTH 9 0
BBX 9 12 0 0
BITMAP
0600
0400
3F00
7F80
6D00
6C00
E800
7A00
7B00
3E00
1C00
1000
ENDCHAR
STARTCHAR sterling
ENCODING 163
SWIDTH 563 0
DWIDTH 9 0
BBX 9 11 0 0
BITMAP
0F00
1F80
3980
3000
3000
FC00
FC00
3200
6300
FE00
FE00
ENDCHAR
STARTCHAR currency
ENCODING 164
SWIDTH 563 0
DWIDTH 9 0
BBX 9 9 0 1
BITMAP
0000
7F00
7F00
6300
6300
6300
7F00
7F00
0000
ENDCHAR
STARTCHAR yen
ENCODING 165
SWIDTH 563 0
DWIDTH 9 0
BBX 9 11 1 0
BITMAP
6180
6300
3200
3600
3C00
3C00
FE00
1800
FE00
3000
3000
ENDCHAR
STARTCHAR brokenbar
ENCODING 166
SWIDTH 250 0
DWIDTH 4 0
BBX 2 16 1 -4
BITMAP
C0
C0
C0
C0
C0
C0
00
00
00
00
C0
C0
C0
C0
C0
C0
ENDCHAR
STARTCHAR section
ENCODING 167
SWIDTH 563 0
DWIDTH 9 0
BBX 9 13 0 -2
BITMAP
1F00
3F80
3180
3800
1E00
6700
6300
7700
3C00
0600
C600
FE00
7C00
ENDCHAR
STARTCHAR dieresis
ENCODING 168
SWIDTH 313 0
DWIDTH 5 0
BBX 5 2 1 9
BITMAP
D8
D8
ENDCHAR
STARTCHAR copyright
ENCODING 169
SWIDTH 813 0
DWIDTH 13 0
BBX 11 11 1 0
BITMAP
1F00
2080
4E40
9120
9020
9020
9020
9B20
4E40
2080
1F00
ENDCHAR
STARTCHAR ordfeminine
ENCODING 170
SWIDTH 375 0
DWIDTH 6 0
BBX 6 5 1 6
BITMAP
78
08
78
88
FC
ENDCHAR
STARTCHAR guillemotleft
ENCODING 171
SWIDTH 563 0
DWIDTH 9 0
BBX 9 6 0 1
BITMAP
3B80
7700
EE00
CC00
6600
3300
ENDCHAR
STARTCHAR logicalnot
ENCODING 172
SWIDTH 563 0
DWIDTH 9 0
BBX 7 5 1 1
BITMAP
FE
FE
06
06
06
ENDCHAR
STARTCHAR hyphen
ENCODING 173
SWIDTH 313 0
DWIDTH 5 0
BBX 5 2 0 3
BITMAP
F8
F8
ENDCHAR
STARTCHAR registered
ENCODING 174
SWIDTH 813 0
DWIDTH 13 0
BBX 11 11 1 0
BITMAP
1F00
2080
5E40
9120
9120
9E20
9620
9220
5340
2080
1F00
ENDCHAR
STARTCHAR macron
ENCODING 175
SWIDTH 563 0
DWIDTH 9 0
BBX 9 1 0 11
BITMAP
FF80
ENDCHAR
STARTCHAR degree
ENCODING 176
SWIDTH 375 0
DWIDTH 6 0
BBX 5 5 1 6
BITMAP
70
88
88
88
70
ENDCHAR
STARTCHAR plusminus
ENCODING 177
SWIDTH 563 0
DWIDTH 9 0
BBX 8 9 1 0
BITMAP
18
18
FF
FF
18
18
00
FF
FF
ENDCHAR
STARTCHAR uni00B2
ENCODING 178
SWIDTH 313 0
DWIDTH 5 0
BBX 4 5 1 6
BITMAP
70
50
30
40
E0
ENDCHAR
STARTCHAR uni00B3
ENCODING 179
SWIDTH 313 0
DWIDTH 5 0
BBX 4 5 1 6
BITMAP
70
30
20
10
F0
ENDCHAR
STARTCHAR acute
ENCODING 180
SWIDTH 313 0
DWIDTH 5 0
BBX 4 3 2 9
BITMAP
30
60
C0
ENDCHAR
STARTCHAR u00B5
ENCODING 181
SWIDTH 563 0
DWIDTH 9 0
BBX 9 13 0 -4
BITMAP
3300
3300
3300
3300
3300
3300
7700
7F00
7B00
6000
6000
6000
C000
ENDCHAR
STARTCHAR paragraph
ENCODING 182
SWIDTH 563 0
DWIDTH 9 0
BBX 8 13 1 -2
BITMAP
7F
F2
F2
F2
F2
72
12
12
12
12
12
12
12
ENDCHAR
STARTCHAR periodcentered
ENCODING 183
SWIDTH 250 0
DWIDTH 4 0
BBX 2 2 1 4
BITMAP
C0
C0
ENDCHAR
STARTCHAR cedilla
ENCODING 184
SWIDTH 313 0
DWIDTH 5 0
BBX 3 3 1 -3
BITMAP
40
20
E0
ENDCHAR
STARTCHAR uni00B9
ENCODING 185
SWIDTH 313 0
DWIDTH 5 0
BBX 3 5 1 6
BITMAP
60
A0
40
40
E0
ENDCHAR
STARTCHAR ordmasculine
ENCODING 186
SWIDTH 375 0
DWIDTH 6 0
BBX 5 5 1 6
BITMAP
70
88
88
98
70
ENDCHAR
STARTCHAR guillemotright
ENCODING 187
SWIDTH 500 0
DWIDTH 8 0
BBX 9 6 0 1
BITMAP
6600
3300
1980
3B80
7700
EE00
ENDCHAR
STARTCHAR onequarter
ENCODING 188
SWIDTH 813 0
DWIDTH 13 0
BBX 10 11 2 0
BITMAP
6040
A080
4100
4200
E400
0800
0980
1280
2280
4780
8100
ENDCHAR
STARTCHAR onehalf
ENCODING 189
SWIDTH 813 0
DWIDTH 13 0
BBX 10 11 2 0
BITMAP
6040
A080
4100
4200
E400
0800
09C0
1140
20C0
4100
8380
ENDCHAR
STARTCHAR threequarters
ENCODING 190
SWIDTH 813 0
DWIDTH 13 0
BBX 11 11 1 0
BITMAP
7020
3040
2080
1100
F200
0400
04C0
0940
1140
23C0
4080
ENDCHAR
STARTCHAR questiondown
ENCODING 191
SWIDTH 625 0
DWIDTH 10 0
BBX 8 12 0 -3
BITMAP
06
06
00
0C
0C
38
70
C0
C0
C7
FE
7C
ENDCHAR
STARTCHAR Agrave
ENCODING 192
SWIDTH 750 0
DWIDTH 12 0
BBX 11 14 0 0
BITMAP
0700
0180
0000
0380
0380
0680
06C0
0CC0
18C0
1FC0
3FC0
3060
6060
C060
ENDCHAR
STARTCHAR Aacute
ENCODING 193
SWIDTH 750 0
DWIDTH 12 0
BBX 11 14 0 0
BITMAP
00E0
0180
0000
0380
0380
0680
06C0
0CC0
18C0
1FC0
3FC0
3060
6060
C060
ENDCHAR
STARTCHAR Acircumflex
ENCODING 194
SWIDTH 750 0
DWIDTH 12 0
BBX 11 14 0 0
BITMAP
01C0
0660
0000
0380
0380
0680
06C0
0CC0
18C0
1FC0
3FC0
3060
6060
C060
ENDCHAR
STARTCHAR Atilde
ENCODING 195
SWIDTH 750 0
DWIDTH 12 0
BBX 11 14 0 0
BITMAP
0320
04C0
0000
0380
0380
0680
06C0
0CC0
18C0
1FC0
3FC0
3060
6060
C060
ENDCHAR
STARTCHAR Adieresis
ENCODING 196
SWIDTH 750 0
DWIDTH 12 0
BBX 11 14 0 0
BITMAP
0360
0360
0000
0380
0380
0680
06C0
0CC0
18C0
1FC0
3FC0
3060
6060
C060
ENDCHAR
STARTCHAR Aring
ENCODING 197
SWIDTH 750 0
DWIDTH 12 0
BBX 11 14 0 0
BITMAP
0180
0240
0240
0380
0380
0680
06C0
0CC0
18C0
1FC0
3FC0
3060
6060
C060
ENDCHAR
STARTCHAR AE
ENCODING 198
SWIDTH 1000 0
DWIDTH 16 0
BBX 17 11 -1 0
BITMAP
01FF80
03FF80
036000
06C000
0EFF00
0CFF00
1FC000
3FC000
318000
61FF00
E1FF00
ENDCHAR
STARTCHAR Ccedilla
ENCODING 199
SWIDTH 750 0
DWIDTH 12 0
BBX 11 14 1 -3
BITMAP
0F80
3FC0
70E0
6040
C000
C000
C000
C080
E1C0
7F80
3E00
0800
0400
1C00
ENDCHAR
STARTCHAR Egrave
ENCODING 200
SWIDTH 688 0
DWIDTH 11 0
BBX 10 14 1 0
BITMAP
0E00
0300
0000
3FC0
3FC0
3000
6000
7F80
7F80
6000
6000
C000
FF80
FF80
ENDCHAR
STARTCHAR Eacute
ENCODING 201
SWIDTH 688 0
DWIDTH 11 0
BBX 10 14 1 0
BITMAP
0380
0600
0000
3FC0
3FC0
3000
6000
7F80
7F80
6000
6000
C000
FF80
FF80
ENDCHAR
STARTCHAR Ecircumflex
ENCODING 202
SWIDTH 688 0
DWIDTH 11 0
BBX 10 14 1 0
BITMAP
0700
1980
0000
3FC0
3FC0
3000
6000
7F80
7F80
6000
6000
C000
FF80
FF80
ENDCHAR
STARTCHAR Edieresis
ENCODING 203
SWIDTH 688 0
DWIDTH 11 0
BBX 10 14 1 0
BITMAP
0D80
0D80
0000
3FC0
3FC0
3000
6000
7F80
7F80
6000
6000
C000
FF80
FF80
ENDCHAR
STARTCHAR Igrave
ENCODING 204
SWIDTH 313 0
DWIDTH 5 0
BBX 5 14 1 0
BITMAP
70
18
00
30
30
30
60
60
60
60
60
C0
C0
C0
ENDCHAR
STARTCHAR Iacute
ENCODING 205
SWIDTH 313 0
DWIDTH 5 0
BBX 6 14 1 0
BITMAP
1C
30
00
30
30
30
60
60
60
60
60
C0
C0
C0
ENDCHAR
STARTCHAR Icircumflex
ENCODING 206
SWIDTH 313 0
DWIDTH 5 0
BBX 6 14 1 0
BITMAP
38
CC
00
30
30
30
60
60
60
60
60
C0
C0
C0
ENDCHAR
STARTCHAR Idieresis
ENCODING 207
SWIDTH 313 0
DWIDTH 5 0
BBX 6 14 1 0
BITMAP
6C
6C
00
30
30
30
60
60
60
60
60
C0
C0
C0
ENDCHAR
STARTCHAR Eth
ENCODING 208
SWIDTH 750 0
DWIDTH 12 0
BBX 11 11 1 0
BITMAP
3F00
3FC0
30E0
6060
FC60
FC60
6060
60C0
C1C0
FF80
FE00
ENDCHAR
STARTCHAR Ntilde
ENCODING 209
SWIDTH 750 0
DWIDTH 12 0
BBX 11 14 1 0
BITMAP
0640
0980
0000
3860
3860
3860
6CC0
6CC0
64C0
66C0
66C0
C380
C380
C380
ENDCHAR
STARTCHAR Ograve
ENCODING 210
SWIDTH 750 0
DWIDTH 12 0
BBX 11 14 1 0
BITMAP
0E00
0300
0000
0F80
3FC0
70E0
6060
C060
C060
C060
C0C0
E1C0
7F80
3E00
ENDCHAR
STARTCHAR Oacute
ENCODING 211
SWIDTH 750 0
DWIDTH 12 0
BBX 11 14 1 0
BITMAP
01C0
0300
0000
0F80
3FC0
70E0
6060
C060
C060
C060
C0C0
E1C0
7F80
3E00
ENDCHAR
STARTCHAR Ocircumflex
ENCODING 212
SWIDTH 750 0
DWIDTH 12 0
BBX 11 14 1 0
BITMAP
0380
0CC0
0000
0F80
3FC0
70E0
6060
C060
C060
C060
C0C0
E1C0
7F80
3E00
ENDCHAR
STARTCHAR Otilde
ENCODING 213
SWIDTH 750 0
DWIDTH 12 0
BBX 11 14 1 0
BITMAP
0640
0980
0000
0F80
3FC0
70E0
6060
C060
C060
C060
C0C0
E1C0
7F80
3E00
ENDCHAR
STARTCHAR Odieresis
ENCODING 214
SWIDTH 750 0
DWIDTH 12 0
BBX 11 14 1 0
BITMAP
06C0
06C0
0000
0F80
3FC0
70E0
6060
C060
C060
C060
C0C0
E1C0
7F80
3E00
ENDCHAR
STARTCHAR multiply
ENCODING 215
SWIDTH 563 0
DWIDTH 9 0
BBX 8 8 0 1
BITMAP
63
77
3E
1C
3E
77
63
00
ENDCHAR
STARTCHAR Oslash
ENCODING 216
SWIDTH 750 0
DWIDTH 12 0
BBX 13 11 0 0
BITMAP
07D0
1FE0
3870
30F0
61B0
6230
6430
6860
70E0
3FC0
5F00
ENDCHAR
STARTCHAR Ugrave
ENCODING 217
SWIDTH 750 0
DWIDTH 12 0
BBX 10 14 2 0
BITMAP
1C00
0600
0000
60C0
60C0
60C0
C180
C180
C180
C180
C180
C300
FF00
7C00
ENDCHAR
STARTCHAR Uacute
ENCODING 218
SWIDTH 750 0
DWIDTH 12 0
BBX 10 14 2 0
BITMAP
0380
0600
0000
60C0
60C0
60C0
C180
C180
C180
C180
C180
C300
FF00
7C00
ENDCHAR
STARTCHAR Ucircumflex
ENCODING 219
SWIDTH 750 0
DWIDTH 12 0
BBX 10 14 2 0
BITMAP
0700
1980
0000
60C0
60C0
60C0
C180
C180
C180
C180
C180
C300
FF00
7C00
ENDCHAR
STARTCHAR Udieresis
ENCODING 220
SWIDTH 750 0
DWIDTH 12 0
BBX 10 14 2 0
BITMAP
0D80
0D80
0000
60C0
60C0
60C0
C180
C180
C180
C180
C180
C300
FF00
7C00
ENDCHAR
STARTCHAR Yacute
ENCODING 221
SWIDTH 625 0
DWIDTH 10 0
BBX 10 14 1 0
BITMAP
0700
0C00
0000
C0C0
6180
6300
3600
3400
3C00
1800
1800
3000
3000
3000
ENDCHAR
STARTCHAR Thorn
ENCODING 222
SWIDTH 688 0
DWIDTH 11 0
BBX 9 11 1 0
BITMAP
3000
3000
3F00
7F80
6180
6180
6180
7F00
FE00
C000
C000
ENDCHAR
STARTCHAR germandbls
ENCODING 223
SWIDTH 625 0
DWIDTH 10 0
BBX 8 12 1 0
BITMAP
1E
3F
33
63
66
6C
6C
66
63
C3
DF
DE
ENDCHAR
STARTCHAR agrave
ENCODING 224
SWIDTH 563 0
DWIDTH 9 0
BBX 7 13 1 0
BITMAP
1C
0C
06
00
3C
7E
66
06
7E
C6
CC
F6
76
ENDCHAR
STARTCHAR aacute
ENCODING 225
SWIDTH 563 0
DWIDTH 9 0
BBX 8 13 1 0
BITMAP
03
06
0C
00
3C
7E
66
06
7E
C6
CC
F6
76
ENDCHAR
STARTCHAR acircumflex
ENCODING 226
SWIDTH 563 0
DWIDTH 9 0
BBX 8 13 1 0
BITMAP
0E
1A
33
00
3C
7E
66
06
7E
C6
CC
F6
76
ENDCHAR
STARTCHAR atilde
ENCODING 227
SWIDTH 563 0
DWIDTH 9 0
BBX 8 12 1 0
BITMAP
19
26
00
3C
7E
66
06
7E
C6
CC
F6
76
ENDCHAR
STARTCHAR adieresis
ENCODING 228
SWIDTH 563 0
DWIDTH 9 0
BBX 8 12 1 0
BITMAP
1B
1B
00
3C
7E
66
06
7E
C6
CC
F6
76
ENDCHAR
STARTCHAR aring
ENCODING 229
SWIDTH 563 0
DWIDTH 9 0
BBX 7 14 1 0
BITMAP
0C
12
12
0C
00
3C
7E
66
06
7E
C6
CC
F6
76
ENDCHAR
STARTCHAR ae
ENCODING 230
SWIDTH 875 0
DWIDTH 14 0
BBX 12 9 1 0
BITMAP
3DE0
7FF0
0630
7FF0
FFF0
CC00
CE40
FFE0
73C0
ENDCHAR
STARTCHAR ccedilla
ENCODING 231
SWIDTH 500 0
DWIDTH 8 0
BBX 7 12 1 -3
BITMAP
3C
7E
66
C0
C0
C0
CC
F8
78
20
10
70
ENDCHAR
STARTCHAR egrave
ENCODING 232
SWIDTH 563 0
DWIDTH 9 0
BBX 8 13 1 0
BITMAP
1C
0C
06
00
3E
7F
63
FF
FF
C0
C4
FE
7C
ENDCHAR
STARTCHAR eacute
ENCODING 233
SWIDTH 563 0
DWIDTH 9 0
BBX 8 13 1 0
BITMAP
03
06
0C
00
3E
7F
63
FF
FF
C0
C4
FE
7C
ENDCHAR
STARTCHAR ecircumflex
ENCODING 234
SWIDTH 563 0
DWIDTH 9 0
BBX 8 13 1 0
BITMAP
0E
1A
33
00
3E
7F
63
FF
FF
C0
C4
FE
7C
ENDCHAR
STARTCHAR edieresis
ENCODING 235
SWIDTH 563 0
DWIDTH 9 0
BBX 8 12 1 0
BITMAP
1B
1B
00
3E
7F
63
FF
FF
C0
C4
FE
7C
ENDCHAR
STARTCHAR igrave
ENCODING 236
SWIDTH 250 0
DWIDTH 4 0
BBX 4 13 0 0
BITMAP
E0
60
30
00
60
60
60
60
60
60
C0
C0
C0
ENDCHAR
STARTCHAR iacute
ENCODING 237
SWIDTH 250 0
DWIDTH 4 0
BBX 6 13 0 0
BITMAP
0C
18
30
00
60
60
60
60
60
60
C0
C0
C0
ENDCHAR
STARTCHAR icircumflex
ENCODING 238
SWIDTH 250 0
DWIDTH 4 0
BBX 6 13 0 0
BITMAP
38
68
CC
00
60
60
60
60
60
60
C0
C0
C0
ENDCHAR
STARTCHAR idieresis
ENCODING 239
SWIDTH 250 0
DWIDTH 4 0
BBX 6 12 0 0
BITMAP
6C
6C
00
60
60
60
60
60
60
C0
C0
C0
ENDCHAR
STARTCHAR eth
ENCODING 240
SWIDTH 625 0
DWIDTH 10 0
BBX 8 12 1 0
BITMAP
1D
0E
16
03
3F
7F
E3
C3
C3
C6
FE
78
ENDCHAR
STARTCHAR ntilde
ENCODING 241
SWIDTH 625 0
DWIDTH 10 0
BBX 9 12 1 0
BITMAP
0C80
1300
0000
6E00
7F00
7300
6300
6300
6300
C600
C600
C600
ENDCHAR
STARTCHAR ograve
ENCODING 242
SWIDTH 625 0
DWIDTH 10 0
BBX 8 13 1 0
BITMAP
1C
0C
06
00
3E
7F
63
C3
C3
C3
C6
FE
78
ENDCHAR
STARTCHAR oacute
ENCODING 243
SWIDTH 625 0
DWIDTH 10 0
BBX 8 13 1 0
BITMAP
03
06
0C
00
3E
7F
63
C3
C3
C3
C6
FE
78
ENDCHAR
STARTCHAR ocircumflex
ENCODING 244
SWIDTH 625 0
DWIDTH 10 0
BBX 8 13 1 0
BITMAP
0E
1A
33
00
3E
7F
63
C3
C3
C3
C6
FE
78
ENDCHAR
STARTCHAR otilde
ENCODING 245
SWIDTH 625 0
DWIDTH 10 0
BBX 8 12 1 0
BITMAP
19
26
00
3E
7F
63
C3
C3
C3
C6
FE
78
ENDCHAR
STARTCHAR odieresis
ENCODING 246
SWIDTH 625 0
DWIDTH 10 0
BBX 8 12 1 0
BITMAP
1B
1B
00
3E
7F
63
C3
C3
C3
C6
FE
78
ENDCHAR
STARTCHAR divide
ENCODING 247
SWIDTH 563 0
DWIDTH 9 0
BBX 8 8 1 1
BITMAP
18
18
00
FF
FF
00
18
18
ENDCHAR
STARTCHAR oslash
ENCODING 248
SWIDTH 563 0
DWIDTH 9 0
BBX 7 9 1 0
BITMAP
3E
7E
6E
CE
D6
E6
EC
FC
F8
ENDCHAR
STARTCHAR ugrave
ENCODING 249
SWIDTH 625 0
DWIDTH 10 0
BBX 9 13 1 0
BITMAP
1C00
0C00
0600
0000
6300
6300
6300
6300
6300
6300
E600
7E00
7600
ENDCHAR
STARTCHAR uacute
ENCODING 250
SWIDTH 625 0
DWIDTH 10 0
BBX 9 13 1 0
BITMAP
0300
0600
0C00
0000
6300
6300
6300
6300
6300
6300
E600
7E00
7600
ENDCHAR
STARTCHAR ucircumflex
ENCODING 251
SWIDTH 625 0
DWIDTH 10 0
BBX 9 13 1 0
BITMAP
0E00
1A00
3300
0000
6300
6300
6300
6300
6300
6300
E600
7E00
7600
ENDCHAR
STARTCHAR udieresis
ENCODING 252
SWIDTH 625 0
DWIDTH 10 0
BBX 9 12 1 0
BITMAP
1B00
1B00
0000
6300
6300
6300
6300
6300
6300
E600
7E00
7600
ENDCHAR
STARTCHAR yacute
ENCODING 253
SWIDTH 563 0
DWIDTH 9 0
BBX 10 17 0 -4
BITMAP
0180
0300
0600
0000
60C0
6180
3180
3300
3300
3600
1600
1C00
1C00
1800
3800
F000
E000
ENDCHAR
STARTCHAR thorn
ENCODING 254
SWIDTH 625 0
DWIDTH 10 0
BBX 9 16 0 -4
BITMAP
1800
1800
1800
3700
3F80
3980
3180
3180
3180
7300
7F00
6E00
6000
6000
6000
C000
ENDCHAR
STARTCHAR ydieresis
ENCODING 255
SWIDTH 563 0
DWIDTH 9 0
BBX 10 16 0 -4
BITMAP
0D80
0D80
0000
60C0
6180
3180
3300
3300
3600
1600
1C00
1C00
1800
3800
F000
E000
ENDCHAR
STARTCHAR Amacron
ENCODING 256
SWIDTH 750 0
DWIDTH 12 0
BBX 11 13 0 0
BITMAP
03E0
0000
0380
0380
0680
06C0
0CC0
18C0
1FC0
3FC0
3060
6060
C060
ENDCHAR
STARTCHAR amacron
ENCODING 257
SWIDTH 563 0
DWIDTH 9 0
BBX 8 11 1 0
BITMAP
1F
00
3C
7E
66
06
7E
C6
CC
F6
76
ENDCHAR
STARTCHAR Abreve
ENCODING 258
SWIDTH 750 0
DWIDTH 12 0
BBX 11 14 0 0
BITMAP
0420
03C0
0000
0380
0380
0680
06C0
0CC0
18C0
1FC0
3FC0
3060
6060
C060
ENDCHAR
STARTCHAR abreve
ENCODING 259
SWIDTH 563 0
DWIDTH 9 0
BBX 9 13 1 0
BITMAP
1080
1900
0F00
0000
3C00
7E00
6600
0600
7E00
C600
CC00
F600
7600
ENDCHAR
STARTCHAR Aogonek
ENCODING 260
SWIDTH 750 0
DWIDTH 12 0
BBX 11 14 0 -3
BITMAP
0380
0380
0680
06C0
0CC0
18C0
1FC0
3FC0
3060
6060
C060
0080
0080
00E0
ENDCHAR
STARTCHAR aogonek
ENCODING 261
SWIDTH 563 0
DWIDTH 9 0
BBX 7 12 1 -3
BITMAP
3C
7E
66
06
7E
C6
CC
F6
76
08
08
0E
ENDCHAR
STARTCHAR Cacute
ENCODING 262
SWIDTH 750 0
DWIDTH 12 0
BBX 11 14 1 0
BITMAP
01C0
0300
0000
0F80
3FC0
70E0
6040
C000
C000
C000
C080
E1C0
7F80
3E00
ENDCHAR
STARTCHAR cacute
ENCODING 263
SWIDTH 500 0
DWIDTH 8 0
BBX 8 13 1 0
BITMAP
03
06
0C
00
3C
7E
66
C0
C0
C0
CC
F8
78
ENDCHAR
STARTCHAR Ccircumflex
ENCODING 264
SWIDTH 750 0
DWIDTH 12 0
BBX 11 14 1 0
BITMAP
0380
0CC0
0000
0F80
3FC0
70E0
6040
C000
C000
C000
C080
E1C0
7F80
3E00
ENDCHAR
STARTCHAR ccircumflex
ENCODING 265
SWIDTH 500 0
DWIDTH 8 0
BBX 7 13 1 0
BITMAP
1C
34
66
00
3C
7E
66
C0
C0
C0
CC
F8
78
ENDCHAR
STARTCHAR Cdotaccent
ENCODING 266
SWIDTH 750 0
DWIDTH 12 0
BBX 11 14 1 0
BITMAP
0300
0300
0000
0F80
3FC0
70E0
6040
C000
C000
C000
C080
E1C0
7F80
3E00
ENDCHAR
STARTCHAR cdotaccent
ENCODING 267
SWIDTH 500 0
DWIDTH 8 0
BBX 7 12 1 0
BITMAP
0C
0C
00
3C
7E
66
C0
C0
C0
CC
F8
78
ENDCHAR
STARTCHAR Ccaron
ENCODING 268
SWIDTH 750 0
DWIDTH 12 0
BBX 11 14 1 0
BITMAP
0CC0
0700
0000
0F80
3FC0
70E0
6040
C000
C000
C000
C080
E1C0
7F80
3E00
ENDCHAR
STARTCHAR ccaron
ENCODING 269
SWIDTH 500 0
DWIDTH 8 0
BBX 8 13 1 0
BITMAP
33
1E
1C
00
3C
7E
66
C0
C0
C0
CC
F8
78
ENDCHAR
STARTCHAR Dcaron
ENCODING 270
SWIDTH 750 0
DWIDTH 12 0
BBX 11 14 1 0
BITMAP
0CC0
0700
0000
3F00
3FC0
30E0
6060
6060
6060
6060
60C0
C1C0
FF80
FE00
ENDCHAR
STARTCHAR dcaron
ENCODING 271
SWIDTH 750 0
DWIDTH 12 0
BBX 11 12 1 0
BITMAP
0360
0360
0340
3E00
7E00
6600
C600
C600
CE00
CC00
FC00
6C00
ENDCHAR
STARTCHAR Dcroat
ENCODING 272
SWIDTH 750 0
DWIDTH 12 0
BBX 11 11 1 0
BITMAP
3F00
3FC0
30E0
6060
FC60
FC60
6060
60C0
C1C0
FF80
FE00
ENDCHAR
STARTCHAR dcroat
ENCODING 273
SWIDTH 563 0
DWIDTH 9 0
BBX 9 12 1 0
BITMAP
0300
1F80
0300
3E00
7E00
6600
C600
C600
CE00
CC00
FC00
6C00
ENDCHAR
STARTCHAR Emacron
ENCODING 274
SWIDTH 688 0
DWIDTH 11 0
BBX 10 13 1 0
BITMAP
0F80
0000
3FC0
3FC0
3000
6000
7F80
7F80
6000
6000
C000
FF80
FF80
ENDCHAR
STARTCHAR emacron
ENCODING 275
SWIDTH 563 0
DWIDTH 9 0
BBX 8 11 1 0
BITMAP
1F
00
3E
7F
63
FF
FF
C0
C4
FE
7C
ENDCHAR
STARTCHAR Ebreve
ENCODING 276
SWIDTH 688 0
DWIDTH 11 0
BBX 10 14 1 0
BITMAP
0840
0780
0000
3FC0
3FC0
3000
6000
7F80
7F80
6000
6000
C000
FF80
FF80
ENDCHAR
STARTCHAR ebreve
ENCODING 277
SWIDTH 563 0
DWIDTH 9 0
BBX 9 13 1 0
BITMAP
1080
1900
0F00
0000
3E00
7F00
6300
FF00
FF00
C000
C400
FE00
7C00
ENDCHAR
STARTCHAR Edotaccent
ENCODING 278
SWIDTH 688 0
DWIDTH 11 0
BBX 10 14 1 0
BITMAP
0300
0300
0000
3FC0
3FC0
3000
6000
7F80
7F80
6000
6000
C000
FF80
FF80
ENDCHAR
STARTCHAR edotaccent
ENCODING 279
SWIDTH 563 0
DWIDTH 9 0
BBX 8 12 1 0
BITMAP
0C
0C
00
3E
7F
63
FF
FF
C0
C4
FE
7C
ENDCHAR
STARTCHAR Eogonek
ENCODING 280
SWIDTH 688 0
DWIDTH 11 0
BBX 10 14 1 -3
BITMAP
3FC0
3FC0
3000
6000
7F80
7F80
6000
6000
C000
FF80
FF80
0400
0400
0700
ENDCHAR
STARTCHAR eogonek
ENCODING 281
SWIDTH 563 0
DWIDTH 9 0
BBX 8 12 1 -3
BITMAP
3E
7F
63
FF
FF
C0
C4
FE
7C
20
20
38
ENDCHAR
STARTCHAR Ecaron
ENCODING 282
SWIDTH 688 0
DWIDTH 11 0
BBX 10 14 1 0
BITMAP
0CC0
0700
0000
3FC0
3FC0
3000
6000
7F80
7F80
6000
6000
C000
FF80
FF80
ENDCHAR
STARTCHAR ecaron
ENCODING 283
SWIDTH 563 0
DWIDTH 9 0
BBX 9 13 1 0
BITMAP
1980
0F00
0E00
0000
3E00
7F00
6300
FF00
FF00
C000
C400
FE00
7C00
ENDCHAR
STARTCHAR Gcircumflex
ENCODING 284
SWIDTH 750 0
DWIDTH 12 0
BBX 11 14 1 0
BITMAP
0380
0CC0
0000
0F80
3FC0
70E0
6040
C000
C7C0
C7C0
C0C0
E180
7F80
3F00
ENDCHAR
STARTCHAR gcircumflex
ENCODING 285
SWIDTH 563 0
DWIDTH 9 0
BBX 9 17 0 -4
BITMAP
0E00
1A00
3300
0000
1F00
3F00
3700
6300
6300
6700
6600
7E00
3600
0600
0E00
FC00
7800
ENDCHAR
STARTCHAR Gbreve
ENCODING 286
SWIDTH 750 0
DWIDTH 12 0
BBX 11 14 1 0
BITMAP
0840
0780
0000
0F80
3FC0
70E0
6040
C000
C7C0
C7C0
C0C0
E180
7F80
3F00
ENDCHAR
STARTCHAR gbreve
ENCODING 287
SWIDTH 563 0
DWIDTH 9 0
BBX 9 17 0 -4
BITMAP
1080
1900
0F00
0000
1F00
3F00
3700
6300
6300
6700
6600
7E00
3600
0600
0E00
FC00
7800
ENDCHAR
STARTCHAR Gdotaccent
ENCODING 288
SWIDTH 750 0
DWIDTH 12 0
BBX 11 14 1 0
BITMAP
0300
0300
0000
0F80
3FC0
70E0
6040
C000
C7C0
C7C0
C0C0
E180
7F80
3F00
ENDCHAR
STARTCHAR gdotaccent
ENCODING 289
SWIDTH 563 0
DWIDTH 9 0
BBX 9 16 0 -4
BITMAP
0600
0600
0000
1F00
3F00
3700
6300
6300
6700
6600
7E00
3600
0600
0E00
FC00
7800
ENDCHAR
STARTCHAR Gcommaaccent
ENCODING 290
SWIDTH 750 0
DWIDTH 12 0
BBX 11 15 1 -4
BITMAP
0F80
3FC0
70E0
6040
C000
C7C0
C7C0
C0C0
E180
7F80
3F00
0000
0C00
0C00
0800
ENDCHAR
STARTCHAR gcommaaccent
ENCODING 291
SWIDTH 563 0
DWIDTH 9 0
BBX 9 17 0 -4
BITMAP
0400
0C00
0C00
0000
1F00
3F00
3700
6300
6300
6700
6600
7E00
3600
0600
0E00
FC00
7800
ENDCHAR
STARTCHAR Hcircumflex
ENCODING 292
SWIDTH 750 0
DWIDTH 12 0
BBX 11 14 1 0
BITMAP
0380
0CC0
0000
3060
3060
3060
60C0
7FC0
7FC0
60C0
60C0
C180
C180
C180
ENDCHAR
STARTCHAR hcircumflex
ENCODING 293
SWIDTH 625 0
DWIDTH 10 0
BBX 9 15 1 0
BITMAP
0700
1980
0000
3000
3000
3000
6E00
7F00
7300
6300
6300
6300
C600
C600
C600
ENDCHAR
STARTCHAR Hbar
ENCODING 294
SWIDTH 750 0
DWIDTH 12 0
BBX 12 11 1 0
BITMAP
3060
7FF0
7FF0
60C0
7FC0
7FC0
60C0
60C0
C180
C180
C180
ENDCHAR
STARTCHAR hbar
ENCODING 295
SWIDTH 625 0
DWIDTH 10 0
BBX 8 12 1 0
BITMAP
30
7C
30
6E
7F
73
63
63
63
C6
C6
C6
ENDCHAR
STARTCHAR Itilde
ENCODING 296
SWIDTH 313 0
DWIDTH 5 0
BBX 7 14 1 0
BITMAP
32
4C
00
30
30
30
60
60
60
60
60
C0
C0
C0
ENDCHAR
STARTCHAR itilde
ENCODING 297
SWIDTH 250 0
DWIDTH 4 0
BBX 6 12 0 0
BITMAP
64
98
00
60
60
60
60
60
60
C0
C0
C0
ENDCHAR
STARTCHAR Imacron
ENCODING 298
SWIDTH 313 0
DWIDTH 5 0
BBX 6 13 1 0
BITMAP
7C
00
30
30
30
60
60
60
60
60
C0
C0
C0
ENDCHAR
STARTCHAR imacron
ENCODING 299
SWIDTH 250 0
DWIDTH 4 0
BBX 6 11 0 0
BITMAP
7C
00
60
60
60
60
60
60
C0
C0
C0
ENDCHAR
STARTCHAR Ibreve
ENCODING 300
SWIDTH 313 0
DWIDTH 5 0
BBX 7 14 1 0
BITMAP
42
3C
00
30
30
30
60
60
60
60
60
C0
C0
C0
ENDCHAR
STARTCHAR ibreve
ENCODING 301
SWIDTH 250 0
DWIDTH 4 0
BBX 6 13 0 0
BITMAP
84
C8
78
00
60
60
60
60
60
60
C0
C0
C0
ENDCHAR
STARTCHAR Iogonek
ENCODING 302
SWIDTH 313 0
DWIDTH 5 0
BBX 4 14 1 -3
BITMAP
30
30
30
60
60
60
60
60
C0
C0
C0
80
80
E0
ENDCHAR
STARTCHAR iogonek
ENCODING 303
SWIDTH 250 0
DWIDTH 4 0
BBX 5 15 -1 -3
BITMAP
18
18
00
30
30
30
30
30
30
60
60
60
80
80
E0
ENDCHAR
STARTCHAR Idotaccent
ENCODING 304
SWIDTH 313 0
DWIDTH 5 0
BBX 5 14 1 0
BITMAP
18
18
00
30
30
30
60
60
60
60
60
C0
C0
C0
ENDCHAR
STARTCHAR dotlessi
ENCODING 305
SWIDTH 250 0
DWIDTH 4 0
BBX 4 9 0 0
BITMAP
60
60
60
60
60
60
C0
C0
C0
ENDCHAR
STARTCHAR IJ
ENCODING 306
SWIDTH 813 0
DWIDTH 13 0
BBX 12 11 1 0
BITMAP
30F0
30F0
3030
6060
6060
6060
6060
6860
DCC0
CFC0
C780
ENDCHAR
STARTCHAR ij
ENCODING 307
SWIDTH 563 0
DWIDTH 9 0
BBX 9 16 0 -4
BITMAP
3180
3180
0000
6300
6300
6300
6300
6300
6300
C600
C600
C600
0600
0600
1E00
1C00
ENDCHAR
STARTCHAR Jcircumflex
ENCODING 308
SWIDTH 563 0
DWIDTH 9 0
BBX 10 14 0 0
BITMAP
0380
0CC0
0000
0780
0780
0180
0300
0300
0300
0300
4300
E600
7E00
3C00
ENDCHAR
STARTCHAR jcircumflex
ENCODING 309
SWIDTH 250 0
DWIDTH 4 0
BBX 8 17 -2 -4
BITMAP
0E
1A
33
00
18
18
18
18
18
18
30
30
30
30
30
F0
E0
ENDCHAR
STARTCHAR Kcommaaccent
ENCODING 310
SWIDTH 750 0
DWIDTH 12 0
BBX 12 15 1 -4
BITMAP
3060
31C0
3380
6700
6C00
7E00
7600
6300
C300
C180
C0C0
0000
0C00
0C00
0800
ENDCHAR
STARTCHAR kcommaaccent
ENCODING 311
SWIDTH 563 0
DWIDTH 9 0
BBX 8 16 1 -4
BITMAP
30
30
30
67
66
6C
78
78
6C
CC
CC
C6
00
30
30
20
ENDCHAR
STARTCHAR kgreenlandic
ENCODING 312
SWIDTH 563 0
DWIDTH 9 0
BBX 8 9 1 0
BITMAP
67
66
6C
78
78
6C
CC
CC
C6
ENDCHAR
STARTCHAR Lacute
ENCODING 313
SWIDTH 625 0
DWIDTH 10 0
BBX 8 14 1 0
BITMAP
0E
18
00
30
30
30
60
60
60
60
60
C0
FF
FF
ENDCHAR
STARTCHAR lacute
ENCODING 314
SWIDTH 250 0
DWIDTH 4 0
BBX 6 15 0 0
BITMAP
1C
30
00
30
30
30
60
60
60
60
60
60
C0
C0
C0
ENDCHAR
STARTCHAR Lcommaaccent
ENCODING 315
SWIDTH 625 0
DWIDTH 10 0
BBX 8 15 1 -4
BITMAP
30
30
30
60
60
60
60
60
C0
FF
FF
00
18
18
10
ENDCHAR
STARTCHAR lcommaaccent
ENCODING 316
SWIDTH 250 0
DWIDTH 4 0
BBX 4 16 0 -4
BITMAP
30
30
30
60
60
60
60
60
60
C0
C0
C0
00
C0
C0
80
ENDCHAR
STARTCHAR Lcaron
ENCODING 317
SWIDTH 625 0
DWIDTH 10 0
BBX 8 11 1 0
BITMAP
33
33
32
60
60
60
60
60
C0
FF
FF
ENDCHAR
STARTCHAR lcaron
ENCODING 318
SWIDTH 375 0
DWIDTH 6 0
BBX 7 12 0 0
BITMAP
36
36
34
60
60
60
60
60
60
C0
C0
C0
ENDCHAR
STARTCHAR Ldot
ENCODING 319
SWIDTH 625 0
DWIDTH 10 0
BBX 8 11 1 0
BITMAP
30
30
30
60
63
63
60
60
C0
FF
FF
ENDCHAR
STARTCHAR ldot
ENCODING 320
SWIDTH 500 0
DWIDTH 8 0
BBX 7 12 0 0
BITMAP
30
30
30
60
60
66
66
60
60
C0
C0
C0
ENDCHAR
STARTCHAR Lslash
ENCODING 321
SWIDTH 625 0
DWIDTH 10 0
BBX 9 11 0 0
BITMAP
1800
1800
1800
3200
3E00
3800
7000
7000
6000
7F80
7F80
ENDCHAR
STARTCHAR lslash
ENCODING 322
SWIDTH 250 0
DWIDTH 4 0
BBX 4 12 0 0
BITMAP
30
30
30
60
70
70
E0
E0
60
C0
C0
C0
ENDCHAR
STARTCHAR Nacute
ENCODING 323
SWIDTH 750 0
DWIDTH 12 0
BBX 11 14 1 0
BITMAP
01C0
0300
0000
3860
3860
3860
6CC0
6CC0
64C0
66C0
66C0
C380
C380
C380
ENDCHAR
STARTCHAR nacute
ENCODING 324
SWIDTH 625 0
DWIDTH 10 0
BBX 9 13 1 0
BITMAP
0180
0300
0600
0000
6E00
7F00
7300
6300
6300
6300
C600
C600
C600
ENDCHAR
STARTCHAR Ncommaaccent
ENCODING 325
SWIDTH 750 0
DWIDTH 12 0
BBX 11 15 1 -4
BITMAP
3860
3860
3860
6CC0
6CC0
64C0
66C0
66C0
C380
C380
C380
0000
0C00
0C00
0800
ENDCHAR
STARTCHAR ncommaaccent
ENCODING 326
SWIDTH 625 0
DWIDTH 10 0
BBX 8 13 1 -4
BITMAP
6E
7F
73
63
63
63
C6
C6
C6
00
18
18
10
ENDCHAR
STARTCHAR Ncaron
ENCODING 327
SWIDTH 750 0
DWIDTH 12 0
BBX 11 14 1 0
BITMAP
0CC0
0700
0000
3860
3860
3860
6CC0
6CC0
64C0
66C0
66C0
C380
C380
C380
ENDCHAR
STARTCHAR ncaron
ENCODING 328
SWIDTH 625 0
DWIDTH 10 0
BBX 9 13 1 0
BITMAP
1980
0F00
0E00
0000
6E00
7F00
7300
6300
6300
6300
C600
C600
C600
ENDCHAR
STARTCHAR napostrophe
ENCODING 329
SWIDTH 688 0
DWIDTH 11 0
BBX 11 11 0 0
BITMAP
3000
3000
2DC0
4FE0
0E60
0C60
0C60
0C60
18C0
18C0
18C0
ENDCHAR
STARTCHAR Eng
ENCODING 330
SWIDTH 750 0
DWIDTH 12 0
BBX 11 11 0 0
BITMAP
3BE0
37E0
3860
3060
3060
7060
6060
60E0
64C0
6FC0
E780
ENDCHAR
STARTCHAR eng
ENCODING 331
SWIDTH 625 0
DWIDTH 10 0
BBX 8 13 1 -4
BITMAP
6E
7F
73
63
63
63
C6
C6
C6
06
06
1E
1C
ENDCHAR
STARTCHAR Omacron
ENCODING 332
SWIDTH 750 0
DWIDTH 12 0
BBX 11 13 1 0
BITMAP
0F80
0000
0F80
3FC0
70E0
6060
C060
C060
C060
C0C0
E1C0
7F80
3E00
ENDCHAR
STARTCHAR omacron
ENCODING 333
SWIDTH 625 0
DWIDTH 10 0
BBX 8 11 1 0
BITMAP
1F
00
3E
7F
63
C3
C3
C3
C6
FE
78
ENDCHAR
STARTCHAR Obreve
ENCODING 334
SWIDTH 750 0
DWIDTH 12 0
BBX 11 14 1 0
BITMAP
0840
0780
0000
0F80
3FC0
70E0
6060
C060
C060
C060
C0C0
E1C0
7F80
3E00
ENDCHAR
STARTCHAR obreve
ENCODING 335
SWIDTH 625 0
DWIDTH 10 0
BBX 9 13 1 0
BITMAP
1080
1900
0F00
0000
3E00
7F00
6300
C300
C300
C300
C600
FE00
7800
ENDCHAR
STARTCHAR Ohungarumlaut
ENCODING 336
SWIDTH 750 0
DWIDTH 12 0
BBX 12 14 1 0
BITMAP
0770
0CC0
0000
0F80
3FC0
70E0
6060
C060
C060
C060
C0C0
E1C0
7F80
3E00
ENDCHAR
STARTCHAR ohungarumlaut
ENCODING 337
SWIDTH 625 0
DWIDTH 10 0
BBX 9 13 1 0
BITMAP
0D80
1B00
3600
0000
3E00
7F00
6300
C300
C300
C300
C600
FE00
7800
ENDCHAR
STARTCHAR OE
ENCODING 338
SWIDTH 1000 0
DWIDTH 16 0
BBX 15 11 1 0
BITMAP
0FFE
3FFE
70C0
6180
C1FC
C1FC
C180
C180
E300
7FFC
3FFC
ENDCHAR
STARTCHAR oe
ENCODING 339
SWIDTH 938 0
DWIDTH 15 0
BBX 15 9 0 0
BITMAP
0E30
3FFC
71C6
6186
61FE
E180
6388
77DC
3EF8
ENDCHAR
STARTCHAR Racute
ENCODING 340
SWIDTH 750 0
DWIDTH 12 0
BBX 11 14 1 0
BITMAP
01C0
0300
0000
3F80
3FE0
3060
6060
60E0
7FC0
7F00
6300
C180
C180
C0C0
ENDCHAR
STARTCHAR racute
ENCODING 341
SWIDTH 375 0
DWIDTH 6 0
BBX 7 13 1 0
BITMAP
06
0C
18
00
6C
7C
70
60
60
60
C0
C0
C0
ENDCHAR
STARTCHAR Rcommaaccent
ENCODING 342
SWIDTH 750 0
DWIDTH 12 0
BBX 11 15 1 -4
BITMAP
3F80
3FE0
3060
6060
60E0
7FC0
7F00
6300
C180
C180
C0C0
0000
0C00
0C00
0800
ENDCHAR
STARTCHAR rcommaaccent
ENCODING 343
SWIDTH 375 0
DWIDTH 6 0
BBX 6 13 1 -4
BITMAP
6C
7C
70
60
60
60
C0
C0
C0
00
C0
C0
80
ENDCHAR
STARTCHAR Rcaron
ENCODING 344
SWIDTH 750 0
DWIDTH 12 0
BBX 11 14 1 0
BITMAP
0CC0
0700
0000
3F80
3FE0
3060
6060
60E0
7FC0
7F00
6300
C180
C180
C0C0
ENDCHAR
STARTCHAR rcaron
ENCODING 345
SWIDTH 375 0
DWIDTH 6 0
BBX 7 13 1 0
BITMAP
66
3C
38
00
6C
7C
70
60
60
60
C0
C0
C0
ENDCHAR
STARTCHAR Sacute
ENCODING 346
SWIDTH 688 0
DWIDTH 11 0
BBX 10 14 1 0
BITMAP
0380
0600
0000
1F00
3F80
61C0
6000
7C00
1F00
0380
4180
E180
7F00
3E00
ENDCHAR
STARTCHAR sacute
ENCODING 347
SWIDTH 563 0
DWIDTH 9 0
BBX 8 13 1 0
BITMAP
03
06
0C
00
3C
7E
60
70
3C
0C
0C
FC
78
ENDCHAR
STARTCHAR Scircumflex
ENCODING 348
SWIDTH 688 0
DWIDTH 11 0
BBX 10 14 1 0
BITMAP
0700
1980
0000
1F00
3F80
61C0
6000
7C00
1F00
0380
4180
E180
7F00
3E00
ENDCHAR
STARTCHAR scircumflex
ENCODING 349
SWIDTH 563 0
DWIDTH 9 0
BBX 8 13 1 0
BITMAP
0E
1A
33
00
3C
7E
60
70
3C
0C
0C
FC
78
ENDCHAR
STARTCHAR Scedilla
ENCODING 350
SWIDTH 688 0
DWIDTH 11 0
BBX 10 14 1 -3
BITMAP
1F00
3F80
61C0
6000
7C00
1F00
0380
4180
E180
7F00
3E00
0800
0400
1C00
ENDCHAR
STARTCHAR scedilla
ENCODING 351
SWIDTH 563 0
DWIDTH 9 0
BBX 7 12 1 -3
BITMAP
3C
7E
60
70
3C
0C
0C
FC
78
20
10
70
ENDCHAR
STARTCHAR Scaron
ENCODING 352
SWIDTH 688 0
DWIDTH 11 0
BBX 10 14 1 0
BITMAP
0CC0
0700
0000
1F00
3F80
61C0
6000
7C00
1F00
0380
4180
E180
7F00
3E00
ENDCHAR
STARTCHAR scaron
ENCODING 353
SWIDTH 563 0
DWIDTH 9 0
BBX 8 13 1 0
BITMAP
33
1E
1C
00
3C
7E
60
70
3C
0C
0C
FC
78
ENDCHAR
STARTCHAR Tcommaaccent
ENCODING 354
SWIDTH 625 0
DWIDTH 10 0
BBX 10 14 0 -3
BITMAP
FF80
FF80
0C00
1800
1800
1800
1800
1800
3000
3000
3000
1000
0800
3800
ENDCHAR
STARTCHAR tcommaaccent
ENCODING 355
SWIDTH 313 0
DWIDTH 5 0
BBX 5 14 0 -3
BITMAP
30
30
F8
F8
60
60
60
60
E0
F0
70
20
10
70
ENDCHAR
STARTCHAR Tcaron
ENCODING 356
SWIDTH 625 0
DWIDTH 10 0
BBX 10 14 1 0
BITMAP
1980
0E00
0000
FF80
FF80
0C00
1800
1800
1800
1800
1800
3000
3000
3000
ENDCHAR
STARTCHAR tcaron
ENCODING 357
SWIDTH 500 0
DWIDTH 8 0
BBX 8 12 1 0
BITMAP
03
33
32
F8
F8
60
60
60
60
E0
F0
70
ENDCHAR
STARTCHAR Tbar
ENCODING 358
SWIDTH 625 0
DWIDTH 10 0
BBX 10 11 1 0
BITMAP
FF80
FF80
0C00
1800
1800
7E00
7E00
1800
3000
3000
3000
ENDCHAR
STARTCHAR tbar
ENCODING 359
SWIDTH 313 0
DWIDTH 5 0
BBX 5 11 1 0
BITMAP
30
30
F8
F8
60
F0
F0
60
E0
F0
70
ENDCHAR
STARTCHAR Utilde
ENCODING 360
SWIDTH 750 0
DWIDTH 12 0
BBX 10 14 2 0
BITMAP
0C80
1300
0000
60C0
60C0
60C0
C180
C180
C180
C180
C180
C300
FF00
7C00
ENDCHAR
STARTCHAR utilde
ENCODING 361
SWIDTH 625 0
DWIDTH 10 0
BBX 9 12 1 0
BITMAP
0C80
1300
0000
6300
6300
6300
6300
6300
6300
E600
7E00
7600
ENDCHAR
STARTCHAR Umacron
ENCODING 362
SWIDTH 750 0
DWIDTH 12 0
BBX 10 13 2 0
BITMAP
0F80
0000
60C0
60C0
60C0
C180
C180
C180
C180
C180
C300
FF00
7C00
ENDCHAR
STARTCHAR umacron
ENCODING 363
SWIDTH 625 0
DWIDTH 10 0
BBX 9 11 1 0
BITMAP
1F00
0000
6300
6300
6300
6300
6300
6300
E600
7E00
7600
ENDCHAR
STARTCHAR Ubreve
ENCODING 364
SWIDTH 750 0
DWIDTH 12 0
BBX 10 14 2 0
BITMAP
1080
0F00
0000
60C0
60C0
60C0
C180
C180
C180
C180
C180
C300
FF00
7C00
ENDCHAR
STARTCHAR ubreve
ENCODING 365
SWIDTH 625 0
DWIDTH 10 0
BBX 9 13 1 0
BITMAP
1080
1900
0F00
0000
6300
6300
6300
6300
6300
6300
E600
7E00
7600
ENDCHAR
STARTCHAR Uring
ENCODING 366
SWIDTH 750 0
DWIDTH 12 0
BBX 10 16 2 0
BITMAP
0600
0900
0900
0600
0000
60C0
60C0
60C0
C180
C180
C180
C180
C180
C300
FF00
7C00
ENDCHAR
STARTCHAR uring
ENCODING 367
SWIDTH 625 0
DWIDTH 10 0
BBX 9 14 1 0
BITMAP
0C00
1200
1200
0C00
0000
6300
6300
6300
6300
6300
6300
E600
7E00
7600
ENDCHAR
STARTCHAR Uhungarumlaut
ENCODING 368
SWIDTH 750 0
DWIDTH 12 0
BBX 11 14 2 0
BITMAP
0EE0
1980
0000
60C0
60C0
60C0
C180
C180
C180
C180
C180
C300
FF00
7C00
ENDCHAR
STARTCHAR uhungarumlaut
ENCODING 369
SWIDTH 625 0
DWIDTH 10 0
BBX 10 13 1 0
BITMAP
06C0
0D80
1B00
0000
6300
6300
6300
6300
6300
6300
E600
7E00
7600
ENDCHAR
STARTCHAR Uogonek
ENCODING 370
SWIDTH 750 0
DWIDTH 12 0
BBX 10 14 2 -3
BITMAP
60C0
60C0
60C0
C180
C180
C180
C180
C180
C300
FF00
7C00
1000
1000
1C00
ENDCHAR
STARTCHAR uogonek
ENCODING 371
SWIDTH 625 0
DWIDTH 10 0
BBX 9 12 1 -3
BITMAP
6300
6300
6300
6300
6300
6300
E600
7E00
7600
0800
0800
0E00
ENDCHAR
STARTCHAR Wcircumflex
ENCODING 372
SWIDTH 938 0
DWIDTH 15 0
BBX 15 14 1 0
BITMAP
01C0
0660
0000
C386
C38C
C78C
C798
CD98
CDB0
69B0
79E0
79E0
71C0
71C0
ENDCHAR
STARTCHAR wcircumflex
ENCODING 373
SWIDTH 813 0
DWIDTH 13 0
BBX 12 13 1 0
BITMAP
0700
0D00
1980
0000
C630
C620
CA60
CA40
D240
D2C0
E280
E380
C100
ENDCHAR
STARTCHAR Ycircumflex
ENCODING 374
SWIDTH 625 0
DWIDTH 10 0
BBX 10 14 1 0
BITMAP
0E00
3300
0000
C0C0
6180
6300
3600
3400
3C00
1800
1800
3000
3000
3000
ENDCHAR
STARTCHAR ycircumflex
ENCODING 375
SWIDTH 563 0
DWIDTH 9 0
BBX 10 17 0 -4
BITMAP
0700
0D00
1980
0000
60C0
6180
3180
3300
3300
3600
1600
1C00
1C00
1800
3800
F000
E000
ENDCHAR
STARTCHAR Ydieresis
ENCODING 376
SWIDTH 625 0
DWIDTH 10 0
BBX 10 14 1 0
BITMAP
1B00
1B00
0000
C0C0
6180
6300
3600
3400
3C00
1800
1800
3000
3000
3000
ENDCHAR
STARTCHAR Zacute
ENCODING 377
SWIDTH 625 0
DWIDTH 10 0
BBX 11 14 0 0
BITMAP
01C0
0300
0000
3FE0
3FE0
00C0
0180
0700
0E00
1C00
3000
6000
FF80
FF80
ENDCHAR
STARTCHAR zacute
ENCODING 378
SWIDTH 438 0
DWIDTH 7 0
BBX 8 13 0 0
BITMAP
03
06
0C
00
7E
7E
0C
18
38
30
60
FC
FC
ENDCHAR
STARTCHAR Zdotaccent
ENCODING 379
SWIDTH 625 0
DWIDTH 10 0
BBX 11 14 0 0
BITMAP
0300
0300
0000
3FE0
3FE0
00C0
0180
0700
0E00
1C00
3000
6000
FF80
FF80
ENDCHAR
STARTCHAR zdotaccent
ENCODING 380
SWIDTH 438 0
DWIDTH 7 0
BBX 7 12 0 0
BITMAP
0C
0C
00
7E
7E
0C
18
38
30
60
FC
FC
ENDCHAR
STARTCHAR Zcaron
ENCODING 381
SWIDTH 625 0
DWIDTH 10 0
BBX 11 14 0 0
BITMAP
0CC0
0700
0000
3FE0
3FE0
00C0
0180
0700
0E00
1C00
3000
6000
FF80
FF80
ENDCHAR
STARTCHAR zcaron
ENCODING 382
SWIDTH 438 0
DWIDTH 7 0
BBX 8 13 0 0
BITMAP
33
1E
1C
00
7E
7E
0C
18
38
30
60
FC
FC
ENDCHAR
STARTCHAR longs
ENCODING 383
SWIDTH 250 0
DWIDTH 4 0
BBX 6 12 0 0
BITMAP
1C
38
30
60
60
60
60
60
60
C0
C0
C0
ENDCHAR
STARTCHAR florin
ENCODING 402
SWIDTH 563 0
DWIDTH 9 0
BBX 7 16 2 -4
BITMAP
0E
1E
18
7C
7C
30
30
30
30
60
60
60
60
60
60
C0
ENDCHAR
STARTCHAR Aringacute
ENCODING 506
SWIDTH 750 0
DWIDTH 12 0
BBX 12 16 0 0
BITMAP
0070
00C0
0180
0240
0240
0380
0380
0680
06C0
0CC0
18C0
1FC0
3FC0
3060
6060
C060
ENDCHAR
STARTCHAR aringacute
ENCODING 507
SWIDTH 563 0
DWIDTH 9 0
BBX 9 15 1 0
BITMAP
0380
0E00
1200
1200
0C00
0000
3C00
7E00
6600
0600
7E00
C600
CC00
F600
7600
ENDCHAR
STARTCHAR AEacute
ENCODING 508
SWIDTH 1000 0
DWIDTH 16 0
BBX 17 14 -1 0
BITMAP
000E00
001800
000000
01FF80
03FF80
036000
06C000
0EFF00
0CFF00
1FC000
3FC000
318000
61FF00
E1FF00
ENDCHAR
STARTCHAR aeacute
ENCODING 509
SWIDTH 875 0
DWIDTH 14 0
BBX 12 13 1 0
BITMAP
00C0
0180
0300
0000
3DE0
7FF0
0630
7FF0
FFF0
CC00
CE40
FFE0
73C0
ENDCHAR
STARTCHAR Oslashacute
ENCODING 510
SWIDTH 750 0
DWIDTH 12 0
BBX 13 14 0 0
BITMAP
00E0
0180
0000
07D0
1FE0
3870
30F0
61B0
6230
6430
6860
70E0
3FC0
5F00
ENDCHAR
STARTCHAR oslashacute
ENCODING 511
SWIDTH 563 0
DWIDTH 9 0
BBX 8 13 1 0
BITMAP
03
06
0C
00
3E
7E
6E
CE
D6
E6
EC
FC
F8
ENDCHAR
STARTCHAR Scommaaccent
ENCODING 536
SWIDTH 688 0
DWIDTH 11 0
BBX 10 15 1 -4
BITMAP
1F00
3F80
61C0
6000
7C00
1F00
0380
4180
E180
7F00
3E00
0000
3000
3000
2000
ENDCHAR
STARTCHAR scommaaccent
ENCODING 537
SWIDTH 563 0
DWIDTH 9 0
BBX 7 13 1 -4
BITMAP
3C
7E
60
70
3C
0C
0C
FC
78
00
60
60
40
ENDCHAR
STARTCHAR uni021A
ENCODING 538
SWIDTH 625 0
DWIDTH 10 0
BBX 10 15 1 -4
BITMAP
FF80
FF80
0C00
1800
1800
1800
1800
1800
3000
3000
3000
0000
3000
3000
2000
ENDCHAR
STARTCHAR uni021B
ENCODING 539
SWIDTH 313 0
DWIDTH 5 0
BBX 5 15 1 -4
BITMAP
30
30
F8
F8
60
60
60
60
E0
F0
70
00
C0
C0
80
ENDCHAR
STARTCHAR circumflex
ENCODING 710
SWIDTH 313 0
DWIDTH 5 0
BBX 6 3 1 9
BITMAP
38
68
CC
ENDCHAR
STARTCHAR caron
ENCODING 711
SWIDTH 313 0
DWIDTH 5 0
BBX 6 3 1 9
BITMAP
CC
78
70
ENDCHAR
STARTCHAR uni02C9
ENCODING 713
SWIDTH 313 0
DWIDTH 5 0
BBX 5 1 1 9
BITMAP
F8
ENDCHAR
STARTCHAR breve
ENCODING 728
SWIDTH 313 0
DWIDTH 5 0
BBX 6 3 1 9
BITMAP
84
C8
78
ENDCHAR
STARTCHAR dotaccent
ENCODING 729
SWIDTH 313 0
DWIDTH 5 0
BBX 2 2 3 10
BITMAP
C0
C0
ENDCHAR
STARTCHAR ring
ENCODING 730
SWIDTH 313 0
DWIDTH 5 0
BBX 4 4 2 9
BITMAP
60
90
90
60
ENDCHAR
STARTCHAR ogonek
ENCODING 731
SWIDTH 313 0
DWIDTH 5 0
BBX 3 3 1 -3
BITMAP
80
80
E0
ENDCHAR
STARTCHAR tilde
ENCODING 732
SWIDTH 313 0
DWIDTH 5 0
BBX 6 2 1 9
BITMAP
64
98
ENDCHAR
STARTCHAR hungarumlaut
ENCODING 733
SWIDTH 313 0
DWIDTH 5 0
BBX 7 3 0 9
BITMAP
36
6C
D8
ENDCHAR
STARTCHAR semicolon
ENCODING 894
SWIDTH 313 0
DWIDTH 5 0
BBX 5 11 0 -2
BITMAP
30
30
00
00
00
00
00
60
60
20
40
ENDCHAR
STARTCHAR tonos
ENCODING 900
SWIDTH 313 0
DWIDTH 5 0
BBX 3 3 1 9
BITMAP
60
C0
80
ENDCHAR
STARTCHAR dieresistonos
ENCODING 901
SWIDTH 313 0
DWIDTH 5 0
BBX 6 3 -1 9
BITMAP
18
94
A4
ENDCHAR
STARTCHAR Alphatonos
ENCODING 902
SWIDTH 750 0
DWIDTH 12 0
BBX 11 11 0 0
BITMAP
1B80
3380
2680
06C0
0CC0
18C0
1FC0
3FC0
3060
6060
C060
ENDCHAR
STARTCHAR anoteleia
ENCODING 903
SWIDTH 313 0
DWIDTH 5 0
BBX 2 2 1 4
BITMAP
C0
C0
ENDCHAR
STARTCHAR Epsilontonos
ENCODING 904
SWIDTH 875 0
DWIDTH 14 0
BBX 12 11 2 0
BITMAP
6FF0
CFF0
8C00
1800
1FE0
1FE0
1800
1800
3000
3FE0
3FE0
ENDCHAR
STARTCHAR Etatonos
ENCODING 905
SWIDTH 938 0
DWIDTH 15 0
BBX 13 11 2 0
BITMAP
6C18
CC18
8C18
1830
1FF0
1FF0
1830
1830
3060
3060
3060
ENDCHAR
STARTCHAR Iotatonos
ENCODING 906
SWIDTH 500 0
DWIDTH 8 0
BBX 6 11 2 0
BITMAP
6C
CC
8C
18
18
18
18
18
30
30
30
ENDCHAR
STARTCHAR Omicrontonos
ENCODING 908
SWIDTH 875 0
DWIDTH 14 0
BBX 13 11 1 0
BITMAP
63E0
CFF0
9C38
1818
3018
3018
3018
3030
3870
1FE0
0F80
ENDCHAR
STARTCHAR Upsilontonos
ENCODING 910
SWIDTH 938 0
DWIDTH 15 0
BBX 14 11 2 0
BITMAP
6C0C
C618
8630
0360
0340
03C0
0180
0180
0300
0300
0300
ENDCHAR
STARTCHAR Omegatonos
ENCODING 911
SWIDTH 875 0
DWIDTH 14 0
BBX 13 11 1 0
BITMAP
6FC0
DFF0
B838
7018
6018
6018
6030
3070
19C0
F9F0
F9F0
ENDCHAR
STARTCHAR iotadieresistonos
ENCODING 912
SWIDTH 250 0
DWIDTH 4 0
BBX 6 13 0 0
BITMAP
18
94
A4
00
60
60
60
60
60
60
C0
C0
C0
ENDCHAR
STARTCHAR Alpha
ENCODING 913
SWIDTH 750 0
DWIDTH 12 0
BBX 11 11 0 0
BITMAP
0380
0380
0680
06C0
0CC0
18C0
1FC0
3FC0
3060
6060
C060
ENDCHAR
STARTCHAR Beta
ENCODING 914
SWIDTH 688 0
DWIDTH 11 0
BBX 9 11 1 0
BITMAP
3F00
3F80
3180
6180
7F00
7F00
6180
6180
C180
FF00
FE00
ENDCHAR
STARTCHAR Gamma
ENCODING 915
SWIDTH 625 0
DWIDTH 10 0
BBX 10 11 1 0
BITMAP
3FC0
3FC0
3000
6000
6000
6000
6000
6000
C000
C000
C000
ENDCHAR
STARTCHAR Delta
ENCODING 916
SWIDTH 688 0
DWIDTH 11 0
BBX 10 11 0 0
BITMAP
0300
0700
0D80
0D80
1980
1980
3180
60C0
60C0
FFC0
FFC0
ENDCHAR
STARTCHAR Epsilon
ENCODING 917
SWIDTH 688 0
DWIDTH 11 0
BBX 10 11 1 0
BITMAP
3FC0
3FC0
3000
6000
7F80
7F80
6000
6000
C000
FF80
FF80
ENDCHAR
STARTCHAR Zeta
ENCODING 918
SWIDTH 625 0
DWIDTH 10 0
BBX 11 11 0 0
BITMAP
3FE0
3FE0
00C0
0180
0700
0E00
1C00
3000
6000
FF80
FF80
ENDCHAR
STARTCHAR Eta
ENCODING 919
SWIDTH 750 0
DWIDTH 12 0
BBX 11 11 1 0
BITMAP
3060
3060
3060
60C0
7FC0
7FC0
60C0
60C0
C180
C180
C180
ENDCHAR
STARTCHAR Theta
ENCODING 920
SWIDTH 750 0
DWIDTH 12 0
BBX 11 11 1 0
BITMAP
0F80
3FC0
70E0
6060
DF60
DF60
C060
C0C0
E1C0
7F80
3E00
ENDCHAR
STARTCHAR Iota
ENCODING 921
SWIDTH 313 0
DWIDTH 5 0
BBX 4 11 1 0
BITMAP
30
30
30
60
60
60
60
60
C0
C0
C0
ENDCHAR
STARTCHAR Kappa
ENCODING 922
SWIDTH 750 0
DWIDTH 12 0
BBX 12 11 1 0
BITMAP
3060
31C0
3380
6700
6C00
7E00
7600
6300
C300
C180
C0C0
ENDCHAR
STARTCHAR Lambda
ENCODING 923
SWIDTH 688 0
DWIDTH 11 0
BBX 11 11 -1 0
BITMAP
0180
0380
0680
0680
0CC0
0CC0
18C0
30C0
3040
6060
C060
ENDCHAR
STARTCHAR Mu
ENCODING 924
SWIDTH 875 0
DWIDTH 14 0
BBX 13 11 1 0
BITMAP
3838
3878
3858
6CF0
6CB0
6DB0
6DB0
6F30
CF60
C660
C660
ENDCHAR
STARTCHAR Nu
ENCODING 925
SWIDTH 750 0
DWIDTH 12 0
BBX 11 11 1 0
BITMAP
3860
3860
3860
6CC0
6CC0
64C0
66C0
66C0
C380
C380
C380
ENDCHAR
STARTCHAR Xi
ENCODING 926
SWIDTH 688 0
DWIDTH 11 0
BBX 11 11 0 0
BITMAP
1FE0
1FE0
0000
0000
1F80
1F80
0000
0000
0000
FF80
FF80
ENDCHAR
STARTCHAR Omicron
ENCODING 927
SWIDTH 750 0
DWIDTH 12 0
BBX 11 11 1 0
BITMAP
0F80
3FC0
70E0
6060
C060
C060
C060
C0C0
E1C0
7F80
3E00
ENDCHAR
STARTCHAR Pi
ENCODING 928
SWIDTH 688 0
DWIDTH 11 0
BBX 10 11 1 0
BITMAP
3FC0
3FC0
30C0
6180
6180
6180
6180
6180
C300
C300
C300
ENDCHAR
STARTCHAR Rho
ENCODING 929
SWIDTH 688 0
DWIDTH 11 0
BBX 10 11 1 0
BITMAP
3F00
3FC0
30C0
60C0
60C0
7F80
7F00
6000
C000
C000
C000
ENDCHAR
STARTCHAR Sigma
ENCODING 931
SWIDTH 563 0
DWIDTH 9 0
BBX 9 11 0 0
BITMAP
3F80
3F80
3000
1800
1800
1800
3000
6000
6000
FE00
FE00
ENDCHAR
STARTCHAR Tau
ENCODING 932
SWIDTH 625 0
DWIDTH 10 0
BBX 10 11 1 0
BITMAP
FF80
FF80
0C00
1800
1800
1800
1800
1800
3000
3000
3000
ENDCHAR
STARTCHAR Upsilon
ENCODING 933
SWIDTH 625 0
DWIDTH 10 0
BBX 10 11 1 0
BITMAP
C0C0
6180
6300
3600
3400
3C00
1800
1800
3000
3000
3000
ENDCHAR
STARTCHAR Phi
ENCODING 934
SWIDTH 813 0
DWIDTH 13 0
BBX 12 11 1 0
BITMAP
0300
3FC0
7FE0
E630
C630
C630
C670
7FE0
3FC0
0C00
0C00
ENDCHAR
STARTCHAR Chi
ENCODING 935
SWIDTH 688 0
DWIDTH 11 0
BBX 12 11 0 0
BITMAP
3030
1860
18C0
0D80
0F00
0600
0F00
1B00
3180
6180
C0C0
ENDCHAR
STARTCHAR Psi
ENCODING 936
SWIDTH 813 0
DWIDTH 13 0
BBX 11 11 2 0
BITMAP
6660
6660
6660
CCC0
CCC0
ECC0
7F80
7F00
1800
1800
1800
ENDCHAR
STARTCHAR Omega
ENCODING 937
SWIDTH 813 0
DWIDTH 13 0
BBX 13 11 0 0
BITMAP
0FC0
1FF0
3838
7018
6018
6018
6030
3070
19C0
F9F0
F9F0
ENDCHAR
STARTCHAR Iotadieresis
ENCODING 938
SWIDTH 313 0
DWIDTH 5 0
BBX 6 14 1 0
BITMAP
6C
6C
00
30
30
30
60
60
60
60
60
C0
C0
C0
ENDCHAR
STARTCHAR Upsilondieresis
ENCODING 939
SWIDTH 625 0
DWIDTH 10 0
BBX 10 14 1 0
BITMAP
1B00
1B00
0000
C0C0
6180
6300
3600
3400
3C00
1800
1800
3000
3000
3000
ENDCHAR
STARTCHAR alphatonos
ENCODING 940
SWIDTH 625 0
DWIDTH 10 0
BBX 9 13 1 0
BITMAP
0600
0C00
0800
0000
3980
7F00
6700
C600
C600
C600
CE00
FE00
7600
ENDCHAR
STARTCHAR epsilontonos
ENCODING 941
SWIDTH 500 0
DWIDTH 8 0
BBX 8 13 0 0
BITMAP
03
06
04
00
3E
7F
60
3C
7C
C0
C4
FE
7C
ENDCHAR
STARTCHAR etatonos
ENCODING 942
SWIDTH 625 0
DWIDTH 10 0
BBX 8 17 1 -4
BITMAP
03
06
04
00
6E
7F
73
63
63
63
C6
C6
C6
06
06
06
0C
ENDCHAR
STARTCHAR iotatonos
ENCODING 943
SWIDTH 250 0
DWIDTH 4 0
BBX 5 13 0 0
BITMAP
18
30
20
00
60
60
60
60
60
60
C0
C0
C0
ENDCHAR
STARTCHAR upsilondieresistonos
ENCODING 944
SWIDTH 563 0
DWIDTH 9 0
BBX 7 13 1 0
BITMAP
0C
4A
52
00
C6
C6
C6
C6
C6
C6
CC
FC
78
ENDCHAR
STARTCHAR alpha
ENCODING 945
SWIDTH 625 0
DWIDTH 10 0
BBX 9 9 1 0
BITMAP
3980
7F00
6700
C600
C600
C600
CE00
FE00
7600
ENDCHAR
STARTCHAR beta
ENCODING 946
SWIDTH 625 0
DWIDTH 10 0
BBX 9 16 0 -4
BITMAP
0F00
1F80
1980
3180
3380
3700
3700
3180
3180
7180
7F00
7E00
6000
6000
6000
C000
ENDCHAR
STARTCHAR gamma
ENCODING 947
SWIDTH 563 0
DWIDTH 9 0
BBX 9 13 1 -4
BITMAP
C180
C300
6300
6600
6600
6C00
2C00
2800
3800
3000
3000
6000
6000
ENDCHAR
STARTCHAR delta
ENCODING 948
SWIDTH 625 0
DWIDTH 10 0
BBX 9 12 1 0
BITMAP
3F80
3F80
1800
0C00
3E00
6200
C300
C300
C300
C700
7E00
3C00
ENDCHAR
STARTCHAR epsilon
ENCODING 949
SWIDTH 500 0
DWIDTH 8 0
BBX 8 9 0 0
BITMAP
3E
7F
60
3C
7C
C0
C4
FE
7C
ENDCHAR
STARTCHAR zeta
ENCODING 950
SWIDTH 500 0
DWIDTH 8 0
BBX 8 15 1 -3
BITMAP
3F
3F
06
0C
18
30
60
40
C0
C0
F8
7C
0C
0C
08
ENDCHAR
STARTCHAR eta
ENCODING 951
SWIDTH 625 0
DWIDTH 10 0
BBX 8 13 1 -4
BITMAP
6E
7F
73
63
63
63
C6
C6
C6
06
06
06
0C
ENDCHAR
STARTCHAR theta
ENCODING 952
SWIDTH 563 0
DWIDTH 9 0
BBX 8 12 1 0
BITMAP
1E
3F
73
63
63
FF
FF
C6
C6
CE
FC
78
ENDCHAR
STARTCHAR iota
ENCODING 953
SWIDTH 250 0
DWIDTH 4 0
BBX 4 9 0 0
BITMAP
60
60
60
60
60
60
C0
C0
C0
ENDCHAR
STARTCHAR kappa
ENCODING 954
SWIDTH 563 0
DWIDTH 9 0
BBX 9 9 1 0
BITMAP
6380
6300
6600
6C00
7800
7C00
CC00
CC00
C600
ENDCHAR
STARTCHAR lambda
ENCODING 955
SWIDTH 563 0
DWIDTH 9 0
BBX 9 12 -1 0
BITMAP
1C00
1E00
0600
0600
0600
0700
0F00
1B00
1B00
3100
6180
E180
ENDCHAR
STARTCHAR mu
ENCODING 956
SWIDTH 563 0
DWIDTH 9 0
BBX 9 13 0 -4
BITMAP
3300
3300
3300
3300
3300
3300
7600
7E00
7E00
6000
6000
6000
C000
ENDCHAR
STARTCHAR nu
ENCODING 957
SWIDTH 563 0
DWIDTH 9 0
BBX 8 9 1 0
BITMAP
C3
C3
C3
62
66
6C
6C
78
70
ENDCHAR
STARTCHAR xi
ENCODING 958
SWIDTH 438 0
DWIDTH 7 0
BBX 7 15 1 -3
BITMAP
3E
3E
18
30
30
18
38
60
C0
C0
E0
78
18
18
10
ENDCHAR
STARTCHAR omicron
ENCODING 959
SWIDTH 625 0
DWIDTH 10 0
BBX 8 9 1 0
BITMAP
3E
7F
63
C3
C3
C3
C6
FE
78
ENDCHAR
STARTCHAR pi
ENCODING 960
SWIDTH 688 0
DWIDTH 11 0
BBX 10 9 1 0
BITMAP
7FC0
FFC0
3300
3300
3300
6300
6700
6780
C380
ENDCHAR
STARTCHAR rho
ENCODING 961
SWIDTH 625 0
DWIDTH 10 0
BBX 9 13 0 -4
BITMAP
0F00
1F00
3980
3180
3180
3180
7380
7F00
6E00
6000
6000
6000
C000
ENDCHAR
STARTCHAR sigma1
ENCODING 962
SWIDTH 500 0
DWIDTH 8 0
BBX 7 12 1 -3
BITMAP
1C
3E
60
60
C0
C0
C0
F8
3C
0C
0C
08
ENDCHAR
STARTCHAR sigma
ENCODING 963
SWIDTH 688 0
DWIDTH 11 0
BBX 10 9 1 0
BITMAP
1FC0
7FC0
6300
C300
C300
C300
C700
FE00
7C00
ENDCHAR
STARTCHAR tau
ENCODING 964
SWIDTH 438 0
DWIDTH 7 0
BBX 7 9 1 0
BITMAP
FE
FC
30
30
30
30
70
78
38
ENDCHAR
STARTCHAR upsilon
ENCODING 965
SWIDTH 563 0
DWIDTH 9 0
BBX 7 9 1 0
BITMAP
C6
C6
C6
C6
C6
C6
CC
FC
78
ENDCHAR
STARTCHAR phi
ENCODING 966
SWIDTH 688 0
DWIDTH 11 0
BBX 10 13 0 -4
BITMAP
3380
77C0
6CC0
CCC0
CCC0
CCC0
D980
7F80
7E00
1800
1800
1800
3000
ENDCHAR
STARTCHAR chi
ENCODING 967
SWIDTH 563 0
DWIDTH 9 0
BBX 10 13 -1 -4
BITMAP
38C0
3980
1900
0F00
0E00
0E00
0C00
1E00
1E00
3600
2600
6300
C300
ENDCHAR
STARTCHAR psi
ENCODING 968
SWIDTH 750 0
DWIDTH 12 0
BBX 11 15 1 -4
BITMAP
0600
0600
CCC0
CCC0
CCC0
CCC0
CCC0
CCC0
D980
FF80
7F00
1800
1800
1800
3000
ENDCHAR
STARTCHAR omega
ENCODING 969
SWIDTH 813 0
DWIDTH 13 0
BBX 11 9 1 0
BITMAP
1880
78C0
60E0
E660
C660
C660
CEC0
FBC0
7380
ENDCHAR
STARTCHAR iotadieresis
ENCODING 970
SWIDTH 250 0
DWIDTH 4 0
BBX 6 12 0 0
BITMAP
6C
6C
00
60
60
60
60
60
60
C0
C0
C0
ENDCHAR
STARTCHAR upsilondieresis
ENCODING 971
SWIDTH 563 0
DWIDTH 9 0
BBX 7 12 1 0
BITMAP
36
36
00
C6
C6
C6
C6
C6
C6
CC
FC
78
ENDCHAR
STARTCHAR omicrontonos
ENCODING 972
SWIDTH 625 0
DWIDTH 10 0
BBX 8 13 1 0
BITMAP
06
0C
08
00
3E
7F
63
C3
C3
C3
C6
FE
78
ENDCHAR
STARTCHAR upsilontonos
ENCODING 973
SWIDTH 563 0
DWIDTH 9 0
BBX 7 13 1 0
BITMAP
0C
18
10
00
C6
C6
C6
C6
C6
C6
CC
FC
78
ENDCHAR
STARTCHAR omegatonos
ENCODING 974
SWIDTH 813 0
DWIDTH 13 0
BBX 11 13 1 0
BITMAP
0180
0300
0200
0000
1880
78C0
60E0
E660
C660
C660
CEC0
FBC0
7380
ENDCHAR
STARTCHAR afii10023
ENCODING 1025
SWIDTH 688 0
DWIDTH 11 0
BBX 10 14 1 0
BITMAP
0D80
0D80
0000
3FC0
3FC0
3000
6000
7F80
7F80
6000
6000
C000
FF80
FF80
ENDCHAR
STARTCHAR afii10051
ENCODING 1026
SWIDTH 875 0
DWIDTH 14 0
BBX 12 11 1 0
BITMAP
FF80
FF80
0C00
1800
1BE0
1FF0
1830
1830
3270
37E0
33C0
ENDCHAR
STARTCHAR afii10052
ENCODING 1027
SWIDTH 625 0
DWIDTH 10 0
BBX 10 14 1 0
BITMAP
0700
0C00
0000
3FC0
3FC0
3000
6000
6000
6000
6000
6000
C000
C000
C000
ENDCHAR
STARTCHAR afii10053
ENCODING 1028
SWIDTH 750 0
DWIDTH 12 0
BBX 11 11 1 0
BITMAP
0F80
3FC0
70E0
6040
FE00
FE00
C000
C080
E1C0
7F80
3E00
ENDCHAR
STARTCHAR afii10054
ENCODING 1029
SWIDTH 688 0
DWIDTH 11 0
BBX 10 11 1 0
BITMAP
1F00
3F80
61C0
6000
7C00
1F00
0380
4180
E180
7F00
3E00
ENDCHAR
STARTCHAR afii10055
ENCODING 1030
SWIDTH 313 0
DWIDTH 5 0
BBX 4 11 1 0
BITMAP
30
30
30
60
60
60
60
60
C0
C0
C0
ENDCHAR
STARTCHAR afii10056
ENCODING 1031
SWIDTH 313 0
DWIDTH 5 0
BBX 6 14 1 0
BITMAP
6C
6C
00
30
30
30
60
60
60
60
60
C0
C0
C0
ENDCHAR
STARTCHAR afii10057
ENCODING 1032
SWIDTH 563 0
DWIDTH 9 0
BBX 9 11 0 0
BITMAP
0780
0780
0180
0300
0300
0300
0300
4300
E600
7E00
3C00
ENDCHAR
STARTCHAR afii10058
ENCODING 1033
SWIDTH 1125 0
DWIDTH 18 0
BBX 17 11 0 0
BITMAP
0FE000
0FE000
0C6000
18C000
18FE00
18FF80
30C180
30C180
718380
E1FF00
C1FE00
ENDCHAR
STARTCHAR afii10059
ENCODING 1034
SWIDTH 1063 0
DWIDTH 17 0
BBX 15 11 1 0
BITMAP
30C0
30C0
30C0
6180
7FFC
7FFE
6186
6186
C30E
C3FC
C3F8
ENDCHAR
STARTCHAR afii10060
ENCODING 1035
SWIDTH 875 0
DWIDTH 14 0
BBX 12 11 1 0
BITMAP
FF80
FF80
0C00
1800
1BE0
1FF0
1830
1830
3030
3030
3060
ENDCHAR
STARTCHAR afii10061
ENCODING 1036
SWIDTH 625 0
DWIDTH 10 0
BBX 10 14 1 0
BITMAP
0380
0600
0000
30C0
3180
3300
6700
6E00
7C00
7C00
6600
C600
C600
C300
ENDCHAR
STARTCHAR afii10062
ENCODING 1038
SWIDTH 688 0
DWIDTH 11 0
BBX 11 15 1 0
BITMAP
0C40
0C80
0780
0000
60E0
30C0
3180
1980
1B00
1E00
0E00
0C00
1800
F800
F000
ENDCHAR
STARTCHAR afii10145
ENCODING 1039
SWIDTH 750 0
DWIDTH 12 0
BBX 11 14 1 -3
BITMAP
3060
3060
3060
60C0
60C0
60C0
60C0
60C0
C180
FF80
FF80
0C00
0C00
0C00
ENDCHAR
STARTCHAR afii10017
ENCODING 1040
SWIDTH 750 0
DWIDTH 12 0
BBX 11 11 0 0
BITMAP
0380
0380
0680
06C0
0CC0
18C0
1FC0
3FC0
3060
6060
C060
ENDCHAR
STARTCHAR afii10018
ENCODING 1041
SWIDTH 688 0
DWIDTH 11 0
BBX 9 11 1 0
BITMAP
3F80
3F80
3000
6000
7F00
7F80
6180
6180
C180
FF00
FE00
ENDCHAR
STARTCHAR afii10019
ENCODING 1042
SWIDTH 688 0
DWIDTH 11 0
BBX 9 11 1 0
BITMAP
3F00
3F80
3180
6180
7F00
7F00
6180
6180
C180
FF00
FE00
ENDCHAR
STARTCHAR afii10020
ENCODING 1043
SWIDTH 625 0
DWIDTH 10 0
BBX 10 11 1 0
BITMAP
3FC0
3FC0
3000
6000
6000
6000
6000
6000
C000
C000
C000
ENDCHAR
STARTCHAR afii10021
ENCODING 1044
SWIDTH 750 0
DWIDTH 12 0
BBX 12 14 -1 -3
BITMAP
03F0
03F0
0630
0660
0660
0C60
0C60
1860
18C0
7FF0
7FF0
C060
C060
C060
ENDCHAR
STARTCHAR afii10022
ENCODING 1045
SWIDTH 688 0
DWIDTH 11 0
BBX 10 11 1 0
BITMAP
3FC0
3FC0
3000
6000
7F80
7F80
6000
6000
C000
FF80
FF80
ENDCHAR
STARTCHAR afii10024
ENCODING 1046
SWIDTH 938 0
DWIDTH 15 0
BBX 16 11 0 0
BITMAP
30C3
18C6
18CC
1D98
0DB8
0FF0
0FF0
19B8
3318
6318
C30C
ENDCHAR
STARTCHAR afii10025
ENCODING 1047
SWIDTH 625 0
DWIDTH 10 0
BBX 9 11 1 0
BITMAP
1F00
3F80
7180
0180
0F00
0E00
0300
4300
E300
7E00
3C00
ENDCHAR
STARTCHAR afii10026
ENCODING 1048
SWIDTH 750 0
DWIDTH 12 0
BBX 11 11 1 0
BITMAP
30E0
31E0
31E0
63C0
66C0
64C0
6CC0
78C0
F180
F180
E180
ENDCHAR
STARTCHAR afii10027
ENCODING 1049
SWIDTH 750 0
DWIDTH 12 0
BBX 11 15 1 0
BITMAP
0C40
0C80
0780
0000
30E0
31E0
31E0
63C0
66C0
64C0
6CC0
78C0
F180
F180
E180
ENDCHAR
STARTCHAR afii10028
ENCODING 1050
SWIDTH 625 0
DWIDTH 10 0
BBX 10 11 1 0
BITMAP
30C0
3180
3300
6700
6E00
7C00
7C00
6600
C600
C600
C300
ENDCHAR
STARTCHAR afii10029
ENCODING 1051
SWIDTH 688 0
DWIDTH 11 0
BBX 12 11 -1 0
BITMAP
07F0
0FF0
0C30
0C60
1860
1860
1860
3060
30C0
E0C0
E0C0
ENDCHAR
STARTCHAR afii10030
ENCODING 1052
SWIDTH 875 0
DWIDTH 14 0
BBX 13 11 1 0
BITMAP
3838
3878
3858
6CF0
6CB0
6DB0
6DB0
6F30
CF60
C660
C660
ENDCHAR
STARTCHAR afii10031
ENCODING 1053
SWIDTH 750 0
DWIDTH 12 0
BBX 11 11 1 0
BITMAP
3060
3060
3060
60C0
7FC0
7FC0
60C0
60C0
C180
C180
C180
ENDCHAR
STARTCHAR afii10032
ENCODING 1054
SWIDTH 750 0
DWIDTH 12 0
BBX 11 11 1 0
BITMAP
0F80
3FC0
70E0
6060
C060
C060
C060
C0C0
E1C0
7F80
3E00
ENDCHAR
STARTCHAR afii10033
ENCODING 1055
SWIDTH 750 0
DWIDTH 12 0
BBX 11 11 1 0
BITMAP
3FE0
3FE0
3060
60C0
60C0
60C0
60C0
60C0
C180
C180
C180
ENDCHAR
STARTCHAR afii10034
ENCODING 1056
SWIDTH 688 0
DWIDTH 11 0
BBX 10 11 1 0
BITMAP
3F00
3FC0
30C0
60C0
60C0
7F80
7F00
6000
C000
C000
C000
ENDCHAR
STARTCHAR afii10035
ENCODING 1057
SWIDTH 750 0
DWIDTH 12 0
BBX 11 11 1 0
BITMAP
0F80
3FC0
70E0
6040
C000
C000
C000
C080
E1C0
7F80
3E00
ENDCHAR
STARTCHAR afii10036
ENCODING 1058
SWIDTH 625 0
DWIDTH 10 0
BBX 10 11 1 0
BITMAP
FF80
FF80
0C00
1800
1800
1800
1800
1800
3000
3000
3000
ENDCHAR
STARTCHAR afii10037
ENCODING 1059
SWIDTH 688 0
DWIDTH 11 0
BBX 11 11 1 0
BITMAP
60E0
30C0
3180
1980
1B00
1E00
0E00
0C00
1800
F800
F000
ENDCHAR
STARTCHAR afii10038
ENCODING 1060
SWIDTH 813 0
DWIDTH 13 0
BBX 12 11 1 0
BITMAP
0300
1FC0
7FE0
E630
C630
C630
E670
7FE0
3FC0
0C00
0C00
ENDCHAR
STARTCHAR afii10039
ENCODING 1061
SWIDTH 688 0
DWIDTH 11 0
BBX 12 11 0 0
BITMAP
3030
1860
18C0
0D80
0F00
0600
0F00
1B00
3180
6180
C0C0
ENDCHAR
STARTCHAR afii10040
ENCODING 1062
SWIDTH 750 0
DWIDTH 12 0
BBX 10 14 1 -3
BITMAP
30C0
30C0
30C0
6180
6180
6180
6180
6180
C300
FFC0
FFC0
0180
0180
0180
ENDCHAR
STARTCHAR afii10041
ENCODING 1063
SWIDTH 688 0
DWIDTH 11 0
BBX 10 11 1 0
BITMAP
60C0
60C0
60C0
C180
E180
7F80
7D80
0180
0380
0300
0300
ENDCHAR
STARTCHAR afii10042
ENCODING 1064
SWIDTH 1000 0
DWIDTH 16 0
BBX 14 11 1 0
BITMAP
318C
318C
318C
6318
6318
6318
6318
6318
C630
FFF0
FFF0
ENDCHAR
STARTCHAR afii10043
ENCODING 1065
SWIDTH 1000 0
DWIDTH 16 0
BBX 14 14 1 -3
BITMAP
318C
318C
318C
6318
6318
6318
6318
6318
C630
FFFC
FFFC
0008
0018
0018
ENDCHAR
STARTCHAR afii10044
ENCODING 1066
SWIDTH 875 0
DWIDTH 14 0
BBX 12 11 1 0
BITMAP
FC00
FC00
0C00
1800
1FC0
1FF0
1830
1830
3070
3FE0
3FC0
ENDCHAR
STARTCHAR afii10045
ENCODING 1067
SWIDTH 1000 0
DWIDTH 16 0
BBX 15 11 1 0
BITMAP
3006
3006
3006
600C
7F0C
7FCC
60CC
60CC
C1D8
FF98
FF18
ENDCHAR
STARTCHAR afii10046
ENCODING 1068
SWIDTH 688 0
DWIDTH 11 0
BBX 9 11 1 0
BITMAP
3000
3000
3000
6000
7F00
7F80
6180
6180
C180
FF00
FE00
ENDCHAR
STARTCHAR afii10047
ENCODING 1069
SWIDTH 688 0
DWIDTH 11 0
BBX 10 11 1 0
BITMAP
1F00
3F80
71C0
00C0
0FC0
0FC0
00C0
4180
E380
7F00
3E00
ENDCHAR
STARTCHAR afii10048
ENCODING 1070
SWIDTH 1063 0
DWIDTH 17 0
BBX 16 11 1 0
BITMAP
307C
31FE
3387
6303
7E03
7E03
6603
6606
C70E
C3FC
C1F0
ENDCHAR
STARTCHAR afii10049
ENCODING 1071
SWIDTH 750 0
DWIDTH 12 0
BBX 12 11 0 0
BITMAP
0FF0
1FF0
3030
3060
3060
1FE0
0FE0
1860
38C0
70C0
E0C0
ENDCHAR
STARTCHAR afii10065
ENCODING 1072
SWIDTH 563 0
DWIDTH 9 0
BBX 7 9 1 0
BITMAP
3C
7E
66
06
7E
C6
CC
F6
76
ENDCHAR
STARTCHAR afii10066
ENCODING 1073
SWIDTH 625 0
DWIDTH 10 0
BBX 9 12 1 0
BITMAP
0380
1F80
7800
6000
5E00
FF00
E300
C300
C300
C700
7E00
3C00
ENDCHAR
STARTCHAR afii10067
ENCODING 1074
SWIDTH 563 0
DWIDTH 9 0
BBX 7 9 1 0
BITMAP
3C
3E
66
7C
7E
66
C6
FE
FC
ENDCHAR
STARTCHAR afii10068
ENCODING 1075
SWIDTH 563 0
DWIDTH 9 0
BBX 7 9 1 0
BITMAP
3C
7E
66
1E
78
C0
CC
FC
78
ENDCHAR
STARTCHAR afii10069
ENCODING 1076
SWIDTH 625 0
DWIDTH 10 0
BBX 8 12 1 0
BITMAP
3C
3E
03
3B
7F
67
C3
C3
C7
C6
7E
38
ENDCHAR
STARTCHAR afii10070
ENCODING 1077
SWIDTH 563 0
DWIDTH 9 0
BBX 8 9 1 0
BITMAP
3E
7F
63
FF
FF
C0
C4
FE
7C
ENDCHAR
STARTCHAR afii10072
ENCODING 1078
SWIDTH 750 0
DWIDTH 12 0
BBX 14 9 -1 0
BITMAP
330C
1B18
1B30
1FE0
1FE0
1B60
3660
6670
E630
ENDCHAR
STARTCHAR afii10073
ENCODING 1079
SWIDTH 500 0
DWIDTH 8 0
BBX 8 9 0 0
BITMAP
3E
7F
23
1E
1C
06
C6
FE
7C
ENDCHAR
STARTCHAR afii10074
ENCODING 1080
SWIDTH 625 0
DWIDTH 10 0
BBX 9 9 1 0
BITMAP
6300
6300
6300
6300
6300
6300
E600
7E00
7600
ENDCHAR
STARTCHAR afii10075
ENCODING 1081
SWIDTH 625 0
DWIDTH 10 0
BBX 9 13 1 0
BITMAP
1880
1900
0F00
0000
6300
6300
6300
6300
6300
6300
E600
7E00
7600
ENDCHAR
STARTCHAR afii10076
ENCODING 1082
SWIDTH 500 0
DWIDTH 8 0
BBX 8 9 1 0
BITMAP
63
66
66
6C
78
78
D8
CC
CC
ENDCHAR
STARTCHAR afii10077
ENCODING 1083
SWIDTH 625 0
DWIDTH 10 0
BBX 11 9 -1 0
BITMAP
0FC0
0FC0
18C0
18C0
18C0
30C0
3180
E180
E180
ENDCHAR
STARTCHAR afii10078
ENCODING 1084
SWIDTH 750 0
DWIDTH 12 0
BBX 11 9 1 0
BITMAP
79C0
79C0
7BC0
6AC0
6AC0
6EC0
CD80
CD80
C980
ENDCHAR
STARTCHAR afii10079
ENCODING 1085
SWIDTH 625 0
DWIDTH 10 0
BBX 9 9 1 0
BITMAP
6300
6300
6300
7F00
7F00
6300
C600
C600
C600
ENDCHAR
STARTCHAR afii10080
ENCODING 1086
SWIDTH 625 0
DWIDTH 10 0
BBX 8 9 1 0
BITMAP
3E
7F
63
C3
C3
C3
C6
FE
78
ENDCHAR
STARTCHAR afii10081
ENCODING 1087
SWIDTH 625 0
DWIDTH 10 0
BBX 9 9 1 0
BITMAP
7F00
7F00
6300
6300
6300
6300
C600
C600
C600
ENDCHAR
STARTCHAR afii10082
ENCODING 1088
SWIDTH 563 0
DWIDTH 9 0
BBX 9 13 -1 -4
BITMAP
3700
3F80
3980
3180
3180
3180
7300
7F00
6E00
6000
6000
6000
C000
ENDCHAR
STARTCHAR afii10083
ENCODING 1089
SWIDTH 500 0
DWIDTH 8 0
BBX 7 9 1 0
BITMAP
3C
7E
66
C0
C0
C0
CC
F8
78
ENDCHAR
STARTCHAR afii10084
ENCODING 1090
SWIDTH 875 0
DWIDTH 14 0
BBX 14 9 0 0
BITMAP
0210
3F78
339C
7398
6318
6318
6318
6318
E738
ENDCHAR
STARTCHAR afii10085
ENCODING 1091
SWIDTH 563 0
DWIDTH 9 0
BBX 10 13 0 -4
BITMAP
60C0
6180
3180
3300
3300
3600
1600
1C00
1C00
1800
3800
F000
E000
ENDCHAR
STARTCHAR afii10086
ENCODING 1092
SWIDTH 875 0
DWIDTH 14 0
BBX 12 16 1 -4
BITMAP
0300
0300
0300
3EE0
7FF0
6730
C630
C630
C630
CE60
FFE0
6DC0
0C00
0C00
0C00
1800
ENDCHAR
STARTCHAR afii10087
ENCODING 1093
SWIDTH 563 0
DWIDTH 9 0
BBX 11 9 -1 0
BITMAP
30E0
18C0
1980
0F00
0E00
1E00
3300
6300
E180
ENDCHAR
STARTCHAR afii10088
ENCODING 1094
SWIDTH 625 0
DWIDTH 10 0
BBX 9 12 1 -3
BITMAP
6300
6300
6300
6300
6300
6300
E600
7F00
7700
0300
0300
0300
ENDCHAR
STARTCHAR afii10089
ENCODING 1095
SWIDTH 563 0
DWIDTH 9 0
BBX 8 9 1 0
BITMAP
C6
C6
C6
C6
FE
76
0C
0C
0C
ENDCHAR
STARTCHAR afii10090
ENCODING 1096
SWIDTH 875 0
DWIDTH 14 0
BBX 14 9 0 0
BITMAP
6318
6318
6318
6318
6318
6738
E730
7BF0
73F0
ENDCHAR
STARTCHAR afii10091
ENCODING 1097
SWIDTH 938 0
DWIDTH 15 0
BBX 14 12 0 -3
BITMAP
6318
6318
6318
6318
6318
6738
E730
7BFC
73BC
0008
0018
0018
ENDCHAR
STARTCHAR afii10092
ENCODING 1098
SWIDTH 688 0
DWIDTH 11 0
BBX 10 9 0 0
BITMAP
7800
F800
1800
1F80
1FC0
18C0
30C0
3FC0
3F00
ENDCHAR
STARTCHAR afii10093
ENCODING 1099
SWIDTH 875 0
DWIDTH 14 0
BBX 13 9 1 0
BITMAP
6030
6030
6030
7E30
7F30
6330
C360
FF60
FC60
ENDCHAR
STARTCHAR afii10094
ENCODING 1100
SWIDTH 625 0
DWIDTH 10 0
BBX 8 9 1 0
BITMAP
60
60
60
7E
7F
63
C3
FF
FC
ENDCHAR
STARTCHAR afii10095
ENCODING 1101
SWIDTH 563 0
DWIDTH 9 0
BBX 8 9 0 0
BITMAP
1E
7F
23
1F
1F
03
E6
7E
3C
ENDCHAR
STARTCHAR afii10096
ENCODING 1102
SWIDTH 875 0
DWIDTH 14 0
BBX 13 9 0 0
BITMAP
00E0
31F8
3318
7718
7E18
6618
6638
6730
E3E0
ENDCHAR
STARTCHAR afii10097
ENCODING 1103
SWIDTH 563 0
DWIDTH 9 0
BBX 10 9 -1 0
BITMAP
1F80
3F80
3180
3180
3F80
1F80
1B00
3300
6300
ENDCHAR
STARTCHAR afii10071
ENCODING 1105
SWIDTH 563 0
DWIDTH 9 0
BBX 8 12 1 0
BITMAP
1B
1B
00
3E
7F
63
FF
FF
C0
C4
FE
7C
ENDCHAR
STARTCHAR afii10099
ENCODING 1106
SWIDTH 625 0
DWIDTH 10 0
BBX 8 16 1 -4
BITMAP
30
7C
30
6E
7F
73
63
63
63
C6
C6
C6
06
06
1E
1C
ENDCHAR
STARTCHAR afii10100
ENCODING 1107
SWIDTH 500 0
DWIDTH 8 0
BBX 7 13 1 0
BITMAP
06
0C
18
00
7E
7E
60
60
60
60
C0
C0
C0
ENDCHAR
STARTCHAR afii10101
ENCODING 1108
SWIDTH 563 0
DWIDTH 9 0
BBX 8 9 1 0
BITMAP
3E
7F
63
F8
F8
C0
CE
FC
78
ENDCHAR
STARTCHAR afii10102
ENCODING 1109
SWIDTH 563 0
DWIDTH 9 0
BBX 7 9 1 0
BITMAP
3C
7E
60
70
3C
0C
0C
FC
78
ENDCHAR
STARTCHAR afii10103
ENCODING 1110
SWIDTH 250 0
DWIDTH 4 0
BBX 4 12 0 0
BITMAP
30
30
00
60
60
60
60
60
60
C0
C0
C0
ENDCHAR
STARTCHAR afii10104
ENCODING 1111
SWIDTH 250 0
DWIDTH 4 0
BBX 6 12 0 0
BITMAP
6C
6C
00
60
60
60
60
60
60
C0
C0
C0
ENDCHAR
STARTCHAR afii10105
ENCODING 1112
SWIDTH 250 0
DWIDTH 4 0
BBX 6 16 -2 -4
BITMAP
0C
0C
00
18
18
18
18
18
18
30
30
30
30
30
F0
E0
ENDCHAR
STARTCHAR afii10106
ENCODING 1113
SWIDTH 1000 0
DWIDTH 16 0
BBX 16 9 -1 0
BITMAP
0FC0
1FC0
18C0
18FE
38FF
30C3
3183
E1FE
E1FC
ENDCHAR
STARTCHAR afii10107
ENCODING 1114
SWIDTH 938 0
DWIDTH 15 0
BBX 13 9 1 0
BITMAP
6300
6300
6300
7FF0
7FF8
6318
C618
C7F8
C7E0
ENDCHAR
STARTCHAR afii10108
ENCODING 1115
SWIDTH 625 0
DWIDTH 10 0
BBX 8 12 1 0
BITMAP
30
7C
30
6E
7F
73
63
63
63
C6
C6
C6
ENDCHAR
STARTCHAR afii10109
ENCODING 1116
SWIDTH 500 0
DWIDTH 8 0
BBX 8 13 1 0
BITMAP
03
06
0C
00
63
66
66
6C
78
78
D8
CC
CC
ENDCHAR
STARTCHAR afii10110
ENCODING 1118
SWIDTH 563 0
DWIDTH 9 0
BBX 10 17 0 -4
BITMAP
1880
1900
0F00
0000
60C0
6180
3180
3300
3300
3600
1600
1C00
1C00
1800
3800
F000
E000
ENDCHAR
STARTCHAR afii10193
ENCODING 1119
SWIDTH 625 0
DWIDTH 10 0
BBX 9 12 1 -3
BITMAP
6300
6300
6300
6300
6300
6300
E600
7E00
7600
3000
3000
3000
ENDCHAR
STARTCHAR afii10050
ENCODING 1168
SWIDTH 563 0
DWIDTH 9 0
BBX 10 14 1 0
BITMAP
00C0
00C0
00C0
3F80
3F80
3000
6000
6000
6000
6000
6000
C000
C000
C000
ENDCHAR
STARTCHAR afii10098
ENCODING 1169
SWIDTH 438 0
DWIDTH 7 0
BBX 8 12 1 0
BITMAP
03
03
03
7E
7E
60
60
60
60
C0
C0
C0
ENDCHAR
STARTCHAR Wgrave
ENCODING 7808
SWIDTH 938 0
DWIDTH 15 0
BBX 15 14 1 0
BITMAP
0380
00C0
0000
C386
C38C
C78C
C798
CD98
CDB0
69B0
79E0
79E0
71C0
71C0
ENDCHAR
STARTCHAR wgrave
ENCODING 7809
SWIDTH 813 0
DWIDTH 13 0
BBX 12 13 1 0
BITMAP
0E00
0600
0300
0000
C630
C620
CA60
CA40
D240
D2C0
E280
E380
C100
ENDCHAR
STARTCHAR Wacute
ENCODING 7810
SWIDTH 938 0
DWIDTH 15 0
BBX 15 14 1 0
BITMAP
00E0
0180
0000
C386
C38C
C78C
C798
CD98
CDB0
69B0
79E0
79E0
71C0
71C0
ENDCHAR
STARTCHAR wacute
ENCODING 7811
SWIDTH 813 0
DWIDTH 13 0
BBX 12 13 1 0
BITMAP
00C0
0180
0300
0000
C630
C620
CA60
CA40
D240
D2C0
E280
E380
C100
ENDCHAR
STARTCHAR Wdieresis
ENCODING 7812
SWIDTH 938 0
DWIDTH 15 0
BBX 15 14 1 0
BITMAP
06C0
06C0
0000
C386
C38C
C78C
C798
CD98
CDB0
69B0
79E0
79E0
71C0
71C0
ENDCHAR
STARTCHAR wdieresis
ENCODING 7813
SWIDTH 813 0
DWIDTH 13 0
BBX 12 12 1 0
BITMAP
0D80
0D80
0000
C630
C620
CA60
CA40
D240
D2C0
E280
E380
C100
ENDCHAR
STARTCHAR Ygrave
ENCODING 7922
SWIDTH 625 0
DWIDTH 10 0
BBX 10 14 1 0
BITMAP
1C00
0600
0000
C0C0
6180
6300
3600
3400
3C00
1800
1800
3000
3000
3000
ENDCHAR
STARTCHAR ygrave
ENCODING 7923
SWIDTH 563 0
DWIDTH 9 0
BBX 10 17 0 -4
BITMAP
1C00
0C00
0600
0000
60C0
6180
3180
3300
3300
3600
1600
1C00
1C00
1800
3800
F000
E000
ENDCHAR
STARTCHAR uni2010
ENCODING 8208
SWIDTH 313 0
DWIDTH 5 0
BBX 5 2 0 3
BITMAP
F8
F8
ENDCHAR
STARTCHAR uni2011
ENCODING 8209
SWIDTH 313 0
DWIDTH 5 0
BBX 5 2 0 3
BITMAP
F8
F8
ENDCHAR
STARTCHAR figuredash
ENCODING 8210
SWIDTH 313 0
DWIDTH 5 0
BBX 5 2 0 3
BITMAP
F8
F8
ENDCHAR
STARTCHAR endash
ENCODING 8211
SWIDTH 563 0
DWIDTH 9 0
BBX 9 2 0 3
BITMAP
FF80
FF80
ENDCHAR
STARTCHAR emdash
ENCODING 8212
SWIDTH 1000 0
DWIDTH 16 0
BBX 16 2 0 3
BITMAP
FFFF
FFFF
ENDCHAR
STARTCHAR afii00208
ENCODING 8213
SWIDTH 1000 0
DWIDTH 16 0
BBX 16 1 0 4
BITMAP
FFFF
ENDCHAR
STARTCHAR underscoredbl
ENCODING 8215
SWIDTH 563 0
DWIDTH 9 0
BBX 9 3 -1 -4
BITMAP
FF80
0000
FF80
ENDCHAR
STARTCHAR quoteleft
ENCODING 8216
SWIDTH 250 0
DWIDTH 4 0
BBX 4 4 1 7
BITMAP
20
40
C0
C0
ENDCHAR
STARTCHAR quoteright
ENCODING 8217
SWIDTH 250 0
DWIDTH 4 0
BBX 4 4 0 7
BITMAP
30
30
20
40
ENDCHAR
STARTCHAR quotesinglbase
ENCODING 8218
SWIDTH 250 0
DWIDTH 4 0
BBX 3 4 -1 -2
BITMAP
60
60
20
40
ENDCHAR
STARTCHAR quotereversed
ENCODING 8219
SWIDTH 250 0
DWIDTH 4 0
BBX 3 4 1 7
BITMAP
60
60
C0
40
ENDCHAR
STARTCHAR quotedblleft
ENCODING 8220
SWIDTH 500 0
DWIDTH 8 0
BBX 7 4 2 7
BITMAP
24
48
F8
D8
ENDCHAR
STARTCHAR quotedblright
ENCODING 8221
SWIDTH 500 0
DWIDTH 8 0
BBX 7 4 0 7
BITMAP
36
36
2C
48
ENDCHAR
STARTCHAR quotedblbase
ENCODING 8222
SWIDTH 500 0
DWIDTH 8 0
BBX 6 4 0 -2
BITMAP
6C
6C
24
48
ENDCHAR
STARTCHAR dagger
ENCODING 8224
SWIDTH 563 0
DWIDTH 9 0
BBX 7 13 2 -1
BITMAP
18
18
10
FE
FE
30
30
20
20
20
60
60
40
ENDCHAR
STARTCHAR daggerdbl
ENCODING 8225
SWIDTH 563 0
DWIDTH 9 0
BBX 8 13 1 -1
BITMAP
0C
0C
0C
7F
7F
18
18
18
FE
FE
30
30
30
ENDCHAR
STARTCHAR bullet
ENCODING 8226
SWIDTH 313 0
DWIDTH 5 0
BBX 4 4 1 4
BITMAP
60
F0
F0
60
ENDCHAR
STARTCHAR ellipsis
ENCODING 8230
SWIDTH 1000 0
DWIDTH 16 0
BBX 12 2 1 0
BITMAP
C630
C630
ENDCHAR
STARTCHAR perthousand
ENCODING 8240
SWIDTH 1063 0
DWIDTH 17 0
BBX 15 11 1 0
BITMAP
7080
4900
8A00
8C00
9400
7F1C
1492
18A2
28A2
4924
871C
ENDCHAR
STARTCHAR minute
ENCODING 8242
SWIDTH 250 0
DWIDTH 4 0
BBX 3 4 1 7
BITMAP
60
60
40
40
ENDCHAR
STARTCHAR second
ENCODING 8243
SWIDTH 438 0
DWIDTH 7 0
BBX 7 4 1 7
BITMAP
66
66
44
44
ENDCHAR
STARTCHAR guilsinglleft
ENCODING 8249
SWIDTH 313 0
DWIDTH 5 0
BBX 5 6 0 1
BITMAP
38
70
E0
C0
60
30
ENDCHAR
STARTCHAR guilsinglright
ENCODING 8250
SWIDTH 313 0
DWIDTH 5 0
BBX 5 6 0 1
BITMAP
60
30
18
38
70
E0
ENDCHAR
STARTCHAR exclamdbl
ENCODING 8252
SWIDTH 625 0
DWIDTH 10 0
BBX 8 11 1 0
BITMAP
33
33
33
66
66
66
66
44
00
CC
CC
ENDCHAR
STARTCHAR uni203E
ENCODING 8254
SWIDTH 313 0
DWIDTH 5 0
BBX 5 1 0 11
BITMAP
F8
ENDCHAR
STARTCHAR fraction
ENCODING 8260
SWIDTH 188 0
DWIDTH 3 0
BBX 10 11 -3 0
BITMAP
0040
0080
0100
0200
0400
0800
0800
1000
2000
4000
8000
ENDCHAR
STARTCHAR uni207F
ENCODING 8319
SWIDTH 375 0
DWIDTH 6 0
BBX 4 5 1 4
BITMAP
70
50
90
90
A0
ENDCHAR
STARTCHAR franc
ENCODING 8355
SWIDTH 563 0
DWIDTH 9 0
BBX 10 11 0 0
BITMAP
1FC0
1FC0
1800
3000
3000
3F80
3F80
3000
FC00
6000
6000
ENDCHAR
STARTCHAR lira
ENCODING 8356
SWIDTH 563 0
DWIDTH 9 0
BBX 9 11 0 0
BITMAP
0F00
1F80
3980
3000
7C00
3000
FC00
3200
6300
FE00
FE00
ENDCHAR
STARTCHAR peseta
ENCODING 8359
SWIDTH 1063 0
DWIDTH 17 0
BBX 16 11 0 0
BITMAP
3E00
3F00
3300
6340
6740
7FEF
7CDB
60DE
C18F
C1B3
C0DE
ENDCHAR
STARTCHAR Euro
ENCODING 8364
SWIDTH 563 0
DWIDTH 9 0
BBX 10 11 0 0
BITMAP
0F80
1FC0
39C0
3000
FC00
6000
FC00
6000
6380
3F00
1E00
ENDCHAR
STARTCHAR afii61248
ENCODING 8453
SWIDTH 875 0
DWIDTH 14 0
BBX 12 11 1 0
BITMAP
3820
4C40
8080
8100
82E0
9D10
7710
0A10
1230
2220
41C0
ENDCHAR
STARTCHAR afii61289
ENCODING 8467
SWIDTH 500 0
DWIDTH 8 0
BBX 9 11 -1 0
BITMAP
0F00
1F80
3980
3180
3300
3E00
7800
7200
7600
7C00
3800
ENDCHAR
STARTCHAR afii61352
ENCODING 8470
SWIDTH 1125 0
DWIDTH 18 0
BBX 18 11 0 0
BITMAP
383000
383000
3C3000
6C6380
6664C0
666CC0
666CC0
636C80
C3C700
C1C000
C1DF80
ENDCHAR
STARTCHAR trademark
ENCODING 8482
SWIDTH 1000 0
DWIDTH 16 0
BBX 13 5 1 6
BITMAP
FB18
2318
22A8
22A8
2248
ENDCHAR
STARTCHAR u2126
ENCODING 8486
SWIDTH 750 0
DWIDTH 12 0
BBX 10 11 1 0
BITMAP
3F00
7F80
E1C0
C0C0
C0C0
C0C0
C0C0
6180
3300
F3C0
F3C0
ENDCHAR
STARTCHAR estimated
ENCODING 8494
SWIDTH 625 0
DWIDTH 10 0
BBX 8 9 1 0
BITMAP
3C
42
C3
C3
FF
C0
C0
42
3C
ENDCHAR
STARTCHAR oneeighth
ENCODING 8539
SWIDTH 813 0
DWIDTH 13 0
BBX 10 11 2 0
BITMAP
6040
A080
4100
4200
E400
0800
09C0
1140
2180
4240
83C0
ENDCHAR
STARTCHAR threeeighths
ENCODING 8540
SWIDTH 813 0
DWIDTH 13 0
BBX 11 11 1 0
BITMAP
7020
3040
2080
1100
F200
0400
04E0
08A0
10C0
2120
41E0
ENDCHAR
STARTCHAR fiveeighths
ENCODING 8541
SWIDTH 813 0
DWIDTH 13 0
BBX 11 11 1 0
BITMAP
3020
6040
7080
1100
E200
0400
04E0
08A0
10C0
2120
41E0
ENDCHAR
STARTCHAR seveneighths
ENCODING 8542
SWIDTH 813 0
DWIDTH 13 0
BBX 10 11 2 0
BITMAP
7C40
0880
1100
2200
4400
0800
09C0
1140
2180
4240
83C0
ENDCHAR
STARTCHAR arrowleft
ENCODING 8592
SWIDTH 1000 0
DWIDTH 16 0
BBX 9 5 3 0
BITMAP
2000
4000
FF80
4000
2000
ENDCHAR
STARTCHAR arrowup
ENCODING 8593
SWIDTH 500 0
DWIDTH 8 0
BBX 5 9 2 0
BITMAP
20
70
A8
20
20
20
20
20
20
ENDCHAR
STARTCHAR arrowright
ENCODING 8594
SWIDTH 1000 0
DWIDTH 16 0
BBX 9 5 3 0
BITMAP
0200
0100
FF80
0100
0200
ENDCHAR
STARTCHAR arrowdown
ENCODING 8595
SWIDTH 500 0
DWIDTH 8 0
BBX 5 9 2 0
BITMAP
20
20
20
20
20
20
A8
70
20
ENDCHAR
STARTCHAR arrowboth
ENCODING 8596
SWIDTH 1000 0
DWIDTH 16 0
BBX 9 5 3 0
BITMAP
2200
4100
FF80
4100
2200
ENDCHAR
STARTCHAR arrowupdn
ENCODING 8597
SWIDTH 500 0
DWIDTH 8 0
BBX 5 9 2 0
BITMAP
20
70
A8
20
20
20
A8
70
20
ENDCHAR
STARTCHAR arrowupdnbse
ENCODING 8616
SWIDTH 500 0
DWIDTH 8 0
BBX 5 11 2 -2
BITMAP
20
70
A8
20
20
20
A8
70
20
00
F8
ENDCHAR
STARTCHAR partialdiff
ENCODING 8706
SWIDTH 500 0
DWIDTH 8 0
BBX 7 12 1 0
BITMAP
3C
3C
06
06
36
7E
E6
C6
CC
CC
F8
70
ENDCHAR
STARTCHAR u2206
ENCODING 8710
SWIDTH 625 0
DWIDTH 10 0
BBX 10 11 0 0
BITMAP
1E00
1E00
1E00
3300
3300
7380
6180
6180
C0C0
FFC0
FFC0
ENDCHAR
STARTCHAR product
ENCODING 8719
SWIDTH 813 0
DWIDTH 13 0
BBX 9 14 2 -3
BITMAP
FF80
FF80
C180
C180
C180
C180
C180
C180
C180
C180
C180
C180
C180
C180
ENDCHAR
STARTCHAR summation
ENCODING 8721
SWIDTH 688 0
DWIDTH 11 0
BBX 9 14 1 -3
BITMAP
FF80
FF80
6000
3000
1800
0C00
0600
0C00
1C00
3800
3000
6000
FF80
FF80
ENDCHAR
STARTCHAR minus
ENCODING 8722
SWIDTH 563 0
DWIDTH 9 0
BBX 8 2 1 4
BITMAP
FF
FF
ENDCHAR
STARTCHAR fraction
ENCODING 8725
SWIDTH 188 0
DWIDTH 3 0
BBX 10 11 -3 0
BITMAP
0040
0080
0100
0200
0400
0800
0800
1000
2000
4000
8000
ENDCHAR
STARTCHAR periodcentered
ENCODING 8729
SWIDTH 250 0
DWIDTH 4 0
BBX 2 2 1 4
BITMAP
C0
C0
ENDCHAR
STARTCHAR radical
ENCODING 8730
SWIDTH 563 0
DWIDTH 9 0
BBX 9 13 1 0
BITMAP
0180
0180
0100
0300
0300
0200
E200
2600
2400
3400
1C00
1800
1800
ENDCHAR
STARTCHAR infinity
ENCODING 8734
SWIDTH 625 0
DWIDTH 10 0
BBX 9 5 1 3
BITMAP
7700
9480
8880
9480
7700
ENDCHAR
STARTCHAR orthogonal
ENCODING 8735
SWIDTH 1000 0
DWIDTH 16 0
BBX 10 10 3 0
BITMAP
8000
8000
8000
8000
8000
8000
8000
8000
8000
FFC0
ENDCHAR
STARTCHAR intersection
ENCODING 8745
SWIDTH 750 0
DWIDTH 12 0
BBX 8 8 2 0
BITMAP
3C
42
81
81
81
81
81
81
ENDCHAR
STARTCHAR integral
ENCODING 8747
SWIDTH 250 0
DWIDTH 4 0
BBX 6 16 -1 -4
BITMAP
1C
3C
30
30
30
30
30
30
30
30
30
30
30
30
F0
E0
ENDCHAR
STARTCHAR approxequal
ENCODING 8776
SWIDTH 563 0
DWIDTH 9 0
BBX 8 7 1 1
BITMAP
71
FF
8E
00
71
FF
8E
ENDCHAR
STARTCHAR notequal
ENCODING 8800
SWIDTH 563 0
DWIDTH 9 0
BBX 8 9 1 0
BITMAP
06
04
FF
FF
18
FF
FF
20
60
ENDCHAR
STARTCHAR equivalence
ENCODING 8801
SWIDTH 563 0
DWIDTH 9 0
BBX 8 7 1 2
BITMAP
FF
00
00
FF
00
00
FF
ENDCHAR
STARTCHAR lessequal
ENCODING 8804
SWIDTH 563 0
DWIDTH 9 0
BBX 8 10 1 0
BITMAP
03
1F
FC
E0
E0
FC
1F
03
FF
FF
ENDCHAR
STARTCHAR greaterequal
ENCODING 8805
SWIDTH 563 0
DWIDTH 9 0
BBX 8 10 1 0
BITMAP
C0
F8
3F
07
07
3F
F8
C0
FF
FF
ENDCHAR
STARTCHAR house
ENCODING 8962
SWIDTH 625 0
DWIDTH 10 0
BBX 7 9 1 0
BITMAP
10
28
44
82
82
82
82
82
FE
ENDCHAR
STARTCHAR revlogicalnot
ENCODING 8976
SWIDTH 563 0
DWIDTH 9 0
BBX 8 5 1 1
BITMAP
FF
80
80
80
80
ENDCHAR
STARTCHAR integraltp
ENCODING 8992
SWIDTH 625 0
DWIDTH 10 0
BBX 3 18 4 -5
BITMAP
60
A0
80
80
80
80
80
80
80
80
80
80
80
80
80
80
80
80
ENDCHAR
STARTCHAR integralbt
ENCODING 8993
SWIDTH 625 0
DWIDTH 10 0
BBX 3 18 2 -5
BITMAP
20
20
20
20
20
20
20
20
20
20
20
20
20
20
20
20
A0
C0
ENDCHAR
STARTCHAR SF100000
ENCODING 9472
SWIDTH 688 0
DWIDTH 11 0
BBX 11 1 0 4
BITMAP
FFE0
ENDCHAR
STARTCHAR SF110000
ENCODING 9474
SWIDTH 625 0
DWIDTH 10 0
BBX 1 20 5 -5
BITMAP
80
80
80
80
80
80
80
80
80
80
80
80
80
80
80
80
80
80
80
80
ENDCHAR
STARTCHAR SF010000
ENCODING 9484
SWIDTH 688 0
DWIDTH 11 0
BBX 6 10 5 -5
BITMAP
FC
80
80
80
80
80
80
80
80
80
ENDCHAR
STARTCHAR SF030000
ENCODING 9488
SWIDTH 688 0
DWIDTH 11 0
BBX 6 10 0 -5
BITMAP
FC
04
04
04
04
04
04
04
04
04
ENDCHAR
STARTCHAR SF020000
ENCODING 9492
SWIDTH 688 0
DWIDTH 11 0
BBX 6 11 5 4
BITMAP
80
80
80
80
80
80
80
80
80
80
FC
ENDCHAR
STARTCHAR SF040000
ENCODING 9496
SWIDTH 688 0
DWIDTH 11 0
BBX 6 11 0 4
BITMAP
04
04
04
04
04
04
04
04
04
04
FC
ENDCHAR
STARTCHAR SF080000
ENCODING 9500
SWIDTH 688 0
DWIDTH 11 0
BBX 6 20 5 -5
BITMAP
80
80
80
80
80
80
80
80
80
80
FC
80
80
80
80
80
80
80
80
80
ENDCHAR
STARTCHAR SF090000
ENCODING 9508
SWIDTH 688 0
DWIDTH 11 0
BBX 6 20 0 -5
BITMAP
04
04
04
04
04
04
04
04
04
04
FC
04
04
04
04
04
04
04
04
04
ENDCHAR
STARTCHAR SF060000
ENCODING 9516
SWIDTH 688 0
DWIDTH 11 0
BBX 11 10 0 -5
BITMAP
FFE0
0400
0400
0400
0400
0400
0400
0400
0400
0400
ENDCHAR
STARTCHAR SF070000
ENCODING 9524
SWIDTH 688 0
DWIDTH 11 0
BBX 11 11 0 4
BITMAP
0400
0400
0400
0400
0400
0400
0400
0400
0400
0400
FFE0
ENDCHAR
STARTCHAR SF050000
ENCODING 9532
SWIDTH 688 0
DWIDTH 11 0
BBX 11 20 0 -5
BITMAP
0400
0400
0400
0400
0400
0400
0400
0400
0400
0400
FFE0
0400
0400
0400
0400
0400
0400
0400
0400
0400
ENDCHAR
STARTCHAR SF430000
ENCODING 9552
SWIDTH 688 0
DWIDTH 11 0
BBX 11 4 0 3
BITMAP
FFE0
0000
0000
FFE0
ENDCHAR
STARTCHAR SF240000
ENCODING 9553
SWIDTH 688 0
DWIDTH 11 0
BBX 4 20 4 -5
BITMAP
90
90
90
90
90
90
90
90
90
90
90
90
90
90
90
90
90
90
90
90
ENDCHAR
STARTCHAR SF510000
ENCODING 9554
SWIDTH 688 0
DWIDTH 11 0
BBX 6 12 5 -5
BITMAP
FC
80
80
FC
80
80
80
80
80
80
80
80
ENDCHAR
STARTCHAR SF520000
ENCODING 9555
SWIDTH 688 0
DWIDTH 11 0
BBX 7 10 4 -5
BITMAP
FE
90
90
90
90
90
90
90
90
90
ENDCHAR
STARTCHAR SF390000
ENCODING 9556
SWIDTH 688 0
DWIDTH 11 0
BBX 7 12 4 -5
BITMAP
FE
80
80
9E
90
90
90
90
90
90
90
90
ENDCHAR
STARTCHAR SF220000
ENCODING 9557
SWIDTH 688 0
DWIDTH 11 0
BBX 6 12 0 -5
BITMAP
FC
04
04
FC
04
04
04
04
04
04
04
04
ENDCHAR
STARTCHAR SF210000
ENCODING 9558
SWIDTH 688 0
DWIDTH 11 0
BBX 8 10 0 -5
BITMAP
FF
09
09
09
09
09
09
09
09
09
ENDCHAR
STARTCHAR SF250000
ENCODING 9559
SWIDTH 688 0
DWIDTH 11 0
BBX 8 12 0 -5
BITMAP
FF
01
01
F9
09
09
09
09
09
09
09
09
ENDCHAR
STARTCHAR SF500000
ENCODING 9560
SWIDTH 688 0
DWIDTH 11 0
BBX 6 12 5 3
BITMAP
80
80
80
80
80
80
80
80
FC
80
80
FC
ENDCHAR
STARTCHAR SF490000
ENCODING 9561
SWIDTH 688 0
DWIDTH 11 0
BBX 7 11 4 4
BITMAP
90
90
90
90
90
90
90
90
90
90
FE
ENDCHAR
STARTCHAR SF380000
ENCODING 9562
SWIDTH 688 0
DWIDTH 11 0
BBX 7 12 4 3
BITMAP
90
90
90
90
90
90
90
90
9E
80
80
FE
ENDCHAR
STARTCHAR SF280000
ENCODING 9563
SWIDTH 688 0
DWIDTH 11 0
BBX 6 12 0 3
BITMAP
04
04
04
04
04
04
04
04
FC
04
04
FC
ENDCHAR
STARTCHAR SF270000
ENCODING 9564
SWIDTH 688 0
DWIDTH 11 0
BBX 8 11 0 4
BITMAP
09
09
09
09
09
09
09
09
09
09
FF
ENDCHAR
STARTCHAR SF260000
ENCODING 9565
SWIDTH 688 0
DWIDTH 11 0
BBX 8 12 0 3
BITMAP
09
09
09
09
09
09
09
09
F9
01
01
FF
ENDCHAR
STARTCHAR SF360000
ENCODING 9566
SWIDTH 688 0
DWIDTH 11 0
BBX 6 20 5 -5
BITMAP
80
80
80
80
80
80
80
80
FC
80
80
FC
80
80
80
80
80
80
80
80
ENDCHAR
STARTCHAR SF370000
ENCODING 9567
SWIDTH 688 0
DWIDTH 11 0
BBX 7 20 4 -5
BITMAP
90
90
90
90
90
90
90
90
90
90
9E
90
90
90
90
90
90
90
90
90
ENDCHAR
STARTCHAR SF420000
ENCODING 9568
SWIDTH 688 0
DWIDTH 11 0
BBX 7 20 4 -5
BITMAP
90
90
90
90
90
90
90
90
9E
80
80
9E
90
90
90
90
90
90
90
90
ENDCHAR
STARTCHAR SF190000
ENCODING 9569
SWIDTH 688 0
DWIDTH 11 0
BBX 6 20 0 -5
BITMAP
04
04
04
04
04
04
04
04
FC
04
04
FC
04
04
04
04
04
04
04
04
ENDCHAR
STARTCHAR SF200000
ENCODING 9570
SWIDTH 688 0
DWIDTH 11 0
BBX 8 20 0 -5
BITMAP
09
09
09
09
09
09
09
09
09
09
F9
09
09
09
09
09
09
09
09
09
ENDCHAR
STARTCHAR SF230000
ENCODING 9571
SWIDTH 688 0
DWIDTH 11 0
BBX 8 20 0 -5
BITMAP
09
09
09
09
09
09
09
09
F9
01
01
F9
09
09
09
09
09
09
09
09
ENDCHAR
STARTCHAR SF470000
ENCODING 9572
SWIDTH 688 0
DWIDTH 11 0
BBX 11 12 0 -5
BITMAP
FFE0
0000
0000
FFE0
0400
0400
0400
0400
0400
0400
0400
0400
ENDCHAR
STARTCHAR SF480000
ENCODING 9573
SWIDTH 688 0
DWIDTH 11 0
BBX 11 10 0 -5
BITMAP
FFE0
0900
0900
0900
0900
0900
0900
0900
0900
0900
ENDCHAR
STARTCHAR SF410000
ENCODING 9574
SWIDTH 688 0
DWIDTH 11 0
BBX 11 12 0 -5
BITMAP
FFE0
0000
0000
F9E0
0900
0900
0900
0900
0900
0900
0900
0900
ENDCHAR
STARTCHAR SF450000
ENCODING 9575
SWIDTH 688 0
DWIDTH 11 0
BBX 11 12 0 3
BITMAP
0400
0400
0400
0400
0400
0400
0400
0400
FFE0
0000
0000
FFE0
ENDCHAR
STARTCHAR SF460000
ENCODING 9576
SWIDTH 688 0
DWIDTH 11 0
BBX 11 11 0 4
BITMAP
0900
0900
0900
0900
0900
0900
0900
0900
0900
0900
FFE0
ENDCHAR
STARTCHAR SF400000
ENCODING 9577
SWIDTH 688 0
DWIDTH 11 0
BBX 11 12 0 3
BITMAP
0900
0900
0900
0900
0900
0900
0900
0900
F9E0
0000
0000
FFE0
ENDCHAR
STARTCHAR SF540000
ENCODING 9578
SWIDTH 688 0
DWIDTH 11 0
BBX 11 20 0 -5
BITMAP
0400
0400
0400
0400
0400
0400
0400
0400
FFE0
0400
0400
FFE0
0400
0400
0400
0400
0400
0400
0400
0400
ENDCHAR
STARTCHAR SF530000
ENCODING 9579
SWIDTH 688 0
DWIDTH 11 0
BBX 11 20 0 -5
BITMAP
0900
0900
0900
0900
0900
0900
0900
0900
0900
0900
FFE0
0900
0900
0900
0900
0900
0900
0900
0900
0900
ENDCHAR
STARTCHAR SF440000
ENCODING 9580
SWIDTH 688 0
DWIDTH 11 0
BBX 11 20 0 -5
BITMAP
0900
0900
0900
0900
0900
0900
0900
0900
F9E0
0000
0000
F9E0
0900
0900
0900
0900
0900
0900
0900
0900
ENDCHAR
STARTCHAR upblock
ENCODING 9600
SWIDTH 688 0
DWIDTH 11 0
BBX 11 10 0 5
BITMAP
FFE0
FFE0
FFE0
FFE0
FFE0
FFE0
FFE0
FFE0
FFE0
FFE0
ENDCHAR
STARTCHAR dnblock
ENCODING 9604
SWIDTH 688 0
DWIDTH 11 0
BBX 11 10 0 -5
BITMAP
FFE0
FFE0
FFE0
FFE0
FFE0
FFE0
FFE0
FFE0
FFE0
FFE0
ENDCHAR
STARTCHAR block
ENCODING 9608
SWIDTH 688 0
DWIDTH 11 0
BBX 11 20 0 -5
BITMAP
FFE0
FFE0
FFE0
FFE0
FFE0
FFE0
FFE0
FFE0
FFE0
FFE0
FFE0
FFE0
FFE0
FFE0
FFE0
FFE0
FFE0
FFE0
FFE0
FFE0
ENDCHAR
STARTCHAR lfblock
ENCODING 9612
SWIDTH 688 0
DWIDTH 11 0
BBX 6 20 0 -5
BITMAP
FC
FC
FC
FC
FC
FC
FC
FC
FC
FC
FC
FC
FC
FC
FC
FC
FC
FC
FC
FC
ENDCHAR
STARTCHAR rtblock
ENCODING 9616
SWIDTH 688 0
DWIDTH 11 0
BBX 5 20 6 -5
BITMAP
F8
F8
F8
F8
F8
F8
F8
F8
F8
F8
F8
F8
F8
F8
F8
F8
F8
F8
F8
F8
ENDCHAR
STARTCHAR ltshade
ENCODING 9617
SWIDTH 688 0
DWIDTH 11 0
BBX 10 17 1 -4
BITMAP
9240
2480
0000
9240
2480
0000
9240
2480
0000
9240
2480
0000
9240
2480
0000
9240
2480
ENDCHAR
STARTCHAR shade
ENCODING 9618
SWIDTH 688 0
DWIDTH 11 0
BBX 11 17 0 -4
BITMAP
0000
96A0
0000
6940
96A0
0000
6940
96A0
0000
6940
96A0
0000
6940
96A0
0000
6940
96A0
ENDCHAR
STARTCHAR dkshade
ENCODING 9619
SWIDTH 750 0
DWIDTH 12 0
BBX 12 18 0 -5
BITMAP
FFF0
B5A0
FFF0
FFF0
B5A0
FFF0
6B50
B5A0
FFF0
6B50
B5A0
FFF0
6B50
B5A0
FFF0
6B50
B5A0
FFF0
ENDCHAR
STARTCHAR filledbox
ENCODING 9632
SWIDTH 625 0
DWIDTH 10 0
BBX 8 8 1 1
BITMAP
FF
FF
FF
FF
FF
FF
FF
FF
ENDCHAR
STARTCHAR H22073
ENCODING 9633
SWIDTH 625 0
DWIDTH 10 0
BBX 10 10 0 0
BITMAP
FFC0
8040
8040
8040
8040
8040
8040
8040
8040
FFC0
ENDCHAR
STARTCHAR H18543
ENCODING 9642
SWIDTH 375 0
DWIDTH 6 0
BBX 4 4 1 3
BITMAP
F0
F0
F0
F0
ENDCHAR
STARTCHAR H18551
ENCODING 9643
SWIDTH 375 0
DWIDTH 6 0
BBX 4 4 1 3
BITMAP
F0
90
90
F0
ENDCHAR
STARTCHAR filledrect
ENCODING 9644
SWIDTH 1000 0
DWIDTH 16 0
BBX 16 5 0 0
BITMAP
FFFF
FFFF
FFFF
FFFF
FFFF
ENDCHAR
STARTCHAR triagup
ENCODING 9650
SWIDTH 1000 0
DWIDTH 16 0
BBX 10 9 3 0
BITMAP
0800
0C00
1C00
1E00
3E00
3F00
7F00
7F80
FF80
ENDCHAR
STARTCHAR triagrt
ENCODING 9658
SWIDTH 1000 0
DWIDTH 16 0
BBX 10 9 3 0
BITMAP
C000
F000
FC00
FF00
FFC0
FF00
FC00
F000
C000
ENDCHAR
STARTCHAR triagdn
ENCODING 9660
SWIDTH 1000 0
DWIDTH 16 0
BBX 10 9 3 0
BITMAP
7F80
7F80
3F00
3F00
1E00
1E00
0C00
0C00
0000
ENDCHAR
STARTCHAR triaglf
ENCODING 9668
SWIDTH 1000 0
DWIDTH 16 0
BBX 10 9 3 0
BITMAP
00C0
03C0
0FC0
3FC0
FFC0
3FC0
0FC0
03C0
00C0
ENDCHAR
STARTCHAR lozenge
ENCODING 9674
SWIDTH 500 0
DWIDTH 8 0
BBX 9 11 0 0
BITMAP
0800
1C00
3600
6200
4300
C180
4300
6200
3600
1C00
0800
ENDCHAR
STARTCHAR circle
ENCODING 9675
SWIDTH 625 0
DWIDTH 10 0
BBX 7 7 1 1
BITMAP
38
44
82
82
82
44
38
ENDCHAR
STARTCHAR H18533
ENCODING 9679
SWIDTH 625 0
DWIDTH 10 0
BBX 7 7 1 1
BITMAP
38
7C
FE
FE
FE
7C
38
ENDCHAR
STARTCHAR invbullet
ENCODING 9688
SWIDTH 625 0
DWIDTH 10 0
BBX 9 9 0 0
BITMAP
FF80
E380
C180
8080
8080
8080
C180
E380
FF80
ENDCHAR
STARTCHAR invcircle
ENCODING 9689
SWIDTH 625 0
DWIDTH 10 0
BBX 9 9 0 0
BITMAP
FF80
E380
DD80
BE80
BE80
BE80
DD80
E380
FF80
ENDCHAR
STARTCHAR openbullet
ENCODING 9702
SWIDTH 375 0
DWIDTH 6 0
BBX 4 4 1 3
BITMAP
60
90
90
60
ENDCHAR
STARTCHAR smileface
ENCODING 9786
SWIDTH 1000 0
DWIDTH 16 0
BBX 10 10 3 0
BITMAP
1E00
6180
4080
A140
8040
8040
A140
5E80
6180
1E00
ENDCHAR
STARTCHAR invsmileface
ENCODING 9787
SWIDTH 1063 0
DWIDTH 17 0
BBX 10 10 4 0
BITMAP
1E00
7F80
7F80
DEC0
FFC0
FFC0
DEC0
6180
7F80
1E00
ENDCHAR
STARTCHAR sun
ENCODING 9788
SWIDTH 938 0
DWIDTH 15 0
BBX 11 11 2 -2
BITMAP
0400
4440
2E80
1100
2080
E0E0
2080
1100
2E80
4440
0400
ENDCHAR
STARTCHAR female
ENCODING 9792
SWIDTH 750 0
DWIDTH 12 0
BBX 5 9 4 0
BITMAP
70
88
88
88
70
20
F8
20
20
ENDCHAR
STARTCHAR male
ENCODING 9794
SWIDTH 750 0
DWIDTH 12 0
BBX 7 7 3 1
BITMAP
06
06
78
88
88
88
70
ENDCHAR
STARTCHAR spade
ENCODING 9824
SWIDTH 563 0
DWIDTH 9 0
BBX 7 10 0 0
BITMAP
10
10
38
7C
7C
FE
FE
FE
10
38
ENDCHAR
STARTCHAR club
ENCODING 9827
SWIDTH 688 0
DWIDTH 11 0
BBX 10 10 0 0
BITMAP
1C00
1E00
1E00
7F80
FFC0
FFC0
FFC0
7B80
0C00
1E00
ENDCHAR
STARTCHAR heart
ENCODING 9829
SWIDTH 625 0
DWIDTH 10 0
BBX 9 9 0 0
BITMAP
7700
F780
FF80
7F00
7F00
3E00
1C00
0800
0800
ENDCHAR
STARTCHAR diamond
ENCODING 9830
SWIDTH 500 0
DWIDTH 8 0
BBX 7 9 1 0
BITMAP
10
38
38
7C
FE
7C
38
38
10
ENDCHAR
STARTCHAR musicalnote
ENCODING 9834
SWIDTH 500 0
DWIDTH 8 0
BBX 5 9 2 0
BITMAP
20
30
30
28
28
28
20
E0
C0
ENDCHAR
STARTCHAR musicalnotedbl
ENCODING 9835
SWIDTH 750 0
DWIDTH 12 0
BBX 8 9 2 0
BITMAP
03
3D
27
39
21
21
21
E7
C6
ENDCHAR
STARTCHAR uniF001
ENCODING 61441
SWIDTH 563 0
DWIDTH 9 0
BBX 8 12 1 0
BITMAP
1F
3F
30
FE
FE
66
66
66
66
CC
CC
CC
ENDCHAR
STARTCHAR uniF002
ENCODING 61442
SWIDTH 563 0
DWIDTH 9 0
BBX 8 12 1 0
BITMAP
1F
3F
33
FE
FE
66
66
66
66
CC
CC
CC
ENDCHAR
STARTCHAR uniF005
ENCODING 61445
SWIDTH 313 0
DWIDTH 5 0
BBX 3 3 1 -3
BITMAP
60
20
E0
ENDCHAR
STARTCHAR uniF001
ENCODING 64257
SWIDTH 563 0
DWIDTH 9 0
BBX 8 12 1 0
BITMAP
1F
3F
30
FE
FE
66
66
66
66
CC
CC
CC
ENDCHAR
STARTCHAR uniF002
ENCODING 64258
SWIDTH 563 0
DWIDTH 9 0
BBX 8 12 1 0
BITMAP
1F
3F
33
FE
FE
66
66
66
66
CC
CC
CC
ENDCHAR
ENDFONT
