STARTFONT 2.1
FONT -unknown-Standard-Italic-R-Normal--16-160-75-75-P-0-ISO10646-1
SIZE 16 75 75
FONTBOUNDINGBOX 16 16 0 0
STARTPROPERTIES 5
FAMILY_NAME "Standard"
WEIGHT_NAME "Italic"
PIXEL_SIZE 16
FONT_ASCENT 13
FONT_DESCENT 3
ENDPROPERTIES
CHARS 662
STARTCHAR space
ENCODING 32
SWIDTH 250 0
DWIDTH 4 0
BBX 0 0 0 0
BITMAP
ENDCHAR
STARTCHAR exclam
ENCODING 33
SWIDTH 250 0
DWIDTH 4 0
BBX 3 11 1 0
BITMAP
20
20
20
40
40
40
40
40
00
80
80
ENDCHAR
STARTCHAR quotedbl
ENCODING 34
SWIDTH 375 0
DWIDTH 6 0
BBX 4 3 2 8
BITMAP
90
90
90
ENDCHAR
STARTCHAR numbersign
ENCODING 35
SWIDTH 563 0
DWIDTH 9 0
BBX 9 11 0 0
BITMAP
1100
1100
1100
7F80
2200
2200
2200
FF00
4400
4400
4400
ENDCHAR
STARTCHAR dollar
ENCODING 36
SWIDTH 563 0
DWIDTH 9 0
BBX 8 13 1 -1
BITMAP
04
1E
29
49
48
48
3C
12
12
92
94
78
20
ENDCHAR
STARTCHAR percent
ENCODING 37
SWIDTH 875 0
DWIDTH 14 0
BBX 11 11 2 0
BITMAP
3040
4880
8900
8900
9200
64C0
0920
1220
1220
2240
4180
ENDCHAR
STARTCHAR ampersand
ENCODING 38
SWIDTH 688 0
DWIDTH 11 0
BBX 9 11 1 0
BITMAP
1C00
2200
2200
2400
3800
5080
9080
8900
8A00
8C00
7380
ENDCHAR
STARTCHAR quotesingle
ENCODING 39
SWIDTH 188 0
DWIDTH 3 0
BBX 1 3 2 8
BITMAP
80
80
80
ENDCHAR
STARTCHAR parenleft
ENCODING 40
SWIDTH 313 0
DWIDTH 5 0
BBX 5 15 1 -3
BITMAP
08
10
20
40
40
80
80
80
80
80
80
80
40
40
20
ENDCHAR
STARTCHAR parenright
ENCODING 41
SWIDTH 313 0
DWIDTH 5 0
BBX 5 15 -1 -3
BITMAP
20
10
10
08
08
08
08
08
08
08
10
10
20
40
80
ENDCHAR
STARTCHAR asterisk
ENCODING 42
SWIDTH 375 0
DWIDTH 6 0
BBX 5 5 1 6
BITMAP
20
A8
70
50
88
ENDCHAR
STARTCHAR plus
ENCODING 43
SWIDTH 563 0
DWIDTH 9 0
BBX 7 7 1 2
BITMAP
10
10
10
FE
10
10
10
ENDCHAR
STARTCHAR comma
ENCODING 44
SWIDTH 250 0
DWIDTH 4 0
BBX 2 4 0 -2
BITMAP
40
40
40
80
ENDCHAR
STARTCHAR hyphen
ENCODING 45
SWIDTH 313 0
DWIDTH 5 0
BBX 4 1 1 4
BITMAP
F0
ENDCHAR
STARTCHAR period
ENCODING 46
SWIDTH 250 0
DWIDTH 4 0
BBX 1 2 1 0
BITMAP
80
80
ENDCHAR
STARTCHAR slash
ENCODING 47
SWIDTH 250 0
DWIDTH 4 0
BBX 7 12 -1 0
BITMAP
02
04
04
08
08
10
10
20
20
40
40
80
ENDCHAR
STARTCHAR zero
ENCODING 48
SWIDTH 563 0
DWIDTH 9 0
BBX 8 11 1 0
BITMAP
1E
21
41
41
81
81
81
82
82
84
78
ENDCHAR
STARTCHAR one
ENCODING 49
SWIDTH 563 0
DWIDTH 9 0
BBX 7 11 1 0
BITMAP
0C
14
24
08
08
08
08
08
10
10
FE
ENDCHAR
STARTCHAR two
ENCODING 50
SWIDTH 563 0
DWIDTH 9 0
BBX 8 11 1 0
BITMAP
1E
21
41
01
02
04
18
20
40
80
FE
ENDCHAR
STARTCHAR three
ENCODING 51
SWIDTH 563 0
DWIDTH 9 0
BBX 8 11 1 0
BITMAP
1E
21
41
01
02
1C
02
02
82
84
78
ENDCHAR
STARTCHAR four
ENCODING 52
SWIDTH 563 0
DWIDTH 9 0
BBX 7 11 1 0
BITMAP
02
06
0A
14
24
44
84
FE
08
08
08
ENDCHAR
STARTCHAR five
ENCODING 53
SWIDTH 563 0
DWIDTH 9 0
BBX 8 11 1 0
BITMAP
1F
10
20
20
3C
42
02
02
82
84
78
ENDCHAR
STARTCHAR six
ENCODING 54
SWIDTH 563 0
DWIDTH 9 0
BBX 8 11 1 0
BITMAP
1E
21
41
40
BC
C2
82
82
82
84
78
ENDCHAR
STARTCHAR seven
ENCODING 55
SWIDTH 563 0
DWIDTH 9 0
BBX 7 11 2 0
BITMAP
FE
02
04
08
10
20
20
40
40
80
80
ENDCHAR
STARTCHAR eight
ENCODING 56
SWIDTH 563 0
DWIDTH 9 0
BBX 8 11 1 0
BITMAP
1E
21
41
41
42
3C
42
82
82
84
78
ENDCHAR
STARTCHAR nine
ENCODING 57
SWIDTH 563 0
DWIDTH 9 0
BBX 8 11 1 0
BITMAP
1E
21
41
41
41
43
3D
02
82
84
78
ENDCHAR
STARTCHAR colon
ENCODING 58
SWIDTH 250 0
DWIDTH 4 0
BBX 2 9 1 0
BITMAP
40
40
00
00
00
00
00
80
80
ENDCHAR
STARTCHAR semicolon
ENCODING 59
SWIDTH 250 0
DWIDTH 4 0
BBX 3 11 0 -2
BITMAP
20
20
00
00
00
00
00
40
40
40
80
ENDCHAR
STARTCHAR less
ENCODING 60
SWIDTH 563 0
DWIDTH 9 0
BBX 7 7 1 2
BITMAP
02
1C
60
80
60
1C
02
ENDCHAR
STARTCHAR equal
ENCODING 61
SWIDTH 563 0
DWIDTH 9 0
BBX 7 5 1 3
BITMAP
FE
00
00
00
FE
ENDCHAR
STARTCHAR greater
ENCODING 62
SWIDTH 563 0
DWIDTH 9 0
BBX 7 7 1 2
BITMAP
80
70
0C
02
0C
70
80
ENDCHAR
STARTCHAR question
ENCODING 63
SWIDTH 563 0
DWIDTH 9 0
BBX 7 11 1 0
BITMAP
3C
42
82
02
04
08
10
20
00
40
40
ENDCHAR
STARTCHAR at
ENCODING 64
SWIDTH 1000 0
DWIDTH 16 0
BBX 13 14 2 -2
BITMAP
07C0
1820
2010
4748
48C8
9088
9088
9088
9088
9190
8E60
4000
2020
1FC0
ENDCHAR
STARTCHAR A
ENCODING 65
SWIDTH 688 0
DWIDTH 11 0
BBX 11 11 -1 0
BITMAP
0100
0280
0280
0480
0880
0840
1040
3FC0
2040
4020
8020
ENDCHAR
STARTCHAR B
ENCODING 66
SWIDTH 688 0
DWIDTH 11 0
BBX 9 11 1 0
BITMAP
3F00
2080
2080
4080
4100
7E00
4100
4080
8080
8100
FE00
ENDCHAR
STARTCHAR C
ENCODING 67
SWIDTH 750 0
DWIDTH 12 0
BBX 10 11 1 0
BITMAP
0F00
3080
4040
4000
8000
8000
8000
8000
8080
4300
3C00
ENDCHAR
STARTCHAR D
ENCODING 68
SWIDTH 750 0
DWIDTH 12 0
BBX 10 11 1 0
BITMAP
3F00
2080
2040
4040
4040
4040
4040
4080
8080
8300
FC00
ENDCHAR
STARTCHAR E
ENCODING 69
SWIDTH 688 0
DWIDTH 11 0
BBX 10 11 1 0
BITMAP
3FC0
2000
2000
4000
4000
7F00
4000
4000
8000
8000
FF00
ENDCHAR
STARTCHAR F
ENCODING 70
SWIDTH 625 0
DWIDTH 10 0
BBX 9 11 1 0
BITMAP
3F80
2000
2000
4000
4000
7F00
4000
4000
8000
8000
8000
ENDCHAR
STARTCHAR G
ENCODING 71
SWIDTH 750 0
DWIDTH 12 0
BBX 10 11 1 0
BITMAP
0F00
3080
4040
4000
8000
87C0
8040
8040
8080
4300
3C00
ENDCHAR
STARTCHAR H
ENCODING 72
SWIDTH 750 0
DWIDTH 12 0
BBX 10 11 1 0
BITMAP
2040
2040
2040
4080
4080
7F80
4080
4080
8100
8100
8100
ENDCHAR
STARTCHAR I
ENCODING 73
SWIDTH 250 0
DWIDTH 4 0
BBX 3 11 1 0
BITMAP
20
20
20
40
40
40
40
40
80
80
80
ENDCHAR
STARTCHAR J
ENCODING 74
SWIDTH 500 0
DWIDTH 8 0
BBX 7 11 0 0
BITMAP
1E
02
02
04
04
04
04
04
88
88
70
ENDCHAR
STARTCHAR K
ENCODING 75
SWIDTH 688 0
DWIDTH 11 0
BBX 11 11 1 0
BITMAP
2040
2080
2300
4400
4800
7800
4400
4200
8100
8080
8040
ENDCHAR
STARTCHAR L
ENCODING 76
SWIDTH 563 0
DWIDTH 9 0
BBX 7 11 1 0
BITMAP
20
20
20
40
40
40
40
40
80
80
FE
ENDCHAR
STARTCHAR M
ENCODING 77
SWIDTH 875 0
DWIDTH 14 0
BBX 12 11 1 0
BITMAP
2010
2030
3050
50A0
50A0
4920
4920
4A20
8A40
8440
8440
ENDCHAR
STARTCHAR N
ENCODING 78
SWIDTH 750 0
DWIDTH 12 0
BBX 10 11 1 0
BITMAP
2040
2040
3040
5080
4880
4880
4480
4480
8300
8100
8100
ENDCHAR
STARTCHAR O
ENCODING 79
SWIDTH 750 0
DWIDTH 12 0
BBX 10 11 1 0
BITMAP
0F00
3080
4040
4040
8040
8040
8040
8080
8080
4300
3C00
ENDCHAR
STARTCHAR P
ENCODING 80
SWIDTH 688 0
DWIDTH 11 0
BBX 9 11 1 0
BITMAP
3F00
2080
2080
4080
4100
7E00
4000
4000
8000
8000
8000
ENDCHAR
STARTCHAR Q
ENCODING 81
SWIDTH 750 0
DWIDTH 12 0
BBX 10 14 1 -3
BITMAP
0F00
3080
4040
4040
8040
8040
8040
8080
8080
4300
3C00
0800
0800
0700
ENDCHAR
STARTCHAR R
ENCODING 82
SWIDTH 750 0
DWIDTH 12 0
BBX 10 11 1 0
BITMAP
3F80
2040
2040
4040
4080
7F00
4200
4200
8100
8100
8080
ENDCHAR
STARTCHAR S
ENCODING 83
SWIDTH 688 0
DWIDTH 11 0
BBX 10 11 1 0
BITMAP
1F00
2080
4040
4000
3000
0C00
0300
0080
8080
4100
3E00
ENDCHAR
STARTCHAR T
ENCODING 84
SWIDTH 625 0
DWIDTH 10 0
BBX 9 11 1 0
BITMAP
FF80
0800
0800
1000
1000
1000
1000
1000
2000
2000
2000
ENDCHAR
STARTCHAR U
ENCODING 85
SWIDTH 750 0
DWIDTH 12 0
BBX 9 11 2 0
BITMAP
4080
4080
4080
8100
8100
8100
8100
8100
8200
8400
7800
ENDCHAR
STARTCHAR V
ENCODING 86
SWIDTH 688 0
DWIDTH 11 0
BBX 11 11 1 0
BITMAP
8020
8040
4080
4080
4100
4200
2200
2400
2800
1000
1000
ENDCHAR
STARTCHAR W
ENCODING 87
SWIDTH 938 0
DWIDTH 15 0
BBX 15 11 1 0
BITMAP
8102
8104
8284
4288
4488
4490
4890
50A0
50A0
2040
2040
ENDCHAR
STARTCHAR X
ENCODING 88
SWIDTH 688 0
DWIDTH 11 0
BBX 11 11 0 0
BITMAP
2020
1040
1080
0900
0A00
0400
0A00
1200
2100
4100
8080
ENDCHAR
STARTCHAR Y
ENCODING 89
SWIDTH 688 0
DWIDTH 11 0
BBX 9 11 2 0
BITMAP
8080
4100
4200
2400
2800
1000
1000
1000
2000
2000
2000
ENDCHAR
STARTCHAR Z
ENCODING 90
SWIDTH 625 0
DWIDTH 10 0
BBX 11 11 0 0
BITMAP
3FE0
0040
0080
0100
0200
0400
0800
1000
2000
4000
FF80
ENDCHAR
STARTCHAR bracketleft
ENCODING 91
SWIDTH 250 0
DWIDTH 4 0
BBX 6 15 0 -3
BITMAP
1C
10
10
20
20
20
20
40
40
40
40
40
80
80
E0
ENDCHAR
STARTCHAR backslash
ENCODING 92
SWIDTH 250 0
DWIDTH 4 0
BBX 3 12 1 0
BITMAP
80
80
80
80
40
40
40
40
20
20
20
20
ENDCHAR
STARTCHAR bracketright
ENCODING 93
SWIDTH 250 0
DWIDTH 4 0
BBX 6 15 -1 -3
BITMAP
1C
04
04
08
08
08
08
10
10
10
10
10
20
20
E0
ENDCHAR
STARTCHAR asciicircum
ENCODING 94
SWIDTH 500 0
DWIDTH 8 0
BBX 7 6 1 5
BITMAP
10
28
28
44
44
82
ENDCHAR
STARTCHAR underscore
ENCODING 95
SWIDTH 563 0
DWIDTH 9 0
BBX 9 1 -1 -2
BITMAP
FF80
ENDCHAR
STARTCHAR grave
ENCODING 96
SWIDTH 313 0
DWIDTH 5 0
BBX 3 3 1 10
BITMAP
80
40
20
ENDCHAR
STARTCHAR a
ENCODING 97
SWIDTH 563 0
DWIDTH 9 0
BBX 7 9 1 0
BITMAP
3C
42
42
02
7E
84
84
8C
76
ENDCHAR
STARTCHAR b
ENCODING 98
SWIDTH 563 0
DWIDTH 9 0
BBX 7 12 1 0
BITMAP
20
20
20
5C
62
42
42
42
42
84
C4
B8
ENDCHAR
STARTCHAR c
ENCODING 99
SWIDTH 500 0
DWIDTH 8 0
BBX 6 9 1 0
BITMAP
38
44
44
80
80
80
88
88
70
ENDCHAR
STARTCHAR d
ENCODING 100
SWIDTH 563 0
DWIDTH 9 0
BBX 8 12 1 0
BITMAP
01
01
01
3A
46
42
82
82
84
84
8C
74
ENDCHAR
STARTCHAR e
ENCODING 101
SWIDTH 563 0
DWIDTH 9 0
BBX 7 9 1 0
BITMAP
3C
42
42
82
FE
80
80
84
78
ENDCHAR
STARTCHAR f
ENCODING 102
SWIDTH 250 0
DWIDTH 4 0
BBX 5 12 1 0
BITMAP
18
20
20
F0
40
40
40
40
40
80
80
80
ENDCHAR
STARTCHAR g
ENCODING 103
SWIDTH 563 0
DWIDTH 9 0
BBX 9 12 0 -3
BITMAP
1D00
2300
2100
4100
4100
4200
4200
4600
3A00
0200
8400
7800
ENDCHAR
STARTCHAR h
ENCODING 104
SWIDTH 563 0
DWIDTH 9 0
BBX 7 12 1 0
BITMAP
20
20
20
5C
62
42
42
42
42
84
84
84
ENDCHAR
STARTCHAR i
ENCODING 105
SWIDTH 250 0
DWIDTH 4 0
BBX 3 12 1 0
BITMAP
20
00
00
40
40
40
40
40
40
80
80
80
ENDCHAR
STARTCHAR j
ENCODING 106
SWIDTH 250 0
DWIDTH 4 0
BBX 5 15 -1 -3
BITMAP
08
00
00
10
10
10
10
10
10
20
20
20
20
20
C0
ENDCHAR
STARTCHAR k
ENCODING 107
SWIDTH 500 0
DWIDTH 8 0
BBX 7 12 1 0
BITMAP
20
20
20
42
44
48
70
50
50
88
88
84
ENDCHAR
STARTCHAR l
ENCODING 108
SWIDTH 250 0
DWIDTH 4 0
BBX 3 12 1 0
BITMAP
20
20
20
40
40
40
40
40
40
80
80
80
ENDCHAR
STARTCHAR m
ENCODING 109
SWIDTH 875 0
DWIDTH 14 0
BBX 12 9 1 0
BITMAP
5CE0
6310
4210
4210
4210
4210
8420
8420
8420
ENDCHAR
STARTCHAR n
ENCODING 110
SWIDTH 563 0
DWIDTH 9 0
BBX 7 9 1 0
BITMAP
5C
62
42
42
42
42
84
84
84
ENDCHAR
STARTCHAR o
ENCODING 111
SWIDTH 563 0
DWIDTH 9 0
BBX 7 9 1 0
BITMAP
3C
42
42
82
82
82
84
84
78
ENDCHAR
STARTCHAR p
ENCODING 112
SWIDTH 563 0
DWIDTH 9 0
BBX 8 12 0 -3
BITMAP
2E
31
21
21
21
41
42
62
5C
40
80
80
ENDCHAR
STARTCHAR q
ENCODING 113
SWIDTH 563 0
DWIDTH 9 0
BBX 8 12 1 -3
BITMAP
3A
46
42
82
82
84
84
8C
74
04
08
08
ENDCHAR
STARTCHAR r
ENCODING 114
SWIDTH 313 0
DWIDTH 5 0
BBX 5 9 1 0
BITMAP
58
60
40
40
40
40
80
80
80
ENDCHAR
STARTCHAR s
ENCODING 115
SWIDTH 500 0
DWIDTH 8 0
BBX 6 9 1 0
BITMAP
38
44
40
40
30
08
08
88
70
ENDCHAR
STARTCHAR t
ENCODING 116
SWIDTH 250 0
DWIDTH 4 0
BBX 4 11 1 0
BITMAP
20
20
F0
40
40
40
40
40
80
80
60
ENDCHAR
STARTCHAR u
ENCODING 117
SWIDTH 563 0
DWIDTH 9 0
BBX 8 9 1 0
BITMAP
42
42
42
42
42
84
84
8C
74
ENDCHAR
STARTCHAR v
ENCODING 118
SWIDTH 500 0
DWIDTH 8 0
BBX 8 9 1 0
BITMAP
81
82
82
44
48
48
50
20
20
ENDCHAR
STARTCHAR w
ENCODING 119
SWIDTH 563 0
DWIDTH 9 0
BBX 9 9 1 0
BITMAP
8900
8900
9900
AA00
AA00
AA00
CC00
CC00
8800
ENDCHAR
STARTCHAR x
ENCODING 120
SWIDTH 500 0
DWIDTH 8 0
BBX 8 9 0 0
BITMAP
21
22
14
14
08
14
24
42
82
ENDCHAR
STARTCHAR y
ENCODING 121
SWIDTH 500 0
DWIDTH 8 0
BBX 10 12 -1 -3
BITMAP
2040
2080
2080
1100
1200
1200
1400
0800
0800
1000
2000
C000
ENDCHAR
STARTCHAR z
ENCODING 122
SWIDTH 438 0
DWIDTH 7 0
BBX 7 9 0 0
BITMAP
7E
02
04
08
10
20
40
80
FC
ENDCHAR
STARTCHAR braceleft
ENCODING 123
SWIDTH 313 0
DWIDTH 5 0
BBX 6 15 0 -3
BITMAP
0C
10
10
10
20
20
20
C0
20
20
20
40
40
40
30
ENDCHAR
STARTCHAR bar
ENCODING 124
SWIDTH 250 0
DWIDTH 4 0
BBX 1 16 2 -4
BITMAP
80
80
80
80
80
80
80
80
80
80
80
80
80
80
80
80
ENDCHAR
STARTCHAR braceright
ENCODING 125
SWIDTH 313 0
DWIDTH 5 0
BBX 6 15 -1 -3
BITMAP
30
08
08
08
10
10
10
0C
10
10
10
20
20
20
C0
ENDCHAR
STARTCHAR asciitilde
ENCODING 126
SWIDTH 563 0
DWIDTH 9 0
BBX 7 3 1 4
BITMAP
60
92
0C
ENDCHAR
STARTCHAR space
ENCODING 160
SWIDTH 250 0
DWIDTH 4 0
BBX 0 0 0 0
BITMAP
ENDCHAR
STARTCHAR exclamdown
ENCODING 161
SWIDTH 313 0
DWIDTH 5 0
BBX 3 12 1 -3
BITMAP
20
20
00
40
40
40
40
40
40
80
80
80
ENDCHAR
STARTCHAR cent
ENCODING 162
SWIDTH 563 0
DWIDTH 9 0
BBX 9 11 1 -1
BITMAP
1F00
1880
3000
5000
5000
D000
D300
FA00
7E00
1000
1000
ENDCHAR
STARTCHAR sterling
ENCODING 163
SWIDTH 563 0
DWIDTH 9 0
BBX 8 11 1 0
BITMAP
0E
11
10
20
20
7C
20
20
42
44
F8
ENDCHAR
STARTCHAR currency
ENCODING 164
SWIDTH 625 0
DWIDTH 10 0
BBX 7 7 2 2
BITMAP
BA
44
82
82
82
44
BA
ENDCHAR
STARTCHAR yen
ENCODING 165
SWIDTH 563 0
DWIDTH 9 0
BBX 10 11 0 0
BITMAP
2040
1080
1100
0A00
0400
3F00
0800
7E00
1000
1000
1000
ENDCHAR
STARTCHAR brokenbar
ENCODING 166
SWIDTH 250 0
DWIDTH 4 0
BBX 1 16 2 -4
BITMAP
80
80
80
80
80
80
00
00
00
00
80
80
80
80
80
80
ENDCHAR
STARTCHAR section
ENCODING 167
SWIDTH 563 0
DWIDTH 9 0
BBX 9 13 0 -1
BITMAP
1F00
2080
2000
2000
1E00
2100
4100
4200
3C00
0200
0200
8200
7C00
ENDCHAR
STARTCHAR dieresis
ENCODING 168
SWIDTH 313 0
DWIDTH 5 0
BBX 4 1 1 11
BITMAP
90
ENDCHAR
STARTCHAR copyright
ENCODING 169
SWIDTH 750 0
DWIDTH 12 0
BBX 10 11 1 0
BITMAP
1E00
6180
4C80
9240
9040
9040
9240
8C40
4080
6180
1E00
ENDCHAR
STARTCHAR ordfeminine
ENCODING 170
SWIDTH 375 0
DWIDTH 6 0
BBX 5 6 1 5
BITMAP
78
48
78
88
98
E8
ENDCHAR
STARTCHAR guillemotleft
ENCODING 171
SWIDTH 563 0
DWIDTH 9 0
BBX 7 7 2 1
BITMAP
12
24
48
90
90
48
24
ENDCHAR
STARTCHAR logicalnot
ENCODING 172
SWIDTH 563 0
DWIDTH 9 0
BBX 7 4 1 2
BITMAP
FE
02
02
02
ENDCHAR
STARTCHAR hyphen
ENCODING 173
SWIDTH 313 0
DWIDTH 5 0
BBX 4 1 1 4
BITMAP
F0
ENDCHAR
STARTCHAR registered
ENCODING 174
SWIDTH 750 0
DWIDTH 12 0
BBX 10 11 1 0
BITMAP
1E00
6180
5C80
9240
9240
9C40
9440
9240
4080
6180
1E00
ENDCHAR
STARTCHAR macron
ENCODING 175
SWIDTH 563 0
DWIDTH 9 0
BBX 9 1 0 12
BITMAP
FF80
ENDCHAR
STARTCHAR degree
ENCODING 176
SWIDTH 375 0
DWIDTH 6 0
BBX 4 4 2 7
BITMAP
60
90
90
60
ENDCHAR
STARTCHAR plusminus
ENCODING 177
SWIDTH 563 0
DWIDTH 9 0
BBX 7 9 1 0
BITMAP
10
10
10
FE
10
10
10
00
FE
ENDCHAR
STARTCHAR uni00B2
ENCODING 178
SWIDTH 313 0
DWIDTH 5 0
BBX 5 7 0 4
BITMAP
30
48
08
10
60
80
F0
ENDCHAR
STARTCHAR uni00B3
ENCODING 179
SWIDTH 313 0
DWIDTH 5 0
BBX 5 7 0 4
BITMAP
30
48
08
30
10
90
60
ENDCHAR
STARTCHAR acute
ENCODING 180
SWIDTH 313 0
DWIDTH 5 0
BBX 4 3 1 10
BITMAP
20
40
80
ENDCHAR
STARTCHAR u00B5
ENCODING 181
SWIDTH 500 0
DWIDTH 8 0
BBX 7 12 0 -3
BITMAP
22
22
22
22
22
44
44
4C
72
40
80
80
ENDCHAR
STARTCHAR paragraph
ENCODING 182
SWIDTH 563 0
DWIDTH 9 0
BBX 7 13 1 -2
BITMAP
7E
F4
F4
F4
F4
74
14
14
14
14
14
14
14
ENDCHAR
STARTCHAR periodcentered
ENCODING 183
SWIDTH 250 0
DWIDTH 4 0
BBX 1 2 1 4
BITMAP
80
80
ENDCHAR
STARTCHAR cedilla
ENCODING 184
SWIDTH 313 0
DWIDTH 5 0
BBX 3 3 1 -3
BITMAP
40
20
C0
ENDCHAR
STARTCHAR uni00B9
ENCODING 185
SWIDTH 313 0
DWIDTH 5 0
BBX 5 7 0 4
BITMAP
30
50
10
10
20
20
F8
ENDCHAR
STARTCHAR ordmasculine
ENCODING 186
SWIDTH 375 0
DWIDTH 6 0
BBX 5 6 1 5
BITMAP
30
48
88
88
90
60
ENDCHAR
STARTCHAR guillemotright
ENCODING 187
SWIDTH 563 0
DWIDTH 9 0
BBX 7 7 0 1
BITMAP
48
24
12
12
24
48
90
ENDCHAR
STARTCHAR onequarter
ENCODING 188
SWIDTH 813 0
DWIDTH 13 0
BBX 12 11 0 0
BITMAP
3010
5020
1040
1040
2090
2130
FA50
02A0
05F0
0820
1020
ENDCHAR
STARTCHAR onehalf
ENCODING 189
SWIDTH 813 0
DWIDTH 13 0
BBX 12 11 0 0
BITMAP
3020
5040
1080
1080
2160
2290
FC10
0420
08C0
1100
21E0
ENDCHAR
STARTCHAR threequarters
ENCODING 190
SWIDTH 813 0
DWIDTH 13 0
BBX 11 11 1 0
BITMAP
3020
4840
0880
3080
1120
9260
64A0
0540
0BE0
1040
2040
ENDCHAR
STARTCHAR questiondown
ENCODING 191
SWIDTH 625 0
DWIDTH 10 0
BBX 7 12 2 -3
BITMAP
04
04
00
08
10
20
40
80
80
82
84
78
ENDCHAR
STARTCHAR Agrave
ENCODING 192
SWIDTH 688 0
DWIDTH 11 0
BBX 11 14 -1 0
BITMAP
0300
0080
0000
0100
0280
0280
0480
0880
0840
1040
3FC0
2040
4020
8020
ENDCHAR
STARTCHAR Aacute
ENCODING 193
SWIDTH 688 0
DWIDTH 11 0
BBX 11 14 -1 0
BITMAP
00C0
0100
0000
0100
0280
0280
0480
0880
0840
1040
3FC0
2040
4020
8020
ENDCHAR
STARTCHAR Acircumflex
ENCODING 194
SWIDTH 688 0
DWIDTH 11 0
BBX 11 14 -1 0
BITMAP
0180
0240
0000
0100
0280
0280
0480
0880
0840
1040
3FC0
2040
4020
8020
ENDCHAR
STARTCHAR Atilde
ENCODING 195
SWIDTH 688 0
DWIDTH 11 0
BBX 11 14 -1 0
BITMAP
0320
04C0
0000
0100
0280
0280
0480
0880
0840
1040
3FC0
2040
4020
8020
ENDCHAR
STARTCHAR Adieresis
ENCODING 196
SWIDTH 688 0
DWIDTH 11 0
BBX 11 13 -1 0
BITMAP
0240
0000
0100
0280
0280
0480
0880
0840
1040
3FC0
2040
4020
8020
ENDCHAR
STARTCHAR Aring
ENCODING 197
SWIDTH 688 0
DWIDTH 11 0
BBX 11 14 -1 0
BITMAP
0180
0240
0240
0180
0280
0280
0480
0880
0840
1040
3FC0
2040
4020
8020
ENDCHAR
STARTCHAR AE
ENCODING 198
SWIDTH 1000 0
DWIDTH 16 0
BBX 17 11 -1 0
BITMAP
01FF80
024000
024000
048000
088000
08FE00
108000
3F8000
210000
410000
81FE00
ENDCHAR
STARTCHAR Ccedilla
ENCODING 199
SWIDTH 750 0
DWIDTH 12 0
BBX 10 14 1 -3
BITMAP
0F00
3080
4040
4000
8000
8000
8000
8000
8080
4300
3C00
0800
0400
1800
ENDCHAR
STARTCHAR Egrave
ENCODING 200
SWIDTH 688 0
DWIDTH 11 0
BBX 10 14 1 0
BITMAP
0600
0100
0000
3FC0
2000
2000
4000
4000
7F00
4000
4000
8000
8000
FF00
ENDCHAR
STARTCHAR Eacute
ENCODING 201
SWIDTH 688 0
DWIDTH 11 0
BBX 10 14 1 0
BITMAP
0180
0200
0000
3FC0
2000
2000
4000
4000
7F00
4000
4000
8000
8000
FF00
ENDCHAR
STARTCHAR Ecircumflex
ENCODING 202
SWIDTH 688 0
DWIDTH 11 0
BBX 10 14 1 0
BITMAP
0600
0900
0000
3FC0
2000
2000
4000
4000
7F00
4000
4000
8000
8000
FF00
ENDCHAR
STARTCHAR Edieresis
ENCODING 203
SWIDTH 688 0
DWIDTH 11 0
BBX 10 13 1 0
BITMAP
0900
0000
3FC0
2000
2000
4000
4000
7F00
4000
4000
8000
8000
FF00
ENDCHAR
STARTCHAR Igrave
ENCODING 204
SWIDTH 250 0
DWIDTH 4 0
BBX 4 14 1 0
BITMAP
60
10
00
20
20
20
40
40
40
40
40
80
80
80
ENDCHAR
STARTCHAR Iacute
ENCODING 205
SWIDTH 250 0
DWIDTH 4 0
BBX 6 14 1 0
BITMAP
0C
10
00
20
20
20
40
40
40
40
40
80
80
80
ENDCHAR
STARTCHAR Icircumflex
ENCODING 206
SWIDTH 250 0
DWIDTH 4 0
BBX 5 14 1 0
BITMAP
30
48
00
20
20
20
40
40
40
40
40
80
80
80
ENDCHAR
STARTCHAR Idieresis
ENCODING 207
SWIDTH 250 0
DWIDTH 4 0
BBX 5 13 1 0
BITMAP
48
00
20
20
20
40
40
40
40
40
80
80
80
ENDCHAR
STARTCHAR Eth
ENCODING 208
SWIDTH 750 0
DWIDTH 12 0
BBX 10 11 1 0
BITMAP
3F00
2080
2040
4040
4040
FC40
4040
4080
8080
8300
FC00
ENDCHAR
STARTCHAR Ntilde
ENCODING 209
SWIDTH 750 0
DWIDTH 12 0
BBX 10 14 1 0
BITMAP
0640
0980
0000
2040
2040
3040
5080
4880
4880
4480
4480
8300
8100
8100
ENDCHAR
STARTCHAR Ograve
ENCODING 210
SWIDTH 750 0
DWIDTH 12 0
BBX 10 14 1 0
BITMAP
0C00
0200
0000
0F00
3080
4040
4040
8040
8040
8040
8080
8080
4300
3C00
ENDCHAR
STARTCHAR Oacute
ENCODING 211
SWIDTH 750 0
DWIDTH 12 0
BBX 10 14 1 0
BITMAP
0180
0200
0000
0F00
3080
4040
4040
8040
8040
8040
8080
8080
4300
3C00
ENDCHAR
STARTCHAR Ocircumflex
ENCODING 212
SWIDTH 750 0
DWIDTH 12 0
BBX 10 14 1 0
BITMAP
0600
0900
0000
0F00
3080
4040
4040
8040
8040
8040
8080
8080
4300
3C00
ENDCHAR
STARTCHAR Otilde
ENCODING 213
SWIDTH 750 0
DWIDTH 12 0
BBX 10 14 1 0
BITMAP
0640
0980
0000
0F00
3080
4040
4040
8040
8040
8040
8080
8080
4300
3C00
ENDCHAR
STARTCHAR Odieresis
ENCODING 214
SWIDTH 750 0
DWIDTH 12 0
BBX 10 13 1 0
BITMAP
0900
0000
0F00
3080
4040
4040
8040
8040
8040
8080
8080
4300
3C00
ENDCHAR
STARTCHAR multiply
ENCODING 215
SWIDTH 563 0
DWIDTH 9 0
BBX 7 7 1 2
BITMAP
82
44
28
10
28
44
82
ENDCHAR
STARTCHAR Oslash
ENCODING 216
SWIDTH 750 0
DWIDTH 12 0
BBX 12 11 0 0
BITMAP
07A0
1840
20A0
2120
4220
4220
4420
4840
5040
2180
5E00
ENDCHAR
STARTCHAR Ugrave
ENCODING 217
SWIDTH 750 0
DWIDTH 12 0
BBX 9 14 2 0
BITMAP
0C00
0200
0000
4080
4080
4080
8100
8100
8100
8100
8100
8200
8400
7800
ENDCHAR
STARTCHAR Uacute
ENCODING 218
SWIDTH 750 0
DWIDTH 12 0
BBX 9 14 2 0
BITMAP
0300
0400
0000
4080
4080
4080
8100
8100
8100
8100
8100
8200
8400
7800
ENDCHAR
STARTCHAR Ucircumflex
ENCODING 219
SWIDTH 750 0
DWIDTH 12 0
BBX 9 14 2 0
BITMAP
0C00
1200
0000
4080
4080
4080
8100
8100
8100
8100
8100
8200
8400
7800
ENDCHAR
STARTCHAR Udieresis
ENCODING 220
SWIDTH 750 0
DWIDTH 12 0
BBX 9 13 2 0
BITMAP
1200
0000
4080
4080
4080
8100
8100
8100
8100
8100
8200
8400
7800
ENDCHAR
STARTCHAR Yacute
ENCODING 221
SWIDTH 688 0
DWIDTH 11 0
BBX 9 14 2 0
BITMAP
0600
0800
0000
8080
4100
4200
2400
2800
1000
1000
1000
2000
2000
2000
ENDCHAR
STARTCHAR Thorn
ENCODING 222
SWIDTH 688 0
DWIDTH 11 0
BBX 9 11 1 0
BITMAP
2000
2000
3F00
4080
4080
4080
4100
7E00
8000
8000
8000
ENDCHAR
STARTCHAR germandbls
ENCODING 223
SWIDTH 625 0
DWIDTH 10 0
BBX 8 12 1 0
BITMAP
1E
21
21
41
42
44
44
42
41
81
91
8E
ENDCHAR
STARTCHAR agrave
ENCODING 224
SWIDTH 563 0
DWIDTH 9 0
BBX 7 13 1 0
BITMAP
10
08
04
00
3C
42
42
02
7E
84
84
8C
76
ENDCHAR
STARTCHAR aacute
ENCODING 225
SWIDTH 563 0
DWIDTH 9 0
BBX 8 13 1 0
BITMAP
02
04
08
00
3C
42
42
02
7E
84
84
8C
76
ENDCHAR
STARTCHAR acircumflex
ENCODING 226
SWIDTH 563 0
DWIDTH 9 0
BBX 7 13 1 0
BITMAP
04
0A
12
00
3C
42
42
02
7E
84
84
8C
76
ENDCHAR
STARTCHAR atilde
ENCODING 227
SWIDTH 563 0
DWIDTH 9 0
BBX 7 13 1 0
BITMAP
12
2A
24
00
3C
42
42
02
7E
84
84
8C
76
ENDCHAR
STARTCHAR adieresis
ENCODING 228
SWIDTH 563 0
DWIDTH 9 0
BBX 7 11 1 0
BITMAP
12
00
3C
42
42
02
7E
84
84
8C
76
ENDCHAR
STARTCHAR aring
ENCODING 229
SWIDTH 563 0
DWIDTH 9 0
BBX 7 14 1 0
BITMAP
0C
12
12
0C
00
3C
42
42
02
7E
84
84
8C
76
ENDCHAR
STARTCHAR ae
ENCODING 230
SWIDTH 875 0
DWIDTH 14 0
BBX 12 9 1 0
BITMAP
39E0
4610
4410
0410
7FF0
8400
8400
8C20
73C0
ENDCHAR
STARTCHAR ccedilla
ENCODING 231
SWIDTH 500 0
DWIDTH 8 0
BBX 6 12 1 -3
BITMAP
38
44
44
80
80
80
88
88
70
20
10
60
ENDCHAR
STARTCHAR egrave
ENCODING 232
SWIDTH 563 0
DWIDTH 9 0
BBX 7 13 1 0
BITMAP
10
08
04
00
3C
42
42
82
FE
80
80
84
78
ENDCHAR
STARTCHAR eacute
ENCODING 233
SWIDTH 563 0
DWIDTH 9 0
BBX 8 13 1 0
BITMAP
02
04
08
00
3C
42
42
82
FE
80
80
84
78
ENDCHAR
STARTCHAR ecircumflex
ENCODING 234
SWIDTH 563 0
DWIDTH 9 0
BBX 7 13 1 0
BITMAP
04
0A
12
00
3C
42
42
82
FE
80
80
84
78
ENDCHAR
STARTCHAR edieresis
ENCODING 235
SWIDTH 563 0
DWIDTH 9 0
BBX 7 11 1 0
BITMAP
24
00
3C
42
42
82
FE
80
80
84
78
ENDCHAR
STARTCHAR igrave
ENCODING 236
SWIDTH 250 0
DWIDTH 4 0
BBX 3 13 1 0
BITMAP
80
40
20
00
40
40
40
40
40
40
80
80
80
ENDCHAR
STARTCHAR iacute
ENCODING 237
SWIDTH 250 0
DWIDTH 4 0
BBX 5 13 1 0
BITMAP
10
20
40
00
40
40
40
40
40
40
80
80
80
ENDCHAR
STARTCHAR icircumflex
ENCODING 238
SWIDTH 250 0
DWIDTH 4 0
BBX 4 13 1 0
BITMAP
20
50
90
00
40
40
40
40
40
40
80
80
80
ENDCHAR
STARTCHAR idieresis
ENCODING 239
SWIDTH 250 0
DWIDTH 4 0
BBX 5 11 1 0
BITMAP
48
00
40
40
40
40
40
40
80
80
80
ENDCHAR
STARTCHAR eth
ENCODING 240
SWIDTH 563 0
DWIDTH 9 0
BBX 7 12 1 0
BITMAP
12
0C
14
02
3E
42
42
82
82
84
84
78
ENDCHAR
STARTCHAR ntilde
ENCODING 241
SWIDTH 563 0
DWIDTH 9 0
BBX 7 13 1 0
BITMAP
12
2A
24
00
5C
62
42
42
42
42
84
84
84
ENDCHAR
STARTCHAR ograve
ENCODING 242
SWIDTH 563 0
DWIDTH 9 0
BBX 7 13 1 0
BITMAP
10
08
04
00
3C
42
42
82
82
82
84
84
78
ENDCHAR
STARTCHAR oacute
ENCODING 243
SWIDTH 563 0
DWIDTH 9 0
BBX 7 13 1 0
BITMAP
04
08
10
00
3C
42
42
82
82
82
84
84
78
ENDCHAR
STARTCHAR ocircumflex
ENCODING 244
SWIDTH 563 0
DWIDTH 9 0
BBX 7 13 1 0
BITMAP
04
0A
12
00
3C
42
42
82
82
82
84
84
78
ENDCHAR
STARTCHAR otilde
ENCODING 245
SWIDTH 563 0
DWIDTH 9 0
BBX 7 13 1 0
BITMAP
12
2A
24
00
3C
42
42
82
82
82
84
84
78
ENDCHAR
STARTCHAR odieresis
ENCODING 246
SWIDTH 563 0
DWIDTH 9 0
BBX 7 11 1 0
BITMAP
24
00
3C
42
42
82
82
82
84
84
78
ENDCHAR
STARTCHAR divide
ENCODING 247
SWIDTH 563 0
DWIDTH 9 0
BBX 7 7 1 2
BITMAP
10
00
00
FE
00
00
10
ENDCHAR
STARTCHAR oslash
ENCODING 248
SWIDTH 625 0
DWIDTH 10 0
BBX 10 9 0 0
BITMAP
0E80
3100
2280
4480
4880
4880
5100
2300
5C00
ENDCHAR
STARTCHAR ugrave
ENCODING 249
SWIDTH 563 0
DWIDTH 9 0
BBX 8 13 1 0
BITMAP
10
08
04
00
42
42
42
42
42
84
84
8C
74
ENDCHAR
STARTCHAR uacute
ENCODING 250
SWIDTH 563 0
DWIDTH 9 0
BBX 8 13 1 0
BITMAP
02
04
08
00
42
42
42
42
42
84
84
8C
74
ENDCHAR
STARTCHAR ucircumflex
ENCODING 251
SWIDTH 563 0
DWIDTH 9 0
BBX 8 13 1 0
BITMAP
04
0A
12
00
42
42
42
42
42
84
84
8C
74
ENDCHAR
STARTCHAR udieresis
ENCODING 252
SWIDTH 563 0
DWIDTH 9 0
BBX 8 11 1 0
BITMAP
12
00
42
42
42
42
42
84
84
8C
74
ENDCHAR
STARTCHAR yacute
ENCODING 253
SWIDTH 500 0
DWIDTH 8 0
BBX 10 16 -1 -3
BITMAP
0100
0200
0400
0000
2040
2080
2080
1100
1200
1200
1400
0800
0800
1000
2000
C000
ENDCHAR
STARTCHAR thorn
ENCODING 254
SWIDTH 563 0
DWIDTH 9 0
BBX 8 15 0 -3
BITMAP
10
10
10
2E
31
21
21
21
41
42
62
5C
40
80
80
ENDCHAR
STARTCHAR ydieresis
ENCODING 255
SWIDTH 500 0
DWIDTH 8 0
BBX 10 14 -1 -3
BITMAP
0900
0000
2040
2080
2080
1100
1200
1200
1400
0800
0800
1000
2000
C000
ENDCHAR
STARTCHAR Amacron
ENCODING 256
SWIDTH 688 0
DWIDTH 11 0
BBX 11 13 -1 0
BITMAP
03E0
0000
0100
0280
0280
0480
0880
0840
1040
3FC0
2040
4020
8020
ENDCHAR
STARTCHAR amacron
ENCODING 257
SWIDTH 563 0
DWIDTH 9 0
BBX 7 11 1 0
BITMAP
3E
00
3C
42
42
02
7E
84
84
8C
76
ENDCHAR
STARTCHAR Abreve
ENCODING 258
SWIDTH 688 0
DWIDTH 11 0
BBX 11 14 -1 0
BITMAP
0420
03C0
0000
0100
0280
0280
0480
0880
0840
1040
3FC0
2040
4020
8020
ENDCHAR
STARTCHAR abreve
ENCODING 259
SWIDTH 563 0
DWIDTH 9 0
BBX 8 13 1 0
BITMAP
11
11
0E
00
3C
42
42
02
7E
84
84
8C
76
ENDCHAR
STARTCHAR Aogonek
ENCODING 260
SWIDTH 688 0
DWIDTH 11 0
BBX 11 14 -1 -3
BITMAP
0100
0280
0280
0480
0880
0840
1040
3FC0
2040
4020
8020
0040
0080
0060
ENDCHAR
STARTCHAR aogonek
ENCODING 261
SWIDTH 563 0
DWIDTH 9 0
BBX 7 12 1 -3
BITMAP
3C
42
42
02
7E
84
84
8C
76
08
10
0C
ENDCHAR
STARTCHAR Cacute
ENCODING 262
SWIDTH 750 0
DWIDTH 12 0
BBX 10 14 1 0
BITMAP
0180
0200
0000
0F00
3080
4040
4000
8000
8000
8000
8000
8080
4300
3C00
ENDCHAR
STARTCHAR cacute
ENCODING 263
SWIDTH 500 0
DWIDTH 8 0
BBX 7 13 1 0
BITMAP
04
08
10
00
38
44
44
80
80
80
88
88
70
ENDCHAR
STARTCHAR Ccircumflex
ENCODING 264
SWIDTH 750 0
DWIDTH 12 0
BBX 10 14 1 0
BITMAP
0600
0900
0000
0F00
3080
4040
4000
8000
8000
8000
8000
8080
4300
3C00
ENDCHAR
STARTCHAR ccircumflex
ENCODING 265
SWIDTH 500 0
DWIDTH 8 0
BBX 6 13 1 0
BITMAP
08
14
24
00
38
44
44
80
80
80
88
88
70
ENDCHAR
STARTCHAR Cdotaccent
ENCODING 266
SWIDTH 750 0
DWIDTH 12 0
BBX 10 13 1 0
BITMAP
0200
0000
0F00
3080
4040
4000
8000
8000
8000
8000
8080
4300
3C00
ENDCHAR
STARTCHAR cdotaccent
ENCODING 267
SWIDTH 500 0
DWIDTH 8 0
BBX 6 12 1 0
BITMAP
08
00
00
38
44
44
80
80
80
88
88
70
ENDCHAR
STARTCHAR Ccaron
ENCODING 268
SWIDTH 750 0
DWIDTH 12 0
BBX 10 14 1 0
BITMAP
0480
0300
0000
0F00
3080
4040
4000
8000
8000
8000
8000
8080
4300
3C00
ENDCHAR
STARTCHAR ccaron
ENCODING 269
SWIDTH 500 0
DWIDTH 8 0
BBX 6 13 1 0
BITMAP
24
28
10
00
38
44
44
80
80
80
88
88
70
ENDCHAR
STARTCHAR Dcaron
ENCODING 270
SWIDTH 750 0
DWIDTH 12 0
BBX 10 14 1 0
BITMAP
0900
0600
0000
3F00
2080
2040
4040
4040
4040
4040
4080
8080
8300
FC00
ENDCHAR
STARTCHAR dcaron
ENCODING 271
SWIDTH 625 0
DWIDTH 10 0
BBX 10 12 1 0
BITMAP
0140
0140
0180
3A00
4600
4200
8200
8200
8400
8400
8C00
7400
ENDCHAR
STARTCHAR Dcroat
ENCODING 272
SWIDTH 750 0
DWIDTH 12 0
BBX 10 11 1 0
BITMAP
3F00
2080
2040
4040
4040
FC40
4040
4080
8080
8300
FC00
ENDCHAR
STARTCHAR dcroat
ENCODING 273
SWIDTH 563 0
DWIDTH 9 0
BBX 9 12 1 0
BITMAP
0100
0F80
0100
3A00
4600
4200
8200
8200
8400
8400
8C00
7400
ENDCHAR
STARTCHAR Emacron
ENCODING 274
SWIDTH 688 0
DWIDTH 11 0
BBX 10 13 1 0
BITMAP
0F80
0000
3FC0
2000
2000
4000
4000
7F00
4000
4000
8000
8000
FF00
ENDCHAR
STARTCHAR emacron
ENCODING 275
SWIDTH 563 0
DWIDTH 9 0
BBX 7 11 1 0
BITMAP
3E
00
3C
42
42
82
FE
80
80
84
78
ENDCHAR
STARTCHAR Ebreve
ENCODING 276
SWIDTH 688 0
DWIDTH 11 0
BBX 10 14 1 0
BITMAP
0840
0780
0000
3FC0
2000
2000
4000
4000
7F00
4000
4000
8000
8000
FF00
ENDCHAR
STARTCHAR ebreve
ENCODING 277
SWIDTH 563 0
DWIDTH 9 0
BBX 8 13 1 0
BITMAP
11
11
0E
00
3C
42
42
82
FE
80
80
84
78
ENDCHAR
STARTCHAR Edotaccent
ENCODING 278
SWIDTH 688 0
DWIDTH 11 0
BBX 10 13 1 0
BITMAP
0200
0000
3FC0
2000
2000
4000
4000
7F00
4000
4000
8000
8000
FF00
ENDCHAR
STARTCHAR edotaccent
ENCODING 279
SWIDTH 563 0
DWIDTH 9 0
BBX 7 12 1 0
BITMAP
08
00
00
3C
42
42
82
FE
80
80
84
78
ENDCHAR
STARTCHAR Eogonek
ENCODING 280
SWIDTH 688 0
DWIDTH 11 0
BBX 10 14 1 -3
BITMAP
3FC0
2000
2000
4000
4000
7F00
4000
4000
8000
8000
FF00
0400
0800
0600
ENDCHAR
STARTCHAR eogonek
ENCODING 281
SWIDTH 563 0
DWIDTH 9 0
BBX 7 12 1 -3
BITMAP
3C
42
42
82
FE
80
80
84
78
20
40
30
ENDCHAR
STARTCHAR Ecaron
ENCODING 282
SWIDTH 688 0
DWIDTH 11 0
BBX 10 14 1 0
BITMAP
0480
0300
0000
3FC0
2000
2000
4000
4000
7F00
4000
4000
8000
8000
FF00
ENDCHAR
STARTCHAR ecaron
ENCODING 283
SWIDTH 563 0
DWIDTH 9 0
BBX 7 13 1 0
BITMAP
12
14
08
00
3C
42
42
82
FE
80
80
84
78
ENDCHAR
STARTCHAR Gcircumflex
ENCODING 284
SWIDTH 750 0
DWIDTH 12 0
BBX 10 14 1 0
BITMAP
0600
0900
0000
0F00
3080
4040
4000
8000
87C0
8040
8040
8080
4300
3C00
ENDCHAR
STARTCHAR gcircumflex
ENCODING 285
SWIDTH 563 0
DWIDTH 9 0
BBX 9 16 0 -3
BITMAP
0400
0A00
1200
0000
1D00
2300
2100
4100
4100
4200
4200
4600
3A00
0200
8400
7800
ENDCHAR
STARTCHAR Gbreve
ENCODING 286
SWIDTH 750 0
DWIDTH 12 0
BBX 10 14 1 0
BITMAP
0840
0780
0000
0F00
3080
4040
4000
8000
87C0
8040
8040
8080
4300
3C00
ENDCHAR
STARTCHAR gbreve
ENCODING 287
SWIDTH 563 0
DWIDTH 9 0
BBX 9 16 0 -3
BITMAP
1100
1100
0E00
0000
1D00
2300
2100
4100
4100
4200
4200
4600
3A00
0200
8400
7800
ENDCHAR
STARTCHAR Gdotaccent
ENCODING 288
SWIDTH 750 0
DWIDTH 12 0
BBX 10 13 1 0
BITMAP
0200
0000
0F00
3080
4040
4000
8000
87C0
8040
8040
8080
4300
3C00
ENDCHAR
STARTCHAR gdotaccent
ENCODING 289
SWIDTH 563 0
DWIDTH 9 0
BBX 9 15 0 -3
BITMAP
0400
0000
0000
1D00
2300
2100
4100
4100
4200
4200
4600
3A00
0200
8400
7800
ENDCHAR
STARTCHAR Gcommaaccent
ENCODING 290
SWIDTH 750 0
DWIDTH 12 0
BBX 10 15 1 -4
BITMAP
0F00
3080
4040
4000
8000
87C0
8040
8040
8080
4300
3C00
0000
0400
0400
0800
ENDCHAR
STARTCHAR gcommaaccent
ENCODING 291
SWIDTH 563 0
DWIDTH 9 0
BBX 9 16 0 -3
BITMAP
0200
0400
0400
0000
1D00
2300
2100
4100
4100
4200
4200
4600
3A00
0200
8400
7800
ENDCHAR
STARTCHAR Hcircumflex
ENCODING 292
SWIDTH 750 0
DWIDTH 12 0
BBX 10 14 1 0
BITMAP
0600
0900
0000
2040
2040
2040
4080
4080
7F80
4080
4080
8100
8100
8100
ENDCHAR
STARTCHAR hcircumflex
ENCODING 293
SWIDTH 563 0
DWIDTH 9 0
BBX 8 15 1 0
BITMAP
06
09
00
20
20
20
5C
62
42
42
42
42
84
84
84
ENDCHAR
STARTCHAR Hbar
ENCODING 294
SWIDTH 750 0
DWIDTH 12 0
BBX 11 11 1 0
BITMAP
2040
2040
FFE0
4080
4080
7F80
4080
4080
8100
8100
8100
ENDCHAR
STARTCHAR hbar
ENCODING 295
SWIDTH 563 0
DWIDTH 9 0
BBX 7 12 1 0
BITMAP
20
78
20
5C
62
42
42
42
42
84
84
84
ENDCHAR
STARTCHAR Itilde
ENCODING 296
SWIDTH 250 0
DWIDTH 4 0
BBX 6 14 1 0
BITMAP
64
98
00
20
20
20
40
40
40
40
40
80
80
80
ENDCHAR
STARTCHAR itilde
ENCODING 297
SWIDTH 250 0
DWIDTH 4 0
BBX 5 13 1 0
BITMAP
48
A8
90
00
40
40
40
40
40
40
80
80
80
ENDCHAR
STARTCHAR Imacron
ENCODING 298
SWIDTH 250 0
DWIDTH 4 0
BBX 6 13 1 0
BITMAP
7C
00
20
20
20
40
40
40
40
40
80
80
80
ENDCHAR
STARTCHAR imacron
ENCODING 299
SWIDTH 250 0
DWIDTH 4 0
BBX 5 11 1 0
BITMAP
F8
00
40
40
40
40
40
40
80
80
80
ENDCHAR
STARTCHAR Ibreve
ENCODING 300
SWIDTH 250 0
DWIDTH 4 0
BBX 6 14 1 0
BITMAP
84
78
00
20
20
20
40
40
40
40
40
80
80
80
ENDCHAR
STARTCHAR ibreve
ENCODING 301
SWIDTH 250 0
DWIDTH 4 0
BBX 5 13 1 0
BITMAP
88
88
70
00
40
40
40
40
40
40
80
80
80
ENDCHAR
STARTCHAR Iogonek
ENCODING 302
SWIDTH 250 0
DWIDTH 4 0
BBX 5 14 -1 -3
BITMAP
08
08
08
10
10
10
10
10
20
20
20
40
80
60
ENDCHAR
STARTCHAR iogonek
ENCODING 303
SWIDTH 250 0
DWIDTH 4 0
BBX 4 15 0 -3
BITMAP
10
00
00
20
20
20
20
20
20
40
40
40
40
80
60
ENDCHAR
STARTCHAR Idotaccent
ENCODING 304
SWIDTH 250 0
DWIDTH 4 0
BBX 3 13 1 0
BITMAP
20
00
20
20
20
40
40
40
40
40
80
80
80
ENDCHAR
STARTCHAR dotlessi
ENCODING 305
SWIDTH 250 0
DWIDTH 4 0
BBX 3 9 1 0
BITMAP
40
40
40
40
40
40
80
80
80
ENDCHAR
STARTCHAR IJ
ENCODING 306
SWIDTH 750 0
DWIDTH 12 0
BBX 10 11 1 0
BITMAP
23C0
2040
2040
4080
4080
4080
4080
4080
9100
9100
8E00
ENDCHAR
STARTCHAR ij
ENCODING 307
SWIDTH 438 0
DWIDTH 7 0
BBX 7 15 1 -3
BITMAP
22
00
00
44
44
44
44
44
44
88
88
88
08
08
30
ENDCHAR
STARTCHAR Jcircumflex
ENCODING 308
SWIDTH 500 0
DWIDTH 8 0
BBX 8 14 0 0
BITMAP
06
09
00
1E
02
02
04
04
04
04
04
88
88
70
ENDCHAR
STARTCHAR jcircumflex
ENCODING 309
SWIDTH 250 0
DWIDTH 4 0
BBX 6 16 -1 -3
BITMAP
08
14
24
00
10
10
10
10
10
10
20
20
20
20
20
C0
ENDCHAR
STARTCHAR Kcommaaccent
ENCODING 310
SWIDTH 688 0
DWIDTH 11 0
BBX 11 15 1 -4
BITMAP
2040
2080
2300
4400
4800
7800
4400
4200
8100
8080
8040
0000
0800
0800
1000
ENDCHAR
STARTCHAR kcommaaccent
ENCODING 311
SWIDTH 500 0
DWIDTH 8 0
BBX 7 16 1 -4
BITMAP
20
20
20
42
44
48
70
50
50
88
88
84
00
10
10
20
ENDCHAR
STARTCHAR kgreenlandic
ENCODING 312
SWIDTH 500 0
DWIDTH 8 0
BBX 7 9 1 0
BITMAP
42
44
48
70
50
50
88
88
84
ENDCHAR
STARTCHAR Lacute
ENCODING 313
SWIDTH 563 0
DWIDTH 9 0
BBX 7 14 1 0
BITMAP
0C
10
00
20
20
20
40
40
40
40
40
80
80
FE
ENDCHAR
STARTCHAR lacute
ENCODING 314
SWIDTH 250 0
DWIDTH 4 0
BBX 5 15 1 0
BITMAP
18
20
00
20
20
20
40
40
40
40
40
40
80
80
80
ENDCHAR
STARTCHAR Lcommaaccent
ENCODING 315
SWIDTH 563 0
DWIDTH 9 0
BBX 7 15 1 -4
BITMAP
20
20
20
40
40
40
40
40
80
80
FE
00
10
10
20
ENDCHAR
STARTCHAR lcommaaccent
ENCODING 316
SWIDTH 250 0
DWIDTH 4 0
BBX 4 16 0 -4
BITMAP
10
10
10
20
20
20
20
20
20
40
40
40
00
40
40
80
ENDCHAR
STARTCHAR Lcaron
ENCODING 317
SWIDTH 563 0
DWIDTH 9 0
BBX 7 11 1 0
BITMAP
22
22
24
40
40
40
40
40
80
80
FE
ENDCHAR
STARTCHAR lcaron
ENCODING 318
SWIDTH 313 0
DWIDTH 5 0
BBX 5 12 1 0
BITMAP
28
28
30
40
40
40
40
40
40
80
80
80
ENDCHAR
STARTCHAR Ldot
ENCODING 319
SWIDTH 563 0
DWIDTH 9 0
BBX 7 11 1 0
BITMAP
20
20
20
40
44
40
40
40
80
80
FE
ENDCHAR
STARTCHAR ldot
ENCODING 320
SWIDTH 375 0
DWIDTH 6 0
BBX 5 12 1 0
BITMAP
20
20
20
40
40
48
40
40
40
80
80
80
ENDCHAR
STARTCHAR Lslash
ENCODING 321
SWIDTH 563 0
DWIDTH 9 0
BBX 7 11 1 0
BITMAP
20
20
20
48
50
60
C0
40
80
80
FE
ENDCHAR
STARTCHAR lslash
ENCODING 322
SWIDTH 250 0
DWIDTH 4 0
BBX 3 12 1 0
BITMAP
20
20
20
40
40
60
40
C0
40
80
80
80
ENDCHAR
STARTCHAR Nacute
ENCODING 323
SWIDTH 750 0
DWIDTH 12 0
BBX 10 14 1 0
BITMAP
0180
0200
0000
2040
2040
3040
5080
4880
4880
4480
4480
8300
8100
8100
ENDCHAR
STARTCHAR nacute
ENCODING 324
SWIDTH 563 0
DWIDTH 9 0
BBX 8 13 1 0
BITMAP
02
04
08
00
5C
62
42
42
42
42
84
84
84
ENDCHAR
STARTCHAR Ncommaaccent
ENCODING 325
SWIDTH 750 0
DWIDTH 12 0
BBX 10 15 1 -4
BITMAP
2040
2040
3040
5080
4880
4880
4480
4480
8300
8100
8100
0000
0800
0800
1000
ENDCHAR
STARTCHAR ncommaaccent
ENCODING 326
SWIDTH 563 0
DWIDTH 9 0
BBX 7 13 1 -4
BITMAP
5C
62
42
42
42
42
84
84
84
00
10
10
20
ENDCHAR
STARTCHAR Ncaron
ENCODING 327
SWIDTH 750 0
DWIDTH 12 0
BBX 10 14 1 0
BITMAP
0480
0300
0000
2040
2040
3040
5080
4880
4880
4480
4480
8300
8100
8100
ENDCHAR
STARTCHAR ncaron
ENCODING 328
SWIDTH 563 0
DWIDTH 9 0
BBX 7 13 1 0
BITMAP
12
14
08
00
5C
62
42
42
42
42
84
84
84
ENDCHAR
STARTCHAR napostrophe
ENCODING 329
SWIDTH 625 0
DWIDTH 10 0
BBX 9 11 0 0
BITMAP
4000
4000
5700
9880
1080
1080
1080
1080
2100
2100
2100
ENDCHAR
STARTCHAR Eng
ENCODING 330
SWIDTH 750 0
DWIDTH 12 0
BBX 10 11 1 0
BITMAP
2780
3840
2040
4040
4040
4040
4040
4040
8080
8880
8700
ENDCHAR
STARTCHAR eng
ENCODING 331
SWIDTH 563 0
DWIDTH 9 0
BBX 7 12 1 -3
BITMAP
5C
62
42
42
42
42
84
84
84
04
04
18
ENDCHAR
STARTCHAR Omacron
ENCODING 332
SWIDTH 750 0
DWIDTH 12 0
BBX 10 13 1 0
BITMAP
0F80
0000
0F00
3080
4040
4040
8040
8040
8040
8080
8080
4300
3C00
ENDCHAR
STARTCHAR omacron
ENCODING 333
SWIDTH 563 0
DWIDTH 9 0
BBX 7 11 1 0
BITMAP
3E
00
3C
42
42
82
82
82
84
84
78
ENDCHAR
STARTCHAR Obreve
ENCODING 334
SWIDTH 750 0
DWIDTH 12 0
BBX 10 14 1 0
BITMAP
0840
0780
0000
0F00
3080
4040
4040
8040
8040
8040
8080
8080
4300
3C00
ENDCHAR
STARTCHAR obreve
ENCODING 335
SWIDTH 563 0
DWIDTH 9 0
BBX 8 13 1 0
BITMAP
11
11
0E
00
3C
42
42
82
82
82
84
84
78
ENDCHAR
STARTCHAR Ohungarumlaut
ENCODING 336
SWIDTH 750 0
DWIDTH 12 0
BBX 10 14 1 0
BITMAP
06C0
0900
0000
0F00
3080
4040
4040
8040
8040
8040
8080
8080
4300
3C00
ENDCHAR
STARTCHAR ohungarumlaut
ENCODING 337
SWIDTH 563 0
DWIDTH 9 0
BBX 8 13 1 0
BITMAP
09
12
24
00
3C
42
42
82
82
82
84
84
78
ENDCHAR
STARTCHAR OE
ENCODING 338
SWIDTH 1000 0
DWIDTH 16 0
BBX 15 11 1 0
BITMAP
0FFE
3080
4080
4100
8100
81FC
8100
8100
8200
4200
3FFC
ENDCHAR
STARTCHAR oe
ENCODING 339
SWIDTH 938 0
DWIDTH 15 0
BBX 13 9 1 0
BITMAP
3CF0
4308
4208
8208
83F8
8200
8400
8610
79E0
ENDCHAR
STARTCHAR Racute
ENCODING 340
SWIDTH 750 0
DWIDTH 12 0
BBX 10 14 1 0
BITMAP
0300
0400
0000
3F80
2040
2040
4040
4080
7F00
4200
4200
8100
8100
8080
ENDCHAR
STARTCHAR racute
ENCODING 341
SWIDTH 313 0
DWIDTH 5 0
BBX 6 13 1 0
BITMAP
08
10
20
00
58
60
40
40
40
40
80
80
80
ENDCHAR
STARTCHAR Rcommaaccent
ENCODING 342
SWIDTH 750 0
DWIDTH 12 0
BBX 10 15 1 -4
BITMAP
3F80
2040
2040
4040
4080
7F00
4200
4200
8100
8100
8080
0000
0800
0800
1000
ENDCHAR
STARTCHAR rcommaaccent
ENCODING 343
SWIDTH 313 0
DWIDTH 5 0
BBX 6 13 0 -4
BITMAP
2C
30
20
20
20
20
40
40
40
00
40
40
80
ENDCHAR
STARTCHAR Rcaron
ENCODING 344
SWIDTH 750 0
DWIDTH 12 0
BBX 10 14 1 0
BITMAP
0900
0600
0000
3F80
2040
2040
4040
4080
7F00
4200
4200
8100
8100
8080
ENDCHAR
STARTCHAR rcaron
ENCODING 345
SWIDTH 313 0
DWIDTH 5 0
BBX 6 13 1 0
BITMAP
24
28
10
00
58
60
40
40
40
40
80
80
80
ENDCHAR
STARTCHAR Sacute
ENCODING 346
SWIDTH 688 0
DWIDTH 11 0
BBX 10 15 1 0
BITMAP
0100
0200
0400
0000
1F00
2080
4040
4000
3000
0C00
0300
0080
8080
4100
3E00
ENDCHAR
STARTCHAR sacute
ENCODING 347
SWIDTH 500 0
DWIDTH 8 0
BBX 7 13 1 0
BITMAP
04
08
10
00
38
44
40
40
30
08
08
88
70
ENDCHAR
STARTCHAR Scircumflex
ENCODING 348
SWIDTH 688 0
DWIDTH 11 0
BBX 10 15 1 0
BITMAP
0200
0500
0900
0000
1F00
2080
4040
4000
3000
0C00
0300
0080
8080
4100
3E00
ENDCHAR
STARTCHAR scircumflex
ENCODING 349
SWIDTH 500 0
DWIDTH 8 0
BBX 6 13 1 0
BITMAP
08
14
24
00
38
44
40
40
30
08
08
88
70
ENDCHAR
STARTCHAR Scedilla
ENCODING 350
SWIDTH 688 0
DWIDTH 11 0
BBX 10 14 1 -3
BITMAP
1F00
2080
4040
4000
3000
0C00
0300
0080
8080
4100
3E00
0800
0400
1800
ENDCHAR
STARTCHAR scedilla
ENCODING 351
SWIDTH 500 0
DWIDTH 8 0
BBX 6 12 1 -3
BITMAP
38
44
40
40
30
08
08
88
70
20
10
60
ENDCHAR
STARTCHAR Scaron
ENCODING 352
SWIDTH 688 0
DWIDTH 11 0
BBX 10 14 1 0
BITMAP
0900
0600
0000
1F00
2080
4040
4000
3000
0C00
0300
0080
8080
4100
3E00
ENDCHAR
STARTCHAR scaron
ENCODING 353
SWIDTH 500 0
DWIDTH 8 0
BBX 7 13 1 0
BITMAP
12
14
08
00
38
44
40
40
30
08
08
88
70
ENDCHAR
STARTCHAR Tcommaaccent
ENCODING 354
SWIDTH 625 0
DWIDTH 10 0
BBX 9 14 1 -3
BITMAP
FF80
0800
0800
1000
1000
1000
1000
1000
2000
2000
2000
1000
0800
3000
ENDCHAR
STARTCHAR tcommaaccent
ENCODING 355
SWIDTH 250 0
DWIDTH 4 0
BBX 4 14 0 -3
BITMAP
20
20
F0
40
40
40
40
40
80
80
60
40
20
C0
ENDCHAR
STARTCHAR Tcaron
ENCODING 356
SWIDTH 625 0
DWIDTH 10 0
BBX 9 14 1 0
BITMAP
1200
0C00
0000
FF80
0800
0800
1000
1000
1000
1000
1000
2000
2000
2000
ENDCHAR
STARTCHAR tcaron
ENCODING 357
SWIDTH 375 0
DWIDTH 6 0
BBX 6 12 1 0
BITMAP
04
24
28
F0
40
40
40
40
40
80
80
60
ENDCHAR
STARTCHAR Tbar
ENCODING 358
SWIDTH 625 0
DWIDTH 10 0
BBX 9 11 1 0
BITMAP
FF80
0800
0800
1000
1000
7C00
1000
1000
2000
2000
2000
ENDCHAR
STARTCHAR tbar
ENCODING 359
SWIDTH 250 0
DWIDTH 4 0
BBX 5 11 0 0
BITMAP
10
10
78
20
20
20
F0
20
40
40
30
ENDCHAR
STARTCHAR Utilde
ENCODING 360
SWIDTH 750 0
DWIDTH 12 0
BBX 9 14 2 0
BITMAP
0C80
1300
0000
4080
4080
4080
8100
8100
8100
8100
8100
8200
8400
7800
ENDCHAR
STARTCHAR utilde
ENCODING 361
SWIDTH 563 0
DWIDTH 9 0
BBX 8 13 1 0
BITMAP
12
2A
24
00
42
42
42
42
42
84
84
8C
74
ENDCHAR
STARTCHAR Umacron
ENCODING 362
SWIDTH 750 0
DWIDTH 12 0
BBX 9 13 2 0
BITMAP
1F00
0000
4080
4080
4080
8100
8100
8100
8100
8100
8200
8400
7800
ENDCHAR
STARTCHAR umacron
ENCODING 363
SWIDTH 563 0
DWIDTH 9 0
BBX 8 11 1 0
BITMAP
1F
00
42
42
42
42
42
84
84
8C
74
ENDCHAR
STARTCHAR Ubreve
ENCODING 364
SWIDTH 750 0
DWIDTH 12 0
BBX 9 14 2 0
BITMAP
1080
0F00
0000
4080
4080
4080
8100
8100
8100
8100
8100
8200
8400
7800
ENDCHAR
STARTCHAR ubreve
ENCODING 365
SWIDTH 563 0
DWIDTH 9 0
BBX 8 13 1 0
BITMAP
11
11
0E
00
42
42
42
42
42
84
84
8C
74
ENDCHAR
STARTCHAR Uring
ENCODING 366
SWIDTH 750 0
DWIDTH 12 0
BBX 9 16 2 0
BITMAP
0C00
1200
1200
0C00
0000
4080
4080
4080
8100
8100
8100
8100
8100
8200
8400
7800
ENDCHAR
STARTCHAR uring
ENCODING 367
SWIDTH 563 0
DWIDTH 9 0
BBX 8 14 1 0
BITMAP
0C
12
12
0C
00
42
42
42
42
42
84
84
8C
74
ENDCHAR
STARTCHAR Uhungarumlaut
ENCODING 368
SWIDTH 750 0
DWIDTH 12 0
BBX 9 14 2 0
BITMAP
0D80
1200
0000
4080
4080
4080
8100
8100
8100
8100
8100
8200
8400
7800
ENDCHAR
STARTCHAR uhungarumlaut
ENCODING 369
SWIDTH 563 0
DWIDTH 9 0
BBX 9 13 1 0
BITMAP
0480
0900
1200
0000
4200
4200
4200
4200
4200
8400
8400
8C00
7400
ENDCHAR
STARTCHAR Uogonek
ENCODING 370
SWIDTH 750 0
DWIDTH 12 0
BBX 9 14 2 -3
BITMAP
4080
4080
4080
8100
8100
8100
8100
8100
8200
8400
7800
1000
2000
1800
ENDCHAR
STARTCHAR uogonek
ENCODING 371
SWIDTH 563 0
DWIDTH 9 0
BBX 8 12 1 -3
BITMAP
42
42
42
42
42
84
84
8C
74
08
10
0C
ENDCHAR
STARTCHAR Wcircumflex
ENCODING 372
SWIDTH 938 0
DWIDTH 15 0
BBX 15 14 1 0
BITMAP
0180
0240
0000
8102
8104
8284
4288
4488
4490
4890
50A0
50A0
2040
2040
ENDCHAR
STARTCHAR wcircumflex
ENCODING 373
SWIDTH 563 0
DWIDTH 9 0
BBX 9 13 1 0
BITMAP
0800
1400
2400
0000
8900
8900
9900
AA00
AA00
AA00
CC00
CC00
8800
ENDCHAR
STARTCHAR Ycircumflex
ENCODING 374
SWIDTH 688 0
DWIDTH 11 0
BBX 9 14 2 0
BITMAP
0C00
1200
0000
8080
4100
4200
2400
2800
1000
1000
1000
2000
2000
2000
ENDCHAR
STARTCHAR ycircumflex
ENCODING 375
SWIDTH 500 0
DWIDTH 8 0
BBX 10 16 -1 -3
BITMAP
0200
0500
0900
0000
2040
2080
2080
1100
1200
1200
1400
0800
0800
1000
2000
C000
ENDCHAR
STARTCHAR Ydieresis
ENCODING 376
SWIDTH 688 0
DWIDTH 11 0
BBX 9 13 2 0
BITMAP
1200
0000
8080
4100
4200
2400
2800
1000
1000
1000
2000
2000
2000
ENDCHAR
STARTCHAR Zacute
ENCODING 377
SWIDTH 625 0
DWIDTH 10 0
BBX 11 14 0 0
BITMAP
0180
0200
0000
3FE0
0040
0080
0100
0200
0400
0800
1000
2000
4000
FF80
ENDCHAR
STARTCHAR zacute
ENCODING 378
SWIDTH 438 0
DWIDTH 7 0
BBX 8 13 0 0
BITMAP
02
04
08
00
7E
02
04
08
10
20
40
80
FC
ENDCHAR
STARTCHAR Zdotaccent
ENCODING 379
SWIDTH 625 0
DWIDTH 10 0
BBX 11 13 0 0
BITMAP
0200
0000
3FE0
0040
0080
0100
0200
0400
0800
1000
2000
4000
FF80
ENDCHAR
STARTCHAR zdotaccent
ENCODING 380
SWIDTH 438 0
DWIDTH 7 0
BBX 7 12 0 0
BITMAP
08
00
00
7E
02
04
08
10
20
40
80
FC
ENDCHAR
STARTCHAR Zcaron
ENCODING 381
SWIDTH 625 0
DWIDTH 10 0
BBX 11 14 0 0
BITMAP
0480
0300
0000
3FE0
0040
0080
0100
0200
0400
0800
1000
2000
4000
FF80
ENDCHAR
STARTCHAR zcaron
ENCODING 382
SWIDTH 438 0
DWIDTH 7 0
BBX 7 13 0 0
BITMAP
12
14
08
00
7E
02
04
08
10
20
40
80
FC
ENDCHAR
STARTCHAR longs
ENCODING 383
SWIDTH 250 0
DWIDTH 4 0
BBX 5 12 1 0
BITMAP
18
20
20
40
40
40
40
40
40
80
80
80
ENDCHAR
STARTCHAR florin
ENCODING 402
SWIDTH 563 0
DWIDTH 9 0
BBX 6 15 2 -4
BITMAP
0C
10
10
78
20
20
20
20
40
40
40
40
80
80
80
ENDCHAR
STARTCHAR Aringacute
ENCODING 506
SWIDTH 688 0
DWIDTH 11 0
BBX 11 16 -1 0
BITMAP
0060
0080
0180
0240
0240
0180
0280
0280
0480
0880
0840
1040
3FC0
2040
4020
8020
ENDCHAR
STARTCHAR aringacute
ENCODING 507
SWIDTH 563 0
DWIDTH 9 0
BBX 8 15 1 0
BITMAP
03
0C
12
12
0C
00
3C
42
42
02
7E
84
84
8C
76
ENDCHAR
STARTCHAR AEacute
ENCODING 508
SWIDTH 1000 0
DWIDTH 16 0
BBX 17 14 -1 0
BITMAP
000C00
001000
000000
01FF80
024000
024000
048000
088000
08FE00
108000
3F8000
210000
410000
81FE00
ENDCHAR
STARTCHAR aeacute
ENCODING 509
SWIDTH 875 0
DWIDTH 14 0
BBX 12 13 1 0
BITMAP
0080
0100
0200
0000
39E0
4610
4410
0410
7FF0
8400
8400
8C20
73C0
ENDCHAR
STARTCHAR Oslashacute
ENCODING 510
SWIDTH 750 0
DWIDTH 12 0
BBX 12 14 0 0
BITMAP
00C0
0100
0000
07A0
1840
20A0
2120
4220
4220
4420
4840
5040
2180
5E00
ENDCHAR
STARTCHAR oslashacute
ENCODING 511
SWIDTH 625 0
DWIDTH 10 0
BBX 10 13 0 0
BITMAP
0100
0200
0400
0000
0E80
3100
2280
4480
4880
4880
5100
2300
5C00
ENDCHAR
STARTCHAR Scommaaccent
ENCODING 536
SWIDTH 688 0
DWIDTH 11 0
BBX 10 15 1 -4
BITMAP
1F00
2080
4040
4000
3000
0C00
0300
0080
8080
4100
3E00
0000
2000
2000
4000
ENDCHAR
STARTCHAR scommaaccent
ENCODING 537
SWIDTH 500 0
DWIDTH 8 0
BBX 6 13 1 -4
BITMAP
38
44
40
40
30
08
08
88
70
00
40
40
80
ENDCHAR
STARTCHAR uni021A
ENCODING 538
SWIDTH 625 0
DWIDTH 10 0
BBX 9 15 1 -4
BITMAP
FF80
0800
0800
1000
1000
1000
1000
1000
2000
2000
2000
0000
2000
2000
4000
ENDCHAR
STARTCHAR uni021B
ENCODING 539
SWIDTH 250 0
DWIDTH 4 0
BBX 5 15 0 -4
BITMAP
10
10
78
20
20
20
20
20
40
40
30
00
40
40
80
ENDCHAR
STARTCHAR circumflex
ENCODING 710
SWIDTH 313 0
DWIDTH 5 0
BBX 4 3 1 10
BITMAP
20
50
90
ENDCHAR
STARTCHAR caron
ENCODING 711
SWIDTH 313 0
DWIDTH 5 0
BBX 4 3 1 10
BITMAP
90
A0
40
ENDCHAR
STARTCHAR uni02C9
ENCODING 713
SWIDTH 313 0
DWIDTH 5 0
BBX 5 1 1 11
BITMAP
F8
ENDCHAR
STARTCHAR breve
ENCODING 728
SWIDTH 313 0
DWIDTH 5 0
BBX 5 3 1 10
BITMAP
88
88
70
ENDCHAR
STARTCHAR dotaccent
ENCODING 729
SWIDTH 250 0
DWIDTH 4 0
BBX 1 1 3 11
BITMAP
80
ENDCHAR
STARTCHAR ring
ENCODING 730
SWIDTH 313 0
DWIDTH 5 0
BBX 4 4 2 10
BITMAP
60
90
90
60
ENDCHAR
STARTCHAR ogonek
ENCODING 731
SWIDTH 313 0
DWIDTH 5 0
BBX 3 3 1 -3
BITMAP
40
80
60
ENDCHAR
STARTCHAR tilde
ENCODING 732
SWIDTH 250 0
DWIDTH 4 0
BBX 5 3 0 10
BITMAP
48
A8
90
ENDCHAR
STARTCHAR hungarumlaut
ENCODING 733
SWIDTH 250 0
DWIDTH 4 0
BBX 6 3 0 10
BITMAP
24
48
90
ENDCHAR
STARTCHAR semicolon
ENCODING 894
SWIDTH 250 0
DWIDTH 4 0
BBX 3 11 0 -2
BITMAP
20
20
00
00
00
00
00
40
40
40
80
ENDCHAR
STARTCHAR tonos
ENCODING 900
SWIDTH 313 0
DWIDTH 5 0
BBX 3 3 2 10
BITMAP
20
40
80
ENDCHAR
STARTCHAR dieresistonos
ENCODING 901
SWIDTH 313 0
DWIDTH 5 0
BBX 5 3 0 10
BITMAP
08
10
A8
ENDCHAR
STARTCHAR Alphatonos
ENCODING 902
SWIDTH 688 0
DWIDTH 11 0
BBX 11 11 -1 0
BITMAP
0500
0A80
1280
0480
0880
0840
1040
3FC0
2040
4020
8020
ENDCHAR
STARTCHAR anoteleia
ENCODING 903
SWIDTH 250 0
DWIDTH 4 0
BBX 1 2 1 4
BITMAP
80
80
ENDCHAR
STARTCHAR Epsilontonos
ENCODING 904
SWIDTH 813 0
DWIDTH 13 0
BBX 12 11 1 0
BITMAP
2FF0
4800
8800
1000
1000
1FC0
1000
1000
2000
2000
3FC0
ENDCHAR
STARTCHAR Etatonos
ENCODING 905
SWIDTH 875 0
DWIDTH 14 0
BBX 12 11 1 0
BITMAP
2810
4810
8810
1020
1020
1FE0
1020
1020
2040
2040
2040
ENDCHAR
STARTCHAR Iotatonos
ENCODING 906
SWIDTH 375 0
DWIDTH 6 0
BBX 5 11 1 0
BITMAP
28
48
88
10
10
10
10
10
20
20
20
ENDCHAR
STARTCHAR Omicrontonos
ENCODING 908
SWIDTH 813 0
DWIDTH 13 0
BBX 11 11 0 0
BITMAP
2780
5840
A020
2020
4020
4020
4020
4040
4040
2180
1E00
ENDCHAR
STARTCHAR Upsilontonos
ENCODING 910
SWIDTH 875 0
DWIDTH 14 0
BBX 13 11 1 0
BITMAP
2808
4410
8420
0240
0280
0100
0100
0100
0200
0200
0200
ENDCHAR
STARTCHAR Omegatonos
ENCODING 911
SWIDTH 750 0
DWIDTH 12 0
BBX 11 11 0 0
BITMAP
2780
5840
A020
4020
4020
4020
4040
2040
1180
1100
F1E0
ENDCHAR
STARTCHAR iotadieresistonos
ENCODING 912
SWIDTH 250 0
DWIDTH 4 0
BBX 5 13 1 0
BITMAP
08
10
A8
00
40
40
40
40
40
40
80
80
80
ENDCHAR
STARTCHAR Alpha
ENCODING 913
SWIDTH 688 0
DWIDTH 11 0
BBX 11 11 -1 0
BITMAP
0100
0280
0280
0480
0880
0840
1040
3FC0
2040
4020
8020
ENDCHAR
STARTCHAR Beta
ENCODING 914
SWIDTH 688 0
DWIDTH 11 0
BBX 9 11 1 0
BITMAP
3F00
2080
2080
4080
4100
7E00
4100
4080
8080
8100
FE00
ENDCHAR
STARTCHAR Gamma
ENCODING 915
SWIDTH 563 0
DWIDTH 9 0
BBX 9 11 1 0
BITMAP
3F80
2000
2000
4000
4000
4000
4000
4000
8000
8000
8000
ENDCHAR
STARTCHAR Delta
ENCODING 916
SWIDTH 688 0
DWIDTH 11 0
BBX 11 11 -1 0
BITMAP
0100
0280
0280
0480
0880
1040
1040
2040
4020
8020
FFE0
ENDCHAR
STARTCHAR Epsilon
ENCODING 917
SWIDTH 688 0
DWIDTH 11 0
BBX 10 11 1 0
BITMAP
3FC0
2000
2000
4000
4000
7F00
4000
4000
8000
8000
FF00
ENDCHAR
STARTCHAR Zeta
ENCODING 918
SWIDTH 625 0
DWIDTH 10 0
BBX 11 11 0 0
BITMAP
3FE0
0040
0080
0100
0200
0400
0800
1000
2000
4000
FF80
ENDCHAR
STARTCHAR Eta
ENCODING 919
SWIDTH 750 0
DWIDTH 12 0
BBX 10 11 1 0
BITMAP
2040
2040
2040
4080
4080
7F80
4080
4080
8100
8100
8100
ENDCHAR
STARTCHAR Theta
ENCODING 920
SWIDTH 750 0
DWIDTH 12 0
BBX 10 11 1 0
BITMAP
0F00
3080
4040
4040
8040
BF40
8040
8080
8080
4300
3C00
ENDCHAR
STARTCHAR Iota
ENCODING 921
SWIDTH 250 0
DWIDTH 4 0
BBX 3 11 1 0
BITMAP
20
20
20
40
40
40
40
40
80
80
80
ENDCHAR
STARTCHAR Kappa
ENCODING 922
SWIDTH 688 0
DWIDTH 11 0
BBX 11 11 1 0
BITMAP
2040
2080
2300
4400
4800
7800
4400
4200
8100
8080
8040
ENDCHAR
STARTCHAR Lambda
ENCODING 923
SWIDTH 688 0
DWIDTH 11 0
BBX 11 11 -1 0
BITMAP
0100
0280
0280
0480
0880
0840
1040
2040
2040
4020
8020
ENDCHAR
STARTCHAR Mu
ENCODING 924
SWIDTH 875 0
DWIDTH 14 0
BBX 12 11 1 0
BITMAP
2010
2030
3050
50A0
50A0
4920
4920
4A20
8A40
8440
8440
ENDCHAR
STARTCHAR Nu
ENCODING 925
SWIDTH 750 0
DWIDTH 12 0
BBX 10 11 1 0
BITMAP
2040
2040
3040
5080
4880
4880
4480
4480
8300
8100
8100
ENDCHAR
STARTCHAR Xi
ENCODING 926
SWIDTH 625 0
DWIDTH 10 0
BBX 9 11 1 0
BITMAP
3F80
0000
0000
0000
0000
3E00
0000
0000
0000
0000
FE00
ENDCHAR
STARTCHAR Omicron
ENCODING 927
SWIDTH 750 0
DWIDTH 12 0
BBX 10 11 1 0
BITMAP
0F00
3080
4040
4040
8040
8040
8040
8080
8080
4300
3C00
ENDCHAR
STARTCHAR Pi
ENCODING 928
SWIDTH 750 0
DWIDTH 12 0
BBX 10 11 1 0
BITMAP
3FC0
2040
2040
4080
4080
4080
4080
4080
8100
8100
8100
ENDCHAR
STARTCHAR Rho
ENCODING 929
SWIDTH 688 0
DWIDTH 11 0
BBX 9 11 1 0
BITMAP
3F00
2080
2080
4080
4100
7E00
4000
4000
8000
8000
8000
ENDCHAR
STARTCHAR Sigma
ENCODING 931
SWIDTH 625 0
DWIDTH 10 0
BBX 10 11 0 0
BITMAP
3FC0
1000
0800
0400
0200
0400
0800
3000
4000
8000
FF80
ENDCHAR
STARTCHAR Tau
ENCODING 932
SWIDTH 625 0
DWIDTH 10 0
BBX 9 11 1 0
BITMAP
FF80
0800
0800
1000
1000
1000
1000
1000
2000
2000
2000
ENDCHAR
STARTCHAR Upsilon
ENCODING 933
SWIDTH 688 0
DWIDTH 11 0
BBX 9 11 2 0
BITMAP
8080
4100
4200
2400
2800
1000
1000
1000
2000
2000
2000
ENDCHAR
STARTCHAR Phi
ENCODING 934
SWIDTH 813 0
DWIDTH 13 0
BBX 11 11 1 0
BITMAP
0200
3F80
4240
8420
8420
8420
8420
4440
3F80
0800
0800
ENDCHAR
STARTCHAR Chi
ENCODING 935
SWIDTH 688 0
DWIDTH 11 0
BBX 11 11 0 0
BITMAP
2020
1040
1080
0900
0A00
0400
0A00
1200
2100
4100
8080
ENDCHAR
STARTCHAR Psi
ENCODING 936
SWIDTH 813 0
DWIDTH 13 0
BBX 11 11 2 0
BITMAP
4420
4420
4420
8840
8840
8840
8880
7F00
1000
1000
1000
ENDCHAR
STARTCHAR Omega
ENCODING 937
SWIDTH 750 0
DWIDTH 12 0
BBX 11 11 0 0
BITMAP
0780
1840
2020
4020
4020
4020
4040
2040
1180
1100
F1E0
ENDCHAR
STARTCHAR Iotadieresis
ENCODING 938
SWIDTH 250 0
DWIDTH 4 0
BBX 5 13 1 0
BITMAP
48
00
20
20
20
40
40
40
40
40
80
80
80
ENDCHAR
STARTCHAR Upsilondieresis
ENCODING 939
SWIDTH 688 0
DWIDTH 11 0
BBX 9 13 2 0
BITMAP
1200
0000
8080
4100
4200
2400
2800
1000
1000
1000
2000
2000
2000
ENDCHAR
STARTCHAR alphatonos
ENCODING 940
SWIDTH 563 0
DWIDTH 9 0
BBX 8 13 1 0
BITMAP
02
04
08
00
39
46
44
84
84
84
84
8C
72
ENDCHAR
STARTCHAR epsilontonos
ENCODING 941
SWIDTH 438 0
DWIDTH 7 0
BBX 6 13 1 0
BITMAP
04
08
10
00
38
44
40
40
30
40
80
88
70
ENDCHAR
STARTCHAR etatonos
ENCODING 942
SWIDTH 563 0
DWIDTH 9 0
BBX 7 16 1 -3
BITMAP
02
04
08
00
5C
62
42
42
42
44
84
84
84
04
08
08
ENDCHAR
STARTCHAR iotatonos
ENCODING 943
SWIDTH 250 0
DWIDTH 4 0
BBX 5 13 1 0
BITMAP
08
10
20
00
40
40
40
40
40
40
80
80
80
ENDCHAR
STARTCHAR upsilondieresistonos
ENCODING 944
SWIDTH 563 0
DWIDTH 9 0
BBX 7 13 1 0
BITMAP
02
04
2A
00
42
42
42
42
42
82
84
44
38
ENDCHAR
STARTCHAR alpha
ENCODING 945
SWIDTH 563 0
DWIDTH 9 0
BBX 8 9 1 0
BITMAP
39
46
44
84
84
84
84
8C
72
ENDCHAR
STARTCHAR beta
ENCODING 946
SWIDTH 563 0
DWIDTH 9 0
BBX 8 15 0 -3
BITMAP
0E
11
11
21
22
24
22
21
21
41
62
5C
40
80
80
ENDCHAR
STARTCHAR gamma
ENCODING 947
SWIDTH 500 0
DWIDTH 8 0
BBX 8 12 1 -3
BITMAP
81
82
82
44
48
48
50
20
20
40
40
80
ENDCHAR
STARTCHAR delta
ENCODING 948
SWIDTH 563 0
DWIDTH 9 0
BBX 8 12 1 0
BITMAP
1F
10
08
3C
42
42
82
82
82
84
84
78
ENDCHAR
STARTCHAR epsilon
ENCODING 949
SWIDTH 438 0
DWIDTH 7 0
BBX 6 9 1 0
BITMAP
38
44
40
40
30
40
80
88
70
ENDCHAR
STARTCHAR zeta
ENCODING 950
SWIDTH 438 0
DWIDTH 7 0
BBX 7 15 1 -3
BITMAP
3E
04
08
10
20
20
40
80
80
80
80
70
08
08
10
ENDCHAR
STARTCHAR eta
ENCODING 951
SWIDTH 563 0
DWIDTH 9 0
BBX 7 12 1 -3
BITMAP
5C
62
42
42
42
44
84
84
84
04
08
08
ENDCHAR
STARTCHAR theta
ENCODING 952
SWIDTH 563 0
DWIDTH 9 0
BBX 7 12 1 0
BITMAP
1C
22
42
42
82
FE
82
82
84
84
88
70
ENDCHAR
STARTCHAR iota
ENCODING 953
SWIDTH 250 0
DWIDTH 4 0
BBX 2 9 1 0
BITMAP
40
40
40
40
40
40
80
80
80
ENDCHAR
STARTCHAR kappa
ENCODING 954
SWIDTH 500 0
DWIDTH 8 0
BBX 7 9 1 0
BITMAP
42
44
48
70
50
50
88
88
84
ENDCHAR
STARTCHAR lambda
ENCODING 955
SWIDTH 500 0
DWIDTH 8 0
BBX 7 12 0 0
BITMAP
18
04
04
04
04
04
0C
16
22
22
42
82
ENDCHAR
STARTCHAR mu
ENCODING 956
SWIDTH 563 0
DWIDTH 9 0
BBX 9 12 0 -3
BITMAP
2100
2100
2100
2100
2100
4200
4200
4600
7A00
4000
8000
8000
ENDCHAR
STARTCHAR nu
ENCODING 957
SWIDTH 500 0
DWIDTH 8 0
BBX 6 9 1 0
BITMAP
84
84
44
44
48
48
50
30
20
ENDCHAR
STARTCHAR xi
ENCODING 958
SWIDTH 438 0
DWIDTH 7 0
BBX 6 15 1 -3
BITMAP
3C
10
20
20
20
38
40
80
80
80
80
60
10
10
20
ENDCHAR
STARTCHAR omicron
ENCODING 959
SWIDTH 563 0
DWIDTH 9 0
BBX 7 9 1 0
BITMAP
3C
42
42
82
82
82
84
84
78
ENDCHAR
STARTCHAR pi
ENCODING 960
SWIDTH 688 0
DWIDTH 11 0
BBX 11 9 1 0
BITMAP
FFE0
1100
1100
2100
2100
2200
4200
4200
8180
ENDCHAR
STARTCHAR rho
ENCODING 961
SWIDTH 563 0
DWIDTH 9 0
BBX 8 12 0 -3
BITMAP
0E
11
21
21
21
21
42
62
5C
40
80
80
ENDCHAR
STARTCHAR sigma1
ENCODING 962
SWIDTH 500 0
DWIDTH 8 0
BBX 6 12 1 -3
BITMAP
38
44
44
80
80
80
80
80
60
10
10
20
ENDCHAR
STARTCHAR sigma
ENCODING 963
SWIDTH 625 0
DWIDTH 10 0
BBX 9 9 1 0
BITMAP
3F80
4200
4200
8200
8200
8200
8400
8400
7800
ENDCHAR
STARTCHAR tau
ENCODING 964
SWIDTH 375 0
DWIDTH 6 0
BBX 6 9 1 0
BITMAP
FC
20
20
20
20
20
40
40
30
ENDCHAR
STARTCHAR upsilon
ENCODING 965
SWIDTH 563 0
DWIDTH 9 0
BBX 7 9 1 0
BITMAP
42
42
42
42
42
82
84
44
38
ENDCHAR
STARTCHAR phi
ENCODING 966
SWIDTH 625 0
DWIDTH 10 0
BBX 8 12 1 -3
BITMAP
36
49
49
89
89
89
92
92
7C
10
20
20
ENDCHAR
STARTCHAR chi
ENCODING 967
SWIDTH 563 0
DWIDTH 9 0
BBX 10 12 -1 -3
BITMAP
3040
0880
0900
0900
0600
0400
0C00
1200
1200
2200
4100
8100
ENDCHAR
STARTCHAR psi
ENCODING 968
SWIDTH 750 0
DWIDTH 12 0
BBX 11 13 1 -3
BITMAP
0200
4240
4440
4440
4440
4440
8440
8880
4900
3E00
0800
1000
1000
ENDCHAR
STARTCHAR omega
ENCODING 969
SWIDTH 750 0
DWIDTH 12 0
BBX 10 9 1 0
BITMAP
1180
2040
4040
8440
8440
8440
8440
8C80
7300
ENDCHAR
STARTCHAR iotadieresis
ENCODING 970
SWIDTH 250 0
DWIDTH 4 0
BBX 4 11 1 0
BITMAP
90
00
40
40
40
40
40
40
80
80
80
ENDCHAR
STARTCHAR upsilondieresis
ENCODING 971
SWIDTH 563 0
DWIDTH 9 0
BBX 7 11 1 0
BITMAP
12
00
42
42
42
42
42
82
84
44
38
ENDCHAR
STARTCHAR omicrontonos
ENCODING 972
SWIDTH 563 0
DWIDTH 9 0
BBX 7 13 1 0
BITMAP
02
04
08
00
3C
42
42
82
82
82
84
84
78
ENDCHAR
STARTCHAR upsilontonos
ENCODING 973
SWIDTH 563 0
DWIDTH 9 0
BBX 7 13 1 0
BITMAP
02
04
08
00
42
42
42
42
42
82
84
44
38
ENDCHAR
STARTCHAR omegatonos
ENCODING 974
SWIDTH 750 0
DWIDTH 12 0
BBX 10 13 1 0
BITMAP
0080
0100
0200
0000
1180
2040
4040
8440
8440
8440
8440
8C80
7300
ENDCHAR
STARTCHAR afii10023
ENCODING 1025
SWIDTH 688 0
DWIDTH 11 0
BBX 10 13 1 0
BITMAP
0900
0000
3FC0
2000
2000
4000
4000
7F00
4000
4000
8000
8000
FF00
ENDCHAR
STARTCHAR afii10051
ENCODING 1026
SWIDTH 813 0
DWIDTH 13 0
BBX 11 11 1 0
BITMAP
FF80
0800
0800
1000
17C0
1820
1020
1020
2020
2240
2180
ENDCHAR
STARTCHAR afii10052
ENCODING 1027
SWIDTH 563 0
DWIDTH 9 0
BBX 9 14 1 0
BITMAP
0300
0400
0000
3F80
2000
2000
4000
4000
4000
4000
4000
8000
8000
8000
ENDCHAR
STARTCHAR afii10053
ENCODING 1028
SWIDTH 688 0
DWIDTH 11 0
BBX 9 11 1 0
BITMAP
1E00
2100
4080
4000
8000
FC00
8000
8000
8100
4200
3C00
ENDCHAR
STARTCHAR afii10054
ENCODING 1029
SWIDTH 688 0
DWIDTH 11 0
BBX 10 11 1 0
BITMAP
1F00
2080
4040
4000
3000
0C00
0300
0080
8080
4100
3E00
ENDCHAR
STARTCHAR afii10055
ENCODING 1030
SWIDTH 250 0
DWIDTH 4 0
BBX 3 11 1 0
BITMAP
20
20
20
40
40
40
40
40
80
80
80
ENDCHAR
STARTCHAR afii10056
ENCODING 1031
SWIDTH 250 0
DWIDTH 4 0
BBX 5 13 1 0
BITMAP
48
00
20
20
20
40
40
40
40
40
80
80
80
ENDCHAR
STARTCHAR afii10057
ENCODING 1032
SWIDTH 500 0
DWIDTH 8 0
BBX 7 11 0 0
BITMAP
1E
02
02
04
04
04
04
04
88
88
70
ENDCHAR
STARTCHAR afii10058
ENCODING 1033
SWIDTH 1063 0
DWIDTH 17 0
BBX 16 11 0 0
BITMAP
07E0
0420
0420
0840
0840
087E
1041
1041
1081
2082
C0FC
ENDCHAR
STARTCHAR afii10059
ENCODING 1034
SWIDTH 1000 0
DWIDTH 16 0
BBX 14 11 1 0
BITMAP
2080
2080
2080
4100
4100
7FF8
4104
4104
8204
8208
83F0
ENDCHAR
STARTCHAR afii10060
ENCODING 1035
SWIDTH 875 0
DWIDTH 14 0
BBX 11 11 1 0
BITMAP
FF80
0800
0800
1000
17C0
1820
1020
1020
2040
2040
2040
ENDCHAR
STARTCHAR afii10061
ENCODING 1036
SWIDTH 563 0
DWIDTH 9 0
BBX 8 14 1 0
BITMAP
03
04
00
21
22
24
44
48
70
48
48
84
84
82
ENDCHAR
STARTCHAR afii10062
ENCODING 1038
SWIDTH 625 0
DWIDTH 10 0
BBX 10 15 0 0
BITMAP
0840
0840
0780
0000
2040
2080
1080
1100
0A00
0A00
0400
0400
0800
1000
E000
ENDCHAR
STARTCHAR afii10145
ENCODING 1039
SWIDTH 750 0
DWIDTH 12 0
BBX 10 14 1 -3
BITMAP
2040
2040
2040
4080
4080
4080
4080
4080
8100
8100
FF00
0800
1000
1000
ENDCHAR
STARTCHAR afii10017
ENCODING 1040
SWIDTH 688 0
DWIDTH 11 0
BBX 11 11 -1 0
BITMAP
0100
0280
0280
0480
0880
0840
1040
3FC0
2040
4020
8020
ENDCHAR
STARTCHAR afii10018
ENCODING 1041
SWIDTH 625 0
DWIDTH 10 0
BBX 9 11 1 0
BITMAP
3F80
2000
2000
4000
4000
7E00
4100
4100
8100
8200
FC00
ENDCHAR
STARTCHAR afii10019
ENCODING 1042
SWIDTH 688 0
DWIDTH 11 0
BBX 9 11 1 0
BITMAP
3F00
2080
2080
4080
4100
7E00
4100
4080
8080
8100
FE00
ENDCHAR
STARTCHAR afii10020
ENCODING 1043
SWIDTH 563 0
DWIDTH 9 0
BBX 9 11 1 0
BITMAP
3F80
2000
2000
4000
4000
4000
4000
4000
8000
8000
8000
ENDCHAR
STARTCHAR afii10021
ENCODING 1044
SWIDTH 688 0
DWIDTH 11 0
BBX 11 14 -1 -3
BITMAP
07E0
0420
0420
0840
0840
0840
1040
1040
1080
2080
7FC0
4040
8080
8080
ENDCHAR
STARTCHAR afii10022
ENCODING 1045
SWIDTH 688 0
DWIDTH 11 0
BBX 10 11 1 0
BITMAP
3FC0
2000
2000
4000
4000
7F00
4000
4000
8000
8000
FF00
ENDCHAR
STARTCHAR afii10024
ENCODING 1046
SWIDTH 938 0
DWIDTH 15 0
BBX 15 11 0 0
BITMAP
2082
1084
1088
0910
0920
07E0
0910
1110
2208
4208
8204
ENDCHAR
STARTCHAR afii10025
ENCODING 1047
SWIDTH 625 0
DWIDTH 10 0
BBX 8 11 1 0
BITMAP
1E
21
41
01
02
1C
02
02
82
44
38
ENDCHAR
STARTCHAR afii10026
ENCODING 1048
SWIDTH 688 0
DWIDTH 11 0
BBX 9 11 1 0
BITMAP
2080
2180
2280
4500
4500
4900
5100
5100
A200
C200
8200
ENDCHAR
STARTCHAR afii10027
ENCODING 1049
SWIDTH 688 0
DWIDTH 11 0
BBX 9 15 1 0
BITMAP
1080
1080
0F00
0000
2080
2180
2280
4500
4500
4900
5100
5100
A200
C200
8200
ENDCHAR
STARTCHAR afii10028
ENCODING 1050
SWIDTH 563 0
DWIDTH 9 0
BBX 8 11 1 0
BITMAP
21
22
24
44
48
70
48
48
84
84
82
ENDCHAR
STARTCHAR afii10029
ENCODING 1051
SWIDTH 688 0
DWIDTH 11 0
BBX 11 11 -1 0
BITMAP
07E0
0420
0420
0840
0840
0840
1040
1040
2080
2080
C080
ENDCHAR
STARTCHAR afii10030
ENCODING 1052
SWIDTH 875 0
DWIDTH 14 0
BBX 12 11 1 0
BITMAP
2010
2030
3050
50A0
50A0
4920
4920
4A20
8A40
8440
8440
ENDCHAR
STARTCHAR afii10031
ENCODING 1053
SWIDTH 750 0
DWIDTH 12 0
BBX 10 11 1 0
BITMAP
2040
2040
2040
4080
4080
7F80
4080
4080
8100
8100
8100
ENDCHAR
STARTCHAR afii10032
ENCODING 1054
SWIDTH 750 0
DWIDTH 12 0
BBX 10 11 1 0
BITMAP
0F00
3080
4040
4040
8040
8040
8040
8080
8080
4300
3C00
ENDCHAR
STARTCHAR afii10033
ENCODING 1055
SWIDTH 750 0
DWIDTH 12 0
BBX 10 11 1 0
BITMAP
3FC0
2040
2040
4080
4080
4080
4080
4080
8100
8100
8100
ENDCHAR
STARTCHAR afii10034
ENCODING 1056
SWIDTH 688 0
DWIDTH 11 0
BBX 9 11 1 0
BITMAP
3F00
2080
2080
4080
4100
7E00
4000
4000
8000
8000
8000
ENDCHAR
STARTCHAR afii10035
ENCODING 1057
SWIDTH 750 0
DWIDTH 12 0
BBX 10 11 1 0
BITMAP
0F00
3080
4040
4000
8000
8000
8000
8000
8080
4300
3C00
ENDCHAR
STARTCHAR afii10036
ENCODING 1058
SWIDTH 625 0
DWIDTH 10 0
BBX 9 11 1 0
BITMAP
FF80
0800
0800
1000
1000
1000
1000
1000
2000
2000
2000
ENDCHAR
STARTCHAR afii10037
ENCODING 1059
SWIDTH 625 0
DWIDTH 10 0
BBX 10 11 0 0
BITMAP
2040
2080
1080
1100
0A00
0A00
0400
0400
0800
1000
E000
ENDCHAR
STARTCHAR afii10038
ENCODING 1060
SWIDTH 813 0
DWIDTH 13 0
BBX 11 11 1 0
BITMAP
0200
3F80
4240
8420
8420
8420
8420
4440
3F80
0800
0800
ENDCHAR
STARTCHAR afii10039
ENCODING 1061
SWIDTH 688 0
DWIDTH 11 0
BBX 11 11 0 0
BITMAP
2020
1040
1080
0900
0A00
0400
0A00
1200
2100
4100
8080
ENDCHAR
STARTCHAR afii10040
ENCODING 1062
SWIDTH 750 0
DWIDTH 12 0
BBX 10 14 1 -3
BITMAP
2040
2040
2040
4080
4080
4080
4080
4080
8100
8100
FF80
0080
0100
0100
ENDCHAR
STARTCHAR afii10041
ENCODING 1063
SWIDTH 688 0
DWIDTH 11 0
BBX 8 11 2 0
BITMAP
41
41
41
82
82
86
7A
02
04
04
04
ENDCHAR
STARTCHAR afii10042
ENCODING 1064
SWIDTH 938 0
DWIDTH 15 0
BBX 13 11 1 0
BITMAP
2108
2108
2108
4210
4210
4210
4210
4210
8420
8420
FFE0
ENDCHAR
STARTCHAR afii10043
ENCODING 1065
SWIDTH 938 0
DWIDTH 15 0
BBX 13 14 1 -3
BITMAP
2108
2108
2108
4210
4210
4210
4210
4210
8420
8420
FFF0
0010
0020
0020
ENDCHAR
STARTCHAR afii10044
ENCODING 1066
SWIDTH 813 0
DWIDTH 13 0
BBX 11 11 1 0
BITMAP
FC00
0400
0400
0800
0800
0FC0
0820
0820
1020
1040
1F80
ENDCHAR
STARTCHAR afii10045
ENCODING 1067
SWIDTH 875 0
DWIDTH 14 0
BBX 12 11 1 0
BITMAP
2010
2010
2010
4020
4020
7E20
4120
4120
8140
8240
FC40
ENDCHAR
STARTCHAR afii10046
ENCODING 1068
SWIDTH 625 0
DWIDTH 10 0
BBX 8 11 1 0
BITMAP
20
20
20
40
40
7E
41
41
81
82
FC
ENDCHAR
STARTCHAR afii10047
ENCODING 1069
SWIDTH 688 0
DWIDTH 11 0
BBX 9 11 1 0
BITMAP
1E00
2100
4080
0080
0080
0F80
0080
0100
8100
4200
3C00
ENDCHAR
STARTCHAR afii10048
ENCODING 1070
SWIDTH 1000 0
DWIDTH 16 0
BBX 14 11 1 0
BITMAP
20F0
2308
2404
4404
4804
7804
4804
4808
8808
8430
83C0
ENDCHAR
STARTCHAR afii10049
ENCODING 1071
SWIDTH 688 0
DWIDTH 11 0
BBX 10 11 0 0
BITMAP
0FC0
1040
2040
2080
1080
0F80
0880
1080
2100
4100
8100
ENDCHAR
STARTCHAR afii10065
ENCODING 1072
SWIDTH 563 0
DWIDTH 9 0
BBX 7 9 1 0
BITMAP
3C
42
42
02
7E
84
84
8C
76
ENDCHAR
STARTCHAR afii10066
ENCODING 1073
SWIDTH 563 0
DWIDTH 9 0
BBX 8 12 1 0
BITMAP
01
1F
20
40
DC
A2
C2
82
82
82
C6
7C
ENDCHAR
STARTCHAR afii10067
ENCODING 1074
SWIDTH 500 0
DWIDTH 8 0
BBX 6 9 1 0
BITMAP
38
44
44
44
78
44
84
84
F8
ENDCHAR
STARTCHAR afii10068
ENCODING 1075
SWIDTH 500 0
DWIDTH 8 0
BBX 6 9 1 0
BITMAP
38
44
04
08
30
40
80
88
70
ENDCHAR
STARTCHAR afii10069
ENCODING 1076
SWIDTH 563 0
DWIDTH 9 0
BBX 7 12 1 0
BITMAP
38
04
02
02
3A
46
42
82
82
84
84
78
ENDCHAR
STARTCHAR afii10070
ENCODING 1077
SWIDTH 563 0
DWIDTH 9 0
BBX 7 9 1 0
BITMAP
3C
42
42
82
FE
80
80
84
78
ENDCHAR
STARTCHAR afii10072
ENCODING 1078
SWIDTH 688 0
DWIDTH 11 0
BBX 11 9 0 0
BITMAP
4420
4440
2480
1500
1F00
2480
4880
4840
8840
ENDCHAR
STARTCHAR afii10073
ENCODING 1079
SWIDTH 438 0
DWIDTH 7 0
BBX 5 9 1 0
BITMAP
30
48
08
08
30
08
08
88
70
ENDCHAR
STARTCHAR afii10074
ENCODING 1080
SWIDTH 563 0
DWIDTH 9 0
BBX 8 9 1 0
BITMAP
42
42
42
42
42
84
84
8C
74
ENDCHAR
STARTCHAR afii10075
ENCODING 1081
SWIDTH 563 0
DWIDTH 9 0
BBX 8 13 1 0
BITMAP
21
21
1E
00
42
42
42
42
42
84
84
8C
74
ENDCHAR
STARTCHAR afii10076
ENCODING 1082
SWIDTH 500 0
DWIDTH 8 0
BBX 7 9 1 0
BITMAP
42
44
48
48
70
48
88
84
84
ENDCHAR
STARTCHAR afii10077
ENCODING 1083
SWIDTH 563 0
DWIDTH 9 0
BBX 9 9 0 0
BITMAP
0F00
0900
1100
1100
1100
2100
2200
2200
C200
ENDCHAR
STARTCHAR afii10078
ENCODING 1084
SWIDTH 688 0
DWIDTH 11 0
BBX 11 8 0 0
BITMAP
30C0
30C0
7140
5B40
4AC0
4EC0
4C80
CC80
ENDCHAR
STARTCHAR afii10079
ENCODING 1085
SWIDTH 563 0
DWIDTH 9 0
BBX 8 9 1 0
BITMAP
42
42
42
42
7E
42
84
84
84
ENDCHAR
STARTCHAR afii10080
ENCODING 1086
SWIDTH 563 0
DWIDTH 9 0
BBX 7 9 1 0
BITMAP
3C
42
42
82
82
82
84
84
78
ENDCHAR
STARTCHAR afii10081
ENCODING 1087
SWIDTH 563 0
DWIDTH 9 0
BBX 8 9 1 0
BITMAP
7E
42
42
42
42
42
84
84
84
ENDCHAR
STARTCHAR afii10082
ENCODING 1088
SWIDTH 563 0
DWIDTH 9 0
BBX 8 12 0 -3
BITMAP
2E
31
21
21
21
41
42
62
5C
40
80
80
ENDCHAR
STARTCHAR afii10083
ENCODING 1089
SWIDTH 500 0
DWIDTH 8 0
BBX 6 9 1 0
BITMAP
38
44
44
80
80
80
88
88
70
ENDCHAR
STARTCHAR afii10084
ENCODING 1090
SWIDTH 875 0
DWIDTH 14 0
BBX 12 9 1 0
BITMAP
5CE0
6310
4210
4210
4210
4210
8420
8420
8420
ENDCHAR
STARTCHAR afii10085
ENCODING 1091
SWIDTH 500 0
DWIDTH 8 0
BBX 10 12 -1 -3
BITMAP
2040
2080
2080
1100
1200
1200
1400
0800
0800
1000
2000
C000
ENDCHAR
STARTCHAR afii10086
ENCODING 1092
SWIDTH 813 0
DWIDTH 13 0
BBX 11 15 1 -3
BITMAP
0200
0200
0200
3DC0
4620
4420
8420
8420
8420
8440
8C40
7B80
0800
1000
1000
ENDCHAR
STARTCHAR afii10087
ENCODING 1093
SWIDTH 500 0
DWIDTH 8 0
BBX 8 9 0 0
BITMAP
21
22
14
14
08
14
24
42
82
ENDCHAR
STARTCHAR afii10088
ENCODING 1094
SWIDTH 563 0
DWIDTH 9 0
BBX 8 12 1 -3
BITMAP
42
42
42
42
42
84
84
8C
76
02
04
04
ENDCHAR
STARTCHAR afii10089
ENCODING 1095
SWIDTH 500 0
DWIDTH 8 0
BBX 7 9 1 0
BITMAP
44
44
44
84
8C
74
08
08
08
ENDCHAR
STARTCHAR afii10090
ENCODING 1096
SWIDTH 813 0
DWIDTH 13 0
BBX 12 9 1 0
BITMAP
4210
4210
4210
4210
4210
8420
8420
8C60
73A0
ENDCHAR
STARTCHAR afii10091
ENCODING 1097
SWIDTH 875 0
DWIDTH 14 0
BBX 13 12 1 -3
BITMAP
4210
4210
4210
4210
4210
8420
8420
8C60
73B0
0010
0020
0020
ENDCHAR
STARTCHAR afii10092
ENCODING 1098
SWIDTH 625 0
DWIDTH 10 0
BBX 8 9 1 0
BITMAP
E0
20
20
20
3E
21
41
42
7C
ENDCHAR
STARTCHAR afii10093
ENCODING 1099
SWIDTH 750 0
DWIDTH 12 0
BBX 11 9 1 0
BITMAP
4040
4040
4040
4040
7C40
4240
8280
8480
F880
ENDCHAR
STARTCHAR afii10094
ENCODING 1100
SWIDTH 500 0
DWIDTH 8 0
BBX 6 9 1 0
BITMAP
40
40
40
40
78
44
84
88
F0
ENDCHAR
STARTCHAR afii10095
ENCODING 1101
SWIDTH 500 0
DWIDTH 8 0
BBX 6 9 1 0
BITMAP
38
44
04
04
3C
04
04
88
70
ENDCHAR
STARTCHAR afii10096
ENCODING 1102
SWIDTH 750 0
DWIDTH 12 0
BBX 10 9 1 0
BITMAP
4380
4440
4440
4840
7840
4840
8880
8880
8700
ENDCHAR
STARTCHAR afii10097
ENCODING 1103
SWIDTH 563 0
DWIDTH 9 0
BBX 9 9 0 0
BITMAP
1F00
2100
4100
4100
3F00
1100
2200
4200
8200
ENDCHAR
STARTCHAR afii10071
ENCODING 1105
SWIDTH 563 0
DWIDTH 9 0
BBX 7 11 1 0
BITMAP
24
00
3C
42
42
82
FE
80
80
84
78
ENDCHAR
STARTCHAR afii10099
ENCODING 1106
SWIDTH 563 0
DWIDTH 9 0
BBX 7 15 1 -3
BITMAP
20
78
20
5C
62
42
42
42
42
84
84
84
04
04
18
ENDCHAR
STARTCHAR afii10100
ENCODING 1107
SWIDTH 375 0
DWIDTH 6 0
BBX 6 13 1 0
BITMAP
08
10
20
00
7C
40
40
40
40
40
80
80
80
ENDCHAR
STARTCHAR afii10101
ENCODING 1108
SWIDTH 500 0
DWIDTH 8 0
BBX 6 9 1 0
BITMAP
38
44
40
80
F0
80
80
88
70
ENDCHAR
STARTCHAR afii10102
ENCODING 1109
SWIDTH 500 0
DWIDTH 8 0
BBX 6 9 1 0
BITMAP
38
44
40
40
30
08
08
88
70
ENDCHAR
STARTCHAR afii10103
ENCODING 1110
SWIDTH 250 0
DWIDTH 4 0
BBX 3 12 1 0
BITMAP
20
00
00
40
40
40
40
40
40
80
80
80
ENDCHAR
STARTCHAR afii10104
ENCODING 1111
SWIDTH 250 0
DWIDTH 4 0
BBX 5 11 1 0
BITMAP
48
00
40
40
40
40
40
40
80
80
80
ENDCHAR
STARTCHAR afii10105
ENCODING 1112
SWIDTH 250 0
DWIDTH 4 0
BBX 5 15 -1 -3
BITMAP
08
00
00
10
10
10
10
10
10
20
20
20
20
20
C0
ENDCHAR
STARTCHAR afii10106
ENCODING 1113
SWIDTH 938 0
DWIDTH 15 0
BBX 14 9 0 0
BITMAP
0F80
0880
1080
1080
10F8
2084
2104
2108
C1F0
ENDCHAR
STARTCHAR afii10107
ENCODING 1114
SWIDTH 813 0
DWIDTH 13 0
BBX 11 9 1 0
BITMAP
4200
4200
4200
4200
7FC0
4220
8420
8440
8780
ENDCHAR
STARTCHAR afii10108
ENCODING 1115
SWIDTH 563 0
DWIDTH 9 0
BBX 7 12 1 0
BITMAP
20
78
20
5C
62
42
42
42
42
84
84
84
ENDCHAR
STARTCHAR afii10109
ENCODING 1116
SWIDTH 500 0
DWIDTH 8 0
BBX 8 13 1 0
BITMAP
02
04
08
00
42
44
48
48
70
48
88
84
84
ENDCHAR
STARTCHAR afii10110
ENCODING 1118
SWIDTH 500 0
DWIDTH 8 0
BBX 10 16 -1 -3
BITMAP
0840
0840
0780
0000
2040
2080
2080
1100
1200
1200
1400
0800
0800
1000
2000
C000
ENDCHAR
STARTCHAR afii10193
ENCODING 1119
SWIDTH 563 0
DWIDTH 9 0
BBX 8 12 1 -3
BITMAP
42
42
42
42
42
84
84
8C
74
10
20
20
ENDCHAR
STARTCHAR afii10050
ENCODING 1168
SWIDTH 500 0
DWIDTH 8 0
BBX 9 14 1 0
BITMAP
0080
0080
0100
3F00
2000
2000
4000
4000
4000
4000
4000
8000
8000
8000
ENDCHAR
STARTCHAR afii10098
ENCODING 1169
SWIDTH 313 0
DWIDTH 5 0
BBX 5 12 1 0
BITMAP
08
08
08
78
40
40
40
40
40
80
80
80
ENDCHAR
STARTCHAR Wgrave
ENCODING 7808
SWIDTH 938 0
DWIDTH 15 0
BBX 15 14 1 0
BITMAP
0300
0080
0000
8102
8104
8284
4288
4488
4490
4890
50A0
50A0
2040
2040
ENDCHAR
STARTCHAR wgrave
ENCODING 7809
SWIDTH 563 0
DWIDTH 9 0
BBX 9 13 1 0
BITMAP
1000
0800
0400
0000
8900
8900
9900
AA00
AA00
AA00
CC00
CC00
8800
ENDCHAR
STARTCHAR Wacute
ENCODING 7810
SWIDTH 938 0
DWIDTH 15 0
BBX 15 14 1 0
BITMAP
00C0
0100
0000
8102
8104
8284
4288
4488
4490
4890
50A0
50A0
2040
2040
ENDCHAR
STARTCHAR wacute
ENCODING 7811
SWIDTH 563 0
DWIDTH 9 0
BBX 9 13 1 0
BITMAP
0400
0800
1000
0000
8900
8900
9900
AA00
AA00
AA00
CC00
CC00
8800
ENDCHAR
STARTCHAR Wdieresis
ENCODING 7812
SWIDTH 938 0
DWIDTH 15 0
BBX 15 13 1 0
BITMAP
0240
0000
8102
8104
8284
4288
4488
4490
4890
50A0
50A0
2040
2040
ENDCHAR
STARTCHAR wdieresis
ENCODING 7813
SWIDTH 563 0
DWIDTH 9 0
BBX 9 11 1 0
BITMAP
1200
0000
8900
8900
9900
AA00
AA00
AA00
CC00
CC00
8800
ENDCHAR
STARTCHAR Ygrave
ENCODING 7922
SWIDTH 688 0
DWIDTH 11 0
BBX 9 14 2 0
BITMAP
1800
0400
0000
8080
4100
4200
2400
2800
1000
1000
1000
2000
2000
2000
ENDCHAR
STARTCHAR ygrave
ENCODING 7923
SWIDTH 500 0
DWIDTH 8 0
BBX 10 16 -1 -3
BITMAP
0800
0400
0200
0000
2040
2080
2080
1100
1200
1200
1400
0800
0800
1000
2000
C000
ENDCHAR
STARTCHAR uni2010
ENCODING 8208
SWIDTH 313 0
DWIDTH 5 0
BBX 4 1 1 4
BITMAP
F0
ENDCHAR
STARTCHAR uni2011
ENCODING 8209
SWIDTH 313 0
DWIDTH 5 0
BBX 4 1 1 4
BITMAP
F0
ENDCHAR
STARTCHAR figuredash
ENCODING 8210
SWIDTH 313 0
DWIDTH 5 0
BBX 4 1 1 4
BITMAP
F0
ENDCHAR
STARTCHAR endash
ENCODING 8211
SWIDTH 563 0
DWIDTH 9 0
BBX 9 1 0 4
BITMAP
FF80
ENDCHAR
STARTCHAR emdash
ENCODING 8212
SWIDTH 1000 0
DWIDTH 16 0
BBX 16 1 0 4
BITMAP
FFFF
ENDCHAR
STARTCHAR afii00208
ENCODING 8213
SWIDTH 1000 0
DWIDTH 16 0
BBX 16 1 0 4
BITMAP
FFFF
ENDCHAR
STARTCHAR underscoredbl
ENCODING 8215
SWIDTH 563 0
DWIDTH 9 0
BBX 9 3 -1 -4
BITMAP
FF80
0000
FF80
ENDCHAR
STARTCHAR quoteleft
ENCODING 8216
SWIDTH 188 0
DWIDTH 3 0
BBX 2 4 2 7
BITMAP
40
80
80
80
ENDCHAR
STARTCHAR quoteright
ENCODING 8217
SWIDTH 125 0
DWIDTH 2 0
BBX 2 4 0 7
BITMAP
40
40
40
80
ENDCHAR
STARTCHAR quotesinglbase
ENCODING 8218
SWIDTH 250 0
DWIDTH 4 0
BBX 2 4 1 -2
BITMAP
40
40
40
80
ENDCHAR
STARTCHAR quotereversed
ENCODING 8219
SWIDTH 250 0
DWIDTH 4 0
BBX 1 4 2 7
BITMAP
80
80
80
80
ENDCHAR
STARTCHAR quotedblleft
ENCODING 8220
SWIDTH 313 0
DWIDTH 5 0
BBX 4 4 2 7
BITMAP
50
A0
A0
A0
ENDCHAR
STARTCHAR quotedblright
ENCODING 8221
SWIDTH 250 0
DWIDTH 4 0
BBX 4 4 0 7
BITMAP
50
50
50
A0
ENDCHAR
STARTCHAR quotedblbase
ENCODING 8222
SWIDTH 250 0
DWIDTH 4 0
BBX 4 4 -1 -2
BITMAP
50
50
50
A0
ENDCHAR
STARTCHAR dagger
ENCODING 8224
SWIDTH 563 0
DWIDTH 9 0
BBX 6 13 2 -1
BITMAP
10
10
10
FC
20
20
20
20
20
40
40
40
40
ENDCHAR
STARTCHAR daggerdbl
ENCODING 8225
SWIDTH 563 0
DWIDTH 9 0
BBX 7 13 1 -1
BITMAP
08
08
08
7E
10
10
10
10
10
FC
20
20
20
ENDCHAR
STARTCHAR bullet
ENCODING 8226
SWIDTH 375 0
DWIDTH 6 0
BBX 3 3 1 4
BITMAP
E0
E0
E0
ENDCHAR
STARTCHAR ellipsis
ENCODING 8230
SWIDTH 1000 0
DWIDTH 16 0
BBX 13 2 1 0
BITMAP
8208
8208
ENDCHAR
STARTCHAR perthousand
ENCODING 8240
SWIDTH 1063 0
DWIDTH 17 0
BBX 16 11 1 0
BITMAP
3040
4880
8900
8A00
9400
6586
0A49
1451
2451
4492
830C
ENDCHAR
STARTCHAR minute
ENCODING 8242
SWIDTH 188 0
DWIDTH 3 0
BBX 2 4 1 7
BITMAP
40
40
80
80
ENDCHAR
STARTCHAR second
ENCODING 8243
SWIDTH 375 0
DWIDTH 6 0
BBX 5 4 1 7
BITMAP
48
48
90
90
ENDCHAR
STARTCHAR guilsinglleft
ENCODING 8249
SWIDTH 313 0
DWIDTH 5 0
BBX 4 7 1 1
BITMAP
10
20
40
80
80
40
20
ENDCHAR
STARTCHAR guilsinglright
ENCODING 8250
SWIDTH 313 0
DWIDTH 5 0
BBX 4 7 0 1
BITMAP
40
20
10
10
20
40
80
ENDCHAR
STARTCHAR exclamdbl
ENCODING 8252
SWIDTH 500 0
DWIDTH 8 0
BBX 7 11 1 0
BITMAP
22
22
22
44
44
44
44
44
00
88
88
ENDCHAR
STARTCHAR uni203E
ENCODING 8254
SWIDTH 313 0
DWIDTH 5 0
BBX 6 1 0 12
BITMAP
FC
ENDCHAR
STARTCHAR fraction
ENCODING 8260
SWIDTH 188 0
DWIDTH 3 0
BBX 9 11 -4 0
BITMAP
0080
0100
0200
0200
0400
0800
1000
1000
2000
4000
8000
ENDCHAR
STARTCHAR uni207F
ENCODING 8319
SWIDTH 375 0
DWIDTH 6 0
BBX 5 5 1 5
BITMAP
70
48
48
88
90
ENDCHAR
STARTCHAR franc
ENCODING 8355
SWIDTH 563 0
DWIDTH 9 0
BBX 9 11 1 0
BITMAP
1F80
1000
1000
2000
2000
3F00
2000
2000
F800
4000
4000
ENDCHAR
STARTCHAR lira
ENCODING 8356
SWIDTH 563 0
DWIDTH 9 0
BBX 8 11 1 0
BITMAP
0E
11
10
20
7C
20
7C
20
42
44
F8
ENDCHAR
STARTCHAR peseta
ENCODING 8359
SWIDTH 1125 0
DWIDTH 18 0
BBX 17 11 1 0
BITMAP
3E0000
210000
214000
414000
42F700
7C4880
404800
408600
808100
809100
806E00
ENDCHAR
STARTCHAR Euro
ENCODING 8364
SWIDTH 563 0
DWIDTH 9 0
BBX 8 11 1 0
BITMAP
0E
11
21
20
FC
40
F8
40
42
44
38
ENDCHAR
STARTCHAR afii61248
ENCODING 8453
SWIDTH 750 0
DWIDTH 12 0
BBX 11 11 1 0
BITMAP
3040
4880
8100
8100
9200
64C0
0920
1220
1220
2240
4180
ENDCHAR
STARTCHAR afii61289
ENCODING 8467
SWIDTH 313 0
DWIDTH 5 0
BBX 6 11 0 0
BITMAP
18
24
24
24
28
30
60
C0
40
48
30
ENDCHAR
STARTCHAR afii61352
ENCODING 8470
SWIDTH 1063 0
DWIDTH 17 0
BBX 15 11 1 0
BITMAP
2040
2040
3040
508C
4892
48A2
44A2
44A4
8318
8100
817C
ENDCHAR
STARTCHAR trademark
ENCODING 8482
SWIDTH 1000 0
DWIDTH 16 0
BBX 13 6 1 5
BITMAP
FA08
2318
2318
22A8
22A8
2248
ENDCHAR
STARTCHAR u2126
ENCODING 8486
SWIDTH 750 0
DWIDTH 12 0
BBX 10 11 1 0
BITMAP
1E00
6180
4080
8040
8040
8040
8040
4080
3300
1200
F3C0
ENDCHAR
STARTCHAR estimated
ENCODING 8494
SWIDTH 625 0
DWIDTH 10 0
BBX 8 9 1 0
BITMAP
3C
42
C3
C3
FF
C0
C0
42
3C
ENDCHAR
STARTCHAR oneeighth
ENCODING 8539
SWIDTH 813 0
DWIDTH 13 0
BBX 12 11 0 0
BITMAP
3020
5040
1080
1080
2160
2290
FC90
04E0
0910
1110
20E0
ENDCHAR
STARTCHAR threeeighths
ENCODING 8540
SWIDTH 813 0
DWIDTH 13 0
BBX 12 11 0 0
BITMAP
3020
4840
0880
3080
1160
9290
6490
04E0
0910
1110
20E0
ENDCHAR
STARTCHAR fiveeighths
ENCODING 8541
SWIDTH 813 0
DWIDTH 13 0
BBX 11 11 1 0
BITMAP
3840
4080
6100
1100
12C0
9520
6920
09C0
1220
2220
41C0
ENDCHAR
STARTCHAR seveneighths
ENCODING 8542
SWIDTH 813 0
DWIDTH 13 0
BBX 11 11 1 0
BITMAP
F880
0900
1200
2200
44C0
8920
9120
10C0
2320
4220
81C0
ENDCHAR
STARTCHAR arrowleft
ENCODING 8592
SWIDTH 1000 0
DWIDTH 16 0
BBX 9 5 3 0
BITMAP
2000
4000
FF80
4000
2000
ENDCHAR
STARTCHAR arrowup
ENCODING 8593
SWIDTH 500 0
DWIDTH 8 0
BBX 5 9 2 0
BITMAP
20
70
A8
20
20
20
20
20
20
ENDCHAR
STARTCHAR arrowright
ENCODING 8594
SWIDTH 1000 0
DWIDTH 16 0
BBX 9 5 3 0
BITMAP
0200
0100
FF80
0100
0200
ENDCHAR
STARTCHAR arrowdown
ENCODING 8595
SWIDTH 500 0
DWIDTH 8 0
BBX 5 9 2 0
BITMAP
20
20
20
20
20
20
A8
70
20
ENDCHAR
STARTCHAR arrowboth
ENCODING 8596
SWIDTH 1000 0
DWIDTH 16 0
BBX 9 5 3 0
BITMAP
2200
4100
FF80
4100
2200
ENDCHAR
STARTCHAR arrowupdn
ENCODING 8597
SWIDTH 500 0
DWIDTH 8 0
BBX 5 9 2 0
BITMAP
20
70
A8
20
20
20
A8
70
20
ENDCHAR
STARTCHAR arrowupdnbse
ENCODING 8616
SWIDTH 500 0
DWIDTH 8 0
BBX 5 11 2 -2
BITMAP
20
70
A8
20
20
20
A8
70
20
00
F8
ENDCHAR
STARTCHAR partialdiff
ENCODING 8706
SWIDTH 500 0
DWIDTH 8 0
BBX 6 12 1 0
BITMAP
38
04
04
04
34
4C
44
84
84
88
88
70
ENDCHAR
STARTCHAR u2206
ENCODING 8710
SWIDTH 625 0
DWIDTH 10 0
BBX 9 11 1 0
BITMAP
0800
1400
1400
1400
2200
2200
4100
4100
4100
8080
FF80
ENDCHAR
STARTCHAR product
ENCODING 8719
SWIDTH 813 0
DWIDTH 13 0
BBX 9 15 2 -4
BITMAP
FF80
8080
8080
8080
8080
8080
8080
8080
8080
8080
8080
8080
8080
8080
8080
ENDCHAR
STARTCHAR summation
ENCODING 8721
SWIDTH 688 0
DWIDTH 11 0
BBX 8 15 2 -4
BITMAP
FF
80
40
20
10
08
04
02
04
08
10
20
40
80
FF
ENDCHAR
STARTCHAR minus
ENCODING 8722
SWIDTH 563 0
DWIDTH 9 0
BBX 7 1 1 5
BITMAP
FE
ENDCHAR
STARTCHAR fraction
ENCODING 8725
SWIDTH 188 0
DWIDTH 3 0
BBX 9 11 -4 0
BITMAP
0080
0100
0200
0200
0400
0800
1000
1000
2000
4000
8000
ENDCHAR
STARTCHAR periodcentered
ENCODING 8729
SWIDTH 250 0
DWIDTH 4 0
BBX 1 2 1 4
BITMAP
80
80
ENDCHAR
STARTCHAR radical
ENCODING 8730
SWIDTH 563 0
DWIDTH 9 0
BBX 9 13 1 0
BITMAP
0080
0080
0100
0100
0100
0200
E200
2200
2400
1400
1400
0800
0800
ENDCHAR
STARTCHAR infinity
ENCODING 8734
SWIDTH 750 0
DWIDTH 12 0
BBX 9 5 2 3
BITMAP
6300
9480
8880
9480
6300
ENDCHAR
STARTCHAR orthogonal
ENCODING 8735
SWIDTH 1000 0
DWIDTH 16 0
BBX 10 10 3 0
BITMAP
8000
8000
8000
8000
8000
8000
8000
8000
8000
FFC0
ENDCHAR
STARTCHAR intersection
ENCODING 8745
SWIDTH 688 0
DWIDTH 11 0
BBX 7 8 2 0
BITMAP
38
44
82
82
82
82
82
82
ENDCHAR
STARTCHAR integral
ENCODING 8747
SWIDTH 250 0
DWIDTH 4 0
BBX 5 16 0 -4
BITMAP
18
20
20
20
20
20
20
20
20
20
20
20
20
20
20
C0
ENDCHAR
STARTCHAR approxequal
ENCODING 8776
SWIDTH 563 0
DWIDTH 9 0
BBX 7 6 1 3
BITMAP
60
92
0C
60
92
0C
ENDCHAR
STARTCHAR notequal
ENCODING 8800
SWIDTH 563 0
DWIDTH 9 0
BBX 7 9 1 1
BITMAP
04
04
FE
08
10
20
FE
40
40
ENDCHAR
STARTCHAR equivalence
ENCODING 8801
SWIDTH 563 0
DWIDTH 9 0
BBX 8 7 1 2
BITMAP
FF
00
00
FF
00
00
FF
ENDCHAR
STARTCHAR lessequal
ENCODING 8804
SWIDTH 563 0
DWIDTH 9 0
BBX 7 9 1 0
BITMAP
02
1C
60
80
60
1C
02
00
FE
ENDCHAR
STARTCHAR greaterequal
ENCODING 8805
SWIDTH 563 0
DWIDTH 9 0
BBX 7 9 1 0
BITMAP
80
70
0C
02
0C
70
80
00
FE
ENDCHAR
STARTCHAR house
ENCODING 8962
SWIDTH 625 0
DWIDTH 10 0
BBX 7 9 1 0
BITMAP
10
28
44
82
82
82
82
82
FE
ENDCHAR
STARTCHAR revlogicalnot
ENCODING 8976
SWIDTH 563 0
DWIDTH 9 0
BBX 8 4 1 2
BITMAP
FF
80
80
80
ENDCHAR
STARTCHAR integraltp
ENCODING 8992
SWIDTH 625 0
DWIDTH 10 0
BBX 3 18 4 -5
BITMAP
60
A0
80
80
80
80
80
80
80
80
80
80
80
80
80
80
80
80
ENDCHAR
STARTCHAR integralbt
ENCODING 8993
SWIDTH 625 0
DWIDTH 10 0
BBX 3 18 2 -5
BITMAP
20
20
20
20
20
20
20
20
20
20
20
20
20
20
20
20
A0
C0
ENDCHAR
STARTCHAR SF100000
ENCODING 9472
SWIDTH 688 0
DWIDTH 11 0
BBX 11 1 0 4
BITMAP
FFE0
ENDCHAR
STARTCHAR SF110000
ENCODING 9474
SWIDTH 625 0
DWIDTH 10 0
BBX 1 20 5 -5
BITMAP
80
80
80
80
80
80
80
80
80
80
80
80
80
80
80
80
80
80
80
80
ENDCHAR
STARTCHAR SF010000
ENCODING 9484
SWIDTH 688 0
DWIDTH 11 0
BBX 6 10 5 -5
BITMAP
FC
80
80
80
80
80
80
80
80
80
ENDCHAR
STARTCHAR SF030000
ENCODING 9488
SWIDTH 688 0
DWIDTH 11 0
BBX 6 10 0 -5
BITMAP
FC
04
04
04
04
04
04
04
04
04
ENDCHAR
STARTCHAR SF020000
ENCODING 9492
SWIDTH 688 0
DWIDTH 11 0
BBX 6 11 5 4
BITMAP
80
80
80
80
80
80
80
80
80
80
FC
ENDCHAR
STARTCHAR SF040000
ENCODING 9496
SWIDTH 688 0
DWIDTH 11 0
BBX 6 11 0 4
BITMAP
04
04
04
04
04
04
04
04
04
04
FC
ENDCHAR
STARTCHAR SF080000
ENCODING 9500
SWIDTH 688 0
DWIDTH 11 0
BBX 6 20 5 -5
BITMAP
80
80
80
80
80
80
80
80
80
80
FC
80
80
80
80
80
80
80
80
80
ENDCHAR
STARTCHAR SF090000
ENCODING 9508
SWIDTH 688 0
DWIDTH 11 0
BBX 6 20 0 -5
BITMAP
04
04
04
04
04
04
04
04
04
04
FC
04
04
04
04
04
04
04
04
04
ENDCHAR
STARTCHAR SF060000
ENCODING 9516
SWIDTH 688 0
DWIDTH 11 0
BBX 11 10 0 -5
BITMAP
FFE0
0400
0400
0400
0400
0400
0400
0400
0400
0400
ENDCHAR
STARTCHAR SF070000
ENCODING 9524
SWIDTH 688 0
DWIDTH 11 0
BBX 11 11 0 4
BITMAP
0400
0400
0400
0400
0400
0400
0400
0400
0400
0400
FFE0
ENDCHAR
STARTCHAR SF050000
ENCODING 9532
SWIDTH 688 0
DWIDTH 11 0
BBX 11 20 0 -5
BITMAP
0400
0400
0400
0400
0400
0400
0400
0400
0400
0400
FFE0
0400
0400
0400
0400
0400
0400
0400
0400
0400
ENDCHAR
STARTCHAR SF430000
ENCODING 9552
SWIDTH 688 0
DWIDTH 11 0
BBX 11 4 0 3
BITMAP
FFE0
0000
0000
FFE0
ENDCHAR
STARTCHAR SF240000
ENCODING 9553
SWIDTH 688 0
DWIDTH 11 0
BBX 4 20 4 -5
BITMAP
90
90
90
90
90
90
90
90
90
90
90
90
90
90
90
90
90
90
90
90
ENDCHAR
STARTCHAR SF510000
ENCODING 9554
SWIDTH 688 0
DWIDTH 11 0
BBX 6 12 5 -5
BITMAP
FC
80
80
FC
80
80
80
80
80
80
80
80
ENDCHAR
STARTCHAR SF520000
ENCODING 9555
SWIDTH 688 0
DWIDTH 11 0
BBX 7 10 4 -5
BITMAP
FE
90
90
90
90
90
90
90
90
90
ENDCHAR
STARTCHAR SF390000
ENCODING 9556
SWIDTH 688 0
DWIDTH 11 0
BBX 7 12 4 -5
BITMAP
FE
80
80
9E
90
90
90
90
90
90
90
90
ENDCHAR
STARTCHAR SF220000
ENCODING 9557
SWIDTH 688 0
DWIDTH 11 0
BBX 6 12 0 -5
BITMAP
FC
04
04
FC
04
04
04
04
04
04
04
04
ENDCHAR
STARTCHAR SF210000
ENCODING 9558
SWIDTH 688 0
DWIDTH 11 0
BBX 8 10 0 -5
BITMAP
FF
09
09
09
09
09
09
09
09
09
ENDCHAR
STARTCHAR SF250000
ENCODING 9559
SWIDTH 688 0
DWIDTH 11 0
BBX 8 12 0 -5
BITMAP
FF
01
01
F9
09
09
09
09
09
09
09
09
ENDCHAR
STARTCHAR SF500000
ENCODING 9560
SWIDTH 688 0
DWIDTH 11 0
BBX 6 12 5 3
BITMAP
80
80
80
80
80
80
80
80
FC
80
80
FC
ENDCHAR
STARTCHAR SF490000
ENCODING 9561
SWIDTH 688 0
DWIDTH 11 0
BBX 7 11 4 4
BITMAP
90
90
90
90
90
90
90
90
90
90
FE
ENDCHAR
STARTCHAR SF380000
ENCODING 9562
SWIDTH 688 0
DWIDTH 11 0
BBX 7 12 4 3
BITMAP
90
90
90
90
90
90
90
90
9E
80
80
FE
ENDCHAR
STARTCHAR SF280000
ENCODING 9563
SWIDTH 688 0
DWIDTH 11 0
BBX 6 12 0 3
BITMAP
04
04
04
04
04
04
04
04
FC
04
04
FC
ENDCHAR
STARTCHAR SF270000
ENCODING 9564
SWIDTH 688 0
DWIDTH 11 0
BBX 8 11 0 4
BITMAP
09
09
09
09
09
09
09
09
09
09
FF
ENDCHAR
STARTCHAR SF260000
ENCODING 9565
SWIDTH 688 0
DWIDTH 11 0
BBX 8 12 0 3
BITMAP
09
09
09
09
09
09
09
09
F9
01
01
FF
ENDCHAR
STARTCHAR SF360000
ENCODING 9566
SWIDTH 688 0
DWIDTH 11 0
BBX 6 20 5 -5
BITMAP
80
80
80
80
80
80
80
80
FC
80
80
FC
80
80
80
80
80
80
80
80
ENDCHAR
STARTCHAR SF370000
ENCODING 9567
SWIDTH 688 0
DWIDTH 11 0
BBX 7 20 4 -5
BITMAP
90
90
90
90
90
90
90
90
90
90
9E
90
90
90
90
90
90
90
90
90
ENDCHAR
STARTCHAR SF420000
ENCODING 9568
SWIDTH 688 0
DWIDTH 11 0
BBX 7 20 4 -5
BITMAP
90
90
90
90
90
90
90
90
9E
80
80
9E
90
90
90
90
90
90
90
90
ENDCHAR
STARTCHAR SF190000
ENCODING 9569
SWIDTH 688 0
DWIDTH 11 0
BBX 6 20 0 -5
BITMAP
04
04
04
04
04
04
04
04
FC
04
04
FC
04
04
04
04
04
04
04
04
ENDCHAR
STARTCHAR SF200000
ENCODING 9570
SWIDTH 688 0
DWIDTH 11 0
BBX 8 20 0 -5
BITMAP
09
09
09
09
09
09
09
09
09
09
F9
09
09
09
09
09
09
09
09
09
ENDCHAR
STARTCHAR SF230000
ENCODING 9571
SWIDTH 688 0
DWIDTH 11 0
BBX 8 20 0 -5
BITMAP
09
09
09
09
09
09
09
09
F9
01
01
F9
09
09
09
09
09
09
09
09
ENDCHAR
STARTCHAR SF470000
ENCODING 9572
SWIDTH 688 0
DWIDTH 11 0
BBX 11 12 0 -5
BITMAP
FFE0
0000
0000
FFE0
0400
0400
0400
0400
0400
0400
0400
0400
ENDCHAR
STARTCHAR SF480000
ENCODING 9573
SWIDTH 688 0
DWIDTH 11 0
BBX 11 10 0 -5
BITMAP
FFE0
0900
0900
0900
0900
0900
0900
0900
0900
0900
ENDCHAR
STARTCHAR SF410000
ENCODING 9574
SWIDTH 688 0
DWIDTH 11 0
BBX 11 12 0 -5
BITMAP
FFE0
0000
0000
F9E0
0900
0900
0900
0900
0900
0900
0900
0900
ENDCHAR
STARTCHAR SF450000
ENCODING 9575
SWIDTH 688 0
DWIDTH 11 0
BBX 11 12 0 3
BITMAP
0400
0400
0400
0400
0400
0400
0400
0400
FFE0
0000
0000
FFE0
ENDCHAR
STARTCHAR SF460000
ENCODING 9576
SWIDTH 688 0
DWIDTH 11 0
BBX 11 11 0 4
BITMAP
0900
0900
0900
0900
0900
0900
0900
0900
0900
0900
FFE0
ENDCHAR
STARTCHAR SF400000
ENCODING 9577
SWIDTH 688 0
DWIDTH 11 0
BBX 11 12 0 3
BITMAP
0900
0900
0900
0900
0900
0900
0900
0900
F9E0
0000
0000
FFE0
ENDCHAR
STARTCHAR SF540000
ENCODING 9578
SWIDTH 688 0
DWIDTH 11 0
BBX 11 20 0 -5
BITMAP
0400
0400
0400
0400
0400
0400
0400
0400
FFE0
0400
0400
FFE0
0400
0400
0400
0400
0400
0400
0400
0400
ENDCHAR
STARTCHAR SF530000
ENCODING 9579
SWIDTH 688 0
DWIDTH 11 0
BBX 11 20 0 -5
BITMAP
0900
0900
0900
0900
0900
0900
0900
0900
0900
0900
FFE0
0900
0900
0900
0900
0900
0900
0900
0900
0900
ENDCHAR
STARTCHAR SF440000
ENCODING 9580
SWIDTH 688 0
DWIDTH 11 0
BBX 11 20 0 -5
BITMAP
0900
0900
0900
0900
0900
0900
0900
0900
F9E0
0000
0000
F9E0
0900
0900
0900
0900
0900
0900
0900
0900
ENDCHAR
STARTCHAR upblock
ENCODING 9600
SWIDTH 688 0
DWIDTH 11 0
BBX 11 10 0 5
BITMAP
FFE0
FFE0
FFE0
FFE0
FFE0
FFE0
FFE0
FFE0
FFE0
FFE0
ENDCHAR
STARTCHAR dnblock
ENCODING 9604
SWIDTH 688 0
DWIDTH 11 0
BBX 11 10 0 -5
BITMAP
FFE0
FFE0
FFE0
FFE0
FFE0
FFE0
FFE0
FFE0
FFE0
FFE0
ENDCHAR
STARTCHAR block
ENCODING 9608
SWIDTH 688 0
DWIDTH 11 0
BBX 11 20 0 -5
BITMAP
FFE0
FFE0
FFE0
FFE0
FFE0
FFE0
FFE0
FFE0
FFE0
FFE0
FFE0
FFE0
FFE0
FFE0
FFE0
FFE0
FFE0
FFE0
FFE0
FFE0
ENDCHAR
STARTCHAR lfblock
ENCODING 9612
SWIDTH 688 0
DWIDTH 11 0
BBX 6 20 0 -5
BITMAP
FC
FC
FC
FC
FC
FC
FC
FC
FC
FC
FC
FC
FC
FC
FC
FC
FC
FC
FC
FC
ENDCHAR
STARTCHAR rtblock
ENCODING 9616
SWIDTH 688 0
DWIDTH 11 0
BBX 5 20 6 -5
BITMAP
F8
F8
F8
F8
F8
F8
F8
F8
F8
F8
F8
F8
F8
F8
F8
F8
F8
F8
F8
F8
ENDCHAR
STARTCHAR ltshade
ENCODING 9617
SWIDTH 688 0
DWIDTH 11 0
BBX 10 17 1 -4
BITMAP
9240
2480
0000
9240
2480
0000
9240
2480
0000
9240
2480
0000
9240
2480
0000
9240
2480
ENDCHAR
STARTCHAR shade
ENCODING 9618
SWIDTH 688 0
DWIDTH 11 0
BBX 11 17 0 -4
BITMAP
0000
96A0
0000
6940
96A0
0000
6940
96A0
0000
6940
96A0
0000
6940
96A0
0000
6940
96A0
ENDCHAR
STARTCHAR dkshade
ENCODING 9619
SWIDTH 750 0
DWIDTH 12 0
BBX 12 18 0 -5
BITMAP
FFF0
B5A0
FFF0
FFF0
B5A0
FFF0
6B50
B5A0
FFF0
6B50
B5A0
FFF0
6B50
B5A0
FFF0
6B50
B5A0
FFF0
ENDCHAR
STARTCHAR filledbox
ENCODING 9632
SWIDTH 625 0
DWIDTH 10 0
BBX 8 8 1 1
BITMAP
FF
FF
FF
FF
FF
FF
FF
FF
ENDCHAR
STARTCHAR H22073
ENCODING 9633
SWIDTH 625 0
DWIDTH 10 0
BBX 10 10 0 0
BITMAP
FFC0
8040
8040
8040
8040
8040
8040
8040
8040
FFC0
ENDCHAR
STARTCHAR H18543
ENCODING 9642
SWIDTH 375 0
DWIDTH 6 0
BBX 4 4 1 3
BITMAP
F0
F0
F0
F0
ENDCHAR
STARTCHAR H18551
ENCODING 9643
SWIDTH 375 0
DWIDTH 6 0
BBX 4 4 1 3
BITMAP
F0
90
90
F0
ENDCHAR
STARTCHAR filledrect
ENCODING 9644
SWIDTH 1000 0
DWIDTH 16 0
BBX 16 5 0 0
BITMAP
FFFF
FFFF
FFFF
FFFF
FFFF
ENDCHAR
STARTCHAR triagup
ENCODING 9650
SWIDTH 1000 0
DWIDTH 16 0
BBX 10 9 3 0
BITMAP
0800
0C00
1C00
1E00
3E00
3F00
7F00
7F80
FF80
ENDCHAR
STARTCHAR triagrt
ENCODING 9658
SWIDTH 1000 0
DWIDTH 16 0
BBX 10 9 3 0
BITMAP
C000
F000
FC00
FF00
FFC0
FF00
FC00
F000
C000
ENDCHAR
STARTCHAR triagdn
ENCODING 9660
SWIDTH 1000 0
DWIDTH 16 0
BBX 10 9 3 0
BITMAP
7F80
7F80
3F00
3F00
1E00
1E00
0C00
0C00
0000
ENDCHAR
STARTCHAR triaglf
ENCODING 9668
SWIDTH 1000 0
DWIDTH 16 0
BBX 10 9 3 0
BITMAP
00C0
03C0
0FC0
3FC0
FFC0
3FC0
0FC0
03C0
00C0
ENDCHAR
STARTCHAR lozenge
ENCODING 9674
SWIDTH 500 0
DWIDTH 8 0
BBX 7 11 1 0
BITMAP
10
28
28
44
44
82
44
44
28
28
10
ENDCHAR
STARTCHAR circle
ENCODING 9675
SWIDTH 625 0
DWIDTH 10 0
BBX 7 7 1 1
BITMAP
38
44
82
82
82
44
38
ENDCHAR
STARTCHAR H18533
ENCODING 9679
SWIDTH 625 0
DWIDTH 10 0
BBX 7 7 1 1
BITMAP
38
7C
FE
FE
FE
7C
38
ENDCHAR
STARTCHAR invbullet
ENCODING 9688
SWIDTH 625 0
DWIDTH 10 0
BBX 9 9 0 0
BITMAP
FF80
E380
C180
8080
8080
8080
C180
E380
FF80
ENDCHAR
STARTCHAR invcircle
ENCODING 9689
SWIDTH 625 0
DWIDTH 10 0
BBX 9 9 0 0
BITMAP
FF80
E380
DD80
BE80
BE80
BE80
DD80
E380
FF80
ENDCHAR
STARTCHAR openbullet
ENCODING 9702
SWIDTH 375 0
DWIDTH 6 0
BBX 4 4 1 3
BITMAP
60
90
90
60
ENDCHAR
STARTCHAR smileface
ENCODING 9786
SWIDTH 1000 0
DWIDTH 16 0
BBX 10 10 3 0
BITMAP
1E00
6180
4080
A140
8040
8040
A140
5E80
6180
1E00
ENDCHAR
STARTCHAR invsmileface
ENCODING 9787
SWIDTH 1063 0
DWIDTH 17 0
BBX 10 10 4 0
BITMAP
1E00
7F80
7F80
DEC0
FFC0
FFC0
DEC0
6180
7F80
1E00
ENDCHAR
STARTCHAR sun
ENCODING 9788
SWIDTH 938 0
DWIDTH 15 0
BBX 11 11 2 -2
BITMAP
0400
4440
2E80
1100
2080
E0E0
2080
1100
2E80
4440
0400
ENDCHAR
STARTCHAR female
ENCODING 9792
SWIDTH 750 0
DWIDTH 12 0
BBX 5 9 4 0
BITMAP
70
88
88
88
70
20
F8
20
20
ENDCHAR
STARTCHAR male
ENCODING 9794
SWIDTH 750 0
DWIDTH 12 0
BBX 7 7 3 1
BITMAP
06
06
78
88
88
88
70
ENDCHAR
STARTCHAR spade
ENCODING 9824
SWIDTH 563 0
DWIDTH 9 0
BBX 7 10 0 0
BITMAP
10
10
38
7C
7C
FE
FE
FE
10
38
ENDCHAR
STARTCHAR club
ENCODING 9827
SWIDTH 688 0
DWIDTH 11 0
BBX 10 10 0 0
BITMAP
1C00
1E00
1E00
7F80
FFC0
FFC0
FFC0
7B80
0C00
1E00
ENDCHAR
STARTCHAR heart
ENCODING 9829
SWIDTH 625 0
DWIDTH 10 0
BBX 9 9 0 0
BITMAP
7700
F780
FF80
7F00
7F00
3E00
1C00
0800
0800
ENDCHAR
STARTCHAR diamond
ENCODING 9830
SWIDTH 500 0
DWIDTH 8 0
BBX 7 9 1 0
BITMAP
10
38
38
7C
FE
7C
38
38
10
ENDCHAR
STARTCHAR musicalnote
ENCODING 9834
SWIDTH 500 0
DWIDTH 8 0
BBX 5 9 2 0
BITMAP
20
30
30
28
28
28
20
E0
C0
ENDCHAR
STARTCHAR musicalnotedbl
ENCODING 9835
SWIDTH 750 0
DWIDTH 12 0
BBX 8 9 2 0
BITMAP
03
3D
27
39
21
21
21
E7
C6
ENDCHAR
STARTCHAR uniF001
ENCODING 61441
SWIDTH 500 0
DWIDTH 8 0
BBX 7 12 1 0
BITMAP
1A
20
20
F4
44
44
44
44
44
88
88
88
ENDCHAR
STARTCHAR uniF002
ENCODING 61442
SWIDTH 500 0
DWIDTH 8 0
BBX 7 12 1 0
BITMAP
1A
22
22
F4
44
44
44
44
44
88
88
88
ENDCHAR
STARTCHAR uniF005
ENCODING 61445
SWIDTH 313 0
DWIDTH 5 0
BBX 3 3 1 -4
BITMAP
40
20
C0
ENDCHAR
STARTCHAR uniF001
ENCODING 64257
SWIDTH 500 0
DWIDTH 8 0
BBX 7 12 1 0
BITMAP
1A
20
20
F4
44
44
44
44
44
88
88
88
ENDCHAR
STARTCHAR uniF002
ENCODING 64258
SWIDTH 500 0
DWIDTH 8 0
BBX 7 12 1 0
BITMAP
1A
22
22
F4
44
44
44
44
44
88
88
88
ENDCHAR
ENDFONT
