STARTFONT 2.1
FONT -unknown-Standard-Bold-R-Normal--18-180-75-75-P-0-ISO10646-1
SIZE 18 75 75
FONTBOUNDINGBOX 18 18 0 0
STARTPROPERTIES 5
FAMILY_NAME "Standard"
WEIGHT_NAME "Bold"
PIXEL_SIZE 18
FONT_ASCENT 14
FONT_DESCENT 4
ENDPROPERTIES
CHARS 662
STARTCHAR space
ENCODING 32
SWIDTH 278 0
DWIDTH 5 0
BBX 0 0 0 0
BITMAP
ENDCHAR
STARTCHAR exclam
ENCODING 33
SWIDTH 278 0
DWIDTH 5 0
BBX 3 12 1 0
BITMAP
E0
E0
E0
E0
E0
E0
E0
E0
00
E0
E0
E0
ENDCHAR
STARTCHAR quotedbl
ENCODING 34
SWIDTH 500 0
DWIDTH 9 0
BBX 7 4 1 8
BITMAP
EE
EE
EE
EE
ENDCHAR
STARTCHAR numbersign
ENCODING 35
SWIDTH 556 0
DWIDTH 10 0
BBX 10 12 0 0
BITMAP
0880
0880
1100
7FC0
1100
1100
2200
FF80
2200
2200
4400
4400
ENDCHAR
STARTCHAR dollar
ENCODING 36
SWIDTH 556 0
DWIDTH 10 0
BBX 9 14 0 -1
BITMAP
0800
3E00
FF00
EB80
E800
F800
7E00
1F00
0B80
0B80
EB80
FF00
3E00
0800
ENDCHAR
STARTCHAR percent
ENCODING 37
SWIDTH 944 0
DWIDTH 17 0
BBX 15 12 1 0
BITMAP
7830
CC60
CC60
CCC0
CC80
CDBC
7B66
0266
0666
0C66
0C66
183C
ENDCHAR
STARTCHAR ampersand
ENCODING 38
SWIDTH 722 0
DWIDTH 13 0
BBX 11 12 1 0
BITMAP
3E00
7F00
7700
7700
3C00
7180
F9C0
FD80
EF80
E780
FFE0
3CE0
ENDCHAR
STARTCHAR quotesingle
ENCODING 39
SWIDTH 222 0
DWIDTH 4 0
BBX 3 4 0 8
BITMAP
E0
E0
E0
E0
ENDCHAR
STARTCHAR parenleft
ENCODING 40
SWIDTH 333 0
DWIDTH 6 0
BBX 5 17 1 -4
BITMAP
38
70
70
70
E0
E0
E0
E0
E0
E0
E0
E0
E0
70
70
70
38
ENDCHAR
STARTCHAR parenright
ENCODING 41
SWIDTH 333 0
DWIDTH 6 0
BBX 5 17 1 -4
BITMAP
E0
70
70
70
38
38
38
38
38
38
38
38
38
70
70
70
E0
ENDCHAR
STARTCHAR asterisk
ENCODING 42
SWIDTH 389 0
DWIDTH 7 0
BBX 7 7 0 5
BITMAP
10
10
FE
FE
38
6C
44
ENDCHAR
STARTCHAR plus
ENCODING 43
SWIDTH 611 0
DWIDTH 11 0
BBX 8 8 1 2
BITMAP
18
18
18
FF
FF
18
18
18
ENDCHAR
STARTCHAR comma
ENCODING 44
SWIDTH 278 0
DWIDTH 5 0
BBX 3 6 1 -3
BITMAP
E0
E0
E0
60
60
C0
ENDCHAR
STARTCHAR hyphen
ENCODING 45
SWIDTH 333 0
DWIDTH 6 0
BBX 4 2 1 4
BITMAP
F0
F0
ENDCHAR
STARTCHAR period
ENCODING 46
SWIDTH 278 0
DWIDTH 5 0
BBX 3 3 1 0
BITMAP
E0
E0
E0
ENDCHAR
STARTCHAR slash
ENCODING 47
SWIDTH 278 0
DWIDTH 5 0
BBX 5 13 0 0
BITMAP
18
18
18
30
30
30
70
60
60
60
E0
C0
C0
ENDCHAR
STARTCHAR zero
ENCODING 48
SWIDTH 556 0
DWIDTH 10 0
BBX 8 12 1 0
BITMAP
3C
7E
E7
E7
E7
E7
E7
E7
E7
66
7E
3C
ENDCHAR
STARTCHAR one
ENCODING 49
SWIDTH 556 0
DWIDTH 10 0
BBX 9 12 1 0
BITMAP
3C00
7C00
DC00
9C00
1C00
1C00
1C00
1C00
1C00
1C00
FF80
FF80
ENDCHAR
STARTCHAR two
ENCODING 50
SWIDTH 556 0
DWIDTH 10 0
BBX 8 12 1 0
BITMAP
3C
7F
E7
E7
07
0E
1C
38
70
E0
FF
FF
ENDCHAR
STARTCHAR three
ENCODING 51
SWIDTH 556 0
DWIDTH 10 0
BBX 8 12 1 0
BITMAP
3C
7F
E7
07
07
1E
1E
07
07
E7
FF
3C
ENDCHAR
STARTCHAR four
ENCODING 52
SWIDTH 556 0
DWIDTH 10 0
BBX 10 12 0 0
BITMAP
0F00
0F00
1F00
1700
3700
6700
6700
C700
FFC0
FFC0
0700
0700
ENDCHAR
STARTCHAR five
ENCODING 53
SWIDTH 556 0
DWIDTH 10 0
BBX 8 12 1 0
BITMAP
FE
FE
C0
C0
FC
FE
E7
07
07
E7
7E
3C
ENDCHAR
STARTCHAR six
ENCODING 54
SWIDTH 556 0
DWIDTH 10 0
BBX 8 12 1 0
BITMAP
3E
7F
67
E0
EE
FF
E7
E7
E7
67
7E
3C
ENDCHAR
STARTCHAR seven
ENCODING 55
SWIDTH 556 0
DWIDTH 10 0
BBX 8 12 1 0
BITMAP
FF
FF
07
06
0E
0C
1C
1C
18
38
38
38
ENDCHAR
STARTCHAR eight
ENCODING 56
SWIDTH 556 0
DWIDTH 10 0
BBX 8 12 1 0
BITMAP
3C
FF
E7
E7
E7
7E
7E
E7
E7
E7
FF
3C
ENDCHAR
STARTCHAR nine
ENCODING 57
SWIDTH 556 0
DWIDTH 10 0
BBX 8 12 1 0
BITMAP
3C
7E
E7
E7
E7
E7
7F
77
07
E6
FE
7C
ENDCHAR
STARTCHAR colon
ENCODING 58
SWIDTH 389 0
DWIDTH 7 0
BBX 3 10 2 0
BITMAP
E0
E0
E0
00
00
00
00
E0
E0
E0
ENDCHAR
STARTCHAR semicolon
ENCODING 59
SWIDTH 389 0
DWIDTH 7 0
BBX 3 13 2 -3
BITMAP
E0
E0
E0
00
00
00
00
E0
E0
E0
60
60
C0
ENDCHAR
STARTCHAR less
ENCODING 60
SWIDTH 611 0
DWIDTH 11 0
BBX 9 10 1 1
BITMAP
0080
0780
1F00
F800
E000
E000
F800
1F00
0780
0080
ENDCHAR
STARTCHAR equal
ENCODING 61
SWIDTH 611 0
DWIDTH 11 0
BBX 9 6 1 3
BITMAP
FF80
FF80
0000
0000
FF80
FF80
ENDCHAR
STARTCHAR greater
ENCODING 62
SWIDTH 611 0
DWIDTH 11 0
BBX 9 10 1 1
BITMAP
8000
F000
7C00
0F80
0380
0380
0F80
7C00
F000
8000
ENDCHAR
STARTCHAR question
ENCODING 63
SWIDTH 611 0
DWIDTH 11 0
BBX 9 12 1 0
BITMAP
3E00
7F00
F380
E380
0380
0F00
0E00
1C00
0000
1C00
1C00
1C00
ENDCHAR
STARTCHAR at
ENCODING 64
SWIDTH 1000 0
DWIDTH 18 0
BBX 16 15 1 -3
BITMAP
03F0
0C0C
3006
21D2
4631
C431
8831
8821
8821
8862
8CE6
47BC
6000
3018
0FE0
ENDCHAR
STARTCHAR A
ENCODING 65
SWIDTH 722 0
DWIDTH 13 0
BBX 13 12 0 0
BITMAP
0F80
0F80
0D80
1DC0
1DC0
38E0
38E0
3FE0
7FF0
7070
7070
E038
ENDCHAR
STARTCHAR B
ENCODING 66
SWIDTH 722 0
DWIDTH 13 0
BBX 11 12 1 0
BITMAP
FF00
FFC0
E1C0
E1C0
E1C0
FF80
FFC0
E0E0
E0E0
E0E0
FFC0
FF80
ENDCHAR
STARTCHAR C
ENCODING 67
SWIDTH 722 0
DWIDTH 13 0
BBX 11 12 1 0
BITMAP
1F80
3FC0
71E0
E0C0
E000
E000
E000
E000
E0C0
71E0
3FC0
1F00
ENDCHAR
STARTCHAR D
ENCODING 68
SWIDTH 722 0
DWIDTH 13 0
BBX 11 12 1 0
BITMAP
FF00
FF80
E1C0
E1E0
E0E0
E0E0
E0E0
E0E0
E1E0
E1C0
FF80
FF00
ENDCHAR
STARTCHAR E
ENCODING 69
SWIDTH 667 0
DWIDTH 12 0
BBX 10 12 1 0
BITMAP
FFC0
FFC0
E000
E000
E000
FF80
FF80
E000
E000
E000
FFC0
FFC0
ENDCHAR
STARTCHAR F
ENCODING 70
SWIDTH 611 0
DWIDTH 11 0
BBX 9 12 1 0
BITMAP
FF80
FF80
E000
E000
E000
FF80
FF80
E000
E000
E000
E000
E000
ENDCHAR
STARTCHAR G
ENCODING 71
SWIDTH 778 0
DWIDTH 14 0
BBX 12 12 1 0
BITMAP
1F80
3FE0
70F0
F060
E000
E000
E1F0
E1F0
F070
7070
3FE0
1F80
ENDCHAR
STARTCHAR H
ENCODING 72
SWIDTH 722 0
DWIDTH 13 0
BBX 11 12 1 0
BITMAP
E0E0
E0E0
E0E0
E0E0
E0E0
FFE0
FFE0
E0E0
E0E0
E0E0
E0E0
E0E0
ENDCHAR
STARTCHAR I
ENCODING 73
SWIDTH 278 0
DWIDTH 5 0
BBX 3 12 1 0
BITMAP
E0
E0
E0
E0
E0
E0
E0
E0
E0
E0
E0
E0
ENDCHAR
STARTCHAR J
ENCODING 74
SWIDTH 556 0
DWIDTH 10 0
BBX 9 12 0 0
BITMAP
0F80
0F80
0380
0380
0380
0380
0380
0380
E380
F380
7F00
3E00
ENDCHAR
STARTCHAR K
ENCODING 75
SWIDTH 722 0
DWIDTH 13 0
BBX 12 12 1 0
BITMAP
E070
E0E0
E380
E700
EE00
FE00
FF00
E300
E380
E1C0
E0E0
E070
ENDCHAR
STARTCHAR L
ENCODING 76
SWIDTH 611 0
DWIDTH 11 0
BBX 9 12 1 0
BITMAP
E000
E000
E000
E000
E000
E000
E000
E000
E000
E000
FF80
FF80
ENDCHAR
STARTCHAR M
ENCODING 77
SWIDTH 833 0
DWIDTH 15 0
BBX 13 12 1 0
BITMAP
F078
F8F8
F8F8
F8F8
E8F8
EDB8
EDB8
EDB8
E538
E738
E738
E738
ENDCHAR
STARTCHAR N
ENCODING 78
SWIDTH 722 0
DWIDTH 13 0
BBX 11 12 1 0
BITMAP
F0E0
F0E0
F8E0
F8E0
ECE0
ECE0
E6E0
E6E0
E3E0
E3E0
E1E0
E1E0
ENDCHAR
STARTCHAR O
ENCODING 79
SWIDTH 778 0
DWIDTH 14 0
BBX 12 12 1 0
BITMAP
1F80
3FC0
70E0
E0F0
E070
E070
E070
E070
F0F0
70E0
3FC0
1F80
ENDCHAR
STARTCHAR P
ENCODING 80
SWIDTH 667 0
DWIDTH 12 0
BBX 10 12 1 0
BITMAP
FF00
FF80
E1C0
E1C0
E1C0
FF80
FF00
E000
E000
E000
E000
E000
ENDCHAR
STARTCHAR Q
ENCODING 81
SWIDTH 778 0
DWIDTH 14 0
BBX 12 15 1 -3
BITMAP
1F80
3FC0
70E0
E0F0
E070
E070
E070
E070
F0F0
70E0
3FE0
1F80
0700
03E0
01E0
ENDCHAR
STARTCHAR R
ENCODING 82
SWIDTH 722 0
DWIDTH 13 0
BBX 12 12 1 0
BITMAP
FF80
FFC0
E0E0
E0E0
E0E0
FFC0
FF00
E380
E1C0
E0C0
E0E0
E070
ENDCHAR
STARTCHAR S
ENCODING 83
SWIDTH 667 0
DWIDTH 12 0
BBX 10 12 1 0
BITMAP
1F00
3FC0
71C0
7000
7800
3F00
0F80
03C0
E1C0
F1C0
7F80
3F00
ENDCHAR
STARTCHAR T
ENCODING 84
SWIDTH 611 0
DWIDTH 11 0
BBX 9 12 1 0
BITMAP
FF80
FF80
1C00
1C00
1C00
1C00
1C00
1C00
1C00
1C00
1C00
1C00
ENDCHAR
STARTCHAR U
ENCODING 85
SWIDTH 722 0
DWIDTH 13 0
BBX 11 12 1 0
BITMAP
E0E0
E0E0
E0E0
E0E0
E0E0
E0E0
E0E0
E0E0
E0E0
F1E0
7FC0
1F00
ENDCHAR
STARTCHAR V
ENCODING 86
SWIDTH 722 0
DWIDTH 13 0
BBX 11 12 1 0
BITMAP
E0E0
E0E0
60C0
71C0
71C0
3180
3980
1B00
1B00
1B00
0E00
0E00
ENDCHAR
STARTCHAR W
ENCODING 87
SWIDTH 944 0
DWIDTH 17 0
BBX 17 12 0 0
BITMAP
C1C380
E1C300
E3C300
636700
636700
736600
366600
363600
363E00
3E3C00
1C3C00
1C3C00
ENDCHAR
STARTCHAR X
ENCODING 88
SWIDTH 667 0
DWIDTH 12 0
BBX 12 12 0 0
BITMAP
E070
70E0
39C0
1F80
0F80
0F00
0F00
1F80
39C0
30E0
70E0
E070
ENDCHAR
STARTCHAR Y
ENCODING 89
SWIDTH 722 0
DWIDTH 13 0
BBX 11 12 1 0
BITMAP
E0E0
60C0
71C0
3B80
3B80
1F00
0E00
0E00
0E00
0E00
0E00
0E00
ENDCHAR
STARTCHAR Z
ENCODING 90
SWIDTH 556 0
DWIDTH 10 0
BBX 8 12 1 0
BITMAP
FF
FF
07
0E
0C
1C
38
30
70
E0
FF
FF
ENDCHAR
STARTCHAR bracketleft
ENCODING 91
SWIDTH 333 0
DWIDTH 6 0
BBX 5 17 1 -4
BITMAP
F8
E0
E0
E0
E0
E0
E0
E0
E0
E0
E0
E0
E0
E0
E0
E0
F8
ENDCHAR
STARTCHAR backslash
ENCODING 92
SWIDTH 278 0
DWIDTH 5 0
BBX 5 13 0 0
BITMAP
C0
C0
C0
60
60
60
70
30
30
30
38
18
18
ENDCHAR
STARTCHAR bracketright
ENCODING 93
SWIDTH 333 0
DWIDTH 6 0
BBX 5 17 1 -4
BITMAP
F8
38
38
38
38
38
38
38
38
38
38
38
38
38
38
38
F8
ENDCHAR
STARTCHAR asciicircum
ENCODING 94
SWIDTH 611 0
DWIDTH 11 0
BBX 9 8 1 4
BITMAP
1C00
3600
3600
3600
6300
6300
C180
C180
ENDCHAR
STARTCHAR underscore
ENCODING 95
SWIDTH 556 0
DWIDTH 10 0
BBX 10 1 0 -3
BITMAP
FFC0
ENDCHAR
STARTCHAR grave
ENCODING 96
SWIDTH 333 0
DWIDTH 6 0
BBX 4 3 1 11
BITMAP
C0
60
30
ENDCHAR
STARTCHAR a
ENCODING 97
SWIDTH 556 0
DWIDTH 10 0
BBX 9 10 1 0
BITMAP
3C00
7F00
E700
0700
7F00
FF00
E700
E700
FF80
7380
ENDCHAR
STARTCHAR b
ENCODING 98
SWIDTH 611 0
DWIDTH 11 0
BBX 9 13 1 0
BITMAP
E000
E000
E000
EE00
FF00
F380
E380
E380
E380
E380
F780
FF00
EE00
ENDCHAR
STARTCHAR c
ENCODING 99
SWIDTH 556 0
DWIDTH 10 0
BBX 8 10 1 0
BITMAP
3C
7E
E7
E0
E0
E0
E0
E7
7E
3C
ENDCHAR
STARTCHAR d
ENCODING 100
SWIDTH 611 0
DWIDTH 11 0
BBX 9 13 1 0
BITMAP
0380
0380
0380
3B80
7F80
E780
E380
E380
E380
E380
F780
7F80
3B80
ENDCHAR
STARTCHAR e
ENCODING 101
SWIDTH 611 0
DWIDTH 11 0
BBX 9 10 1 0
BITMAP
3E00
7F00
E300
E380
FF80
FF80
E000
E380
7F00
3E00
ENDCHAR
STARTCHAR f
ENCODING 102
SWIDTH 333 0
DWIDTH 6 0
BBX 6 13 0 0
BITMAP
3C
7C
70
FC
FC
70
70
70
70
70
70
70
70
ENDCHAR
STARTCHAR g
ENCODING 103
SWIDTH 611 0
DWIDTH 11 0
BBX 9 14 1 -4
BITMAP
3B80
7F80
F780
E380
E380
E380
E380
F780
7F80
3B80
0380
E380
7F00
3E00
ENDCHAR
STARTCHAR h
ENCODING 104
SWIDTH 611 0
DWIDTH 11 0
BBX 9 13 1 0
BITMAP
E000
E000
E000
EF00
FF80
F380
E380
E380
E380
E380
E380
E380
E380
ENDCHAR
STARTCHAR i
ENCODING 105
SWIDTH 278 0
DWIDTH 5 0
BBX 3 13 1 0
BITMAP
E0
E0
00
E0
E0
E0
E0
E0
E0
E0
E0
E0
E0
ENDCHAR
STARTCHAR j
ENCODING 106
SWIDTH 278 0
DWIDTH 5 0
BBX 5 17 -1 -4
BITMAP
38
38
00
38
38
38
38
38
38
38
38
38
38
38
38
F8
F0
ENDCHAR
STARTCHAR k
ENCODING 107
SWIDTH 556 0
DWIDTH 10 0
BBX 9 13 1 0
BITMAP
E000
E000
E000
E380
E700
EE00
FC00
FC00
FE00
E600
E700
E300
E380
ENDCHAR
STARTCHAR l
ENCODING 108
SWIDTH 278 0
DWIDTH 5 0
BBX 3 13 1 0
BITMAP
E0
E0
E0
E0
E0
E0
E0
E0
E0
E0
E0
E0
E0
ENDCHAR
STARTCHAR m
ENCODING 109
SWIDTH 944 0
DWIDTH 17 0
BBX 15 10 1 0
BITMAP
EF3C
FFFE
F3CE
E38E
E38E
E38E
E38E
E38E
E38E
E38E
ENDCHAR
STARTCHAR n
ENCODING 110
SWIDTH 611 0
DWIDTH 11 0
BBX 9 10 1 0
BITMAP
EF00
FF80
F380
E380
E380
E380
E380
E380
E380
E380
ENDCHAR
STARTCHAR o
ENCODING 111
SWIDTH 611 0
DWIDTH 11 0
BBX 9 10 1 0
BITMAP
3E00
7F00
F780
E380
E380
E380
E380
F780
7F00
3E00
ENDCHAR
STARTCHAR p
ENCODING 112
SWIDTH 611 0
DWIDTH 11 0
BBX 9 14 1 -4
BITMAP
EE00
FF00
F780
E380
E380
E380
E380
F780
FF00
EE00
E000
E000
E000
E000
ENDCHAR
STARTCHAR q
ENCODING 113
SWIDTH 611 0
DWIDTH 11 0
BBX 9 14 1 -4
BITMAP
3B80
7F80
F780
E380
E380
E380
E380
F780
7F80
3B80
0380
0380
0380
0380
ENDCHAR
STARTCHAR r
ENCODING 114
SWIDTH 389 0
DWIDTH 7 0
BBX 6 10 1 0
BITMAP
EC
FC
F0
E0
E0
E0
E0
E0
E0
E0
ENDCHAR
STARTCHAR s
ENCODING 115
SWIDTH 556 0
DWIDTH 10 0
BBX 8 10 1 0
BITMAP
7C
FF
E7
F0
FE
3F
07
E7
FF
3C
ENDCHAR
STARTCHAR t
ENCODING 116
SWIDTH 333 0
DWIDTH 6 0
BBX 6 12 0 0
BITMAP
30
70
FC
FC
70
70
70
70
70
70
7C
3C
ENDCHAR
STARTCHAR u
ENCODING 117
SWIDTH 611 0
DWIDTH 11 0
BBX 9 10 1 0
BITMAP
E380
E380
E380
E380
E380
E380
E380
E780
FF80
7B80
ENDCHAR
STARTCHAR v
ENCODING 118
SWIDTH 611 0
DWIDTH 11 0
BBX 9 10 1 0
BITMAP
C180
E380
6300
6300
7700
3600
3600
3600
1C00
1C00
ENDCHAR
STARTCHAR w
ENCODING 119
SWIDTH 833 0
DWIDTH 15 0
BBX 13 10 1 0
BITMAP
C718
C718
E538
6DB0
6DB0
6DB0
69B0
68A0
38E0
38E0
ENDCHAR
STARTCHAR x
ENCODING 120
SWIDTH 611 0
DWIDTH 11 0
BBX 9 10 1 0
BITMAP
E380
6700
7600
3E00
1C00
1C00
3E00
7700
6300
E380
ENDCHAR
STARTCHAR y
ENCODING 121
SWIDTH 611 0
DWIDTH 11 0
BBX 9 14 1 -4
BITMAP
E180
E380
6300
6300
7700
3600
3600
3E00
1C00
1C00
1C00
1800
7800
7000
ENDCHAR
STARTCHAR z
ENCODING 122
SWIDTH 500 0
DWIDTH 9 0
BBX 7 10 1 0
BITMAP
FE
FE
0E
1C
38
38
70
E0
FE
FE
ENDCHAR
STARTCHAR braceleft
ENCODING 123
SWIDTH 389 0
DWIDTH 7 0
BBX 7 17 1 -4
BITMAP
1E
38
38
38
38
38
38
70
E0
78
38
38
38
38
38
38
1E
ENDCHAR
STARTCHAR bar
ENCODING 124
SWIDTH 222 0
DWIDTH 4 0
BBX 2 17 1 -4
BITMAP
C0
C0
C0
C0
C0
C0
C0
C0
C0
C0
C0
C0
C0
C0
C0
C0
C0
ENDCHAR
STARTCHAR braceright
ENCODING 125
SWIDTH 389 0
DWIDTH 7 0
BBX 7 17 0 -4
BITMAP
F0
38
38
38
38
38
38
1C
0E
3C
38
38
38
38
38
38
F0
ENDCHAR
STARTCHAR asciitilde
ENCODING 126
SWIDTH 611 0
DWIDTH 11 0
BBX 9 4 1 5
BITMAP
7000
F880
8F80
0700
ENDCHAR
STARTCHAR space
ENCODING 160
SWIDTH 278 0
DWIDTH 5 0
BBX 0 0 0 0
BITMAP
ENDCHAR
STARTCHAR exclamdown
ENCODING 161
SWIDTH 278 0
DWIDTH 5 0
BBX 3 13 1 -3
BITMAP
E0
E0
E0
00
E0
E0
E0
E0
E0
E0
E0
E0
E0
ENDCHAR
STARTCHAR cent
ENCODING 162
SWIDTH 556 0
DWIDTH 10 0
BBX 11 13 0 -1
BITMAP
0200
0200
0700
1F80
75C0
6400
E400
6400
64C0
77C0
1F80
0600
0600
ENDCHAR
STARTCHAR sterling
ENCODING 163
SWIDTH 556 0
DWIDTH 10 0
BBX 8 12 1 0
BITMAP
3C
7E
7E
70
70
FC
FC
70
70
67
FF
FE
ENDCHAR
STARTCHAR currency
ENCODING 164
SWIDTH 556 0
DWIDTH 10 0
BBX 10 10 0 1
BITMAP
4080
FFC0
7F80
7380
6180
6180
7380
7F80
FFC0
4080
ENDCHAR
STARTCHAR yen
ENCODING 165
SWIDTH 556 0
DWIDTH 10 0
BBX 9 12 0 0
BITMAP
E380
E380
6300
7700
3600
3E00
FF80
1C00
1C00
FF80
1C00
1C00
ENDCHAR
STARTCHAR brokenbar
ENCODING 166
SWIDTH 222 0
DWIDTH 4 0
BBX 2 17 1 -4
BITMAP
C0
C0
C0
C0
C0
C0
C0
00
00
00
C0
C0
C0
C0
C0
C0
C0
ENDCHAR
STARTCHAR section
ENCODING 167
SWIDTH 556 0
DWIDTH 10 0
BBX 8 14 1 -2
BITMAP
7C
FF
E7
E0
7C
FF
E7
E7
7E
1E
07
E7
FF
3E
ENDCHAR
STARTCHAR dieresis
ENCODING 168
SWIDTH 333 0
DWIDTH 6 0
BBX 6 2 0 11
BITMAP
CC
CC
ENDCHAR
STARTCHAR copyright
ENCODING 169
SWIDTH 722 0
DWIDTH 13 0
BBX 12 12 0 0
BITMAP
0F00
30C0
4020
4F20
9890
9810
9810
9990
4F20
4020
30C0
0F00
ENDCHAR
STARTCHAR ordfeminine
ENCODING 170
SWIDTH 389 0
DWIDTH 7 0
BBX 6 6 1 6
BITMAP
F0
18
78
D8
D8
EC
ENDCHAR
STARTCHAR guillemotleft
ENCODING 171
SWIDTH 556 0
DWIDTH 10 0
BBX 8 7 1 2
BITMAP
33
66
EE
CC
EE
66
33
ENDCHAR
STARTCHAR logicalnot
ENCODING 172
SWIDTH 611 0
DWIDTH 11 0
BBX 9 5 1 2
BITMAP
FF80
FF80
0180
0180
0180
ENDCHAR
STARTCHAR hyphen
ENCODING 173
SWIDTH 333 0
DWIDTH 6 0
BBX 4 2 1 4
BITMAP
F0
F0
ENDCHAR
STARTCHAR registered
ENCODING 174
SWIDTH 722 0
DWIDTH 13 0
BBX 12 12 0 0
BITMAP
0F00
30C0
4020
5F20
9990
9990
9F10
9B10
59A0
4020
30C0
0F00
ENDCHAR
STARTCHAR macron
ENCODING 175
SWIDTH 556 0
DWIDTH 10 0
BBX 10 1 0 13
BITMAP
FFC0
ENDCHAR
STARTCHAR degree
ENCODING 176
SWIDTH 389 0
DWIDTH 7 0
BBX 6 6 0 6
BITMAP
78
CC
84
84
CC
78
ENDCHAR
STARTCHAR plusminus
ENCODING 177
SWIDTH 556 0
DWIDTH 10 0
BBX 8 11 1 0
BITMAP
18
18
18
FF
FF
18
18
18
00
FF
FF
ENDCHAR
STARTCHAR uni00B2
ENCODING 178
SWIDTH 333 0
DWIDTH 6 0
BBX 5 6 0 6
BITMAP
70
D8
18
70
C0
F8
ENDCHAR
STARTCHAR uni00B3
ENCODING 179
SWIDTH 333 0
DWIDTH 6 0
BBX 5 6 0 6
BITMAP
F8
18
30
18
D8
70
ENDCHAR
STARTCHAR acute
ENCODING 180
SWIDTH 333 0
DWIDTH 6 0
BBX 4 3 1 11
BITMAP
30
60
C0
ENDCHAR
STARTCHAR u00B5
ENCODING 181
SWIDTH 556 0
DWIDTH 10 0
BBX 8 14 1 -4
BITMAP
E7
E7
E7
E7
E7
E7
E7
E7
FF
FF
E0
E0
E0
E0
ENDCHAR
STARTCHAR paragraph
ENCODING 182
SWIDTH 556 0
DWIDTH 10 0
BBX 9 14 1 -2
BITMAP
7F80
FB00
FB00
FB00
FB00
7B00
1B00
1B00
1B00
1B00
1B00
1B00
1B00
1B00
ENDCHAR
STARTCHAR periodcentered
ENCODING 183
SWIDTH 278 0
DWIDTH 5 0
BBX 3 3 1 5
BITMAP
E0
E0
E0
ENDCHAR
STARTCHAR cedilla
ENCODING 184
SWIDTH 333 0
DWIDTH 6 0
BBX 3 4 1 -4
BITMAP
C0
E0
60
E0
ENDCHAR
STARTCHAR uni00B9
ENCODING 185
SWIDTH 333 0
DWIDTH 6 0
BBX 6 6 0 6
BITMAP
70
B0
30
30
30
FC
ENDCHAR
STARTCHAR ordmasculine
ENCODING 186
SWIDTH 389 0
DWIDTH 7 0
BBX 5 6 1 6
BITMAP
70
D8
D8
D8
D8
70
ENDCHAR
STARTCHAR guillemotright
ENCODING 187
SWIDTH 556 0
DWIDTH 10 0
BBX 8 7 1 2
BITMAP
CC
66
77
33
77
66
CC
ENDCHAR
STARTCHAR onequarter
ENCODING 188
SWIDTH 833 0
DWIDTH 15 0
BBX 14 12 0 0
BITMAP
7030
B020
3060
30C0
3080
FD80
0338
0238
0658
0CD8
08FC
1818
ENDCHAR
STARTCHAR onehalf
ENCODING 189
SWIDTH 833 0
DWIDTH 15 0
BBX 14 12 0 0
BITMAP
7030
B020
3060
30C0
3080
FD80
0338
026C
060C
0C38
0860
187C
ENDCHAR
STARTCHAR threequarters
ENCODING 190
SWIDTH 833 0
DWIDTH 15 0
BBX 13 12 1 0
BITMAP
F860
1840
30C0
1980
D900
7300
0670
0470
0CB0
19B0
11F8
3030
ENDCHAR
STARTCHAR questiondown
ENCODING 191
SWIDTH 611 0
DWIDTH 11 0
BBX 9 13 1 -3
BITMAP
1C00
1C00
1C00
0000
1C00
3C00
7800
7000
E000
E380
E780
7F00
3E00
ENDCHAR
STARTCHAR Agrave
ENCODING 192
SWIDTH 722 0
DWIDTH 13 0
BBX 13 16 0 0
BITMAP
0C00
0600
0300
0000
0F80
0F80
0D80
1DC0
1DC0
38E0
38E0
3FE0
7FF0
7070
7070
E038
ENDCHAR
STARTCHAR Aacute
ENCODING 193
SWIDTH 722 0
DWIDTH 13 0
BBX 13 16 0 0
BITMAP
00C0
0180
0300
0000
0F80
0F80
0D80
1DC0
1DC0
38E0
38E0
3FE0
7FF0
7070
7070
E038
ENDCHAR
STARTCHAR Acircumflex
ENCODING 194
SWIDTH 722 0
DWIDTH 13 0
BBX 13 16 0 0
BITMAP
0300
0780
0CC0
0000
0F80
0F80
0D80
1DC0
1DC0
38E0
38E0
3FE0
7FF0
7070
7070
E038
ENDCHAR
STARTCHAR Atilde
ENCODING 195
SWIDTH 722 0
DWIDTH 13 0
BBX 13 16 0 0
BITMAP
0640
0FC0
0980
0000
0F80
0F80
0D80
1DC0
1DC0
38E0
38E0
3FE0
7FF0
7070
7070
E038
ENDCHAR
STARTCHAR Adieresis
ENCODING 196
SWIDTH 722 0
DWIDTH 13 0
BBX 13 15 0 0
BITMAP
0CC0
0CC0
0000
0F80
0F80
0D80
1DC0
1DC0
38E0
38E0
3FE0
7FF0
7070
7070
E038
ENDCHAR
STARTCHAR Aring
ENCODING 197
SWIDTH 722 0
DWIDTH 13 0
BBX 13 15 0 0
BITMAP
0300
0480
0480
0F80
0F80
0D80
1DC0
1DC0
38E0
38E0
3FE0
7FF0
7070
7070
E038
ENDCHAR
STARTCHAR AE
ENCODING 198
SWIDTH 1000 0
DWIDTH 18 0
BBX 17 12 0 0
BITMAP
07FF80
07FF80
0EE000
0EE000
0CE000
1CFF00
18FF00
3FE000
3FE000
70E000
70FF80
E0FF80
ENDCHAR
STARTCHAR Ccedilla
ENCODING 199
SWIDTH 722 0
DWIDTH 13 0
BBX 11 16 1 -4
BITMAP
1F80
3FC0
71E0
E0C0
E000
E000
E000
E000
E0C0
71E0
3FC0
1F00
0600
0700
0300
0700
ENDCHAR
STARTCHAR Egrave
ENCODING 200
SWIDTH 667 0
DWIDTH 12 0
BBX 10 16 1 0
BITMAP
1800
0C00
0600
0000
FFC0
FFC0
E000
E000
E000
FF80
FF80
E000
E000
E000
FFC0
FFC0
ENDCHAR
STARTCHAR Eacute
ENCODING 201
SWIDTH 667 0
DWIDTH 12 0
BBX 10 16 1 0
BITMAP
0300
0600
0C00
0000
FFC0
FFC0
E000
E000
E000
FF80
FF80
E000
E000
E000
FFC0
FFC0
ENDCHAR
STARTCHAR Ecircumflex
ENCODING 202
SWIDTH 667 0
DWIDTH 12 0
BBX 10 16 1 0
BITMAP
0C00
1E00
3300
0000
FFC0
FFC0
E000
E000
E000
FF80
FF80
E000
E000
E000
FFC0
FFC0
ENDCHAR
STARTCHAR Edieresis
ENCODING 203
SWIDTH 667 0
DWIDTH 12 0
BBX 10 15 1 0
BITMAP
3300
3300
0000
FFC0
FFC0
E000
E000
E000
FF80
FF80
E000
E000
E000
FFC0
FFC0
ENDCHAR
STARTCHAR Igrave
ENCODING 204
SWIDTH 278 0
DWIDTH 5 0
BBX 4 16 0 0
BITMAP
C0
60
30
00
70
70
70
70
70
70
70
70
70
70
70
70
ENDCHAR
STARTCHAR Iacute
ENCODING 205
SWIDTH 278 0
DWIDTH 5 0
BBX 4 16 1 0
BITMAP
30
60
C0
00
E0
E0
E0
E0
E0
E0
E0
E0
E0
E0
E0
E0
ENDCHAR
STARTCHAR Icircumflex
ENCODING 206
SWIDTH 278 0
DWIDTH 5 0
BBX 6 16 0 0
BITMAP
30
78
CC
00
70
70
70
70
70
70
70
70
70
70
70
70
ENDCHAR
STARTCHAR Idieresis
ENCODING 207
SWIDTH 278 0
DWIDTH 5 0
BBX 6 15 0 0
BITMAP
CC
CC
00
70
70
70
70
70
70
70
70
70
70
70
70
ENDCHAR
STARTCHAR Eth
ENCODING 208
SWIDTH 722 0
DWIDTH 13 0
BBX 12 12 0 0
BITMAP
7F80
7FC0
70E0
70F0
7070
FE70
FE70
7070
70F0
70E0
7FC0
7F80
ENDCHAR
STARTCHAR Ntilde
ENCODING 209
SWIDTH 722 0
DWIDTH 13 0
BBX 11 16 1 0
BITMAP
0C80
1F80
1300
0000
F0E0
F0E0
F8E0
F8E0
ECE0
ECE0
E6E0
E6E0
E3E0
E3E0
E1E0
E1E0
ENDCHAR
STARTCHAR Ograve
ENCODING 210
SWIDTH 778 0
DWIDTH 14 0
BBX 12 16 1 0
BITMAP
0C00
0600
0300
0000
1F80
3FC0
70E0
E0F0
E070
E070
E070
E070
F0F0
70E0
3FC0
1F80
ENDCHAR
STARTCHAR Oacute
ENCODING 211
SWIDTH 778 0
DWIDTH 14 0
BBX 12 16 1 0
BITMAP
0180
0300
0600
0000
1F80
3FC0
70E0
E0F0
E070
E070
E070
E070
F0F0
70E0
3FC0
1F80
ENDCHAR
STARTCHAR Ocircumflex
ENCODING 212
SWIDTH 778 0
DWIDTH 14 0
BBX 12 16 1 0
BITMAP
0600
0F00
1980
0000
1F80
3FC0
70E0
E0F0
E070
E070
E070
E070
F0F0
70E0
3FC0
1F80
ENDCHAR
STARTCHAR Otilde
ENCODING 213
SWIDTH 778 0
DWIDTH 14 0
BBX 12 16 1 0
BITMAP
0C80
1F80
1300
0000
1F80
3FC0
70E0
E0F0
E070
E070
E070
E070
F0F0
70E0
3FC0
1F80
ENDCHAR
STARTCHAR Odieresis
ENCODING 214
SWIDTH 778 0
DWIDTH 14 0
BBX 12 15 1 0
BITMAP
1980
1980
0000
1F80
3FC0
70E0
E0F0
E070
E070
E070
E070
F0F0
70E0
3FC0
1F80
ENDCHAR
STARTCHAR multiply
ENCODING 215
SWIDTH 611 0
DWIDTH 11 0
BBX 9 9 1 2
BITMAP
4100
E380
7700
3E00
1C00
3E00
7700
E380
4100
ENDCHAR
STARTCHAR Oslash
ENCODING 216
SWIDTH 778 0
DWIDTH 14 0
BBX 12 12 1 0
BITMAP
1FE0
3FC0
71E0
E1F0
E370
E270
E470
EC70
F8F0
70E0
3FC0
7F80
ENDCHAR
STARTCHAR Ugrave
ENCODING 217
SWIDTH 722 0
DWIDTH 13 0
BBX 11 16 1 0
BITMAP
1800
0C00
0600
0000
E0E0
E0E0
E0E0
E0E0
E0E0
E0E0
E0E0
E0E0
E0E0
F1E0
7FC0
1F00
ENDCHAR
STARTCHAR Uacute
ENCODING 218
SWIDTH 722 0
DWIDTH 13 0
BBX 11 16 1 0
BITMAP
0180
0300
0600
0000
E0E0
E0E0
E0E0
E0E0
E0E0
E0E0
E0E0
E0E0
E0E0
F1E0
7FC0
1F00
ENDCHAR
STARTCHAR Ucircumflex
ENCODING 219
SWIDTH 722 0
DWIDTH 13 0
BBX 11 16 1 0
BITMAP
0600
0F00
1980
0000
E0E0
E0E0
E0E0
E0E0
E0E0
E0E0
E0E0
E0E0
E0E0
F1E0
7FC0
1F00
ENDCHAR
STARTCHAR Udieresis
ENCODING 220
SWIDTH 722 0
DWIDTH 13 0
BBX 11 15 1 0
BITMAP
1980
1980
0000
E0E0
E0E0
E0E0
E0E0
E0E0
E0E0
E0E0
E0E0
E0E0
F1E0
7FC0
1F00
ENDCHAR
STARTCHAR Yacute
ENCODING 221
SWIDTH 722 0
DWIDTH 13 0
BBX 11 16 1 0
BITMAP
0180
0300
0600
0000
E0E0
60C0
71C0
3B80
3B80
1F00
0E00
0E00
0E00
0E00
0E00
0E00
ENDCHAR
STARTCHAR Thorn
ENCODING 222
SWIDTH 667 0
DWIDTH 12 0
BBX 10 12 1 0
BITMAP
E000
E000
FF00
FF80
E1C0
E1C0
E1C0
E3C0
FF80
FF00
E000
E000
ENDCHAR
STARTCHAR germandbls
ENCODING 223
SWIDTH 667 0
DWIDTH 12 0
BBX 10 13 1 0
BITMAP
3E00
7F80
E380
E380
E700
EE00
EE00
EF80
E7C0
E1C0
E1C0
EFC0
EF80
ENDCHAR
STARTCHAR agrave
ENCODING 224
SWIDTH 556 0
DWIDTH 10 0
BBX 9 14 1 0
BITMAP
3000
1800
0C00
0000
3C00
7F00
E700
0700
7F00
FF00
E700
E700
FF80
7380
ENDCHAR
STARTCHAR aacute
ENCODING 225
SWIDTH 556 0
DWIDTH 10 0
BBX 9 14 1 0
BITMAP
0600
0C00
1800
0000
3C00
7F00
E700
0700
7F00
FF00
E700
E700
FF80
7380
ENDCHAR
STARTCHAR acircumflex
ENCODING 226
SWIDTH 556 0
DWIDTH 10 0
BBX 9 14 1 0
BITMAP
1800
3C00
6600
0000
3C00
7F00
E700
0700
7F00
FF00
E700
E700
FF80
7380
ENDCHAR
STARTCHAR atilde
ENCODING 227
SWIDTH 556 0
DWIDTH 10 0
BBX 9 14 1 0
BITMAP
3200
7E00
4C00
0000
3C00
7F00
E700
0700
7F00
FF00
E700
E700
FF80
7380
ENDCHAR
STARTCHAR adieresis
ENCODING 228
SWIDTH 556 0
DWIDTH 10 0
BBX 9 13 1 0
BITMAP
6600
6600
0000
3C00
7F00
E700
0700
7F00
FF00
E700
E700
FF80
7380
ENDCHAR
STARTCHAR aring
ENCODING 229
SWIDTH 556 0
DWIDTH 10 0
BBX 9 15 1 0
BITMAP
1800
2400
2400
1800
0000
3C00
7F00
E700
0700
7F00
FF00
E700
E700
FF80
7380
ENDCHAR
STARTCHAR ae
ENCODING 230
SWIDTH 889 0
DWIDTH 16 0
BBX 14 10 1 0
BITMAP
3EF0
7FF8
E39C
039C
3FFC
FFFC
E380
E79C
FDF8
78F0
ENDCHAR
STARTCHAR ccedilla
ENCODING 231
SWIDTH 556 0
DWIDTH 10 0
BBX 8 14 1 -4
BITMAP
3C
7E
E7
E0
E0
E0
E0
E7
7E
3C
18
1C
0C
1C
ENDCHAR
STARTCHAR egrave
ENCODING 232
SWIDTH 611 0
DWIDTH 11 0
BBX 9 14 1 0
BITMAP
3000
1800
0C00
0000
3E00
7F00
E300
E380
FF80
FF80
E000
E380
7F00
3E00
ENDCHAR
STARTCHAR eacute
ENCODING 233
SWIDTH 611 0
DWIDTH 11 0
BBX 9 14 1 0
BITMAP
0300
0600
0C00
0000
3E00
7F00
E300
E380
FF80
FF80
E000
E380
7F00
3E00
ENDCHAR
STARTCHAR ecircumflex
ENCODING 234
SWIDTH 611 0
DWIDTH 11 0
BBX 9 14 1 0
BITMAP
0C00
1E00
3300
0000
3E00
7F00
E300
E380
FF80
FF80
E000
E380
7F00
3E00
ENDCHAR
STARTCHAR edieresis
ENCODING 235
SWIDTH 611 0
DWIDTH 11 0
BBX 9 13 1 0
BITMAP
3300
3300
0000
3E00
7F00
E300
E380
FF80
FF80
E000
E380
7F00
3E00
ENDCHAR
STARTCHAR igrave
ENCODING 236
SWIDTH 278 0
DWIDTH 5 0
BBX 4 14 0 0
BITMAP
C0
60
30
00
70
70
70
70
70
70
70
70
70
70
ENDCHAR
STARTCHAR iacute
ENCODING 237
SWIDTH 278 0
DWIDTH 5 0
BBX 4 14 1 0
BITMAP
30
60
C0
00
E0
E0
E0
E0
E0
E0
E0
E0
E0
E0
ENDCHAR
STARTCHAR icircumflex
ENCODING 238
SWIDTH 278 0
DWIDTH 5 0
BBX 6 14 0 0
BITMAP
30
78
CC
00
70
70
70
70
70
70
70
70
70
70
ENDCHAR
STARTCHAR idieresis
ENCODING 239
SWIDTH 278 0
DWIDTH 5 0
BBX 6 13 0 0
BITMAP
CC
CC
00
70
70
70
70
70
70
70
70
70
70
ENDCHAR
STARTCHAR eth
ENCODING 240
SWIDTH 611 0
DWIDTH 11 0
BBX 9 13 1 0
BITMAP
3200
1E00
3C00
2600
3F00
7F00
E380
E380
E380
E380
E380
7F00
3E00
ENDCHAR
STARTCHAR ntilde
ENCODING 241
SWIDTH 611 0
DWIDTH 11 0
BBX 9 14 1 0
BITMAP
1900
3F00
2600
0000
EF00
FF80
F380
E380
E380
E380
E380
E380
E380
E380
ENDCHAR
STARTCHAR ograve
ENCODING 242
SWIDTH 611 0
DWIDTH 11 0
BBX 9 14 1 0
BITMAP
3000
1800
0C00
0000
3E00
7F00
F780
E380
E380
E380
E380
F780
7F00
3E00
ENDCHAR
STARTCHAR oacute
ENCODING 243
SWIDTH 611 0
DWIDTH 11 0
BBX 9 14 1 0
BITMAP
0300
0600
0C00
0000
3E00
7F00
F780
E380
E380
E380
E380
F780
7F00
3E00
ENDCHAR
STARTCHAR ocircumflex
ENCODING 244
SWIDTH 611 0
DWIDTH 11 0
BBX 9 14 1 0
BITMAP
0C00
1E00
3300
0000
3E00
7F00
F780
E380
E380
E380
E380
F780
7F00
3E00
ENDCHAR
STARTCHAR otilde
ENCODING 245
SWIDTH 611 0
DWIDTH 11 0
BBX 9 14 1 0
BITMAP
1900
3F00
2600
0000
3E00
7F00
F780
E380
E380
E380
E380
F780
7F00
3E00
ENDCHAR
STARTCHAR odieresis
ENCODING 246
SWIDTH 611 0
DWIDTH 11 0
BBX 9 13 1 0
BITMAP
3300
3300
0000
3E00
7F00
F780
E380
E380
E380
E380
F780
7F00
3E00
ENDCHAR
STARTCHAR divide
ENCODING 247
SWIDTH 556 0
DWIDTH 10 0
BBX 8 10 1 1
BITMAP
18
18
00
00
FF
FF
00
00
18
18
ENDCHAR
STARTCHAR oslash
ENCODING 248
SWIDTH 611 0
DWIDTH 11 0
BBX 11 10 0 0
BITMAP
1FC0
3F80
7BC0
73C0
75C0
75C0
79C0
7BC0
3F80
7F00
ENDCHAR
STARTCHAR ugrave
ENCODING 249
SWIDTH 611 0
DWIDTH 11 0
BBX 9 14 1 0
BITMAP
3000
1800
0C00
0000
E380
E380
E380
E380
E380
E380
E380
E780
FF80
7B80
ENDCHAR
STARTCHAR uacute
ENCODING 250
SWIDTH 611 0
DWIDTH 11 0
BBX 9 14 1 0
BITMAP
0600
0C00
1800
0000
E380
E380
E380
E380
E380
E380
E380
E780
FF80
7B80
ENDCHAR
STARTCHAR ucircumflex
ENCODING 251
SWIDTH 611 0
DWIDTH 11 0
BBX 9 14 1 0
BITMAP
1800
3C00
6600
0000
E380
E380
E380
E380
E380
E380
E380
E780
FF80
7B80
ENDCHAR
STARTCHAR udieresis
ENCODING 252
SWIDTH 611 0
DWIDTH 11 0
BBX 9 13 1 0
BITMAP
6600
6600
0000
E380
E380
E380
E380
E380
E380
E380
E780
FF80
7B80
ENDCHAR
STARTCHAR yacute
ENCODING 253
SWIDTH 611 0
DWIDTH 11 0
BBX 9 18 1 -4
BITMAP
0300
0600
0C00
0000
E180
E380
6300
6300
7700
3600
3600
3E00
1C00
1C00
1C00
1800
7800
7000
ENDCHAR
STARTCHAR thorn
ENCODING 254
SWIDTH 611 0
DWIDTH 11 0
BBX 9 17 1 -4
BITMAP
E000
E000
E000
EE00
FF00
F780
E380
E380
E380
E380
F780
FF00
EE00
E000
E000
E000
E000
ENDCHAR
STARTCHAR ydieresis
ENCODING 255
SWIDTH 611 0
DWIDTH 11 0
BBX 9 17 1 -4
BITMAP
3300
3300
0000
E180
E380
6300
6300
7700
3600
3600
3E00
1C00
1C00
1C00
1800
7800
7000
ENDCHAR
STARTCHAR Amacron
ENCODING 256
SWIDTH 722 0
DWIDTH 13 0
BBX 13 15 0 0
BITMAP
0FC0
0FC0
0000
0F80
0F80
0D80
1DC0
1DC0
38E0
38E0
3FE0
7FF0
7070
7070
E038
ENDCHAR
STARTCHAR amacron
ENCODING 257
SWIDTH 556 0
DWIDTH 10 0
BBX 9 13 1 0
BITMAP
3F00
3F00
0000
3C00
7F00
E700
0700
7F00
FF00
E700
E700
FF80
7380
ENDCHAR
STARTCHAR Abreve
ENCODING 258
SWIDTH 722 0
DWIDTH 13 0
BBX 13 16 0 0
BITMAP
0840
0FC0
0780
0000
0F80
0F80
0D80
1DC0
1DC0
38E0
38E0
3FE0
7FF0
7070
7070
E038
ENDCHAR
STARTCHAR abreve
ENCODING 259
SWIDTH 556 0
DWIDTH 10 0
BBX 9 14 1 0
BITMAP
2200
3E00
1C00
0000
3C00
7F00
E700
0700
7F00
FF00
E700
E700
FF80
7380
ENDCHAR
STARTCHAR Aogonek
ENCODING 260
SWIDTH 722 0
DWIDTH 13 0
BBX 13 16 0 -4
BITMAP
0F80
0F80
0D80
1DC0
1DC0
38E0
38E0
3FE0
7FF0
7070
7070
E038
0030
0060
0060
0070
ENDCHAR
STARTCHAR aogonek
ENCODING 261
SWIDTH 556 0
DWIDTH 10 0
BBX 9 14 1 -4
BITMAP
3C00
7F00
E700
0700
7F00
FF00
E700
E700
FF80
7380
0300
0600
0600
0700
ENDCHAR
STARTCHAR Cacute
ENCODING 262
SWIDTH 722 0
DWIDTH 13 0
BBX 11 16 1 0
BITMAP
0180
0300
0600
0000
1F80
3FC0
71E0
E0C0
E000
E000
E000
E000
E0C0
71E0
3FC0
1F00
ENDCHAR
STARTCHAR cacute
ENCODING 263
SWIDTH 556 0
DWIDTH 10 0
BBX 8 14 1 0
BITMAP
06
0C
18
00
3C
7E
E7
E0
E0
E0
E0
E7
7E
3C
ENDCHAR
STARTCHAR Ccircumflex
ENCODING 264
SWIDTH 722 0
DWIDTH 13 0
BBX 11 16 1 0
BITMAP
0600
0F00
1980
0000
1F80
3FC0
71E0
E0C0
E000
E000
E000
E000
E0C0
71E0
3FC0
1F00
ENDCHAR
STARTCHAR ccircumflex
ENCODING 265
SWIDTH 556 0
DWIDTH 10 0
BBX 8 14 1 0
BITMAP
18
3C
66
00
3C
7E
E7
E0
E0
E0
E0
E7
7E
3C
ENDCHAR
STARTCHAR Cdotaccent
ENCODING 266
SWIDTH 722 0
DWIDTH 13 0
BBX 11 15 1 0
BITMAP
0700
0700
0000
1F80
3FC0
71E0
E0C0
E000
E000
E000
E000
E0C0
71E0
3FC0
1F00
ENDCHAR
STARTCHAR cdotaccent
ENCODING 267
SWIDTH 556 0
DWIDTH 10 0
BBX 8 13 1 0
BITMAP
1C
1C
00
3C
7E
E7
E0
E0
E0
E0
E7
7E
3C
ENDCHAR
STARTCHAR Ccaron
ENCODING 268
SWIDTH 722 0
DWIDTH 13 0
BBX 11 16 1 0
BITMAP
1980
0F00
0600
0000
1F80
3FC0
71E0
E0C0
E000
E000
E000
E000
E0C0
71E0
3FC0
1F00
ENDCHAR
STARTCHAR ccaron
ENCODING 269
SWIDTH 556 0
DWIDTH 10 0
BBX 8 14 1 0
BITMAP
66
3C
18
00
3C
7E
E7
E0
E0
E0
E0
E7
7E
3C
ENDCHAR
STARTCHAR Dcaron
ENCODING 270
SWIDTH 722 0
DWIDTH 13 0
BBX 11 16 1 0
BITMAP
3300
1E00
0C00
0000
FF00
FF80
E1C0
E1E0
E0E0
E0E0
E0E0
E0E0
E1E0
E1C0
FF80
FF00
ENDCHAR
STARTCHAR dcaron
ENCODING 271
SWIDTH 722 0
DWIDTH 13 0
BBX 12 13 1 0
BITMAP
03B0
03B0
0390
3BB0
7F80
E780
E380
E380
E380
E380
F780
7F80
3B80
ENDCHAR
STARTCHAR Dcroat
ENCODING 272
SWIDTH 722 0
DWIDTH 13 0
BBX 12 12 0 0
BITMAP
7F80
7FC0
70E0
70F0
7070
FE70
FE70
7070
70F0
70E0
7FC0
7F80
ENDCHAR
STARTCHAR dcroat
ENCODING 273
SWIDTH 611 0
DWIDTH 11 0
BBX 10 13 1 0
BITMAP
0380
0FC0
0FC0
0380
3B80
7F80
E380
E380
E380
E380
E780
7F80
3B80
ENDCHAR
STARTCHAR Emacron
ENCODING 274
SWIDTH 667 0
DWIDTH 12 0
BBX 10 15 1 0
BITMAP
3F00
3F00
0000
FFC0
FFC0
E000
E000
E000
FF80
FF80
E000
E000
E000
FFC0
FFC0
ENDCHAR
STARTCHAR emacron
ENCODING 275
SWIDTH 611 0
DWIDTH 11 0
BBX 9 13 1 0
BITMAP
3F00
3F00
0000
3E00
7F00
E300
E380
FF80
FF80
E000
E380
7F00
3E00
ENDCHAR
STARTCHAR Ebreve
ENCODING 276
SWIDTH 667 0
DWIDTH 12 0
BBX 10 16 1 0
BITMAP
2100
3F00
1E00
0000
FFC0
FFC0
E000
E000
E000
FF80
FF80
E000
E000
E000
FFC0
FFC0
ENDCHAR
STARTCHAR ebreve
ENCODING 277
SWIDTH 611 0
DWIDTH 11 0
BBX 9 14 1 0
BITMAP
2200
3E00
1C00
0000
3E00
7F00
E300
E380
FF80
FF80
E000
E380
7F00
3E00
ENDCHAR
STARTCHAR Edotaccent
ENCODING 278
SWIDTH 667 0
DWIDTH 12 0
BBX 10 15 1 0
BITMAP
0E00
0E00
0000
FFC0
FFC0
E000
E000
E000
FF80
FF80
E000
E000
E000
FFC0
FFC0
ENDCHAR
STARTCHAR edotaccent
ENCODING 279
SWIDTH 611 0
DWIDTH 11 0
BBX 9 13 1 0
BITMAP
1C00
1C00
0000
3E00
7F00
E300
E380
FF80
FF80
E000
E380
7F00
3E00
ENDCHAR
STARTCHAR Eogonek
ENCODING 280
SWIDTH 667 0
DWIDTH 12 0
BBX 10 16 1 -4
BITMAP
FFC0
FFC0
E000
E000
E000
FF80
FF80
E000
E000
E000
FFC0
FFC0
0180
0300
0300
0380
ENDCHAR
STARTCHAR eogonek
ENCODING 281
SWIDTH 611 0
DWIDTH 11 0
BBX 9 13 1 -3
BITMAP
3E00
7F00
E300
E380
FF80
FF80
E000
E380
7F00
3E00
0C00
0C00
0E00
ENDCHAR
STARTCHAR Ecaron
ENCODING 282
SWIDTH 667 0
DWIDTH 12 0
BBX 10 16 1 0
BITMAP
3300
1E00
0C00
0000
FFC0
FFC0
E000
E000
E000
FF80
FF80
E000
E000
E000
FFC0
FFC0
ENDCHAR
STARTCHAR ecaron
ENCODING 283
SWIDTH 611 0
DWIDTH 11 0
BBX 9 14 1 0
BITMAP
3300
1E00
0C00
0000
3E00
7F00
E300
E380
FF80
FF80
E000
E380
7F00
3E00
ENDCHAR
STARTCHAR Gcircumflex
ENCODING 284
SWIDTH 778 0
DWIDTH 14 0
BBX 12 16 1 0
BITMAP
0600
0F00
1980
0000
1F80
3FE0
70F0
F060
E000
E000
E1F0
E1F0
F070
7070
3FE0
1F80
ENDCHAR
STARTCHAR gcircumflex
ENCODING 285
SWIDTH 611 0
DWIDTH 11 0
BBX 9 18 1 -4
BITMAP
0C00
1E00
3300
0000
3B80
7F80
F780
E380
E380
E380
E380
F780
7F80
3B80
0380
E380
7F00
3E00
ENDCHAR
STARTCHAR Gbreve
ENCODING 286
SWIDTH 778 0
DWIDTH 14 0
BBX 12 16 1 0
BITMAP
0840
0FC0
0780
0000
1F80
3FE0
70F0
F060
E000
E000
E1F0
E1F0
F070
7070
3FE0
1F80
ENDCHAR
STARTCHAR gbreve
ENCODING 287
SWIDTH 611 0
DWIDTH 11 0
BBX 9 18 1 -4
BITMAP
2200
3E00
1C00
0000
3B80
7F80
F780
E380
E380
E380
E380
F780
7F80
3B80
0380
E380
7F00
3E00
ENDCHAR
STARTCHAR Gdotaccent
ENCODING 288
SWIDTH 778 0
DWIDTH 14 0
BBX 12 15 1 0
BITMAP
0700
0700
0000
1F80
3FE0
70F0
F060
E000
E000
E1F0
E1F0
F070
7070
3FE0
1F80
ENDCHAR
STARTCHAR gdotaccent
ENCODING 289
SWIDTH 611 0
DWIDTH 11 0
BBX 9 17 1 -4
BITMAP
1C00
1C00
0000
3B80
7F80
F780
E380
E380
E380
E380
F780
7F80
3B80
0380
E380
7F00
3E00
ENDCHAR
STARTCHAR Gcommaaccent
ENCODING 290
SWIDTH 778 0
DWIDTH 14 0
BBX 12 16 1 -4
BITMAP
1F80
3FE0
70F0
F060
E000
E000
E1F0
E1F0
F070
7070
3FE0
1F80
0000
0300
0300
0100
ENDCHAR
STARTCHAR gcommaaccent
ENCODING 291
SWIDTH 611 0
DWIDTH 11 0
BBX 9 18 1 -4
BITMAP
0800
0C00
0C00
0000
3B80
7F80
F780
E380
E380
E380
E380
F780
7F80
3B80
0380
E380
7F00
3E00
ENDCHAR
STARTCHAR Hcircumflex
ENCODING 292
SWIDTH 722 0
DWIDTH 13 0
BBX 11 16 1 0
BITMAP
0600
0F00
1980
0000
E0E0
E0E0
E0E0
E0E0
E0E0
FFE0
FFE0
E0E0
E0E0
E0E0
E0E0
E0E0
ENDCHAR
STARTCHAR hcircumflex
ENCODING 293
SWIDTH 611 0
DWIDTH 11 0
BBX 9 17 1 0
BITMAP
0C00
1E00
3300
0000
E000
E000
E000
EF00
FF80
F380
E380
E380
E380
E380
E380
E380
E380
ENDCHAR
STARTCHAR Hbar
ENCODING 294
SWIDTH 722 0
DWIDTH 13 0
BBX 13 12 0 0
BITMAP
7070
7070
FFF8
FFF8
7070
7FF0
7FF0
7070
7070
7070
7070
7070
ENDCHAR
STARTCHAR hbar
ENCODING 295
SWIDTH 611 0
DWIDTH 11 0
BBX 10 13 0 0
BITMAP
7000
FC00
FC00
7780
7FC0
79C0
71C0
71C0
71C0
71C0
71C0
71C0
71C0
ENDCHAR
STARTCHAR Itilde
ENCODING 296
SWIDTH 278 0
DWIDTH 5 0
BBX 6 16 0 0
BITMAP
64
FC
98
00
70
70
70
70
70
70
70
70
70
70
70
70
ENDCHAR
STARTCHAR itilde
ENCODING 297
SWIDTH 278 0
DWIDTH 5 0
BBX 6 14 0 0
BITMAP
64
FC
98
00
70
70
70
70
70
70
70
70
70
70
ENDCHAR
STARTCHAR Imacron
ENCODING 298
SWIDTH 278 0
DWIDTH 5 0
BBX 6 15 0 0
BITMAP
FC
FC
00
70
70
70
70
70
70
70
70
70
70
70
70
ENDCHAR
STARTCHAR imacron
ENCODING 299
SWIDTH 278 0
DWIDTH 5 0
BBX 6 13 0 0
BITMAP
FC
FC
00
70
70
70
70
70
70
70
70
70
70
ENDCHAR
STARTCHAR Ibreve
ENCODING 300
SWIDTH 278 0
DWIDTH 5 0
BBX 6 16 0 0
BITMAP
84
FC
78
00
70
70
70
70
70
70
70
70
70
70
70
70
ENDCHAR
STARTCHAR ibreve
ENCODING 301
SWIDTH 278 0
DWIDTH 5 0
BBX 5 14 0 0
BITMAP
88
F8
70
00
70
70
70
70
70
70
70
70
70
70
ENDCHAR
STARTCHAR Iogonek
ENCODING 302
SWIDTH 278 0
DWIDTH 5 0
BBX 3 16 1 -4
BITMAP
E0
E0
E0
E0
E0
E0
E0
E0
E0
E0
E0
E0
60
C0
C0
E0
ENDCHAR
STARTCHAR iogonek
ENCODING 303
SWIDTH 278 0
DWIDTH 5 0
BBX 3 17 1 -4
BITMAP
E0
E0
00
E0
E0
E0
E0
E0
E0
E0
E0
E0
E0
60
C0
C0
E0
ENDCHAR
STARTCHAR Idotaccent
ENCODING 304
SWIDTH 278 0
DWIDTH 5 0
BBX 3 15 1 0
BITMAP
E0
E0
00
E0
E0
E0
E0
E0
E0
E0
E0
E0
E0
E0
E0
ENDCHAR
STARTCHAR dotlessi
ENCODING 305
SWIDTH 278 0
DWIDTH 5 0
BBX 3 10 1 0
BITMAP
E0
E0
E0
E0
E0
E0
E0
E0
E0
E0
ENDCHAR
STARTCHAR IJ
ENCODING 306
SWIDTH 778 0
DWIDTH 14 0
BBX 12 12 1 0
BITMAP
E1F0
E1F0
E070
E070
E070
E070
E070
E070
FC70
FE70
EFE0
E7C0
ENDCHAR
STARTCHAR ij
ENCODING 307
SWIDTH 556 0
DWIDTH 10 0
BBX 8 17 1 -4
BITMAP
E7
E7
00
E7
E7
E7
E7
E7
E7
E7
E7
E7
E7
07
07
1F
1E
ENDCHAR
STARTCHAR Jcircumflex
ENCODING 308
SWIDTH 556 0
DWIDTH 10 0
BBX 9 16 0 0
BITMAP
0600
0F00
1980
0000
0F80
0F80
0380
0380
0380
0380
0380
0380
E380
F380
7F00
3E00
ENDCHAR
STARTCHAR jcircumflex
ENCODING 309
SWIDTH 278 0
DWIDTH 5 0
BBX 6 18 -1 -4
BITMAP
30
78
CC
00
38
38
38
38
38
38
38
38
38
38
38
38
F8
F0
ENDCHAR
STARTCHAR Kcommaaccent
ENCODING 310
SWIDTH 722 0
DWIDTH 13 0
BBX 12 16 1 -4
BITMAP
E070
E0E0
E380
E700
EE00
FE00
FF00
E300
E380
E1C0
E0E0
E070
0000
0600
0600
0200
ENDCHAR
STARTCHAR kcommaaccent
ENCODING 311
SWIDTH 556 0
DWIDTH 10 0
BBX 9 17 1 -4
BITMAP
E000
E000
E000
E380
E700
EE00
FC00
FC00
FE00
E600
E700
E300
E380
0000
0C00
0C00
0400
ENDCHAR
STARTCHAR kgreenlandic
ENCODING 312
SWIDTH 556 0
DWIDTH 10 0
BBX 9 10 1 0
BITMAP
E380
E700
EE00
EC00
FC00
FE00
E600
E700
E300
E380
ENDCHAR
STARTCHAR Lacute
ENCODING 313
SWIDTH 611 0
DWIDTH 11 0
BBX 9 16 1 0
BITMAP
1800
3000
6000
0000
E000
E000
E000
E000
E000
E000
E000
E000
E000
E000
FF80
FF80
ENDCHAR
STARTCHAR lacute
ENCODING 314
SWIDTH 278 0
DWIDTH 5 0
BBX 4 17 1 0
BITMAP
30
60
C0
00
E0
E0
E0
E0
E0
E0
E0
E0
E0
E0
E0
E0
E0
ENDCHAR
STARTCHAR Lcommaaccent
ENCODING 315
SWIDTH 611 0
DWIDTH 11 0
BBX 9 16 1 -4
BITMAP
E000
E000
E000
E000
E000
E000
E000
E000
E000
E000
FF80
FF80
0000
1800
1800
0800
ENDCHAR
STARTCHAR lcommaaccent
ENCODING 316
SWIDTH 278 0
DWIDTH 5 0
BBX 3 17 1 -4
BITMAP
E0
E0
E0
E0
E0
E0
E0
E0
E0
E0
E0
E0
E0
00
60
60
20
ENDCHAR
STARTCHAR Lcaron
ENCODING 317
SWIDTH 611 0
DWIDTH 11 0
BBX 9 12 1 0
BITMAP
E600
E600
E200
E600
E000
E000
E000
E000
E000
E000
FF80
FF80
ENDCHAR
STARTCHAR lcaron
ENCODING 318
SWIDTH 389 0
DWIDTH 7 0
BBX 6 13 1 0
BITMAP
EC
EC
E4
EC
E0
E0
E0
E0
E0
E0
E0
E0
E0
ENDCHAR
STARTCHAR Ldot
ENCODING 319
SWIDTH 611 0
DWIDTH 11 0
BBX 9 12 1 0
BITMAP
E000
E000
E000
E000
E700
E700
E000
E000
E000
E000
FF80
FF80
ENDCHAR
STARTCHAR ldot
ENCODING 320
SWIDTH 500 0
DWIDTH 9 0
BBX 8 13 1 0
BITMAP
E0
E0
E0
E0
E0
E7
E7
E0
E0
E0
E0
E0
E0
ENDCHAR
STARTCHAR Lslash
ENCODING 321
SWIDTH 611 0
DWIDTH 11 0
BBX 10 12 0 0
BITMAP
7000
7000
7000
7400
7C00
7800
F000
F000
7000
7000
7FC0
7FC0
ENDCHAR
STARTCHAR lslash
ENCODING 322
SWIDTH 278 0
DWIDTH 5 0
BBX 5 13 0 0
BITMAP
70
70
70
70
78
78
70
F0
F0
70
70
70
70
ENDCHAR
STARTCHAR Nacute
ENCODING 323
SWIDTH 722 0
DWIDTH 13 0
BBX 11 16 1 0
BITMAP
0180
0300
0600
0000
F0E0
F0E0
F8E0
F8E0
ECE0
ECE0
E6E0
E6E0
E3E0
E3E0
E1E0
E1E0
ENDCHAR
STARTCHAR nacute
ENCODING 324
SWIDTH 611 0
DWIDTH 11 0
BBX 9 14 1 0
BITMAP
0300
0600
0C00
0000
EF00
FF80
F380
E380
E380
E380
E380
E380
E380
E380
ENDCHAR
STARTCHAR Ncommaaccent
ENCODING 325
SWIDTH 722 0
DWIDTH 13 0
BBX 11 16 1 -4
BITMAP
F0E0
F0E0
F8E0
F8E0
ECE0
ECE0
E6E0
E6E0
E3E0
E3E0
E1E0
E1E0
0000
0600
0600
0200
ENDCHAR
STARTCHAR ncommaaccent
ENCODING 326
SWIDTH 611 0
DWIDTH 11 0
BBX 9 14 1 -4
BITMAP
EF00
FF80
F380
E380
E380
E380
E380
E380
E380
E380
0000
0C00
0C00
0400
ENDCHAR
STARTCHAR Ncaron
ENCODING 327
SWIDTH 722 0
DWIDTH 13 0
BBX 11 16 1 0
BITMAP
1980
0F00
0600
0000
F0E0
F0E0
F8E0
F8E0
ECE0
ECE0
E6E0
E6E0
E3E0
E3E0
E1E0
E1E0
ENDCHAR
STARTCHAR ncaron
ENCODING 328
SWIDTH 611 0
DWIDTH 11 0
BBX 9 14 1 0
BITMAP
3300
1E00
0C00
0000
EF00
FF80
F380
E380
E380
E380
E380
E380
E380
E380
ENDCHAR
STARTCHAR napostrophe
ENCODING 329
SWIDTH 722 0
DWIDTH 13 0
BBX 12 12 0 0
BITMAP
E000
E000
FDE0
7FF0
7E70
DC70
1C70
1C70
1C70
1C70
1C70
1C70
ENDCHAR
STARTCHAR Eng
ENCODING 330
SWIDTH 722 0
DWIDTH 13 0
BBX 11 12 1 0
BITMAP
E780
EFC0
F1E0
E0E0
E0E0
E0E0
E0E0
E0E0
E0E0
E4E0
EFC0
E780
ENDCHAR
STARTCHAR eng
ENCODING 331
SWIDTH 611 0
DWIDTH 11 0
BBX 9 14 1 -4
BITMAP
EF00
FF80
F380
E380
E380
E380
E380
E380
E380
E380
0380
0380
0F80
0F00
ENDCHAR
STARTCHAR Omacron
ENCODING 332
SWIDTH 778 0
DWIDTH 14 0
BBX 12 15 1 0
BITMAP
1F80
1F80
0000
1F80
3FC0
70E0
E0F0
E070
E070
E070
E070
F0F0
70E0
3FC0
1F80
ENDCHAR
STARTCHAR omacron
ENCODING 333
SWIDTH 611 0
DWIDTH 11 0
BBX 9 13 1 0
BITMAP
3F00
3F00
0000
3E00
7F00
F780
E380
E380
E380
E380
F780
7F00
3E00
ENDCHAR
STARTCHAR Obreve
ENCODING 334
SWIDTH 778 0
DWIDTH 14 0
BBX 12 16 1 0
BITMAP
1080
1F80
0F00
0000
1F80
3FC0
70E0
E0F0
E070
E070
E070
E070
F0F0
70E0
3FC0
1F80
ENDCHAR
STARTCHAR obreve
ENCODING 335
SWIDTH 611 0
DWIDTH 11 0
BBX 9 14 1 0
BITMAP
2200
3E00
1C00
0000
3E00
7F00
F780
E380
E380
E380
E380
F780
7F00
3E00
ENDCHAR
STARTCHAR Ohungarumlaut
ENCODING 336
SWIDTH 778 0
DWIDTH 14 0
BBX 12 16 1 0
BITMAP
0660
0CC0
1980
0000
1F80
3FC0
70E0
E0F0
E070
E070
E070
E070
F0F0
70E0
3FC0
1F80
ENDCHAR
STARTCHAR ohungarumlaut
ENCODING 337
SWIDTH 611 0
DWIDTH 11 0
BBX 10 14 1 0
BITMAP
0CC0
1980
3300
0000
3E00
7F00
F780
E380
E380
E380
E380
F780
7F00
3E00
ENDCHAR
STARTCHAR OE
ENCODING 338
SWIDTH 1000 0
DWIDTH 18 0
BBX 16 12 1 0
BITMAP
1FFF
3FFF
71C0
E1C0
E1C0
E1FE
E1FE
E1C0
E1C0
71C0
3FFF
1FFF
ENDCHAR
STARTCHAR oe
ENCODING 339
SWIDTH 944 0
DWIDTH 17 0
BBX 15 10 1 0
BITMAP
3E78
7FFC
73CE
E1CE
E1FE
E1FE
E1C0
F3CE
7FFC
3E78
ENDCHAR
STARTCHAR Racute
ENCODING 340
SWIDTH 722 0
DWIDTH 13 0
BBX 12 16 1 0
BITMAP
0180
0300
0600
0000
FF80
FFC0
E0E0
E0E0
E0E0
FFC0
FF00
E380
E1C0
E0C0
E0E0
E070
ENDCHAR
STARTCHAR racute
ENCODING 341
SWIDTH 389 0
DWIDTH 7 0
BBX 6 14 1 0
BITMAP
0C
18
30
00
EC
FC
F0
E0
E0
E0
E0
E0
E0
E0
ENDCHAR
STARTCHAR Rcommaaccent
ENCODING 342
SWIDTH 722 0
DWIDTH 13 0
BBX 12 16 1 -4
BITMAP
FF80
FFC0
E0E0
E0E0
E0E0
FFC0
FF00
E380
E1C0
E0C0
E0E0
E070
0000
0600
0600
0200
ENDCHAR
STARTCHAR rcommaaccent
ENCODING 343
SWIDTH 389 0
DWIDTH 7 0
BBX 6 14 1 -4
BITMAP
EC
FC
F0
E0
E0
E0
E0
E0
E0
E0
00
60
60
20
ENDCHAR
STARTCHAR Rcaron
ENCODING 344
SWIDTH 722 0
DWIDTH 13 0
BBX 12 16 1 0
BITMAP
1980
0F00
0600
0000
FF80
FFC0
E0E0
E0E0
E0E0
FFC0
FF00
E380
E1C0
E0C0
E0E0
E070
ENDCHAR
STARTCHAR rcaron
ENCODING 345
SWIDTH 389 0
DWIDTH 7 0
BBX 6 14 1 0
BITMAP
CC
78
30
00
EC
FC
F0
E0
E0
E0
E0
E0
E0
E0
ENDCHAR
STARTCHAR Sacute
ENCODING 346
SWIDTH 667 0
DWIDTH 12 0
BBX 10 16 1 0
BITMAP
0300
0600
0C00
0000
1F00
3FC0
71C0
7000
7800
3F00
0F80
03C0
E1C0
F1C0
7F80
3F00
ENDCHAR
STARTCHAR sacute
ENCODING 347
SWIDTH 556 0
DWIDTH 10 0
BBX 8 14 1 0
BITMAP
06
0C
18
00
7C
FF
E7
F0
FE
3F
07
E7
FF
3C
ENDCHAR
STARTCHAR Scircumflex
ENCODING 348
SWIDTH 667 0
DWIDTH 12 0
BBX 10 16 1 0
BITMAP
0600
0F00
1980
0000
1F00
3FC0
71C0
7000
7800
3F00
0F80
03C0
E1C0
F1C0
7F80
3F00
ENDCHAR
STARTCHAR scircumflex
ENCODING 349
SWIDTH 556 0
DWIDTH 10 0
BBX 8 14 1 0
BITMAP
18
3C
66
00
7C
FF
E7
F0
FE
3F
07
E7
FF
3C
ENDCHAR
STARTCHAR Scedilla
ENCODING 350
SWIDTH 667 0
DWIDTH 12 0
BBX 10 16 1 -4
BITMAP
1F00
3FC0
71C0
7000
7800
3F00
0F80
03C0
E1C0
F1C0
7F80
3F00
0C00
0E00
0600
0E00
ENDCHAR
STARTCHAR scedilla
ENCODING 351
SWIDTH 556 0
DWIDTH 10 0
BBX 8 14 1 -4
BITMAP
7C
FF
E7
F0
FE
3F
07
E7
FF
3C
18
1C
0C
1C
ENDCHAR
STARTCHAR Scaron
ENCODING 352
SWIDTH 667 0
DWIDTH 12 0
BBX 10 16 1 0
BITMAP
3300
1E00
0C00
0000
1F00
3FC0
71C0
7000
7800
3F00
0F80
03C0
E1C0
F1C0
7F80
3F00
ENDCHAR
STARTCHAR scaron
ENCODING 353
SWIDTH 556 0
DWIDTH 10 0
BBX 8 14 1 0
BITMAP
66
3C
18
00
7C
FF
E7
F0
FE
3F
07
E7
FF
3C
ENDCHAR
STARTCHAR Tcommaaccent
ENCODING 354
SWIDTH 611 0
DWIDTH 11 0
BBX 9 16 2 -4
BITMAP
FF80
FF80
1C00
1C00
1C00
1C00
1C00
1C00
1C00
1C00
1C00
1C00
3000
3800
1800
3800
ENDCHAR
STARTCHAR tcommaaccent
ENCODING 355
SWIDTH 333 0
DWIDTH 6 0
BBX 6 16 0 -4
BITMAP
30
70
FC
FC
70
70
70
70
70
70
7C
3C
30
38
18
38
ENDCHAR
STARTCHAR Tcaron
ENCODING 356
SWIDTH 611 0
DWIDTH 11 0
BBX 9 16 1 0
BITMAP
3300
1E00
0C00
0000
FF80
FF80
1C00
1C00
1C00
1C00
1C00
1C00
1C00
1C00
1C00
1C00
ENDCHAR
STARTCHAR tcaron
ENCODING 357
SWIDTH 500 0
DWIDTH 9 0
BBX 9 13 0 0
BITMAP
0180
3180
7080
FD80
FC00
7000
7000
7000
7000
7000
7000
7C00
3C00
ENDCHAR
STARTCHAR Tbar
ENCODING 358
SWIDTH 611 0
DWIDTH 11 0
BBX 9 12 1 0
BITMAP
FF80
FF80
1C00
1C00
1C00
7F00
7F00
1C00
1C00
1C00
1C00
1C00
ENDCHAR
STARTCHAR tbar
ENCODING 359
SWIDTH 333 0
DWIDTH 6 0
BBX 6 12 0 0
BITMAP
30
70
FC
FC
70
70
FC
FC
70
70
7C
3C
ENDCHAR
STARTCHAR Utilde
ENCODING 360
SWIDTH 722 0
DWIDTH 13 0
BBX 11 16 1 0
BITMAP
0C80
1F80
1300
0000
E0E0
E0E0
E0E0
E0E0
E0E0
E0E0
E0E0
E0E0
E0E0
F1E0
7FC0
1F00
ENDCHAR
STARTCHAR utilde
ENCODING 361
SWIDTH 611 0
DWIDTH 11 0
BBX 9 14 1 0
BITMAP
3200
7E00
4C00
0000
E380
E380
E380
E380
E380
E380
E380
E780
FF80
7B80
ENDCHAR
STARTCHAR Umacron
ENCODING 362
SWIDTH 722 0
DWIDTH 13 0
BBX 11 15 1 0
BITMAP
1F80
1F80
0000
E0E0
E0E0
E0E0
E0E0
E0E0
E0E0
E0E0
E0E0
E0E0
F1E0
7FC0
1F00
ENDCHAR
STARTCHAR umacron
ENCODING 363
SWIDTH 611 0
DWIDTH 11 0
BBX 9 13 1 0
BITMAP
7E00
7E00
0000
E380
E380
E380
E380
E380
E380
E380
E780
FF80
7B80
ENDCHAR
STARTCHAR Ubreve
ENCODING 364
SWIDTH 722 0
DWIDTH 13 0
BBX 11 16 1 0
BITMAP
1080
1F80
0F00
0000
E0E0
E0E0
E0E0
E0E0
E0E0
E0E0
E0E0
E0E0
E0E0
F1E0
7FC0
1F00
ENDCHAR
STARTCHAR ubreve
ENCODING 365
SWIDTH 611 0
DWIDTH 11 0
BBX 9 14 1 0
BITMAP
2200
3E00
1C00
0000
E380
E380
E380
E380
E380
E380
E380
E780
FF80
7B80
ENDCHAR
STARTCHAR Uring
ENCODING 366
SWIDTH 722 0
DWIDTH 13 0
BBX 11 17 1 0
BITMAP
0600
0900
0900
0600
0000
E0E0
E0E0
E0E0
E0E0
E0E0
E0E0
E0E0
E0E0
E0E0
F1E0
7FC0
1F00
ENDCHAR
STARTCHAR uring
ENCODING 367
SWIDTH 611 0
DWIDTH 11 0
BBX 9 14 1 0
BITMAP
0C00
1200
1200
0C00
E380
E380
E380
E380
E380
E380
E380
E780
FF80
7B80
ENDCHAR
STARTCHAR Uhungarumlaut
ENCODING 368
SWIDTH 722 0
DWIDTH 13 0
BBX 11 16 1 0
BITMAP
0CC0
1980
3300
0000
E0E0
E0E0
E0E0
E0E0
E0E0
E0E0
E0E0
E0E0
E0E0
F1E0
7FC0
1F00
ENDCHAR
STARTCHAR uhungarumlaut
ENCODING 369
SWIDTH 611 0
DWIDTH 11 0
BBX 9 14 1 0
BITMAP
1980
3300
6600
0000
E380
E380
E380
E380
E380
E380
E380
E780
FF80
7B80
ENDCHAR
STARTCHAR Uogonek
ENCODING 370
SWIDTH 722 0
DWIDTH 13 0
BBX 11 16 1 -4
BITMAP
E0E0
E0E0
E0E0
E0E0
E0E0
E0E0
E0E0
E0E0
E0E0
F1E0
7FC0
1F00
0600
0C00
0C00
0E00
ENDCHAR
STARTCHAR uogonek
ENCODING 371
SWIDTH 611 0
DWIDTH 11 0
BBX 9 14 1 -4
BITMAP
E380
E380
E380
E380
E380
E380
E380
E780
FF80
7B80
0180
0300
0300
0380
ENDCHAR
STARTCHAR Wcircumflex
ENCODING 372
SWIDTH 944 0
DWIDTH 17 0
BBX 17 16 0 0
BITMAP
00C000
01E000
033000
000000
C1C380
E1C300
E3C300
636700
636700
736600
366600
363600
363E00
3E3C00
1C3C00
1C3C00
ENDCHAR
STARTCHAR wcircumflex
ENCODING 373
SWIDTH 833 0
DWIDTH 15 0
BBX 13 14 1 0
BITMAP
0300
0780
0CC0
0000
C718
C718
E538
6DB0
6DB0
6DB0
69B0
68A0
38E0
38E0
ENDCHAR
STARTCHAR Ycircumflex
ENCODING 374
SWIDTH 722 0
DWIDTH 13 0
BBX 11 16 1 0
BITMAP
0600
0F00
1980
0000
E0E0
60C0
71C0
3B80
3B80
1F00
0E00
0E00
0E00
0E00
0E00
0E00
ENDCHAR
STARTCHAR ycircumflex
ENCODING 375
SWIDTH 611 0
DWIDTH 11 0
BBX 9 18 1 -4
BITMAP
0C00
1E00
3300
0000
E180
E380
6300
6300
7700
3600
3600
3E00
1C00
1C00
1C00
1800
7800
7000
ENDCHAR
STARTCHAR Ydieresis
ENCODING 376
SWIDTH 722 0
DWIDTH 13 0
BBX 11 15 1 0
BITMAP
1980
1980
0000
E0E0
60C0
71C0
3B80
3B80
1F00
0E00
0E00
0E00
0E00
0E00
0E00
ENDCHAR
STARTCHAR Zacute
ENCODING 377
SWIDTH 556 0
DWIDTH 10 0
BBX 8 16 1 0
BITMAP
06
0C
18
00
FF
FF
07
0E
0C
1C
38
30
70
E0
FF
FF
ENDCHAR
STARTCHAR zacute
ENCODING 378
SWIDTH 500 0
DWIDTH 9 0
BBX 7 14 1 0
BITMAP
0C
18
30
00
FE
FE
0E
1C
38
38
70
E0
FE
FE
ENDCHAR
STARTCHAR Zdotaccent
ENCODING 379
SWIDTH 556 0
DWIDTH 10 0
BBX 8 15 1 0
BITMAP
1C
1C
00
FF
FF
07
0E
0C
1C
38
30
70
E0
FF
FF
ENDCHAR
STARTCHAR zdotaccent
ENCODING 380
SWIDTH 500 0
DWIDTH 9 0
BBX 7 13 1 0
BITMAP
38
38
00
FE
FE
0E
1C
38
38
70
E0
FE
FE
ENDCHAR
STARTCHAR Zcaron
ENCODING 381
SWIDTH 556 0
DWIDTH 10 0
BBX 8 16 1 0
BITMAP
66
3C
18
00
FF
FF
07
0E
0C
1C
38
30
70
E0
FF
FF
ENDCHAR
STARTCHAR zcaron
ENCODING 382
SWIDTH 500 0
DWIDTH 9 0
BBX 7 14 1 0
BITMAP
66
3C
18
00
FE
FE
0E
1C
38
38
70
E0
FE
FE
ENDCHAR
STARTCHAR longs
ENCODING 383
SWIDTH 278 0
DWIDTH 5 0
BBX 5 13 1 0
BITMAP
78
F8
E0
E0
E0
E0
E0
E0
E0
E0
E0
E0
E0
ENDCHAR
STARTCHAR florin
ENCODING 402
SWIDTH 556 0
DWIDTH 10 0
BBX 8 16 1 -4
BITMAP
0F
1F
1C
38
7E
7E
38
38
70
70
70
70
60
E0
E0
E0
ENDCHAR
STARTCHAR Aringacute
ENCODING 506
SWIDTH 722 0
DWIDTH 13 0
BBX 13 19 0 0
BITMAP
00C0
0180
0300
0000
0300
0480
0480
0F80
0F80
0D80
1DC0
1DC0
38E0
38E0
3FE0
7FF0
7070
7070
E038
ENDCHAR
STARTCHAR aringacute
ENCODING 507
SWIDTH 556 0
DWIDTH 10 0
BBX 9 18 1 0
BITMAP
0300
0600
0C00
1800
2400
2400
1800
0000
3C00
7F00
E700
0700
7F00
FF00
E700
E700
FF80
7380
ENDCHAR
STARTCHAR AEacute
ENCODING 508
SWIDTH 1000 0
DWIDTH 18 0
BBX 17 16 0 0
BITMAP
000C00
001800
003000
000000
07FF80
07FF80
0EE000
0EE000
0CE000
1CFF00
18FF00
3FE000
3FE000
70E000
70FF80
E0FF80
ENDCHAR
STARTCHAR aeacute
ENCODING 509
SWIDTH 889 0
DWIDTH 16 0
BBX 14 14 1 0
BITMAP
00C0
0180
0300
0000
3EF0
7FF8
E39C
039C
3FFC
FFFC
E380
E79C
FDF8
78F0
ENDCHAR
STARTCHAR Oslashacute
ENCODING 510
SWIDTH 778 0
DWIDTH 14 0
BBX 12 16 1 0
BITMAP
0180
0300
0600
0000
1FE0
3FC0
71E0
E1F0
E370
E270
E470
EC70
F8F0
70E0
3FC0
7F80
ENDCHAR
STARTCHAR oslashacute
ENCODING 511
SWIDTH 611 0
DWIDTH 11 0
BBX 11 14 0 0
BITMAP
0180
0300
0600
0000
1FC0
3F80
7BC0
73C0
75C0
75C0
79C0
7BC0
3F80
7F00
ENDCHAR
STARTCHAR Scommaaccent
ENCODING 536
SWIDTH 667 0
DWIDTH 12 0
BBX 10 16 1 -4
BITMAP
1F00
3FC0
71C0
7000
7800
3F00
0F80
03C0
E1C0
F1C0
7F80
3F00
0000
0C00
0C00
0400
ENDCHAR
STARTCHAR scommaaccent
ENCODING 537
SWIDTH 556 0
DWIDTH 10 0
BBX 8 14 1 -4
BITMAP
7C
FF
E7
F0
FE
3F
07
E7
FF
3C
00
18
18
08
ENDCHAR
STARTCHAR uni021A
ENCODING 538
SWIDTH 611 0
DWIDTH 11 0
BBX 9 16 1 -4
BITMAP
FF80
FF80
1C00
1C00
1C00
1C00
1C00
1C00
1C00
1C00
1C00
1C00
0000
0C00
0C00
0400
ENDCHAR
STARTCHAR uni021B
ENCODING 539
SWIDTH 333 0
DWIDTH 6 0
BBX 6 16 0 -4
BITMAP
30
70
FC
FC
70
70
70
70
70
70
7C
3C
00
30
30
10
ENDCHAR
STARTCHAR circumflex
ENCODING 710
SWIDTH 333 0
DWIDTH 6 0
BBX 6 3 0 11
BITMAP
30
78
CC
ENDCHAR
STARTCHAR caron
ENCODING 711
SWIDTH 333 0
DWIDTH 6 0
BBX 6 3 0 11
BITMAP
CC
78
30
ENDCHAR
STARTCHAR uni02C9
ENCODING 713
SWIDTH 333 0
DWIDTH 6 0
BBX 6 2 0 11
BITMAP
FC
FC
ENDCHAR
STARTCHAR breve
ENCODING 728
SWIDTH 278 0
DWIDTH 5 0
BBX 5 3 0 11
BITMAP
88
F8
70
ENDCHAR
STARTCHAR dotaccent
ENCODING 729
SWIDTH 333 0
DWIDTH 6 0
BBX 3 2 2 11
BITMAP
E0
E0
ENDCHAR
STARTCHAR ring
ENCODING 730
SWIDTH 333 0
DWIDTH 6 0
BBX 4 4 1 10
BITMAP
60
90
90
60
ENDCHAR
STARTCHAR ogonek
ENCODING 731
SWIDTH 333 0
DWIDTH 6 0
BBX 3 4 1 -4
BITMAP
60
C0
C0
E0
ENDCHAR
STARTCHAR tilde
ENCODING 732
SWIDTH 333 0
DWIDTH 6 0
BBX 6 3 0 11
BITMAP
64
FC
98
ENDCHAR
STARTCHAR hungarumlaut
ENCODING 733
SWIDTH 333 0
DWIDTH 6 0
BBX 8 3 -1 11
BITMAP
33
66
CC
ENDCHAR
STARTCHAR semicolon
ENCODING 894
SWIDTH 389 0
DWIDTH 7 0
BBX 3 13 2 -3
BITMAP
E0
E0
E0
00
00
00
00
E0
E0
E0
60
60
C0
ENDCHAR
STARTCHAR tonos
ENCODING 900
SWIDTH 333 0
DWIDTH 6 0
BBX 3 3 2 11
BITMAP
60
C0
80
ENDCHAR
STARTCHAR dieresistonos
ENCODING 901
SWIDTH 444 0
DWIDTH 8 0
BBX 8 3 0 11
BITMAP
0C
DB
D3
ENDCHAR
STARTCHAR Alphatonos
ENCODING 902
SWIDTH 722 0
DWIDTH 13 0
BBX 13 12 0 0
BITMAP
6F80
CF80
8D80
1DC0
1DC0
38E0
38E0
3FE0
7FF0
7070
7070
E038
ENDCHAR
STARTCHAR anoteleia
ENCODING 903
SWIDTH 333 0
DWIDTH 6 0
BBX 3 3 2 5
BITMAP
E0
E0
E0
ENDCHAR
STARTCHAR Epsilontonos
ENCODING 904
SWIDTH 833 0
DWIDTH 15 0
BBX 14 12 0 0
BITMAP
6FFC
CFFC
8E00
0E00
0E00
0FF8
0FF8
0E00
0E00
0E00
0FFC
0FFC
ENDCHAR
STARTCHAR Etatonos
ENCODING 905
SWIDTH 889 0
DWIDTH 16 0
BBX 15 12 0 0
BITMAP
6E0E
CE0E
8E0E
0E0E
0E0E
0FFE
0FFE
0E0E
0E0E
0E0E
0E0E
0E0E
ENDCHAR
STARTCHAR Iotatonos
ENCODING 906
SWIDTH 500 0
DWIDTH 9 0
BBX 7 12 1 0
BITMAP
6E
CE
8E
0E
0E
0E
0E
0E
0E
0E
0E
0E
ENDCHAR
STARTCHAR Omicrontonos
ENCODING 908
SWIDTH 833 0
DWIDTH 15 0
BBX 14 12 0 0
BITMAP
67E0
CFF0
9C38
383C
381C
381C
381C
381C
3C3C
1C38
0FF0
07E0
ENDCHAR
STARTCHAR Upsilontonos
ENCODING 910
SWIDTH 944 0
DWIDTH 17 0
BBX 15 12 1 0
BITMAP
6E0E
C60C
871C
03B8
03B8
01F0
00E0
00E0
00E0
00E0
00E0
00E0
ENDCHAR
STARTCHAR Omegatonos
ENCODING 911
SWIDTH 833 0
DWIDTH 15 0
BBX 14 12 0 0
BITMAP
67E0
DFF8
9C38
381C
381C
381C
381C
3C3C
1C38
0E70
3E7C
3E7C
ENDCHAR
STARTCHAR iotadieresistonos
ENCODING 912
SWIDTH 278 0
DWIDTH 5 0
BBX 8 14 -1 0
BITMAP
0C
DB
D3
00
38
38
38
38
38
38
38
38
38
3C
ENDCHAR
STARTCHAR Alpha
ENCODING 913
SWIDTH 722 0
DWIDTH 13 0
BBX 13 12 0 0
BITMAP
0F80
0F80
0D80
1DC0
1DC0
38E0
38E0
3FE0
7FF0
7070
7070
E038
ENDCHAR
STARTCHAR Beta
ENCODING 914
SWIDTH 722 0
DWIDTH 13 0
BBX 11 12 1 0
BITMAP
FF00
FFC0
E1C0
E1C0
E1C0
FF80
FFC0
E0E0
E0E0
E0E0
FFC0
FF80
ENDCHAR
STARTCHAR Gamma
ENCODING 915
SWIDTH 611 0
DWIDTH 11 0
BBX 10 12 1 0
BITMAP
FFC0
FFC0
E000
E000
E000
E000
E000
E000
E000
E000
E000
E000
ENDCHAR
STARTCHAR Delta
ENCODING 916
SWIDTH 722 0
DWIDTH 13 0
BBX 11 12 1 0
BITMAP
1F00
1F00
1B00
3B80
3B80
3180
71C0
71C0
71C0
E0E0
FFE0
FFE0
ENDCHAR
STARTCHAR Epsilon
ENCODING 917
SWIDTH 667 0
DWIDTH 12 0
BBX 10 12 1 0
BITMAP
FFC0
FFC0
E000
E000
E000
FF80
FF80
E000
E000
E000
FFC0
FFC0
ENDCHAR
STARTCHAR Zeta
ENCODING 918
SWIDTH 556 0
DWIDTH 10 0
BBX 8 12 1 0
BITMAP
FF
FF
07
0E
0C
1C
38
30
70
E0
FF
FF
ENDCHAR
STARTCHAR Eta
ENCODING 919
SWIDTH 722 0
DWIDTH 13 0
BBX 11 12 1 0
BITMAP
E0E0
E0E0
E0E0
E0E0
E0E0
FFE0
FFE0
E0E0
E0E0
E0E0
E0E0
E0E0
ENDCHAR
STARTCHAR Theta
ENCODING 920
SWIDTH 778 0
DWIDTH 14 0
BBX 12 12 1 0
BITMAP
1F80
3FC0
70E0
E0F0
E070
EF70
EF70
E070
F0F0
70E0
3FC0
1F80
ENDCHAR
STARTCHAR Iota
ENCODING 921
SWIDTH 278 0
DWIDTH 5 0
BBX 3 12 1 0
BITMAP
E0
E0
E0
E0
E0
E0
E0
E0
E0
E0
E0
E0
ENDCHAR
STARTCHAR Kappa
ENCODING 922
SWIDTH 722 0
DWIDTH 13 0
BBX 12 12 1 0
BITMAP
E070
E0E0
E380
E700
EE00
FE00
FF00
E300
E380
E1C0
E0E0
E070
ENDCHAR
STARTCHAR Lambda
ENCODING 923
SWIDTH 722 0
DWIDTH 13 0
BBX 13 12 0 0
BITMAP
0700
0F80
0D80
1DC0
1DC0
18C0
38E0
38E0
7070
7070
E038
E038
ENDCHAR
STARTCHAR Mu
ENCODING 924
SWIDTH 833 0
DWIDTH 15 0
BBX 13 12 1 0
BITMAP
F078
F8F8
F8F8
F8F8
E8F8
EDB8
EDB8
EDB8
E538
E738
E738
E738
ENDCHAR
STARTCHAR Nu
ENCODING 925
SWIDTH 722 0
DWIDTH 13 0
BBX 11 12 1 0
BITMAP
F0E0
F0E0
F8E0
F8E0
ECE0
ECE0
E6E0
E6E0
E3E0
E3E0
E1E0
E1E0
ENDCHAR
STARTCHAR Xi
ENCODING 926
SWIDTH 667 0
DWIDTH 12 0
BBX 10 12 1 0
BITMAP
FFC0
FFC0
0000
0000
0000
7F80
7F80
0000
0000
0000
FFC0
FFC0
ENDCHAR
STARTCHAR Omicron
ENCODING 927
SWIDTH 778 0
DWIDTH 14 0
BBX 12 12 1 0
BITMAP
1F80
3FC0
70E0
E0F0
E070
E070
E070
E070
F0F0
70E0
3FC0
1F80
ENDCHAR
STARTCHAR Pi
ENCODING 928
SWIDTH 722 0
DWIDTH 13 0
BBX 11 12 1 0
BITMAP
FFE0
FFE0
E0E0
E0E0
E0E0
E0E0
E0E0
E0E0
E0E0
E0E0
E0E0
E0E0
ENDCHAR
STARTCHAR Rho
ENCODING 929
SWIDTH 667 0
DWIDTH 12 0
BBX 10 12 1 0
BITMAP
FF00
FF80
E1C0
E1C0
E1C0
FF80
FF00
E000
E000
E000
E000
E000
ENDCHAR
STARTCHAR Sigma
ENCODING 931
SWIDTH 611 0
DWIDTH 11 0
BBX 9 12 1 0
BITMAP
FF00
FF00
F000
7800
3C00
1C00
3C00
3800
7000
E000
FF80
FF80
ENDCHAR
STARTCHAR Tau
ENCODING 932
SWIDTH 611 0
DWIDTH 11 0
BBX 9 12 1 0
BITMAP
FF80
FF80
1C00
1C00
1C00
1C00
1C00
1C00
1C00
1C00
1C00
1C00
ENDCHAR
STARTCHAR Upsilon
ENCODING 933
SWIDTH 722 0
DWIDTH 13 0
BBX 11 12 1 0
BITMAP
E0E0
60C0
71C0
3B80
3B80
1F00
0E00
0E00
0E00
0E00
0E00
0E00
ENDCHAR
STARTCHAR Phi
ENCODING 934
SWIDTH 833 0
DWIDTH 15 0
BBX 13 12 1 0
BITMAP
0700
3FE0
7FF0
F778
E738
E738
E738
F778
7FF0
3FE0
0700
0700
ENDCHAR
STARTCHAR Chi
ENCODING 935
SWIDTH 667 0
DWIDTH 12 0
BBX 12 12 0 0
BITMAP
E070
70E0
39C0
1F80
0F80
0F00
0F00
1F80
39C0
30E0
70E0
E070
ENDCHAR
STARTCHAR Psi
ENCODING 936
SWIDTH 833 0
DWIDTH 15 0
BBX 13 12 1 0
BITMAP
E738
E738
E738
E738
E738
E738
7FF0
3FE0
0700
0700
0700
0700
ENDCHAR
STARTCHAR Omega
ENCODING 937
SWIDTH 778 0
DWIDTH 14 0
BBX 12 12 1 0
BITMAP
1F80
7FE0
70E0
E070
E070
E070
E070
F0F0
70E0
39C0
F9F0
F9F0
ENDCHAR
STARTCHAR Iotadieresis
ENCODING 938
SWIDTH 278 0
DWIDTH 5 0
BBX 6 15 0 0
BITMAP
CC
CC
00
70
70
70
70
70
70
70
70
70
70
70
70
ENDCHAR
STARTCHAR Upsilondieresis
ENCODING 939
SWIDTH 722 0
DWIDTH 13 0
BBX 11 15 1 0
BITMAP
1980
1980
0000
E0E0
60C0
71C0
3B80
3B80
1F00
0E00
0E00
0E00
0E00
0E00
0E00
ENDCHAR
STARTCHAR alphatonos
ENCODING 940
SWIDTH 611 0
DWIDTH 11 0
BBX 10 14 1 0
BITMAP
0600
0C00
0800
0000
3CC0
7FC0
E780
E380
E380
E380
E380
E780
7D80
39C0
ENDCHAR
STARTCHAR epsilontonos
ENCODING 941
SWIDTH 500 0
DWIDTH 9 0
BBX 8 14 1 0
BITMAP
0C
18
10
00
3E
FF
E2
E0
7C
7C
E0
E2
FF
7C
ENDCHAR
STARTCHAR etatonos
ENCODING 942
SWIDTH 611 0
DWIDTH 11 0
BBX 9 18 1 -4
BITMAP
0600
0C00
0800
0000
EF00
FF80
F380
E380
E380
E380
E380
E380
E380
E380
0380
0380
0380
0380
ENDCHAR
STARTCHAR iotatonos
ENCODING 943
SWIDTH 278 0
DWIDTH 5 0
BBX 4 14 1 0
BITMAP
30
60
40
00
E0
E0
E0
E0
E0
E0
E0
E0
E0
F0
ENDCHAR
STARTCHAR upsilondieresistonos
ENCODING 944
SWIDTH 556 0
DWIDTH 10 0
BBX 8 14 1 0
BITMAP
0C
DB
D3
00
EE
E6
E7
E7
E7
E7
E7
E7
7E
3C
ENDCHAR
STARTCHAR alpha
ENCODING 945
SWIDTH 611 0
DWIDTH 11 0
BBX 10 10 1 0
BITMAP
3CC0
7FC0
E780
E380
E380
E380
E380
E780
7D80
39C0
ENDCHAR
STARTCHAR beta
ENCODING 946
SWIDTH 611 0
DWIDTH 11 0
BBX 9 17 1 -4
BITMAP
3E00
7F00
E700
E700
E700
EE00
EF00
E380
E380
E380
E380
FF00
FE00
E000
E000
E000
E000
ENDCHAR
STARTCHAR gamma
ENCODING 947
SWIDTH 611 0
DWIDTH 11 0
BBX 11 14 0 -4
BITMAP
E0E0
E0E0
60C0
71C0
3180
3B80
1B00
1B00
0E00
0E00
0E00
0C00
1C00
1C00
ENDCHAR
STARTCHAR delta
ENCODING 948
SWIDTH 611 0
DWIDTH 11 0
BBX 9 13 1 0
BITMAP
7F00
7F00
3800
1C00
3E00
7700
E380
E380
E380
E380
E380
7F00
3E00
ENDCHAR
STARTCHAR epsilon
ENCODING 949
SWIDTH 500 0
DWIDTH 9 0
BBX 8 10 1 0
BITMAP
3E
FF
E2
E0
7C
7C
E0
E2
FF
7C
ENDCHAR
STARTCHAR zeta
ENCODING 950
SWIDTH 444 0
DWIDTH 8 0
BBX 7 17 1 -4
BITMAP
FE
FE
0E
1C
18
30
70
60
E0
E0
E0
F8
7C
3E
0E
0E
04
ENDCHAR
STARTCHAR eta
ENCODING 951
SWIDTH 611 0
DWIDTH 11 0
BBX 9 14 1 -4
BITMAP
EF00
FF80
F380
E380
E380
E380
E380
E380
E380
E380
0380
0380
0380
0380
ENDCHAR
STARTCHAR theta
ENCODING 952
SWIDTH 556 0
DWIDTH 10 0
BBX 8 13 1 0
BITMAP
3C
7E
66
E7
E7
FF
FF
E7
E7
E7
66
7E
3C
ENDCHAR
STARTCHAR iota
ENCODING 953
SWIDTH 278 0
DWIDTH 5 0
BBX 4 10 1 0
BITMAP
E0
E0
E0
E0
E0
E0
E0
E0
E0
F0
ENDCHAR
STARTCHAR kappa
ENCODING 954
SWIDTH 556 0
DWIDTH 10 0
BBX 9 10 1 0
BITMAP
E380
E700
E600
EC00
FC00
FC00
E600
E700
E300
E380
ENDCHAR
STARTCHAR lambda
ENCODING 955
SWIDTH 611 0
DWIDTH 11 0
BBX 11 14 0 0
BITMAP
7800
7C00
0C00
0E00
0600
0700
0F00
1F80
1B80
3980
31C0
70C0
60E0
E0E0
ENDCHAR
STARTCHAR mu
ENCODING 956
SWIDTH 611 0
DWIDTH 11 0
BBX 9 14 1 -4
BITMAP
E380
E380
E380
E380
E380
E380
E380
E780
FF80
FB80
E000
E000
E000
E000
ENDCHAR
STARTCHAR nu
ENCODING 957
SWIDTH 611 0
DWIDTH 11 0
BBX 10 10 0 0
BITMAP
E1C0
E1C0
61C0
71C0
31C0
3380
3B80
1F00
1E00
0E00
ENDCHAR
STARTCHAR xi
ENCODING 958
SWIDTH 444 0
DWIDTH 8 0
BBX 7 17 1 -4
BITMAP
FE
FE
38
70
70
3C
3C
70
E0
E0
E0
F8
7E
1E
0E
0E
04
ENDCHAR
STARTCHAR omicron
ENCODING 959
SWIDTH 611 0
DWIDTH 11 0
BBX 9 10 1 0
BITMAP
3E00
7F00
F780
E380
E380
E380
E380
F780
7F00
3E00
ENDCHAR
STARTCHAR pi
ENCODING 960
SWIDTH 778 0
DWIDTH 14 0
BBX 12 10 1 0
BITMAP
FFF0
FFF0
39C0
39C0
39C0
39C0
39C0
39C0
71F0
70F0
ENDCHAR
STARTCHAR rho
ENCODING 961
SWIDTH 611 0
DWIDTH 11 0
BBX 9 14 1 -4
BITMAP
3C00
7F00
E700
E380
E380
E380
E380
E380
FF00
EE00
E000
E000
E000
E000
ENDCHAR
STARTCHAR sigma1
ENCODING 962
SWIDTH 500 0
DWIDTH 9 0
BBX 7 14 1 -4
BITMAP
3C
7E
70
E0
E0
E0
E0
E0
F8
7E
1E
0E
0E
04
ENDCHAR
STARTCHAR sigma
ENCODING 963
SWIDTH 667 0
DWIDTH 12 0
BBX 11 10 1 0
BITMAP
1FE0
7FE0
7300
E380
E380
E380
E380
F780
7F00
3E00
ENDCHAR
STARTCHAR tau
ENCODING 964
SWIDTH 389 0
DWIDTH 7 0
BBX 7 10 0 0
BITMAP
FE
FE
38
38
38
38
38
38
3C
1C
ENDCHAR
STARTCHAR upsilon
ENCODING 965
SWIDTH 556 0
DWIDTH 10 0
BBX 8 10 1 0
BITMAP
EE
E6
E7
E7
E7
E7
E7
E7
7E
3C
ENDCHAR
STARTCHAR phi
ENCODING 966
SWIDTH 722 0
DWIDTH 13 0
BBX 11 14 1 -4
BITMAP
3780
7FC0
EEE0
EEE0
EEE0
EEE0
EEE0
EEE0
7FC0
3F80
0E00
0E00
0E00
0E00
ENDCHAR
STARTCHAR chi
ENCODING 967
SWIDTH 611 0
DWIDTH 11 0
BBX 11 14 0 -4
BITMAP
F0E0
F0C0
39C0
1B80
1F00
0F00
0E00
0E00
1F00
1B80
3180
71C0
60C0
E0E0
ENDCHAR
STARTCHAR psi
ENCODING 968
SWIDTH 833 0
DWIDTH 15 0
BBX 13 16 1 -4
BITMAP
0700
0700
E738
E738
E738
E738
E738
E738
E738
F738
7FF0
3FE0
0700
0700
0700
0700
ENDCHAR
STARTCHAR omega
ENCODING 969
SWIDTH 833 0
DWIDTH 15 0
BBX 13 10 1 0
BITMAP
3060
7070
6030
E038
E738
E738
E738
E738
7DF0
38E0
ENDCHAR
STARTCHAR iotadieresis
ENCODING 970
SWIDTH 278 0
DWIDTH 5 0
BBX 6 13 0 0
BITMAP
CC
CC
00
70
70
70
70
70
70
70
70
70
78
ENDCHAR
STARTCHAR upsilondieresis
ENCODING 971
SWIDTH 556 0
DWIDTH 10 0
BBX 8 13 1 0
BITMAP
66
66
00
EE
E6
E7
E7
E7
E7
E7
E7
7E
3C
ENDCHAR
STARTCHAR omicrontonos
ENCODING 972
SWIDTH 611 0
DWIDTH 11 0
BBX 9 14 1 0
BITMAP
0600
0C00
0800
0000
3E00
7F00
F780
E380
E380
E380
E380
F780
7F00
3E00
ENDCHAR
STARTCHAR upsilontonos
ENCODING 973
SWIDTH 556 0
DWIDTH 10 0
BBX 8 14 1 0
BITMAP
0C
18
10
00
EE
E6
E7
E7
E7
E7
E7
E7
7E
3C
ENDCHAR
STARTCHAR omegatonos
ENCODING 974
SWIDTH 833 0
DWIDTH 15 0
BBX 13 14 1 0
BITMAP
0180
0300
0200
0000
3060
7070
6030
E038
E738
E738
E738
E738
7DF0
38E0
ENDCHAR
STARTCHAR afii10023
ENCODING 1025
SWIDTH 667 0
DWIDTH 12 0
BBX 10 15 1 0
BITMAP
3300
3300
0000
FFC0
FFC0
E000
E000
E000
FF80
FF80
E000
E000
E000
FFC0
FFC0
ENDCHAR
STARTCHAR afii10051
ENCODING 1026
SWIDTH 889 0
DWIDTH 16 0
BBX 15 12 0 0
BITMAP
FFE0
FFE0
0E00
0E00
0EFC
0FFE
0E0E
0E0E
0E0E
0E4E
0EFE
0E7C
ENDCHAR
STARTCHAR afii10052
ENCODING 1027
SWIDTH 611 0
DWIDTH 11 0
BBX 8 16 2 0
BITMAP
0C
18
30
00
FF
FF
E0
E0
E0
E0
E0
E0
E0
E0
E0
E0
ENDCHAR
STARTCHAR afii10053
ENCODING 1028
SWIDTH 722 0
DWIDTH 13 0
BBX 11 12 1 0
BITMAP
1F80
3FC0
71E0
E0C0
E000
FE00
FE00
E000
E0C0
71E0
3FC0
1F00
ENDCHAR
STARTCHAR afii10054
ENCODING 1029
SWIDTH 667 0
DWIDTH 12 0
BBX 10 12 1 0
BITMAP
1F00
3FC0
71C0
7000
7800
3F00
0F80
03C0
E1C0
F1C0
7F80
3F00
ENDCHAR
STARTCHAR afii10055
ENCODING 1030
SWIDTH 278 0
DWIDTH 5 0
BBX 3 12 1 0
BITMAP
E0
E0
E0
E0
E0
E0
E0
E0
E0
E0
E0
E0
ENDCHAR
STARTCHAR afii10056
ENCODING 1031
SWIDTH 278 0
DWIDTH 5 0
BBX 6 15 0 0
BITMAP
CC
CC
00
70
70
70
70
70
70
70
70
70
70
70
70
ENDCHAR
STARTCHAR afii10057
ENCODING 1032
SWIDTH 556 0
DWIDTH 10 0
BBX 9 12 0 0
BITMAP
0F80
0F80
0380
0380
0380
0380
0380
0380
E380
F380
7F00
3E00
ENDCHAR
STARTCHAR afii10058
ENCODING 1033
SWIDTH 1111 0
DWIDTH 20 0
BBX 19 12 0 0
BITMAP
1FE000
1FE000
1CE000
3CE000
38E000
38FF80
38FFC0
38E0E0
38E0E0
70E0E0
F0FFC0
E0FF80
ENDCHAR
STARTCHAR afii10059
ENCODING 1034
SWIDTH 1056 0
DWIDTH 19 0
BBX 17 12 1 0
BITMAP
E1C000
E1C000
E1C000
E1C000
E1C000
FFFE00
FFFF00
E1C380
E1C380
E1C380
E1FF00
E1FE00
ENDCHAR
STARTCHAR afii10060
ENCODING 1035
SWIDTH 889 0
DWIDTH 16 0
BBX 15 12 0 0
BITMAP
FFE0
FFE0
0E00
0E00
0EF8
0FFC
0E1E
0E0E
0E0E
0E0E
0E0E
0E0E
ENDCHAR
STARTCHAR afii10061
ENCODING 1036
SWIDTH 611 0
DWIDTH 11 0
BBX 10 16 1 0
BITMAP
0300
0600
0C00
0000
E1C0
E180
E300
E700
EE00
FC00
FE00
E600
E700
E380
E380
E1C0
ENDCHAR
STARTCHAR afii10062
ENCODING 1038
SWIDTH 611 0
DWIDTH 11 0
BBX 11 16 0 0
BITMAP
1980
1F80
0F00
0000
E0E0
60C0
71C0
3980
1980
1F00
0F00
0E00
0E00
0C00
7C00
7800
ENDCHAR
STARTCHAR afii10145
ENCODING 1039
SWIDTH 722 0
DWIDTH 13 0
BBX 11 16 1 -4
BITMAP
E0E0
E0E0
E0E0
E0E0
E0E0
E0E0
E0E0
E0E0
E0E0
E0E0
FFE0
FFE0
0E00
0E00
0E00
0E00
ENDCHAR
STARTCHAR afii10017
ENCODING 1040
SWIDTH 722 0
DWIDTH 13 0
BBX 13 12 0 0
BITMAP
0F80
0F80
0D80
1DC0
1DC0
38E0
38E0
3FE0
7FF0
7070
7070
E038
ENDCHAR
STARTCHAR afii10018
ENCODING 1041
SWIDTH 722 0
DWIDTH 13 0
BBX 11 12 1 0
BITMAP
FFC0
FFC0
E000
E000
E000
FF80
FFC0
E0E0
E0E0
E0E0
FFC0
FF80
ENDCHAR
STARTCHAR afii10019
ENCODING 1042
SWIDTH 722 0
DWIDTH 13 0
BBX 11 12 1 0
BITMAP
FF00
FFC0
E1C0
E1C0
E1C0
FF80
FFC0
E0E0
E0E0
E0E0
FFC0
FF80
ENDCHAR
STARTCHAR afii10020
ENCODING 1043
SWIDTH 556 0
DWIDTH 10 0
BBX 8 12 1 0
BITMAP
FF
FF
E0
E0
E0
E0
E0
E0
E0
E0
E0
E0
ENDCHAR
STARTCHAR afii10021
ENCODING 1044
SWIDTH 722 0
DWIDTH 13 0
BBX 13 16 0 -4
BITMAP
0FE0
0FE0
0EE0
0EE0
1CE0
1CE0
1CE0
38E0
38E0
70E0
FFF8
FFF8
E038
E038
E038
E038
ENDCHAR
STARTCHAR afii10022
ENCODING 1045
SWIDTH 667 0
DWIDTH 12 0
BBX 10 12 1 0
BITMAP
FFC0
FFC0
E000
E000
E000
FF80
FF80
E000
E000
E000
FFC0
FFC0
ENDCHAR
STARTCHAR afii10024
ENCODING 1046
SWIDTH 944 0
DWIDTH 17 0
BBX 17 12 0 0
BITMAP
E1C380
71C700
31C600
39CE00
1DDC00
0FF800
1FFC00
19CC00
39CE00
71C700
61C300
E1C380
ENDCHAR
STARTCHAR afii10025
ENCODING 1047
SWIDTH 611 0
DWIDTH 11 0
BBX 9 12 1 0
BITMAP
3E00
7F80
F380
E380
0380
1F00
1F00
0380
6380
F380
7F00
3E00
ENDCHAR
STARTCHAR afii10026
ENCODING 1048
SWIDTH 722 0
DWIDTH 13 0
BBX 11 12 1 0
BITMAP
E1E0
E1E0
E3E0
E3E0
E6E0
E6E0
ECE0
ECE0
F8E0
F8E0
F0E0
F0E0
ENDCHAR
STARTCHAR afii10027
ENCODING 1049
SWIDTH 722 0
DWIDTH 13 0
BBX 11 16 1 0
BITMAP
1980
1F80
0F00
0000
E1E0
E1E0
E3E0
E3E0
E6E0
E6E0
ECE0
ECE0
F8E0
F8E0
F0E0
F0E0
ENDCHAR
STARTCHAR afii10028
ENCODING 1050
SWIDTH 611 0
DWIDTH 11 0
BBX 10 12 1 0
BITMAP
E1C0
E180
E300
E700
EE00
FC00
FE00
E600
E700
E380
E380
E1C0
ENDCHAR
STARTCHAR afii10029
ENCODING 1051
SWIDTH 722 0
DWIDTH 13 0
BBX 12 12 0 0
BITMAP
1FF0
1FF0
1C70
3C70
3870
3870
3870
3870
3870
7070
F070
E070
ENDCHAR
STARTCHAR afii10030
ENCODING 1052
SWIDTH 833 0
DWIDTH 15 0
BBX 13 12 1 0
BITMAP
F078
F8F8
F8F8
F8F8
E8F8
EDB8
EDB8
EDB8
E538
E738
E738
E738
ENDCHAR
STARTCHAR afii10031
ENCODING 1053
SWIDTH 722 0
DWIDTH 13 0
BBX 11 12 1 0
BITMAP
E0E0
E0E0
E0E0
E0E0
E0E0
FFE0
FFE0
E0E0
E0E0
E0E0
E0E0
E0E0
ENDCHAR
STARTCHAR afii10032
ENCODING 1054
SWIDTH 778 0
DWIDTH 14 0
BBX 12 12 1 0
BITMAP
1F80
3FC0
70E0
E0F0
E070
E070
E070
E070
F0F0
70E0
3FC0
1F80
ENDCHAR
STARTCHAR afii10033
ENCODING 1055
SWIDTH 722 0
DWIDTH 13 0
BBX 11 12 1 0
BITMAP
FFE0
FFE0
E0E0
E0E0
E0E0
E0E0
E0E0
E0E0
E0E0
E0E0
E0E0
E0E0
ENDCHAR
STARTCHAR afii10034
ENCODING 1056
SWIDTH 667 0
DWIDTH 12 0
BBX 10 12 1 0
BITMAP
FF00
FF80
E1C0
E1C0
E1C0
FF80
FF00
E000
E000
E000
E000
E000
ENDCHAR
STARTCHAR afii10035
ENCODING 1057
SWIDTH 722 0
DWIDTH 13 0
BBX 11 12 1 0
BITMAP
1F80
3FC0
71E0
E0C0
E000
E000
E000
E000
E0C0
71E0
3FC0
1F00
ENDCHAR
STARTCHAR afii10036
ENCODING 1058
SWIDTH 611 0
DWIDTH 11 0
BBX 9 12 1 0
BITMAP
FF80
FF80
1C00
1C00
1C00
1C00
1C00
1C00
1C00
1C00
1C00
1C00
ENDCHAR
STARTCHAR afii10037
ENCODING 1059
SWIDTH 611 0
DWIDTH 11 0
BBX 11 12 0 0
BITMAP
E0E0
60C0
71C0
3980
1980
1F00
0F00
0E00
0E00
0C00
7C00
7800
ENDCHAR
STARTCHAR afii10038
ENCODING 1060
SWIDTH 833 0
DWIDTH 15 0
BBX 13 12 1 0
BITMAP
0700
0700
3FE0
7FF0
E738
E738
E738
E738
7FF0
3FE0
0700
0700
ENDCHAR
STARTCHAR afii10039
ENCODING 1061
SWIDTH 667 0
DWIDTH 12 0
BBX 12 12 0 0
BITMAP
E070
70E0
39C0
1F80
0F80
0F00
0F00
1F80
39C0
30E0
70E0
E070
ENDCHAR
STARTCHAR afii10040
ENCODING 1062
SWIDTH 722 0
DWIDTH 13 0
BBX 12 16 1 -4
BITMAP
E0E0
E0E0
E0E0
E0E0
E0E0
E0E0
E0E0
E0E0
E0E0
E0E0
FFF0
FFF0
0070
0070
0070
0070
ENDCHAR
STARTCHAR afii10041
ENCODING 1063
SWIDTH 722 0
DWIDTH 13 0
BBX 11 12 1 0
BITMAP
E0E0
E0E0
E0E0
E0E0
E0E0
F0E0
7FE0
3EE0
00E0
00E0
00E0
00E0
ENDCHAR
STARTCHAR afii10042
ENCODING 1064
SWIDTH 944 0
DWIDTH 17 0
BBX 15 12 1 0
BITMAP
E38E
E38E
E38E
E38E
E38E
E38E
E38E
E38E
E38E
E38E
FFFE
FFFE
ENDCHAR
STARTCHAR afii10043
ENCODING 1065
SWIDTH 944 0
DWIDTH 17 0
BBX 16 16 1 -4
BITMAP
E38E
E38E
E38E
E38E
E38E
E38E
E38E
E38E
E38E
E38E
FFFF
FFFF
0007
0007
0007
0007
ENDCHAR
STARTCHAR afii10044
ENCODING 1066
SWIDTH 889 0
DWIDTH 16 0
BBX 15 12 0 0
BITMAP
FE00
FE00
0E00
0E00
0E00
0FF8
0FFC
0E0E
0E0E
0E0E
0FFC
0FF8
ENDCHAR
STARTCHAR afii10045
ENCODING 1067
SWIDTH 1000 0
DWIDTH 18 0
BBX 16 12 1 0
BITMAP
E007
E007
E007
E007
E007
FF87
FFC7
E0E7
E0E7
E0E7
FFC7
FF87
ENDCHAR
STARTCHAR afii10046
ENCODING 1068
SWIDTH 722 0
DWIDTH 13 0
BBX 11 12 1 0
BITMAP
E000
E000
E000
E000
E000
FF80
FFC0
E0E0
E0E0
E0E0
FFC0
FF80
ENDCHAR
STARTCHAR afii10047
ENCODING 1069
SWIDTH 722 0
DWIDTH 13 0
BBX 11 12 1 0
BITMAP
3F00
7F80
F1C0
60E0
00E0
0FE0
0FE0
00E0
60E0
F1C0
7F80
1F00
ENDCHAR
STARTCHAR afii10048
ENCODING 1070
SWIDTH 1056 0
DWIDTH 19 0
BBX 17 12 1 0
BITMAP
E0FC00
E1FE00
E38700
E70380
E70380
FF0380
FF0380
E70380
E78380
E38700
E1FE00
E0FC00
ENDCHAR
STARTCHAR afii10049
ENCODING 1071
SWIDTH 722 0
DWIDTH 13 0
BBX 12 12 0 0
BITMAP
1FF0
3FF0
7070
7070
7070
3FF0
0FF0
1C70
3870
3070
7070
E070
ENDCHAR
STARTCHAR afii10065
ENCODING 1072
SWIDTH 556 0
DWIDTH 10 0
BBX 9 10 1 0
BITMAP
3C00
7F00
E700
0700
7F00
FF00
E700
E700
FF80
7380
ENDCHAR
STARTCHAR afii10066
ENCODING 1073
SWIDTH 611 0
DWIDTH 11 0
BBX 9 13 1 0
BITMAP
0780
3F80
7800
6000
DE00
FF00
E380
E380
E380
E380
E380
7F00
3E00
ENDCHAR
STARTCHAR afii10067
ENCODING 1074
SWIDTH 611 0
DWIDTH 11 0
BBX 9 10 1 0
BITMAP
FF00
FF80
E380
E380
FF00
FF00
E380
E380
FF80
FF00
ENDCHAR
STARTCHAR afii10068
ENCODING 1075
SWIDTH 444 0
DWIDTH 8 0
BBX 7 10 1 0
BITMAP
FE
FE
E0
E0
E0
E0
E0
E0
E0
E0
ENDCHAR
STARTCHAR afii10069
ENCODING 1076
SWIDTH 611 0
DWIDTH 11 0
BBX 11 14 0 -4
BITMAP
3FC0
3FC0
31C0
31C0
31C0
31C0
71C0
71C0
FFE0
FFE0
E0E0
E0E0
E0E0
E0E0
ENDCHAR
STARTCHAR afii10070
ENCODING 1077
SWIDTH 611 0
DWIDTH 11 0
BBX 9 10 1 0
BITMAP
3E00
7F00
E300
E380
FF80
FF80
E000
E380
7F00
3E00
ENDCHAR
STARTCHAR afii10072
ENCODING 1078
SWIDTH 722 0
DWIDTH 13 0
BBX 13 10 0 0
BITMAP
C718
6730
6730
3760
3FE0
3FE0
3760
6730
6730
E738
ENDCHAR
STARTCHAR afii10073
ENCODING 1079
SWIDTH 500 0
DWIDTH 9 0
BBX 8 10 0 0
BITMAP
3E
7F
E7
07
1E
1E
07
E7
7F
3E
ENDCHAR
STARTCHAR afii10074
ENCODING 1080
SWIDTH 611 0
DWIDTH 11 0
BBX 9 10 1 0
BITMAP
E380
E780
E780
EF80
EF80
EB80
FB80
F380
F380
F380
ENDCHAR
STARTCHAR afii10075
ENCODING 1081
SWIDTH 611 0
DWIDTH 11 0
BBX 9 14 1 0
BITMAP
3300
3F00
1E00
0000
E380
E780
E780
EF80
EF80
EB80
FB80
F380
F380
F380
ENDCHAR
STARTCHAR afii10076
ENCODING 1082
SWIDTH 500 0
DWIDTH 9 0
BBX 8 10 1 0
BITMAP
E3
E6
E6
EC
FC
FC
EC
E6
E6
E7
ENDCHAR
STARTCHAR afii10077
ENCODING 1083
SWIDTH 611 0
DWIDTH 11 0
BBX 10 10 0 0
BITMAP
1FC0
1FC0
19C0
39C0
39C0
39C0
39C0
31C0
F1C0
E1C0
ENDCHAR
STARTCHAR afii10078
ENCODING 1084
SWIDTH 722 0
DWIDTH 13 0
BBX 11 10 1 0
BITMAP
F1E0
F1E0
FBE0
FBE0
FBE0
EAE0
EAE0
EEE0
EEE0
E6E0
ENDCHAR
STARTCHAR afii10079
ENCODING 1085
SWIDTH 611 0
DWIDTH 11 0
BBX 9 10 1 0
BITMAP
E380
E380
E380
E380
FF80
FF80
E380
E380
E380
E380
ENDCHAR
STARTCHAR afii10080
ENCODING 1086
SWIDTH 611 0
DWIDTH 11 0
BBX 9 10 1 0
BITMAP
3E00
7F00
F780
E380
E380
E380
E380
F780
7F00
3E00
ENDCHAR
STARTCHAR afii10081
ENCODING 1087
SWIDTH 611 0
DWIDTH 11 0
BBX 9 10 1 0
BITMAP
FF80
FF80
E380
E380
E380
E380
E380
E380
E380
E380
ENDCHAR
STARTCHAR afii10082
ENCODING 1088
SWIDTH 611 0
DWIDTH 11 0
BBX 9 14 1 -4
BITMAP
EE00
FF00
F780
E380
E380
E380
E380
F780
FF00
EE00
E000
E000
E000
E000
ENDCHAR
STARTCHAR afii10083
ENCODING 1089
SWIDTH 556 0
DWIDTH 10 0
BBX 8 10 1 0
BITMAP
3C
7E
E7
E0
E0
E0
E0
E7
7E
3C
ENDCHAR
STARTCHAR afii10084
ENCODING 1090
SWIDTH 500 0
DWIDTH 9 0
BBX 7 10 1 0
BITMAP
FE
FE
38
38
38
38
38
38
38
38
ENDCHAR
STARTCHAR afii10085
ENCODING 1091
SWIDTH 611 0
DWIDTH 11 0
BBX 9 14 1 -4
BITMAP
E180
E380
6300
6300
7700
3600
3600
3E00
1C00
1C00
1C00
1800
7800
7000
ENDCHAR
STARTCHAR afii10086
ENCODING 1092
SWIDTH 833 0
DWIDTH 15 0
BBX 13 17 1 -4
BITMAP
0700
0700
0700
7770
7FF0
E738
E738
E738
E738
E738
E738
7FF0
7770
0700
0700
0700
0700
ENDCHAR
STARTCHAR afii10087
ENCODING 1093
SWIDTH 611 0
DWIDTH 11 0
BBX 9 10 1 0
BITMAP
E380
6700
7600
3E00
1C00
1C00
3E00
7700
6300
E380
ENDCHAR
STARTCHAR afii10088
ENCODING 1094
SWIDTH 611 0
DWIDTH 11 0
BBX 10 14 1 -4
BITMAP
E380
E380
E380
E380
E380
E380
E380
E380
FFC0
FFC0
01C0
01C0
01C0
01C0
ENDCHAR
STARTCHAR afii10089
ENCODING 1095
SWIDTH 556 0
DWIDTH 10 0
BBX 8 10 1 0
BITMAP
E7
E7
E7
E7
E7
FF
77
07
07
07
ENDCHAR
STARTCHAR afii10090
ENCODING 1096
SWIDTH 833 0
DWIDTH 15 0
BBX 13 10 1 0
BITMAP
E738
E738
E738
E738
E738
E738
E738
E738
FFF8
FFF8
ENDCHAR
STARTCHAR afii10091
ENCODING 1097
SWIDTH 833 0
DWIDTH 15 0
BBX 14 14 1 -4
BITMAP
E738
E738
E738
E738
E738
E738
E738
E738
FFFC
FFFC
001C
001C
001C
001C
ENDCHAR
STARTCHAR afii10092
ENCODING 1098
SWIDTH 722 0
DWIDTH 13 0
BBX 12 10 0 0
BITMAP
FC00
FC00
1C00
1C00
1FE0
1FF0
1C70
1C70
1FF0
1FC0
ENDCHAR
STARTCHAR afii10093
ENCODING 1099
SWIDTH 833 0
DWIDTH 15 0
BBX 13 10 1 0
BITMAP
E038
E038
E038
E038
FF38
FFB8
E3B8
E3B8
FFB8
FE38
ENDCHAR
STARTCHAR afii10094
ENCODING 1100
SWIDTH 611 0
DWIDTH 11 0
BBX 9 10 1 0
BITMAP
E000
E000
E000
E000
FF00
FF80
E380
E380
FF80
FE00
ENDCHAR
STARTCHAR afii10095
ENCODING 1101
SWIDTH 556 0
DWIDTH 10 0
BBX 9 10 0 0
BITMAP
3E00
7F00
E380
0380
1F80
1F80
0380
E380
7F00
3E00
ENDCHAR
STARTCHAR afii10096
ENCODING 1102
SWIDTH 833 0
DWIDTH 15 0
BBX 13 10 1 0
BITMAP
E3E0
E7F0
EF78
EE38
FE38
FE38
EE38
EF78
E7F0
E3E0
ENDCHAR
STARTCHAR afii10097
ENCODING 1103
SWIDTH 611 0
DWIDTH 11 0
BBX 10 10 0 0
BITMAP
1FC0
7FC0
71C0
71C0
7FC0
1FC0
39C0
31C0
71C0
E1C0
ENDCHAR
STARTCHAR afii10071
ENCODING 1105
SWIDTH 611 0
DWIDTH 11 0
BBX 9 13 1 0
BITMAP
3300
3300
0000
3E00
7F00
E300
E380
FF80
FF80
E000
E380
7F00
3E00
ENDCHAR
STARTCHAR afii10099
ENCODING 1106
SWIDTH 611 0
DWIDTH 11 0
BBX 10 17 0 -4
BITMAP
7000
FE00
FE00
7000
7780
7FC0
79C0
71C0
71C0
71C0
71C0
71C0
71C0
01C0
01C0
03C0
0380
ENDCHAR
STARTCHAR afii10100
ENCODING 1107
SWIDTH 444 0
DWIDTH 8 0
BBX 7 14 1 0
BITMAP
06
0C
18
00
FE
FE
E0
E0
E0
E0
E0
E0
E0
E0
ENDCHAR
STARTCHAR afii10101
ENCODING 1108
SWIDTH 556 0
DWIDTH 10 0
BBX 9 10 1 0
BITMAP
3E00
7F00
E380
E000
F800
F800
E000
E380
7F00
3E00
ENDCHAR
STARTCHAR afii10102
ENCODING 1109
SWIDTH 556 0
DWIDTH 10 0
BBX 8 10 1 0
BITMAP
7C
FF
E7
F0
FE
3F
07
E7
FF
3C
ENDCHAR
STARTCHAR afii10103
ENCODING 1110
SWIDTH 278 0
DWIDTH 5 0
BBX 3 13 1 0
BITMAP
E0
E0
00
E0
E0
E0
E0
E0
E0
E0
E0
E0
E0
ENDCHAR
STARTCHAR afii10104
ENCODING 1111
SWIDTH 278 0
DWIDTH 5 0
BBX 6 13 0 0
BITMAP
CC
CC
00
70
70
70
70
70
70
70
70
70
70
ENDCHAR
STARTCHAR afii10105
ENCODING 1112
SWIDTH 278 0
DWIDTH 5 0
BBX 5 17 -1 -4
BITMAP
38
38
00
38
38
38
38
38
38
38
38
38
38
38
38
F8
F0
ENDCHAR
STARTCHAR afii10106
ENCODING 1113
SWIDTH 944 0
DWIDTH 17 0
BBX 16 10 0 0
BITMAP
1FC0
1FC0
19C0
39C0
39FE
39FF
39C7
31C7
F1FF
E1FC
ENDCHAR
STARTCHAR afii10107
ENCODING 1114
SWIDTH 889 0
DWIDTH 16 0
BBX 14 10 1 0
BITMAP
E700
E700
E700
E700
FFF8
FFFC
E71C
E71C
E7FC
E7F0
ENDCHAR
STARTCHAR afii10108
ENCODING 1115
SWIDTH 611 0
DWIDTH 11 0
BBX 10 13 0 0
BITMAP
7000
FE00
FE00
7000
7780
7FC0
79C0
71C0
71C0
71C0
71C0
71C0
71C0
ENDCHAR
STARTCHAR afii10109
ENCODING 1116
SWIDTH 500 0
DWIDTH 9 0
BBX 8 14 1 0
BITMAP
06
0C
18
00
E3
E6
E6
EC
FC
FC
EC
E6
E6
E7
ENDCHAR
STARTCHAR afii10110
ENCODING 1118
SWIDTH 611 0
DWIDTH 11 0
BBX 9 18 1 -4
BITMAP
3300
3F00
1E00
0000
E180
E380
6300
6300
7700
3600
3600
3E00
1C00
1C00
1C00
1800
7800
7000
ENDCHAR
STARTCHAR afii10193
ENCODING 1119
SWIDTH 556 0
DWIDTH 10 0
BBX 8 14 1 -4
BITMAP
E7
E7
E7
E7
E7
E7
E7
E7
FF
FF
1C
1C
1C
1C
ENDCHAR
STARTCHAR afii10050
ENCODING 1168
SWIDTH 500 0
DWIDTH 9 0
BBX 8 16 1 0
BITMAP
07
07
07
07
FF
FF
E0
E0
E0
E0
E0
E0
E0
E0
E0
E0
ENDCHAR
STARTCHAR afii10098
ENCODING 1169
SWIDTH 444 0
DWIDTH 8 0
BBX 7 13 1 0
BITMAP
0E
0E
0E
FE
FE
E0
E0
E0
E0
E0
E0
E0
E0
ENDCHAR
STARTCHAR Wgrave
ENCODING 7808
SWIDTH 944 0
DWIDTH 17 0
BBX 17 16 0 0
BITMAP
030000
018000
00C000
000000
C1C380
E1C300
E3C300
636700
636700
736600
366600
363600
363E00
3E3C00
1C3C00
1C3C00
ENDCHAR
STARTCHAR wgrave
ENCODING 7809
SWIDTH 833 0
DWIDTH 15 0
BBX 13 14 1 0
BITMAP
0C00
0600
0300
0000
C718
C718
E538
6DB0
6DB0
6DB0
69B0
68A0
38E0
38E0
ENDCHAR
STARTCHAR Wacute
ENCODING 7810
SWIDTH 944 0
DWIDTH 17 0
BBX 17 16 0 0
BITMAP
006000
00C000
018000
000000
C1C380
E1C300
E3C300
636700
636700
736600
366600
363600
363E00
3E3C00
1C3C00
1C3C00
ENDCHAR
STARTCHAR wacute
ENCODING 7811
SWIDTH 833 0
DWIDTH 15 0
BBX 13 14 1 0
BITMAP
00C0
0180
0300
0000
C718
C718
E538
6DB0
6DB0
6DB0
69B0
68A0
38E0
38E0
ENDCHAR
STARTCHAR Wdieresis
ENCODING 7812
SWIDTH 944 0
DWIDTH 17 0
BBX 17 15 0 0
BITMAP
033000
033000
000000
C1C380
E1C300
E3C300
636700
636700
736600
366600
363600
363E00
3E3C00
1C3C00
1C3C00
ENDCHAR
STARTCHAR wdieresis
ENCODING 7813
SWIDTH 833 0
DWIDTH 15 0
BBX 13 13 1 0
BITMAP
0CC0
0CC0
0000
C718
C718
E538
6DB0
6DB0
6DB0
69B0
68A0
38E0
38E0
ENDCHAR
STARTCHAR Ygrave
ENCODING 7922
SWIDTH 722 0
DWIDTH 13 0
BBX 11 16 1 0
BITMAP
1800
0C00
0600
0000
E0E0
60C0
71C0
3B80
3B80
1F00
0E00
0E00
0E00
0E00
0E00
0E00
ENDCHAR
STARTCHAR ygrave
ENCODING 7923
SWIDTH 611 0
DWIDTH 11 0
BBX 9 18 1 -4
BITMAP
3000
1800
0C00
0000
E180
E380
6300
6300
7700
3600
3600
3E00
1C00
1C00
1C00
1800
7800
7000
ENDCHAR
STARTCHAR uni2010
ENCODING 8208
SWIDTH 333 0
DWIDTH 6 0
BBX 4 2 1 4
BITMAP
F0
F0
ENDCHAR
STARTCHAR uni2011
ENCODING 8209
SWIDTH 333 0
DWIDTH 6 0
BBX 4 2 1 4
BITMAP
F0
F0
ENDCHAR
STARTCHAR figuredash
ENCODING 8210
SWIDTH 333 0
DWIDTH 6 0
BBX 4 2 1 4
BITMAP
F0
F0
ENDCHAR
STARTCHAR endash
ENCODING 8211
SWIDTH 556 0
DWIDTH 10 0
BBX 8 2 1 4
BITMAP
FF
FF
ENDCHAR
STARTCHAR emdash
ENCODING 8212
SWIDTH 1000 0
DWIDTH 18 0
BBX 18 2 0 4
BITMAP
FFFFC0
FFFFC0
ENDCHAR
STARTCHAR afii00208
ENCODING 8213
SWIDTH 1000 0
DWIDTH 18 0
BBX 18 2 0 4
BITMAP
FFFFC0
FFFFC0
ENDCHAR
STARTCHAR underscoredbl
ENCODING 8215
SWIDTH 556 0
DWIDTH 10 0
BBX 10 3 0 -5
BITMAP
FFC0
0000
FFC0
ENDCHAR
STARTCHAR quoteleft
ENCODING 8216
SWIDTH 278 0
DWIDTH 5 0
BBX 3 6 1 6
BITMAP
60
C0
C0
E0
E0
E0
ENDCHAR
STARTCHAR quoteright
ENCODING 8217
SWIDTH 278 0
DWIDTH 5 0
BBX 3 6 1 6
BITMAP
E0
E0
E0
60
60
C0
ENDCHAR
STARTCHAR quotesinglbase
ENCODING 8218
SWIDTH 278 0
DWIDTH 5 0
BBX 3 6 1 -3
BITMAP
E0
E0
E0
60
60
C0
ENDCHAR
STARTCHAR quotereversed
ENCODING 8219
SWIDTH 278 0
DWIDTH 5 0
BBX 3 6 1 6
BITMAP
E0
E0
E0
C0
C0
60
ENDCHAR
STARTCHAR quotedblleft
ENCODING 8220
SWIDTH 500 0
DWIDTH 9 0
BBX 7 6 1 6
BITMAP
66
CC
CC
EE
EE
EE
ENDCHAR
STARTCHAR quotedblright
ENCODING 8221
SWIDTH 500 0
DWIDTH 9 0
BBX 7 6 1 6
BITMAP
EE
EE
EE
66
66
CC
ENDCHAR
STARTCHAR quotedblbase
ENCODING 8222
SWIDTH 500 0
DWIDTH 9 0
BBX 7 6 1 -3
BITMAP
EE
EE
EE
66
66
CC
ENDCHAR
STARTCHAR dagger
ENCODING 8224
SWIDTH 556 0
DWIDTH 10 0
BBX 8 14 1 -1
BITMAP
18
18
18
FF
FF
18
18
18
18
18
18
18
18
18
ENDCHAR
STARTCHAR daggerdbl
ENCODING 8225
SWIDTH 556 0
DWIDTH 10 0
BBX 8 14 1 -1
BITMAP
18
18
18
FF
FF
18
18
18
18
FF
FF
18
18
18
ENDCHAR
STARTCHAR bullet
ENCODING 8226
SWIDTH 333 0
DWIDTH 6 0
BBX 5 5 0 3
BITMAP
70
F8
F8
F8
70
ENDCHAR
STARTCHAR ellipsis
ENCODING 8230
SWIDTH 1000 0
DWIDTH 18 0
BBX 15 3 1 0
BITMAP
E38E
E38E
E38E
ENDCHAR
STARTCHAR perthousand
ENCODING 8240
SWIDTH 1000 0
DWIDTH 18 0
BBX 18 12 0 0
BITMAP
706000
D8C000
D88000
D98000
DB0000
760000
06E380
0DB6C0
19B6C0
11B6C0
31B6C0
60E380
ENDCHAR
STARTCHAR minute
ENCODING 8242
SWIDTH 222 0
DWIDTH 4 0
BBX 4 4 0 8
BITMAP
70
60
60
60
ENDCHAR
STARTCHAR second
ENCODING 8243
SWIDTH 500 0
DWIDTH 9 0
BBX 9 4 0 8
BITMAP
7380
6300
6300
6300
ENDCHAR
STARTCHAR guilsinglleft
ENCODING 8249
SWIDTH 333 0
DWIDTH 6 0
BBX 4 7 1 2
BITMAP
30
60
E0
C0
E0
60
30
ENDCHAR
STARTCHAR guilsinglright
ENCODING 8250
SWIDTH 333 0
DWIDTH 6 0
BBX 4 7 1 2
BITMAP
C0
60
70
30
70
60
C0
ENDCHAR
STARTCHAR exclamdbl
ENCODING 8252
SWIDTH 611 0
DWIDTH 11 0
BBX 8 12 1 0
BITMAP
E7
E7
E7
E7
E7
E7
E7
E7
00
E7
E7
E7
ENDCHAR
STARTCHAR uni203E
ENCODING 8254
SWIDTH 333 0
DWIDTH 6 0
BBX 8 2 -1 12
BITMAP
FF
FF
ENDCHAR
STARTCHAR fraction
ENCODING 8260
SWIDTH 167 0
DWIDTH 3 0
BBX 9 12 -3 0
BITMAP
0180
0100
0300
0600
0400
0C00
1800
1000
3000
6000
4000
C000
ENDCHAR
STARTCHAR uni207F
ENCODING 8319
SWIDTH 389 0
DWIDTH 7 0
BBX 5 5 1 5
BITMAP
F8
D8
D8
D8
D8
ENDCHAR
STARTCHAR franc
ENCODING 8355
SWIDTH 556 0
DWIDTH 10 0
BBX 9 12 0 0
BITMAP
7F80
7F80
7000
7000
7000
7F80
7F80
7000
7000
FC00
FC00
7000
ENDCHAR
STARTCHAR lira
ENCODING 8356
SWIDTH 556 0
DWIDTH 10 0
BBX 8 12 1 0
BITMAP
3C
7E
7E
70
FC
70
FC
70
70
E7
FF
FE
ENDCHAR
STARTCHAR peseta
ENCODING 8359
SWIDTH 1167 0
DWIDTH 21 0
BBX 19 12 1 0
BITMAP
FC0000
FE0000
E70000
E73000
E77000
FFFBC0
FFFFE0
E07700
E073C0
E070E0
E07FE0
E03BC0
ENDCHAR
STARTCHAR Euro
ENCODING 8364
SWIDTH 556 0
DWIDTH 10 0
BBX 9 12 0 0
BITMAP
1E00
3F00
7380
7000
FC00
7000
FC00
7000
7000
3B80
3F80
1E00
ENDCHAR
STARTCHAR afii61248
ENCODING 8453
SWIDTH 889 0
DWIDTH 16 0
BBX 14 12 1 0
BITMAP
7830
CC60
CC40
C0C0
C180
CF78
7BCC
06CC
0CCC
08CC
18CC
3078
ENDCHAR
STARTCHAR afii61289
ENCODING 8467
SWIDTH 500 0
DWIDTH 9 0
BBX 8 12 0 0
BITMAP
3E
7F
77
77
76
7E
F8
F0
77
77
7E
3C
ENDCHAR
STARTCHAR afii61352
ENCODING 8470
SWIDTH 1111 0
DWIDTH 20 0
BBX 18 12 1 0
BITMAP
F0E000
F0E000
F8E000
F8E000
ECE780
ECECC0
E6ECC0
E6ECC0
E3ECC0
E3E780
E1E000
E1EFC0
ENDCHAR
STARTCHAR trademark
ENCODING 8482
SWIDTH 1000 0
DWIDTH 18 0
BBX 15 6 1 6
BITMAP
FD86
31CE
314A
317A
3132
3132
ENDCHAR
STARTCHAR u2126
ENCODING 8486
SWIDTH 778 0
DWIDTH 14 0
BBX 12 12 1 0
BITMAP
1F80
7FE0
70E0
E070
E070
E070
E070
6060
70E0
39C0
F9F0
F9F0
ENDCHAR
STARTCHAR estimated
ENCODING 8494
SWIDTH 611 0
DWIDTH 11 0
BBX 9 10 1 0
BITMAP
3E00
6300
6300
E380
FF80
E000
E000
6100
7200
3C00
ENDCHAR
STARTCHAR oneeighth
ENCODING 8539
SWIDTH 833 0
DWIDTH 15 0
BBX 14 12 0 0
BITMAP
7030
B020
3060
30C0
3080
FD80
037C
026C
0638
0C6C
086C
1838
ENDCHAR
STARTCHAR threeeighths
ENCODING 8540
SWIDTH 833 0
DWIDTH 15 0
BBX 14 12 0 0
BITMAP
F830
1820
3060
18C0
D880
7180
037C
026C
0638
0C6C
086C
1838
ENDCHAR
STARTCHAR fiveeighths
ENCODING 8541
SWIDTH 833 0
DWIDTH 15 0
BBX 14 12 0 0
BITMAP
F830
C020
F060
18C0
D880
7180
037C
026C
0638
0C6C
086C
1838
ENDCHAR
STARTCHAR seveneighths
ENCODING 8542
SWIDTH 833 0
DWIDTH 15 0
BBX 13 12 1 0
BITMAP
F860
1840
30C0
2180
6100
6300
06F8
04D8
0C70
18D8
10D8
3070
ENDCHAR
STARTCHAR arrowleft
ENCODING 8592
SWIDTH 1000 0
DWIDTH 18 0
BBX 11 5 4 0
BITMAP
2000
4000
FFE0
4000
2000
ENDCHAR
STARTCHAR arrowup
ENCODING 8593
SWIDTH 500 0
DWIDTH 9 0
BBX 5 11 2 -1
BITMAP
20
70
A8
20
20
20
20
20
20
20
20
ENDCHAR
STARTCHAR arrowright
ENCODING 8594
SWIDTH 1000 0
DWIDTH 18 0
BBX 11 5 4 0
BITMAP
0080
0040
FFE0
0040
0080
ENDCHAR
STARTCHAR arrowdown
ENCODING 8595
SWIDTH 500 0
DWIDTH 9 0
BBX 5 11 2 -1
BITMAP
20
20
20
20
20
20
20
20
A8
70
20
ENDCHAR
STARTCHAR arrowboth
ENCODING 8596
SWIDTH 1000 0
DWIDTH 18 0
BBX 11 5 4 0
BITMAP
2080
4040
FFE0
4040
2080
ENDCHAR
STARTCHAR arrowupdn
ENCODING 8597
SWIDTH 500 0
DWIDTH 9 0
BBX 5 11 2 -1
BITMAP
20
70
A8
20
20
20
20
20
A8
70
20
ENDCHAR
STARTCHAR arrowupdnbse
ENCODING 8616
SWIDTH 500 0
DWIDTH 9 0
BBX 5 13 2 -3
BITMAP
20
70
A8
20
20
20
20
20
A8
70
20
00
F8
ENDCHAR
STARTCHAR partialdiff
ENCODING 8706
SWIDTH 500 0
DWIDTH 9 0
BBX 9 13 0 0
BITMAP
3E00
3F00
0780
0380
3B80
7F80
7780
E380
E380
E700
E700
FE00
7C00
ENDCHAR
STARTCHAR u2206
ENCODING 8710
SWIDTH 556 0
DWIDTH 10 0
BBX 10 12 0 0
BITMAP
1E00
1E00
1E00
3B00
3300
3300
7380
6180
6180
E1C0
FFC0
FFC0
ENDCHAR
STARTCHAR product
ENCODING 8719
SWIDTH 833 0
DWIDTH 15 0
BBX 11 16 2 -4
BITMAP
FFE0
FFE0
E0E0
E0E0
E0E0
E0E0
E0E0
E0E0
E0E0
E0E0
E0E0
E0E0
E0E0
E0E0
E0E0
E0E0
ENDCHAR
STARTCHAR summation
ENCODING 8721
SWIDTH 722 0
DWIDTH 13 0
BBX 11 16 1 -4
BITMAP
FFC0
FFC0
6000
3000
1800
1C00
0E00
0700
0E00
0C00
1C00
3800
7000
6000
FFE0
FFE0
ENDCHAR
STARTCHAR minus
ENCODING 8722
SWIDTH 611 0
DWIDTH 11 0
BBX 9 2 1 5
BITMAP
FF80
FF80
ENDCHAR
STARTCHAR fraction
ENCODING 8725
SWIDTH 167 0
DWIDTH 3 0
BBX 9 12 -3 0
BITMAP
0180
0100
0300
0600
0400
0C00
1800
1000
3000
6000
4000
C000
ENDCHAR
STARTCHAR periodcentered
ENCODING 8729
SWIDTH 278 0
DWIDTH 5 0
BBX 3 3 1 5
BITMAP
E0
E0
E0
ENDCHAR
STARTCHAR radical
ENCODING 8730
SWIDTH 556 0
DWIDTH 10 0
BBX 10 14 0 0
BITMAP
00C0
00C0
01C0
0180
0180
0180
E300
F300
3300
3300
1E00
1E00
1E00
0E00
ENDCHAR
STARTCHAR infinity
ENCODING 8734
SWIDTH 722 0
DWIDTH 13 0
BBX 11 6 1 2
BITMAP
71C0
FBE0
CE60
CE60
FBE0
71C0
ENDCHAR
STARTCHAR orthogonal
ENCODING 8735
SWIDTH 1000 0
DWIDTH 18 0
BBX 11 11 4 0
BITMAP
8000
8000
8000
8000
8000
8000
8000
8000
8000
8000
FFE0
ENDCHAR
STARTCHAR intersection
ENCODING 8745
SWIDTH 722 0
DWIDTH 13 0
BBX 9 9 2 0
BITMAP
3E00
6300
C180
8080
8080
8080
8080
8080
8080
ENDCHAR
STARTCHAR integral
ENCODING 8747
SWIDTH 278 0
DWIDTH 5 0
BBX 7 17 -1 -4
BITMAP
1E
3E
38
38
38
38
38
38
38
38
38
38
38
38
38
F8
F0
ENDCHAR
STARTCHAR approxequal
ENCODING 8776
SWIDTH 556 0
DWIDTH 10 0
BBX 9 9 0 2
BITMAP
7000
F880
0F80
0700
0000
7000
FC80
8F80
0700
ENDCHAR
STARTCHAR notequal
ENCODING 8800
SWIDTH 556 0
DWIDTH 10 0
BBX 8 10 1 1
BITMAP
06
04
FF
FF
18
18
FF
FF
20
60
ENDCHAR
STARTCHAR equivalence
ENCODING 8801
SWIDTH 611 0
DWIDTH 11 0
BBX 9 8 1 2
BITMAP
FF80
0000
0000
FF80
0000
0000
0000
FF80
ENDCHAR
STARTCHAR lessequal
ENCODING 8804
SWIDTH 556 0
DWIDTH 10 0
BBX 8 11 1 0
BITMAP
03
1F
FC
E0
E0
FC
1F
03
00
FF
FF
ENDCHAR
STARTCHAR greaterequal
ENCODING 8805
SWIDTH 556 0
DWIDTH 10 0
BBX 8 11 1 0
BITMAP
C0
F8
7F
07
07
3F
F8
C0
00
FF
FF
ENDCHAR
STARTCHAR house
ENCODING 8962
SWIDTH 611 0
DWIDTH 11 0
BBX 8 10 1 0
BITMAP
00
18
24
42
81
81
81
81
81
FF
ENDCHAR
STARTCHAR revlogicalnot
ENCODING 8976
SWIDTH 611 0
DWIDTH 11 0
BBX 9 5 1 2
BITMAP
FF80
FF80
C000
C000
C000
ENDCHAR
STARTCHAR integraltp
ENCODING 8992
SWIDTH 611 0
DWIDTH 11 0
BBX 4 20 5 -5
BITMAP
70
B0
80
80
80
80
80
80
80
80
80
80
80
80
80
80
80
80
80
80
ENDCHAR
STARTCHAR integralbt
ENCODING 8993
SWIDTH 611 0
DWIDTH 11 0
BBX 4 20 2 -5
BITMAP
10
10
10
10
10
10
10
10
10
10
10
10
10
10
10
10
10
10
D0
E0
ENDCHAR
STARTCHAR SF100000
ENCODING 9472
SWIDTH 722 0
DWIDTH 13 0
BBX 13 1 0 5
BITMAP
FFF8
ENDCHAR
STARTCHAR SF110000
ENCODING 9474
SWIDTH 611 0
DWIDTH 11 0
BBX 1 21 6 -5
BITMAP
80
80
80
80
80
80
80
80
80
80
80
80
80
80
80
80
80
80
80
80
80
ENDCHAR
STARTCHAR SF010000
ENCODING 9484
SWIDTH 722 0
DWIDTH 13 0
BBX 7 11 6 -5
BITMAP
FE
80
80
80
80
80
80
80
80
80
80
ENDCHAR
STARTCHAR SF030000
ENCODING 9488
SWIDTH 722 0
DWIDTH 13 0
BBX 7 11 0 -5
BITMAP
FE
02
02
02
02
02
02
02
02
02
02
ENDCHAR
STARTCHAR SF020000
ENCODING 9492
SWIDTH 722 0
DWIDTH 13 0
BBX 7 11 6 5
BITMAP
80
80
80
80
80
80
80
80
80
80
FE
ENDCHAR
STARTCHAR SF040000
ENCODING 9496
SWIDTH 722 0
DWIDTH 13 0
BBX 7 11 0 5
BITMAP
02
02
02
02
02
02
02
02
02
02
FE
ENDCHAR
STARTCHAR SF080000
ENCODING 9500
SWIDTH 722 0
DWIDTH 13 0
BBX 7 21 6 -5
BITMAP
80
80
80
80
80
80
80
80
80
80
FE
80
80
80
80
80
80
80
80
80
80
ENDCHAR
STARTCHAR SF090000
ENCODING 9508
SWIDTH 722 0
DWIDTH 13 0
BBX 7 21 0 -5
BITMAP
02
02
02
02
02
02
02
02
02
02
FE
02
02
02
02
02
02
02
02
02
02
ENDCHAR
STARTCHAR SF060000
ENCODING 9516
SWIDTH 722 0
DWIDTH 13 0
BBX 13 11 0 -5
BITMAP
FFF8
0200
0200
0200
0200
0200
0200
0200
0200
0200
0200
ENDCHAR
STARTCHAR SF070000
ENCODING 9524
SWIDTH 722 0
DWIDTH 13 0
BBX 13 11 0 5
BITMAP
0200
0200
0200
0200
0200
0200
0200
0200
0200
0200
FFF8
ENDCHAR
STARTCHAR SF050000
ENCODING 9532
SWIDTH 722 0
DWIDTH 13 0
BBX 13 21 0 -5
BITMAP
0200
0200
0200
0200
0200
0200
0200
0200
0200
0200
FFF8
0200
0200
0200
0200
0200
0200
0200
0200
0200
0200
ENDCHAR
STARTCHAR SF430000
ENCODING 9552
SWIDTH 722 0
DWIDTH 13 0
BBX 13 4 0 4
BITMAP
FFF8
0000
0000
FFF8
ENDCHAR
STARTCHAR SF240000
ENCODING 9553
SWIDTH 722 0
DWIDTH 13 0
BBX 4 21 4 -5
BITMAP
90
90
90
90
90
90
90
90
90
90
90
90
90
90
90
90
90
90
90
90
90
ENDCHAR
STARTCHAR SF510000
ENCODING 9554
SWIDTH 722 0
DWIDTH 13 0
BBX 7 13 6 -5
BITMAP
FE
80
80
FE
80
80
80
80
80
80
80
80
80
ENDCHAR
STARTCHAR SF520000
ENCODING 9555
SWIDTH 722 0
DWIDTH 13 0
BBX 9 11 4 -5
BITMAP
FF80
9000
9000
9000
9000
9000
9000
9000
9000
9000
9000
ENDCHAR
STARTCHAR SF390000
ENCODING 9556
SWIDTH 722 0
DWIDTH 13 0
BBX 9 13 4 -5
BITMAP
FF80
8000
8000
9F80
9000
9000
9000
9000
9000
9000
9000
9000
9000
ENDCHAR
STARTCHAR SF220000
ENCODING 9557
SWIDTH 722 0
DWIDTH 13 0
BBX 7 13 0 -5
BITMAP
FE
02
02
FE
02
02
02
02
02
02
02
02
02
ENDCHAR
STARTCHAR SF210000
ENCODING 9558
SWIDTH 722 0
DWIDTH 13 0
BBX 8 11 0 -5
BITMAP
FF
09
09
09
09
09
09
09
09
09
09
ENDCHAR
STARTCHAR SF250000
ENCODING 9559
SWIDTH 722 0
DWIDTH 13 0
BBX 8 13 0 -5
BITMAP
FF
01
01
F9
09
09
09
09
09
09
09
09
09
ENDCHAR
STARTCHAR SF500000
ENCODING 9560
SWIDTH 722 0
DWIDTH 13 0
BBX 7 12 6 4
BITMAP
80
80
80
80
80
80
80
80
FE
80
80
FE
ENDCHAR
STARTCHAR SF490000
ENCODING 9561
SWIDTH 722 0
DWIDTH 13 0
BBX 9 11 4 5
BITMAP
9000
9000
9000
9000
9000
9000
9000
9000
9000
9000
FF80
ENDCHAR
STARTCHAR SF380000
ENCODING 9562
SWIDTH 722 0
DWIDTH 13 0
BBX 9 12 4 4
BITMAP
9000
9000
9000
9000
9000
9000
9000
9000
9F80
8000
8000
FF80
ENDCHAR
STARTCHAR SF280000
ENCODING 9563
SWIDTH 722 0
DWIDTH 13 0
BBX 7 12 0 4
BITMAP
02
02
02
02
02
02
02
02
FE
02
02
FE
ENDCHAR
STARTCHAR SF270000
ENCODING 9564
SWIDTH 722 0
DWIDTH 13 0
BBX 8 11 0 5
BITMAP
09
09
09
09
09
09
09
09
09
09
FF
ENDCHAR
STARTCHAR SF260000
ENCODING 9565
SWIDTH 722 0
DWIDTH 13 0
BBX 8 12 0 4
BITMAP
09
09
09
09
09
09
09
09
F9
01
01
FF
ENDCHAR
STARTCHAR SF360000
ENCODING 9566
SWIDTH 722 0
DWIDTH 13 0
BBX 7 21 6 -5
BITMAP
80
80
80
80
80
80
80
80
FE
80
80
FE
80
80
80
80
80
80
80
80
80
ENDCHAR
STARTCHAR SF370000
ENCODING 9567
SWIDTH 722 0
DWIDTH 13 0
BBX 9 21 4 -5
BITMAP
9000
9000
9000
9000
9000
9000
9000
9000
9000
9000
9F80
9000
9000
9000
9000
9000
9000
9000
9000
9000
9000
ENDCHAR
STARTCHAR SF420000
ENCODING 9568
SWIDTH 722 0
DWIDTH 13 0
BBX 9 21 4 -5
BITMAP
9000
9000
9000
9000
9000
9000
9000
9000
9F80
8000
8000
9F80
9000
9000
9000
9000
9000
9000
9000
9000
9000
ENDCHAR
STARTCHAR SF190000
ENCODING 9569
SWIDTH 722 0
DWIDTH 13 0
BBX 7 21 0 -5
BITMAP
02
02
02
02
02
02
02
02
FE
02
02
FE
02
02
02
02
02
02
02
02
02
ENDCHAR
STARTCHAR SF200000
ENCODING 9570
SWIDTH 722 0
DWIDTH 13 0
BBX 8 21 0 -5
BITMAP
09
09
09
09
09
09
09
09
09
09
F9
09
09
09
09
09
09
09
09
09
09
ENDCHAR
STARTCHAR SF230000
ENCODING 9571
SWIDTH 722 0
DWIDTH 13 0
BBX 8 21 0 -5
BITMAP
09
09
09
09
09
09
09
09
F9
01
01
F9
09
09
09
09
09
09
09
09
09
ENDCHAR
STARTCHAR SF470000
ENCODING 9572
SWIDTH 722 0
DWIDTH 13 0
BBX 13 13 0 -5
BITMAP
FFF8
0000
0000
FFF8
0200
0200
0200
0200
0200
0200
0200
0200
0200
ENDCHAR
STARTCHAR SF480000
ENCODING 9573
SWIDTH 722 0
DWIDTH 13 0
BBX 13 11 0 -5
BITMAP
FFF8
0900
0900
0900
0900
0900
0900
0900
0900
0900
0900
ENDCHAR
STARTCHAR SF410000
ENCODING 9574
SWIDTH 722 0
DWIDTH 13 0
BBX 13 13 0 -5
BITMAP
FFF8
0000
0000
F9F8
0900
0900
0900
0900
0900
0900
0900
0900
0900
ENDCHAR
STARTCHAR SF450000
ENCODING 9575
SWIDTH 722 0
DWIDTH 13 0
BBX 13 12 0 4
BITMAP
0200
0200
0200
0200
0200
0200
0200
0200
FFF8
0000
0000
FFF8
ENDCHAR
STARTCHAR SF460000
ENCODING 9576
SWIDTH 722 0
DWIDTH 13 0
BBX 13 11 0 5
BITMAP
0900
0900
0900
0900
0900
0900
0900
0900
0900
0900
FFF8
ENDCHAR
STARTCHAR SF400000
ENCODING 9577
SWIDTH 722 0
DWIDTH 13 0
BBX 13 12 0 4
BITMAP
0900
0900
0900
0900
0900
0900
0900
0900
F9F8
0000
0000
FFF8
ENDCHAR
STARTCHAR SF540000
ENCODING 9578
SWIDTH 722 0
DWIDTH 13 0
BBX 13 21 0 -5
BITMAP
0200
0200
0200
0200
0200
0200
0200
0200
FFF8
0200
0200
FFF8
0200
0200
0200
0200
0200
0200
0200
0200
0200
ENDCHAR
STARTCHAR SF530000
ENCODING 9579
SWIDTH 722 0
DWIDTH 13 0
BBX 13 21 0 -5
BITMAP
0900
0900
0900
0900
0900
0900
0900
0900
0900
0900
FFF8
0900
0900
0900
0900
0900
0900
0900
0900
0900
0900
ENDCHAR
STARTCHAR SF440000
ENCODING 9580
SWIDTH 722 0
DWIDTH 13 0
BBX 13 21 0 -5
BITMAP
0900
0900
0900
0900
0900
0900
0900
0900
F9F8
0000
0000
F9F8
0900
0900
0900
0900
0900
0900
0900
0900
0900
ENDCHAR
STARTCHAR upblock
ENCODING 9600
SWIDTH 722 0
DWIDTH 13 0
BBX 13 11 0 5
BITMAP
FFF8
FFF8
FFF8
FFF8
FFF8
FFF8
FFF8
FFF8
FFF8
FFF8
FFF8
ENDCHAR
STARTCHAR dnblock
ENCODING 9604
SWIDTH 722 0
DWIDTH 13 0
BBX 13 10 0 -5
BITMAP
FFF8
FFF8
FFF8
FFF8
FFF8
FFF8
FFF8
FFF8
FFF8
FFF8
ENDCHAR
STARTCHAR block
ENCODING 9608
SWIDTH 722 0
DWIDTH 13 0
BBX 13 21 0 -5
BITMAP
FFF8
FFF8
FFF8
FFF8
FFF8
FFF8
FFF8
FFF8
FFF8
FFF8
FFF8
FFF8
FFF8
FFF8
FFF8
FFF8
FFF8
FFF8
FFF8
FFF8
FFF8
ENDCHAR
STARTCHAR lfblock
ENCODING 9612
SWIDTH 722 0
DWIDTH 13 0
BBX 6 21 0 -5
BITMAP
FC
FC
FC
FC
FC
FC
FC
FC
FC
FC
FC
FC
FC
FC
FC
FC
FC
FC
FC
FC
FC
ENDCHAR
STARTCHAR rtblock
ENCODING 9616
SWIDTH 722 0
DWIDTH 13 0
BBX 7 21 6 -5
BITMAP
FE
FE
FE
FE
FE
FE
FE
FE
FE
FE
FE
FE
FE
FE
FE
FE
FE
FE
FE
FE
FE
ENDCHAR
STARTCHAR ltshade
ENCODING 9617
SWIDTH 722 0
DWIDTH 13 0
BBX 12 20 1 -5
BITMAP
8910
0000
2240
8910
0000
2240
0000
8910
0000
2240
8910
0000
2240
0000
8910
0000
2240
8910
0000
2240
ENDCHAR
STARTCHAR shade
ENCODING 9618
SWIDTH 722 0
DWIDTH 13 0
BBX 13 20 0 -5
BITMAP
52A8
0000
AD50
52A8
0000
AD50
0000
52A8
0000
0000
52A8
0000
AD50
0000
52A8
AD50
0000
52A8
0000
AD50
ENDCHAR
STARTCHAR dkshade
ENCODING 9619
SWIDTH 722 0
DWIDTH 13 0
BBX 13 20 0 -5
BITMAP
55A8
FFF8
AB50
55A8
FFF8
AB50
FFF8
55A8
FFF8
FFF8
55A8
FFF8
AB50
FFF8
FFF8
AB50
FFF8
55A8
FFF8
FFF0
ENDCHAR
STARTCHAR filledbox
ENCODING 9632
SWIDTH 611 0
DWIDTH 11 0
BBX 9 9 1 1
BITMAP
FF80
FF80
FF80
FF80
FF80
FF80
FF80
FF80
FF80
ENDCHAR
STARTCHAR H22073
ENCODING 9633
SWIDTH 611 0
DWIDTH 11 0
BBX 11 11 0 0
BITMAP
FFE0
8020
8020
8020
8020
8020
8020
8020
8020
8020
FFE0
ENDCHAR
STARTCHAR H18543
ENCODING 9642
SWIDTH 333 0
DWIDTH 6 0
BBX 4 4 1 4
BITMAP
F0
F0
F0
F0
ENDCHAR
STARTCHAR H18551
ENCODING 9643
SWIDTH 333 0
DWIDTH 6 0
BBX 4 4 1 4
BITMAP
F0
90
90
F0
ENDCHAR
STARTCHAR filledrect
ENCODING 9644
SWIDTH 1000 0
DWIDTH 18 0
BBX 18 5 0 0
BITMAP
FFFFC0
FFFFC0
FFFFC0
FFFFC0
FFFFC0
ENDCHAR
STARTCHAR triagup
ENCODING 9650
SWIDTH 1000 0
DWIDTH 18 0
BBX 10 11 4 0
BITMAP
0000
0800
0C00
1C00
1E00
3E00
3F00
7F00
7F80
FF80
FFC0
ENDCHAR
STARTCHAR triagrt
ENCODING 9658
SWIDTH 1000 0
DWIDTH 18 0
BBX 10 11 4 0
BITMAP
0000
C000
F000
FC00
FF00
FFC0
FF80
FE00
F800
E000
8000
ENDCHAR
STARTCHAR triagdn
ENCODING 9660
SWIDTH 1000 0
DWIDTH 18 0
BBX 10 10 4 0
BITMAP
FFC0
7F80
7F80
3F00
3F00
1E00
1E00
0C00
0C00
0000
ENDCHAR
STARTCHAR triaglf
ENCODING 9668
SWIDTH 1000 0
DWIDTH 18 0
BBX 10 11 4 0
BITMAP
0000
00C0
03C0
0FC0
3FC0
FFC0
7FC0
1FC0
07C0
01C0
0040
ENDCHAR
STARTCHAR lozenge
ENCODING 9674
SWIDTH 500 0
DWIDTH 9 0
BBX 9 12 0 0
BITMAP
0800
1C00
3600
3600
6300
C180
C180
6300
3600
3600
1C00
0800
ENDCHAR
STARTCHAR circle
ENCODING 9675
SWIDTH 611 0
DWIDTH 11 0
BBX 8 8 1 1
BITMAP
3C
42
81
81
81
81
42
3C
ENDCHAR
STARTCHAR H18533
ENCODING 9679
SWIDTH 611 0
DWIDTH 11 0
BBX 8 8 2 1
BITMAP
3C
7E
FF
FF
FF
FF
7E
3C
ENDCHAR
STARTCHAR invbullet
ENCODING 9688
SWIDTH 611 0
DWIDTH 11 0
BBX 10 10 0 0
BITMAP
FFC0
E1C0
C0C0
8040
8040
8040
8040
C0C0
E1C0
FFC0
ENDCHAR
STARTCHAR invcircle
ENCODING 9689
SWIDTH 611 0
DWIDTH 11 0
BBX 10 10 0 0
BITMAP
FFC0
E1C0
DEC0
BF40
BF40
BF40
BF40
DEC0
E1C0
FFC0
ENDCHAR
STARTCHAR openbullet
ENCODING 9702
SWIDTH 333 0
DWIDTH 6 0
BBX 4 4 1 4
BITMAP
60
90
90
60
ENDCHAR
STARTCHAR smileface
ENCODING 9786
SWIDTH 1000 0
DWIDTH 18 0
BBX 11 11 4 0
BITMAP
1F00
2080
4040
8020
9120
8020
8020
9120
4E40
2080
1F00
ENDCHAR
STARTCHAR invsmileface
ENCODING 9787
SWIDTH 1056 0
DWIDTH 19 0
BBX 11 11 4 0
BITMAP
1F00
3F80
7FC0
FFE0
EEE0
FFE0
FFE0
EEE0
71C0
3F80
1F00
ENDCHAR
STARTCHAR sun
ENCODING 9788
SWIDTH 944 0
DWIDTH 17 0
BBX 11 11 3 -1
BITMAP
0400
4440
2E80
1100
2080
E0E0
2080
1100
2E80
4440
0400
ENDCHAR
STARTCHAR female
ENCODING 9792
SWIDTH 778 0
DWIDTH 14 0
BBX 5 9 4 1
BITMAP
70
88
88
88
70
20
F8
20
20
ENDCHAR
STARTCHAR male
ENCODING 9794
SWIDTH 778 0
DWIDTH 14 0
BBX 7 8 3 2
BITMAP
06
06
0A
70
88
88
88
70
ENDCHAR
STARTCHAR spade
ENCODING 9824
SWIDTH 556 0
DWIDTH 10 0
BBX 8 11 1 0
BITMAP
00
08
18
3C
7E
FF
FF
FF
6E
08
3C
ENDCHAR
STARTCHAR club
ENCODING 9827
SWIDTH 667 0
DWIDTH 12 0
BBX 10 11 1 0
BITMAP
0C00
1E00
1E00
1E00
7F80
FFC0
FFC0
FFC0
7B80
0C00
1E00
ENDCHAR
STARTCHAR heart
ENCODING 9829
SWIDTH 611 0
DWIDTH 11 0
BBX 9 10 1 0
BITMAP
7700
F780
FF80
FF80
7F00
3E00
1C00
1C00
0800
0800
ENDCHAR
STARTCHAR diamond
ENCODING 9830
SWIDTH 500 0
DWIDTH 9 0
BBX 9 11 0 0
BITMAP
0800
0800
1C00
3E00
7F00
FF80
7F00
3E00
1C00
0800
0800
ENDCHAR
STARTCHAR musicalnote
ENCODING 9834
SWIDTH 500 0
DWIDTH 9 0
BBX 6 10 1 0
BITMAP
10
10
18
1C
14
14
14
74
F8
E0
ENDCHAR
STARTCHAR musicalnotedbl
ENCODING 9835
SWIDTH 778 0
DWIDTH 14 0
BBX 9 10 2 0
BITMAP
0180
3E80
2180
3F80
3080
2080
2080
E380
E380
C300
ENDCHAR
STARTCHAR uniF001
ENCODING 61441
SWIDTH 611 0
DWIDTH 11 0
BBX 10 13 0 0
BITMAP
3DC0
7DC0
7000
FDC0
FDC0
71C0
71C0
71C0
71C0
71C0
71C0
71C0
71C0
ENDCHAR
STARTCHAR uniF002
ENCODING 61442
SWIDTH 611 0
DWIDTH 11 0
BBX 10 13 0 0
BITMAP
3DC0
7DC0
71C0
FDC0
FDC0
71C0
71C0
71C0
71C0
71C0
71C0
71C0
71C0
ENDCHAR
STARTCHAR uniF005
ENCODING 61445
SWIDTH 333 0
DWIDTH 6 0
BBX 4 3 1 -4
BITMAP
70
30
E0
ENDCHAR
STARTCHAR uniF001
ENCODING 64257
SWIDTH 611 0
DWIDTH 11 0
BBX 10 13 0 0
BITMAP
3DC0
7DC0
7000
FDC0
FDC0
71C0
71C0
71C0
71C0
71C0
71C0
71C0
71C0
ENDCHAR
STARTCHAR uniF002
ENCODING 64258
SWIDTH 611 0
DWIDTH 11 0
BBX 10 13 0 0
BITMAP
3DC0
7DC0
71C0
FDC0
FDC0
71C0
71C0
71C0
71C0
71C0
71C0
71C0
71C0
ENDCHAR
ENDFONT
